<svg xmlns="http://www.w3.org/2000/svg" width="100" height="100"><path fill="#ea7d6e" d="M77.688 7.125C88.473 14.465 97.325 25.978 100 39c.853 11.077 1.55 23.06-4 33l-1.578 2.848C88.623 84.55 82.036 90.818 72 96l-2.312 1.262c-10.444 4.77-26.029 4.791-36.875 1.175C30.37 97.318 30.37 97.318 28 96l-2.777-1.473C12.91 87.383 5.51 77.06.863 63.742-2.463 49.324-.27 35.007 7.125 22.312 23.093-1.215 53.598-6.91 77.688 7.126"/><path fill="#e93c39" d="M82 21c2.256 2.912 4.23 5.905 6.125 9.063l1.57 2.597c3.143 5.636 2.489 11.368 2.493 17.653l.037 3.42.005 3.318.013 3.02C91.975 63.302 91.135 65.975 90 69h-2l-.5 2.625C85.234 76.724 80.93 79.535 76 82c-2.978.524-5.966.96-8.957 1.402-2.978.466-2.978.466-5.308 1.617-4.998 1.793-10.287 1.314-15.545 1.297-2.052-.003-4.103.02-6.155.045-14.633.008-14.633.008-20.433-5.736L17.625 78l-2.023-2.625C14 73 14 73 13 70l-1.49-1.405c-4.81-5.08-3.875-15.639-3.885-22.22l-.074-2.695C7.51 34.57 10.916 28.577 17 22h1l.297 1.758C19.756 31.378 22.44 36.528 29 41c5.444 3.248 10.775 4.905 17 6-2 3-2 3-3.988 3.434-4.144.007-6.415-.06-10.012-2.309C30 46 30 46 29 44l-2.562 2.813-1.442 1.582L24 50l1 3a89 89 0 0 0 5 2c2 2 2 2 2.438 5.188 1.024 4.073 3.448 5.32 6.937 7.437l2.898 1.602C45.246 71.16 47.007 73.082 49 76v2h2l.5-2.125c2.587-4.96 7.403-7.872 12.375-10.25 2.542-1.944 2.44-2.53 2.938-5.562.508-2.791.77-3.752 3.082-5.473 2.009-.982 3.997-1.845 6.105-2.59a42.4 42.4 0 0 0-5-8l-1.875 2.438c-2.179 2.627-2.894 3.443-6.219 3.765l-2.406.047-2.406.078L56 50l-2-3 3.184-.812C65.87 43.82 73.244 41.412 79 34c1.486-3.105 2.278-5.898 2.625-9.312z"/><path fill="#faf5e4" d="M77.688 7.125C88.473 14.465 97.325 25.978 100 39c.853 11.077 1.55 23.06-4 33l-1.578 2.848C88.623 84.55 82.036 90.818 72 96l-2.312 1.262c-10.444 4.77-26.029 4.791-36.875 1.175C30.37 97.318 30.37 97.318 28 96l-2.777-1.473C12.91 87.383 5.51 77.06.863 63.742-2.463 49.324-.27 35.007 7.125 22.312 23.093-1.215 53.598-6.91 77.688 7.126M23 16h-1l-1-2c-6.096 4.402-9.28 10.225-12.762 16.734C7 33 7 33 5.793 34.828c-4.541 7.382-3.816 16.484-2.027 24.68C4.725 62.728 5.822 65.854 7 69l.875 2.785c2.972 8.797 8.221 12.87 16.334 17.089C31.961 92.671 39.346 94.419 48 95l2.605.246c12.88.693 23.612-4.675 33.02-12.996C88.164 78.068 90.769 74.722 93 69l1.188-2.625C98.708 53.161 96.5 39.397 91 27h-2l-.75-2.187C85.946 19.629 82.995 16.636 78 14v3l-2.055-1.094C69.514 12.7 64.221 10.96 57 12l-1 1c-2.016.234-4.038.413-6.062.563l-3.348.253L44 14v-2c-7.886-.616-13.734 1.046-21 4"/><path fill="#e87e6b" d="m39.25 11.938 2.703.027L44 12v2h6l-2 9-2.734-.312c-3.395-.018-3.395-.018-5.532 2.5L37.75 28A129 129 0 0 1 34 33h-2l1.277 2.336 1.66 3.039 1.653 3.023A157 157 0 0 1 39 46c-8.12-1.692-14.295-6.123-19-13-1.973-3.22-2.492-6.276-3-10a458 458 0 0 0-2.875 3.688l-1.617 2.074c-3.817 5.666-3.824 10.654-3.758 17.3l.012 2.827C8.848 55.768 9.442 62.283 11 69l3 1 3 6c3.488 5.004 6.015 7.333 12 9 4.276.355 8.54.33 12.83.316 2.033-.003 4.064.02 6.096.045C55.08 85.365 60.482 84.94 67 82c2.54-.371 2.54-.371 4.625-.437C77.827 81.029 81.981 77.593 86 73c1.235-2.133 1.235-2.133 2-4h2l-.062-2.437C90 64 90 64 91 63c.158-1.779.251-3.563.316-5.348l.127-3.271.12-3.443.13-3.456q.16-4.24.307-8.482l1 3h2c.353 14.37.593 27.68-9.61 38.86C79.31 86.973 73.428 90.812 65 93l-3.562 1.25c-11.55 2.52-25.009.793-35.254-5.031-2.188-1.29-2.188-1.29-4.707-2.188-5.908-2.46-10.292-6.746-12.727-12.656A264 264 0 0 1 7 69l-1.125-3.004c-3.792-10.732-5.134-20.976-.2-31.5C9.454 27.042 14.255 17.871 22 14v3l1.61-.84 2.14-1.098 2.11-1.09c3.874-1.76 7.148-2.09 11.39-2.034"/><path fill="#960b17" d="M82 21c2.256 2.912 4.23 5.905 6.125 9.063l1.57 2.597c3.143 5.636 2.489 11.368 2.493 17.653l.037 3.42.005 3.318.013 3.02C91.975 63.302 91.135 65.975 90 69h-2l-.5 2.625C85.234 76.724 80.93 79.535 76 82c-3.408.47-6.816.868-10.234 1.25-4.01.405-4.01.405-7.766 1.75-13.8 1.084-23.887.009-34.937-9.062A193 193 0 0 1 20 73l-2.812-2.5c-4.715-5.387-4.551-11.526-4.45-18.363C13.182 46.817 15.047 43.43 18 39c2.625-.187 2.625-.187 5 0-.328 3.716-.987 4.986-3.562 7.813-2.135 2.407-2.855 4.02-3 7.25.644 4.513 1.418 5.723 4.562 8.937 2.484 1.56 5.087 2.778 7.75 4q2.158 1.037 4.313 2.082l2.07.999C40.677 72.81 45.623 75.654 49 81v3h2l.188-1.625c1.408-4.117 4.012-7.275 7.702-9.53a128 128 0 0 1 6.485-2.907C75.069 66.157 75.069 66.157 82 59c.797-6.152.797-6.152-1.152-11.816l-1.41-1.496L77 43c.188-2.875.188-2.875 1-5l6-1-1.52-1.61c-1.957-3.16-1.604-4.99-1.168-8.64l.364-3.266z"/><path fill="#fe744a" d="m28 43 1.215 1.313c3.4 3.33 5.724 5.124 10.598 5.187 3.197-.132 3.85-.164 6.187-2.5 1.875-.266 1.875-.266 4-.25l2.125-.016C54 47 54 47 56 49c3.055.57 5.942.54 9 0 2.96-2.292 2.96-2.292 5-5l2-1a210 210 0 0 1 2.563 3.313l1.44 1.863L77 50c-1 3-1 3-3.937 4.688C70 56 70 56 68 56l.313 2.688C68 62 68 62 66.063 64.5c-2.512 2.05-4.967 3.76-7.688 5.5-3.554 2.275-5.458 4.166-7.375 8h-2l-1.746-2.758c-2.479-3.566-4.589-4.964-8.316-7.117-6.517-4.106-6.517-4.106-7.813-8.437-.764-3.946-.764-3.946-4.312-5.688L24 53c0-4.72 1.288-6.27 4-10"/><path fill="#be8180" d="m92 39 1 3h2c.353 14.37.593 27.68-9.61 38.86C79.31 86.973 73.428 90.812 65 93l-3.562 1.25c-12.034 2.626-25.89.555-36.61-5.363C15.736 82.82 11.003 76.407 8 66l-1-1c-.914-5.018-1.108-9.845-1.062-14.937l.013-2.073Q5.971 45.495 6 43l2-1 .168 1.94q.38 4.374.77 8.748L9.2 55.74l.264 2.96.238 2.713c.295 2.57.753 5.059 1.297 7.587l3 1 3 6c3.488 5.004 6.015 7.333 12 9 4.276.355 8.54.33 12.83.316 2.033-.003 4.064.02 6.096.045C55.08 85.365 60.482 84.94 67 82c2.54-.371 2.54-.371 4.625-.437C77.827 81.029 81.981 77.593 86 73c1.235-2.133 1.235-2.133 2-4h2l-.062-2.437C90 64 90 64 91 63c.158-1.779.251-3.563.316-5.348l.127-3.271.12-3.443.13-3.456q.16-4.24.307-8.482"/><path fill="#fdf8e9" d="M77.688 7.125C88.433 14.438 97.388 25.993 100 39c.09 1.686.13 3.374.133 5.063l.004 2.914-.012 3.023.012 3.023-.008 5.567c-.122 2.274-.492 4.23-1.129 6.41h-2l-1 2 .477-2.336C98.235 52.354 99.27 37.732 92 27l-3-2-1.25-3.25c-2.098-5.289-6.267-8.627-11.375-10.937L74 10c-2.812-1.5-2.812-1.5-5-3V5L58 4l8 4v1l-2.3.113-3.013.2-2.988.175C54.65 10.067 54.07 10.84 52 13h-4l-1.395-1.457c-2.293-2.204-4.17-2.047-7.292-2.23l-3.012-.2L34 9l2-1V6l3-1c-9.278.952-15.564 5.024-22.152 11.39C15 18 15 18 13 18l-.848 2.195c-1.427 3.474-3.123 6.77-4.836 10.11L6 33l-1.617 3.168c-1.954 4.618-1.946 9.317-2.07 14.27l-.104 2.794A636 636 0 0 0 2 60H0c-.63-17.705.773-31.763 13.254-45.477C31.019-2.529 56.617-5.15 77.687 7.125"/><path fill="#930d1b" d="M18 39c2.625-.187 2.625-.187 5 0-.328 3.716-.987 4.986-3.562 7.813-2.135 2.407-2.855 4.02-3 7.25.644 4.513 1.418 5.723 4.562 8.937 2.484 1.56 5.087 2.778 7.75 4q2.158 1.037 4.313 2.082l2.07.999C40.677 72.81 45.623 75.654 49 81v3h2l.188-1.625c1.745-5.103 5.143-8.274 9.843-10.64A236 236 0 0 1 65.5 69.75l2.262-1.023A236 236 0 0 1 79 64c-3.14 6.4-3.14 6.4-6.687 8.875-2.886.98-4.895 1.302-7.876 1.5-3.712.295-4.389.586-7.5 3.063C54.8 79.73 54.8 79.73 55 82c7.004-1.533 11.777-3.045 17-8h2c-1.483 4.45-5.008 6.862-9 9-9.147 3.23-20.355 3.747-29.66.867C29.542 81.067 24.585 77.5 20 73l-2.812-2.5c-4.715-5.387-4.551-11.526-4.45-18.363C13.182 46.817 15.047 43.43 18 39"/><path fill="#f7cea1" d="M57 3c4.03.553 8.02 1.156 12 2v2l2.125.813C78.406 10.82 84.565 14.346 89 21c-.375 2.188-.375 2.188-1 4-5-5.75-5-5.75-5-8l-4-1-1 2-2.055-1.094C69.514 13.7 64.221 11.96 57 13l-1 1c-2.02.072-4.042.084-6.062.063l-3.348-.028L44 14v-2c-8.288.896-15.621 1.979-23 6v-3c-4.857 4.415-8.494 9.465-12 15l-1.559 2.426C2.653 41.149 3.551 50.355 4 60 .297 54.446 1.047 46.472 2 40c2.862-10.27 7.906-20.246 17-26l2.125-2.437C25.41 7.743 30.499 5.589 36 4c2.371.367 2.371.367 4 1l-4 1v2l1.863.148 2.45.227 2.425.21C45 9 45 9 48 11v2h4l1-3c2.296-1.148 4.077-1.308 6.625-1.562l2.477-.254L64 8l-7-4z"/><path fill="#b0364c" d="M17 22h1c-.446 5.26-.964 8.572-4 13-3.02 9.059-2.009 22.174.953 31.125 3.99 7.145 13.648 14.196 21.156 17.262C44.966 85.266 55.16 84.757 64 83c-4.583 4.583-11.603 3.223-17.66 3.24-2.069.01-4.138.04-6.207.073l-3.992.015-3.64.028c-5.203-.53-9.111-1.98-12.9-5.731L17.626 78l-2.023-2.625C14 73 14 73 13 70l-1.49-1.405c-4.81-5.08-3.875-15.639-3.885-22.22l-.074-2.695C7.51 34.57 10.916 28.577 17 22"/><path fill="#f2ab85" d="m39.25 11.938 2.703.027L44 12v2l-3.062-.187C34.393 14.124 29.822 16.699 25 21l-2.25 2c-1.808 2.067-2.367 3.316-2.75 6h-2l-1-6c-4.845 6.019-4.845 6.019-8 13l-1.035 3.184c-.996 3.94-1.199 7.261-1.152 11.316l.019 3.781c.24 5.296.501 10.147 3.106 14.844 1.154 2.116 2.13 4.067 2.933 6.348 1.319 2.952 2.92 4.618 5.254 6.84l2.195 2.113L22 86c-4.304 0-5.98-2-9.074-4.828C9.696 77.53 8.44 73.585 7 69l-1.125-3.004c-3.792-10.732-5.134-20.976-.2-31.5C9.454 27.042 14.255 17.871 22 14v3l1.61-.84 2.14-1.098 2.11-1.09c3.874-1.76 7.148-2.09 11.39-2.034"/><path fill="#b73e52" d="M82 21c2.256 2.912 4.23 5.905 6.125 9.063l1.57 2.597c3.143 5.636 2.489 11.368 2.493 17.653l.037 3.42.005 3.318.013 3.02C91.975 63.302 91.135 65.975 90 69h-2l-.5 2.625C85.234 76.724 80.93 79.535 76 82c-1.87.228-3.747.41-5.625.563l-3.04.253L65 83c3.178-3.45 5.589-5.456 10-7 5.991-3.215 9.31-6.722 12-13 1.223-5.133 1.22-10.124 1.25-15.375l.063-2.79C88.345 39.094 87.749 35.073 85 30l-1.687-1.562C82 27 82 27 81.813 23.813z"/><path fill="#ca9a8e" d="m78 84 2 1c-4.283 4.794-9.025 6.07-15 8l-3.562 1.25C48.858 96.995 34.942 94.606 24 88c2.698-1.35 4.08-.617 7 0 1.747.089 3.497.13 5.246.133l3.017.006 3.175-.014 3.258-.012C56.986 88.033 67.294 87.925 78 84"/><path fill="#79060d" d="m77 64 2 1-1.437 1.313c-1.8 1.71-1.8 1.71-2.563 4.687-3.541 2.302-6.426 3.126-10.562 3.375-3.713.295-4.39.586-7.5 3.063C54.799 79.73 54.799 79.73 55 82c7.004-1.533 11.777-3.045 17-8h2c-1.483 4.45-5.008 6.862-9 9-9.56 3.396-22.675 4.143-32.062-.125-3.165-1.92-3.875-2.746-5.563-6.187L27 74l1.652 1.242C34.087 79.125 38.404 80.953 45 82c-1.125-2.972-2.223-5.334-4-8 3.796 1.491 5.717 3.657 8 7v3h2l.188-1.625c1.76-5.147 5.16-8.289 9.914-10.64q2.251-1.016 4.523-1.985 2.27-1.005 4.54-2.016l2.013-.868c2.085-.938 2.085-.938 4.822-2.866"/><path fill="#e6ceb3" d="M94 64c1 2 1 2 .313 5.75-2.868 8.126-9.801 16.269-16.961 21-2.123.959-4.095 1.69-6.352 2.25l-2.25.574L67 94v2c-5.862 2.008-11.201 2.366-17.375 2.375l-2.71.074c-8.364.037-14.932-2.463-21.477-7.699-.662-.52-1.323-1.042-2.004-1.578L22 88c3.162 0 4.1.454 6.813 1.875C34.973 92.704 41.304 93.371 48 94l2.629.258c12.553.62 23.234-4.436 32.496-12.508C87.379 77.866 89.993 74.369 92 69l1.25-3z"/><path fill="#ec9a81" d="m78 17 1-3c3.595 3.492 6.92 7.04 10 11v2h2c3.42 7.709 5.482 14.475 5.438 22.938l-.008 2.11C96.296 56.696 95.422 60.622 94 65c-.669-2.08-1.129-3.512-.562-5.656.799-3.33.928-6.686 1.124-10.094l.131-2.113Q94.851 44.569 95 42h-2l-1.426-2.922-1.886-3.828c-.31-.634-.618-1.268-.936-1.922C87.09 29.968 85.382 26.901 83 24l-2 6h-1l-.375-3.25c-.6-4.211-.6-4.211-2.625-7.75-2.883-1.183-2.883-1.183-6-2l-1.68-1.047c-3.46-1.42-6.895-1.162-10.57-1.078l-2.258.027c-1.83.024-3.661.06-5.492.098v-1c10.01-4.215 17.77-1.913 27 3"/><path fill="#fea076" d="M49 28h2l3 7c3.61-.656 3.61-.656 7-2-1.408 4.48-3.723 6.723-7 10-.861 2.173-.861 2.173-1 4h-6l-.625-2.062C44.545 41.03 41.897 38.16 39 35l1-2 3 3 3-1c1.716-3.503 1.716-3.503 3-7"/><path fill="#e4726e" d="M44.875 21.563 47 22c-.625 2.375-.625 2.375-2 5-3.125 1.313-3.125 1.313-6 2-.373 3.303-.29 4.616 1.75 7.316L43 38.562c4 4.007 4 4.007 4 8.438-3.228.113-5.047.15-8-1-3.537-3.702-7-7.746-7-13h2l.824-1.766c2.282-4.336 5-8.903 10.051-9.672"/><path fill="#fbe2b9" d="m40 5-4 1v2l9 1v1l-1.941.184c-4.04.39-8.053.789-12.059 1.441C28 12 28 12 26 11c-7.085 5.465-12.228 11.467-17 19l-1.559 2.426C2.653 41.149 3.551 50.355 4 60 .297 54.446 1.047 46.472 2 40c2.862-10.27 7.906-20.246 17-26l2.125-2.437C25.801 7.395 33.639 2.528 40 5"/><path fill="#fefefc" d="M66 8v1l-2.3.113-3.013.2-2.988.175C54.65 10.067 54.07 10.84 52 13h-4l-1.395-1.457c-2.293-2.204-4.17-2.047-7.292-2.23l-3.012-.2L34 9l2-1V6c10.886-3.22 19.996-3.949 30 2"/><path fill="#cc4e5c" d="M17 22h1c-.452 5.337-1.055 8.47-4 13-2.817 6.26-3.414 11.306-3.25 18.125l.016 2.629C10.82 60.269 11.097 64.559 12 69c-5.216-5.216-4.365-15.665-4.375-22.625l-.074-2.695C7.51 34.57 10.916 28.577 17 22"/><path fill="#f28775" d="M80 31c-.695 4.921-3.895 7.119-7.5 10.227C69.014 43.699 66.198 44.389 62 45c7.344-15.776 7.344-15.776 18-14"/><path fill="#f68b76" d="M20 30c3.273-.326 5.902-.15 9 1 4.245 4.367 7.404 9.507 10 15-7.388-1.54-12.39-5.194-17.5-10.687C20 33 20 33 20 30"/><path fill="#be283c" d="m82 27 1 2 3 1c3.318 5.78 3.428 10.943 3.313 17.5l.01 2.762C89.28 55.552 88.724 59.996 87 65h-1l.048-1.693c.063-2.581.101-5.163.14-7.745l.076-2.662C86.346 45.48 85.158 39.237 81 33c.375-3.187.375-3.187 1-6"/><path fill="#a11f36" d="M18 39c2.625-.187 2.625-.187 5 0-.445 5.044-2.61 7.444-6 11h-2q.214 2.844.438 5.688c.08 1.055.162 2.111.246 3.199.28 2.764.718 5.402 1.316 8.113h2v5c-4.374-3.79-5.76-7.452-6.3-13.184-.03-8.154.753-12.996 5.3-19.816"/><path fill="#ba1624" d="M78 38h6c3.943 7.557 3.741 14.73 2 23-1.958-1.631-2.917-2.49-3.336-5.05l-.039-2.263c-.255-3.576-.78-5.325-3.25-7.937C77 43 77 43 77.188 40.125z"/><path fill="#f54838" d="M26 72c13.39.977 13.39.977 17.145 3.363C44.5 76.938 44.5 76.938 46 80l-1 3c-6.98-.937-11.85-3.147-17-8z"/><path fill="#e74036" d="M74 73c-5.938 6.375-11.492 8.511-20 10 .773-4.727.773-4.727 2.813-7.187C61.32 73.25 69.072 70.536 74 73"/><path fill="#ca4f5e" d="M82 21c2.256 2.912 4.23 5.905 6.125 9.063l1.57 2.597c3.143 5.636 2.489 11.368 2.493 17.653l.037 3.42.005 3.318.013 3.02C91.975 63.302 91.135 65.975 90 69h-2l-1 2c.41-2.932.782-5.523 2.02-8.227 1.24-3.508 1.321-6.785 1.293-10.46l-.009-2.14C90.16 42.88 88.524 36.413 85 30l-1.625-1.375C81.32 26.196 81.795 24.066 82 21"/><path fill="#fc9172" d="M45 18v2h-2l-.562 2C40.37 26.313 37.235 29.515 34 33l-2-1c-.614-7.241-.614-7.241 2.375-10.937C38.225 18.038 40.149 17.895 45 18"/><path fill="#c96d72" d="M7 42h1l.168 1.94q.38 4.374.77 8.748L9.2 55.74l.264 2.96.238 2.713c.295 2.57.753 5.059 1.297 7.587l3 1a199 199 0 0 1 3 6c1.594 2.394 3.288 4.687 5 7-7.805-3.18-11.847-10.557-15-18-.983-4.975-1.135-9.812-1.125-14.875l-.008-3.992C6 43 6 43 7 42"/><path fill="#e3b9a1" d="M5 37c.822 2.827 1.07 5.157.887 8.09C5.397 56.204 6.448 63.19 12 73l.938 2.582c1.276 2.906 2.896 4.55 5.187 6.73l2.195 2.114L22 86c-4.304 0-5.98-2-9.074-4.828C9.696 77.53 8.44 73.585 7 69l-1.125-3.004C2.99 57.832.508 46.926 4.023 38.566z"/><path fill="#fcedc9" d="M57 3c4.03.553 8.02 1.156 12 2v2l1.938.813C73 9 73 9 74 12c-3 1-3 1-6 0-1.977-.095-3.958-.13-5.937-.125l-3.153-.008c-2.487.114-4.54.414-6.91 1.133l1-3c2.296-1.148 4.077-1.308 6.625-1.562l2.477-.254L64 8l-7-4z"/><path fill="#f3d8bb" d="M89 25c3.781 1.454 5.046 3.11 6.75 6.75C99.42 40.971 100.154 54.537 97 64h-2l.063-1.937c.826-15.47.826-15.47-3.188-30.172C91 30 91 30 91 27h-2z"/><path fill="#bd253a" d="m17 27 2 2c-.455 5.455-.455 5.455-3 8l6 1-1.875.25c-2.235.55-2.235.55-3.25 2.438L16 43l-1.062 2.688C13.78 49.772 13.356 53.78 13 58h-1a740 740 0 0 1-.187-9.562l-.077-2.713C11.673 39.977 12.34 36.107 15 31l1.188-2.437z"/><path fill="#d6b29d" d="m78 84 2 1c-4.283 4.794-9.025 6.07-15 8l-3.562 1.25C50.695 96.594 37.6 95.31 28 90c2-1 2-1 4.625-.125L36 91c13.758 2.501 27.097 1.357 40-4v-2z"/><path fill="#ea9581" d="M18 19h1v10h-1l-1-6c-4.845 6.019-4.845 6.019-8 13l-1.04 3c-1.36 4.778-1.177 9.508-1.085 14.438l.027 2.794Q6.937 59.617 7 63c-2.042-3.063-2.255-3.712-2.266-7.168l-.007-2.459.023-2.56-.023-2.502c.022-7.239 1.025-13.72 4.648-20.123l1.21-2.208C12.164 23.771 13.71 22.446 16 21h2z"/><path fill="#a54e5f" d="M19 79a64 64 0 0 1 8.102 1.973C39.143 84.697 51.573 85.446 64 83c-4.583 4.583-11.603 3.223-17.66 3.24-2.069.01-4.138.04-6.207.073l-3.992.015-3.64.028c-4.927-.501-9.058-1.727-12.438-5.543z"/><path fill="#f1a884" d="m78 17 1-3c2.421 3.632 2.21 5.383 2.125 9.688l-.055 3.574L81 30h-1l-.375-3.25c-.6-4.211-.6-4.211-2.625-7.75-2.883-1.183-2.883-1.183-6-2l-1.68-1.047c-3.46-1.42-6.895-1.162-10.57-1.078l-2.258.027c-1.83.024-3.661.06-5.492.098v-1c10.01-4.215 17.77-1.913 27 3"/><path fill="#cea494" d="M33 90h34c-10.342 5.171-23.069 3.368-34 1z"/><path fill="#e5726e" d="m47 26 2 1c-.48 4.22-1.166 6.797-4 10l-1.812-.937C40.91 34.898 40.91 34.898 38 34c.188-2.375.188-2.375 1-5 2.375-1.25 2.375-1.25 5-2z"/><path fill="#d47c7a" d="m92 39 1 3h2c.616 17.12.616 17.12-3 25l-2 2a100 100 0 0 1 0-5l1-1c.158-1.779.251-3.563.316-5.348l.127-3.271.12-3.443.13-3.456q.16-4.24.307-8.482"/><path fill="#eee0c4" d="M63 94h4v2c-5.936 2.058-11.309 2.303-17.562 2.25l-2.788.023C41.702 98.26 37.638 97.945 33 96v-1l2.646.016q4.845.025 9.69.039 2.099.008 4.198.02c2.008.013 4.017.018 6.025.023l3.665.016c2.684.204 2.684.204 3.776-1.114"/><path fill="#cb9188" d="M92 65c.888 2.452 1.122 3.65.25 6.148C89.222 76.542 85.99 80.333 81 84l-3-2 2.75-2c3.695-3.038 5.417-6.655 7.25-11h3z"/><path fill="#d73337" d="M70 42c0 3 0 3-1.937 5.688-3.669 2.77-5.625 2.84-10.075 2.78C56 50 56 50 54 47z"/><path fill="#f6d8b9" d="m14 19 2 1-1.355 1.8C5.147 34.822 3.262 44.175 4 60 .292 54.438 1.06 46.48 2 40c2.187-8.112 5.74-15.335 12-21"/><path fill="#890406" d="M24 66c6 1.833 11.45 4.073 17 7v1c-6.986.506-11.202.033-17-4z"/><path fill="#cf2a32" d="m30 43 16 4c-2 3-2 3-3.988 3.434-4.122.007-6.45-.101-10.074-2.246C30 46 30 46 30 43"/><path fill="#b56b73" d="m83 76 2 1c-6.258 6.538-11.438 8.713-20.414 9.105-1.862.017-3.725-.036-5.586-.105 4.17-2.78 7.463-4.016 12.438-4.375C76.356 81.182 79.472 79.528 83 76"/><path fill="#981c34" d="M85 61h1c.36 3.776.117 5.77-1.625 9.188C81.763 73.28 79.705 74.456 76 76a355 355 0 0 0-4 2l1.207-1.39c3.393-3.927 3.393-3.927 6.543-8.047L81 67h2l.438-2.437C84 62 84 62 85 61"/><path fill="#b80f1b" d="M18 39c2.625-.187 2.625-.187 5 0-.445 5.04-2.713 7.376-6 11-2-3-2-3-1.75-5.5C16 42 16 42 18 39"/><path fill="#840b17" d="m27 74 1.652 1.242C34.087 79.125 38.404 80.953 45 82l-2 3c-5.682-.464-9.343-1.622-14-5-1.437-3.25-1.437-3.25-2-6"/><path fill="#a94e60" d="m86 71 1 2c-6.998 7.41-11.95 9.642-22 10 2.5-3.096 4.497-3.465 8.375-3.937C77.971 78.333 80.721 77.49 84 74z"/><path fill="#e2a191" d="M92 33c2 1 2 1 3.11 4.031 1.084 4.17 1.186 8.18 1.14 12.469l.023 2.184C96.256 56.479 95.51 60.448 94 65c-.669-2.08-1.129-3.512-.562-5.656.799-3.33.928-6.686 1.124-10.094l.131-2.113Q94.851 44.569 95 42h-2z"/><path fill="#fdf4d5" d="m60 2-2 3-3.937-.562c-4.218-.494-7.946-.222-12.118.503C40 5 40 5 37 3 44.954 1.32 51.943.826 60 2"/><path fill="#ef4036" d="m58 75 7 2v2h-4l-1 3-6 1c.498-3.688 1.1-5.605 4-8"/><path fill="#d83137" d="M67 63v6c-2.697 2.497-5.568 3.76-9 5-.281-2.293-.281-2.293 0-5 1.969-1.8 1.969-1.8 4.5-3.312l2.531-1.551z"/><path fill="#dc5d60" d="M82 21c4.947 6.444 9.638 12.68 10 21-2-3-2-3-2-5h-2l-1.312-3.312c-.961-2.287-1.537-3.548-3.376-5.25C82 27 82 27 81.813 23.813z"/><path fill="#9f334a" d="m84 69 1 2c-3.75 5.75-3.75 5.75-6 8-2.383.414-2.383.414-5.125.625l-2.758.227L69 80c1.404-2.808 3.108-2.883 6-4 3.576-1.919 6.235-4.03 9-7"/><path fill="#97243c" d="M19 72c5.38 3.026 10.626 6.626 15 11-8.157-.941-8.157-.941-11-3-4-5.333-4-5.333-4-8"/><path fill="#f2b38d" d="m21 14 1 3 4-1c-1.375 1.5-1.375 1.5-3 3h-2l-1 10h-1l-1-8-3 1c1.27-3.914 2.512-5.79 6-8"/><path fill="#f9dcb7" d="M77 11c5.014 2.121 8.995 5.493 12 10-.375 2.188-.375 2.188-1 4-5-5.75-5-5.75-5-8l-1.875-.75C78.649 14.794 78.049 13.622 77 11"/><path fill="#c92030" d="m18 30 1 3c-1.437 2.188-1.437 2.188-3 4l6 1-1.875.25c-2.31.563-2.31.563-3.375 2.813L16 43l-2-2c.34-7.156.34-7.156 2.563-10z"/><path fill="#da8b84" d="M7 37h1c.043 1.666.04 3.334 0 5l-1 1a69 69 0 0 0-.098 4.473l.01 2.724.026 2.865.013 2.877Q6.97 59.47 7 63c-2.064-3.096-2.255-3.797-2.266-7.309l-.007-2.513.023-2.615-.023-2.604.007-2.518.007-2.29C5.031 40.738 5.802 39.098 7 37"/><path fill="#d33c4a" d="m82 27 1 2 3 1c3.184 6.027 3.184 6.027 2.578 9.23L88 41a397 397 0 0 1-2.5-3.812l-1.406-2.145C83 33 83 33 83 30l-2-1z"/><path fill="#e06d6a" d="m17 22 1 2c-.855 1.734-.855 1.734-2.187 3.75l-1.399 2.14L13 32l-1.227 1.86A551 551 0 0 1 9 38l-1-2c1.884-5.433 5.198-9.775 9-14"/><path fill="#7b5368" d="M32 33c3.925 3.7 6.946 7.55 10 12l-3 1a631 631 0 0 1-3.5-4.812l-1.969-2.708C32 36 32 36 32 33"/><path fill="#795268" d="m67 33 2 1a432 432 0 0 1-3.25 5.438l-1.828 3.058C62 45 62 45 59.766 45.848L58 46c2.608-4.637 5.77-8.787 9-13"/><path fill="#b96971" d="M12 69c3.001 1.5 3.51 4.022 5 7 1.598 2.392 3.288 4.687 5 7-3.822-1.557-6.186-4.034-9-7l-1-1c-.04-2-.043-4 0-6"/><path fill="#c86970" d="M92 43h1c.087 3.583.14 7.166.188 10.75l.076 3.078.029 2.969.048 2.73C92.938 65.452 91.934 66.812 90 69a100 100 0 0 1 0-5l1-1c.157-1.486.25-2.98.316-4.473l.127-2.724.12-2.865.13-2.877q.16-3.53.307-7.061"/><path fill="#f94c44" d="M80 31c3.875 4.75 3.875 4.75 5 7l-10 1 1.938-2.312c2.204-2.57 2.204-2.57 3.062-5.688"/><path fill="#e6d1b5" d="M22 87c4.234 1.31 8.074 2.944 12 5v2l2 1c-5.953-.298-9.69-3.149-14-7z"/><path fill="#ec3b35" d="M42 73c2.468 1.152 4.048 2.048 6 4 2.069.643 2.069.643 4 1l-1 6h-2l-1.812-3.25C45.626 78.01 43.974 75.467 42 73"/><path fill="#fdf6dd" d="M70 4c3.775 1.09 6.47 1.908 9 5h-2v2c-2.954-1.372-5.44-2.989-8-5z"/><path fill="#dd3432" d="m26 72 15 2-1 2-8-1-1 3z"/><path fill="#73030b" d="M30 69c4.128.607 7.332 2.038 11 4v1c-1.625.054-3.25.093-4.875.125l-2.742.07C31 74 31 74 29 72l3-1z"/><path fill="#8d0607" d="m77 64 2 1-1.437 1.313c-1.8 1.71-1.8 1.71-2.563 4.687l-6 1c.997-3.689 1.69-4.806 5-6.875z"/><path fill="#ed967a" d="m30 17-10 8c.063-2.812.063-2.812 1-6 6.111-3.444 6.111-3.444 9-2"/><path fill="#a21123" d="M15 50h1l.375 3.688c.32 2.663.722 4.55 1.75 7.062 1.002 2.575.819 3.701-.125 6.25l-.937-1.937c-.898-2-.898-2-2.063-3.063-.072-2.02-.084-4.042-.062-6.062l.027-3.348z"/><path fill="#b11a2e" d="m14 46 2 1-1 13c-2-2-2-2-2.23-4.059l.043-2.379.019-2.37C13 49 13 49 14 46"/><path fill="#e87c72" d="M36 36c4.875 4.625 4.875 4.625 6 8l5 1v2c-2.25.375-2.25.375-5 0-2.767-3.4-4.546-6.88-6-11"/><path fill="#fcf3d3" d="m39.125 7.938 3.32.59L45 9v1l-15 1 1-3c2.91-1.455 4.958-.635 8.125-.062"/><path fill="#cc978c" d="M12 75c5.212 2.527 8.388 6.618 12 11-3 0-3 0-5.262-1.898l-2.425-2.477-2.45-2.46C12 77 12 77 12 75"/><path fill="#efdbbf" d="M4 61c1.676 2.514 2.94 4.83 4.188 7.563l1.105 2.378L10 73l-1 2c-5.74-8.077-5.74-8.077-5-14"/><path fill="#e5746f" d="M30 37h4l3 6c-4.75-.875-4.75-.875-7-2z"/><path fill="#c46565" d="M42 22h5l-2 5h-5z"/><path fill="#ea3e35" d="m42 76 4 4-1 3-9-2c4-1 4-1 6-1z"/><path fill="#cf6065" d="m69 26 1 4 2-1c2-.04 4-.043 6 0l1 2-2.812-.125C72.842 30.729 72.842 30.729 70 33l-3-1z"/><path fill="#7c0509" d="M72 74h2c-1.501 4.204-4.173 5.891-8 8l-3-1 1.715-1.277 2.222-1.66 2.215-1.653C70.913 75.13 70.913 75.13 72 74"/><path fill="#b95664" d="M91 58h1c.24 4.087-.577 7.177-2 11h-2l-1 2c.591-4.847 1.98-8.607 4-13"/><path fill="#a11022" d="M84 51h1c.054 1.729.093 3.458.125 5.188l.07 2.917C84.991 62.128 84.27 64.268 83 67c-1.128-3.384-.8-5.558 0-9 .344-2.332.68-4.665 1-7"/><path fill="#fae1b5" d="M66 6c4.75.75 4.75.75 7 3l1 3-3 1-3-2h2z"/><path fill="#c52632" d="M62 48v2c-2.875.188-2.875.188-6 0l-2-3c3.403-1.215 4.933-.862 8 1"/><path fill="#f85048" d="M19 31c1.746 2.62 2.387 4.038 3 7h-7z"/><path fill="#d23845" d="m17 27 2 3-2 3h-2l-.375 2.875C14 39 14 39 12 41c.964-5.205 1.877-9.6 5-14"/><path fill="#bf6365" d="m53 22 6 1 1 4-6-1z"/><path fill="#fc9572" d="M49 16h2l1 8h-4z"/><path fill="#f6c99d" d="m76 12 3 1v5l-8-3v-1h5z"/><path fill="#9a354d" d="M23 79c3.938-.366 5.565-.302 8.875 2L34 83c-4.056-.468-7.466-.88-11-3z"/><path fill="#ff834d" d="M35 77c2.313-.25 2.313-.25 5 0 1.813 2 1.813 2 3 4l-7-1z"/><path fill="#a22138" d="M85 61h1c.37 5.538.37 5.538-1.5 7.875L83 70c-.25-5.625-.25-5.625 2-9"/><path fill="#cb5d64" d="M30 26c1.206 2.332 2.165 4.496 3 7l-2 2-5-6 4 1z"/><path fill="#fc9874" d="M55 18h6l-1 6a105 105 0 0 1-5-4z"/><path fill="#fdf5df" d="m16 12 4 2-6 4-2-2z"/><path fill="#fae2b9" d="M53 10h12v1c-.905.09-.905.09-1.828.184l-2.422.254c-.789.08-1.578.162-2.39.246-2.184.292-4.237.737-6.36 1.316z"/><path fill="#ff834d" d="M65 77v2h-4v2l-4-1c2.466-3.115 4.108-3.316 8-3"/><path fill="#a9475b" d="M14 70c3.669 2.446 5.062 5.124 7 9-3.354-1.388-5.113-2.886-7-6z"/><path fill="#e27d78" d="M87 28c3 1 3 1 5 4 .125 3.188.125 3.188 0 6-5-7.5-5-7.5-5-10"/><path fill="#fae2ba" d="M35 10h12l1 3-13-2z"/></svg>