<svg xmlns="http://www.w3.org/2000/svg" width="100" height="100"><path fill="#4e9974" d="M77.688 7.125C88.473 14.465 97.325 25.978 100 39c.853 11.077 1.55 23.06-4 33l-1.578 2.848C88.623 84.55 82.036 90.818 72 96l-2.312 1.262c-10.444 4.77-26.029 4.791-36.875 1.175C30.37 97.318 30.37 97.318 28 96l-2.777-1.473C12.91 87.383 5.51 77.06.863 63.742-2.463 49.324-.27 35.007 7.125 22.312 23.093-1.215 53.598-6.91 77.688 7.126"/><path fill="#22a96e" d="M17 22h1l.297 1.758c1.354 7.074 3.826 12.509 9.691 17.074 10.223 5.935 22.564 6.818 33.856 3.852 8.36-2.65 13.873-5.873 18.277-13.668C81.395 28.095 81.637 25.146 82 22a340 340 0 0 1 4 5l1.309 1.504C94.224 37.02 94.075 49.549 93 60c-1.983 7.087-5.257 13.383-10 19-3.015 1.005-5.042 1.103-8.187 1.063l-2.731-.028L70 80v2l-1.828.367-2.422.508-2.39.492c-2.351.526-2.351.526-4.231 1.688C52.307 88.084 42.81 86.27 36 84a409 409 0 0 0-6.062-.875c-8.391-1.388-12.469-5.14-17.461-11.805C10.507 68.224 9.73 65.58 9 62l-1-2c-.918-12.612.392-23.506 8-34 .77-2.226.77-2.226 1-4"/><path fill="#f2f9e8" d="M77.688 7.125C88.473 14.465 97.325 25.978 100 39c.853 11.077 1.55 23.06-4 33l-1.578 2.848C88.623 84.55 82.036 90.818 72 96l-2.312 1.262c-10.444 4.77-26.029 4.791-36.875 1.175C30.37 97.318 30.37 97.318 28 96l-2.777-1.473C12.91 87.383 5.51 77.06.863 63.742-2.463 49.324-.27 35.007 7.125 22.312 23.093-1.215 53.598-6.91 77.688 7.126M72 9l3 5-2.16-.437C62.674 11.593 54.175 12.286 44 14v-2c-6.584-.358-11.095.047-17 3-2.312.813-2.312.813-4 1l-2-2C13.593 20.236 8.519 25.438 5.71 34.852 5 37 5 37 3.98 38.86c-3.181 6.952-2.031 18.497.037 25.655C5.218 67.109 6.549 69.539 8 72l1.375 3.688c2.535 5.167 5.995 10.089 11.313 12.562L23 89l1.738 1.91c2.788 2.576 5.125 3.256 8.762 4.278l3.406.98L40 97l1.984.586c12.785 2.626 24.874-.667 35.848-7.297C82.564 86.82 85.958 83.005 89 78v-2h2c6.629-9.944 7.625-22.757 5.581-34.383A190 190 0 0 0 94.812 34l-.593-2.428c-2.257-8.232-7.254-12.96-13.906-17.947l-1.76-1.363C75.607 9.792 75.607 9.792 72 9"/><path fill="#74d496" d="m42.043 12.988 1.97.069q2.048.075 4.092.164c2.087.092 4.173.166 6.26.238C64.56 13.853 64.56 13.853 68 15v2l4 1c2.024 5.595 2.455 10.178 1 16-1.5 3.125-1.5 3.125-4 5-5.298.456-9.722-.826-14-4l1-4h-2l-2 3c-1.805 1.168-1.805 1.168-3.875 2.188L46.07 37.23c-3.047 1.133-5.358 1.086-8.32-.23L36 36c5.75-4.875 5.75-4.875 8-6-3.815.673-7.424 1.49-11 3-1.42 2.001-1.42 2.001-2 4h-2c-.937-2.5-.937-2.5-1-6 2.024-2.979 4.438-5.48 7-8l1-1-1.574 1.277C27.499 28.72 27.499 28.72 23 29c-.41-3.355-.601-5.956 1.125-8.953 4.986-6.18 10.036-7.36 17.918-7.059"/><path fill="#92ce9f" d="M72 9c4.428 1.454 7.63 3.886 11.125 6.875l1.59 1.316C87.525 19.561 90.073 21.85 92 25c-.312 2.25-.312 2.25-1 4l-1.687-2.312c-2.28-2.65-4.249-4.07-7.313-5.688 0 1.358.175 2.711.313 4.063-.518 6.52-3.904 10.875-8.626 15.25C65.055 47.204 53.65 47.883 43 47c-9.172-1.68-15.853-4.918-22-12-2.99-4.439-3.318-7.694-3-13-3.98 2.875-6.436 5.821-9 10-.691-1.723-.691-1.723-1-4 3.16-5.643 7.886-10.133 13-14l2 2c2.717-.302 4.667-1.334 7.125-2.562C34.641 11.41 39.145 11.736 44 12v1l-2.45.332-3.237.48-3.2.458c-4.1.962-6.956 2.573-9.925 5.543C23.645 22.654 23.783 24.816 24 28c3.705-.603 5.86-2.225 8.75-4.562l2.422-1.942L37 20l2 1-1.934 1.645-2.504 2.168-2.496 2.144c-2.559 2.53-3.045 4.159-3.129 7.73L29 37l1.39-1.242 1.86-1.633 1.828-1.617c4.02-3.154 6.81-3.74 11.922-3.508l-1.687 1.25C41.838 32.123 39.416 34.053 37 36c2.672 1.393 2.672 1.393 6 2 3.221-1.73 3.221-1.73 6-4l3-1 2-3 3 1-2 4c6.888 2.41 6.888 2.41 14 4 2.62-5.052 4.365-8.894 3.875-14.687l-.195-2.887c-.438-2.59-.438-2.59-2.735-3.758L68 17v-2l-14-1c5.78-3.854 12.37-1.692 18.84-.437L75 14z"/><path fill="#105c42" d="M86 40c1.967 3.29 2.244 5.756 2.188 9.563l-.02 2.878C88 55 88 55 87 58v3c-1.924 5.236-4.285 8.857-9 12l1-4-1.574 1.46C70.499 76.736 70.499 76.736 66 78l3-6-2.062 2C64 76 64 76 60.812 76.75c-5.027-.989-7.684-3.47-11.48-6.805-3.494-2.915-5.232-4.004-9.832-3.757-3.355.778-5.005 1.516-7.5 3.812-4.137-9.137-3.871-17.488-1-27 2.352.599 4.686 1.27 7 2 1.534 3.069.55 5.7 0 9l2-1-1 8 3-1 2 5 3-1c2.188 1.438 2.188 1.438 4 3v-2h2l1 2c2.816.469 2.816.469 6.063.625l3.347.227L66 68v-2l3.438-.875L73 64l1-2-2-.125C66.235 60.193 60.82 55.585 57 51c-.75-2.25-.75-2.25-1-4 3.724 1.213 7.378 2.509 11 4l1-2 5 2v-2h3v-2h4v-3l5-1z"/><path fill="#1c634f" d="M17 22h1l.367 1.828.508 2.422.492 2.39c.523 2.368.523 2.368 1.766 4.282 1.233 2.956.473 4.948-.133 8.078-.201 2.98-.23 5.952-.25 8.938l-.062 2.341C20.628 61.184 24.265 67.34 30 74c2.894 2.688 5.056 4.416 9 5l.813-3.437L41 72c3.47-1.156 4.899-.638 8.164.836 2.738 1.736 4.479 4.045 6.379 6.64C57.286 81.3 58.545 81.612 61 82l-1 3c-7.593 2.53-16.534 1.489-24-1a409 409 0 0 0-6.062-.875c-8.391-1.388-12.469-5.14-17.461-11.805C10.507 68.224 9.73 65.58 9 62l-1-2c-.918-12.612.392-23.506 8-34 .77-2.226.77-2.226 1-4"/><path fill="#52e263" d="m85 36-2 8h-3v3h-4v2h-3v2l-2.25-.5c-2.94-.62-2.94-.62-6.75-.5-2.58-.43-4.659-.83-7-2 3.644 7.289 9.538 11.259 17 14l-1 3-7 1v2H54l-1-3h-2v2l-2.375-1c-2.468-1.119-2.468-1.119-4.625-1l-3-4h-2v-7l-2 1 1-8c3.684-.867 6.974-1.052 10.75-.937 8.142.05 14.565-1.539 21.906-4.977 2.566-1.19 5.16-2.274 7.781-3.336l2.497-1.016C83 36 83 36 85 36"/><path fill="#96b59e" d="M3 41h1l.078 2.86c.618 13.989 3.804 26.672 13.824 37.124 5.051 4.485 8.974 5.168 15.668 5.149l2.287.003q2.407 0 4.816-.006 3.591-.005 7.182.007c7.842.005 15.678-.108 23.512-.457l2.11-.067C77.761 85.384 80.563 84.587 84 82c1.979-2.477 1.979-2.477 3.625-5.312l1.793-2.946C91.075 70.87 92.616 68.012 94 65c.75 1.563.75 1.563 1 4-1.13 2.503-2.521 4.67-4 7h-2l-.625 2.063c-4.553 9.726-13.35 14.586-23.062 18.312C51.655 100.537 37.786 97.779 25 92l-3-4-2.34-.844C13.213 84.354 9.15 76.994 6.625 70.687A391 391 0 0 1 5 66l-1.094-2.148c-1.385-4.358-1.114-8.625-1.031-13.164l.027-2.823Q2.938 44.433 3 41"/><path fill="#f1f8e8" d="M57 3c6.911.471 12.722 3.206 19 6l-3 1 3 4c-3.25 1.084-4.07.913-7.25.063C63.635 12.829 59.071 12.31 54 14a99 99 0 0 1-5.187.063l-2.731-.028L44 14v-2c-2.064.257-4.126.531-6.187.813l-3.481.457c-3.363.737-5.458 1.902-8.332 3.73-2.187-.312-2.187-.312-4-1-3.764 0-6.421 3.485-9 6-3.226 4.033-4.833 7.968-6.29 12.852C6 37 6 37 4.98 38.86c-3.181 6.952-2.031 18.497.037 25.655C6.218 67.11 7.548 69.54 9 72q.75 1.863 1.438 3.75C13.348 81.805 16.635 85.702 23 88c.26.643.518 1.286.785 1.95 1.077 2.304 1.077 2.304 3.79 3.027l3.113.648 3.246.715L37 95c2.347.629 4.67 1.312 7 2v1c-7.722 1.997-12.75-.013-19.562-3.852C12.838 87.136 4.578 76.575.66 63.566c-2.938-15.874-.769-30.45 8.27-43.949C13.177 14.247 18.314 9.79 24 6l2.438.5C29.5 7.098 30.335 6.421 33 5l3 1-3 1v3l2.379-.105C41.772 9.73 46.356 9.92 52 13l1-3a1420 1420 0 0 1 6.813-.062l3.832-.036C67 10 67 10 70 11c-2.408-2.792-4.761-3.897-8.187-5.187L59.082 4.77 57 4z"/><path fill="#57a47e" d="m52.813 19.688 2.119-.088c5.154-.063 7.944 1.077 12.068 4.4 2 2 2 2 2.125 4.625L69 31c-4.178 1.194-6.058.577-10-1-2.671.067-2.671.067-5 1l-2 3c-1.805 1.168-1.805 1.168-3.875 2.188L46.07 37.23c-3.047 1.133-5.358 1.086-8.32-.23L36 36c5.75-4.875 5.75-4.875 8-6-3.815.673-7.424 1.49-11 3-1.42 2.001-1.42 2.001-2 4h-2c.457-4.916 1.5-7.5 5-11 6.243-4.468 11.09-6.207 18.813-6.312"/><path fill="#428f6c" d="M82 22a340 340 0 0 1 4 5l1.309 1.504C94.224 37.02 94.075 49.549 93 60c-1.983 7.087-5.257 13.383-10 19-3.015 1.005-5.042 1.103-8.187 1.063l-2.731-.028L70 80v2l-4-1 8-6 2.11-1.598a86 86 0 0 1 4.39-3.027C83.877 67.167 85.675 63.458 87 59l-1-2 1-2c.096-1.852.13-3.708.125-5.562l.008-3.004c.141-2.382.141-2.382-1.133-3.434h-3a85 85 0 0 1 2-7l-10 3 1.277-1.941C79.511 31.953 81.736 28.079 82 22"/><path fill="#0d4137" d="M31 43c2.352.599 4.686 1.27 7 2 1.534 3.069.55 5.7 0 9l2-1-1 8 3-1 2 5 3-1c2.188 1.438 2.188 1.438 4 3v-2h2l1 2c2.816.469 2.816.469 6.063.625l3.347.227L66 68v-2h5c-.88 3.517-1.712 5.687-4.187 8.375C62.986 76.585 61.38 76.862 57 76c-2.727-1.86-5.189-3.876-7.668-6.055-3.494-2.915-5.232-4.004-9.832-3.757-3.355.778-5.005 1.516-7.5 3.812-4.137-9.137-3.871-17.488-1-27"/><path fill="#95dda9" d="M44 12v1l-2.45.332-3.237.48-3.2.458c-4.1.962-6.956 2.573-9.925 5.543C23.645 22.654 23.783 24.816 24 28c3.705-.603 5.86-2.225 8.75-4.562l2.422-1.942L37 20l2 1-1.934 1.645-2.504 2.168-2.496 2.144c-2.559 2.53-3.045 4.159-3.129 7.73L29 37l1.39-1.242 1.86-1.633 1.828-1.617c4.02-3.154 6.81-3.74 11.922-3.508l-1.687 1.25C41.838 32.123 39.416 34.053 37 36l5 3-3 7c-8.476-2.796-14.97-6.455-20-14-1.16-3.48-1.219-6.356-1-10-3.98 2.875-6.436 5.821-9 10-.691-1.723-.691-1.723-1-4 3.16-5.643 7.886-10.133 13-14l2 2c2.717-.302 4.667-1.334 7.125-2.562C34.641 11.41 39.145 11.736 44 12"/><path fill="#229e6b" d="m20 33 2 2a134 134 0 0 1-1 6c-.2 2.98-.23 5.952-.25 8.938l-.062 2.341C20.628 61.184 24.265 67.34 30 74c2.894 2.688 5.056 4.416 9 5l.813-3.437L41 72c3.47-1.156 4.899-.638 8.164.836 2.738 1.736 4.479 4.045 6.379 6.64C57.286 81.3 58.545 81.612 61 82l-1 3c-3.507 1.169-6.368 1.168-10.062 1.188l-3.786.042C43 86 43 86 41 84a240 240 0 0 0-5.687-2.687c-9.398-4.7-13.932-9.616-17.434-19.637C15.559 51.97 16.052 42.21 20 33"/><path fill="#98ee9a" d="m54 30 3 1-2 4 1.934.621 2.504.816 2.496.81C64 38 64 38 65 39q3.493.553 7 1c-3.165 4.747-7.828 5.54-13.25 6.688C45.076 47.827 45.076 47.827 39 46c1.275-5.484 3.436-7.778 8-11 1.661-.68 3.327-1.35 5-2z"/><path fill="#ccebc3" d="M57 3c6.911.471 12.722 3.206 19 6l-3 1 3 4c-3.25 1.084-4.07.913-7.25.063C63.635 12.829 59.071 12.31 54 14a99 99 0 0 1-5.187.063l-2.731-.028L44 14v-2c-2.064.257-4.126.531-6.187.813l-3.481.457c-3.363.737-5.458 1.902-8.332 3.73-2.187-.312-2.187-.312-4-1-3.764 0-6.421 3.485-9 6-3.251 4.064-4.842 8.022-6.29 12.95C6 37 6 37 4 40c1.092-12.836 8.38-20.929 17.563-29.437C25.11 7.65 28.59 6.249 33 5l3 1-3 1v3l2.379-.105C41.772 9.73 46.356 9.92 52 13l1-3a1420 1420 0 0 1 6.813-.062l3.832-.036C67 10 67 10 70 11c-2.408-2.792-4.761-3.897-8.187-5.187L59.082 4.77 57 4z"/><path fill="#51e264" d="M22 36c1.563 1.25 1.563 1.25 3 3-.31 1.339-.65 2.671-1 4a123 123 0 0 0-.062 5.75l.027 2.984L24 54l.586-1.934.789-2.504.773-2.496C27 45 27 45 29 44l-.48 2.047C26.928 55.095 26.56 65.177 32 73l2 1 .875-1.875C36 70 36 70 38 68c3.125-.125 3.125-.125 6 0l1 2-1.875 1.125C40.449 73.486 39.906 75.601 39 79c-5.894-.808-9-3.782-13-8-5.242-6.93-6.18-12.426-6.187-20.937l-.038-2.42c-.01-4.339.205-7.69 2.225-11.643"/><path fill="#c7ddbc" d="M94 65c.75 1.563.75 1.563 1 4-1.13 2.503-2.521 4.67-4 7h-2l-.625 2.063c-4.553 9.726-13.35 14.586-23.062 18.312C53.169 100.075 41.744 98.157 30 94l-2.785-.969C24.264 91.657 23.427 89.855 22 87c3.148.998 6.092 2.045 9.063 3.5 12.162 5.274 24.121 3.706 36.152-.578C70.514 88.83 73.55 88.314 77 88v-2l3.063-1.312C87.045 80.736 90.748 72.078 94 65"/><path fill="#8cbc96" d="m80 17 2 1v3l2.25.688C87.522 23.249 88.86 25.122 91 28l2 1c4.654 12.553 6.137 25.424 1.336 38.176C91.16 73.888 86.713 80.214 81 85c-2.312.813-2.312.813-4 1 2.875-3.514 5.79-6.79 9-10 1.89-2.836 2.39-4.21 3-7.437.455-2.4.837-4.276 2.047-6.407C94.283 54.836 92.675 41.371 90 34c-1.69-2.569-3.482-4.841-5.54-7.125C83 25 83 25 83 22h-2z"/><path fill="#56e465" d="m85 36-2 8h-3v3h-4v2h-3v2l-2.25-.5c-2.94-.62-2.94-.62-6.75-.5-2.58-.43-4.659-.83-7-2 3.644 7.289 9.538 11.259 17 14v2c-7.17-1.839-13.624-5.77-18.125-11.687L54 49l1-3c1.75-.59 1.75-.59 4-.937 4.23-.81 7.768-2.156 11.656-3.977 2.566-1.19 5.16-2.274 7.781-3.336l2.497-1.016C83 36 83 36 85 36"/><path fill="#51df62" d="M52 47h2a74 74 0 0 1 2.5 4.125c3.019 4.74 6.307 7 11.23 9.586C69.89 61.938 71.35 63.163 73 65l-7 1v2H54l-1-3-2-1h2l-1-2.437C50.71 56.965 49.787 51.425 52 47"/><path fill="#308461" d="M17 22h1c.48 5.75.068 9.25-2.5 14.438-4.54 10.084-3.892 22.984-.562 33.421C16.644 73.298 18.84 74.871 22 77l1 2c2.574.913 2.574.913 5.563 1.625 1.011.26 2.023.52 3.066.79L34 82v1c-6.374-.252-11.055-.605-16-5-4.571-4.997-7.641-9.341-9-16l-1-2c-.918-12.612.392-23.506 8-34 .77-2.226.77-2.226 1-4"/><path fill="#fcfefa" d="m69 8 1 3H53l-1 2c-4.75-.875-4.75-.875-7-2-2.374-.071-4.75-.084-7.125-.062l-3.883.027L31 11c.531-1.855.531-1.855 2-4 2.569-1 4.839-1.709 7.5-2.312l2.194-.514C51.982 2.16 60.649 3.108 69 8"/><path fill="#3f7f6a" d="M90 45h1c.527 23.616.527 23.616-6.465 32.504-2.164 2.11-4.044 2.477-7.015 2.594l-2.707-.035-2.731-.028L70 80v2l-4-1 8-6 2.11-1.594a117 117 0 0 1 4.39-3.094c2.808-2.597 4.052-4.966 5.605-8.41C87 60 87 60 89 57c.46-2.968.46-2.968.625-6.187l.227-3.293z"/><path fill="#729c8a" d="M88 71c0 4.033-1.609 5.835-4 9h-2l-.812 1.875C80 84 80 84 77 86c-10.265 1.425-20.89 1.215-31.238 1.24-2.42.01-4.839.041-7.258.073l-4.668.015-2.165.038c-4.398-.02-7.176-.66-10.671-3.366l-1-2 1.656.96c7.406 3.284 17.696 2.177 25.719 2.29l2.557.065c5.52.03 9.106-.93 14.068-3.315 3.438-.187 3.438-.187 6 0v-2l2.668-.191c6.632-.477 6.632-.477 12.309-3.5C86.495 74.208 86.495 74.208 88 71"/><path fill="#f3faea" d="M26.188 6.375 28 7l-1.906 1.434C16.999 15.46 10.114 22.164 6 33l-1.562 3.121c-2.003 4.641-2 9.326-2.125 14.316l-.104 2.795A636 636 0 0 0 2 60H0c-.587-16.49.35-29.538 11-43C22.12 5.678 22.12 5.678 26.188 6.375"/><path fill="#25b170" d="m20 33 2 2a134 134 0 0 1-1 6c-.2 2.98-.23 5.952-.25 8.938l-.062 2.341C20.628 61.152 24.236 67.386 30 74a170 170 0 0 0 5 4v2c-5.233-.944-8.507-4.147-12-8-6.283-10.041-7.878-21.474-5.328-33.05.682-2.018 1.49-3.993 2.328-5.95"/><path fill="#65b785" d="M56 14q2.156-.04 4.313-.062l2.425-.036C65 14 65 14 68 15v2l4 1c2.024 5.595 2.455 10.178 1 16-1.5 3.125-1.5 3.125-4 5-5.182.446-9.916-.706-14-4v-2l2 .5c6.68 1.163 6.68 1.163 13-.625 1.512-2.834 1.443-4.708 1-7.875-2.498-4.371-5.66-6.103-10.098-8.105C59 16 59 16 56 14"/><path fill="#587c7a" d="m53.25 26.438 2.703.308L58 27c-3.862 5.208-7.727 8.956-14 11-3.767 0-4.912-.235-8-2 6.143-5.571 6.143-5.571 11-6v-2l-3-1c3.27-1.031 5.86-.964 9.25-.562"/><path fill="#b7cfb1" d="M22 87c3.148.998 6.092 2.045 9.063 3.5 12.11 5.251 24.228 3.822 36.175-.66 2.754-.838 4.904-1.001 7.762-.84-1.361 2.722-3.148 2.993-5.914 3.955C59.496 96.037 51.017 96.609 41 96l-2.824-.137C33.193 95.483 29.319 94.418 25 92c-1.937-2.687-1.937-2.687-3-5"/><path fill="#15774c" d="M17 27c1.563 1.5 1.563 1.5 3 4 .023 3.857-.786 7.357-2 11a214 214 0 0 0-.562 6.688l-.254 3.574L17 55h-2l-1-2-2 1c-.653-8.19.356-14.077 3.906-21.504 1.295-2.5 1.295-2.5 1.094-5.496"/><path fill="#a3c9a4" d="M3 41h1l.078 2.86C4.85 61.323 11.314 73.338 22 87c-3.193-.317-4.707-.73-7.098-2.934C10.376 78.298 7.352 72.926 5 66l-1.094-2.148c-1.385-4.358-1.114-8.625-1.031-13.164l.027-2.823Q2.938 44.433 3 41"/><path fill="#aef4a8" d="m56 38 7 3-1-2 10 1c-2.646 3.968-5.519 4.933-10 6-4.661.525-9.314.81-14 1 1.674-3.767 3.306-5.105 7-7h1z"/><path fill="#4bd564" d="M39 46c2.69.176 5.329.618 8 1l-1 11h-2l-2 4-3-1v-7l-2 1c.875-7.875.875-7.875 2-9"/><path fill="#acdead" d="M72 9c4.428 1.454 7.63 3.886 11.125 6.875l1.59 1.316C87.525 19.561 90.073 21.85 92 25c-.312 2.25-.312 2.25-1 4l-1.687-2.312C87.019 24.023 84.98 22.772 82 21l-1-3-2 3c-2.5-1.375-2.5-1.375-5-3v-2l-5-1 1.875-.437c2.158-.495 2.158-.495 4.125-1.563z"/><path fill="#56917b" d="M60.68 25.316C62.646 26.768 64.374 28.177 66 30v1c-3.657-.359-6.395-.631-9.562-2.562C53.388 26.639 51.484 26.535 48 27l-2 3-2.625-.062C38.862 30.02 35.861 31.805 32 34l1-3h2l1-3c7.083-4.86 16.714-6.597 24.68-2.684"/><path fill="#4cd961" d="m28 67 1.313 1.813A45 45 0 0 0 34 74l.875-1.875C36 70 36 70 38 68c3.125-.125 3.125-.125 6 0l1 2-1.875 1.125C40.449 73.486 39.906 75.601 39 79c-4.077-.528-6.256-1.647-9.312-4.375l-2.114-1.836C26 71 26 71 26 68z"/><path fill="#8db39b" d="m46 29-1.687 1.25C41.838 32.123 39.416 34.053 37 36l5 3-3 7-9-3 2.063-2.75c2.207-2.965 2.207-2.965 1.687-5.625L33 33c4.61-2.95 7.365-4.55 13-4"/><path fill="#60b47f" d="m80 17 2 1v3l2.375.875c3.508 1.503 4.4 2.603 5.914 6.117 2.801 7.808 4.21 15.135 4.273 23.446l.044 2.47C94.506 60 92.814 64.628 90 70l-1-2 1.438-3.187C93.944 55.965 93.24 42.927 90 34c-1.69-2.569-3.482-4.841-5.54-7.125C83 25 83 25 83 22h-2z"/><path fill="#bbe4b4" d="m36 6-2.047 1.207-2.703 1.606-2.672 1.582C26.278 11.827 24.155 13.364 22 15l-2.812 1.625c-6.44 4.797-10.513 10.681-12.583 18.43C6 37 6 37 4 40c1.092-12.836 8.38-20.929 17.563-29.437C25.706 7.163 30.66 4.22 36 6"/><path fill="#2b705d" d="M88 59c.986 2.614 1.084 3.76.145 6.438C83.265 74.823 83.265 74.823 80 77c-2.97.887-5.942 1.503-9 2a324 324 0 0 1 2.75-3.375l1.547-1.898C77.094 71.905 78.727 71.12 81 70c2.128-2.817 2.128-2.817 4-6l1.75-2.875z"/><path fill="#38bf6d" d="M52 47h2a69 69 0 0 1 2.563 4.125C59.83 56.259 63.765 59.034 69 62l-3 1c-2.687-1.437-2.687-1.437-5-3l2 6c-3.814-3.133-5.337-6.618-7.168-11.074C55.154 53.03 55.154 53.03 54 52v11c-2-1-2-1-2.617-2.773-.4-2.327-.516-4.492-.508-6.852l-.008-2.352C51 49 51 49 52 47"/><path fill="#0d503f" d="M47.25 71.938C51.335 73.516 53.399 76.577 56 80c-1.77.054-3.541.093-5.312.125l-2.989.07C45 80 45 80 42 78c.698-3.491 1.212-5.95 5.25-6.062"/><path fill="#27ae6d" d="M24 39c2.802.885 4.587 1.479 6.438 3.813.772 3.003-.195 4.374-1.438 7.187-.381 2.326-.725 4.66-1 7h-1V47l-3 8h-1a995 995 0 0 1-.062-5.75l-.036-3.234c.083-2.55.352-4.595 1.098-7.016"/><path fill="#7db78e" d="M7 33h1c.125 7.75.125 7.75-1 10a166 166 0 0 0-.187 7.813l-.038 2.158C6.764 57.178 7.41 60.156 9 64c-.375 2.313-.375 2.313-1 4-3.828-9.023-6.618-20.369-3.301-30.037C5.414 36.286 6.2 34.64 7 33"/><path fill="#64b885" d="M52 14v1l-2.746.445c-7.169 1.32-12.667 2.78-18.484 7.25C29 24 29 24 26 25c1.751-4.985 3.3-6.98 7.813-9.687C39.496 12.95 45.976 13.774 52 14"/><path fill="#297d5c" d="M85 36c1.938.75 1.938.75 4 2 1.42 3.706 1.22 7.708 1.25 11.625l.063 2.063c.015 1.976.015 1.976-.313 5.312l-3 2-1-2 1-2c.096-1.852.13-3.708.125-5.562l.008-3.004c.141-2.382.141-2.382-1.133-3.434h-3a85 85 0 0 1 2-7"/><path fill="#7cc68f" d="m21 14 1 2a355 355 0 0 1-2 4c-.448 2.356-.448 2.356-.625 4.75l-.227 2.422L19 29h-1v-7c-3.98 2.875-6.436 5.821-9 10-.691-1.723-.691-1.723-1-4 3.16-5.643 7.886-10.133 13-14"/><path fill="#3b7968" d="M11 64h2l1.125 3.688C15.814 72.275 18.119 74.13 22 77l1 2c2.574.913 2.574.913 5.563 1.625 1.011.26 2.023.52 3.066.79L34 82v1c-6.374-.252-11.055-.605-16-5-6.896-7.514-6.896-7.514-7.195-11.785z"/><path fill="#a4daaa" d="m39.188 11.938 2.73.027L44 12v1l-2.45.332-3.237.48-3.2.458C29.814 15.513 27.142 17.715 24 22l-3 1-1 6h-1a268 268 0 0 1-.125-4.25l-.07-2.39c.212-2.567.908-4.152 2.195-6.36l2.188.188c3.37-.225 5.02-1.352 7.812-3.188 3.015-1.005 5.042-1.103 8.188-1.062"/><path fill="#5a8c7b" d="M88 71c0 4.16-1.395 5.794-4 9-5.202 3.143-10.123 3.461-16.133 3.79-2.7.198-5.227.62-7.867 1.21l1-2c2.066-.414 2.066-.414 4.563-.625l2.503-.227L70 82v-2l2.668-.191c6.632-.477 6.632-.477 12.309-3.5C86.495 74.208 86.495 74.208 88 71"/><path fill="#c8e9c0" d="m31 8 2 1v1h12v1H34v2c-7.429 3.286-7.429 3.286-11 4v-3c2.544-2.323 4.906-4.453 8-6"/><path fill="#548878" d="m15 74 1.32 1.242c6.233 5.639 11.908 6.911 20.094 8.195 2.503.545 4.334 1.381 6.586 2.563-3.025-.006-6.04-.054-9.062-.125l-2.569.008c-5.755-.178-8.855-1.343-13.047-5.32C16.608 78.536 15.677 76.559 15 74"/><path fill="#cde6c1" d="m93 29 4 1c1.125 3.75 1.125 3.75 0 6 .319 2.335.655 4.668 1 7 .114 2.7.185 5.364.188 8.063l.037 2.064C98.237 57.47 97.593 60.965 96 65c-.934-3.01-1.044-3.867 0-7 .544-7.954.148-15.105-2.344-22.695C93 33 93 33 93 29"/><path fill="#123a32" d="M56 47c3.487 1.11 6.775 2.263 10 4l-4 1c3.85 4.33 7.723 6.656 13 9-1.723.664-1.723.664-4 1-5.298-2.521-10.238-6.532-14-11-.812-2.312-.812-2.312-1-4"/><path fill="#49d769" d="M85 36c-.628 2.929-1.586 5.361-3 8l-2-2c-3.597.323-3.597.323-7 1l3 3-5-2v-3q2.155-.972 4.313-1.937l2.425-1.09C82.325 36 82.325 36 85 36"/><path fill="#deeed2" d="M3 37c.852 2.913 1.072 5.353.922 8.379-.494 12.848-.494 12.848 4.082 24.723L9 72l-1 2-4-7H2c-1.07-5.85-.971-11.327-.625-17.25l.133-2.719C1.865 40.405 1.865 40.405 3 37"/><path fill="#7fbe94" d="m73 19 1 2 3 1c.607 6.92-.56 9.671-5 15l1 2h-4l.875-1.687c2.226-4.576 3.374-7.977 3.25-13.126l-.055-2.957z"/><path fill="#599f7a" d="M91 37h2c1.285 4.56 1.26 8.977 1.313 13.688l.087 2.607C94.463 59.707 93.03 64.366 90 70l-1-2 1.438-3.187C93.833 56.332 92.445 45.853 91 37"/><path fill="#8fe49c" d="m54 33 1 2c2.113.907 2.113.907 4.563 1.625.826.26 1.652.52 2.503.79L64 38l-1 4-6-3-1 4c-1.46-2.647-2-3.894-2-7-2.33.959-2.33.959-4 4v-2l-2-1c3-2 3-2 6-2z"/><path fill="#719589" d="m55 33 1.875.5c4.38.7 8.7.577 13.125.5l-1 5c-9.808-.62-9.808-.62-14-4z"/><path fill="#57ec66" d="m81 41 1 3h-2v3h-4v2l-4-1 3-3-3-3c3.073-.91 5.801-1.089 9-1"/><path fill="#198650" d="M82 27c2.29 3.435 2.178 4.985 2 9l-9 3 1.277-2.117 1.66-2.758 1.653-2.742A71 71 0 0 0 82 27"/><path fill="#2e9561" d="M82 22c3.896 4.776 5.135 6.804 5 13h2v3c-2.375-.437-2.375-.437-5-2-1.755-4.427-2.306-9.261-2-14"/><path fill="#0e322a" d="M41 60c1.5 1.375 1.5 1.375 3 3v2l3-1 9 9c-3.566 0-4.095-.656-6.75-2.875C45.543 67.215 42.59 65.956 38 65l1-3h2z"/><path fill="#54ae78" d="M16 22c.75 1.625.75 1.625 1 4-2.341 4.323-5.032 7.134-9 10 .35-5.597 4.14-10.14 8-14"/><path fill="#92d2a2" d="M21 22h2l1 6 2-1-1 5h-3l-2 1c-1.6-4.002-.293-7.046 1-11"/><path fill="#aec9ab" d="M75 89c-1 2-1 2-3.66 3.07C65.017 94.03 59.627 95.52 53 95v-1l2.957-.84 3.855-1.097 3.833-1.09C70.838 88.888 70.838 88.888 75 89"/><path fill="#72d497" d="M46 29a477 477 0 0 1-4 3l-1.754 1.313-1.871 1.374-1.79 1.325C35 37 35 37 33 37v-4c4.61-2.95 7.365-4.55 13-4"/><path fill="#c3dbba" d="M9 74h2v3l3 1c3.01 2.785 5.64 5.647 8 9-3.416-.293-4.761-.764-7.238-3.215l-2.075-2.722-2.113-2.715C9 76 9 76 9 74"/><path fill="#309763" d="M17 22h1c-.37 6.79-2.405 11.269-6 17h-1c.44-5.507 1.825-8.535 5-13 .77-2.226.77-2.226 1-4"/><path fill="#96f892" d="m37 20 2 1-1.828 1.574C33.074 26.15 29.193 29.557 26 34l-1-3c2.89-4.845 7.23-8.16 12-11"/><path fill="#62997e" d="M9 68c3.862 1.474 5.182 3.453 7.188 7l1.542 2.688A127 127 0 0 1 20 82c-3.837-1.494-5.462-3.636-7.75-7l-1.86-2.687C9 70 9 70 9 68"/><path fill="#0d4334" d="M47.25 71.938C51.335 73.516 53.399 76.577 56 80c-2.267-1.064-3.82-1.798-5.5-3.687L49 75c-2.138.076-2.138.076-4 1l-1 2h-2c.698-3.491 1.212-5.95 5.25-6.062"/><path fill="#256758" d="M82 69c.625 1.875.625 1.875 1 4-2.485 2.485-4.676 2.936-8 4-1.342.65-2.677 1.313-4 2a324 324 0 0 1 2.75-3.375l1.547-1.898C77.089 71.91 78.69 71.038 81 70z"/><path fill="#71c08d" d="m61 14 7 1v2l1.938.438C72 18 72 18 73 19c.04 1.666.043 3.334 0 5l-2.062-2.25C67.969 18.756 64.713 16.966 61 15z"/><path fill="#e0f4d6" d="M76 10c6.432.485 6.432.485 9 2.813 1.198 2.62.808 3.512 0 6.187a1496 1496 0 0 1-4.5-3.937l-2.531-2.215L76 11z"/><path fill="#1e7e54" d="M85 36c3 2 3 2 3.688 4.188.365 3.289.377 6.505.312 9.812h-1l-2-7h-3a85 85 0 0 1 2-7"/><path fill="#b3e0b0" d="M83 17c7.095 4.415 7.095 4.415 9 8-.434 2.125-.434 2.125-1 4a986 986 0 0 1-4-4.875l-2.25-2.742C83 19 83 19 83 17"/><path fill="#aef3a9" d="m46 42 1 4h-8c.375-1.937.375-1.937 1-4 2.49-1.245 3.41-.777 6 0"/><path fill="#76978c" d="M35 37c2.375-.187 2.375-.187 5 0l2 3-1 2-7-1z"/><path fill="#f6fced" d="M48 0v2L34 4c2-3 2-3 3.625-3.687C41.1-.146 44.495-.058 48 0"/><path fill="#c5dbbb" d="M22 87c2.938.813 2.938.813 6 2l1 3c3.512 1.23 3.512 1.23 7 2-3.055 1.344-4.294.907-7.562-.125C24.84 91.913 23.68 90.658 22 87"/><path fill="#49cb5f" d="M71.188 62.938 73 64c-3 2-3 2-7 2v2h-6v-1h5l.313-1.937L66 63c3-1 3-1 5.188-.062"/><path fill="#bde2b8" d="M34 11c13.633-.369 13.633-.369 20 2v1H44v-2H34z"/><path fill="#e0f2d3" d="m31 8 2 1v1h12v1l-17 2 1-4z"/><path fill="#ecf9e0" d="M33 2c2 1 2 1 3 3l-9 3-1-3a136 136 0 0 1 7-3"/><path fill="#33ca71" d="m28 41 3 2-3 14h-1c-.071-4.277-.072-7.864 1-12l-1-3z"/><path fill="#aaf1ad" d="m23 30 1 2h2l-1 6-4-3c.875-3.875.875-3.875 2-5"/><path fill="#19614d" d="m85 62 1 2c-2.315 3.721-4.286 6.612-8 9l.938-1.75c1.137-2.158 1.137-2.158 1.437-4.312C81.225 64.3 82.722 63.47 85 62"/><path fill="#91cc9a" d="M89 27c4 2 4 2 5.313 4.875.652 2.965.755 4.348-.313 7.125v-2h-2z"/><path fill="#6dd093" d="m55 29 6 1v2l2 1c-2.312.625-2.312.625-5 1l-3-2z"/><path fill="#70b38c" d="M73 25h1c-.06 1.46-.149 2.918-.25 4.375l-.14 2.46C73 34 73 34 70.952 35.29L69 36c.783-3.916 2.392-7.364 4-11"/><path fill="#84cd93" d="M78 14c1.75.125 1.75.125 4 1 2.25 3.063 2.25 3.063 4 6l-1 2c-3.665-2.443-5.132-5.132-7-9"/><path fill="#f1f9e4" d="m65 7 5 2v2l-15-1V9l10-1z"/><path fill="#48d364" d="m62 45 6 1v2l-8 2z"/><path fill="#a1f29f" d="m56 38 5 2v2h-3c.959 2.33.959 2.33 4 4l-5-1z"/><path fill="#6cbc8b" d="M33.188 17.313 35 18l-2.937 1.813C28.769 21.71 28.769 21.71 28 25h-2c2.915-8.298 2.915-8.298 7.188-7.687"/><path fill="#419d6d" d="M87 30c2 1.625 2 1.625 4 4 .25 3.25.25 3.25 0 6l-2-2v-3h-2z"/><path fill="#14763f" d="M79 33h2l1 4-7 2a125 125 0 0 1 4-6"/><path fill="#5b787c" d="M55 33c2.763.523 5.326 1.109 8 2v2c-3.716.2-4.772.152-8-2z"/><path fill="#90f68f" d="m54 30 3 1c-1.062 1.938-1.062 1.938-3 4-3.687.75-3.687.75-7 1 2-2 2-2 5-3z"/><path fill="#52b177" d="m80 17 2 1v3l4 2-1 4-2-2v-3h-2z"/><path fill="#def1d3" d="m93 29 4 1 1 4-4 1z"/><path fill="#cfedc2" d="M37 3h6v2l-8 2z"/><path fill="#e6f1da" d="M20 87c3.875 1.75 3.875 1.75 5 4-1.812.688-1.812.688-4 1-1.75-1.437-1.75-1.437-3-3z"/><path fill="#7ed893" d="m54 33 1 2 2 1-2.375.313C51.67 36.776 51.67 36.776 50 40v-2l-2-1c3-2 3-2 6-2z"/></svg>