<svg xmlns="http://www.w3.org/2000/svg" xml:space="preserve" width="800" height="800" viewBox="0 0 511.999 511.999"><path d="M322.521 361.427 142.832 181.739c-8.606-8.605-8.609-22.571 0-31.18L268.317 25.074c23.131-23.131 60.765-23.13 83.893 0l126.975 126.975c23.13 23.13 23.13 60.765 0 83.893L353.702 361.427c-8.603 8.605-22.573 8.611-31.181 0" style="fill:#80d0e1"/><path d="M479.185 152.051 352.21 25.076c-23.128-23.13-60.762-23.131-83.893 0l-12.316 12.316v257.515l66.521 66.521c8.602 8.605 22.571 8.609 31.18 0l125.483-125.485c23.13-23.128 23.13-60.762 0-83.892" style="fill:#51b3da"/><path d="M372.575 460.176H254.959l97.098-97.087-210.868-210.868L17.352 276.044c-23.136 23.136-23.136 60.765 0 83.9L144.32 486.912c11.412 11.412 26.346 17.177 41.339 17.33.204.006.404.031.611.031h186.305c12.176 0 22.048-9.872 22.048-22.048 0-12.179-9.873-22.049-22.048-22.049" style="fill:#ff7876"/><path d="M372.574 460.176H255.999v44.096h116.574c12.176 0 22.048-9.872 22.048-22.048.001-12.178-9.87-22.048-22.047-22.048M255.999 267.032v192.102l96.058-96.046zM489.952 504.272h-37.275c-12.176 0-22.048-9.872-22.048-22.048s9.872-22.048 22.048-22.048h37.273c12.176 0 22.048 9.872 22.048 22.048.002 12.177-9.87 22.048-22.046 22.048M430.244 429.513h-37.273c-12.176 0-22.048-9.872-22.048-22.048s9.872-22.048 22.048-22.048h37.273c12.176 0 22.048 9.872 22.048 22.048s-9.871 22.048-22.048 22.048" style="fill:#ff5e5b"/></svg>