<svg xmlns="http://www.w3.org/2000/svg" width="163" height="163"><path fill="#09c03a" d="m130 16 2.6 1.8a83 83 0 0 1 30 50.6A84 84 0 0 1 142 136l-1.6 2.4-1.4 1.6h-3l-.8 1.8c-6 10.7-23.8 16.7-34.7 20A91 91 0 0 1 45 156l-2.7-1.2C22.8 145.7 9.5 128.3 1 109c-1.3-4-1-6 1-9.8L4 95l3 3 .4-2 .5-2.4.5-2.5L9 89l2-1c.9-1.9.9-1.9 1.6-4l.8-2.3.6-1.7 3 1 .2 1.9 1.4 16.7c.4 2.5 1.2 4.2 2.4 6.4l.1-2c.8-8.8.8-8.8 2.9-13 7.6-1 7.6-1 11-1l-1-5h-4l1-2.7c1-3.1 1-3.1 1.4-5.7.9-3.8 2.8-7.1 4.6-10.6l2-4 1-2c-1.8-.8-1.8-.8-4-1l-1.5 1.5L33 62c-2.2-.3-2.2-.3-4-1l-1-5h-5q-3.4 6.3-6 13l-4-1-5 14-5-1q-.2-8.6 1-17l-2-1a46 46 0 0 1 13.6-33.5l6-6.3C49.3-7.4 98.2-6.3 130 16m-17 11-1 3 3 2 3-1-1-3c-2-.7-2-.7-4-1m-88 2-5 6c2.6-1 3.8-1.6 5.3-4.1L26 29zm-6 6-3 4 1 2 4-5zm-4 6v3Zm-2 3 1 2Zm113 26-1 5 2-1zm-2 1 1 2Zm-42 6 1 2Zm3 1 1 2Zm73 0-2 9 3 1V78zm-75 1 1 2Zm1 2 1 3Zm-15 2 1 3v-3zm19-1-3 3 4 5c.7-2.9.7-2.9 1-6zm-16 3v2l-2 1h3zm-36 5 1 3Zm53 1 1 2Zm-62 1 1 3Zm7 1 1 4 1-3zm3 0 1 3Zm83 0 1 3 1-3zm-30 1 1 2Zm1 4 1 2Zm7 8 1 2Zm-80 4v5l2 1v-5zm2 8 1 4Zm1 5 1 3Zm-5 4 1 2 2-1zm5 2 3 3-1-3zm0 6v2l2-1zm5 2v2l2-1zm3 4 1 2Z"/><path fill="#e95704" d="M106 72c5 3.7 8.2 7.5 11 13v2h2v-6c2.8 1.4 3 3.1 4.1 6l1.1 2.8.8 2.2c1.6-1.6 1.3-3.4 1.6-5.6l.2-2.5.2-1.9h1l.1 5.3.1 3C128 93 128 93 126 96c-2.1.7-2.1.7-4 1v7h-3c-2.4 2-3 3-4 6h-2v-2h-3c1.4 6 3 10 8 13.8 3.2 2 6.4 3 10 4.2l-1 1.6c-1.2 2.4-1.2 2.4-1 5.4 0 3-.4 4.5-2 7h6l1-4 5-1v-3h3v-2h3l.9-3c1.1-3 1.1-3 3.1-4-2.2 12.2-2.2 12.2-7 17h-3l-.8 1.8c-6 10.7-23.8 16.7-34.7 20A91 91 0 0 1 45 156l-2.7-1.2C22.8 145.7 9.5 128.3 1 109c-1.3-4-1-6 1-9.8L4 95l3 3 .4-2 .5-2.4.5-2.5L9 89l2-1c.9-1.9.9-1.9 1.6-4l.8-2.3.6-1.7 3 1 .2 1.9.7 8.3.2 3 .3 2.8.2 2.6c.4 2.5 1.2 4.2 2.4 6.4l.1-2c.8-8.8.8-8.8 2.9-13 7.6-1 7.6-1 11-1l-1-5h-2l1-3 5.3-.6 2.9-.4c3 0 4.2.6 6.8 2l3.4-.1c4.4.1 6 1.7 9.6 4.1 2.5-.2 2.5-.2 5-1h6l1 2 .3-2 .7-2 3-1 2 2 4 1v-2c3 1 3 1 5 4l1-3 8 4 2-1 2.7 5.4c1.6 2 2.8 2 5.3 2.6l-1.6-8.2-.4-2.3c-1-5-1.3-8.8 1-13.5M36 90l1 3Zm53 1 1 2Zm-62 1 1 3Zm7 1 1 4 1-3zm3 0 1 3Zm83 0 1 3 1-3zm-30 1 1 2Zm1 4 1 2Zm7 8 1 2Zm-80 4v5l2 1v-5zm2 8 1 4Zm1 5 1 3Zm-5 4 1 2 2-1zm5 2 3 3-1-3zm0 6v2l2-1zm5 2v2l2-1zm3 4 1 2Z"/><path fill="#0675d7" d="M117 10c5.7.9 9.4 3.7 14 7l2.2 1.5a81 81 0 0 1 29.4 49.9 84 84 0 0 1-14.5 60.1L145 132c-1-3.9-1-3.9-1-5l-2 3h-3v2c-3 2-3 2-5 2.9-2.4 1.3-3 2.6-4 5.1h-6q0-2.4.3-4.7l.2-2.7c.6-3 1.6-4.4 3.5-6.6l-2.6-.2c-6.5-1.5-10.7-5.4-14.4-10.8-.8-3.9-.8-3.9-1-7h3v2h2l1-4h2l1-3h2l1-7h4l2-13-2-1 .6-1.7c.6-2.2.6-2.2 0-4.1-.7-2.6-.6-4.9-.5-7.6a20 20 0 0 0-4.8-13.8C120 53 120 53 120 51l3 1 1-11-3-1c-2.7-2.3-2.7-2.3-5-5v-4l7 1-1-3h4l1-2-5-2v-3l-3-1 6-2-3-3 1-1-6-3zm41 68-2 9 3 1V78z"/><path fill="#76c738" d="m53 42 2 1-1.3 1.2-1.7 1.5-1.7 1.6c-1.7 1.9-1.7 1.9-1.3 5.7l2.4-2.5C54 48 54 48 56 48v-2h2l-1 4 2.4-1.5C62 47 62 47 64 47v2.4c-.2 2.6-.2 2.6 1 4.6l-1 3 1.8-1q5.9-3.6 12.2-6l2 2 3.1-2c3.5-2 5.9-2.7 9.9-2 2.9 2 2.9 2 5 4l-.6-1.9C97 48 97 48 98 46h-2v-2l1.7.9L105 48v3h3v-2c5 .5 8 2 12 5l2.8 2c3.5 3.2 4.1 5.7 4.4 10.5-.2 3.5-.2 3.5-.8 6-.5 3.3.1 6.2.6 9.5l.3 4.8V89c-.3 2-.3 2-3.3 5l-4-12-1 5h-2l-3.4-5.3c-2-3.3-3.8-6.2-6.6-8.7-2.3 1.8-2.3 1.8-2 4.3l.3 2.7.3 3 .4 3 1 10c-2.2-.1-2.2-.1-5-1l-4-6h-4l-6-5h-4l-1 2c-4.7-.9-4.7-.9-7-2l-6 2v-2l-1 2c-4.1 1.1-7.8 1.7-11.6-.4L55 84h-7l-1.9-1c-2.7-1.3-4.6-1-7.7-.7l-2.8.2c-2.8.4-2.8.4-5.6 2.5l1-2.7c1-3.1 1-3.1 1.4-5.7 1-4.5 3.5-8.5 5.7-12.6 1-2.2 1-2.2 1.8-5.7L41 55l3-1 .4-1.7C45.6 47.7 49 44.6 53 42m71 29 1 2Zm-42 6 1 2Zm3 1 1 2Zm-2 1 1 2Z"/><path fill="#05c1b7" d="m119 9-2 1v2l2.9.9C123 14 123 14 125 16v2l1 2-6 1 2 1v3l5 2-1 3h-3v2c-3.7-.5-5.5-1.2-8-4l-2-1 1 4h2v3c-4.4-1-7.5-2.1-11-5l-5-3-3-2c-3-2-5.6-3-9-4v-2h-4v2l-1.6-.5c-5-1-10-.7-15-.7l-3.6-.1c-6.8 0-12.5.5-18.8 3.3l-2.2 1c-2.1 1-2.1 1-2.8 4l-3.3 2.6-1.8 1.2C33 32 33 32 30.9 33A22 22 0 0 0 23 41c-.5 3.3-.5 3.3 0 6l5-2v2l2 1-1 2 3 1v3h2v7h-5l-1-5h-5q-3.4 6.3-6 13l-4-1-5 14-5-1q-.2-8.6 1-17l-2-1a46 46 0 0 1 13.6-33.5l6-6.3C46.3-4.1 87.6-5.5 119 9M25 29l-5 6c2.6-1 3.8-1.6 5.3-4.1L26 29zm-6 6-3 4 1 2 4-5zm-4 6v3Zm-2 3 1 2Z"/><path fill="#deea12" d="M106 72c5 3.7 8.2 7.5 11 13v2h2v-6c2.8 1.4 3 3.1 4.1 6l1.1 2.8.8 2.2c1.6-1.6 1.3-3.4 1.6-5.6l.2-2.5.2-1.9h1l.1 5.3.1 3C128 93 128 93 126 96c-2.1.7-2.1.7-4 1v7h-3c-2.4 2-3 3-4 6h-2v-2h-3c1.4 6 3 10 8 13.8 3.2 2 6.4 3 10 4.2v2c-8-.8-12.5-5-17.5-11-1.5-2-1.5-2-3.2-5.4-1-2.8-1-2.8-3.5-3.5l-1.8-.1v6h-1l-2-6c-1.3 2.6-1.1 4.7-1 7.6v5.4h-2l1 8c-3.4-2.7-4.3-6-5.7-10l-.7-2c-1.6-4.7-1.6-4.7-1.6-7l-3 1c-.7 2-.7 2-1 4-2.4.2-2.4.2-5 0l-2-3h-3l-1 5h-4l-1 5c-2-3-2.3-4.2-2.6-7.7l-.3-2.7-.2-2.8L65 99c-3.1.7-3.1.7-4.2 3l-.8 2-4-2-1 13h-3l-1 3-3-16-3-1-1 3-1-2-3-1-1 4v-8l-2-1-1-6-2-5h-2l1-3 5.3-.6 2.9-.4c3 0 4.2.6 6.8 2l3.4-.1c4.4.1 6 1.7 9.6 4.1 2.5-.2 2.5-.2 5-1h6l1 2 .3-2 .7-2 3-1 2 2 4 1v-2c3 1 3 1 5 4l1-3 8 4 2-1 2.7 5.4c1.6 2 2.8 2 5.3 2.6l-1.6-8.2-.4-2.3c-1-5-1.3-8.8 1-13.5M89 91l1 2Zm31 2 1 3 1-3zm-30 1 1 2Zm1 4 1 2Z"/><path fill="#ee5402" d="m14 80 3 1v2l-.1 8.8v3c-.1 6.8.1 13.7 2.1 20.2l2 1-1 6 2 1c2.6 2.6 3.6 5.6 5 9l-1-14 2 1 1.7 6.3q2.8 11.1 9.3 20.7l3 1-1.3-2-1.6-2.7-1.7-2.6c-1.4-2.6-2-4.8-2.4-7.7l1.4 2c1.4 1.9 1.4 1.9 2.6 3l-.8-2a70 70 0 0 1-5.2-29h2l.3 3.5c.8 10 2.4 18.3 6.7 27.5l1 2.3c.9 2 .9 2 3.1 2.4l1.9.3v2h2l2-4 1 4h2l2-4 1 2 3-2-1-1.8c-3.2-6-5-11.5-6-18.2h2l1 4c1.2-2.8 1.2-2.8.6-4.7-.8-3.1-.7-6.1-.6-9.3h2l.4 3.3c.5 3.6.5 3.6 1.6 6.7l.4 2.1.6 1.9 3 1-1-8c2 3.1 3.3 6 4.7 9.5L70 130c.9 3 .9 3-.1 6l-3-6-2.4 1.5C62 133 62 133 60 133c3.6 7.4 8.3 13 14 19l.9-2c1.1-2 1.1-2 3.1-3l-4-4 1-2 2 1 1-2h2l-1.6-2.4L77 135l1-2 1.5 2.2c6.2 8.8 11.7 15.2 22.5 17.8q7 .4 14 0c-2.2 2-3.6 3-6.6 3.3-9.4-.7-16.6-4.1-24.4-9.3.1 2 .1 2 1 4q7.8 4.4 17 5v2h3v-2l4 1c-13.4 9-33.8 7.6-49 4.8q-8.3-2.3-16-5.8l-2.7-1.2C22.8 145.7 9.5 128.3 1 109c-1.3-4-1-6 1-9.8l1-2.4L4 95l3 3 .4-2 .5-2.4.5-2.5L9 89l2-1c.9-1.9.9-1.9 1.6-4l.8-2.3zm2 47 1 2 2-1zm5 2 3 3-1-3zm0 6v2l2-1zm5 2v2l2-1zm3 4 1 2Z"/><path fill="#a73ae7" d="m138 78 3 1-1 3 8-1v3c1.8.8 1.8.8 4 1 1.8-1.4 1.8-1.4 3-3v2h2v3l4 1 1-2c3.2 9.7-4 24.7-8.1 33.5A60 60 0 0 1 145 132c-1-3.9-1-3.9-1-5l-2 3h-3v2c-3 2-3 2-5 2.9-2.4 1.3-3 2.6-4 5.1h-6q0-2.4.3-4.7l.2-2.7c.6-3 1.6-4.4 3.5-6.6l-2.6-.2c-6.5-1.5-10.7-5.4-14.4-10.8-.8-3.9-.8-3.9-1-7h3v2h2l1-4h2l1-3h2l1-7h4l2-13 4.4-1.4C135 81 135 81 137 80z"/><path fill="#77c638" d="m53 42 2 1-1.3 1.2-1.7 1.5-1.7 1.6c-1.7 1.9-1.7 1.9-1.3 5.7l2.4-2.5C54 48 54 48 56 48v-2h2l-1 4 2.4-1.5C62 47 62 47 64 47v2.4c-.2 2.6-.2 2.6 1 4.6l-1 3 3.4-2c3.3-2 3.3-2 5.6-2v2l-5 3v2l5.5 4 5.5 4v2l-2.9-.6L73 69l-2 2 2.3 1.6C76.5 75.5 78 78 80 82l-2 3-2-1-6 2v-2l-1 2c-4.1 1.1-7.8 1.7-11.6-.4L55 84h-7l-1.9-1c-2.7-1.3-4.6-1-7.7-.7l-2.8.2c-2.8.4-2.8.4-5.6 2.5l1-2.7c1-3.1 1-3.1 1.4-5.7 1-4.5 3.5-8.5 5.7-12.6 1-2.2 1-2.2 1.8-5.7L41 55l3-1 .4-1.7C45.6 47.7 49 44.6 53 42"/><path fill="#ed5e10" d="M32 90h3c2 3 3 5.8 4 9.3.9 1.9.9 1.9 3 2.5 2.2.2 3.8-.1 6-.8a56 56 0 0 1 3 13l5 1v3h-3v2.8c0 3.2 0 3.2-.5 5.1-.5 2.3-.5 4.1-.4 6.4 0 4.3-.7 7.7-2.1 11.7h-2v-2l-2.3-.2c-2.7-.8-2.7-.8-4.2-2.9A72 72 0 0 1 35 106h-2a90 90 0 0 0 8 33l-1 2-4-6 4.7 8.3C42 146 42 146 42 149c-4-3.6-6.3-7-8.6-11.7l-1-1.9q-3.3-7-5.4-14.4l1 13a37 37 0 0 1-8.5-20.4c-.4-2.3-1-4.1-2.1-6.3A23 23 0 0 1 16 96h2l1.5 6c.4 2 .4 2 1.5 4l.1-2c.8-9.5.8-9.5 2.9-13 3-1 5-1 8-1m-5 2 1 3Zm7 1 1 4 1-3z"/><path fill="#05a99a" d="M67 2c38-1.3 38-1.3 50 6l2 2h-2v2l2.9.9C123 14 123 14 125 16v2l1 2-6 1 2 1v3l5 2-1 3h-3v2c-3.7-.5-5.5-1.2-8-4l-2-1 1 4h2v3c-4.4-1-7.5-2.1-11-5l-5-3-3-2c-3-2-5.6-3-9-4v-2l-1.6-.3C84 17 84 17 80.6 15.5c-3-1.2-5.5-2-8.6-2.5v-2l8-1-7-1V7l-2-2 1-1-5-1z"/><path fill="#f5e117" d="m14 80 3 1v2l-.1 8.8v3c-.1 6.8.1 13.7 2.1 20.2l2 1-1 6 2 1c2.6 2.6 3.6 5.6 5 9l-1-14 2 1 1.7 6.3c2.3 8.3 5.4 19 13.3 23.7l2 .5c2.7.7 3.8 2 5.8 4 4 3.6 6.9 4.5 12.2 5.5l5 2v1c-20.5-.5-37.6-12.9-51.3-27-7-7.6-15.9-20.4-16.7-31 .8-2.5.8-2.5 2-4.8l1-2.4L4 95l3 3 .4-2 .5-2.4.5-2.5L9 89l2-1c.9-1.9.9-1.9 1.6-4l.8-2.3zm2 47 1 2 2-1zm5 2 3 3-1-3zm0 6v2l2-1zm5 2v2l2-1zm3 4 1 2Z"/><path fill="#e65305" d="M102 108c2.3.2 2.3.2 5 1 1.6 2 1.6 2 2.9 4.7A29 29 0 0 0 127 128l-1 2v2.9c0 3-.4 4.5-2 7.1h6l1-4 5-1v-3h3v-2h3l.9-3c1.1-3 1.1-3 3.1-4-2.2 12.2-2.2 12.2-7 17h-3l-.8 1.8c-3.6 6.5-14.3 12.7-21.3 14.8-3 .5-5 .4-7.9-.6v2h-3v-2q-1.5 0-2.9.3c-5 0-10-1.5-14.1-4.3-.8-2.6-.8-2.6-1-5q5 2 9.6 4.6A35 35 0 0 0 112 155l2-1-2-2 3-1c-2.3-2.3-3-2.3-6-2.6-2.4-.2-3.8-.3-6-1.4 1.9-4.7 1.9-4.7 3-7h2v-3l-2-1 1-2 4 2-1 4 3-1 1-3-2.1-1c-3.9-2.7-6.5-6-8.9-10v-3h2l-1-6h-2z"/><path fill="#62b03a" d="m96 44 1.7.9L105 48v3h3v-2c5 .5 8 2 12 5l2.8 2c3.5 3.2 4.1 5.7 4.4 10.5-.2 3.5-.2 3.5-.8 6-.5 3.3.1 6.2.6 9.5l.3 4.8V89c-.3 2-.3 2-3.3 5l-4-12-1 5h-2l-3.4-5.3c-2-3.3-3.8-6.2-6.6-8.7-2.4 3.5-3.4 5.7-3 10h-3c-1.5-2.6-2-3.9-2-7h3l-.9-3.8-.5-2.2c-1-3.5-2.5-5-5.6-7-2.4-3.4-3-4.7-3-9 4 .6 6.7 2.7 10 5l-1.1-1.8-1.5-2.5-1.4-2.3c-1.1-2.7-1-3.7 0-6.4h-2zm28 27 1 2Z"/><path fill="#23cd55" d="M88 42v2h2v2h2v2l-1.8.6-2.5.8-2.3.7Q82 51.4 79 53l-1-3-2 1.3-2.7 1.6-2.7 1.7c-2.3 1.2-4 2-6.6 2.4-1.1-7.7-1.1-7.7 0-10l-1.8 1.5C60 50 60 50 57 50l1-4h-2v2c-1.7 1.7-1.7 1.7-4 3.6l-2.2 2L48 55l-1-3q2.6-4.8 6-9l-3 1-1 3-4 4-1 3-3 2c-.7 2-.7 2-1 4l-1.9-.6c-2.1-.6-2.1-.6-4.1.6v-6h-2l-1-3-2-1c1-2 1-2 2.8-2.6l2.3-.5 2.2-.5L38 46l1 4 2-3-2-1 1-2h2v-3l2.4-.8L47 39l1-3c13-2.9 28.6-.9 40 6"/><path fill="#da5602" d="m63 98 3 1 2 20 2-3 4 1v-5h2v7l-3 1c-1.2 2.4-1.2 2.4-2 5l-1 2v3l4-2 3 4.9 1.7 2.7C80 138 80 138 80 140h-2l-1 3h-2l4 5-4 2 1 3a22 22 0 0 1-8.6-6.7l-2.3-2.6c-2.5-3.2-5.1-6.5-5.1-10.7l2.4-.8c2.9-1 2.9-1 4.6-4.2l3 7-1.4-4.2-.7-2.4Q66.6 125 65 122v3l-3 1-2-1v-3.4c.4-3.4.4-3.4-1-4.6v-7h-2l.5 2.7.6 3.5.7 3.6c.2 3.2 0 4.5-1.8 7.2l-1-7-1 1a65 65 0 0 0 7 19l-1 2-4-1-2 4c-3-2.4-3.4-4.3-4-8-.4-6.7-.3-12.7 2-19h3l-1-3-.1-5.6v-2.9c.1-2.5.1-2.5 1.1-4.5l4 1z"/><path fill="#0aaa3a" d="M89 20c5.7 1.2 8.6 3.1 13 7l6 3 2 2 3.2 1.3c4.3 1.8 8.2 3.7 10.8 7.7q.8 6 0 12l-4-2 2 5-2-1.3-2.7-1.6-2.7-1.7c-2.3-1.2-4-2-6.6-2.4v2h-3l-2-2-3.6-2.6-2-1.4-1.4-1v2h2l1 7-7-5 1-2h2c-3-4.5-5-7.6-10-10l1-4c3.7-1.1 7.4-1.3 11.3-1.6l6.7-.4-20-1-1-2 11-1-8-3z"/><path fill="#0a77d8" d="M117 10c5.7.9 9.4 3.7 14 7l2.2 1.5c15.4 11 26.1 31.5 29.4 49.8q.6 6 .5 12.1v2.3L163 88h-4V77q.2-5.5-.6-11c-.4-3-.4-3 .6-5l-3-1c-1.4-2.9-1.4-2.9-2.6-6.4L152 50l-1.1-3-1-2-2 2-2-3-2 1-2-2-2.6-2.4c-2.4-2.6-2.4-2.6-2.9-4.8L136 34c-2.9-1.5-4.7-2-8-2v3l3 2-1 4-3-2c-2.7.8-2.7.8-5 2-3.5-3.2-5.6-5.2-6-10l7 1-1-3h4l1-2-5-2v-3l-3-1 6-2-3-3 1-1-6-3z"/><path fill="#09c1b3" d="m14 38 5 3-.7 1.8c-.6 2.3-.6 2.3 1 4.5L21 49h2l1-3c2-.7 2-.7 4-1v2l2 1-1 2 3 1v3h2v7h-5l-1-5h-5q-3.4 6.3-6 13l-4-1-5 14-5-1q-.2-8.6 1-17l-2-1c.6-13.8.6-13.8 4-19h5zm1 3v3Zm-2 3 1 2Z"/><path fill="#da5403" d="M36 101h2v4h2v-4l1.8.6c2.4.4 3.8.2 6.2-.6a56 56 0 0 1 3 13l5 1v3h-3v2.8c0 3.2 0 3.2-.5 5.1-.5 2.3-.5 4.1-.4 6.4 0 4.3-.7 7.7-2.1 11.7h-2v-2l-2.3-.2c-2.7-.8-2.7-.8-4.2-2.9-5-12-7.4-22.8-6.5-35.9z"/><path fill="#cbd828" d="M106 72c5 3.7 8.2 7.5 11 13v2h2v-6c2.8 1.4 3 3.1 4.1 6l1.1 2.8.8 2.2c1.6-1.6 1.3-3.4 1.6-5.6l.2-2.5.2-1.9h1l.1 5.3.1 3C128 93 128 93 126 96c-2.1.7-2.1.7-4 1v7h-3c-2.4 2-3 3-4 6h-2v-2h-3c1.4 6 3 10 8 13.8 3.2 2 6.4 3 10 4.2v2c-8-.8-12.5-5-17.5-11-1.5-2-1.5-2-3.2-5.4-1-2.8-1-2.8-3.5-3.5l-1.8-.1v6h-1l-2-7h7l.4-2.3c.6-2.7.6-2.7 1.6-5.7l-1.4-6a67 67 0 0 1-2.6-18zm14 21 1 3 1-3z"/><path fill="#f3871e" d="M33 106h2l.3 3.5c1.2 14 4.3 29 14.7 39.5l2-4 4 4v2l1.7.8q3.7 2 7.2 4.2c5.7 3.5 9.4 5.4 16.1 4l9.3-1q1.3-.2 2.5-.3l6.2-.7-6.8-1.7c-2.2-.5-2.2-.5-4.2.7l-4-2v-3c-1.7-1.8-1.7-1.8-3.9-3.4A18 18 0 0 1 74 141l3 1 1-2h2l-1.6-2.4L77 135l1-2 1.5 2.2c6.2 8.8 11.7 15.2 22.5 17.8q7 .4 14 0c-2.2 2-3.6 3-6.6 3.3-9.4-.7-16.6-4.1-24.4-9.3.1 2 .1 2 1 4q7.8 4.4 17 5v2h3v-2l4 1c-9 6-18.3 6.2-28.8 6.3h-2.8A23 23 0 0 1 65 160l-6-1c-4.7-1.2-7.6-4.2-11.1-7.4-2-1.8-2-1.8-4.9-2.6q-2.3-3.4-4.2-6.9l-1.2-2q-1.4-2.4-2.6-5.1l1-3 3 5-.8-2a70 70 0 0 1-5.2-29"/><path fill="#e2e811" d="M80 87a45 45 0 0 1 5 23h-4l-5.2.5q-1.4 0-2.8.3l-2 .2-1-3v1.8c0 4.2 0 8-1 12.2-2-3-2.3-4.2-2.6-7.7l-.3-2.7-.2-2.8L65 99l-6 1-4-13 5 1c6.7.5 14-3 20-1"/><path fill="#0aab99" d="M85 7c6.4-.7 11.4.5 17.4 2.7l2.1.7c3.4 1.3 5.3 2.3 7.5 5.3l1 2.3h-9l10 4v1l5 1-2 1v2l3 1-2 2-5-3 1 4h2v3c-4.4-1-7.5-2.1-11-5l-5-3-3-2c-3-2-5.6-3-9-4v-2l-1.6-.3C84 17 84 17 80.6 15.5c-3-1.2-5.5-2-8.6-2.5v-2l2.5-.2 3.3-.2 3.3-.3c3-.2 3-.2 5.9-1.3z"/><path fill="#147fe2" d="M131 48c3 2 3 2 3.6 4.8l.4 3.2 1 2.8c1.6 5.3 1.8 11 0 16.2l6 1 1 3 3-1c2.7 1.4 2.7 1.4 5 3l1-3 1 3c2 .7 2 .7 4 1v2h-3l-2 2c-3.9-1.7-3.9-1.7-5-4h-7v-3l-2-1-2 4h-10l1-4-1-4 .1-5.4a20 20 0 0 0-4.8-13.8C120 53 120 53 120 51c2.5 1.2 4 2 6 4l.8-3 1.2-3z"/><path fill="#08c437" d="m87.4 24 1.6 1v1l-2.1.2c-6.4.8-11.6 2.4-17.3 5.3a45 45 0 0 1-18.7 5c-3.5.6-4.6 1.9-6.9 4.5h-2v3h-2l1 5-3 2-1-2 1-3-2.9 1.5C32 49 32 49 30 49a31 31 0 0 1 13-16l2.4-1c3-1.1 5.2-2.8 7.7-4.6 5.7-3.8 10.2-4.2 16.9-3.4l1 2 3-1.5c4.6-2 8.8-2.4 13.4-.5"/><path fill="#f6e40e" d="m14 80 3 1c.2 9.5 0 18.7-2 28l-1 1v8l-4-1v-7c-2.3 2.7-2.3 2.7-1.8 5.3l.7 2.4.6 2.4.5 1.9H7C-.1 108.3-.1 108.3.2 102.7Q1.3 99.2 3 96h3l1 2 .4-2 .5-2.4.5-2.5L9 89l2-1c.9-1.9.9-1.9 1.6-4l.8-2.3z"/><path fill="#a6341b" d="M102 108c2.3.2 2.3.2 5 1 1.6 2 1.6 2 2.9 4.7A29 29 0 0 0 127 128l-1 2 .2 3c-.2 3-.2 3-1.9 4.8-2.3 1.2-2.3 1.2-4.9.9A27 27 0 0 1 104 127c-.7-2.8-.7-2.8-1-5h2l-1-6h-2z"/><path fill="#dae90a" d="m89 85 8 4 2-1 1.7 3.4c1.7 3.2 1.7 3.2 5 4.5l2.3.1 1 7h-2l-1 4h-7c-1 3.1-1.1 5.4-1 8.7v5.3h-2l1 8a10 10 0 0 1-4-7v-7.4l.1-5.6c.1-5.8-.5-10.5-2.1-16v-5h-2z"/><path fill="#dc5501" d="m86 112 1 3h2c2.8 2.2 3.9 4.6 5.1 7.9l1 2.5c1.5 4.5 2.3 8 .9 12.6l-3 3-1 3a37 37 0 0 1-11-27h5z"/><path fill="#52b03a" d="M114.6 41.3c6.8 3.4 6.8 3.4 9.4 5.7.4 3.3.4 3.3 0 6l-4-2 2 5-2-1.3-2.7-1.6-2.7-1.7c-2.3-1.2-4-2-6.6-2.4v2h-3l-2-2-3.6-2.6-2-1.4-1.4-1v2h2l1 7-7-5 1-2h2l-3-5c6.6-2.2 16-2.1 22.6.3"/><path fill="#0cc540" d="M62.7 41.4A68 68 0 0 1 82 49l1 2-4 2-1-3-2 1.3-2.7 1.6-2.7 1.7c-2.3 1.2-4 2-6.6 2.4-1.1-7.7-1.1-7.7 0-10l-1.8 1.5C60 50 60 50 57 50l1-4h-2v2c-1.7 1.7-1.7 1.7-4 3.6l-2.2 2L48 55c-1-3-1-3 .1-5.4L50 47l2-2.8c3.8-2.8 6-3 10.7-2.8"/><path fill="#e6e61d" d="M40 84c2.7.2 4.5.5 6.4 2.4L50 91l4-3v2h2c2 3.7 3 5.7 3 10h2l-1 4-4-2-1 13h-3l-1 3-3-16-3-1-1 3-1-2-3-1-1 4v-7l5 1 1-2v2l5 1c.3-2.4.3-2.4 0-5l-4-3-2-5c-2-1.8-2-1.8-4-3"/><path fill="#157bdb" d="m145 43 3 2 2-2c4.7 10 4.7 10 6.2 14.6.5 2.6.5 2.6 2.8 3.4a107 107 0 0 1 1 19c-3 1.8-4.2 2-8 2-.3-7.4-.3-7.4 2-11h-2l-.5-3.4A72 72 0 0 0 145 45z"/><path fill="#60ac23" d="m113 64 3 3-2 1v4h2l1-2 4 1 .8 3.4L123 78l3 1c1 2.8 1.2 4.6 1.3 7.5v2.3C127 91 127 91 124 94l-4-12-1 5h-2l-3.5-5.4c-2.4-4-2.4-4-5.5-7.6.4-2.1.4-2.1 1-4h2z"/><path fill="#f67922" d="M77 133q3.9 3.6 7 8c4.7 6.4 10.2 10 18 12q7 .4 14 0c-2.2 2-3.6 3-6.6 3.3-9.4-.7-16.6-4.1-24.4-9.3.1 2 .1 2 1 4q7.8 4.4 17 5v2h3v-2l4 1c-4.3 2.8-6.8 4.3-12 4l1-3-4.4-1-2.4-.7c-2.2-.5-2.2-.5-4.2.7l-4-2v-3c-1.7-1.8-1.7-1.8-3.9-3.4A18 18 0 0 1 74 141l3 1 1-2h2l-1.5-2.4C77 135 77 135 77 133"/><path fill="#cf6201" d="M86 110h3l2 7-2 1v-3h-2l-1 2h-5c2 10.5 4.7 19.9 12 28-9.3-4.2-13-14.3-17-23-1.3 3-1.3 3 0 5.5 1 2.5 1 2.5 0 5.5l-3-4-3 1-1-7 2 1 .9-2.4C73 119 73 119 75 118v-7c2 .3 2 .3 4 1l1 3h5z"/><path fill="#c85605" d="m98 108 3 1 1 7h2l1 6h-2c2.9 6.3 5.4 11.2 12 14l-2 4h-3l1-4-2.4-.9C106 134 106 134 104 132l-3 2c-4.9-6-4.9-6-5.3-10.4q0-1.3.3-2.6h2l-1-3c-.5-7-.5-7 1-10"/><path fill="#f07e20" d="M57 110h2l.4 3.3c.5 3.6.5 3.6 1.6 6.7l.4 2.1.6 1.9 3 1-1-8c2 3.1 3.3 6 4.7 9.5L70 130c.9 3 .9 3-.1 6l-3-6-2.4 1.5C62 133 62 133 60 133c4.4 9.1 10.9 16 18 23-9.3-3.2-14.7-11.5-19-20a50 50 0 0 1-5-16h2l1 4c1.2-2.8 1.2-2.8.6-4.7-.8-3.1-.7-6.1-.6-9.3"/><path fill="#a0362f" d="M119 103q1.3 5 2 10l-3-1 4.3 5.4a9 9 0 0 0 5.7 2.6v6c-6.5-.6-10.2-3.2-14.8-7.8A17 17 0 0 1 110 108h3v2h2l1-4h2z"/><path fill="#f9ea1b" d="M4 95c3.8 2.8 4 6.6 5 11l1-10h1l3 22-4-1v-7c-2.3 2.7-2.3 2.7-1.8 5.3l.7 2.4.6 2.4.5 1.9H7c-8-15.4-8-15.4-6-22 1.5-3.5 1.5-3.5 3-5"/><path fill="#26cb3d" d="m67 22 5.1.6 2.8.2 2.1.2c-1 2-1 2-3.4 3.2C71 27 71 27 68 26h2v-2c-9.3-.1-14.6 2.8-22 8-3 1.6-5.7 3-9 4l-2 4-3.1 3.8-1.7 1.8L31 47l-2-1c1.5-3.8 3.8-5.5 7-8 4-3.5 5.4-6 7-11 2.9-1.9 4.4-2.5 7.7-3.1l2.4-.5L55 23v-2c4.7-1 7.7-1.2 12 1"/><path fill="#05829c" d="m118 12 7 3v3l1 2-6 1 2 1v3l5 2-1 3h-3v2l-5-1 1-3-2-1v-2l-1.7-.8L103 18v-1h9v-1h6z"/><path fill="#0abe3a" d="M80 30v2l-4 1 10-1-1 4 2.2.6c3.8 1.9 5.3 4 7.8 7.4v2l-3 1-2-1v-2h-2v-2l-1.7-.4c-2.3-.6-2.3-.6-4-1.5-3.3-1.6-6.9-2-10.5-2.7l-2.3-.4-5.5-1q4-3.2 8.6-5.2l2.3-1.1C77 29 77 29 80 30"/><path fill="#e9721c" d="M42 108c1.7 3 2.5 5.8 3 9.2.4 3.2.4 3.2 2 5.8v-12l2.3 2c2.7 2.4 2.7 2.4 6.7 2v3h-3v2.8c0 3.2 0 3.2-.5 5.1-.7 3-.5 5.9-.3 9C52 137 52 137 50 140a62 62 0 0 1-8-32"/><path fill="#1dc83f" d="m53 43-3 1-1 3-4 4-1 3-3 2c-.7 2-.7 2-1 4l-1.9-.6c-2.1-.6-2.1-.6-4.1.6v-6h-2l-1-3-2-1c1-2 1-2 2.8-2.6l2.3-.5 2.2-.5L38 46l1 4 2-3-2-1 5.3-2 3-1.2C50 42 50 42 53 43"/><path fill="#81cd46" d="m80 56 1.8 1A21 21 0 0 0 92 59a25 25 0 0 1 10 11c.2 3.3.2 3.3 0 6h-3l1 5a38 38 0 0 1-6.6-8.4l-1.8-3L88 63h-2v-2l-1.9-.8C82 59 82 59 80 56"/><path fill="#25c6b6" d="m14 38 5 3-1 7-3 1v6l-3 1c-1.2 2-1.2 2-2 4-1-2-1-2-1-5l-3 2c-1.6-1.1-1.6-1.1-3-3 .2-3.8 1.1-6.7 3-10h5zm1 3v3Zm-2 3 1 2Z"/><path fill="#60ad35" d="M92 54c4 .6 6.2 2.6 9.2 5.3l2.7 2.3c2.2 2.6 2.8 4 3.1 7.4l-2 1c-.5 3-.5 3-.6 6.6l-.3 3.6-.1 2.8h-3c-1.5-2.6-2-3.9-2-7h3l-.9-3.8-.5-2.2c-1-3.5-2.5-5-5.6-7-2.4-3.4-3-4.7-3-9"/><path fill="#29c747" d="m90 21-1 2 6 2-1 2c-2.3.4-2.3.4-5 .6l-2.8.3-2.2.1h1.8l8 .4h3l2.6.2h2.5c2.1.4 2.1.4 4.1 2.4l-2 .2-12.8 1q-8.6.7-17.2 1.8l2-2h4l-1-2-4.2 1.4-2.4.7c-2.4.8-2.4.8-4.4 2-2.5 1-3.6.8-6-.1 8.5-4.3 16.3-8 26-9l-7-2v-2c3.4-.8 5.7-1.1 9 0"/><path fill="#25c5b9" d="M54 6c-1 3-1 3-3.1 4.1l-2.7 1-2.7 1Q42.3 13.3 39 14v2c-1.4 1.6-1.4 1.6-3 3h-2l-1 2a31 31 0 0 1-7.4 3.8C21.8 26.5 19 29.2 16 32c.9-6.1 6.5-10.2 11-14 8.2-6 16.5-12 27-12"/><path fill="#cfda48" d="M119 81c2.8 1.4 3 3.1 4.1 6l1.1 2.8.8 2.2c1.6-1.6 1.3-3.4 1.6-5.6l.2-2.5.2-1.9h1l.1 5.3.1 3C128 93 128 93 126 96c-2.1.7-2.1.7-4 1v7h-3l-1 2h-2l-2-18 3 3zm1 12 1 3 1-3z"/><path fill="#18c1b0" d="m32 21 3 1-1.7 1.3a142 142 0 0 0-16.9 15.4C15 40 15 40 13 41l-1 3H7q2-8 8-14h3c1.5-1.3 1.5-1.3 2.9-3 2.6-2.7 4.2-3.6 8.1-4z"/><path fill="#75c429" d="m95 75 3 3 1.7 1.6C101 81 101 81 101 83h3l-1-5c3 3 2.7 6.2 3.1 10.1l.3 2.3.6 5.6c-2.4-.3-2.4-.3-5-1l-4-6h-4l-2-4 5-2v-3h-2z"/><path fill="#09cee4" d="m25 48 3 1v2l3-1 1 4h2v7h-5l-1-5h-5q-3.4 6.3-6 13l-5-1 1-4h2l1-4h2q0-1.4.3-2.9L19 54l4-2c1.3-2 1.3-2 2-4"/><path fill="#9239da" d="M161 86c2 3 2 3 1.6 6.7l-1 4.5-.6 2.4c-3 12-7.6 23.2-16 32.4-1.1-3.7-.9-5.5 1-9l2-1.4c2.3-1.9 3-3.2 4-6l1-2.7c4.9-12.2 4.9-12.2 5-24.9h3z"/><path fill="#1e61d1" d="m134 74 4 .8 2.2.5 1.8.7 1 3 3-1c2.7 1.4 2.7 1.4 5 3l1-3 1 3c2 .7 2 .7 4 1v2h-3l-2 2c-3.9-1.7-3.9-1.7-5-4h-7v-3l-2-1-2 4h-10c1.2-3.7 1.7-4.8 5-7l3 1z"/><path fill="#dab64b" d="m109 91 2 1q.4 3.7.6 7.6l.1 2.1.3 5.3 4-1-1 4h-2v-2h-3c1.4 6 3 10 8 13.8 3.2 2 6.4 3 10 4.2v2c-8-.8-12.5-5-17.5-11-1.5-2-1.5-2-3.2-5.4-1-2.8-1-2.8-3.5-3.5l-1.8-.1v6h-1l-2-7h7l.4-2.4c.6-2.6.6-2.6 2.6-4.6.2-2.2.2-2.2.1-4.6v-2.5z"/><path fill="#ef7108" d="M56 151q4.5 2.3 8.9 5c6.3 4 6.3 4 13.5 4.7l2.6-.7a87 87 0 0 1 17-1l-1 3a71 71 0 0 1-15.4 1.3h-2.9c-5.4 0-9-.5-13.7-3.3l-3.2-.4c-2.8-.6-2.8-.6-4.2-2.5-.6-2.1-.6-2.1-.6-4.1z"/><path fill="#83d049" d="M48 69a47 47 0 0 1-7 3l3 .3c4.7.6 8.7 2.6 13 4.7-2 1-2 1-4 1l1 2-5-1-2.3-.4-2.5-.5-2.3-.4L40 77l-1-3-3 1v-3c7.3-3.4 7.3-3.4 12-3m-16 7 6 3v-2l7 2v1l-3.7.4c-4.7.6-7.4 2-11.3 4.6l1-2.8c1.1-3.1 1.1-3.1 1-6.2"/><path fill="#ddeb1a" d="m46 82 3.6.4c3.8.7 6.1 1.8 9.3 3.8 2.8 1 4.3.5 7.1-.2h6c-2.6 2.6-4.5 3.2-8 3.3q-4-.1-8-1.3v2h-2v-2h-2l-1 4-7-7c-2.9-.5-2.9-.5-6.1-.6l-3.3-.3L32 84l1-2c4.7-1 8.4-1 13 0"/><path fill="#79c42c" d="M49 76c5.6.4 8.2 2 12 6 .4 2.8.4 2.8 0 5l-2.3-1A52 52 0 0 0 46 83l-3.2-.6c-2.7-.4-4.3-.3-6.8.6v-3l5-1-1-2c7.4-.1 7.4-.1 11 1z"/><path fill="#8bd652" d="M54 56c9.2-.6 16.5 5.4 23.6 10.7L79 68v2a58 58 0 0 1-9.2-5.6l-2.8-2-2-1.4.6 2 .4 2-1 1q-2.2 0-4.6-.4l-2.5-.3L56 65v-3l-12-1v-1h13z"/><path fill="#0d7730" d="M106 42c7.3.3 12 3 18 7l-1 4-3-2 2 5-2-1.3c-6.5-4.1-6.5-4.1-14-5.7z"/><path fill="#ece62c" d="M80 87h2c6.8 18 6.8 18 4 25.8l-1 2.2c-2.4.2-2.4.2-5 0l-2-3h-3l-1 5-5-2v-11c2 4 2 4 2 7l2.2-1c4-1.4 6.7-1.4 10.8 0a55 55 0 0 0-4-20z"/><path fill="#dfe909" d="M55 87c10 1.3 10 1.3 13 2 2.2 3.2 2.2 4.3 2 8l-1-3h-2v4c-3 1.3-4.8 2-8 2z"/><path fill="#09722b" d="M109 33c5.3.4 8.1 1.3 12 5l1.8 1.4c1.7 2.2 1.4 4 1.2 6.6-4-.6-6.6-1.9-10-4l-2.7-1c-2.3-1-2.3-1-4.3-4h5l-4-2z"/><path fill="#bb4254" d="M145 123c1.5 4.7 0 7.7-2 12-1.7 3-2.8 4.6-6 5.8a24 24 0 0 1-13 .2v-1h6l1-4 5-1v-3h3v-2h3l1-3c1-3 1-3 2-4"/><path fill="#d95a02" d="M29 110h1l.6 3.8a86 86 0 0 0 9.8 29.1C42 146 42 146 42 149c-4-3.6-6.3-7-8.7-12l-1.7-3.5c-2.8-6.1-3.9-10.2-3.2-16.9l.3-3.7z"/><path fill="#05c141" d="m61 37 11 1v2l2.5.3Q80.3 41.6 86 44v2l3 1-2 2c-4-.1-6.7-1.3-10-3.4-5.7-3.3-11.7-4.4-18-5.6z"/><path fill="#5bab47" d="M110 49a27 27 0 0 1 15 9q1.4 5.4 1 11h-2q-1.5-2-2.8-4.3-3.6-5-7.8-9.6c-3.4-3.9-3.4-3.9-3.4-6.1"/><path fill="#15b7a7" d="M106 21c4.6 1.5 4.6 1.5 6.3 3.9q1 3 1.7 6.1h2v3c-4.4-1-7.5-2.1-11-5l-2.5-1.4A31 31 0 0 1 96 22l10 1z"/><path fill="#bfdd40" d="M106 72c4.4 3.3 7 5.3 8 11-.4 2.4-.4 2.4-1 4l-1-5h-2v-4l-2 1 2 21-2-1c-2.4-7.5-4.3-16-4-24z"/><path fill="#06c6c2" d="M45 14v2l-2 1v4h-3v2c-3 2-4.4 3-8 3v3h-4v3h-2l-1 3-1-3 1.8-2q6.4-6.8 12-14.5c2.3-3 3.9-2.5 7.2-1.5"/><path fill="#3d59cd" d="M157 55c2 1 2 1 2.8 2.8l.8 2.3.7 2.3c1.6 6 1.8 11.9 1.8 18v2.3L163 88h-4V77q.2-5.5-.6-11c-.4-3-.4-3 .6-5h-2z"/><path fill="#ecce22" d="m44 97 1 2c2.5.7 2.5.7 5 1l1-2 2 8 2-2v11h-3l-1 3-3-16-3-1-1 3-1-2-3-1-1 4v-7l5 1z"/><path fill="#05c3a8" d="M67 14.8h2.3c5.2 0 9.7.8 14.7 2.2v3l-1.6-.5A38 38 0 0 0 74 19H57q-4.5.2-9 1.1l1-3 2-.2 2.4-.2 2.5-.3c9.8-1.5 9.8-1.5 11.2-1.5"/><path fill="#10c49a" d="m35 28 2 1-1.5.8c-5 3-9.7 6-12.5 11.2-.5 2.9-.3 5 0 8l-3 1c-1.5-2.6-2-3.9-2-7l1-2-2-1c2-3 4-5 7-7l1 1 1-2h3v-2l1.9-.4C33 29 33 29 35 28"/><path fill="#1d83bd" d="M120 51c4.5 1.5 7 5 9 9a71 71 0 0 1 2 10h2v6a24 24 0 0 1-7 1l.1-2.9v-3.7l.2-3.8c-.4-4.8-2.1-8-5-11.8C120 53 120 53 120 51"/><path fill="#0674d3" d="M148 53c2 1 2 1 2.6 2.8 1.2 5.2 1.6 9.9 1.4 15.2h2q-1.3 5-3 10l-4-1 .5-2.6q.7-5.1.6-10.4v-3.6c0-3.4 0-3.4-.7-6.8L147 54z"/><path fill="#1b84e4" d="M146 54c3 4.5 3.2 7.6 3.2 12.9v3.7A18 18 0 0 1 147 79c-2.6.8-2.6.8-5 1l1-3.2q1.5-7 1.8-14.3c.2-2.5.2-2.5 1.2-4.5z"/><path fill="#1e6cc5" d="M144 32c4.4 1.5 6 4.8 8.1 8.7l1 1.8c2.8 4.8 5.2 9.8 4.5 15.4L157 60c-1.9-2.9-3-5.4-4.2-8.6q-3.1-7.5-7.7-14.3C144 35 144 35 144 32"/><path fill="#04b130" d="M86 32h9l1.3 2.9c1.5 3.3 1.5 3.3 4.7 5.1-7.5 1.7-7.5 1.7-11.2 0-1.9-1.4-1.9-1.4-4.8-4z"/><path fill="#b658d7" d="m128 90 2 1v5l-5 1-1 11h2v2l-4-1v7l-5-4 1-2 2 2-.6-3.4-.4-3.6 2-2 1-7h4z"/><path fill="#eaef3c" d="M89 88h2a101 101 0 0 1 3 34l-2-1-.1-3.4c-.4-10.6-.4-10.6-3.3-20.7-1-3.2-.3-5.7.4-8.9m0 3 1 2Zm1 3 1 2Zm1 4 1 2Z"/><path fill="#06cda6" d="M64 36c8.8-.5 16.3 1.7 24 6v2h2v2h2v2q-3.2-.6-6-2v-2l-2-.3q-6-1.5-12-3.7v-2h-9z"/><path fill="#63b164" d="M125 60c2.5 3.7 2.2 5.6 2 10l-.6 2.6c-.5 2.8 0 4.7.6 7.4-1.8-.6-1.8-.6-4-2q-3.2-6.6-5-14l-1-3c3.4 1.4 5 3 7 6v2h2zm-1 11 1 2Z"/><path fill="#0aaa44" d="M96 32c3.8.5 6 1.5 9 4l-1-3h4l1 2 4 2c-2 1-2 1-5 1l1 2c-9.4.3-9.4.3-12-2-.7-3.1-.7-3.1-1-6"/><path fill="#0c7ec4" d="M117 10c3.9.6 6.5 1.7 9.7 3.9l2.3 1.5c2 1.6 2 1.6 4 4.6l-6-2 1 3-2 1 2 5q-3.2-.6-6-2v-3l-3-1 6-2-3-3 1-1-6-3z"/><path fill="#f6c91c" d="M77 116c3.3 1.6 3.6 5.2 4.8 8.5 2.3 6.5 5 12 9.2 17.5l2 3c-8.4-3.8-12.8-12.7-16-21a28 28 0 0 1 0-8"/><path fill="#dc5f0b" d="m98 108 3 1 1 7h2l1 6h-2v2h-2c-2.8-3.3-4.3-5.9-4.3-10.2.3-3.8.3-3.8 1.3-5.8m1 14 1 2h-2l-1 2v-3z"/><path fill="#f5e711" d="M4 95c1.5 1 1.5 1 3 3 .2 3 .2 3-.1 6.5l-.3 3.5c-.6 3-1.1 4.1-3.6 6-3.5-8.2-3.5-8.2-2.3-12.7Q2 98.1 4 95"/><path fill="#7ecc3f" d="M84 68c3.4 3.1 5.6 5.6 7 10h-3c-1.2 3-1.2 3-1 6h-2l-2-5h-2l-1-4 2-1-3-4 4 1zm1 10 1 2Z"/><path fill="#0774d2" d="M132 55c3.6 3.6 3.2 7.2 3.2 12v3.8C135 74 135 74 133 76c-1.1-3.7-1.1-3.7 0-6h-2l-1 4-1-6.7-.6-3.8C128 60 128 60 128 56c2.7 2.7 3 5.4 4 9z"/><path fill="#08bf47" d="M38 46v10h2v4l-1.9-.6c-2.1-.6-2.1-.6-4.1.6v-6h-2l-1-3-2-1c1-2 1-2 4-3.1 3-.9 3-.9 5-.9"/><path fill="#d95202" d="M85 147q4.9 1.9 9.3 4.6c6.9 3.5 14.2 3.3 21.7 3.4-3.9 2.6-5.6 1.8-10 1v2h-3v-2l-2.9.3c-5 0-10-1.5-14.1-4.3-.8-2.6-.8-2.6-1-5"/><path fill="#68d050" d="M56 46h2l-1 4 2.4-1.5C62 47 62 47 64 47v2.4c-.2 2.6-.2 2.6 1 4.6l-1 3 3.4-2c3.3-2 3.3-2 5.6-2v2a22 22 0 0 1-9 4l-2-7-10 1v-3l4-2z"/><path fill="#fbce2d" d="m26 118 2 1 1.9 6.6c1.1 4.3 2.3 8.2 4.4 12.2L36 141l-1 2-5-5v-2h-3z"/><path fill="#f9ce2e" d="m45 149 3.9 2.9 2.2 1.6C53 155 53 155 55 157l6 1.5q3.6 1 7 2.5v1a55 55 0 0 1-23-6l-1-2h3z"/><path fill="#04c637" d="M55 21v2l-2.3.7Q48.2 25 44 27c-1.8 3-1.8 3-2 6l-5-1 1-5h2l1-4 3.3-.4c3.5-.5 3.5-.5 6-1.2C52 21 52 21 55 21"/><path fill="#0dbeac" d="m32 21 3 1-1.7 1.3q-6.6 5-12.8 10.6C19 35 19 35 16 35c.8-5 4.1-7.9 8-11 2.8-.8 2.8-.8 5-1z"/><path fill="#e0e411" d="M88 96c2 1 2 1 3.1 3.7 1.6 6 1 12.2.9 18.3-2-3-2.5-4.6-3-8h-2l-.1-9.2C87 98 87 98 88 96"/><path fill="#0ece82" d="M51 40c12.9-.5 21.8 2 33 8v2q-5.8-2-11.4-4.6A57 57 0 0 0 50 42z"/><path fill="#f7e32a" d="M34 146c5.3.3 8.3 1.3 12 5l1 3c-2.4.8-3.6 1.1-6 .4l-2.1-1-2.1-1.1c-2.1-1.5-2.8-3-3.8-5.3z"/><path fill="#b243c7" d="M127 128h2v5h6l1 2-2.4.8-2.6 1.2-1 3h-6l.4-4.9.2-2.7c.4-2.4.4-2.4 2.4-4.4"/><path fill="#7cc31f" d="M92 85h4v2l2.2-.1c3 .1 5 .9 7.8 2.1l1 7c-2.2-.1-2.2-.1-5-1l-4-6h-4z"/><path fill="#e96b37" d="m123 138 1 3c4.2 0 8 0 12-1-1.4 3.4-3 5.1-6 7.3l-2.1 1.5C126 150 126 150 124 150l1-1.8c1.2-2.3 1.2-2.3 1-5.2l-6-2z"/><path fill="#cf5b02" d="M76 121a86 86 0 0 1 6.8 12.2A10 10 0 0 1 84 139h-3c-6-10.3-6-10.3-7-15z"/><path fill="#1acf54" d="m67 22 5.1.6 2.8.2 2.1.2c-1 2-1 2-3.4 3.2C71 27 71 27 68 26h2v-2c-8.7.6-8.7.6-17 3l3-4-1-2c4.7-1 7.7-1.2 12 1"/><path fill="#0bc7c0" d="m71 10 1 2 6.6 2.1 3.6 1.1 2.8.8c-3 1-4.5 1-7.7.7l-2.7-.3-2.8-.3-2.8-.3-7-.8 3-2h-5v-2q5.4-1.1 11-1"/><path fill="#edf135" d="M40 84c5.3.7 7.2 2.7 10.5 6.7 4.5 7 3.7 15.3 3.5 23.3h-1l-1.5-7.8-.4-2.2q-1-4.5-1.1-9l-1.9-1.4c-2.6-2-3-3.6-4.1-6.6-2-1.8-2-1.8-4-3"/><path fill="#0e74d5" d="m155 67 2 3h3v10c-4 2-4 2-8 2l1-4h1z"/><path fill="#4ba953" d="M121.5 45.2 124 47l-1 2-2.4-1.3-3.3-1.7-3.2-1.7c-3-1.3-4.8-1.7-8.1-1.3-1.8 1.4-1.8 1.4-3 3l-5-5c8.5-2.8 16.3-.6 23.5 4.2"/><path fill="#c35f25" d="m111 129 15 5c-1.7 3.9-1.7 3.9-4 5l-4.1-1.4-3.9-1.6 1-3z"/><path fill="#e7c91c" d="m94 108 4 1v12h-2l1 8a10 10 0 0 1-4-7q0-3.6.4-7.2l.3-3.9z"/><path fill="#28c03e" d="M96.6 28.7h2.1c5 0 5 0 7.3 2.3l-2 .2-12.8 1q-8.6.7-17.2 1.8c5.4-5.4 15.3-5.3 22.6-5.3"/><path fill="#ed5d0b" d="m20 115 3 1v2h3l1.7 9.9c.3 3.1.3 3.1-.7 6.1a42 42 0 0 1-7-19"/><path fill="#c5d71c" d="m102 95 6 1 1 7h-2l-1 4h-7l2-1c2.2-1.8 2.2-1.8 2-4.2q-.3-3.4-1-6.8"/><path fill="#127dcd" d="M116 31c2.3-.3 2.3-.3 5 0a37 37 0 0 1 4 5l2 1v2l-5 2c-3.5-3.2-5.6-5.2-6-10"/><path fill="#f66814" d="M43 143c3.4 1.4 5 3 7 6l2-4c3.3 3 5.2 6 7 10-7-1-10.5-4.3-14.9-9.5C43 144 43 144 43 143"/><path fill="#bb50f4" d="m124 103 2.2 2c4.9 3.4 11.1 2.3 16.8 2l-1 2c-3 .4-3 .4-6.6.6l-3.6.3-2.8.1-1 3 3 1-2 1c-5.9-3.7-5.9-3.7-7-6l4 1v-2h-2z"/><path fill="#1f84e4" d="m152 55 1 3-1 2h2c1.2 3.7 1.2 7.3 1.2 11.1V75C155 78 155 78 153 80c-.8-3-1.2-4.5 0-7.3l1-1.7h-2l-1-15z"/><path fill="#095cc4" d="M126 17c7.2 1.7 13 4.5 17 11-.2 2.3-.2 2.3-1 4l-.7-1.9c-1.5-2.5-2.7-3-5.3-4.1-1.7-1.5-1.7-1.5-3-3v-2l-1.8-.3A10 10 0 0 1 126 17"/><path fill="#dd9e4c" d="M105 113q4.2 4.1 8 8.6c3.7 4.4 7.7 6.4 13 8.4-2.4.9-3.6 1.1-6.1.3A36 36 0 0 1 106 118c-.7-2.7-.7-2.7-1-5"/><path fill="#cbe70d" d="M59 86.2c2.7 1 4.2.5 7-.2h6c-2.6 2.6-4.5 3.2-8 3.3q-4-.1-8-1.3v2h-2l-.2-1.9c-.6-2.3-.6-2.3-2.9-3.3L49 84c4.3-1.5 6.2 0 10 2.2"/><path fill="#9b320f" d="m111 125 15 6v3a27 27 0 0 1-16-6z"/><path fill="#94340f" d="M107 112q3 2.8 5.5 6c4.2 5.2 8.1 7.8 14.5 10v1c-4.2.6-6.6 0-10-2.5q-6.1-4.8-10-11.5z"/><path fill="#9339c9" d="M153 112h2l-1 2.1c-1.1 2.8-1.1 2.8-1.2 5.7-1.2 5-4.5 8.3-7.8 12.2-1.1-3.7-.9-5.5 1-9l2-1.3c3-2.6 3.8-6 5-9.7"/><path fill="#0c79d4" d="M124 41h2l4 8h-2l-1 7-3-2c-1-4.7-1.3-8.4 0-13"/><path fill="#0e7b69" d="m110 42 4.8 1.8 2.6 1q3.6 1.7 6.6 4.2l-1 4c-5.3-1.5-9.3-5-13-9z"/><path fill="#0fc8ae" d="m47 21-3 1.3c-3.3 1.4-3.3 1.4-4 4.7-2 1.2-2 1.2-4.4 2.3l-2.5 1C31 31 31 31 29 30l-1 2v-3h4v-3c2.9-2.1 4.4-3 8-3v-2c3-1 3.9-1 7 0"/><path fill="#f16b11" d="M74 118h1l-.1 3.2c0 3.6.7 5.6 2.1 8.8l-1 3-3-4-3 1-1-7 2 1 1-2.4c1-2.6 1-2.6 2-3.6"/><path fill="#06c5c9" d="m18 45 3 4h2l1-3c2-.7 2-.7 4-1v2l2 1v3c-2 0-2 0-3.6-1.5L25 48l-.8 2.4L23 53l-3 1-2 2z"/><path fill="#0684aa" d="m118 12 7 3v3l1 2-2.9.4c-3 .4-3 .4-5.1 1.6l-2-4 2-2z"/><path fill="#ef7912" d="M56 151q5 2.5 9.8 5.6l3 2L71 160l-3 2c-2.4-.8-2.4-.8-5-2l-2.2-.4c-1.8-.6-1.8-.6-3-2.5-.8-2.1-.8-2.1-.8-4.1z"/><path fill="#07a097" d="M90 10c8 .9 15 1.6 22 6l1 2-10-1 1-2-2.3-.4-3-.5-3-.6C93 13 93 13 90 12z"/><path fill="#a83762" d="m120 115 1.8 2c2.2 2 3.3 2.6 6.2 3v6l-6-1a26 26 0 0 1-2-10"/><path fill="#2365d8" d="m145 78 6 3 1-3 1 3c2 .7 2 .7 4 1v2h-3l-2 2c-3.9-1.7-3.9-1.7-5-4h-4v-3z"/><path fill="#13cfd8" d="m30 50 2 1v3h2v7h-5l-2-8h2z"/><path fill="#d85800" d="M63 144h2l3.6 4 2 2.3L72 152c-3 .8-5 1.4-8 0-1.7-2.6-1.7-2.6-3-5z"/><path fill="#0dc02d" d="M80 30v2l-4 1h5l-1 2H66c9-6.7 9-6.7 14-5"/><path fill="#139ea1" d="M107.5 20.3c3.5.7 3.5.7 6.5 2.7l5 1-2 1v2l3 1-2 2c-3-1.6-5-3-7.4-5.7s-2.5-2.7-6.4-2.6l-3.2.3c3-2 3-2 6.5-1.7"/><path fill="#00798d" d="M103 17h8l-1 2 11 5-1 3h-3v-2l-1.7-.8L103 18z"/><path fill="#27cabc" d="m26 19 4 4-3 1.1A37 37 0 0 0 16 32c.5-4.1 2.6-6 5.6-8.7l2.5-2.5z"/><path fill="#24c7ba" d="M54 6c-1 3-1 3-2.9 4-7.8 2.5-7.8 2.5-12.1 1 4.2-3.8 9.4-5 15-5"/><path fill="#e87a1d" d="M35 90c3.4 5.2 4.2 8.8 4 15l-1-4h-2l-1 5h-1v-4.3l-.1-2.4C34 97 34 97 35 94z"/><path fill="#dee90a" d="M43 89h3l.9 2c1 2.2 1 2.2 3.1 3v6l-4-1v-3h-2z"/><path fill="#71b93a" d="M102 58c4 3.7 7 7.5 10 12l-1 2-2-1-3 3c-.9-2.6-1-3.8-.2-6.4.5-2.6.5-2.6-.8-4.3l-4-4.3z"/><path fill="#5fad24" d="M103 70h2l-1 13h-3c-1.5-2.6-2-3.9-2-7h3z"/><path fill="#21d257" d="M58.8 35H64v2c-2.3 1.7-2.3 1.7-5 3l-3-1 1-1c-3.6-.2-3.6-.2-7 1l-2-1v-2c3.7-.9 7-1.1 10.8-1"/><path fill="#17c12e" d="M63 49c6.8 1.8 6.8 1.8 9 4-4.6 4-4.6 4-8 4z"/><path fill="#0b62c3" d="m149 41 3 3 2 1.8c2.6 2.9 3.3 5.4 4 9.2-.4 3-.4 3-1 5a49 49 0 0 1-5.9-12 45 45 0 0 1-2.1-7"/><path fill="#0ea631" d="M90 31h19v3h-4v2l-1.6-1a29 29 0 0 0-8.4-2l-5-1z"/><path fill="#f4630d" d="M69 154c4.5-.2 7.8.4 12 2v4l-2-1a25 25 0 0 0-10-1z"/><path fill="#fccf34" d="M19 116h2l-1 6 2 1a13 13 0 0 1 3.6 6.6l.8 2.5.6 1.9-3-1c-1.2-2.6-1.2-2.6-2-5h-4v-2h2l-1-3z"/><path fill="#1481e2" d="M131 41c4 0 4 0 5.5 1.4 3.5 5 3.5 5 3.3 8.5L139 53c-2.7-3.2-4.6-6-6-10h-2z"/><path fill="#f35709" d="M76 148c4.3.5 6.2 1.7 9 5-3 1-3 1-6 1l-5-3z"/><path fill="#e2eb27" d="M95 96c2.5 2.3 2.5 2.3 5 5v3l2 1 1-3 1 3c-1 1-1 1-3.6 1H98l-1 3c-2.3-8.4-2.3-8.4-2-13"/><path fill="#2689da" d="m129 66 2 4h2v6a24 24 0 0 1-7 1l1-6h2z"/><path fill="#3bcfc3" d="m14 38 2 3-4 6h-2l-2 2-1-2-2 4c-1-3-1-3 0-5.2L6 44h5z"/><path fill="#0eb5ae" d="M77 0h6.6l3.8-.1Q92.2 0 97 1c-3.1 2-3.5 2.2-7 2l-2.3-.2-2.4-.2-2.4-.1L77 2z"/><path fill="#e6ed20" d="m41 91 3 1v4h2l-1 3c-4.5.4-4.5.4-6.8-1.2C37 96 37 96 37 92h2l1 4h2z"/><path fill="#b39d6c" d="M127 82h1l.1 5.3.1 3C128 93 128 93 126 96c-2.1.7-2.1.7-4 1v3h-2c.9-5.7.9-5.7 2-8l4-1z"/><path fill="#91d24e" d="M57 78c3.4 1.5 5.4 3.4 8 6l3 1-1-5 3 3-1 3-8 1-.9-2.8c-1-3.3-1-3.3-3.1-6.2"/><path fill="#80c50e" d="M50 80v2l2.7-.2C56.3 82 58 83 61 85l-1 2-2-1.5c-3-1.8-3-1.8-6.6-1.5-3.7 0-4.8-.5-7.4-3 2-1 2-1 6-1"/><path fill="#19caba" d="M10 62c1 2 1 2 .2 4.8l-1.1 3.3-1.2 3.3L7 76l-2-2c.4-3 1.7-5.5 3-8.2l1.2-2.2zM3 72l2 1v8H3z"/><path fill="#58cf3c" d="M62 47h2v2.4c-.2 2.6-.2 2.6 1 4.6l-1 3 3.4-2c3.3-2 3.3-2 5.6-2v2a22 22 0 0 1-9 4c-1.5-3.4-2-5.2-2-9l-2-1z"/><path fill="#0476a8" d="m121 24 6 3-1 3h-3v2l-5-1z"/><path fill="#00a998" d="M72 11c10.6-.2 10.6-.2 15 1l-1 3-14-2z"/><path fill="#c9e453" d="M106 83c3.7 3.7 4 9.5 4.1 14.6l-.1 2.4c-2-1-2-1-3.1-4-1.2-4.3-1-8.6-.9-13"/><path fill="#25c747" d="m30 32 3 1-3.8 5-2.2 2.8-2 2.2h-3c1.5-4.7 1.5-4.7 4-6l2-1c1.3-2 1.3-2 2-4"/><path fill="#30b39f" d="M109 24c3.8 2.5 3.8 2.5 4.8 5.2l.2 1.8h2v3l-7-2 1-4h-2z"/><path fill="#02c077" d="M49 17h25v1h-1.7l-8 .4-2.7.2q-6.8.2-13.6 1.4z"/><path fill="#1dc7bc" d="M77 0v2L64 3v2l-4-1-1-2a67 67 0 0 1 18-2"/><path fill="#eedb0f" d="M76 109q5-.2 10 1l-1 5h-5l-.9-2.4c-.8-2.7-.8-2.7-3.1-3.6"/><path fill="#19bf45" d="M53.6 46H56v2c-1.7 1.7-1.7 1.7-4 3.6l-2.2 2L48 55l-1-3c3.1-6 3.1-6 6.6-6"/><path fill="#0ac863" d="M55 21v2l-14 4-1-3 2-.4c3.1-.6 3.1-.6 6.6-1.7C52 21 52 21 55 21"/><path fill="#1fa2d4" d="M117 10c3.9.6 6.5 1.7 9.7 3.9l2.3 1.5c2 1.6 2 1.6 4 4.6q-5.2-2-10-5l-6-3z"/><path fill="#f9b737" d="M82 130h2l1 2c2.3 4.8 4.4 9 8 13-4.5-2-7.3-5-10-9-.9-3.4-.9-3.4-1-6"/><path fill="#a33404" d="M106 128c4.8.4 6.8 2.5 10 6-2.2.8-2.2.8-5 1-2.8-2.3-2.8-2.3-5-5z"/><path fill="#e75308" d="M85 147c3.4 1.2 6.3 2.6 9 5v2c-5.5-.6-5.5-.6-7.9-2.4C85 150 85 150 85 147"/><path fill="#f8ea32" d="M4 113h4l2 9H7c-3-5.6-3-5.6-3-9"/><path fill="#ad4863" d="m102 108 5 1 1 3-2 2-2-1v3h-2z"/><path fill="#cce71b" d="m89 85 8 4 2-1 2 5q-5-1.4-10-3v-2h-2z"/><path fill="#a9c639" d="M119 81c2 1 2 1 2.9 3.3l.7 2.8.8 2.7.6 2.2-4 1q-1-6-1-12"/><path fill="#619e1c" d="M121 82h4c1.2 3.5 1.2 6.3 1 10l-2 2-1.5-4.3-.8-2.4C121 85 121 85 121 82"/><path fill="#5ba633" d="M122 78c2 .3 2 .3 4 1a20 20 0 0 1 1 7.7V91h-1l-1-6h-2v-3h-2z"/><path fill="#8fd347" d="m32 76 1.7 1c2.5 1 4.4 1.4 7 1.6l2.5.3 1.8.1v1l-3.7.4c-4.7.6-7.4 2-11.3 4.6l1-2.8c1.1-3.1 1.1-3.1 1-6.2"/><path fill="#26c9ba" d="m15 32 2 2 2-1c-.4 2.4-.9 3.9-2.3 5.8-1.7 1.2-1.7 1.2-3.9.9L11 39z"/><path fill="#18c4b3" d="m32.6 16.3 2.4.7 1 2h-2l-1 2-4 1-2-4c3-2 3-2 5.6-1.7"/><path fill="#00a998" d="M73 7c6-.2 11.2.5 17 2v1a88 88 0 0 1-17-1z"/><path fill="#ed6c24" d="m102 156 1 2h3v-2l4 1c-4.3 2.8-6.8 4.3-12 4 1.8-3.9 1.8-3.9 4-5"/><path fill="#a739ca" d="m143 124 1 3-2 3h-3v2l-3-1 1-2-2-1z"/><path fill="#9c343a" d="M145 123c1 3.2 1 5-.2 8.2l-.8 2c-1 1.8-1 1.8-4 2.8.6-4.9 2.7-8.7 5-13"/><path fill="#a5432c" d="M108 121c2 1.8 2 1.8 4 4-.2 2.3-.2 2.3-1 4l-5-1v-5h2z"/><path fill="#3fd459" d="m65 21-3 1v2l-9 3 3-4-1-2c3.7-.7 6.4-1.2 10 0"/><path fill="#11c9cd" d="M45 14v2l-4.4 2.6-2.4 1.4-2.2 1-2-1c6-7.5 6-7.5 11-6"/><path fill="#dee70f" d="m70 97 2 1c.6 2.7.6 2.7 1.1 6l.5 3.4.4 2.6-3 1a85 85 0 0 1-1-14"/><path fill="#83c514" d="M92 85h4v2h5l1 6-1.7-2C98 88.6 98 88.6 94 89z"/><path fill="#8956f1" d="m147 81 1 3c1.9 1 1.9 1 4 1 1.8-1.4 1.8-1.4 3-3v2l2 1h-3v2h-8v-3l-3-2z"/><path fill="#03c131" d="m68.8 18.9 6.2.1-1 2 2 2h-9l-1-3c1-1 1-1 2.8-1.1"/><path fill="#2bcec1" d="m13 50 2 1-1 5h-2l-2 4c-1.5-3-1-5.7-1-9l3 1z"/><path fill="#1dd2ae" d="m82 41 6 1v2h2v2h2v2q-3.2-.6-6-2v-2l-4-1z"/><path fill="#04c54c" d="M64 35h16v2c-5.7 1.5-10.4.3-16-1z"/><path fill="#18cbc0" d="M100 24c3.4.5 5 1 8 3 1.2 2.1 1.2 2.1 2 4a45 45 0 0 1-10-5z"/><path fill="#0caa35" d="M78 23c7.4-.3 7.4-.3 11 2v1l-10 1z"/><path fill="#19bbc9" d="m99 2 8.2 2.1q3.6 1.2 6.8 2.9v2l-8.2-2A15 15 0 0 1 99 2"/><path fill="#f0dd13" d="M12 127h2l.9 2c1 2.2 1 2.2 3.1 3v-2h2l1 6c-3.1-.3-4-1-6.2-3.4C13 130 13 130 12 127"/><path fill="#fada25" d="M15 102c2.4 2.4 2.3 3.3 2.6 6.6l.3 2.5.1 1.9-4 1z"/><path fill="#bbd42e" d="M113 80c4 4.8 4 4.8 4 7l2 1-1 8h-1l-2-6.3-1.1-3.6C113 83 113 83 113 80"/><path fill="#54d44f" d="m53 42 2 1-1.3 1.2-1.6 1.6-1.7 1.6C48.8 49 48.8 49 48 52c-2 .7-2 .7-4 1 1.4-5.3 4.9-7.8 9-11"/><path fill="#07c0b2" d="m49 15-1 5-5 1-1-4c2.6-1.5 3.9-2 7-2"/><path fill="#f18016" d="M57 110h2l.4 3.3c.5 3.6.5 3.6 1.6 6.7l-2 4a37 37 0 0 1-2-14"/><path fill="#f7c837" d="m44 97 1 2 3 1-2 1-2 3-1-2-3-1-1 4v-7l5 1z"/><path fill="#75c13a" d="m96 68 1 2h2c2.1 2.1 2.4 3.1 3 6l-4 1a14 14 0 0 1-2-9"/><path fill="#7fcf44" d="m57 58 5 1c-2.2 2.2-3 2.5-6 3q-3.1 0-6.2-.4l-3.3-.3L44 61v-1h13z"/><path fill="#30cc76" d="m34 53 2 1h2v2h2v4l-1.9-.6c-2.1-.6-2.1-.6-4.1.6z"/><path fill="#06a4b0" d="m114 7 5 2-2 1 2 7-3-1v-4l-3-1z"/><path fill="#d85f01" d="m89 155 11 2-1 2H89z"/><path fill="#e26512" d="m97 129 5 4 2-2 2 3c-2.2 1.2-2.2 1.2-5 2-2.8-1.4-2.8-1.4-5-3z"/><path fill="#d96b02" d="M25 120c2.7 2.7 2.4 4.4 2.6 8.1l.3 3.3.1 2.6c-2-2-2-2-4-5q0-4.5 1-9"/><path fill="#e15222" d="m101 114 1 2h2l1 6h-2v2h-2z"/><path fill="#c6757b" d="M120 103c2.2 3.3 2.2 4.3 2.1 8.2v2.7l-.1 2.1-5-4 1-2 2 2-.6-3.4c-.4-3.6-.4-3.6.6-5.6"/><path fill="#c9e721" d="m76 83 7 3v-2l3 1v2H73l1-3z"/><path fill="#75c734" d="M57 52h5l1 6-7-3z"/><path fill="#53a843" d="m106.2 45 1.8 1-2 3h2v2h-3l-4-4v-2c3-1 3-1 5.2 0"/><path fill="#12bf36" d="m53 43-3 1-1 3-6 1c2.4-4.8 2.4-4.8 5-5.9 2-.1 2-.1 5 .9"/><path fill="#0574c4" d="M116 31c2.4.8 2.4.8 5 2 .8 2.1.8 2.1 1 4l-5-1z"/><path fill="#bc3c25" d="m136 136 3 1c-5.4 4.7-5.4 4.7-9 5l-6-1v-1l10-1v-2z"/><path fill="#a13317" d="M118 115c2.6 1.3 3 2.4 4 5v4l-5-2z"/><path fill="#e05102" d="M74 112h2v7l-3 1c-1.2 2-1.2 2-2 4v-7h3z"/><path fill="#9a41e1" d="M155 108h3l-1.3 4.3-.8 2.4c-1 2.4-2 3.6-3.9 5.3q1.1-6 3-12"/><path fill="#f2cf1a" d="m94 108 4 1v11h-2z"/><path fill="#e1ea26" d="M80 98c2.2 3.2 2.2 4.3 2 8h2l1-2v6h-2v-2h-2z"/><path fill="#d1e830" d="M67.3 86H72c-4.2 3.6-6.6 3.4-12 3l-2-2c3.2-1 6-1.1 9.3-1"/><path fill="#1f4fc1" d="M161 74h1c.2 5.2 0 9-2 14h-1c-.2-5.2 0-9 2-14"/><path fill="#7dc35d" d="M117 61c3.3 1.4 5.2 2.8 7 6l-1 3c-3-2.8-4.7-5-6-9"/><path fill="#09763e" d="m112 45 3.3 2.8 1.9 1.6L122 54l-1 2c-8-6.2-8-6.2-9-11"/><path fill="#d05400" d="M104 134h2v2l3 1c-1 3-1 3-3 4.2l-2 .8z"/><path fill="#f17315" d="M47 130c2 .7 2 .7 4 2 .9 2.4.9 2.4 1 5l-2 3-4-9z"/><path fill="#ed5806" d="m42 116 1 2-5 6h-2c.2-2.3.2-2.3 1-5 2.6-1.8 2.6-1.8 5-3"/><path fill="#cfea2e" d="M46 82a15 15 0 0 1-9.2 2.1H34l-2-.1 1-2c4.6-1 8.4-1 13 0"/><path fill="#0dccd6" d="m16 60 2 1-1 8-5-1 1-4h2z"/><path fill="#edb416" d="m98 159-1 3h-9c1-2 1-2 2.8-2.6q3.5-.6 7.2-.4"/><path fill="#d56d01" d="m75 111 4 1c0 3.9-1.4 6.5-3 10-1.3-3.8-1-7-1-11"/><path fill="#037141" d="M116 45c3 1.1 5.3 2.2 8 4l-1 4c-5.9-4.6-5.9-4.6-7-8"/><path fill="#08c127" d="m57.7 41.8 2.3.2v3l-8 1c2.3-4 2.3-4 5.7-4.2"/><path fill="#02c432" d="M65 39h6v2h5v3l-8-2v-2z"/><path fill="#27cdbe" d="M16 41h3l-1 7-3 1c-.6-2.3-.6-2.3-1-5z"/><path fill="#0175ab" d="M117 17c1.8 0 1.8 0 4 .3l2.2.3 1.8.4 1 2-2.9.4c-3 .4-3 .4-5.1 1.6l-2-4z"/><path fill="#ac38a8" d="M129 128v5l3 1-6 1-1-6c2-1 2-1 4-1"/><path fill="#9047e1" d="M161 86c2 3 2 3 1.6 5.7L162 94h-3l-1-6h3z"/><path fill="#5eac41" d="m119 61 6 1 1 7h-2a59 59 0 0 1-5-8"/><path fill="#50ab3d" d="M110 49c3.8 1 6.5 2 9 5-3.4-.2-3.4-.2-7-1-1.4-2-1.4-2-2-4"/><path fill="#137d54" d="M118 37c3 1 4.1 1.5 6 4 .2 2.7.2 2.7 0 5l-4-1 2-2-3-2c-.7-2.1-.7-2.1-1-4"/><path fill="#3cad46" d="M104 33h4l1 2 4 2c-3.3 1.6-6.4.5-10 0l2-1z"/><path fill="#09b8ac" d="M66 2c3.3 0 3.3 0 7.1.4l4 .3L80 3v1l-6 .7c-2.2.3-2.2.3-5 1.3V4h-5z"/><path fill="#0fbfb1" d="M61 3c-3 2-3 2-5 2v2h-9c4.5-3 8.6-4.3 14-4"/><path fill="#de5004" d="M99 114h2v8c-1.6-1.7-1.6-1.7-3-4 .3-2.2.3-2.2 1-4m0 8 1 2h-2l-1 2v-3z"/><path fill="#77c634" d="m88 77 3 1c.7 2 .7 2 1 4h-4l-1-4z"/><path fill="#08ce80" d="M38 46v2l-2.4.8c-2.8 1-2.8 1-3.4 3.3L32 54l-1-3-2-1c1-2 1-2 4-3.1 3-.9 3-.9 5-.9"/><path fill="#3cd0c7" d="m21 24 3 1-7 7-1-3z"/><path fill="#f8871a" d="M61 155q5.3 2 10 5l-3 2-3-2v-2l-4-2z"/><path fill="#df6409" d="m106 134 5 2v5l-3 1-2-2h2v-3l-2-1z"/><path fill="#f16119" d="m27 90 1 2c-1 3-1 3-4 5l-2 3q.6-4.6 2-9z"/><path fill="#02bf3c" d="m55.2 36.8 2.8.2-2 3c-3.6.7-3.6.7-7 1 1.8-3.2 2.4-4 6.2-4.2"/><path fill="#0faa9f" d="m99 13 8 2c-2.8 1.8-3.9 2-7.2 1.6L97 16z"/><path fill="#2bd0c3" d="M48 8v3l-8 1-1-2 2.8-.4C45 9 45 9 48 8"/><path fill="#f2733b" d="m122 147 2 4c-3.7 3-3.7 3-6 3l1-4h2z"/><path fill="#f1d21a" d="M29 127c2 3 2.5 4.6 3 8l-4-1z"/><path fill="#aa352f" d="M126 120h2v6h-4q.6-3.2 2-6"/><path fill="#ced322" d="M106 101v6h-7l2-1.4 2-1.6v-2c2-1 2-1 3-1"/><path fill="#453bd6" d="M135 78h3l-2 4h-8v-1l3-1c2.8-.7 2.8-.7 4-2"/><path fill="#7dc95a" d="M102 58c3.4 3.1 5.6 5.6 7 10q-4.4-4.2-8-9z"/><path fill="#1cc032" d="M74 49h8l1 2-4 2-1-3-4 1z"/><path fill="#06c550" d="m76 41 10 3v1c-3.7.2-4.8.2-8-2v2h-2z"/><path fill="#128035" d="m114 35 4 1 1 4-6-1z"/><path fill="#e05408" d="m43 129 3 1-2 5-5-2z"/><path fill="#f9e82a" d="m11 120 4 4-1 3h-3z"/><path fill="#d3c94c" d="M118 98h2v2h2l-1 4h-3z"/><path fill="#e4e804" d="m91 90 4 1v4l-4-2z"/><path fill="#0ecdbc" d="M28 45v2l2 1v3h-2l-1-2-4-2c3-2 3-2 5-2"/><path fill="#03c32d" d="m35 32 3 4-2 1-2-1v2h-2c.6-2.9.9-3.9 3-6"/><path fill="#0975c8" d="m127 28 2 2-2 2h-2l-2 2-1-5c2.4-.6 2.4-.6 5-1"/><path fill="#0e65bc" d="M126 17c4.3 1 7.6 2 11 5l-2 1c-2-.7-2-.7-4-1.8l-2.2-1C127 19 127 19 126 17"/><path fill="#a037ed" d="m134 127 2 1v4h-3l-1-4z"/><path fill="#8e311b" d="M119 103q1.3 5 2 10l-3-2c-.2-3.6-.2-3.6 0-7z"/><path fill="#d3e137" d="M114 88c1.5 1.1 1.5 1.1 3 3 .2 3.2.2 3.2 0 6l-2-1q-.7-4-1-8"/><path fill="#85d34f" d="M89 58c4.6 1.5 4.6 1.5 6.4 4 .6 2 .6 2-.4 4z"/><path fill="#83d448" d="M49.7 55.9H52l1.9.1v1c-8 2.3-8 2.3-12 1 3.2-2.1 4-2.2 7.7-2.1"/><path fill="#107abb" d="M124 41h2l2 4-3 1-1 2c-1.3-2.7-.7-4.2 0-7"/><path fill="#067638" d="M116 40c3 .6 4.4 1.3 7 3l-1 2c-1.9-.2-1.9-.2-4-1-1.2-2-1.2-2-2-4"/><path fill="#07be52" d="m23 43 6 1-1 3v-2l-6 3z"/><path fill="#3da765" d="m110 30 6 1v3l-7-2z"/><path fill="#10c12c" d="m68 27 4 2c-4.7 4-4.7 4-7 4v-2h2z"/><path fill="#02c38b" d="M49 17h7c-3 2.6-3.7 3-8 3z"/><path fill="#f6e518" d="M18 81h1v15h-1z"/><path fill="#ee4813" d="M19 96h2v8c-2-2-2-2-2.1-5.1z"/><path fill="#39d2c7" d="m20 22 2 1-7 6c1.6-3.2 2.5-4.7 5-7"/><path fill="#14c4b3" d="M1 72h1v9H1z"/><path fill="#65be5e" d="m37 61 2 1-1 3-2-1z"/><path fill="#e7663e" d="M97 162h6v1h-6z"/><path fill="#9033d6" d="M162 95h1v5h-1z"/><path fill="#f2e913" d="M6 91h1v5H6z"/><path fill="#f7d632" d="m58 162 4 1Z"/><path fill="#7937cc" d="M149 127v3Z"/><path fill="#9247c8" d="m161 100 1 4Z"/><path fill="#f3e61f" d="m1 96 1 4Z"/><path fill="#e44917" d="m29 88 4 1Z"/><path fill="#1ec2a5" d="m10 76 1 4Z"/><path fill="#1dbaad" d="m2 68 1 4Z"/><path fill="#75c535" d="m34 67 1 4Z"/><path fill="#0bc2af" d="m3 64 1 4Z"/><path fill="#09bfb1" d="m0 58 1 4Z"/><path fill="#2dc9ba" d="m1 50 1 4Z"/><path fill="#2e81c2" d="m131 16 3 1h-3z"/><path fill="#1ab6c6" d="m97 0 4 1Z"/><path fill="#07beb0" d="m59 0 4 1Z"/><path fill="#fbe338" d="m55 161 3 1Z"/><path fill="#f8df22" d="m52 160 3 1Z"/><path fill="#fed939" d="m49 159 3 1Z"/><path fill="#dd380f" d="m110 158 3 1Z"/><path fill="#ec450d" d="m113 157 3 1Z"/><path fill="#0bcac6" d="m13 68 2 2h-2z"/><path fill="#0fb0cc" d="m112 5 3 1Z"/><path fill="#30b9d6" d="m107 3 3 1Z"/><path fill="#24ccbc" d="m50 3 3 1Z"/><path fill="#1eb7d0" d="m104 2 3 1Z"/><path fill="#0db7a7" d="m53 2 3 1Z"/><path fill="#1ebece" d="m101 1 3 1Z"/><path fill="#01c0b0" d="m56 1 3 1Z"/><path fill="#f95032" d="m103 161 2 1Z"/><path fill="#f47842" d="m105 160 2 1Z"/><path fill="#ef8637" d="m108 159 2 1Z"/><path fill="#fedc35" d="m47 158 2 1Z"/><path fill="#fdd625" d="m45 157 2 1Z"/><path fill="#f15b10" d="m116 156 2 1Z"/><path fill="#f8dd15" d="m43 156 2 1Z"/><path fill="#f8eb38" d="m41 155 2 1Z"/><path fill="#fbe742" d="m39 154 2 1Z"/><path fill="#ed8456" d="m121 153 2 1Z"/><path fill="#f2e71d" d="m35 152 2 1Z"/><path fill="#e7714b" d="m124 151 2 1Z"/><path fill="#f2e045" d="m23 143 2 1Z"/><path fill="#41caac" d="m6 83 2 1Z"/><path fill="#2fc8b2" d="m3 82 2 1Z"/><path fill="#e7e543" d="m14 78 2 1Z"/><path fill="#00cfe2" d="m15 70 2 1Z"/><path fill="#41d7bc" d="m35 60 2 1Z"/><path fill="#20c5ce" d="m25 57 2 1Z"/><path fill="#238b91" d="m115 29 2 1Z"/><path fill="#0958b6" d="m135 19 2 1Z"/><path fill="#25cebd" d="m27 16 2 1Z"/><path fill="#1868b7" d="m128 14 2 1Z"/><path fill="#1dccba" d="m31 13 2 1Z"/><path fill="#16a0c5" d="m124 11 2 1Z"/><path fill="#24c3b9" d="m34 11 2 1Z"/><path fill="#25bcd4" d="m122 10 2 1Z"/><path fill="#14bfb5" d="m36 10 2 1Z"/><path fill="#20cbe0" d="m120 9 2 1Z"/><path fill="#38c3c1" d="m39 8 2 1Z"/><path fill="#0bb1cc" d="m117 7 2 1Z"/><path fill="#31cfc1" d="m41 7 2 1Z"/><path fill="#1caab4" d="m115 6 2 1Z"/><path fill="#22cec1" d="m43 6 2 1Z"/><path fill="#12c1b8" d="m45 5 2 1Z"/><path fill="#22afd2" d="m110 4 2 1Z"/><path fill="#1bb9b1" d="m48 4 2 1Z"/></svg>