<svg xmlns="http://www.w3.org/2000/svg" width="100" height="100"><path fill="#b156c8" d="M77.688 7.125C88.473 14.465 97.325 25.978 100 39c.853 11.077 1.55 23.06-4 33l-1.578 2.848C88.623 84.55 82.036 90.818 72 96l-2.312 1.262c-10.444 4.77-26.029 4.791-36.875 1.175C30.37 97.318 30.37 97.318 28 96l-2.777-1.473C12.91 87.383 5.51 77.06.863 63.742-2.463 49.324-.27 35.007 7.125 22.312 23.093-1.215 53.598-6.91 77.688 7.126"/><path fill="#8d43a3" d="M17 22h1c2.645 11.42 2.645 11.42-.246 17.617-2.558 8.084-1.7 18.646 1.922 26.207C24.983 74.544 32.139 80.27 42 83c7.197.562 14.205.588 21-2l-2.309-.227C50.68 79.498 44.477 76.326 38.062 68.5c-6.02-7.858-5.985-16.89-5.348-26.383.979-7.251 6.045-12.48 11.477-16.96 4.486-2.868 7.405-3.413 12.621-2.282l2.958.617L62 24l-2.312 1.813L57 28l-1.812 1.25C53.16 32.236 53.617 35.558 54 39c.53 2.41 1.218 4.653 2 7h2V36l5-1 1-3c2.867.573 3.861.861 6 3l-2.375 2.688C65.428 40.308 64.062 42.718 63 46l1.75-1.375C66.83 43.123 68.6 41.9 71 41c2.25.375 2.25.375 4 1v3l4-1 2 3h2l.25-3.75.14-2.11c-.201-2.358-.201-2.358-2.484-3.984L79 35c.266-3.234.266-3.234 1.25-6.75l.953-3.547L82 22c2.808 1.404 2.883 3.108 4 6l1.43 2.352C93.517 40.618 94.525 52.332 93 64c-2.564 9.05-7.156 14.945-15 20l-1 2c-9.972 2.285-20.482 2.223-30.663 2.298-2 .014-4.001.04-6.002.068l-3.784-.003-3.386.01c-5.531-.651-9.274-2.97-12.727-7.248-1.976-2.393-3.844-4.503-6.125-6.625-7.862-8.499-8.415-20.232-8.459-31.297C6.18 38.288 8.184 33.98 11 30l2-1c1.116-1.65 1.116-1.65 2.125-3.562z"/><path fill="#803e9a" d="m56.688 22.938 3.011.59L62 24l-2.312 1.813L57 28l-1.812 1.25C53.16 32.236 53.617 35.558 54 39c.53 2.41 1.218 4.653 2 7h2V36l5-1 1-3c2.867.573 3.861.861 6 3l-2.375 2.688C65.428 40.308 64.062 42.718 63 46h3v2l1.793-.105c5.987-.206 9.128.564 13.816 4.433 2.231 2.682 1.803 5.15 1.672 8.508C83 63 83 63 81.875 65.563 79.234 67.587 77.235 67.287 74 67c0-4 0-4 1-6h-3v-2l2-1-1-4-.375 1.938L72 58l-2 1 .176 1.758c.251 4.35.319 7.292-2.551 10.742-2.904 2.765-3.638 3.416-7.562 3.75C57 75 57 75 55.125 73.75 54 72 54 72 54 68h4l1-4 4 1 1-4-4 2v-2c-2.712 1.613-5.374 3.249-8 5-4.765.848-8.05.659-12.062-2.125C37.676 60.519 37.31 58.965 38 55c1.375-1.875 1.375-1.875 3-3h2v4l5-1v4l3-1v-5l-3.187-.687C43.8 51.193 41.896 48.97 39 46c-3.167-1.336-3.167-1.336-6-2 .352-6.868 4.073-12.35 9.07-16.875 5.113-3.924 8.108-5.49 14.618-4.187"/><path fill="#fbf1f8" d="M77.688 7.125C88.473 14.465 97.325 25.978 100 39c.853 11.077 1.55 23.06-4 33l-1.578 2.848C90.315 81.72 85.692 87.538 79 92l-2.187-.125c-3.458.154-5.497 1.35-8.458 3.055-6.428 2.92-12.834 3.458-19.793 3.445l-2.53-.003c-6.886-.132-12.616-1.12-17.75-6.009L27 91c1.522.116 3.042.244 4.563.375.846.07 1.693.14 2.566.21C37 92 37 92 40.344 93.009 53.212 96.5 65.324 93.798 77 88c8.204-4.736 15.052-15.25 17.605-24.262C96.058 53.654 95.763 42.82 93 33h-2c-1.385-2.473-2.117-4.517-2.75-7.312C85.613 17.909 79.996 13.853 73 10l2 3c-3 1-3 1-5.562.063C64.944 11.673 60.676 11.62 56 12l-1 1c-2.937.188-2.937.188-6 0l-2-2c-2.57-.306-5.048-.51-7.625-.625l-2.14-.117C35.49 10.164 33.744 10.08 32 10c3.161-3.381 5.502-4.773 10-6-12.07 2.012-22.443 7.179-30 17-2.33 3.88-4.21 7.848-6 12l-1.031 2.016C.459 44.619 2.68 57.04 5 67H2c-4.12-12.212-3.723-27.418 2-39C11.084 14.284 21.782 5.914 36.258.863 50.676-2.463 64.993-.27 77.688 7.125"/><path fill="#faf0f1" d="M45 3c-2.565 1.71-4.88 2.904-7.687 4.125l-2.45 1.07L33 9l2.992.113 3.883.2 3.867.175c1.075.17 2.15.338 3.258.512l2 3-2-.5c-9.755-1.626-17.23 1.115-26 5.5v-3c-6.611 4.846-9.49 9.273-12 17l-1.046 2.336c-1.013 2.829-1.14 4.736-1 7.719l.128 2.863.168 2.957.121 2.934c.52 10.318 3.03 18.987 10.004 26.879L20 80l1.766 1.598c5.004 4.446 8.015 5.528 14.843 5.535l3.977.004 2.073-.007q3.105-.005 6.208.007l3.992-.004 3.64-.004C60.063 86.998 63.478 86.542 67 86c1.812-.062 3.625-.087 5.438-.062l2.62.027L77 86l1-3c1.488-1.246 1.488-1.246 3.313-2.437C84.19 78.608 86.626 76.564 89 74c-2.117 6.543-6.526 11.03-12 15-14.504 7.285-28.074 7.898-43.656 3.559-.774-.185-1.547-.37-2.344-.559l-1 1c9.358 5.65 21.444 5.71 31.945 3.164A108 108 0 0 0 71 93l2.852-1.133L76 91l2 2q-3.122 1.475-6.25 2.938l-3.516 1.652c-9.982 4.352-25.183 4.34-35.421.847C30.37 97.318 30.37 97.318 28 96l-2.777-1.473C15.923 89.132 6.546 80.476 3 70a79 79 0 0 1 1-4c-.315-2.1-.315-2.1-.937-4.312C.745 50.87.96 40.895 6 31l1.027-2.48c3.894-8.937 10.81-16.85 19.903-20.715L29 7l2.508-1.117C36.142 3.877 39.85 2.458 45 3"/><path fill="#ce54c5" d="m20 33 2 2.188c2.242 2.351 4.298 3.386 7.25 4.687C31.344 41.102 31.344 41.102 33 43c.556 3.123.733 6.1.78 9.267C33.921 60.822 36.948 66.949 43 73c6.24 5.348 13.005 6.183 21 7-1 2-1 2-3.687 3.125-8.286 2.118-17.642 2.178-25.29-1.86C25.8 75.498 18.61 68.94 16 58c-.751-8.378-.906-16.344 3-24z"/><path fill="#4e0a81" d="M33 44c5.681 1.225 7.88 2.775 12 7l3.25 1.063L51 53c.75 2.063.75 2.063 1 4l2 1c-1 1-1 1-3.562 1.063L48 59v-4l-5 1v-4c-2.12 1.087-2.12 1.087-4 3-.603 3.542-.428 5.293 1.438 8.375C44.209 65.767 47.65 65.819 52 65c2.77-1.965 2.77-1.965 5-4 2.125.313 2.125.313 4 1l3-1-1 5-4-1-1 3h-4l1 6c5.804.486 5.804.486 10.938-1.875 2.595-2.646 2.595-2.646 3.054-6.148l-.117-2.352c-.051-3.195-.028-4.364 1.625-7.187L72 55l-1-2 4 2-1 4h-2v2h3l-1 5c2.874.417 2.874.417 6 0 1.863-2.215 1.863-2.215 3-5a711 711 0 0 1 2-4c-.42 6.635-.978 11.323-6.187 15.938L76 75l-1.785 1.441C65.277 83.531 56.398 86.725 45 86c-9.214-1.236-16.154-4.249-21.969-11.61L22 73l1-2 1.469 1.39c8.844 8.097 16.071 10.84 28.054 10.778C56.398 82.981 59.398 82.372 63 81l-2.309-.227C50.68 79.498 44.477 76.326 38.062 68.5c-4.345-5.671-5.32-10.801-5.187-17.875l.055-3.773z"/><path fill="#d38fdb" d="M72 9c4.456 1.442 7.643 3.82 11 7l1.645 1.531C89.148 22.177 90.26 26.66 91 33h2c4.814 8.343 4.411 22.11 2.21 31.293C93.677 68.26 92.159 71.113 89 74c.439-2.558.89-4.77 2.012-7.121C95.008 55.236 92.159 40.812 87 30a124 124 0 0 0-3-3c-.687-2.187-.687-2.187-1-4a228 228 0 0 0-1.75 5.75l-.984 3.234L80 35c1.828 2.235 1.828 2.235 4 4 .438 3.063.438 3.063 0 6-1.5 1.875-1.5 1.875-3 3l-2-3h-4l-1-3c-3.55.609-6.767 1.383-10 3l-1 3-3-4 3-1a749 749 0 0 0 4-6c2.714-2.807 3.745-2.987 7.75-3.187L78 34V21c-8.317-5.412-15.16-7.026-24.952-7.155-2.114-.033-4.22-.124-6.331-.222-8.578-.281-14.399.94-21.717 5.377-1.655.695-3.32 1.37-5 2v8h-2l-1-5-1.875 2.938C13 30 13 30 11 31c-1.131 2.34-1.131 2.34-2.125 5.063l-1.07 2.785L7 41c-1.052-2.71-1.06-3.832-.074-6.621l1.386-2.816c1.96-4.019 1.96-4.019 3.598-8.172 1.299-2.85 2.81-4.224 5.215-6.203l2.195-1.833L21 14l1 3 5.875-2.437 3.305-1.372A83 83 0 0 0 36 11c2.69-.187 5.297-.086 8 0l1 1c1.664.098 3.333.13 5 .125l2.75.008c2.22.119 2.22.119 3.25-1.133 6.333-.53 11.937.204 18 2z"/><path fill="#f9ecf4" d="M77 11c3.553-.336 5.379-.456 8.309 1.695 12.441 14.2 15.5 27.252 14.866 45.738-.346 5.082-1.71 9.15-4.175 13.567l-1.578 2.848C90.315 81.72 85.692 87.538 79 92l-2.187-.125c-3.458.154-5.497 1.35-8.458 3.055-6.428 2.92-12.834 3.458-19.793 3.445l-2.53-.003c-6.886-.132-12.616-1.12-17.75-6.009L27 91c1.522.116 3.042.244 4.563.375.846.07 1.693.14 2.566.21C37 92 37 92 40.344 93.009 53.212 96.5 65.324 93.798 77 88c8.204-4.736 15.052-15.25 17.605-24.262C96.058 53.654 95.763 42.82 93 33h-2c-1.385-2.473-2.117-4.517-2.75-7.312C86.165 19.538 81.62 15.442 77 11"/><path fill="#c898bd" d="M5 41c2.195 3.567 2.32 6.676 2.5 10.813.622 10.034 3.138 18.25 9.875 25.874L20 80l1.766 1.598c5.004 4.446 8.015 5.528 14.843 5.535l3.977.004 2.073-.007q3.105-.005 6.208.007l3.992-.004 3.64-.004C60.063 86.998 63.478 86.542 67 86c1.812-.062 3.625-.087 5.438-.062l2.62.027L77 86l1-3c1.488-1.246 1.488-1.246 3.313-2.437C84.19 78.608 86.626 76.564 89 74c-2.117 6.543-6.526 11.03-12 15-15.333 7.702-29.645 7.754-46 3l-3.523-.824C18.7 88.208 11.816 79.643 7.238 71.832 5.087 66.911 4.963 62.312 5 57q-.017-2.159-.04-4.316C4.934 48.788 4.957 44.895 5 41"/><path fill="#e686de" d="M64 19v1l-1.8.008c-8.374.39-15.363 3.141-21.345 9.144C37.353 33.466 34.886 37.786 33 43c-5.18-1.11-7.624-3.311-10.996-7.148C21 34 21 34 21.21 31.957 23.729 25.713 29.12 21.82 35 19c10.162-3.803 19.04-4.427 29 0"/><path fill="#2d0663" d="M33 44c5.681 1.225 7.88 2.775 12 7l3.25 1.063L51 53c.75 2.063.75 2.063 1 4l2 1c-1 1-1 1-3.562 1.063L48 59v-4l-5 1v-4c-2.12 1.087-2.12 1.087-4 3-.603 3.542-.428 5.293 1.438 8.375C44.209 65.767 47.65 65.819 52 65c2.77-1.965 2.77-1.965 5-4 2.125.313 2.125.313 4 1l3-1-1 5-4-1-1 3h-4c.102 2.947.102 2.947 1 6 2.463 1.453 2.463 1.453 5 2l-2 1-1.79-.926c-2.68-1.302-4.62-1.24-7.585-1.261-4.075-.32-6.295-.734-9.062-3.813-1.348-1.934-1.348-1.934-2.563-4l-1.246-1.973C32.128 58.315 32.619 51.447 33 44"/><path fill="#702991" d="M81 30c3.161 1.37 3.993 1.99 6 5v4h2c.438 12.494.89 26.559-7 37-3.663 2.989-6.335 3.325-11 3 2.625-2.702 5.208-5.194 8.188-7.5 3.545-3.133 3.545-3.133 4.812-7.5-.372-4.574-.873-8.517-3.695-12.23-2.868-2.202-4.99-2.555-8.555-3.02-1.078-.15-2.155-.3-3.266-.453L66 48l-1-3c5.415-4.062 5.415-4.062 8.375-3.75L75 42v3l4-1 2 3h2c.592-5.713.592-5.713-2-10.5L79 35z"/><path fill="#7a25a0" d="M17 26c2.054 3.081 2.758 4.367 3 8l-1.437 3.313c-3.26 7.951-2.784 18.602.312 26.5C20.085 66.417 21.397 68.596 23 71l.938 2c.975 2.071.975 2.071 2.687 3.625L28 78v2l7 2v1c-4.626.323-7.28-.155-11-3v-2l-1.687-.187c-4.197-1.475-6.539-4.24-8.485-8.192-2.72-6.614-3.984-12.38-4.078-19.558l-.078-3.59C10.033 42.649 11.128 40.32 13 37a253 253 0 0 0 2-6 306 306 0 0 1 2-5"/><path fill="#71438a" d="m56.688 22.938 3.011.59L62 24l-2.312 1.813L57 28l-1.812 1.25c-2.343 3.452-1.544 7.87-.801 11.793.511 2.115.511 2.115 1.613 4.957l2 1h-9l-2-4 2-2c-.32-2.603-.32-2.603-1-5h2v-2c-3.417-.167-3.417-.167-7 0-2.495 2.495-2.36 3.673-2.625 7.125l-.227 2.758L40 46l-7-2c.352-6.868 4.073-12.35 9.07-16.875 5.113-3.924 8.108-5.49 14.618-4.187"/><path fill="#864599" d="M82 22c2.808 1.404 2.883 3.108 4 6l1.43 2.352c4.624 7.799 5.95 15.585 6.007 24.523l.03 2.45c-.07 4.96-.834 8.331-3.467 12.675h-3l-.867 1.746L85 74l-.945 2.035c-1.796 3.087-3.397 5.385-6.885 6.605-3.564.868-7.149 1.408-10.783 1.887C63.17 84.63 63.17 84.63 62 86c-2.67.141-5.324.042-8 0v-1l1.977-.55c3.86-1.11 7.45-2.152 11.023-4.013 2.887-1.383 4.998-1.824 8.125-2.312 3.258-.62 4.67-.962 7.313-3.062 4.483-8.788 5.588-18.714 6.124-28.438l.131-2.23Q88.85 41.697 89 39h-4l-.312-3.375L84 32l-3-2z"/><path fill="#f0cfe9" d="M45 3c-2.565 1.71-4.88 2.904-7.687 4.125l-2.45 1.07L33 9l2.992.113 3.883.2 3.867.175c1.075.17 2.15.338 3.258.512l2 3-2-.5c-9.755-1.626-17.23 1.115-26 5.5v-3c-6.604 4.84-9.565 9.254-12 17l-.764 1.884c-2.543 6.595-2.588 12.672-2.424 19.679l.042 3.345Q5.907 60.955 6 65c-4.946-7.42-4.728-15.36-4-24 .914-3.6 2.32-6.7 4-10l1.027-2.48c3.894-8.937 10.81-16.85 19.903-20.715L29 7l2.508-1.117C36.142 3.877 39.85 2.458 45 3"/><path fill="#bb85b3" d="M5 41c2.195 3.567 2.32 6.676 2.5 10.813.622 10.034 3.138 18.25 9.875 25.874L20 80l1.766 1.598c5.004 4.446 8.015 5.528 14.843 5.535l3.977.004 2.073-.007q3.105-.005 6.208.007l3.992-.004 3.64-.004c3.564-.131 6.98-.582 10.501-1.129 2.68-.108 5.316-.047 8 0l-1.937.938c-2 .897-2 .897-3.063 2.062-7.996 2.344-15.726 2.267-24 2l-2.128-.059a409 409 0 0 1-6.372-.254l-3.844-.175c-5.96-.834-10.463-2.545-14.156-7.387-2.238-2.757-4.288-4.852-7.25-6.812-3.884-2.764-5.815-5.144-6.762-9.864C4.948 57.96 4.903 49.503 5 41"/><path fill="#dc71dc" d="M79 21h1q.293 2.374.563 4.75l.316 2.672C81 31 81 31 80.406 33.21L80 35l1.938 1.875C84 39 84 39 84.438 42.063 83.968 45.21 83.496 46.128 81 48l-2-3h-4l-1-3c-3.55.609-6.767 1.383-10 3l-1 3-3-4 3-1a749 749 0 0 0 4-6c2.714-2.807 3.745-2.987 7.75-3.187L78 34z"/><path fill="#b162be" d="M80 17c9.252 7.882 9.252 7.882 11 13v3h2c4.814 8.343 4.411 22.11 2.21 31.293C93.677 68.26 92.159 71.113 89 74c.439-2.558.89-4.77 2.012-7.121C95.008 55.236 92.159 40.812 87 30c-1.535-1.729-1.535-1.729-3-3-.687-2.187-.687-2.187-1-4l-1 5h-1z"/><path fill="#ba61ce" d="m40.738 13.023 3.233.157 3.342.195 3.4.172q4.144.212 8.287.453v1l-13 1v1l-2.562.664C33.394 20.472 26.27 23.778 21 33c-2.213-3.124-2.499-6.206-1.937-9.969C21.057 18.71 25.868 16.92 30 15l2.306-1.078c3.042-1.041 5.232-1.07 8.432-.899"/><path fill="#c264c0" d="M43 52v4l5-1v4c5.023-1.182 8.095-2.45 12-6-1.148 4.368-2.212 8.05-5.125 11.563C50.844 66.578 47.417 66.918 43 66c-3.062-2.125-3.062-2.125-5-5-.5-3.125-.5-3.125 0-6 1.635-2.23 2.202-3 5-3"/><path fill="#c867c5" d="M62 52c4 1.334 4.895 3.276 6.973 6.813C70.539 62.148 70.669 64.388 70 68c-1.814 2.962-3.842 5.42-7 7-5.32.453-5.32.453-7.875-1.25C54 72 54 72 54 68h4l1-4 4 1q.039-2.406.063-4.812l.035-2.708c.012-2.614.012-2.614-1.098-5.48"/><path fill="#fefbfd" d="M66 7v2c-1.013.09-1.013.09-2.047.184l-2.703.254c-.882.08-1.763.162-2.672.246A44 44 0 0 0 52 11v2c-3.875-.875-3.875-.875-5-2a200 200 0 0 0-7.562-.562l-2.155-.131Q34.643 10.148 32 10C41.02-.372 54.658 3.305 66 7"/><path fill="#ebd0da" d="m86 79 1 2c-6.527 9.79-17.888 14.53-29 17-20.171 1.737-20.171 1.737-28-4a77 77 0 0 1-3-3c1.522.116 3.042.244 4.563.375l2.566.21C37 92 37 92 40.344 93.009 53.162 96.486 65.38 93.849 77 88c3.818-2.503 6.45-5.176 9-9"/><path fill="#d58bcb" d="M46.688 33.313 50 34v2h-2v4l2 1-2 4c2.77 3.81 6.629 4.068 11 5-2.658 2.658-4.106 2.36-7.812 2.438-4.01-.097-5.886-.27-9.438-2.25C39.236 45.608 39.049 41.122 40 36c2.214-3.158 2.64-3.03 6.688-2.687"/><path fill="#d16acf" d="M64 49c12.657-.77 12.657-.77 17.375 1.938C83.577 55.088 83.772 58.4 83 63c-1.125 2.563-1.125 2.563-3 4-3.187.25-3.187.25-6 0 0-4 0-4 1-6h-3v-2l2-1c-.151-1.944-.151-1.944-1-4-2.072-1.351-2.072-1.351-4.562-2.25l-2.504-1.016L64 50z"/><path fill="#1c0354" d="M33 44c5.681 1.225 7.88 2.775 12 7l3.25 1.063L51 53c.75 2.063.75 2.063 1 4l2 1c-1 1-1 1-3.562 1.063L48 59v-4l-5 1v-4c-2.12 1.087-2.12 1.087-4 3-.696 4.001-.335 5.519 2 8.875L43 66c-3.117-1.5-6.131-3.062-9-5-1.187-3.56-1.097-6.438-1.062-10.187l.027-3.856z"/><path fill="#db8ed1" d="M65.012 25.531C67 26 67 26 69 29v4l-5-1-1 4h-4v11c-3-1-3-1-4.687-4.062C52.69 38.715 52.419 35.506 53 31c3.277-5.074 6.356-5.545 12.012-5.469"/><path fill="#a86ea9" d="M87 70h2c-.507 4.439-1.937 6.772-5 10a249 249 0 0 1-6 4l-1 2c-10.704 2.453-21.95 2.21-32.875 2.25l-2.045.016c-1.94.011-3.881.006-5.822 0l-3.433-.007C30 88 30 88 27 86l3.15-.06c3.861-.076 7.723-.165 11.584-.257q2.505-.058 5.01-.105c2.404-.046 4.806-.104 7.21-.164l2.257-.035c3.797-.108 6.506-.46 9.789-2.379 3.371-.291 6.72-.377 10.102-.46L79 82c1.313-1.761 1.313-1.761 2-4q1.451-2.16 3-4.25l1.563-2.14z"/><path fill="#6c139c" d="M73.375 41.25 75 42v3l4-1 2 3h2l2-6c1.906 3.212 2.223 5.539 2.125 9.25l-.055 2.703L87 55l-4 1-1.75-2.875c-3.375-4.172-7.725-4.274-12.8-4.898L66 48l-1-3c5.415-4.062 5.415-4.062 8.375-3.75"/><path fill="#641990" d="M14 46h1l.297 2.273C16.5 56.516 18.337 64.005 23 71l.938 2c.975 2.071.975 2.071 2.687 3.625L28 78v2l7 2v1c-4.626.323-7.28-.155-11-3v-2l-1.75-.187C19.01 76.643 17.942 74.816 16 72c-3.002-8.68-3.37-16.985-2-26"/><path fill="#994dab" d="M17 22c1.372 3.705.534 5.457-1 9l-1.254 2.973a5455 5455 0 0 1-2.625 6.187C8.775 48.635 9.351 58.136 11 67c-3.952-3.265-3.942-7.198-4.492-12.04C5.657 45.682 5.343 37.994 11 30l2-1c1.116-1.65 1.116-1.65 2.125-3.562z"/><path fill="#d3a8c4" d="M12 76c3.157 1.394 5.281 3.036 7.688 5.5l1.824 1.844C23 85 23 85 24 87c14.392 6.837 31.825 6.113 47 3-5.059 5.059-11.376 5.327-18.187 5.375C45.245 95.322 38.277 94.115 31 92l-3.5-.797c-4.04-1.389-6.264-3.174-9.375-6.078l-2.867-2.617C13.15 80.167 12.328 79.068 12 76"/><path fill="#d496db" d="M35 14q-2.342 1.19-4.687 2.375l-2.637 1.336C25.152 18.927 22.613 19.993 20 21v8h-2l-1-5-1.875 2.938C13 30 13 30 11 31c-1.131 2.34-1.131 2.34-2.125 5.063l-1.07 2.785L7 41c-1.052-2.71-1.06-3.832-.074-6.621l1.386-2.816c1.96-4.019 1.96-4.019 3.598-8.172 1.299-2.85 2.81-4.224 5.215-6.203l2.195-1.833L21 14l1 3 1.828-.91 2.422-1.152 2.39-1.16c2.62-.864 3.809-.708 6.36.222"/><path fill="#9b41b6" d="M82 22c2.808 1.404 2.883 3.108 4 6l1.43 2.352c4.624 7.799 5.95 15.585 6.007 24.523l.03 2.45c-.07 4.96-.834 8.331-3.467 12.675-1.183-3.55-.65-5.35 0-9a123.4 123.4 0 0 0-1-22h-4l-.312-3.375L84 32l-3-2z"/><path fill="#eec9eb" d="M57 3c5.803.494 11.02 1.872 16 5 1.563 2.75 1.563 2.75 2 5-3 1-3 1-5.562.063C63.728 11.298 57.752 11.343 52 13v-2c3.212-1.906 5.539-2.223 9.25-2.125l2.703.055L66 9V7l-2.25-.375C61.199 6.045 59.273 5.263 57 4z"/><path fill="#9d67a7" d="M64 32c2.867.573 3.861.861 6 3l-2.375 2.688C65.428 40.308 64.062 42.718 63 46h-3l-1 3c-1.322-2.645-1.097-4.678-1.062-7.625l.027-3.04L58 36l5-1z"/><path fill="#e59ddf" d="M78 34c-1.494 3.837-3.636 5.462-7 7.75l-2.687 1.86C66 45 66 45 64 45l-1 3-3-4 3-1a749 749 0 0 0 4-6c3.392-3.508 6.26-3.273 11-3"/><path fill="#efcbec" d="M45 3c-2.565 1.71-4.88 2.904-7.687 4.125l-2.45 1.07L33 9l2.992.113 3.883.2 3.867.175L47 10l2 3-2-.5c-7.32-1.22-14.671-.254-22 .5.3-1.867.3-1.867 1-4 6.05-4.033 11.61-6.352 19-6"/><path fill="#811fac" d="M81 30c3.161 1.37 3.993 1.99 6 5v4h2v16c-2-3-2-3-2.5-6.625L86 45l-2-1-.937-2.875C82.053 38.153 81.37 36.939 79 35z"/><path fill="#f5e5eb" d="M3 59c1.777 2.666 2.35 4.033 3.125 7C8.093 72.2 12.042 76.932 16 82q1.505 1.996 3 4c-2.468-1.152-4.048-2.048-6-4l-2 1a913 913 0 0 1-3.437-5.25l-1.934-2.953C4.237 72.407 3.33 70.72 3 68l1-2q-.421-3.511-1-7"/><path fill="#cc8ccc" d="m89 29 2 1v3h2c4.814 8.343 4.411 22.11 2.21 31.293C93.677 68.26 92.159 71.113 89 74c.642-3.724 1.723-7.034 3.063-10.562C95.06 54.608 94.398 46.088 93 37h-2z"/><path fill="#ba78bc" d="M5 41c2.138 3.509 2.318 6.498 2.5 10.563C7.999 59.972 9.003 68.078 12 76c-6.822-6.647-6.854-11.757-7.043-21.13-.04-4.624-.01-9.246.043-13.87"/><path fill="#fcf7f8" d="M98 41c2.594 2.594 2.312 4.478 2.379 8.02l-.004 2.417.004 2.45C100.263 60.494 98.94 66.038 96 72h-1c-.19-4.545.252-7.993 1.488-12.402C97.688 53.508 97.715 47.189 98 41"/><path fill="#e6bbdd" d="M89 25c6.695 6.003 8.69 13.626 9.191 22.328.165 9.81.165 9.81-2.191 13.672l-.148-3.586C95.47 49.092 94.967 41.128 93 33h-2c-1.765-3.088-2-4.233-2-8"/><path fill="#e2c0d0" d="M27 91c8.956.685 8.956.685 13.313 2 5.485 1.487 11.03 1.677 16.687 2v2q-4.125.08-8.25.125l-2.355.05C42.368 97.21 39.5 97.199 36 95l-3.625-1C29 93 29 93 27 91"/><path fill="#8739a2" d="M89 44c3.887 6.37 2.556 15.31 1 22.313L89 70l-4 1 .621-3.113C87.177 59.937 88.502 52.102 89 44"/><path fill="#c173cd" d="M17 19h2v10h-1l-1-5-1.875 2.938C13 30 13 30 11 31c-1.131 2.34-1.131 2.34-2.125 5.063l-1.07 2.785L7 41c-.988-2.62-1.05-3.835-.215-6.55C9.55 28.47 12.325 23.673 17 19"/><path fill="#10014a" d="M57 61c2.125.313 2.125.313 4 1l3-1-1 5-4-1-1 3-5-1-1 4v-3h-7v-1l3.188-.75c2.909-.804 4.05-1.444 6.5-3.437z"/><path fill="#9557a0" d="M18 78c2.468 1.152 4.048 2.048 6 4 2.62.445 5.174.792 7.813 1.063 4.434.485 8.825.969 13.187 1.937v1c-3.187.205-6.371.328-9.562.438l-2.713.177c-3.935.101-6.648.141-9.94-2.17C21.026 82.71 19.448 81.006 18 79z"/><path fill="#9e6da7" d="M52 32h1l.402 2.047.535 2.703.528 2.672L55 42l.441 2.266c.185.572.37 1.144.559 1.734l2 1h-9l-2-4c1.375-1.5 1.375-1.5 3-3h2z"/><path fill="#8948a0" d="m56.813 22.875 2.957.617L62 24c-1.812 2.063-1.812 2.063-5 4-3.73.058-7.322-.407-11-1v-3c4.03-1.99 6.447-2.072 10.813-1.125"/><path fill="#a957ba" d="M11 30h1q-.175 2.063-.375 4.125c-.07.766-.14 1.531-.21 2.32C11 39 11 39 10 41.844c-1.132 3.574-1.413 6.793-1.625 10.531l-.227 3.773L8 59H7c-1.202-10.818-2.111-19.4 4-29"/><path fill="#c867c4" d="M43 47c5.93-.379 10.472.894 16 3-2 2-2 2-4.82 2.195l-3.305-.07-3.32-.055L45 52z"/><path fill="#dbaad2" d="M5 37c.982 3.276 1.116 6.228 1.098 9.64l-.01 3.243-.026 3.367-.013 3.414Q6.03 60.832 6 65c-3.083-4.624-3.183-8.427-3.187-13.812l-.038-2.12C2.763 44.654 3.372 41.098 5 37"/><path fill="#8924b3" d="M17 26c2 3 2 3 3 6-2.333 4.667-2.333 4.667-5 6-1.127 2.11-1.127 2.11-2.125 4.563l-1.07 2.503L11 47c-.998-3.122-1.124-3.729.313-6.875L13 37a253 253 0 0 0 2-6 306 306 0 0 1 2-5"/><path fill="#edd3e0" d="M95 61c.926 3.048 1.042 5.465.688 8.625l-.239 2.352C95 74 95 74 93 76l-1-1-4 4c0-3.437.988-4.463 2.91-7.172 2-3.353 2.996-7.1 4.09-10.828"/><path fill="#701e98" d="M87 52h1c.207 10.579.207 10.579-1 14-2.062 1.813-2.062 1.813-4 3l1-8h-1v-5l3-1z"/><path fill="#6b328f" d="m63 51 9 1 1 4c-1.937 2.25-1.937 2.25-4 4-2.472-2.966-4.256-5.512-6-9"/><path fill="#6b338f" d="M61 52c3 3 3 3 3.188 6.188L64 61l-4 2v-2l-3-1z"/><path fill="#653d81" d="M49.953 31.824 52 32v8h-4v-4h2v-2c-3.331-.501-3.331-.501-7 0-2.495 2.866-2.495 2.866-4 6-1-3-1-3 .313-5.687 3.602-3.1 6.04-2.721 10.64-2.489"/><path fill="#a263a8" d="M87 70h2c-.615 5.378-3.138 8.254-7 11.875-2 1.125-2 1.125-4.25.813L76 82h3l.813-1.734c1.228-2.345 2.612-4.39 4.187-6.516l1.563-2.14z"/><path fill="#f7e3f2" d="m66 7 4 2v2l-2.922.184-3.828.254c-1.253.08-2.506.162-3.797.246-2.636.241-4.933.559-7.453 1.316v-2c3.212-1.906 5.539-2.223 9.25-2.125l2.703.055L66 9z"/><path fill="#a96bac" d="M9 66c2.518 1.26 2.693 2.215 3.813 4.75 1.85 3.852 4.034 6.328 7.187 9.25 1.715 1.964 3.354 3.977 5 6-3.127-1.381-5.2-2.979-7.562-5.437-.58-.597-1.158-1.194-1.754-1.81L14 77l-1.64-1.602C9.413 72.368 9 70.234 9 66"/><path fill="#dd93d6" d="M40 38h1v7h5l1-6 3 2-1.062 1.875L48 45l1 2-5 1 1 2c-3.875-1.875-3.875-1.875-5-3a75 75 0 0 1-.062-4.562l.027-2.504z"/><path fill="#d296cf" d="m69 35 2 2-3 4 3 1c-4.75 3-4.75 3-7 3l-1 3-3-4 3-1a150 150 0 0 0 4-6z"/><path fill="#74438c" d="M64 32c2.867.573 3.861.861 6 3l-6 5v-3l-5 1v-3h4z"/><path fill="#803d97" d="M14 71c3.423 1.417 4.825 3.068 7 6l3 1 1 2c2.017 1.134 2.017 1.134 4 2v1c-3 .267-4.577.264-7.168-1.355C15.1 75.538 15.1 75.538 14 71"/><path fill="#69338e" d="M49 52h10c-2 4-2 4-5 6h-3v-5z"/><path fill="#a35baf" d="M92 45h1c.081 3.042.14 6.082.188 9.125l.076 2.594c.06 5.227-.411 8.714-3.264 13.281-1.327-3.982-.159-5.994 1-10q.414-3.961.625-7.937l.117-2.073Q91.88 47.496 92 45"/><path fill="#cb9bc0" d="M12 76c3.215 1.408 5.322 3.103 7.75 5.625l1.86 1.914L23 85l-4 1a640 640 0 0 1-3.5-3.875l-1.969-2.18C12 78 12 78 12 76"/><path fill="#c172cf" d="M80 17c6.75 5.75 6.75 5.75 9 8-.375 2.125-.375 2.125-1 4l-5-6-1 5h-1z"/><path fill="#c970d1" d="M79 21h1c.905 6.08 1.549 11.208-1 17-2.625 2.438-2.625 2.438-5 4l-2-2 2.418-1.516c3.288-3.163 3.554-5.89 3.894-10.234l.221-2.113c.176-1.71.324-3.424.467-5.137"/><path fill="#fbf3f4" d="M12 81q1.909 1.402 3.813 2.813l2.144 1.582C19.8 86.843 21.464 88.23 23 90v2c-4.703-1.383-8.102-4.086-11-8z"/><path fill="#e1abe2" d="m25 10 2 1-1 1h8c-2.74 1.827-5.138 2.937-8.187 4.125l-2.731 1.07L21 18c1.75-5.75 1.75-5.75 4-8"/><path fill="#ae53c6" d="m34 18 2 1-2.266 1.61-2.984 2.14c-.975.696-1.95 1.392-2.953 2.11A56 56 0 0 0 21 31v-4c2.336-2.105 2.336-2.105 5.375-4.187l3.023-2.106C32 19 32 19 34 18"/><path fill="#400875" d="M45 74h9l-1 4 4 1c-5.278.503-7.862-.749-12-4z"/><path fill="#a243bf" d="M17 22c.957 2.583 1.036 3.865.313 6.563C15.88 31.223 14.529 32.398 12 34c.576-4.755 2.55-7.97 5-12"/><path fill="#c78fc1" d="M94 57h1c-.39 5.927-1.242 10.704-4 16l-2 1c.69-3.911 1.783-7.555 3.063-11.312l1.097-3.239z"/><path fill="#652f8c" d="m69 42 1 2 3 1-1 3h-6l-1-3z"/><path fill="#8f649e" d="m34 38 1 4h3l2-4v8l-7-2z"/><path fill="#e493df" d="M58 26c2.094-.398 2.094-.398 4.5-.375l2.406-.023L67 26c2 3 2 3 2 7h-2l-2-5-9 1z"/><path fill="#e1ade3" d="M72 9c3.653 1.25 4.78 1.671 7 5-.375 2.188-.375 2.188-1 4l-5-3 1-3z"/><path fill="#be62bd" d="M62 52c3.4 1.133 4.053 2.125 6 5a56.5 56.5 0 0 1-4 7l-.184-1.863-.254-2.45c-.08-.8-.162-1.6-.246-2.425-.269-2.423-.269-2.423-1.316-5.262"/><path fill="#7816a9" d="M19 32c1 2 1 2 .582 3.875-2.098 5.793-2.098 5.793-4.77 7.625L13 44l1-6 3-1c1.219-2.504 1.219-2.504 2-5"/><path fill="#9b49b2" d="m56.688 22.938 3.011.59L62 24c-3.405 2.27-4.215 2.183-8.125 1.75l-2.695-.266L49 25l-1-2c3.475-1.158 5.137-.773 8.688-.062"/><path fill="#2a0a5c" d="M58 61h6l-1 5-6-1z"/><path fill="#884a99" d="M29 83c5.633-.24 10.545.615 16 2v1c-5.738.204-10.605.271-16-2z"/><path fill="#91529e" d="m80 80-1 2c-2.75.917-4.36 1.109-7.187 1.063L68 83c3.474-2.316 7.954-5.023 12-3"/><path fill="#f9eef2" d="m96 61 3 1c-.48 4.22-1.166 6.797-4 10-.143-7.429-.143-7.429 1-11"/><path fill="#2e0668" d="m71 53 4 2c-.375 1.938-.375 1.938-1 4l-2 1-2 3c-.687-1.75-.687-1.75-1-4 1.438-2.25 1.438-2.25 3-4z"/><path fill="#9e4bb5" d="M67 25c2.5 2.174 3.436 3.73 4 7h5c-3 2-3 2-6 3-3.006-3.006-2.596-5.824-3-10"/><path fill="#cb7cd6" d="m35 14-14 7v-2c1.426-1.254 1.426-1.254 3.313-2.562l1.863-1.317C29.47 13.096 31.398 12.882 35 14"/><path fill="#b65bb7" d="M43 47h7l-1 5-5-1z"/><path fill="#2d046b" d="M71 41h3v5h2v2l-5-1 1-2-2-1z"/><path fill="#dda1de" d="M79 14c3.21 1.382 5.05 2.924 7.25 5.625l1.578 1.914L89 23l-1 2c-4.393-3.32-6.823-5.799-9-11"/><path fill="#3f0579" d="m71 60 4 1c-1.372 2.954-2.989 5.44-5 8z"/><path fill="#e0acdc" d="M11 24c0 3.297-.743 5.164-2 8.188l-1.125 2.73L7 37H6c-.642-5.262.794-7.686 3.906-11.68z"/><path fill="#ec8be6" d="m30 22 2 1-8 8-2-1c4.625-5.75 4.625-5.75 8-8"/><path fill="#c34dbf" d="M54 80h10l-1 2c-2.322.407-4.657.744-7 1v-2z"/><path fill="#6e4788" d="m52 40 1 3-1 2h-2l-1 2-2-4z"/><path fill="#963ab3" d="M13 33c.688 1.625.688 1.625 1 4-1.312 3-1.312 3-3 6l-1.187 2.375L9 47c.467-5.414 1.243-9.205 4-14"/><path fill="#db5dd8" d="m20 33 5 5h-5l-2 3c.875-6.875.875-6.875 2-8"/><path fill="#712e8f" d="M24 79c3.95.551 7.35 1.39 11 3v1c-4.649.324-7.224-.224-11-3z"/><path fill="#d7aacb" d="M6 65c2 2 2 2 2 5l3 1 1 5c-4.004-3.49-5.627-5.65-6-11"/><path fill="#912eb7" d="M82 27c2 .938 2 .938 4 3 .365 3.025.229 5.967 0 9h-1l-.312-3.375L84 32l-3-2z"/><path fill="#882aad" d="m86 35 1 4h2v7c-2.278-2.278-3.052-3.938-4-7 .375-2.312.375-2.312 1-4"/><path fill="#cd6bc7" d="m59 53 1 2a101 101 0 0 1-3 6l-2-4z"/><path fill="#dd90d3" d="m69 35 2 2-4 5-3-1z"/><path fill="#eec8eb" d="m59.625 9.938 3.04.027L65 10v1c-.905.09-.905.09-1.828.184l-2.422.254c-.789.08-1.578.162-2.39.246-2.184.292-4.237.737-6.36 1.316v-2c2.645-1.322 4.678-1.097 7.625-1.062"/><path fill="#8b2ead" d="M13 37c.688 1.625.688 1.625 1 4-1.437 3.25-1.437 3.25-3 6-.687-1.625-.687-1.625-1-4 1.438-3.25 1.438-3.25 3-6"/></svg>