<svg xmlns="http://www.w3.org/2000/svg" width="100" height="100"><path fill="#f297c5" d="m18.453 7.612 2.292-.016c2.502-.013 5.003-.005 7.505.006q2.606-.003 5.212-.01 5.463-.005 10.925.017c4.67.017 9.341.007 14.012-.01 3.588-.012 7.175-.008 10.763 0q2.583.003 5.167-.008c2.406-.007 4.812.004 7.218.02l2.163-.018c2.709.035 4.828.155 7.232 1.465 1.645 3.02 1.475 6.044 1.446 9.395l.016 2.292c.013 2.502.005 5.003-.006 7.505q.003 2.606.01 5.212.005 5.463-.017 10.925c-.017 4.67-.007 9.341.01 14.012.012 3.588.008 7.175 0 10.763q-.004 2.583.008 5.167c.007 2.406-.004 4.812-.02 7.218l.018 2.163c-.035 2.709-.155 4.828-1.465 7.232-3.02 1.645-6.044 1.475-9.395 1.446l-2.292.016c-2.502.013-5.003.005-7.505-.006q-2.606.003-5.212.01-5.463.005-10.925-.017c-4.67-.017-9.341-.007-14.012.01-3.588.012-7.175.008-10.763 0q-2.584-.004-5.167.008c-2.406.007-4.812-.004-7.218-.02l-2.163.018c-2.709-.035-4.828-.155-7.232-1.465-1.645-3.02-1.475-6.044-1.446-9.395l-.016-2.292c-.013-2.502-.005-5.003.006-7.505l-.01-5.212q-.005-5.463.017-10.925c.017-4.67.007-9.341-.01-14.012-.012-3.588-.008-7.175 0-10.763q.004-2.584-.008-5.167c-.007-2.406.004-4.812.02-7.218l-.018-2.163c.035-2.709.155-4.828 1.465-7.232 3.02-1.645 6.044-1.475 9.395-1.446"/><path fill="#ee72c0" d="M47 20a282 282 0 0 0 4 2l1.426-1.059 1.886-1.378 1.864-1.372C60.47 15.386 65.058 15.431 70 16c5.799 1.785 10.921 4.168 13.898 9.656 3.343 7.973 3.698 18.895 1.27 27.184C83.842 55.585 82.786 57.607 80 59c-1.125-5.75-1.125-5.75 0-8 .07-2.04.084-4.083.063-6.125l-.028-3.32L80 39l-2.5 2.25c-8.683 7.226-17.3 7.963-28.25 8.063l-3.172.087c-9.309.076-15.93-2.198-23.14-8.15l-2.286-1.86L19 38c.119 6.144.119 6.144 3 11.313L24 51c1.639 3.655.665 7.159 0 11-4.456-1.485-6.766-5.064-9-9-2.726-7.57-2.108-19.745.887-27.168 2.558-4.21 6.264-6.733 10.426-9.207C34.244 14.78 40.105 15.875 47 20"/><path fill="#d42586" d="M19 38c2.734 1.268 4.441 2.39 6.75 4.438 6.962 5.863 14.473 6.034 23.188 5.937l3.13.035c8.204-.031 15.4-1.324 22.307-5.972l1.898-1.254L78 40l3-2q.039 2.188.063 4.375l.035 2.46C81 47 81 47 80 49h-2l.313 3.188C77.91 57.088 76.692 57.846 73 61a877 877 0 0 0-3.437 3.625c-3.744 3.715-7.681 7.15-11.75 10.5l-1.801 1.545C54.27 78.07 54.27 78.07 51 80c-4.21-.695-6.762-3.324-9.812-6.187l-2.622-2.43L36 69a677 677 0 0 0-4.375-3.812l-1.934-1.704a302 302 0 0 0-4.128-3.547C23.51 57.395 23.52 55.195 23 52l-2.062-2.312C18.184 45.868 18.642 42.562 19 38"/><path fill="#f9b7e8" d="M47 20a282 282 0 0 0 4 2l1.426-1.059 1.886-1.378 1.864-1.372C60.47 15.386 65.058 15.431 70 16c5.799 1.785 10.921 4.168 13.898 9.656 3.343 7.973 3.698 18.895 1.27 27.184C83.842 55.585 82.786 57.607 80 59c-1.153-4.84-.575-7.363 1-12 .465-3.658.751-7.322 1-11h-2l-1-2-3 2 1-9-5-2v-2c-7.4-.645-7.4-.645-14.062 2L56 27h-2l-2 4c-5.073-.448-7.288-2.772-11-6-4.337-1.446-8.655-2.145-12.855-.094-1.931 1.34-1.931 1.34-4.145 4.094-.503 3.212-.503 3.212 0 6-1.875 1.063-1.875 1.063-4 2l-2-1c.137 7.34.759 12.815 4.941 18.965C24.234 57.45 24.187 59.238 24 62c-4.456-1.485-6.766-5.064-9-9-2.726-7.57-2.108-19.745.887-27.168 2.558-4.21 6.264-6.733 10.426-9.207C34.244 14.78 40.105 15.875 47 20"/><path fill="#821b1f" d="M9 32h1c.75 7.313 1.184 14.57 1.316 21.918l.063 2.98q.096 4.644.184 9.29l.13 6.353q.16 7.73.307 15.459 14.838.034 29.676.052 6.888.007 13.778.023 6.642.016 13.285.02 2.54.003 5.08.01a2183 2183 0 0 0 7.09.009l2.144.01c3.253.272 3.253.272 5.947-1.124.16-2.373.26-4.721.316-7.098l.063-2.148q.097-3.408.183-6.817l.131-4.61Q89.854 60.663 90 55h1c1.269 6.735 1.222 13.353 1.25 20.188l.063 3.888.015 3.717.028 3.391C92 89 92 89 90.944 90.652c-2.948 2.044-5.936 1.766-9.397 1.736l-2.292.016c-2.502.013-5.003.005-7.505-.006q-2.606.003-5.212.01-5.463.005-10.925-.017c-4.67-.017-9.341-.007-14.012.01-3.588.012-7.175.008-10.763 0q-2.584-.004-5.167.008c-2.406.007-4.812-.004-7.218-.02l-2.163.018c-2.779-.036-4.83-.127-7.234-1.59-1.464-2.519-1.423-4.373-1.412-7.282l-.01-3.387.038-3.656.006-3.746c.008-3.285.03-6.569.058-9.853.023-3.349.025-6.697.03-10.045q.014-3.803.03-7.606l.014-3.668.029-3.367.02-2.981C8 33 8 33 9 32"/><path fill="#faafe0" d="M11 59h1v17l7-1c2.91 1.746 4.55 3.042 6 6.125 1.417 2.656 3.215 2.996 6 3.875v1l-6 1 52 1-1-4c1.151-4.99 4.017-7.096 8-10h2v2h2V60h1q.037 5.955.055 11.908.008 2.026.02 4.054c.013 1.938.018 3.877.023 5.815l.016 3.54C89 88 89 88 88 89c-2.368.1-4.706.136-7.074.13l-2.242.005q-3.685.004-7.371-.002l-5.1.003q-5.353.001-10.704-.006-6.876-.006-13.751.004-5.268.005-10.536 0-2.535 0-5.072.002-3.538.003-7.076-.007l-2.138.007C12.114 89.114 12.114 89.114 11 88a143 143 0 0 1-.098-6.441l.01-3.955.025-4.166q.009-2.09.014-4.178Q10.97 64.13 11 59"/><path fill="#fbafd3" d="m16.165 7.718 2.175.007 2.291-.015c2.507-.014 5.014-.013 7.521-.01l5.217-.014q5.471-.01 10.942-.002c4.68.006 9.358-.01 14.036-.034 3.592-.015 7.184-.016 10.776-.013q2.587 0 5.176-.015c2.41-.013 4.821-.006 7.232.006l2.168-.023c2.872.03 4.85.095 7.277 1.709 1.768 2.91.777 5.631.211 8.874l-.644 3.855L90 25c-2-1-2-1-2.816-2.996l-.747-2.441C85.401 16.208 85.401 16.208 84 13q-13.22-.106-26.443-.155a2746 2746 0 0 1-12.278-.071q-5.923-.047-11.846-.059a642 642 0 0 1-4.522-.032c-2.11-.022-4.219-.025-6.328-.024l-3.64-.02C15.7 13.037 15.004 13.557 13 16h-2l1-6H9c2.453-2.453 3.817-2.246 7.165-2.282"/><path fill="#ec6fa9" d="M51.878 12.684c2.648.004 5.295-.02 7.942-.045q2.575-.004 5.149-.002l2.349-.028C73.519 12.66 80.45 13.45 85 18c.414 2.383.414 2.383.625 5.125l.227 2.758L86 28l-2.188-2.25c-5.642-5.517-10.147-8.71-18.187-9.125-4.96.1-8.424 1.91-12.625 4.375q-1.993 1.014-4 2l-2.188-1.875C41.144 16.842 35.976 16.159 29 17c-5.762 1.697-9.255 4.92-12.871 9.61L15 28h-1c-.081-1.603-.14-3.208-.188-4.812l-.105-2.708C14 18 14 18 15.055 16.418c2.878-2.099 5.902-2.25 9.351-2.586l2.262-.24c8.391-.815 16.785-.929 25.21-.908"/><path fill="#ee66cd" d="M80 47c1.126 3.377.688 5.562 0 9l.703 1.895C81 60 81 60 79.516 62.043 73.572 67.669 67.41 72.914 61 78l-5.687 4.563L51 86c-7.913-3.673-14.313-10.089-20.691-15.91C27.603 67.64 24.827 65.307 22 63l2-1c.652-2.025.652-2.025 1-4l1.582 1.652C32.368 65.58 38.484 70.89 45 76l2.012 1.883c1.953 1.377 1.953 1.377 4.277.687 3.741-2.167 6.856-4.836 10.086-7.695l2.016-1.76c4.154-3.676 7.975-7.45 11.41-11.822L76 56h2v-7h2z"/><path fill="#8c213e" d="M12 38h1l.332 2.16C15.672 54.3 22.075 63.065 33 72l3.035 2.55C39.01 77.05 41.991 79.542 45 82l2.047 1.922c1.937 1.344 1.937 1.344 4.293.605 3.412-1.958 6.29-4.368 9.222-6.965l1.84-1.607A1138 1138 0 0 0 68 71l1.754-1.542a706 706 0 0 0 4.871-4.333l2.852-2.555C80.145 59.852 81.998 57.224 84 54l1 2-2.375 2.625C78.695 64.003 78.599 70.553 78 77l-3.402.41c-8.32 1.148-14.603 2.025-20.739 8.262C52 87 52 87 49.516 86.918c-2.84-1.036-4.322-2.295-6.516-4.356-5.457-4.505-11.11-5.04-18-5.562l-.191-2.125c-.864-6.69-2.385-10.069-7.055-14.855-5.075-5.844-6.219-12.664-5.895-20.184z"/><path fill="#e39ebc" d="M91 13h1v48h-1l-1 26h-1l-1-11h-2v-2l-3 1 .5-3.016c.562-3.928.564-7.764.5-11.734-.11-6.92-.11-6.92 1-10.25.123-2.824.185-5.613.188-8.437l.037-2.315c.01-3.998-.117-6.74-2.225-10.248.375-2.25.375-2.25 1-4l2 4 1-9 2 4z"/><path fill="#f58cbf" d="M12 9c0 2.621-.313 4.51-1 7l2.077-1.968c3.54-2.461 5.409-2.538 9.685-2.55l1.998-.02c2.166-.018 4.331-.007 6.498.007l4.53-.012q4.74-.008 9.477.022c4.05.022 8.1.01 12.15-.015 3.115-.014 6.23-.01 9.347 0q2.24.005 4.48-.01c2.086-.01 4.17.006 6.255.028l3.594.01C84 12 84 12 85.888 13.817c1.624 3.188 1.398 5.886 1.3 9.433l-.083 3.828L87 30c-2.91-2.91-2.425-5.706-2.656-9.687-.138-2.504-.138-2.504-2.344-4.313-5.748-1.786-10.943-2.297-16.934-2.266l-2.534-.005q-2.646-.002-5.292.01c-2.64.01-5.278 0-7.918-.012-8.375-.008-16.654.23-24.982 1.164l-2.166.234c-4.02.462-4.02.462-7.174 2.875-.28 2.107-.28 2.107-.187 4.438l.019 2.37c.092 2.37.092 2.37 1.168 5.192l-1 3a214 214 0 0 0-.562 6.688l-.254 3.574L14 46h-1l-1 13h-1L9 33H8V11z"/><path fill="#f089cb" d="M84 56h1c.479 16.203.479 16.203-4.437 21.75L78 80l-1.164 1.563c-2.897 2.268-6.224 2.318-9.773 2.687l-2.17.273c-3.504.403-6.54.703-9.893-.523 4.791-4.738 8.237-5.846 14.875-6.312l2.375-.221c1.915-.175 3.832-.324 5.75-.467l.043-2.816C78.338 66.543 78.635 61.633 84 56"/><path fill="#f097c1" d="M77 80c1 2 1 2 0 8H24l1-2c2.313-.562 2.313-.562 5-1 .583-.182 1.165-.364 1.766-.55 2.983-.6 5.643-.334 8.672-.075l3.37.273C47 85 47 85 49.474 85.664c3.519.468 6.144-.637 9.527-1.664 3.475-.556 6.977-.87 10.479-1.21 4.208-.356 4.208-.356 7.521-2.79"/><path fill="#f8ace6" d="m26 24 2 1-2 2.188c-2.154 3.028-2.412 4.209-2 7.812-1.875 1.063-1.875 1.063-4 2l-2-1c.137 7.34.759 12.815 4.941 18.965C24.234 57.45 24.187 59.238 24 62c-4.456-1.485-6.766-5.064-9-9-1.424-3.892-1.22-8.03-1.25-12.125l-.062-2.207c-.016-2.113-.016-2.113.312-5.668l3-2 2 2 1.813-2.812c1.64-2.39 3.059-4.273 5.187-6.188"/><path fill="#e55795" d="m34.184 14.707 3.198.013c3.352.017 6.704.054 10.056.092q3.42.024 6.841.042 8.36.05 16.721.146v1l-2.598.262C61.167 17.15 56.498 18.14 51 23c-1.973-.965-3.904-1.942-5.79-3.07C39.845 16.846 35.135 16.025 29 17c-5 1.71-9.033 4.53-13 8v-7c6.14-3.248 11.316-3.398 18.184-3.293"/><path fill="#f3acce" d="M12 9v3q.099 2.224.219 4.45l.136 2.568.145 2.67.145 2.705Q12.82 27.697 13 31l3-4-2 19h-1l-1 13h-1L9 33H8V11z"/><path fill="#fbcee7" d="M88 60h1q.037 5.955.055 11.908.008 2.026.02 4.054c.013 1.938.018 3.877.023 5.815l.016 3.54C89 88 89 88 88 89c-6.238.578-6.238.578-9.062-1.562-1.425-3.704-.415-5.84 1.062-9.438 2-2.437 2-2.437 4-4h2v2h2z"/><path fill="#cd768d" d="M91 13h1v48h-1l-1 26h-1q-.038-10.138-.055-20.276-.008-3.442-.02-6.884c-.013-3.316-.018-6.633-.023-9.95l-.015-3.06c0-6.07.308-12.037.898-18.08.28-3.574.247-7.11.153-10.691C90 16 90 16 91 13"/><path fill="#a4434f" d="M9 32h1a194 194 0 0 1 1.098 21.7l-.005 2.912c-.005 3.025-.018 6.05-.03 9.075q-.009 3.105-.014 6.21Q11.032 79.446 11 87h-1L9 74H8q-.037-8.73-.055-17.462-.008-2.973-.02-5.945a3168 3168 0 0 1-.023-8.527l-.015-2.702c0-2.121.05-4.243.113-6.364z"/><path fill="#cc2f6e" d="M12 38h1l.332 2.16c1.86 11.23 5.883 20.406 14.98 27.653C30.92 69.934 31.67 71.052 33 74l4 4-12-1-.562-5c-.978-5.507-2.858-8.059-6.684-11.98-5.075-5.844-6.219-12.664-5.895-20.184z"/><path fill="#e151a5" d="M17 59c7.25 7.25 7.25 7.25 7.625 12.625l.227 3.04L25 77l2.668.043c10.667.438 10.667.438 13.645 3.52L43 83c-7.703-.458-14.486-1.152-20.617-6.121-2.826-3.415-3.555-6.43-4.195-10.692l-.366-2.1c-.292-1.692-.56-3.39-.822-5.087"/><path fill="#ef66ce" d="M24 58c7.2 6.104 14.376 12.27 21 19-2.621.82-2.621.82-6 1-2.349-1.65-4.088-3.107-6.062-5.125l-1.526-1.477A306 306 0 0 1 27 67l-2.871-2.867L22 62h2z"/><path fill="#f5abcf" d="M88 46h1c.141 10.056-.271 19.976-1 30h-2v-2l-3 1c.253-3.148.53-6.292.813-9.437l.212-2.663C84.578 56.908 85.84 51.616 88 46"/><path fill="#f18bda" d="M40 77c4.219-.196 7.17.198 11 2l1-1q3.5-.061 7 0v2c-1.75 1.508-1.75 1.508-4 3.125l-2.25 1.633L51 86c-2.747-1.313-5.257-2.753-7.75-4.5l-1.86-1.281L40 79z"/><path fill="#fdb0da" d="m78 79 .375 1.625c.745 2.83 1.7 5.6 2.625 8.375H21v-1h56l-1-4c.938-2.75.938-2.75 2-5"/><path fill="#881e24" d="M90 55h1c1.269 6.735 1.222 13.353 1.25 20.188l.063 3.888.015 3.717.028 3.391C92 89 92 89 90.604 90.888 89 92 89 92 87 92l.974-2.032c1.242-3.594 1.35-6.655 1.44-10.456l.059-2.131c.06-2.231.106-4.462.152-6.693q.057-2.28.117-4.557Q89.885 60.566 90 55"/><path fill="#ef80c6" d="m20 74 2.418 2.363c3.92 3.269 7.963 3.966 12.895 4.825A185 185 0 0 1 44 83l1 2c-3.669.06-7.331.044-11 0l-2.3.059c-3.184-.093-5.232-.603-7.524-2.836C20 76.84 20 76.84 20 74"/><path fill="#d53b81" d="M78 64h1q.04 2.125.063 4.25l.035 2.39C79 73 79 73 78 77l-16 2c3-3 3-3 6.438-3.937C72.248 73.926 73.644 73.14 76 70c1.268-3.134 1.268-3.134 2-6"/><path fill="#d83e7e" d="M41 16h18c-2.686 2.686-4.974 4.838-8 7-3.58-1.652-6.78-3.731-10-6z"/><path fill="#fbd6eb" d="M15 77c3.312 1.164 5.89 2.112 8 5v4c-3.375.125-3.375.125-7 0-2-2-2-2-2.187-5.062C14 78 14 78 15 77"/><path fill="#e75db5" d="M78 78c-2.463 2.463-3.789 2.475-7.187 3-3.377.554-6.61 1.161-9.876 2.188C58 84 58 84 56 83c3.77-3.46 6.508-4.639 11.563-5.312l3.378-.489c2.713-.176 4.515-.064 7.059.801"/><path fill="#f8c6de" d="m39 16 1 2-2.668.332-3.52.48-3.48.458c-4.734 1.037-8.018 3.297-11.644 6.418L16 28c1.615-5.652 5.294-8.422 10.25-11.312 4.227-1.057 8.417-.84 12.75-.688"/><path fill="#c97087" d="M9 32h1c1.192 9.665 1.096 19.282 1 29h-1L9 51H8a2399 2399 0 0 1-.062-8.937l-.026-2.577-.01-2.45-.016-2.27C8 33 8 33 9 32"/><path fill="#e962b7" d="M82 59h1c.054 1.729.093 3.458.125 5.188l.07 2.917c-.207 3.08-.738 5.178-2.195 7.895l-3 1c.087-2.084.196-4.167.313-6.25l.175-3.516c.53-3.345 1.19-4.822 3.512-7.234"/><path fill="#fac2e0" d="m14 79 2 6 5 1v3q-2.22.039-4.437.063l-2.497.035C12 89 12 89 11 88c-.141-2.67-.042-5.324 0-8 2-1 2-1 3-1"/><path fill="#82181b" d="M9 72h1l.113 3.176q.099 2.069.2 4.136l.068 2.092c.171 4.048.171 4.048 2.162 7.451L14 90v2c-2.867-.573-3.861-.861-6-3a87 87 0 0 1-.187-7.5l.001-2.09C7.86 74.281 7.86 74.281 9 72"/><path fill="#e75a98" d="M72 16c7.273-.485 7.273-.485 10.438 1.625 1.85 2.812 2.26 5.048 2.562 8.375l-1.32-1.207C79.99 21.511 76.57 19.006 72 17z"/><path fill="#ee7cc4" d="M15 56c2.524 2.524 2.79 4.424 3.625 7.875.26 1.05.52 2.099.79 3.18C20 70 20 70 20 74l-3-1c-2.2-5.377-2.208-11.285-2-17"/><path fill="#e85db9" d="M25 78c2.25.06 4.5.149 6.75.25l3.797.14c3.858.682 5.062 1.591 7.453 4.61-6.56-.39-11.945-1.421-18-4z"/><path fill="#feedf8" d="m83 77 4 1c.043 2 .04 4 0 6-1 1-1 1-4.062 1.063L80 85l.938-2.312A111 111 0 0 0 83 77"/><path fill="#b37786" d="M12 38h1l.332 2.16C14.738 48.654 17.019 54.958 22 62h-3c-1.57-2.047-1.57-2.047-3.125-4.75l-1.57-2.672C12.24 50.5 11.878 47.3 11.938 42.75l.027-2.703z"/><path fill="#ee7ac4" d="m75 81-4 1v2l-16 1c3.235-2.156 5.67-2.811 9.438-3.687l3.433-.825c2.878-.449 4.44-.473 7.129.512"/><path fill="#914453" d="m84 54 1 2c-4.155 5.917-8.773 11.011-14 16l-2-2 2.012-1.723C76.083 63.843 80.372 59.684 84 54"/><path fill="#eb7dcb" d="M80 47c1.126 3.377.688 5.562 0 9 .369 2.232.369 2.232 1 4l-4 2c-1.073-3.272-.893-5.43-.062-8.75.291-1.199.291-1.199.59-2.422L78 49h2z"/><path fill="#f2a1d7" d="m26 24 2 1-2 2.188c-2.154 3.028-2.412 4.209-2 7.812l-4 2-2-2h2l.188-2.687C21.182 28.258 22.9 26.702 26 24"/><path fill="#f3bdda" d="m43 18 2.25 1.5c2.813 1.82 2.813 1.82 6.75 1.5l2-1 2 2c-1.812 2-1.812 2-4 4-3 0-3 0-5.625-2.312C44 21 44 21 43 18"/><path fill="#fbbcdf" d="M88 60h1v17c-3.29 1.097-4.713.8-8 0 1.375-1.5 1.375-1.5 3-3h2v2h2z"/><path fill="#f3a0cd" d="m77 80 1 2c-.937 2.125-.937 2.125-2 4h-8v-2l1.715-.621 2.222-.817 2.215-.808c1.831-.608 1.831-.608 2.848-1.754"/><path fill="#f5a9cf" d="m24 82 7 3v1c-7.429 2.429-7.429 2.429-11 1l3-1c.733-2.015.733-2.015 1-4"/><path fill="#e08fab" d="M9 26c2 2 2 2 2.195 5.477a289 289 0 0 1-.07 4.148l-.027 2.14A625 625 0 0 1 11 43h-1L9 33H8c-.043-2-.04-4 0-6z"/><path fill="#ca2a65" d="M45 18c3.375-.125 3.375-.125 7 0l2 2-3 3c-3.161-1.37-3.993-1.99-6-5"/><path fill="#ee9dbe" d="M9 15h1l1 13-3-1a920 920 0 0 1-.062-5.437l-.036-3.06C8 16 8 16 9 15"/><path fill="#fcc1e0" d="M18 10v2c-4.47 4-4.47 4-7 4 .375-2.437.375-2.437 1-5 2-1 2-1 6-1"/><path fill="#90384e" d="M21 62q1.944 1.397 3.875 2.813l2.18 1.582C29 68 29 68 31 71c-3 0-3 0-4.824-1.46l-1.863-1.915-1.887-1.898C21 64 21 64 21 62"/><path fill="#fcc0df" d="M79 10c6.055-.195 6.055-.195 8 0l2 2-1 3-2-2c-2.323-.4-4.657-.74-7-1z"/><path fill="#780f0f" d="M9 81h1l.875 3.25c.853 2.844 1.689 5.185 3.125 7.75-3.875-.875-3.875-.875-5-2a75 75 0 0 1-.062-4.562l.027-2.504z"/><path fill="#fdecf7" d="M15 79h2l1 3c2.015.733 2.015.733 4 1v2c-2.375.125-2.375.125-5 0l-2-2z"/><path fill="#f5d0e3" d="m21 20 3 1-7 7-1-2z"/><path fill="#ee8dba" d="M12 48c2.76 5.52 2.76 5.52 3 8l-3 3z"/><path fill="#e148ad" d="M19 47c4.735 3.4 4.735 3.4 5.938 6.125L25 55l-2 2a652 652 0 0 1-2-3.875l-1.125-2.18C19 49 19 49 19 47"/><path fill="#f7bbe8" d="M83 51c.75 1.75.75 1.75 1 4-1.937 2.25-1.937 2.25-4 4v-5l3-1z"/><path fill="#f08acf" d="m75 33 1 4-5 4c0-3.908 1.506-5.116 4-8"/><path fill="#fed0fc" d="M17 78c2.5 1.375 2.5 1.375 5 3v2l-5-1z"/><path fill="#fdc5f8" d="M81 77h2l-1 5-3 1c.875-4.875.875-4.875 2-6"/></svg>