<svg xmlns="http://www.w3.org/2000/svg" width="100" height="100"><path fill="#f8f285" d="M77.688 7.125C88.473 14.465 97.325 25.978 100 39c.853 11.077 1.55 23.06-4 33l-1.578 2.848C88.623 84.55 82.036 90.818 72 96l-2.312 1.262c-10.444 4.77-26.029 4.791-36.875 1.175C30.37 97.318 30.37 97.318 28 96l-2.777-1.473C12.91 87.383 5.51 77.06.863 63.742-2.463 49.324-.27 35.007 7.125 22.312 23.093-1.215 53.598-6.91 77.688 7.126"/><path fill="#f2e444" d="m82 24 1 2 3 1v3h3c6.463 10.303 6.15 19.073 6 31h-2l-.043 1.871C92.441 72.031 89.191 78.05 83 84.75c-8.092 7.011-21.453 9.482-32 9.25-.25-6.625-.25-6.625 2-10a136 136 0 0 0 1.625-6.687c.26-1.18.52-2.36.79-3.575L56 71l-4-1c-1.525-5.422-2.003-10.811.375-16C54 52 54 52 56 51a95 95 0 0 1 5.125-.062l2.758.027L66 51v-2H55l-1-2 2.598-.734c10.423-2.813 10.423-2.813 19.027-9.016C77 36 77 36 79.688 35.813L82 36c1.193 3.877 2 6.916 2 11q-2.657-.466-5.312-.937l-2.989-.528C73 45 73 45 70 44c-.75 3.471-.75 3.471-1 7l2 2v3l2.082-.656 2.73-.844 2.708-.844C81 53 81 53 84 53l1 4 .188-2.375L86 52c2.563-1.312 2.563-1.312 5-2l-2.375-.375C86 48 86 48 85.328 45.852a208 208 0 0 1-.855-5.329c-.379-2.728-.379-2.728-2.16-5.648C80.47 30.84 81.183 28.313 82 24"/><path fill="#9f9b65" d="M17 22h1c1.332 6.803.95 11.361-1.953 17.664-.96 2.141-1.57 4.123-2.11 6.398L13 49l-3 1 2.938.813C17.339 52.068 21.666 53.53 26 55l3 1 .375-1.875C30 52 30 52 32 50l-2-2v-4l-14 3 2-10c5-1 5-1 6.633.074l1.492 1.614C31.588 43.838 38.749 45.678 46 47l-1 2c-2.285.414-2.285.414-5.062.625l-2.786.227L35 50q.68 2.159 1.375 4.313l.773 2.425c.84 2.49.84 2.49 2.852 5.262h-2c.833 2.233.833 2.233 3.285 2.852l2.778.773c.919.26 1.838.52 2.785.79L49 67l-1 3h-4q.676 3.44 1.375 6.875l.773 3.867C46.722 84.06 46.722 84.06 49 86c.328 2.715.13 5.252 0 8-1 1-1 1-4.375 1.313C35.304 95.163 27.253 90.467 20 85l-1.937-1.367C12.875 79.676 10.482 74.946 8 69l-.973-2.117C3.287 57.663 3.835 46.319 7 37c1.125-2.5 1.125-2.5 2-4h2l.75-2.687c1.294-3.43 2.794-5.62 5.25-8.313"/><path fill="#f9f9eb" d="M77.688 7.125C88.473 14.465 97.325 25.978 100 39c.853 11.077 1.55 23.06-4 33l-1.578 2.848C88.623 84.55 82.036 90.818 72 96l-2.312 1.262c-10.444 4.77-26.029 4.791-36.875 1.175C30.37 97.318 30.37 97.318 28 96l-2.777-1.473C16.145 89.26 8.353 81.654 4 72c-.25-2.937-.25-2.937 0-5l2 1c.625 2.563.625 2.563 1 5h2l.563 2C12.552 81.238 16.529 85.58 23 88q2.097 1.421 4.125 2.938c7.763 5.204 15.456 6.305 24.625 6.374l2.148.018c12.422-.172 23.246-6.751 32.133-15.107C95.06 72.03 97.494 59.697 97.238 46.469 96.958 42.382 96.18 38.91 95 35v-4h-2c-1.227-1.723-1.227-1.723-2.625-4.062C87.249 22.048 83.531 18.577 79 15l-1 3c-3.26-.373-4.757-.779-7.223-3.027-3.56-2.53-5.707-2.417-10.027-2.286l-3.766.075C54.118 12.666 54.118 12.666 53 14c-2.937.188-2.937.188-6 0l-2-2c-8.22-1.044-13.125 1.719-20 6a4156 4156 0 0 1-5 3l1-6c-7.176 5.233-12.404 9.377-15 18l-.89 2.273C1.808 44.784 2.73 55.076 3 65c-2-1-2-1-2.61-2.791-2.693-15.256-.122-29.792 8.575-42.607C25.694-1.783 54.638-6.305 77.688 7.125"/><path fill="#e6e5b7" d="M54 12c8.79-.549 14.236-.862 21 5l3-1 1-2c5.837 4.245 11.99 9.855 14 17h2c4.618 14.762 4.639 28.973-2.496 42.926C88.274 81.213 88.274 81.213 85 84h-2l-1 3c-12.468 9.346-23.671 12.267-39 11-8.24-1.513-14.783-4.365-21-10 3.215 0 4.933.65 7.875 1.875l2.555 1.055a268 268 0 0 1 5.12 2.195c2.456.877 4.177 1.088 6.763 1L48 94l1-8 3 1-1 7c18.984-2.629 18.984-2.629 34.43-12.715L87 79l1.383-2.004C91.229 72.07 92.133 66.566 93 61h2a808 808 0 0 0-.75-10.625l-.187-3.027C93.58 41.279 92.725 37.8 89 33v-3h-3l-1-3-2-1-2 5-1.562-2.125C74.996 23.636 70.333 19.78 64 17l-1 1c1.502 4.206 4.286 5.739 8 8-3.61 3.291-6.126 4.547-11 5l2 3v3l-10-4v-3h4l-3-14 5-1-5-1z"/><path fill="#f2e648" d="M22.75 36.625C25 38 25 38 26.496 39.145 32.396 43.655 38.677 45.819 46 47l-1 2c-2.285.414-2.285.414-5.062.625l-2.786.227L35 50q.68 2.159 1.375 4.313l.773 2.425c.84 2.49.84 2.49 2.852 5.262h-2l2 7-9 4 2.438 2.313C36 78 36 78 37 81c2.504 1.219 2.504 1.219 5 2v1c-8.623-.367-14.464-5.132-20.312-11.187C16.618 66.83 13.659 59.899 14 52l-3-1c5.264.675 10.019 2.254 15 4l3 1 .375-1.875C30 52 30 52 32 50l-2-2v-4l-14 3 2-10c3-1 3-1 4.75-.375"/><path fill="#fdfcef" d="M74.723 5.602A108 108 0 0 1 81 10l-2 2-1.687-1.375C74.928 8.95 72.719 8.02 70 7l-2-1.125C65.557 4.806 63.638 4.853 61 5l5 4-2.3.113-3.013.2-2.988.175C54.65 10.067 54.07 10.84 52 13h-4l-1-2a96 96 0 0 0-7.562-.625l-2.155-.117c-1.76-.095-3.522-.177-5.283-.258 3.161-3.381 5.502-4.773 10-6-10.079 1.06-19.147 5.646-26 13l-1.508 1.563C10.436 22.965 8.047 27.395 6 33l-.91 2.281C1.845 44.82 2.73 55.063 3 65c-2-1-2-1-2.61-2.791-2.693-15.256-.122-29.792 8.575-42.607C24.18.15 52.9-7.235 74.723 5.602"/><path fill="#b5b268" d="m82 24 1 2 3 1v3h3c6.463 10.303 6.15 19.073 6 31h-2l-.043 1.871C92.441 72.031 89.191 78.05 83 84.75c-8.092 7.011-21.453 9.482-32 9.25v-7c2.539-1.27 4.604-1.294 7.438-1.5l3.246-.25L65 85q3-.242 6-.5l2.625-.219c2.2-.26 4.242-.689 6.375-1.281v-2l2.188-1.625c7.916-6.685 8.68-14.086 9.55-23.937L92 52l-4-1 3-1-2.375-.375C86 48 86 48 85.328 45.852a208 208 0 0 1-.855-5.329c-.379-2.728-.379-2.728-2.16-5.648C80.47 30.84 81.183 28.313 82 24"/><path fill="#f7f082" d="M46 16c1.3 2.6.787 3.706.125 6.5l-.555 2.406C45 27 45 27 44 29h4l1 4-6 1v3c-4.875 1-4.875 1-6 1l-2 6c-4.583-.278-7.379-2.33-10.676-5.32C23 37 23 37 22.937 33.938L24 31l.625-2.687C26.656 24.896 29.35 24.303 33 23l2-1 1-4z"/><path fill="#8c886a" d="M86 52h6c.524 11.48-.542 18.92-8.379 27.566C82 81 82 81 80 81v2c-3.832 2.413-7.976 2.664-12.375 3.125l-2.25.262c-4.146.461-8.196.706-12.375.613v-2l1.871-.262C61.471 83.643 66.321 81.447 72 78l2.133-.906C76.484 75.716 76.935 74.47 78 72q1.21-1.755 2.438-3.5C83.695 63.411 84.799 57.857 86 52"/><path fill="#f6f5ca" d="M43 3c-1.616 3.233-4.77 3.673-8 5l-1 1 13 1 1 3h4l1-3c2.296-1.148 4.077-1.308 6.625-1.562l2.477-.254L64 8l-4-4c1.46.114 2.917.242 4.375.375l2.46.21C69 5 69 5 71 7l2.313.875c3.92 1.641 6.838 3.67 9 7.375L83 17l-4-1-1 2c-3.26-.373-4.757-.779-7.223-3.027-3.56-2.53-5.707-2.417-10.027-2.286l-3.766.075C54.118 12.666 54.118 12.666 53 14c-2.937.188-2.937.188-6 0l-2-2c-8.22-1.044-13.125 1.719-20 6a4156 4156 0 0 1-5 3l1-6-9 8c0-3 0-3 1.355-4.43l1.832-1.445c2.29-1.846 4.202-3.555 6.188-5.75C24.883 8.201 28.641 6.725 33 5l2.75-1.25c2.53-.843 4.6-.901 7.25-.75"/><path fill="#edde42" d="M35 51c4.408-.346 7.95-.45 12.063 1.313C50.118 56.55 49.393 60.944 49 66h7l-4 1 1 3 3 1q-.464 2.688-.937 5.375l-.528 3.023C54 82 54 82 53 84h5v1c-10.558 1.333-10.558 1.333-15 0l4-1-.656-2.3-.844-3.013-.844-2.988C44 73 44 73 44 70l1.938-.375L48 69l1-2-2.75-.375C43.41 66.079 41.474 65.427 39 64l-1 2 .75-2.125c.349-4.013-1.487-5.652-3.75-8.875z"/><path fill="#f9f188" d="M43 35h6l.621 1.715.816 2.222.81 2.215c.607 1.831.607 1.831 1.753 2.848a80 80 0 0 0 4.875-.437C60.626 43.246 63.227 43 66 43c-1 2-1 2-3.285 2.852L55 48l11 1v2l-2.082.148-2.73.227c-.894.07-1.787.14-2.708.21-2.724.281-2.724.281-5.48 2.415-.803 2.878-.803 2.878-1.187 6.125l-.481 3.32L51 66h-2l-.078-2.3-.172-3.013-.14-2.988c-.383-2.778-.383-2.778-2.364-4.52-2.465-1.294-4.168-1.6-6.934-1.742C36.927 51.31 36.927 51.31 35 51l-1-2 11-1-10-3c1-5 1-5 2-7l-4 2-1-2c3.724-.693 7.21-1.111 11-1z"/><path fill="#7b7645" d="M10 52h4l.445 2.309C16.875 65.497 21.637 73.282 31 80c2.625 1.514 5.227 2.762 8 4v1c-12.958.566-12.958.566-18-3a141 141 0 0 1-5-5l-3-2c-2.91-7.462-3.421-15.08-3-23"/><path fill="#d7d4aa" d="M94 65c.703 1.621.703 1.621 1 4-1.328 2.91-1.328 2.91-3.25 6.063l-1.89 3.16C88.354 80.47 87.09 82.303 85 84h-2l-1 3c-12.468 9.346-23.671 12.267-39 11-8.24-1.513-14.783-4.365-21-10 3.215 0 4.933.65 7.875 1.875l2.555 1.055a268 268 0 0 1 5.12 2.195c2.456.877 4.177 1.088 6.763 1L48 94l1-8 3 1-1 7c18.787-2.552 18.787-2.552 34.223-12.277C88.7 76.394 91.49 70.84 94 65"/><path fill="#c2bf73" d="M17 22h1c1.332 6.804.956 11.368-1.96 17.668-.953 2.138-1.496 4.054-1.977 6.332L13 49c-2.566 1.188-2.566 1.188-5 2q-.04 3.093-.062 6.188l-.036 3.48C7.988 63.593 8.322 66.163 9 69c-2-1-2-1-3.125-4.125C3.561 54.702 3.621 42.222 9 33h2l.75-2.687c1.294-3.43 2.794-5.62 5.25-8.313"/><path fill="#f8f283" d="M61 16c6.83 1.022 12.424 5.023 17.125 10C80 29 80 29 79.813 32.375L79 35h-2l-.875-1.937C75.172 30.848 75.172 30.848 73 30l-3 9c-3.273 0-5.847-.3-9-1l-1-7 9-4v-2l-2.312-1.25C63.407 21.614 62.5 19.554 61 16"/><path fill="#f1e64b" d="M80 31c5.459 4.731 6.166 10.053 7 17l5 2c-3.75 2-3.75 2-6 2l-1 7h-1v-6l-1.828.656-2.422.844-2.39.844C75 56 75 56 71 56l-.875-1.875C69.063 51.867 69.063 51.867 67 50l2-2c.643-2.069.643-2.069 1-4q2.656.465 5.313.938l2.988.527C81 46 81 46 84 47l-1-3.25C82 40 82 40 82 36l-4-1z"/><path fill="#f1e74d" d="m19 31 .875 1.938c.953 2.214.953 2.214 3.125 3.062l-5 1-1 9 4.25-1c3.124-.735 5.478-1 8.75-1l.938 2.375c.99 2.548.99 2.548 2.062 4.625l-3 2-1 3a613 613 0 0 1-5.312-.875l-2.989-.492C18 54 18 54 15 52a128 128 0 0 0-7-1c2-2 2-2 5-3 .925-2.626.925-2.626 1.5-5.75.899-4.343 2.032-7.548 4.5-11.25"/><path fill="#e9e7ab" d="M21 14c1.245 2.49.777 3.41 0 6l2 1-2 2c-.648 2.57-.648 2.57-1 5h-1v-9c-4.119 3.134-6.331 4.994-8 10l-2 1c-3.88 6.93-4.578 13.512-4.375 21.313l.004 2.916c.074 5.946.39 10.328 4.246 15.084 1.818 2.298 2.776 4.002 3.938 6.624C14.934 80.429 18.06 83.08 22 86l-4 1a489 489 0 0 1-4.5-4.75l-2.531-2.672C9 77 9 77 9 73H7l-2-5-2 2C.165 58.751.965 45.549 4.188 34.5l.594-2.081C6.286 27.809 8.387 25.167 12 22l2.457-2.238 2.355-2.075 2.395-2.113zm9 0 2 1-7 5-2-1c2.116-2.327 4.05-3.858 7-5"/><path fill="#d4cf75" d="M53 16c8.4 1.2 8.4 1.2 11 3l1 3a107 107 0 0 0 6 4c-3.61 3.291-6.126 4.547-11 5l2 3v3l-10-4v-3h4z"/><path fill="#d4d075" d="M46 16c1.3 2.6.787 3.706.125 6.5l-.555 2.406C45 27 45 27 44 29h4l1 4-10 4 1-6c-.638-.182-1.276-.364-1.934-.55-.826-.252-1.652-.504-2.504-.762l-2.496-.739L31 28l-1-3 2.438-1.25C35.442 22.114 35.442 22.114 36 18z"/><path fill="#756c20" d="M30 52h3q1.007 1.935 2 3.875l1.125 2.18C37 60 37 60 37 62c-2.169-.506-4-1-6-2l-.586 1.898-.789 2.477-.773 2.46C28 69 28 69 26 71l-.988-1.496-1.325-1.942-1.3-1.933C20.997 63.71 20.997 63.71 18 63c-1.478-2.957-1.06-5.742-1-9q2.156.214 4.313.438c.8.08 1.6.162 2.425.246C26 55 26 55 29 56z"/><path fill="#524b16" d="M60 63h2l-1 6 9 4-2.437 2.313C64.832 77.794 64.832 77.794 64 81c-3.976 2.025-6.505 3-11 3l3-13-4-1v-3l3.438-1.437c3.32-1.2 3.32-1.2 4.562-2.563"/><path fill="#bbb99a" d="m88 75 1 2c-6.6 8.4-11.998 12.702-22.625 14.875l-2.812.64C59.28 93.46 55.4 94.11 51 94v-7c2.539-1.27 4.604-1.294 7.438-1.5l3.261-.262q3.127-.227 6.258-.383c7.604-.457 13.301-1.839 18.543-7.605z"/><path fill="#7a6213" d="m39 64 10 3-1 3h-4l3 13c-7.617-.39-7.617-.39-10-1-1.156-1.875-1.156-1.875-2-4a141 141 0 0 0-5-5q1.935-1.007 3.875-2l2.18-1.125C38 69 38 69 40 69z"/><path fill="#7b7020" d="m67 51 4 2v3l3.188-1c3.2-.84 5.553-1.198 8.812-1-.06 1.46-.149 2.918-.25 4.375l-.14 2.46C82 63 82 63 80.054 64.126L78 65a198 198 0 0 0-3 5h-2l-4-9-6 1 .875-2.125C65.021 56.945 66.026 53.991 67 51"/><path fill="#d6d48e" d="M43 13c-1.364 2.728-2.649 2.715-5.5 3.688C29.923 19.597 23.666 24.305 19 31l-2-7c-3.12 2.807-4.527 5.107-6 9l-2 1c-2.879 5.927-3.138 11.939-3.125 18.438l-.008 3.808C5.997 59.931 6.41 63.367 7 67c-2-1-2-1-2.608-2.761C2.345 52.549 2.234 39.099 9 29h2l.75-2.75c1.298-3.375 2.47-4.991 5.25-7.25h2l1 4 1.355-1.207C28.571 15.47 33.283 12.813 43 13"/><path fill="#fefefb" d="M66 8v1l-2.3.113-3.013.2-2.988.175C54.65 10.067 54.07 10.84 52 13h-4l-1-2a96 96 0 0 0-7.562-.625l-2.155-.117c-1.76-.095-3.522-.177-5.283-.258C40.82-.095 55.525 1.986 66 8"/><path fill="#b5b395" d="m18 82 1.5.875c6.227 2.802 12.64 3.488 19.375 3.813l2.297.142c4.039.327 4.039.327 7.828-.83.098 6.152.098 6.152 0 8-1 1-1 1-4.375 1.313C35.559 95.167 26.889 90.678 20 85z"/><path fill="#eae8a2" d="M54 12c8.79-.549 14.236-.862 21 5l3-1 1-2c2.491 3.737 2.207 5.745 2.125 10.188l-.055 3.855L81 31l-1.79-2.305C75.049 23.62 70.209 19.345 64 17c-2.143.39-2.143.39-4 1l-3-2 1-1-5-1z"/><path fill="#f3f197" d="M42.871 10.629c3.026.527 4.371 1.925 6.129 4.371l-9 1v2h-4l-.187 2.313C35 23 35 23 32.687 24.813 30 26 30 26 26 26l-.375 2.25c-.58 2.551-1.362 4.477-2.625 6.75h-2c-.875-2.562-.875-2.562-1-6 4.83-8.408 13.088-12.395 22-15H32c4.39-3.293 5.725-3.515 10.871-3.371"/><path fill="#c6be55" d="M81 53h3c1.789 7.43-.08 11.592-4 18-4.138 6.502-11.919 11.2-19 14-2.375-.312-2.375-.312-4-1 2.62-1.746 4.038-2.387 7-3l.125-1.75C65.47 75.79 67.817 74.719 71 73l3 1-1-4h2l.875-2.375C77 65 77 65 79 63h3l1-9z"/><path fill="#f9f47c" d="M47 46h12l-4 2 11 1v2l-2.082.148-2.73.227c-.894.07-1.787.14-2.708.21-2.724.281-2.724.281-5.48 2.415-.803 2.878-.803 2.878-1.187 6.125l-.481 3.32L51 66h-2l-.078-2.3-.172-3.013-.14-2.988c-.383-2.778-.383-2.778-2.364-4.52-2.465-1.294-4.168-1.6-6.934-1.742C36.927 51.31 36.927 51.31 35 51l-1-2 13-1z"/><path fill="#f6f4c6" d="M43 3c-1.463 2.926-3.403 3.06-6.437 4.125l-2.997 1.07C31 9 31 9 29 9v3h6a316 316 0 0 1-6.937 4.5l-2.028 1.281c-1.97 1.18-3.968 2.22-6.035 3.219l1-6-9 8c0-3 0-3 1.355-4.43l1.832-1.445c2.29-1.846 4.202-3.555 6.188-5.75C24.883 8.201 28.641 6.725 33 5l2.75-1.25c2.53-.843 4.6-.901 7.25-.75"/><path fill="#9e962c" d="M79.625 35.875 82 36c1.193 3.877 2 6.916 2 11q-2.657-.466-5.312-.937l-2.989-.528C73 45 73 45 70 44l-1 5h-2l-1-5 1.898-1.242 2.477-1.633 2.46-1.617c5.1-3.552 5.1-3.552 6.79-3.633"/><path fill="#9e9a46" d="M17 26c2 3 2 3 1.813 5.188-.864 2.987-1.924 5.844-3.047 8.742C14.663 42.91 13.83 45.933 13 49H7c.718-6.101 1.386-10.755 6-15 2.197-2.62 3.397-4.62 4-8"/><path fill="#96851e" d="M22.89 36.742a142 142 0 0 1 6.86 4.383l2.422 1.633L34 44l-1 5-3-1v-4l-14 3 2-10c3-1 3-1 4.89-.258"/><path fill="#f2f092" d="M61 16c6.83 1.022 12.424 5.023 17.125 10C80 29 80 29 79.813 32.375L79 35h-2c-3-5.625-3-5.625-3-9l-3 1c-5.101-2.33-7.95-5.813-10-11"/><path fill="#76714e" d="M85 60h1c.377 6.158.044 10.565-3 16-3.353 3.74-8.256 4.138-13 5a105 105 0 0 1 4-5h2l.844-1.75c1.474-2.869 3.199-5.536 4.937-8.25 1.192-1.955 2.225-3.939 3.219-6"/><path fill="#6a653c" d="M14 59c2.168 2.168 2.94 3.906 4.188 6.688C22.89 75.163 29.672 79.395 39 84c-3.207 1.069-4.35.949-7.562.25l-2.38-.484C27 83 27 83 25 80l-2.437-1.375c-3.672-2.328-5.177-4.908-6.125-9.125L16 67l-1.062-2.625C14 62 14 62 14 59"/><path fill="#f9f8d1" d="M63 6c2.938.813 2.938.813 6 2l1 3-2.957.148-3.856.227-3.832.21c-3.483.176-3.483.176-6.355 2.415-3.062.25-3.062.25-6 0l-2-2a107 107 0 0 0-8.125-.125l-2.285.027c-1.864.024-3.727.06-5.59.098V9l6-2-1 2 13 1 1 3h4l1-3c2.296-1.148 4.077-1.308 6.625-1.562l2.477-.254L64 8z"/><path fill="#524a15" d="M31 72h4v2l6 1v2l4-1 2 7c-1.626-.06-3.251-.149-4.875-.25l-2.742-.14C37 82 37 82 35.843 80.124L35 78a141 141 0 0 0-5-5z"/><path fill="#cac355" d="M11 51c2.938.375 2.938.375 6 1 1.203 2.405 1.1 3.95 1.063 6.625l-.028 2.477L18 63l1.855.328C22 64 22 64 24.313 66.75 26 70 26 70 25.75 72.875L25 75c-5.415-3.404-7.816-8.162-10-14-.617-3.06-.849-5.87-1-9z"/><path fill="#e4e192" d="M43 13c-1.364 2.728-2.649 2.715-5.5 3.688C29.923 19.597 23.666 24.305 19 31c.12-6.93.12-6.93 2.45-9.762C28.431 15.225 33.771 12.823 43 13"/><path fill="#d8d28b" d="M25 30c3 1 3 1 3.95 2.848l.738 2.215.761 2.222L31 39l6-1-2 6c-4.582-.278-7.367-2.336-10.68-5.305C23 37 23 37 23 33.688 24 31 24 31 25 30"/><path fill="#e0dfc3" d="M94 65c.703 1.621.703 1.621 1 4-1.328 2.91-1.328 2.91-3.25 6.063l-1.89 3.16C88.354 80.47 87.09 82.303 85 84h-2l-1 3C67.747 97.684 67.747 97.684 60 97l1.691-.816c2.486-1.275 4.858-2.675 7.246-4.121l2.528-1.528L74 89l2.574-1.516C85.87 81.797 89.704 74.68 94 65"/><path fill="#bc9d5d" d="M56 24c3.775 1.09 6.47 1.908 9 5l-5 2 2 3v3l-10-4v-3h4z"/><path fill="#a7a488" d="m78 83 2 1-3 1-1 3-2.527.184c-11.038.16-11.038.16-21.473 2.816v-5l2.457-.184Q59.729 85.416 65 85l3.242-.254 2.945-.246 2.668-.219c2.192-.168 2.192-.168 4.145-1.281"/><path fill="#d9d18c" d="m73 30 3 1c1.188 2.563 1.188 2.563 2 5a414 414 0 0 1-3.75 3.438l-2.11 1.933C70.013 42.991 68.61 43.583 66 44c-3-3.75-3-3.75-3-6l6 1z"/><path fill="#deddc3" d="M22 87c5.457 1.73 10.738 3.694 15.707 6.563 3.971 1.733 7.204 1.917 11.48 2 7.43.181 7.43.181 10.813 2.437-13.503.582-25.72.218-36.707-8.73L22 88z"/><path fill="#949074" d="m14 75 1.32 1.207C23.101 83.129 28.626 84.596 39 84c2.693-.247 5.325-.588 8-1l1 5c-24.994-.782-24.994-.782-32-8-1.312-2.75-1.312-2.75-2-5"/><path fill="#8c874a" d="m10 52 4 1-.07 2.309c-.481 11.313-.481 11.313 4.195 21.129.619.515 1.238 1.03 1.875 1.562v2c-3.443-1.148-4.681-2.243-7-5-2.96-7.434-3.42-15.09-3-23"/><path fill="#888447" d="M86 52h4c.389 13.348.389 13.348-2 18l-3 1q-.04-3.344-.062-6.687l-.036-3.762c.083-3.013.39-5.634 1.098-8.551"/><path fill="#efdf3a" d="M67 45c1.231 3.917.832 7.024 0 11l-1-4q-2.688.464-5.375.938l-3.023.527C55.03 53.877 55.03 53.877 53 55l1-3c2.525-1.262 4.312-1.099 7.125-1.062l2.758.027L66 51v-2H55l-1-2q2.685-.793 5.375-1.562l3.023-.88C65 44 65 44 67 45"/><path fill="#bfa15e" d="m43 25 1 4h4l1 4-10 4 1-6-3-1c3.75-3 3.75-3 6-3z"/><path fill="#a5a03e" d="M81 30c2 1.313 2 1.313 4 3v3h2l2 4 1.625 3.063C92 46 92 46 92 49c-1.666.043-3.334.04-5 0-1.588-1.588-1.503-3.506-1.875-5.687C84.33 39.105 83.075 35.772 81 32z"/><path fill="#d5d17d" d="M80 17c2.5 2.313 2.5 2.313 5 5v3l1.824.758c2.497 1.425 3.476 2.694 4.989 5.117l1.332 2.055c1.023 2.478.76 3.595-.145 6.07-4-5.625-4-5.625-4-9h-3l-1-3-2-1-2 3z"/><path fill="#c3bb53" d="M29 73a279 279 0 0 1 3.438 2.313l1.933 1.3C36 78 36 78 37 81c2.504 1.219 2.504 1.219 5 2v1c-6.674-.284-10.71-3.078-16-7l1-3z"/><path fill="#9f740b" d="M30 52h3q1.007 1.935 2 3.875l1.125 2.18C37 60 37 60 37 62c-2.169-.506-4-1-6-2l-1 2-2 1 .063-2.375c.124-2.606.124-2.606-1.063-4.625h2z"/><path fill="#a4a285" d="m18 82 1.5.875c6.291 2.831 12.698 3.467 19.5 3.75l2.348.117Q44.173 86.88 47 87l1 2c-6.191 1.238-11.634.862-17.812-.125l-2.246-.318c-3.846-.676-5.719-1.324-8.454-4.174-.49-.787-.982-1.573-1.488-2.383"/><path fill="#f1f1e0" d="M20 87c2.701 1.288 5.106 2.735 7.563 4.438C32.367 94.508 37.485 95.753 43 97c-3.416.988-5.527.731-9 0l-2 1c-2.602-1.215-2.602-1.215-5.625-2.937l-3.04-1.715L21 92v-3z"/><path fill="#999565" d="M90 52h2c.418 9.147.334 17.224-5.687 24.563L84 79c0-3 0-3 1.922-6.129 2.48-4.156 2.936-8.048 3.328-12.808l.234-2.362c.187-1.899.353-3.8.516-5.701"/><path fill="#b7b24c" d="M17 26c1.207 1.656 1.207 1.656 2 4-1.3 2.656-1.3 2.656-3.312 5.5-3.135 4.407-3.135 4.407-4.688 9.5H9l-1 4c-1.055-3.188-.974-4.948.25-8.062l.766-2.036c1.071-2.07 2.278-3.33 3.984-4.902 2.197-2.62 3.397-4.62 4-8"/><path fill="#dad55b" d="m19 31 .875 1.938c.953 2.214.953 2.214 3.125 3.062l-5 1a491 491 0 0 0-.562 4.375l-.317 2.46C16.818 46.05 16.818 46.05 18 48l-5 1c1.045-6.709 2.698-12.056 6-18"/><path fill="#9e982c" d="M23.188 36.938 25 38l-1 6-6 1c-.8-3.287-1.097-4.71 0-8 3-1 3-1 5.188-.062"/><path fill="#a67c10" d="m67 51 4 2v3l2 1h-2l-1 4-7 1 .875-2.125C65.021 56.945 66.026 53.991 67 51"/><path fill="#d7d5b6" d="M7 68c2.78 2.383 4.353 4.576 5.813 7.875C14.927 80.411 18.03 83.057 22 86l-4 1C11.89 80.978 7.978 76.665 7 68"/><path fill="#9d7009" d="M60 63h2l-1 8h-4l-1 2v-2l-4-1v-3l3.438-1.437c3.32-1.2 3.32-1.2 4.562-2.563"/><path fill="#e4e18d" d="M57 13c6.75-.125 6.75-.125 9 1v2l2.125.688C71.693 18.317 74.065 20.406 77 23l-1 2-1.54-1.242C70.478 20.639 67.054 18.083 62 17l-2 1-3-2z"/><path fill="#6f5e16" d="M67 71c-2.77 3.077-5.029 4.778-9 6h-3c.506-2.169 1-4 2-6 3.477-1.417 6.403-.736 10 0"/><path fill="#ebd937" d="m34 44 12 3-1 2c-2.554.315-5.08.38-7.652.46-2.525.293-2.525.293-3.664 2.58L33 54v-2l-2-1z"/><path fill="#dcd75d" d="M80 31c3.504 3.037 4.938 5.485 6 10 .075 2.332.093 4.669 0 7l-3-1-1-11-4-1z"/><path fill="#986802" d="m39 64 10 3-1 3h-4l-1 2-5-2 2-1z"/><path fill="#eeedd0" d="M2 44h1l.332 3.656.48 4.844.213 2.398c.421 4.107 1.066 7.667 2.612 11.508C8 70 8 70 7 73l-2-5-2 2a43 43 0 0 1-1.098-10.082l.01-2.822.026-2.908.013-2.967Q1.97 47.61 2 44"/><path fill="#ccca97" d="M94 39c2.522 5.044 2.367 8.894 2.375 14.438l.074 2.853c.02 4.515.012 6.989-2.472 10.87-.653.606-1.305 1.213-1.977 1.839l1-8h2z"/><path fill="#faf59a" d="m50 39 .938 1.938c.897 1.998.897 1.998 2.062 3.062a80 80 0 0 0 4.875-.437C60.626 43.246 63.227 43 66 43l-1 2c-2.547.633-2.547.633-5.75 1.125l-3.172.508c-2.734.326-5.33.438-8.078.367z"/><path fill="#c0bd77" d="M89 33c4.12 3.021 4.876 6.186 5.695 10.984.573 5.665.452 11.331.305 17.016h-1V51l-3-1 2-1-1-11h-2z"/><path fill="#bcb97f" d="m5 45 1 4 4 1-2 1q-.04 3.093-.062 6.188l-.036 3.48C7.988 63.593 8.322 66.163 9 69c-2-1-2-1-3.125-4.125C4.357 58.402 4.845 51.606 5 45"/><path fill="#f1f0b7" d="M72 9c4.568.878 6.52 1.385 9.438 5.125L83 17l-4-1-1 2c-2.375-.312-2.375-.312-5-1l-2-3 4 1c0-2.762-1.314-3.893-3-6"/><path fill="#d2d1b5" d="M22 87c4.463 1.415 8.71 3.128 13 5a605 605 0 0 0 5 2v1c-6.603.72-9.83-.668-15.215-4.492C23 89 23 89 22 87"/><path fill="#e4e29b" d="M81 17c3.348 1.116 4.327 2.149 6.625 4.75l1.852 2.047C91.16 26.233 91.623 28.087 92 31c-5.472-4.058-8.3-7.738-11-14"/><path fill="#ede65e" d="M86 49h5l1 2-6 1-1 7h-1v-6l-7 1c3.188-2.125 5.265-2.502 9-3z"/><path fill="#f0efb5" d="m24 11 2 1v3l4-1c-1.869 3.738-6.343 5.24-10 7 .565-3.958 1.809-6.666 4-10"/><path fill="#6a6539" d="M82 67c1 3 1 3 .313 5.5-1.427 2.717-2.747 3.875-5.313 5.5l-2-2z"/><path fill="#807c60" d="m20 80 7 1v2l3.375-.125C34 83 34 83 36 85c-5.785.347-9.966.272-15-3z"/><path fill="#997009" d="m74 39 2 1-2 2 1 2h-5l-1 5h-2l-1-5a351 351 0 0 1 3.875-2.562l2.18-1.442z"/><path fill="#f4f2a2" d="m76 26 3 1c1.125 5.75 1.125 5.75 0 8h-2l-3-7z"/><path fill="#cabc6a" d="M44 22h1v5c-9 3-9 3-12 2v-2q1.903-.758 3.813-1.5l2.144-.844C41 24 41 24 44 24z"/><path fill="#88845e" d="M11 67c1.875.625 1.875.625 4 2a127 127 0 0 1 2 6c1.541 1.71 1.541 1.71 3 3v2c-3.517-1.172-4.7-2.106-7-5-.91-2.658-1.447-5.233-2-8"/><path fill="#d3be81" d="m29 37 2 2c3.1-.322 3.1-.322 6-1l-2 6-5-1z"/><path fill="#c4c3a6" d="M72 91c-5.338 1.925-10.35 3.399-16 4l1-2c2.871-.887 2.871-.887 6.438-1.687l3.558-.825C70 90 70 90 72 91"/><path fill="#767139" d="M85 60h1q.039 2.188.063 4.375l.035 2.46C86 69 86 69 85 71l-3-1c.507-3.719 1.116-6.735 3-10"/><path fill="#efedae" d="m40.625 10.625 2.352-.023L45 11l2 3H32c4.554-3.416 4.554-3.416 8.625-3.375"/><path fill="#fbfbe7" d="M63 6c2.938.813 2.938.813 6 2l1 3-15-1V9l9-1z"/><path fill="#f7f7e6" d="M97 58c2 3 2 3 1.75 6.563C98 68 98 68 96 70c-1.117-4.69-.806-7.538 1-12"/><path fill="#aca741" d="M18 30c1 2 1 2 .363 4.313L17.313 37 16.3 39.688C14.828 42.306 13.77 42.973 11 44c.56-3.99 1.757-6.526 4.063-9.812l1.66-2.395z"/><path fill="#b5b162" d="M89 38h3c1.283 3.85 1.066 6.947 1 11-4-6-4-6-4-11"/><path fill="#cac665" d="M17 22c.684 1.766.684 1.766 1 4-1.215 1.922-1.215 1.922-2.937 3.75l-1.715 1.86L12 33l-1-2c1.701-3.233 3.76-6.12 6-9"/><path fill="#908b5b" d="m47 83 1 5-9-2v-2c2.928-.976 4.956-1.082 8-1"/><path fill="#b0ae89" d="M9 69c4.234 3.607 6.47 8.146 9 13-3.654-1.436-4.94-3.058-6.75-6.5l-1.297-2.406C9 71 9 71 9 69"/><path fill="#635c19" d="m78 62 3 1-2.437 2.375C76.013 67.72 76.013 67.72 75 70h-2l-1-5 2.438-.937C76.89 63.237 76.89 63.237 78 62"/><path fill="#a7a350" d="M88 40c2.503 2.938 3.47 5.179 4 9h-5l2-1-1.062-1.75c-1.087-2.608-.869-3.644.062-6.25"/><path fill="#eee271" d="M53.563 28.938 56 29l-4 1v3l7 2-8 2a177 177 0 0 1-1-7c1-1 1-1 3.563-1.062"/><path fill="#b1ad5e" d="M10 37h1v8H9l-1 4c-1.124-3.304-.896-5.05.438-8.25l.87-2.14z"/><path fill="#c3c1a4" d="M35 92c4.824-.193 8.496.243 13 2v1c-4.921.167-8.503.248-13-2z"/><path fill="#7f620e" d="M64 71c-2 3-2 3-4.625 3.688L57 75l-1-2c1-2 1-2 2.875-2.687C61 70 61 70 64 71"/><path fill="#c7b667" d="M56 24c3.775 1.09 6.47 1.908 9 5l-2 1-5-2-2 1z"/><path fill="#846a13" d="M26 56c3 2 3 2 3.688 5.125L30 64l-3 1c-1-1-1-1-1.098-2.848z"/><path fill="#966501" d="m28 42 6 2-1 5-3-1c-1.187-3.062-1.187-3.062-2-6"/><path fill="#c0bb5b" d="M16 28c0 4.033-1.609 5.835-4 9h-2c0-4 0-4 1.313-5.484z"/><path fill="#996803" d="m67 51 3 1v4l-2 1 1 2h-3z"/><path fill="#d3be80" d="m63 38 4 1v2l3 1-4 2c-3-3.75-3-3.75-3-6"/><path fill="#fdfbb4" d="M50 39h1l2 8h-5z"/><path fill="#8c6b0f" d="m73 56 3 1-2 1a134 134 0 0 0-3 6c-.934-3.01-1.044-3.867 0-7z"/><path fill="#fafadf" d="m33 7 2 1v3l-6 1V9c1.875-1.062 1.875-1.062 4-2"/><path fill="#fbfada" d="M52 2c7.429-.286 7.429-.286 11 2-4.293 1.263-6.878.63-11-1z"/><path fill="#fbfbf5" d="m33 96 11 2v1c-1.457.081-2.916.14-4.375.188l-2.46.105L35 99z"/><path fill="#a1740c" d="m39 64 4 1c-1 3-1 3-3 6l-2-2h2z"/><path fill="#b8b24b" d="M81 53h3c1.25 7.625 1.25 7.625-1 11-1.238-3.576-.75-6.337 0-10z"/></svg>