<svg xmlns="http://www.w3.org/2000/svg" width="100" height="100"><path fill="#8e96c2" d="M77.688 7.125C88.473 14.465 97.325 25.978 100 39c.853 11.077 1.55 23.06-4 33l-1.578 2.848C88.623 84.55 82.036 90.818 72 96l-2.312 1.262c-10.444 4.77-26.029 4.791-36.875 1.175C30.37 97.318 30.37 97.318 28 96l-2.777-1.473C12.91 87.383 5.51 77.06.863 63.742-2.463 49.324-.27 35.007 7.125 22.312 23.093-1.215 53.598-6.91 77.688 7.126"/><path fill="#3b4dab" d="M17 26c1.065 1.597 2.118 3.205 3.078 4.867C22.844 35.607 25.598 38.724 30 42c-1.715 5.76-4.5 10.53-7.54 15.684C20.81 61.432 20.65 63.945 21 68c1.384 3.384 2.615 4.734 5.625 6.813C30.896 76.315 34.521 76.745 39 76c3.19-1.74 5.447-3.447 8-6 .937-6.673-.765-9.937-4.687-15.312L41 53l1-2 3 2c2.344.317 2.344.317 4.875.25l2.555.016C55.25 52.974 57.425 52.163 60 51l-1.496 2.125C54.623 58.873 52.132 63.011 52 70h2l1.875 2.438c2.666 3.214 4.266 3.356 8.273 3.8C69.613 76.42 72.73 75.75 77 72c2.328-2.963 2.336-6.07 2.308-9.776-.558-4.033-2.72-7.151-4.87-10.536A129 129 0 0 1 70 44c1.091-3.274 1.756-3.83 4.375-5.875C77.328 35.7 79.269 33.461 81 30c2.25.438 2.25.438 5 2 1.226 2.113 2.122 4.241 3.008 6.516.98 2.602.98 2.602 2.582 5.359 2.796 6.198 2.363 13.587.613 20.082A70 70 0 0 1 89 71l-1.437 2.813C85.62 76.532 83.486 78.769 81 81h-2v2c-8.48 5.653-22.582 4.43-32.57 4.48-2.325.02-4.646.083-6.97.145-13.429.19-13.429.19-19.068-5.062L19 81l-2.5-2.75C15 76 15 76 15 74h-2c-5.253-9.631-7.296-18.967-6-30 1.929-6.171 4.442-10.47 9-15z"/><path fill="#f8fcf8" d="M77.688 7.125C88.473 14.465 97.325 25.978 100 39c.853 11.077 1.55 23.06-4 33l-1.578 2.848C88.623 84.55 82.036 90.818 72 96l-2.312 1.262c-10.444 4.77-26.029 4.791-36.875 1.175C30.37 97.318 30.37 97.318 28 96l-2.777-1.473C12.91 87.383 5.51 77.06.863 63.742-2.463 49.324-.27 35.007 7.125 22.312 23.093-1.215 53.598-6.91 77.688 7.126M22 17l1-4c-5.241 2.541-8.398 6.572-12 11l-1.453 1.656C2.317 34.541 1.969 47.075 3 58c1.64 7.92 4.717 13.95 10 20l1.766 2.16c4.786 5.733 9.346 8.6 16.297 11.403 5.772 2.336 5.772 2.336 7.796 3.574 3.357 1.354 6.765 1.158 10.328 1.113l2.313-.02c8.103-.15 14.489-1.424 21.648-5.289C75 90 75 90 78.313 88.937 81.016 87.995 82.296 87.273 84 85v-2l1.813-.687C92.263 78.442 94.174 67.783 96 61l.535-1.762c2.43-11.699-.049-22.427-5.91-32.613C88.211 22.985 85.458 20.648 82 18a176 176 0 0 1-4-4v3l-2.687-1.5c-6.357-2.75-13.964-2.08-20.653-.922L52 15l-1-1c-11.276-3.38-18.465-1.916-29 3"/><path fill="#3c99f5" d="M30 43q3.159.676 6.313 1.375l3.55.773C43 46 43 46 46 48c4.594.547 8.13-.552 12.363-2.148C62.18 44.619 66.08 43.827 70 43a533 533 0 0 1 5 8l1.445 2.254C79.628 58.482 80.65 61.88 80 68c-1.87 4.569-4.616 6.808-9 9-4.936.705-9.583.469-14-2-1.812-1.5-1.812-1.5-3-3v-2h-2c-.923-7.123 1.182-10.446 5.469-16.094L59 52c-.833.49-.833.49-1.684.988-2.652 1.159-4.498 1.247-7.379 1.2l-2.597-.02C45 54 45 54 42 53l1.313 1.688c5.127 7.027 5.127 7.027 5.5 11.5C47.72 71.308 45.269 73.208 41 76c-3.453 1.727-7.217 1.363-11 1-3.636-1.414-6.557-2.914-9-6-1.694-5.083-1.596-8.722.68-13.605a166 166 0 0 1 2.195-3.583q1.09-1.801 2.18-3.605L28 47a118 118 0 0 0 2-4"/><path fill="#80f9ff" d="m42 12 2.281-.031c2.8.186 4.339.51 6.719 2.031 1.922 3.334 3.27 6.762 4.582 10.363 1.612 4.133 3.709 7.408 6.316 10.965C63 37 63 37 63 39h2l.188-1.812C66.324 34.128 68.173 33.45 71 32l-.219 1.898-.281 2.477-.281 2.46C69.966 40.97 69.966 40.97 70 43l-3.43 1.059-4.445 1.379-2.262.697C55.85 47.354 55.85 47.354 52 49c-4.051.259-5.543.304-9-2l-3.687-.875C30.797 44.066 24.98 40.325 20 33c-1.274-2.657-2.14-5.167-3-8l-1.68 2.406-2.195 3.094-2.18 3.094L9 36H7c-1.03 5.284-1.316 10.511-1.562 15.875l-.131 2.664Q5.149 57.77 5 61c-3.88-5.82-2.447-14.565-1.57-21.305C5.752 28.66 12.093 20.695 21 14l2-1v3l2.125-.875C31.091 12.79 35.605 11.381 42 12"/><path fill="#162595" d="M21 37c3.865.414 6.127 2.526 9 5-1.715 5.76-4.5 10.53-7.54 15.684C20.81 61.432 20.65 63.945 21 68c1.384 3.384 2.615 4.734 5.625 6.813C30.896 76.315 34.521 76.745 39 76c3.19-1.74 5.447-3.447 8-6 .937-6.673-.765-9.937-4.687-15.312L41 53l1-2 3 2c2.344.317 2.344.317 4.875.25l2.555.016C55.25 52.974 57.425 52.163 60 51l-1.496 2.125C54.623 58.873 52.132 63.011 52 70h2l1.875 2.438c2.666 3.214 4.266 3.356 8.273 3.8C69.613 76.42 72.73 75.75 77 72c2.328-2.963 2.336-6.07 2.308-9.776-.558-4.033-2.72-7.151-4.87-10.536A129 129 0 0 1 70 44l1-3c2.063-.687 2.063-.687 4-1l-.281 3.457c0 5.244 2.154 8.816 4.781 13.23C84.882 65.876 84.882 65.876 84 70c-1.733 2.208-3.662 3.363-6 5h-2v2l-1.545.719q-3.447 1.606-6.892 3.219l-2.432 1.13-2.315 1.084-2.142 1c-1.663.733-1.663.733-2.674 1.848-9.606.765-17.177.025-26-4l-2.5-1.016C21.028 77.473 21.028 77.473 18 74c-1.912-5.189-2.957-10.582-4-16l-.562-2.832c-1.163-7.917-1.163-7.917 1.023-11.691A55.5 55.5 0 0 1 20 38z"/><path fill="#fafdfa" d="m50.25-.312 2.719-.05 2.61-.001 2.356-.01C60.487.088 61.373 1.036 63 3l-5 1 8 4v2l-14 1-1 3c-6.75.125-6.75.125-9-1-7.785-.881-13.916 1.976-21 5v-3c-3.118.646-3.118.646-4 3l-1 2-3 1c-1.09 1.832-1.09 1.832-2 4l-2.5 4.188C3.467 38.348 3.471 47.739 4 58l1 3c.128 2.674.044 5.321 0 8-3.258-2.172-3.718-3.225-4.634-6.909-2.67-15.248-.098-29.675 8.599-42.49C19.332 6.35 33.59-.372 50.25-.311"/><path fill="#82c1c7" d="M48 15c-.79 9.47-5.68 16.34-11 24l-6-5v9c-5.147-3.112-9.246-6.375-11.937-11.937-.108-3.533.529-5.796 1.937-9.063 7.76-8.138 16.465-10.057 27-7"/><path fill="#80bcc2" d="m75 18 2.195 1.313C79 21 79 21 79.566 23.418 79.557 30.045 78.7 35.066 74 40c-2.172 1.215-2.172 1.215-4 2-1-1-1-1-1.062-4L69 35v-1c-3.248 1.722-3.248 1.722-4 5h-2a128 128 0 0 1-4.5-7.187l-1.223-2.042C52 20.845 52 20.845 52 15c8.711-1.787 15.384-1.876 23 3"/><path fill="#2367a9" d="M82 32c1.953.691 1.953.691 4 2 .61 2.215.61 2.215.75 4.938l.164 3.011L87 45l.086 2.645c.042 2.79-.01 5.565-.086 8.355l-.05 3.781C86.682 67.498 86.411 72.336 81 78l-1.8 2.102c-2.72 2.348-4.538 2.631-8.075 3.085l-3.055.418L65 84q-3.002.487-6 1c2.424-2.424 4.874-3.587 7.938-5.125l3.214-1.633C73 77 73 77 76 77v-2c5.476-5 5.476-5 8-5-1.05-3.503-2.315-6.759-3.945-10.023L78.98 57.82q-1.103-2.19-2.234-4.367C74.236 48.36 73.397 44.687 74 39c2.313-3 2.313-3 5-5h3z"/><path fill="#3294fc" d="m30 43 3 1c-1.143 4.23-2.931 7.681-5.125 11.438C25.447 59.818 23.959 62.9 25 68c1.73 2.482 1.73 2.482 4 4h2l-5-4c.188-1.75.188-1.75 1-4l2.438-1.937C32.252 59.797 32.956 58.394 34 55l1-3c3.249 4.975 4.5 7.882 4 14l3 1-7 6 7-2V60l2 1q.039 2.656.063 5.313l.035 2.988C44 72 44 72 43 75c-4.103 2.679-8.264 2.543-13 2-3.636-1.414-6.557-2.914-9-6-1.694-5.083-1.596-8.722.68-13.605a166 166 0 0 1 2.195-3.583q1.09-1.801 2.18-3.605L28 47a118 118 0 0 0 2-4"/><path fill="#396cb2" d="M81 30c2.25.438 2.25.438 5 2 1.226 2.113 2.122 4.241 3.008 6.516.98 2.602.98 2.602 2.582 5.359 2.796 6.198 2.363 13.587.613 20.082A70 70 0 0 1 89 71l-1.437 2.813C85.62 76.532 83.486 78.769 81 81h-2v2c-8.48 5.653-22.582 4.43-32.57 4.48-2.325.02-4.646.083-6.97.145-13.433.19-13.433.19-19.02-5.037L19 81l-3-3 1-2 4.297 4.492C27.239 85.752 35.487 84.726 43 85l2.051.087c7.39.287 13.67.076 20.652-2.419C69.506 81.562 73.066 81.81 77 82l.875-1.871c1.34-2.537 3.072-4.14 5.125-6.129 6.345-9.517 3.1-28.788 3-40h-4l-3-1z"/><path fill="#adcbd6" d="M67 14c3.95.551 7.35 1.39 11 3l1-3 1.426 1.645 1.886 2.168 1.864 2.144c1.73 1.992 1.73 1.992 3.363 3.508 1.841 1.935 3.138 4.003 4.523 6.285l1.536 2.484C98.835 42.564 98.468 56.072 95 67c-1.625 3.125-1.625 3.125-3 5-.562-1.937-.562-1.937-1-4l1-1c.28-3.22.232-6.456.25-9.687l.063-2.725C92.344 49.209 91.828 45.72 89 41c-.481-1.41-.943-2.825-1.375-4.25-1.105-3.096-1.298-3.567-4.312-5.25L81 31l-4 6c0-3 0-3 1-5 .07-1.874.084-3.75.063-5.625l-.028-3.04L78 21l-1.898-1.023-2.477-1.352-2.46-1.336C69 16 69 16 67 14"/><path fill="#a4aac8" d="M90 72c.645 1.766.645 1.766 1 4-.926 1.922-.926 1.922-2.312 3.75l-1.364 1.86L86 83h-2l-.875 1.875c-1.39 2.626-2.43 3.882-5.262 4.871l-2.55.692c-3.15.894-6.141 1.84-9.126 3.187-8.372 3.611-19.83 4.033-28.57 1.328C35 93.741 32.514 92.411 30 91l-2.672-.977C25 89 25 89 23 86l1.523.983c3.357 1.378 6.532 1.303 10.102 1.283l2.25.005q2.361.002 4.721-.01c2.368-.01 4.735 0 7.103.012C66.71 88.56 66.71 88.56 83 82c2.671-3.146 4.895-6.454 7-10"/><path fill="#f5f6f4" d="M5 65c2.178 2.178 3.434 4.351 5 7q1.725 2.58 3.5 5.125l1.781 2.57c4.233 5.675 9.267 8.24 15.782 10.868 5.772 2.336 5.772 2.336 7.796 3.574 3.357 1.354 6.765 1.158 10.328 1.113l2.313-.02c8.192-.15 14.638-1.368 21.773-5.523C75 89 75 89 78 90q-3.372 1.725-6.75 3.438l-1.922.986c-7.717 3.899-14.325 3.886-22.89 4.013l-3.713.14c-12.453.152-20.509-4.68-29.424-13.07C9.033 80.857 3.67 74.53 3 68z"/><path fill="#205ca1" d="M21 37c3.865.414 6.127 2.526 9 5-1.348 4.36-3.05 8.313-5.125 12.375l-1.633 3.21L22 60h-2l-2 6h-2l-.375-3.062c-.532-3.913-.532-3.913-1.687-7.5C12.34 49.585 12.34 49.585 13 46c2.377-3.287 5.138-6.138 8-9"/><path fill="#316fff" d="M33 44q2.409.426 4.813.875l2.707.492C43 46 43 46 46 48c4.132.275 7.943-.227 12-1-1.852 1.933-3.341 2.924-6.023 3.234-4.74.033-9.31-.44-13.977-1.234.328 4.097.707 6.574 3.063 10 2.366 3.664 2.503 5.715 1.937 10-1.777 2.577-4.082 3.906-7 5l-3-1 8-6-2-1c-.562-1.926-.562-1.926-1-4.312-.597-3.228-1.417-5.805-3-8.688l-.187 2.188c-1.065 3.684-3 5.273-5.813 7.812l-2 2c.253 3.789 2.278 5.542 5 8-2.634-.376-4.072-1.052-6.25-2.625C23.272 67.012 23.586 65.144 24 61c1.234-3.136 2.832-6.014 4.5-8.937l1.3-2.362A581 581 0 0 1 33 44"/><path fill="#a7dbd6" d="m49 14-1 3v-2c-9.233-1.6-15.703-.46-23.5 4.813-2.848 2.254-3.427 2.94-4.5 6.562V29h-2l-1-4-1.68 2.406-2.195 3.094-2.18 3.094L9 36H7c-1.03 5.284-1.316 10.511-1.562 15.875l-.131 2.664Q5.149 57.77 5 61c-3.88-5.82-2.447-14.565-1.57-21.305C5.752 28.66 12.093 20.695 21 14l2-1v3l2.125-.875C33.89 11.695 40.008 11.003 49 14"/><path fill="#f7f8f6" d="M95 35c2.418 3.628 3.127 5.23 3.133 9.5l.004 2.688L98.125 50l.012 2.813-.004 2.687-.004 2.469C98 60 98 60 97 62h2c-1.505 11.698-9.235 21.567-18.262 28.816C70.748 97.773 62 100.18 50 100.187l-3.023.038-2.914.005-2.653.013c-2.568-.259-4.198-.948-6.41-2.243 4.34-.916 8.326-1.02 12.725-.883 14.112.405 25.322-3.201 36.15-12.617C89.981 77.316 92.582 69.982 95 61l.547-1.746c.644-3.205.585-6.3.578-9.566l.008-3.864C96.003 42.112 95.596 38.658 95 35"/><path fill="#608fbe" d="M17 26a61 61 0 0 1 4.125 7.188l1.07 2.167L23 37a654 654 0 0 1-3.812 3.438l-2.145 1.933C15 44 15 44 12 45c-.681 1.892-.681 1.892-1 4l-1 3c-.342 5.751.015 11.334 1 17-4.76-7.14-4.977-16.681-4-25 1.929-6.171 4.442-10.47 9-15z"/><path fill="#d2eee4" d="M44 4 33 9l2.992.078 3.883.172 3.867.14C47 10 47 10 48.445 12.048L49 14l-3-.5c-9.73-1.28-15.955.64-25 4.5v-3c-3.118.646-3.118.646-4 3l-1 2-3 1a89 89 0 0 0-2 4c-1.625 1.75-1.625 1.75-3 3 1.408-4.481 3.631-6.792 7-10l1.688-2.437C22.919 8.657 34.647 1.662 44 4"/><path fill="#7dc7f9" d="M43 28h4l-.625 3.375L46 35l2 2v3l-2.437.75c-2.734.972-2.734.972-3.376 3.375L42 46c-8.074-.932-8.074-.932-11-3-.61-2.383-.61-2.383-.75-5.125l-.172-2.758L30 33a56.5 56.5 0 0 1 7 4l1.172-1.969L39.75 32.5l1.547-2.531z"/><path fill="#42f4ff" d="M34 52c2.359 2.145 3.911 3.986 5 7 .078 2.332.09 4.668 0 7l3 1c-2 2-3.596 3.577-6 5-3.673 0-5.92-.291-9-2.312C26 68 26 68 26 66.062c1-2.062 1-2.062 3.438-4C32.245 59.803 33.035 58.422 34 55z"/><path fill="#ceece3" d="M72 9c8.86 3.033 16.199 10.1 21 18l1.375 2.188c.79 2.288.278 3.526-.375 5.812a984 984 0 0 1-3-4.875l-1.687-2.742C88 25 88 25 88 23l-1.687-.687C83.368 20.64 81.318 18.447 79 16l-1 2-2.687-1.5C67.94 13.317 58.725 14.563 51 16v-3c3.993-1.888 7.163-2.244 11.563-2.187l3.378.019c2.535.14 4.646.43 7.059 1.168z"/><path fill="#41f7ff" d="M65 53h1l.625 2.625c1.525 3.742 3.185 5.358 6.23 7.883C74 65 74 65 73.777 67.066 72.674 69.81 71.65 70.676 69 72c-3.575-.125-6.028-.279-8.937-2.437C59 68 59 68 59 66l2-1c.615-2.02.615-2.02 1-4.375.602-3.3 1.076-4.74 3-7.625"/><path fill="#eef4f2" d="m6 25 3 1-1.375 3.438C4.082 39.076 1.665 50.996 5 61c.128 2.674.044 5.321 0 8-3.258-2.172-3.718-3.225-4.634-6.909-.686-3.918-.748-7.808-.741-11.779V47.65C-.229 39.332 1.335 31.997 6 25"/><path fill="#c1c6d4" d="M90 72c.645 1.766.645 1.766 1 4-.926 1.922-.926 1.922-2.312 3.75l-1.364 1.86L86 83h-2l-.875 1.875c-1.39 2.626-2.43 3.882-5.262 4.871l-2.55.692c-3.15.894-6.141 1.84-9.126 3.187-5.523 2.383-10.696 2.584-16.624 2.625l-2.237.063c-4.868.034-8.05-.738-12.326-3.313 3.75-1.125 3.75-1.125 6 0 10.227.644 18.687.606 28-4a175 175 0 0 1 4.813-1.5c8.1-2.71 11.63-8.619 16.187-15.5"/><path fill="#737cb9" d="m85 73 1 3a141 141 0 0 1-5 5h-2v2c-8.48 5.653-22.582 4.43-32.57 4.48-2.325.02-4.646.083-6.97.145-13.433.19-13.433.19-19.02-5.037L19 81l-3-3 1-2 4.297 4.492C27.239 85.752 35.487 84.726 43 85l2.051.087c7.39.287 13.67.076 20.652-2.419C69.506 81.562 73.066 81.81 77 82v-2l2.875-1.25c3.132-1.754 3.99-2.459 5.125-5.75"/><path fill="#243167" d="m41 51 1.691.984c2.606 1.147 4.413 1.283 7.246 1.266l2.528.016C55.269 52.972 57.44 52.154 60 51l-1.496 2.125C54.623 58.873 52.132 63.011 52 70l-2-1-4 4 1-3c.806-6.679-.668-9.777-4.687-15.117C41 53 41 53 41 51"/><path fill="#7ec9f6" d="M51 27c9.122 6.642 9.122 6.642 12 10v2h2l.188-1.812C66.324 34.128 68.173 33.45 71 32l-.219 1.898-.281 2.477-.281 2.46C69.966 40.97 69.966 40.97 70 43a665 665 0 0 1-4.312 1.5l-2.426.844C61 46 61 46 58 46l.688-3.187c.59-3.724.59-3.724-.813-6.626C55.747 33.706 54.103 32.924 51 32z"/><path fill="#79b8ca" d="M82 22c5.815 3.066 8.29 7.13 11 13 .872 3.035.986 5.85 1 9l.021 1.953c.047 4.683.03 9.364-.021 14.047h-1l-.113-2.633C92.534 51.19 92.259 46.39 89 41a221 221 0 0 1-1.375-4.187c-1.111-3.108-1.523-3.737-4.312-5.813L81 30z"/><path fill="#e1e3e4" d="M78 90q-3.372 1.725-6.75 3.438l-1.922.986c-6.582 3.325-11.575 3.758-18.828 3.763l-2.59.038-2.504.005-2.271.013C40.709 97.967 39.125 97.169 37 96a77 77 0 0 0-4.062-.937C29.828 94.339 27.947 93.68 26 91c1.707-.652 1.707-.652 4-1 2.2.996 2.2.996 4.688 2.438 9.083 4.389 20.755 3.839 30.386 1.277 2.881-1.07 5.546-2.463 8.2-4.008C75 89 75 89 78 90"/><path fill="#263ca8" d="m75 40-.281 3.457c0 5.244 2.154 8.816 4.781 13.23C84.882 65.876 84.882 65.876 84 70c-1.733 2.208-3.662 3.363-6 5h-2v2l-4 1-1-2 2.875-1.75C77.459 71.77 77.459 71.77 79 68c.615-6.873-.911-10.567-4.562-16.312A129 129 0 0 1 70 44l1-3c2-1 2-1 4-1"/><path fill="#4957ae" d="M85 62h1c.605 5.933.26 9.675-3.516 14.395L81 78l-1.805 2.125c-2.718 2.321-4.55 2.61-8.07 3.063l-3.055.417L65 84q-3.002.487-6 1c2.424-2.424 4.874-3.587 7.938-5.125l3.214-1.633C73 77 73 77 76 77v-2c5.476-5 5.476-5 8-5l-.062-2.875C84 64 84 64 85 62"/><path fill="#3cb8fb" d="M71 44c1.985 2.257 3.303 4.935 4.75 7.563l1.246 2.095C79.824 58.698 80.566 62.231 80 68c-1.5 3-1.5 3-3 5v-3c-1.089-10.061-5.22-19.365-13-26 3.143-1.048 4.016-1.172 7 0"/><path fill="#2d6bff" d="M63 49h2v2h2v2l-1.437 1.336c-2.398 2.553-2.415 5.334-2.938 8.703L62 65l-3 1c3.126 3.394 5.565 5.606 10 7v1c-4.14.325-6.34.43-9.875-1.875-2.417-2.417-3.02-3.392-3.5-6.75C56.129 60.838 58.077 57.489 61 54h2z"/><path fill="#608abd" d="M81 30c2.25.438 2.25.438 5 2 1.226 2.113 2.122 4.241 3.008 6.516.978 2.602.978 2.602 2.586 5.351 2.984 6.647 2.447 15.232-.094 22.008L90 69h-1a100 100 0 0 1 0-5l1-1c.099-2.165.13-4.333.125-6.5l.008-3.594c.2-2.799.2-2.799-1.133-3.906a100 100 0 0 1 0-5h-2l-1-10h-4l-3-1z"/><path fill="#6f99a8" d="m44 24 1 3c-1.652 2.918-1.652 2.918-3.937 6.188A462.572 462.572 0 0 1 37 39c-2.649-2.579-4.945-4.917-7.001-8.001z"/><path fill="#3099ff" d="M70 51c5.088 5.965 7.751 11.17 8 19-1.217 2.946-2.108 4.447-4.816 6.125-2.482.994-4.273 1.078-6.934 1l-2.422-.055L62 77l2-1v-2l3.25-.75c3.795-1.265 5.544-1.941 7.75-5.25 0-3.836-1.14-6.409-3.062-9.625C70 55 70 55 70 51"/><path fill="#1b30a1" d="M20 58c1 3 1 3 .875 6.375.138 4.005.58 5.572 3.125 8.625 3.067 1.826 3.067 1.826 6 3v3c-2 1-2 1-4.312.313C22.566 77.788 20.403 76.537 18 74c-1.696-6.359-.648-10.068 2-16"/><path fill="#e7f6ec" d="M57 3c5.682.484 11.21 1.762 16 5 .758 2.137.758 2.137 1 4l-3 1-2-1c-2.123-.097-4.25-.13-6.375-.125l-3.46-.008c-2.597.11-4.701.368-7.165 1.133v-2c2.765-1.382 5.046-1.095 8.125-1.062l3.32.027L66 10V8l-2.25-.875A82 82 0 0 1 57 4z"/><path fill="#3cb3fa" d="m30 43 3 1c-1.733 5.774-4.482 10.656-7.441 15.879-1.403 2.81-2.14 5.033-2.559 8.121h-1c-.913-8.89 1.014-13.753 6-21 .69-1.32 1.367-2.65 2-4"/><path fill="#eaefee" d="M95 35c2.418 3.628 3.127 5.23 3.133 9.5l.004 2.688L98.125 50l.012 2.813-.004 2.687-.004 2.469C98 60 98 60 97 62h2c-.476 4.192-1.033 6.923-4 10-2.187 1.25-2.187 1.25-4 2l.875-2.562C93.007 67.978 94.026 64.506 95 61l.55-1.754c.641-3.202.582-6.296.575-9.559l.008-3.863C96.003 42.112 95.596 38.658 95 35"/><path fill="#318fb8" d="M18 32c3 1 3 1 4.188 3.063L23 37a654 654 0 0 1-3.812 3.438l-2.145 1.933C15 44 15 44 12 45l-1 3 1-9 3-1c.59-1.946.59-1.946 1-4z"/><path fill="#7e9fc5" d="m17 24 1 2c-1.255 2.447-2.462 4.493-4.473 6.387-4.601 4.86-5.802 11.58-5.902 18.05C7.81 56.42 8.691 62.168 10 68c-2-1-2-1-3.105-3.508-1.08-4.213-1.226-8.039-1.207-12.367l-.05-2.316C5.633 41.922 7.779 36.039 13 30a261 261 0 0 0 3-5z"/><path fill="#bcd3da" d="M9 27c1.086 3.237.94 4.932-.375 8.063l-.836 2.035L7 39c-.908 2.725-1.184 4.622-1.316 7.45l-.127 2.568-.12 2.67-.13 2.705Q5.148 57.696 5 61c-3.898-5.847-2.53-14.73-1.43-21.516C4.715 34.594 5.74 30.9 9 27"/><path fill="#f2f3f3" d="M5 65c2.184 2.184 3.43 4.342 5 7l2.188 3.188C14 78 14 78 14 80l-4 1a577 577 0 0 1-2.937-4.25L5.41 74.36C4.076 72.126 3.25 70.58 3 68z"/><path fill="#2564ff" d="M30 54h3c.375 2.688.375 2.688 0 6-1.824 2.064-3.728 3.39-6 5 .542 3.796 2.201 5.472 5 8-2.634-.376-4.072-1.052-6.25-2.625C23.389 67.171 23.701 64.883 24 61h3l.938-2.375C29 56 29 56 30 54"/><path fill="#f9fbf9" d="M2 39c1.918 3.836.986 8.918.873 13.172C2.807 56.915 3.299 60.504 5 65c-.375 2.375-.375 2.375-1 4C.968 64.255-.134 60.839-.098 55.234l.01-2.695.025-2.789.014-2.836Q-.03 43.456 0 40z"/><path fill="#546cb5" d="M90 50h1q.039 3.219.063 6.438l.035 3.62C91 63 91 63 90 64l-.312 3.438L89 71c-1.937 1.125-1.937 1.125-4 2l-.937 2.5C83 78 83 78 80.375 79.313L78 80l2.25-2.562c4.559-5.544 7.025-9.908 7.535-17.149C88.118 56.74 89.063 53.434 90 50"/><path fill="#526fb6" d="M10 49h1l.367 3.36.508 4.39.238 2.21C12.557 62.719 13.136 65.708 15 69c.125 2.75.125 2.75 0 5h-2c-4.294-6.44-4.587-14.435-4-22z"/><path fill="#72a1ff" d="M44 32c4 4.625 4 4.625 4 8l-2.437.75c-2.734.972-2.734.972-3.376 3.375L42 46h-5c1.46-5.31 3.983-9.463 7-14"/><path fill="#8fcad1" d="M18 19h1v10l-2-4-8 11c-1-4-1-4 .125-6.937C11.095 25.846 13.237 23.55 16 21z"/><path fill="#e7f6ed" d="M44 4 33 9l14 1 1 3-1.547-.465c-3.228-.704-6.407-.884-9.703-1.098l-3.828-.253L30 11l-1-4c5.478-2.93 8.873-4.532 15-3"/><path fill="#2b69ff" d="M36 53c4.033 3.63 6.789 7.22 7.438 12.688C43 69 43 69 41.75 70.812c-1.901 1.29-3.593 2.38-5.75 3.188l-3-1 8-6-2-1c-.598-1.926-.598-1.926-1.062-4.312l-.473-2.364L37 57q-.486-2.004-1-4"/><path fill="#34dfff" d="M30 61v3l-1 1c2.967 1.648 5.656 2.443 9 3v3c-3.187.75-3.187.75-7 1-2.937-1.937-2.937-1.937-5-4 .564-3.27 1.5-4.826 4-7"/><path fill="#b1b6cd" d="M31 91c3.333-.03 6.667-.047 10-.062l2.832-.026c5.49-.02 10.737.275 16.168 1.088l-1 2c-19.532.383-19.532.383-28-2z"/><path fill="#d7d9de" d="M26 90c3.434.577 6.188 1.49 9.313 3 6.955 2.913 14.252 2.816 21.687 3v1c-23.653.749-23.653.749-29.79-4.543C26 91 26 91 26 90"/><path fill="#76b2ff" d="M51 27c6.372 3.944 9.8 7.764 12 15v2l-4 1 .188-2.687C58.975 38.552 58.35 36.917 56 34c-2.571-1.347-2.571-1.347-5-2z"/><path fill="#6e93a3" d="m55 23 2 2 2 .313c2 .687 2 .687 3.25 3C63 31 63 31 63 35l5-2-3 6h-2a98 98 0 0 1-4.125-6.312l-1.129-1.803C55 26.383 55 26.383 55 23"/><path fill="#33a3f5" d="M22 59c1.694 3.047 2.495 5.828 3.125 9.25l.508 2.703L26 73l6 2v1c-6.352-.489-6.352-.489-9.375-2.875C19.659 69.245 19.741 65.745 20 61z"/><path fill="#204f8d" d="m75 40-.312 3.375C74.638 48.966 77.28 53.26 80 58c-4.021-1.34-4.89-3.822-6.75-7.375l-.996-1.79C71.416 47.268 70.7 45.636 70 44l1-3c2-1 2-1 4-1"/><path fill="#b8e2dd" d="M22 13v3h1l3 1-5 2-1 10h-1l-1-9c-4.142 2.071-4.291 2.217-6 6l-2 1c2.618-5.671 6.753-10.57 12-14"/><path fill="#97fbfc" d="M49 14h2c1.604 3.508 2.22 6.144 2 10l-6-1zm0 10h1v5h-2z"/><path fill="#5862b1" d="M15 74c2.79 1.137 4.138 2.158 6.156 4.469 3.381 3.01 6.32 3.692 10.657 4.344l2.1.365c1.692.292 3.39.56 5.087.822v1c-12.625.735-12.625.735-18-4l-1.687-1.309C17.82 78.528 16.403 77.27 15 76z"/><path fill="#3667b1" d="m12 45 2 1v20l-2-1c-1.357-6.379-2.079-13.763 0-20"/><path fill="#95b8ce" d="M7 36c.934 3.01 1.044 3.867 0 7a193 193 0 0 0-.187 8.563l-.002 2.442C6.862 59.85 7.41 65.352 9 71c-2-1-2-1-3.108-3.23-.922-2.862-1.15-5.082-1.158-8.079l-.007-3.013.023-3.115-.023-3.104C4.74 45.254 4.899 40.861 7 36"/><path fill="#68a3c3" d="M87 33c3.563 1.966 5.144 4.448 6.473 8.262 1.183 6.143.731 12.512.527 18.738h-1l-.113-2.633C92.432 48.78 92.432 48.78 89 41c-1.328-3.006-2-4.694-2-8"/><path fill="#b1dfda" d="M67 14c3.95.551 7.35 1.39 11 3l1-3c3.077 4.308 3.077 4.308 2.688 7.813L81 24l-1.54-1.207C75.462 19.714 71.632 17.084 67 15z"/><path fill="#83ddf9" d="m53 21 2 3 1.324 1.973 1.364 2.09 1.386 2.097L60 32l-1 2-7-6-2 2v-6h3z"/><path fill="#34e9ff" d="m72 66-1 5c-3.375.625-3.375.625-7 1l-2-2v-2c3.62-1.316 6.096-2 10-2"/><path fill="#e3e5e6" d="M90 72c.645 1.766.645 1.766 1 4-.926 1.922-.926 1.922-2.312 3.75l-1.364 1.86L86 83h-2l-.75 1.875c-1.47 2.5-2.664 2.958-5.25 4.125 3.804-5.827 7.76-11.482 12-17"/><path fill="#9ba2c8" d="M8 67a141 141 0 0 1 5 5v2h2l.688 2.625C17.24 80.618 19.143 82.842 22 86c-7.049-2.61-10.97-10.555-14-17z"/><path fill="#4490bb" d="M81 30c2.313.5 2.313.5 5 2 2.734 5.566 3.587 10.852 4 17h-1v-5h-2l-1-10h-4l-3-1z"/><path fill="#2259ff" d="m66 54 1.625 2.188c1.925 2.279 3.34 3.564 5.688 5.25C76 64 76 64 76.125 67.125 74.878 70.313 74.047 71.476 71 73l-3-1 5-4c-.714-4.192-2.611-5.743-5.723-8.437C66 58 66 58 66 54"/><path fill="#71a5b2" d="m45 21 1 4-2.5.75c-3.452 1.233-6.477 2.762-9.668 4.543C32 31 32 31 29 30c5.21-3.193 10.532-6.266 16-9"/><path fill="#357eff" d="M63 49h2v2h2v2l-1.426 1.332c-1.954 2.07-2.239 3.582-2.761 6.355-.16.809-.318 1.617-.481 2.45L62 65h-1l-1-5-2 1c1.875-4.75 1.875-4.75 3-7h2z"/><path fill="#ddefe9" d="M83 17c3.338 1.402 5.017 2.951 7.125 5.875l1.508 2.055C92.963 26.945 94.14 28.74 95 31c-.453 2.125-.453 2.125-1 4l-1.898-3.176-2.477-4.137-1.25-2.091c-.4-.667-.8-1.334-1.21-2.022-.368-.612-.734-1.225-1.112-1.856C85.074 20.12 84.04 18.558 83 17"/><path fill="#6996aa" d="m28 32 3 2c.188 3.625.188 3.625 0 7-3.265-1.804-4.89-2.834-7-6z"/><path fill="#91cfd3" d="M81 19c2 3 2 3 1.898 5.05C81.71 29.185 80.218 32.817 77 37c0-3 0-3 1-5 .273-2.527.446-5.054.621-7.59C79 22 79 22 81 19"/><path fill="#6cb3c7" d="m17 24 1 2c-1.263 2.462-2.469 4.506-4.504 6.398-1.725 1.847-2.365 3.411-3.184 5.79-.25.715-.502 1.43-.761 2.167L9 42H8c-.497-4.178-.275-5.636 2.313-9.062L13 30a156 156 0 0 0 3-5z"/><path fill="#8eccd1" d="m24 20 2 2-2 1.625c-2.278 2.253-2.278 2.253-2.312 5.438C21.9 32.057 21.9 32.057 23 35h-2c-1.638-3.732-2.058-5.684-1.312-9.75C21 22 21 22 24 20"/><path fill="#def2ea" d="m22 11 2 1a91 91 0 0 1-4 4h-2l-.812 1.938C16 20 16 20 13 21a89 89 0 0 0-2 4c-1.625 1.75-1.625 1.75-3 3 1.408-4.481 3.631-6.792 7-10l2.125-2.687C19 13 19 13 22 11"/><path fill="#316eff" d="M61 45h5l1 3 3 1v2h-5v-2l-5-2z"/><path fill="#6b95a8" d="M72 31h1c1.125 6.625 1.125 6.625 0 10l-3 1c-1-1-1-1-1.25-3.812.272-3.467.877-4.72 3.25-7.188"/><path fill="#4899bd" d="m18 30 2 2-1.937 1.313c-2.33 1.6-2.33 1.6-3.063 4.687l-2 1c-.907 2.113-.907 2.113-1.625 4.563-.26.826-.52 1.652-.79 2.503L10 48H9c.394-6.18 2.427-10.929 6-16z"/><path fill="#2c3ba7" d="m17 66 1 4h2c1.727 1.75 1.727 1.75 3.625 4l1.914 2.25L27 78l-3 1c-5.552-3.442-5.552-3.442-6.61-7.117-.265-2.195-.265-2.195-.39-5.883"/><path fill="#319af8" d="m73 72 2 1v2c-3.062 1.784-5.22 2.229-8.75 2.125l-2.422-.055L62 77l2-1v-2c5.75-.125 5.75-.125 8 1z"/><path fill="#34a8f4" d="M78 58c2 2 2 2 2.313 5.813-.076 3.79-1.007 6.112-3.313 9.187 0-3.095.235-6.104.5-9.187l.281-3.293z"/><path fill="#687f95" d="m40 30 1 3c-1.937 3.188-1.937 3.188-4 6l-4-4c1.268-2.536 2.468-2.85 5-4z"/><path fill="#a9ded7" d="m66 12 1 2-16 2v-2c5.13-2.104 9.561-2.218 15-2"/><path fill="#d5d8df" d="m14 80 2.688 2.313a46 46 0 0 0 6.125 4.374C25 88 25 88 26 90c-5.014-.152-7.334-2.927-10.645-6.309C14 82 14 82 14 80"/><path fill="#2d57ff" d="M36 53c5.906 5.625 5.906 5.625 6.188 9.75L42 65h-3z"/><path fill="#2680b2" d="m20 34 3 3-8 7-1-3c1.215-1.824 1.215-1.824 2.938-3.687l1.714-1.887z"/><path fill="#7fc2cc" d="M82 22c3.536 1.675 4.791 2.493 6.313 6.188L89 31a162 162 0 0 1-3.5-2.25l-1.969-1.266L82 26z"/><path fill="#688096" d="M59 30c2 1.375 2 1.375 4 3v2l5-2-3 6h-2c-4-6.75-4-6.75-4-9"/><path fill="#6b8ea0" d="m42 27 1 3-5 1 1-2h3zm-7 3 3 1-2 3-5-1c1.813-1.562 1.813-1.562 4-3"/><path fill="#d2d5df" d="M7 70c3.394 3.126 5.606 5.565 7 10-4.427-1.476-4.914-3.9-7-8z"/><path fill="#2f87ff" d="M70 51c4.888 5.865 4.888 5.865 6 9a60 60 0 0 1-1 4 377 377 0 0 1-2.5-4.25l-1.406-2.39C70 55 70 55 70 51"/><path fill="#42a9ef" d="m59 50 3 1c-.472 4.248-2.967 6.2-6 9l-2-1 1.094-1.715 1.406-2.222 1.406-2.215C59.085 51.214 59.085 51.214 59 50"/><path fill="#41a6ff" d="M69 43c3 5.75 3 5.75 3 8h-2a131 131 0 0 1-4-5l-2-2c3-1 3-1 5-1"/><path fill="#54a7c1" d="m17 26 2 4-1.812 1.188C14.745 33.21 13.498 35.228 12 38c-.812-1.687-.812-1.687-1-4 2.375-2.562 2.375-2.562 5-5z"/><path fill="#3643a9" d="m82 70 1 3c-1.187 2.188-1.187 2.188-3 4h-4v-2a159 159 0 0 1 6-5"/><path fill="#3ea9fd" d="M44 63c2.717 5.07 2.717 5.07 3 8-1.437 1.75-1.437 1.75-3 3l-2-1 1-3c.355-2.33.691-4.663 1-7"/><path fill="#3084ff" d="M30 50c.75 1.563.75 1.563 1 4-1.13 2.503-2.521 4.67-4 7h-2c1.225-4.053 2.699-7.444 5-11"/><path fill="#87e6fb" d="m46 22 4 2c-.75 1.938-.75 1.938-2 4-2.125.75-2.125.75-4 1z"/><path fill="#33d6ff" d="m70 69 1 2c-3.375.625-3.375.625-7 1l-2-2c2.709-1.354 5.01-1.065 8-1"/><path fill="#1937a1" d="M79 58c2 1 2 1 3.25 3.75.84 3.643.466 5.009-1.25 8.25h-1z"/><path fill="#c7e2e1" d="M9 27c.75 1.563.75 1.563 1 4-1.13 2.503-2.521 4.67-4 7-.75-1.562-.75-1.562-1-4 1.13-2.503 2.521-4.67 4-7"/><path fill="#78acb5" d="m45 21 1 4-8 1c2.22-3.329 3.347-3.75 7-5"/><path fill="#c3c6d7" d="M90 72c.813 1.688.813 1.688 1 4-2.161 2.512-4.02 4.51-7 6 1.37-3.995 3.257-6.8 6-10"/><path fill="#b4bfd3" d="M5 61h2l2 10c-2-1-2-1-3.125-3.312C5 65 5 65 5 61"/><path fill="#3d88b9" d="M13 38h1c.37 5.415.37 5.415-1.5 8.375L11 48q.212-2.22.438-4.437c.08-.824.162-1.648.246-2.497C12 39 12 39 13 38"/><path fill="#6a84ff" d="m45 36 3 1v3l-6 1z"/><path fill="#5aadc3" d="m82 26 5 5-1 2-5-3z"/><path fill="#232b5e" d="m41 51 7 3-2 2v3c-5-5.75-5-5.75-5-8"/><path fill="#42a8fc" d="m38 48 7 1v2c-3 1-3 1-5.187.063L38 50z"/><path fill="#7ddaf7" d="M30 33c1.938.75 1.938.75 4 2 .75 2.125.75 2.125 1 4l-3 1z"/><path fill="#439ebd" d="M81 30c4.875 1.75 4.875 1.75 6 4l-1.75-.562c-2.457-.478-3.894-.195-6.25.562z"/></svg>