<?xml version="1.0" encoding="UTF-8"?>
<svg version="1.1" xmlns="http://www.w3.org/2000/svg" width="100" height="100">
<path d="M0 0 C10.78527154 7.340192 19.63745503 18.85282679 22.3125 31.875 C23.16527615 42.95168005 23.86192389 54.93500251 18.3125 64.875 C17.79171875 65.81472656 17.2709375 66.75445312 16.734375 67.72265625 C10.93596342 77.42585401 4.34832648 83.69280984 -5.6875 88.875 C-6.8321875 89.49955078 -6.8321875 89.49955078 -8 90.13671875 C-18.44382015 94.90673276 -34.02823211 94.9280893 -44.875 91.3125 C-47.31640625 90.19140625 -47.31640625 90.19140625 -49.6875 88.875 C-50.60402344 88.38902344 -51.52054688 87.90304688 -52.46484375 87.40234375 C-64.77795544 80.25769869 -72.17735767 69.93499555 -76.82421875 56.6171875 C-80.15037464 42.19882847 -77.95895968 27.88213292 -70.5625 15.1875 C-54.59486355 -8.34018514 -24.08953827 -14.03564007 0 0 Z " fill="#B156C8" transform="translate(77.6875,7.125)"/>
<path d="M0 0 C0.33 0 0.66 0 1 0 C3.64544401 11.41918279 3.64544401 11.41918279 0.75390625 17.6171875 C-1.8038658 25.70133751 -0.94602067 36.26291299 2.67578125 43.82421875 C7.98272088 52.54388063 15.13907023 58.26890916 25 61 C32.19669078 61.56185416 39.2052431 61.58847882 46 59 C45.23816406 58.92523438 44.47632813 58.85046875 43.69140625 58.7734375 C33.67907464 57.49845894 27.47675945 54.32645238 21.0625 46.5 C15.0411799 38.64239079 15.07716026 29.60919883 15.71435547 20.1171875 C16.6926823 12.86586244 21.75941836 7.63731435 27.19140625 3.15625 C31.67678025 0.28871068 34.59589635 -0.25631163 39.8125 0.875 C40.78832031 1.07867188 41.76414063 1.28234375 42.76953125 1.4921875 C43.50558594 1.65976562 44.24164063 1.82734375 45 2 C44.236875 2.598125 43.47375 3.19625 42.6875 3.8125 C41.800625 4.534375 40.91375 5.25625 40 6 C39.401875 6.4125 38.80375 6.825 38.1875 7.25 C36.16138183 10.23585836 36.61686357 13.55805309 37 17 C37.53010653 19.41039892 38.21759813 21.65279438 39 24 C39.66 24 40.32 24 41 24 C41 20.7 41 17.4 41 14 C42.65 13.67 44.3 13.34 46 13 C46.33 12.01 46.66 11.02 47 10 C49.86724686 10.57344937 50.8614515 10.8614515 53 13 C52.21625 13.886875 51.4325 14.77375 50.625 15.6875 C48.42843009 18.30720519 47.06209659 20.71715601 46 24 C46.86625 23.319375 46.86625 23.319375 47.75 22.625 C49.83029021 21.12256818 51.59958099 19.90015713 54 19 C56.25 19.375 56.25 19.375 58 20 C58 20.99 58 21.98 58 23 C59.32 22.67 60.64 22.34 62 22 C62.99 23.485 62.99 23.485 64 25 C64.66 25 65.32 25 66 25 C66.0825 23.7625 66.165 22.525 66.25 21.25 C66.29640625 20.55390625 66.3428125 19.8578125 66.390625 19.140625 C66.18870419 16.78225679 66.18870419 16.78225679 63.90625 15.15625 C63.2771875 14.4446875 62.648125 13.733125 62 13 C62.265625 9.765625 62.265625 9.765625 63.25 6.25 C63.72179687 4.49429687 63.72179687 4.49429687 64.203125 2.703125 C64.46609375 1.81109375 64.7290625 0.9190625 65 0 C67.80849619 1.4042481 67.88266612 3.10807701 69 6 C69.47179687 6.77601562 69.94359375 7.55203125 70.4296875 8.3515625 C76.51703087 18.61827595 77.5251907 30.33137237 76 42 C73.43596448 51.05013329 68.8436345 56.94521332 61 62 C60.505 62.99 60.505 62.99 60 64 C50.02776977 66.28500891 39.51783146 66.22325409 29.3374939 66.29754639 C27.33665645 66.31232162 25.33591795 66.33894987 23.33520508 66.36572266 C22.08634521 66.36491699 20.83748535 66.36411133 19.55078125 66.36328125 C17.87495972 66.36775269 17.87495972 66.36775269 16.1652832 66.37231445 C10.63362916 65.72165711 6.89136832 63.40280317 3.4375 59.125 C1.46228536 56.73211883 -0.40621473 54.62212583 -2.6875 52.5 C-10.54897733 44.00110559 -11.10242139 32.26831721 -11.14599609 21.20263672 C-10.82025973 16.28826637 -8.81644474 11.97957826 -6 8 C-5.34 7.67 -4.68 7.34 -4 7 C-2.88365848 5.34948712 -2.88365848 5.34948712 -1.875 3.4375 C-1.25625 2.303125 -0.6375 1.16875 0 0 Z " fill="#8D43A3" transform="translate(17,22)"/>
<path d="M0 0 C0.99386719 0.19464844 1.98773438 0.38929687 3.01171875 0.58984375 C4.15060547 0.82380859 4.15060547 0.82380859 5.3125 1.0625 C4.549375 1.660625 3.78625 2.25875 3 2.875 C2.113125 3.596875 1.22625 4.31875 0.3125 5.0625 C-0.5846875 5.68125 -0.5846875 5.68125 -1.5 6.3125 C-3.52611817 9.29835836 -3.07063643 12.62055309 -2.6875 16.0625 C-2.15739347 18.47289892 -1.46990187 20.71529438 -0.6875 23.0625 C-0.0275 23.0625 0.6325 23.0625 1.3125 23.0625 C1.3125 19.7625 1.3125 16.4625 1.3125 13.0625 C2.9625 12.7325 4.6125 12.4025 6.3125 12.0625 C6.6425 11.0725 6.9725 10.0825 7.3125 9.0625 C10.17974686 9.63594937 11.1739515 9.9239515 13.3125 12.0625 C12.52875 12.949375 11.745 13.83625 10.9375 14.75 C8.74093009 17.36970519 7.37459659 19.77965601 6.3125 23.0625 C7.3025 23.0625 8.2925 23.0625 9.3125 23.0625 C9.3125 23.7225 9.3125 24.3825 9.3125 25.0625 C9.90417969 25.02769531 10.49585938 24.99289063 11.10546875 24.95703125 C17.09284083 24.75191736 20.2336784 25.52172489 24.921875 29.390625 C27.15258916 32.07249483 26.72498024 34.54113044 26.59375 37.8984375 C26.3125 40.0625 26.3125 40.0625 25.1875 42.625 C22.54628281 44.64993318 20.54671217 44.34998553 17.3125 44.0625 C17.3125 40.0625 17.3125 40.0625 18.3125 38.0625 C17.3225 38.0625 16.3325 38.0625 15.3125 38.0625 C15.3125 37.4025 15.3125 36.7425 15.3125 36.0625 C15.9725 35.7325 16.6325 35.4025 17.3125 35.0625 C16.8175 33.0825 16.8175 33.0825 16.3125 31.0625 C16.126875 32.0215625 16.126875 32.0215625 15.9375 33 C15.73125 33.680625 15.525 34.36125 15.3125 35.0625 C14.3225 35.5575 14.3225 35.5575 13.3125 36.0625 C13.37050781 36.64257812 13.42851563 37.22265625 13.48828125 37.8203125 C13.73957555 42.17129376 13.80705454 45.11230246 10.9375 48.5625 C8.03381208 51.32791707 7.29902946 51.97854005 3.375 52.3125 C0.3125 52.0625 0.3125 52.0625 -1.5625 50.8125 C-2.6875 49.0625 -2.6875 49.0625 -2.6875 45.0625 C-1.3675 45.0625 -0.0475 45.0625 1.3125 45.0625 C1.6425 43.7425 1.9725 42.4225 2.3125 41.0625 C3.6325 41.3925 4.9525 41.7225 6.3125 42.0625 C6.6425 40.7425 6.9725 39.4225 7.3125 38.0625 C5.9925 38.7225 4.6725 39.3825 3.3125 40.0625 C3.3125 39.4025 3.3125 38.7425 3.3125 38.0625 C0.60025382 39.67518692 -2.06102812 41.31151874 -4.6875 43.0625 C-9.45224651 43.9101609 -12.73824203 43.72116879 -16.75 40.9375 C-19.01177783 37.58131355 -19.37694734 36.02682218 -18.6875 32.0625 C-17.3125 30.1875 -17.3125 30.1875 -15.6875 29.0625 C-15.0275 29.0625 -14.3675 29.0625 -13.6875 29.0625 C-13.6875 30.3825 -13.6875 31.7025 -13.6875 33.0625 C-11.2125 32.5675 -11.2125 32.5675 -8.6875 32.0625 C-8.6875 33.3825 -8.6875 34.7025 -8.6875 36.0625 C-7.2025 35.5675 -7.2025 35.5675 -5.6875 35.0625 C-5.6875 33.4125 -5.6875 31.7625 -5.6875 30.0625 C-7.2653125 29.7221875 -7.2653125 29.7221875 -8.875 29.375 C-12.88789661 28.25493448 -14.79147452 26.03278254 -17.6875 23.0625 C-20.85451423 21.72686389 -20.85451423 21.72686389 -23.6875 21.0625 C-23.33531353 14.19486379 -19.6141793 8.71307747 -14.6171875 4.1875 C-9.50478236 0.26358756 -6.50950582 -1.30190116 0 0 Z " fill="#803E9A" transform="translate(56.6875,22.9375)"/>
<path d="M0 0 C10.78527154 7.340192 19.63745503 18.85282679 22.3125 31.875 C23.16527615 42.95168005 23.86192389 54.93500251 18.3125 64.875 C17.79171875 65.81472656 17.2709375 66.75445312 16.734375 67.72265625 C12.62702375 74.59599404 8.00518555 80.41320963 1.3125 84.875 C0.590625 84.83375 -0.13125 84.7925 -0.875 84.75 C-4.3326684 84.90367415 -6.37116448 86.10013733 -9.33203125 87.8046875 C-15.76010699 90.725571 -22.16602778 91.26326449 -29.125 91.25 C-29.9603125 91.24911377 -30.795625 91.24822754 -31.65625 91.24731445 C-38.54160295 91.1146448 -44.27195088 90.12753428 -49.40625 85.23828125 C-49.8290625 84.78839844 -50.251875 84.33851562 -50.6875 83.875 C-49.16597921 83.99133358 -47.64529277 84.1185887 -46.125 84.25 C-45.27808594 84.31960937 -44.43117187 84.38921875 -43.55859375 84.4609375 C-40.6875 84.875 -40.6875 84.875 -37.34375 85.8828125 C-24.47596702 89.37471087 -12.36385209 86.67291276 -0.6875 80.875 C7.51667523 76.13856894 14.36457562 65.62428799 16.91796875 56.61328125 C18.37086012 46.52935201 18.0758697 35.69483161 15.3125 25.875 C14.6525 25.875 13.9925 25.875 13.3125 25.875 C11.92741857 23.40164031 11.19545916 21.35806961 10.5625 18.5625 C7.92576819 10.78414117 2.30809541 6.72790407 -4.6875 2.875 C-3.6975 4.36 -3.6975 4.36 -2.6875 5.875 C-5.6875 6.875 -5.6875 6.875 -8.25 5.9375 C-12.74373785 4.54852648 -17.01137437 4.49633069 -21.6875 4.875 C-22.0175 5.205 -22.3475 5.535 -22.6875 5.875 C-25.625 6.0625 -25.625 6.0625 -28.6875 5.875 C-29.3475 5.215 -30.0075 4.555 -30.6875 3.875 C-33.25666657 3.56900937 -35.73508384 3.36412913 -38.3125 3.25 C-39.01890625 3.21132812 -39.7253125 3.17265625 -40.453125 3.1328125 C-42.19748524 3.03852276 -43.94245691 2.95567109 -45.6875 2.875 C-42.5260846 -0.50633995 -40.18511395 -1.89837801 -35.6875 -3.125 C-47.75780318 -1.1132828 -58.13052121 4.05392637 -65.6875 13.875 C-68.01799884 17.75405399 -69.8982686 21.7230656 -71.6875 25.875 C-72.0278125 26.54015625 -72.368125 27.2053125 -72.71875 27.890625 C-77.22832739 37.49435462 -75.0063948 49.91617499 -72.6875 59.875 C-73.6775 59.875 -74.6675 59.875 -75.6875 59.875 C-79.80768585 47.66276915 -79.41045927 32.45677514 -73.6875 20.875 C-66.60399823 7.15893556 -55.90594615 -1.21065009 -41.4296875 -6.26171875 C-27.01132847 -9.58787464 -12.69463292 -7.39645968 0 0 Z " fill="#FBF1F8" transform="translate(77.6875,7.125)"/>
<path d="M0 0 C-2.5652659 1.71017726 -4.87960965 2.90417811 -7.6875 4.125 C-8.49574219 4.47820313 -9.30398437 4.83140625 -10.13671875 5.1953125 C-10.75160156 5.46085938 -11.36648437 5.72640625 -12 6 C-11.01257813 6.03738281 -10.02515625 6.07476563 -9.0078125 6.11328125 C-7.08582031 6.21189453 -7.08582031 6.21189453 -5.125 6.3125 C-3.84882812 6.37050781 -2.57265625 6.42851562 -1.2578125 6.48828125 C-0.18273438 6.65714844 0.89234375 6.82601563 2 7 C2.66 7.99 3.32 8.98 4 10 C3.34 9.835 2.68 9.67 2 9.5 C-7.75509656 7.87415057 -15.22997175 10.61498587 -24 15 C-24 14.01 -24 13.02 -24 12 C-30.6113489 16.84618293 -33.49052611 21.27280813 -36 29 C-36.34530762 29.77085938 -36.69061523 30.54171875 -37.04638672 31.3359375 C-38.0588953 34.1645329 -38.18582099 36.07186728 -38.046875 39.0546875 C-38.00433594 39.99957031 -37.96179687 40.94445313 -37.91796875 41.91796875 C-37.86253906 42.89378906 -37.80710937 43.86960938 -37.75 44.875 C-37.71003906 45.84308594 -37.67007813 46.81117187 -37.62890625 47.80859375 C-37.10946522 58.12721969 -34.59895254 66.79592212 -27.625 74.6875 C-26.325625 75.8321875 -26.325625 75.8321875 -25 77 C-24.41734375 77.52722656 -23.8346875 78.05445312 -23.234375 78.59765625 C-18.23040397 83.04446244 -15.21851943 84.12637629 -8.390625 84.1328125 C-7.07835937 84.13410156 -5.76609375 84.13539062 -4.4140625 84.13671875 C-3.72989258 84.13462402 -3.04572266 84.1325293 -2.34082031 84.13037109 C-0.27140852 84.125055 1.79778276 84.13030429 3.8671875 84.13671875 C5.18460938 84.13542969 6.50203125 84.13414063 7.859375 84.1328125 C9.06045898 84.13168457 10.26154297 84.13055664 11.49902344 84.12939453 C15.06314107 83.99766633 18.47756946 83.54234206 22 83 C23.8115721 82.9383819 25.62505032 82.91267192 27.4375 82.9375 C28.30246094 82.94652344 29.16742188 82.95554687 30.05859375 82.96484375 C30.69925781 82.97644531 31.33992188 82.98804687 32 83 C32.495 81.515 32.495 81.515 33 80 C34.48828125 78.75390625 34.48828125 78.75390625 36.3125 77.5625 C39.190742 75.60813815 41.62571905 73.56422342 44 71 C41.88305344 77.54328938 37.47419592 82.03063213 32 86 C17.49641588 93.28521045 3.92557862 93.89759306 -11.65625 89.55859375 C-12.4296875 89.37425781 -13.203125 89.18992187 -14 89 C-14.33 89.33 -14.66 89.66 -15 90 C-5.64196472 95.65013451 6.44421616 95.70928947 16.9453125 93.1640625 C20.03219068 92.22885795 23.00826476 91.20195815 26 90 C27.41152344 89.43925781 27.41152344 89.43925781 28.8515625 88.8671875 C29.56054688 88.58101563 30.26953125 88.29484375 31 88 C31.66 88.66 32.32 89.32 33 90 C30.91870896 90.98350025 28.83488641 91.96164458 26.75 92.9375 C25.58984375 93.48277344 24.4296875 94.02804688 23.234375 94.58984375 C13.2515034 98.94227931 -1.94855458 98.93008488 -12.1875 95.4375 C-14.62890625 94.31640625 -14.62890625 94.31640625 -17 93 C-17.91652344 92.51402344 -18.83304688 92.02804688 -19.77734375 91.52734375 C-29.07654144 86.13151299 -38.45369882 77.47585522 -42 67 C-41.70213671 65.65829722 -41.36770868 64.32426554 -41 63 C-41.31507217 60.8995333 -41.31507217 60.8995333 -41.9375 58.6875 C-44.25436564 47.87013422 -44.03901128 37.89508815 -39 28 C-38.66097656 27.18144531 -38.32195313 26.36289062 -37.97265625 25.51953125 C-34.0792279 16.58265834 -27.16374898 8.67031839 -18.0703125 4.8046875 C-17.38710938 4.53914062 -16.70390625 4.27359375 -16 4 C-15.17242188 3.63132812 -14.34484375 3.26265625 -13.4921875 2.8828125 C-8.85764633 0.87681707 -5.14975993 -0.54207999 0 0 Z " fill="#FAF0F1" transform="translate(45,3)"/>
<path d="M0 0 C0.66 0.721875 1.32 1.44375 2 2.1875 C4.24215711 4.53918777 6.29805513 5.57423293 9.25 6.875 C11.34375 8.1015625 11.34375 8.1015625 13 10 C13.55582111 13.12283704 13.73328314 16.09918375 13.77929688 19.2668457 C13.92168331 27.82154836 16.94874803 33.94874803 23 40 C29.23911653 45.34781417 36.00544353 46.1834828 44 47 C43 49 43 49 40.3125 50.125 C32.02657285 52.24346385 22.670961 52.30260767 15.0234375 48.265625 C5.80049335 42.49683368 -1.39114758 35.94034888 -4 25 C-4.75101401 16.62202151 -4.90591649 8.65559633 -1 1 C-0.67 0.67 -0.34 0.34 0 0 Z " fill="#CE54C5" transform="translate(20,33)"/>
<path d="M0 0 C5.68137375 1.22539434 7.88021829 2.77458286 12 7 C13.0725 7.350625 14.145 7.70125 15.25 8.0625 C16.1575 8.371875 17.065 8.68125 18 9 C18.75 11.0625 18.75 11.0625 19 13 C19.66 13.33 20.32 13.66 21 14 C20 15 20 15 17.4375 15.0625 C16.633125 15.041875 15.82875 15.02125 15 15 C15 13.68 15 12.36 15 11 C13.35 11.33 11.7 11.66 10 12 C10 10.68 10 9.36 10 8 C7.88077873 9.08743288 7.88077873 9.08743288 6 11 C5.39714545 14.54177048 5.57200866 16.29288388 7.4375 19.375 C11.20931426 21.76688222 14.64998446 21.81855131 19 21 C21.7700997 19.03490091 21.7700997 19.03490091 24 17 C26.125 17.3125 26.125 17.3125 28 18 C28.99 17.67 29.98 17.34 31 17 C30.505 19.475 30.505 19.475 30 22 C28.68 21.67 27.36 21.34 26 21 C25.505 22.485 25.505 22.485 25 24 C23.68 24 22.36 24 21 24 C21.495 26.97 21.495 26.97 22 30 C27.80357822 30.48550496 27.80357822 30.48550496 32.9375 28.125 C35.53314898 25.47940999 35.53314898 25.47940999 35.9921875 21.9765625 C35.93417969 20.81253906 35.93417969 20.81253906 35.875 19.625 C35.8235465 16.42973775 35.84716278 15.26109691 37.5 12.4375 C37.995 11.963125 38.49 11.48875 39 11 C38.505 10.01 38.505 10.01 38 9 C39.32 9.66 40.64 10.32 42 11 C41.67 12.32 41.34 13.64 41 15 C40.34 15 39.68 15 39 15 C39 15.66 39 16.32 39 17 C39.99 17 40.98 17 42 17 C41.505 19.475 41.505 19.475 41 22 C43.87364791 22.41746608 43.87364791 22.41746608 47 22 C48.86250805 19.78508316 48.86250805 19.78508316 50 17 C50.66282146 15.66475098 51.32878662 14.33105027 52 13 C51.58081012 19.63476401 51.0223668 24.32304655 45.8125 28.9375 C44.4203125 29.9584375 44.4203125 29.9584375 43 31 C42.41089844 31.47566406 41.82179687 31.95132813 41.21484375 32.44140625 C32.27672487 39.53148465 23.39834384 42.72518011 12 42 C2.78589449 40.76415223 -4.15431661 37.75145025 -9.96875 30.390625 C-10.3090625 29.93171875 -10.649375 29.4728125 -11 29 C-10.67 28.34 -10.34 27.68 -10 27 C-9.5153125 27.45890625 -9.030625 27.9178125 -8.53125 28.390625 C0.31324677 36.48674128 7.54005024 39.22999456 19.5234375 39.16796875 C23.3980551 38.98076812 26.39779467 38.3722687 30 37 C29.23816406 36.92523438 28.47632813 36.85046875 27.69140625 36.7734375 C17.67907464 35.49845894 11.47675945 32.32645238 5.0625 24.5 C0.71656656 18.82871098 -0.25846495 13.69864227 -0.125 6.625 C-0.10695313 5.37976562 -0.08890625 4.13453125 -0.0703125 2.8515625 C-0.04710937 1.91054688 -0.02390625 0.96953125 0 0 Z " fill="#4E0A81" transform="translate(33,44)"/>
<path d="M0 0 C4.45560064 1.44151786 7.64262393 3.82021813 11 7 C11.54269531 7.5053125 12.08539063 8.010625 12.64453125 8.53125 C17.1478317 13.17699061 18.26006038 17.65948289 19 24 C19.66 24 20.32 24 21 24 C25.81353692 32.343464 25.41146909 46.10956217 23.2109375 55.29296875 C21.67552544 59.26042662 20.15846793 62.11303361 17 65 C17.43855415 62.44176743 17.89001773 60.23058059 19.01171875 57.87890625 C23.00844752 46.23626156 20.15896956 31.81203761 15 21 C14.01568815 19.9845542 13.01836983 18.98128634 12 18 C11.3125 15.8125 11.3125 15.8125 11 14 C10.3880853 15.90773407 9.81132473 17.82677265 9.25 19.75 C8.92515625 20.81734375 8.6003125 21.8846875 8.265625 22.984375 C8.17796875 23.97953125 8.0903125 24.9746875 8 26 C9.82825029 28.23461065 9.82825029 28.23461065 12 30 C12.4375 33.0625 12.4375 33.0625 12 36 C10.5 37.875 10.5 37.875 9 39 C8.34 38.01 7.68 37.02 7 36 C5.68 36 4.36 36 3 36 C2.67 35.01 2.34 34.02 2 33 C-1.54971796 33.60852308 -4.76693609 34.38346804 -8 36 C-8.33 36.99 -8.66 37.98 -9 39 C-9.99 37.68 -10.98 36.36 -12 35 C-11.01 34.67 -10.02 34.34 -9 34 C-7.65668346 32.00669158 -6.32405988 30.00615134 -5 28 C-2.2861082 25.19252572 -1.25528643 25.01276432 2.75 24.8125 C3.8225 24.874375 4.895 24.93625 6 25 C6 20.71 6 16.42 6 12 C-2.31719881 6.58767862 -9.16000652 4.97417128 -18.95239258 4.84545898 C-21.06607655 4.81244414 -23.171627 4.72075288 -25.28320312 4.62304688 C-33.86087949 4.34197872 -39.68152625 5.56330726 -47 10 C-48.65500332 10.69511598 -50.31932087 11.36949235 -52 12 C-52 14.64 -52 17.28 -52 20 C-52.66 20 -53.32 20 -54 20 C-54.33 18.35 -54.66 16.7 -55 15 C-55.928125 16.4540625 -55.928125 16.4540625 -56.875 17.9375 C-59 21 -59 21 -61 22 C-62.13102526 24.34038186 -62.13102526 24.34038186 -63.125 27.0625 C-63.47820313 27.98160156 -63.83140625 28.90070312 -64.1953125 29.84765625 C-64.46085937 30.55792969 -64.72640625 31.26820312 -65 32 C-66.05196684 29.29038844 -66.05925856 28.16777422 -65.07421875 25.37890625 C-64.61660156 24.44949219 -64.15898438 23.52007812 -63.6875 22.5625 C-61.72706175 18.54446473 -61.72706175 18.54446473 -60.08984375 14.390625 C-58.79117387 11.54192978 -57.28085939 10.16651337 -54.875 8.1875 C-54.15054688 7.58292969 -53.42609375 6.97835938 -52.6796875 6.35546875 C-51.84824219 5.68451172 -51.84824219 5.68451172 -51 5 C-50.67 5.99 -50.34 6.98 -50 8 C-48.04130597 7.18836991 -46.08305564 6.37566899 -44.125 5.5625 C-43.03445312 5.11003906 -41.94390625 4.65757813 -40.8203125 4.19140625 C-39.19441376 3.50456537 -37.57868226 2.78934113 -36 2 C-33.30986661 1.81295596 -30.70313823 1.91418609 -28 2 C-27.505 2.495 -27.505 2.495 -27 3 C-25.33570949 3.09823937 -23.66718069 3.12973631 -22 3.125 C-21.0925 3.12757812 -20.185 3.13015625 -19.25 3.1328125 C-17.03033389 3.25173779 -17.03033389 3.25173779 -16 2 C-9.66711248 1.46917317 -4.06273355 2.20363451 2 4 C1.01 2.02 1.01 2.02 0 0 Z " fill="#D38FDB" transform="translate(72,9)"/>
<path d="M0 0 C3.55259689 -0.33640085 5.37897962 -0.45604542 8.30859375 1.6953125 C20.74996256 15.89445269 23.80834213 28.94712362 23.17480469 47.43261719 C22.82875622 52.51508324 21.46572833 56.58344543 19 61 C18.47921875 61.93972656 17.9584375 62.87945312 17.421875 63.84765625 C13.31452375 70.72099404 8.69268555 76.53820963 2 81 C1.278125 80.95875 0.55625 80.9175 -0.1875 80.875 C-3.6451684 81.02867415 -5.68366448 82.22513733 -8.64453125 83.9296875 C-15.07260699 86.850571 -21.47852778 87.38826449 -28.4375 87.375 C-29.2728125 87.37411377 -30.108125 87.37322754 -30.96875 87.37231445 C-37.85410295 87.2396448 -43.58445088 86.25253428 -48.71875 81.36328125 C-49.1415625 80.91339844 -49.564375 80.46351562 -50 80 C-48.47847921 80.11633358 -46.95779277 80.2435887 -45.4375 80.375 C-44.59058594 80.44460937 -43.74367188 80.51421875 -42.87109375 80.5859375 C-40 81 -40 81 -36.65625 82.0078125 C-23.78846702 85.49971087 -11.67635209 82.79791276 0 77 C8.20417523 72.26356894 15.05207562 61.74928799 17.60546875 52.73828125 C19.05836012 42.65435201 18.7633697 31.81983161 16 22 C15.34 22 14.68 22 14 22 C12.61491857 19.52664031 11.88295916 17.48306961 11.25 14.6875 C9.1652319 8.53743409 4.61962644 4.4419485 0 0 Z " fill="#F9ECF4" transform="translate(77,11)"/>
<path d="M0 0 C2.19481464 3.5665738 2.32072638 6.67576122 2.5 10.8125 C3.12195622 20.84672694 5.63771628 29.06373158 12.375 36.6875 C13.24125 37.450625 14.1075 38.21375 15 39 C15.58265625 39.52722656 16.1653125 40.05445313 16.765625 40.59765625 C21.76959603 45.04446244 24.78148057 46.12637629 31.609375 46.1328125 C32.92164063 46.13410156 34.23390625 46.13539062 35.5859375 46.13671875 C36.61219238 46.13357666 36.61219238 46.13357666 37.65917969 46.13037109 C39.72859148 46.125055 41.79778276 46.13030429 43.8671875 46.13671875 C45.18460938 46.13542969 46.50203125 46.13414063 47.859375 46.1328125 C49.06045898 46.13168457 50.26154297 46.13055664 51.49902344 46.12939453 C55.06314107 45.99766633 58.47756946 45.54234206 62 45 C63.8115721 44.9383819 65.62505032 44.91267192 67.4375 44.9375 C68.73494141 44.95103516 68.73494141 44.95103516 70.05859375 44.96484375 C70.69925781 44.97644531 71.33992188 44.98804688 72 45 C72.33 44.01 72.66 43.02 73 42 C74.48828125 40.75390625 74.48828125 40.75390625 76.3125 39.5625 C79.190742 37.60813815 81.62571905 35.56422342 84 33 C81.88305344 39.54328938 77.47419592 44.03063213 72 48 C56.66663699 55.70201183 42.35465086 55.75375185 26 51 C24.83726563 50.72800781 23.67453125 50.45601562 22.4765625 50.17578125 C13.70046975 47.20768696 6.81553266 38.64285407 2.23828125 30.83203125 C0.08657714 25.91094141 -0.0371872 21.31157182 0 16 C-0.01142717 14.56118438 -0.02454523 13.12238151 -0.0390625 11.68359375 C-0.06683533 7.78813349 -0.04448914 3.8952715 0 0 Z " fill="#C898BD" transform="translate(5,41)"/>
<path d="M0 0 C0 0.33 0 0.66 0 1 C-0.89138672 1.00386719 -0.89138672 1.00386719 -1.80078125 1.0078125 C-10.17354336 1.39845459 -17.16333567 4.14935875 -23.14453125 10.15234375 C-26.64673317 14.4655819 -29.11394944 18.78562491 -31 24 C-36.18004794 22.88998973 -38.62381369 20.68869319 -41.99609375 16.8515625 C-43 15 -43 15 -42.7890625 12.95703125 C-40.27149211 6.71295815 -34.87989423 2.81994927 -29 0 C-18.83794803 -3.80316316 -9.95971099 -4.42653822 0 0 Z " fill="#E686DE" transform="translate(64,19)"/>
<path d="M0 0 C5.68137375 1.22539434 7.88021829 2.77458286 12 7 C13.60875 7.5259375 13.60875 7.5259375 15.25 8.0625 C16.1575 8.371875 17.065 8.68125 18 9 C18.75 11.0625 18.75 11.0625 19 13 C19.66 13.33 20.32 13.66 21 14 C20 15 20 15 17.4375 15.0625 C16.633125 15.041875 15.82875 15.02125 15 15 C15 13.68 15 12.36 15 11 C13.35 11.33 11.7 11.66 10 12 C10 10.68 10 9.36 10 8 C7.88077873 9.08743288 7.88077873 9.08743288 6 11 C5.39714545 14.54177048 5.57200866 16.29288388 7.4375 19.375 C11.20931426 21.76688222 14.64998446 21.81855131 19 21 C21.7700997 19.03490091 21.7700997 19.03490091 24 17 C26.125 17.3125 26.125 17.3125 28 18 C28.99 17.67 29.98 17.34 31 17 C30.67 18.65 30.34 20.3 30 22 C28.68 21.67 27.36 21.34 26 21 C25.67 21.99 25.34 22.98 25 24 C23.68 24 22.36 24 21 24 C21.10169161 26.94727535 21.10169161 26.94727535 22 30 C24.46255685 31.45291273 24.46255685 31.45291273 27 32 C26.01 32.495 26.01 32.495 25 33 C24.40960938 32.69449219 23.81921875 32.38898438 23.2109375 32.07421875 C20.53066461 30.77196602 18.58966625 30.83326097 15.625 30.8125 C11.55046496 30.49239671 9.33040453 30.07938228 6.5625 27 C5.21484375 25.06640625 5.21484375 25.06640625 4 23 C3.58878906 22.34902344 3.17757812 21.69804688 2.75390625 21.02734375 C-0.87187863 14.31525063 -0.38135361 7.44698857 0 0 Z " fill="#2D0663" transform="translate(33,44)"/>
<path d="M0 0 C3.16115776 1.36983503 3.9927092 1.9890638 6 5 C6 6.32 6 7.64 6 9 C6.66 9 7.32 9 8 9 C8.43809722 21.49388366 8.88908953 35.55855797 1 46 C-2.66349238 48.98863852 -5.33513993 49.32545535 -10 49 C-7.37499599 46.29778999 -4.79214733 43.80611526 -1.8125 41.5 C1.73287925 38.36666279 1.73287925 38.36666279 3 34 C2.62750249 29.42573057 2.12727092 25.4831145 -0.6953125 21.76953125 C-3.5630045 19.56772706 -5.68490214 19.21501276 -9.25 18.75 C-10.32765625 18.60046875 -11.4053125 18.4509375 -12.515625 18.296875 C-13.33546875 18.19890625 -14.1553125 18.1009375 -15 18 C-15.33 17.01 -15.66 16.02 -16 15 C-10.58461538 10.93846154 -10.58461538 10.93846154 -7.625 11.25 C-7.08875 11.4975 -6.5525 11.745 -6 12 C-6 12.99 -6 13.98 -6 15 C-4.68 14.67 -3.36 14.34 -2 14 C-1.01 15.485 -1.01 15.485 0 17 C0.66 17 1.32 17 2 17 C2.59236584 11.28662627 2.59236584 11.28662627 0 6.5 C-0.66 6.005 -1.32 5.51 -2 5 C-1.34 3.35 -0.68 1.7 0 0 Z " fill="#702991" transform="translate(81,30)"/>
<path d="M0 0 C2.05403464 3.08105196 2.75783174 4.36747606 3 8 C2.525625 9.093125 2.05125 10.18625 1.5625 11.3125 C-1.69672336 19.26440143 -1.22141237 29.91490891 1.875 37.8125 C3.08537687 40.41705172 4.39742459 42.59613689 6 45 C6.309375 45.66 6.61875 46.32 6.9375 47 C7.91279554 49.0713491 7.91279554 49.0713491 9.625 50.625 C10.07875 51.07875 10.5325 51.5325 11 52 C11 52.66 11 53.32 11 54 C13.31 54.66 15.62 55.32 18 56 C18 56.33 18 56.66 18 57 C13.37390802 57.3227506 10.71973879 56.84450614 7 54 C7 53.34 7 52.68 7 52 C6.1646875 51.9071875 6.1646875 51.9071875 5.3125 51.8125 C1.11584107 50.33799821 -1.22558643 47.57205954 -3.171875 43.62109375 C-5.89245514 37.00692971 -7.15646064 31.24164602 -7.25 24.0625 C-7.27578125 22.87785156 -7.3015625 21.69320312 -7.328125 20.47265625 C-6.96683292 16.64898179 -5.87224532 14.32005215 -4 11 C-3.30899447 9.00827818 -2.64097297 7.00838196 -2 5 C-1.34588315 3.32836805 -0.68346682 1.65984798 0 0 Z " fill="#7A25A0" transform="translate(17,26)"/>
<path d="M0 0 C0.99386719 0.19464844 1.98773438 0.38929687 3.01171875 0.58984375 C4.15060547 0.82380859 4.15060547 0.82380859 5.3125 1.0625 C4.549375 1.660625 3.78625 2.25875 3 2.875 C2.113125 3.596875 1.22625 4.31875 0.3125 5.0625 C-0.5846875 5.68125 -0.5846875 5.68125 -1.5 6.3125 C-3.84210676 9.76402575 -3.04320957 14.18334742 -2.30078125 18.10546875 C-1.78922494 20.22048303 -1.78922494 20.22048303 -0.6875 23.0625 C-0.0275 23.3925 0.6325 23.7225 1.3125 24.0625 C-1.6575 24.0625 -4.6275 24.0625 -7.6875 24.0625 C-8.3475 22.7425 -9.0075 21.4225 -9.6875 20.0625 C-9.0275 19.4025 -8.3675 18.7425 -7.6875 18.0625 C-8.00791397 15.45969432 -8.00791397 15.45969432 -8.6875 13.0625 C-8.0275 13.0625 -7.3675 13.0625 -6.6875 13.0625 C-6.6875 12.4025 -6.6875 11.7425 -6.6875 11.0625 C-10.10406024 10.89572718 -10.10406024 10.89572718 -13.6875 11.0625 C-16.18255962 13.55755962 -16.04698376 14.73578888 -16.3125 18.1875 C-16.38726562 19.09757812 -16.46203125 20.00765625 -16.5390625 20.9453125 C-16.58804688 21.64398438 -16.63703125 22.34265625 -16.6875 23.0625 C-18.9975 22.4025 -21.3075 21.7425 -23.6875 21.0625 C-23.33531353 14.19486379 -19.6141793 8.71307747 -14.6171875 4.1875 C-9.50478236 0.26358756 -6.50950582 -1.30190116 0 0 Z " fill="#71438A" transform="translate(56.6875,22.9375)"/>
<path d="M0 0 C2.80849619 1.4042481 2.88266612 3.10807701 4 6 C4.47179687 6.77601562 4.94359375 7.55203125 5.4296875 8.3515625 C10.05412156 16.15098114 11.37992859 23.93682417 11.4375 32.875 C11.4523645 34.08760498 11.4523645 34.08760498 11.4675293 35.32470703 C11.39606195 40.2842324 10.6326379 43.65649662 8 48 C7.01 48 6.02 48 5 48 C4.57074219 48.86431641 4.57074219 48.86431641 4.1328125 49.74609375 C3.75898437 50.48988281 3.38515625 51.23367187 3 52 C2.68804687 52.67160156 2.37609375 53.34320313 2.0546875 54.03515625 C0.25860854 57.12179527 -1.34182278 59.42027965 -4.82958984 60.63964844 C-8.39410392 61.50806641 -11.97856097 62.04824086 -15.61328125 62.52734375 C-18.83044292 62.62958236 -18.83044292 62.62958236 -20 64 C-22.67058851 64.14115161 -25.32432238 64.04247107 -28 64 C-28 63.67 -28 63.34 -28 63 C-27.34773438 62.81824219 -26.69546875 62.63648438 -26.0234375 62.44921875 C-22.16357445 61.33908115 -18.57216046 60.29800024 -15 58.4375 C-12.11256861 57.05393913 -10.00245735 56.6128104 -6.875 56.125 C-3.61693402 55.50464861 -2.20457076 55.16260753 0.4375 53.0625 C4.9208179 44.27519691 6.02616626 34.3493462 6.5625 24.625 C6.62727539 23.52091797 6.62727539 23.52091797 6.69335938 22.39453125 C6.79843799 20.59651932 6.89962093 18.79828042 7 17 C5.68 17 4.36 17 3 17 C2.896875 15.88625 2.79375 14.7725 2.6875 13.625 C2.460625 12.42875 2.23375 11.2325 2 10 C1.01 9.34 0.02 8.68 -1 8 C-0.67 5.36 -0.34 2.72 0 0 Z " fill="#864599" transform="translate(82,22)"/>
<path d="M0 0 C-2.5652659 1.71017726 -4.87960965 2.90417811 -7.6875 4.125 C-8.49574219 4.47820313 -9.30398437 4.83140625 -10.13671875 5.1953125 C-10.75160156 5.46085938 -11.36648437 5.72640625 -12 6 C-11.01257813 6.03738281 -10.02515625 6.07476563 -9.0078125 6.11328125 C-7.08582031 6.21189453 -7.08582031 6.21189453 -5.125 6.3125 C-3.84882812 6.37050781 -2.57265625 6.42851562 -1.2578125 6.48828125 C-0.18273438 6.65714844 0.89234375 6.82601563 2 7 C2.66 7.99 3.32 8.98 4 10 C3.34 9.835 2.68 9.67 2 9.5 C-7.75509656 7.87415057 -15.22997175 10.61498587 -24 15 C-24 14.01 -24 13.02 -24 12 C-30.60414933 16.84090558 -33.56464426 21.25406678 -36 29 C-36.25225342 29.62156982 -36.50450684 30.24313965 -36.7644043 30.88354492 C-39.30655044 37.47875656 -39.35220432 43.55623148 -39.1875 50.5625 C-39.17396484 51.66658203 -39.16042969 52.77066406 -39.14648438 53.90820312 C-39.11144815 56.60599272 -39.06232591 59.30272636 -39 62 C-43.94611263 54.58083105 -43.72816255 46.63906434 -43 38 C-42.08624455 34.39930962 -40.68092425 31.30082486 -39 28 C-38.66097656 27.18144531 -38.32195313 26.36289062 -37.97265625 25.51953125 C-34.0792279 16.58265834 -27.16374898 8.67031839 -18.0703125 4.8046875 C-17.38710938 4.53914062 -16.70390625 4.27359375 -16 4 C-15.17242188 3.63132812 -14.34484375 3.26265625 -13.4921875 2.8828125 C-8.85764633 0.87681707 -5.14975993 -0.54207999 0 0 Z " fill="#F0CFE9" transform="translate(45,3)"/>
<path d="M0 0 C2.19481464 3.5665738 2.32072638 6.67576122 2.5 10.8125 C3.12195622 20.84672694 5.63771628 29.06373158 12.375 36.6875 C13.24125 37.450625 14.1075 38.21375 15 39 C15.58265625 39.52722656 16.1653125 40.05445313 16.765625 40.59765625 C21.76959603 45.04446244 24.78148057 46.12637629 31.609375 46.1328125 C32.92164063 46.13410156 34.23390625 46.13539062 35.5859375 46.13671875 C36.61219238 46.13357666 36.61219238 46.13357666 37.65917969 46.13037109 C39.72859148 46.125055 41.79778276 46.13030429 43.8671875 46.13671875 C45.18460938 46.13542969 46.50203125 46.13414063 47.859375 46.1328125 C49.06045898 46.13168457 50.26154297 46.13055664 51.49902344 46.12939453 C55.06301121 45.99767113 58.47834721 45.54684716 62 45 C64.6793948 44.89248014 67.31632049 44.9529179 70 45 C69.360625 45.309375 68.72125 45.61875 68.0625 45.9375 C66.06389179 46.8345163 66.06389179 46.8345163 65 48 C57.00406216 50.34363695 49.274331 50.26748491 41 50 C40.29762207 49.98066406 39.59524414 49.96132812 38.87158203 49.94140625 C36.74647657 49.8757361 34.62380577 49.78626431 32.5 49.6875 C31.2315625 49.62949219 29.963125 49.57148437 28.65625 49.51171875 C22.69637602 48.67759109 18.19257177 46.96679054 14.5 42.125 C12.26236362 39.36827229 10.21230427 37.27284841 7.25 35.3125 C3.36581103 32.54875016 1.43514643 30.16908868 0.48828125 25.44921875 C-0.05212197 16.95888368 -0.0971194 8.50334285 0 0 Z " fill="#BB85B3" transform="translate(5,41)"/>
<path d="M0 0 C0.33 0 0.66 0 1 0 C1.19627391 1.58226965 1.38165538 3.16589271 1.5625 4.75 C1.66691406 5.63171875 1.77132812 6.5134375 1.87890625 7.421875 C2 10 2 10 1.40625 12.2109375 C1.2721875 12.80132812 1.138125 13.39171875 1 14 C1.639375 14.61875 2.27875 15.2375 2.9375 15.875 C5 18 5 18 5.4375 21.0625 C4.96865123 24.2104846 4.49619254 25.12785559 2 27 C1.34 26.01 0.68 25.02 0 24 C-1.32 24 -2.64 24 -4 24 C-4.33 23.01 -4.66 22.02 -5 21 C-8.54971796 21.60852308 -11.76693609 22.38346804 -15 24 C-15.33 24.99 -15.66 25.98 -16 27 C-16.99 25.68 -17.98 24.36 -19 23 C-18.01 22.67 -17.02 22.34 -16 22 C-14.65668346 20.00669158 -13.32405988 18.00615134 -12 16 C-9.2861082 13.19252572 -8.25528643 13.01276432 -4.25 12.8125 C-3.1775 12.874375 -2.105 12.93625 -1 13 C-0.67 8.71 -0.34 4.42 0 0 Z " fill="#DC71DC" transform="translate(79,21)"/>
<path d="M0 0 C9.2522293 7.88152866 9.2522293 7.88152866 11 13 C11 13.99 11 14.98 11 16 C11.66 16 12.32 16 13 16 C17.81353692 24.343464 17.41146909 38.10956217 15.2109375 47.29296875 C13.67552544 51.26042662 12.15846793 54.11303361 9 57 C9.43855415 54.44176743 9.89001773 52.23058059 11.01171875 49.87890625 C15.00844752 38.23626156 12.15896956 23.81203761 7 13 C5.46537228 11.2709763 5.46537228 11.2709763 4 10 C3.3125 7.8125 3.3125 7.8125 3 6 C2.67 7.65 2.34 9.3 2 11 C1.67 11 1.34 11 1 11 C0.67 7.37 0.34 3.74 0 0 Z " fill="#B162BE" transform="translate(80,17)"/>
<path d="M0 0 C1.06669922 0.0515625 2.13339844 0.103125 3.23242188 0.15625 C4.88661133 0.25292969 4.88661133 0.25292969 6.57421875 0.3515625 C7.69634766 0.40828125 8.81847656 0.465 9.97460938 0.5234375 C12.73765949 0.66452942 15.4997486 0.81590531 18.26171875 0.9765625 C18.26171875 1.3065625 18.26171875 1.6365625 18.26171875 1.9765625 C11.82671875 2.4715625 11.82671875 2.4715625 5.26171875 2.9765625 C5.26171875 3.3065625 5.26171875 3.6365625 5.26171875 3.9765625 C4.41609375 4.19570313 3.57046875 4.41484375 2.69921875 4.640625 C-7.34476746 7.44837569 -14.46851316 10.75446835 -19.73828125 19.9765625 C-21.95143343 16.85211237 -22.23731892 13.77011486 -21.67578125 10.0078125 C-19.68115589 5.68612423 -14.87054195 3.89598537 -10.73828125 1.9765625 C-9.59661499 1.44289063 -9.59661499 1.44289063 -8.43188477 0.8984375 C-5.39060532 -0.14242819 -3.20057847 -0.17115393 0 0 Z " fill="#BA61CE" transform="translate(40.73828125,13.0234375)"/>
<path d="M0 0 C0 1.32 0 2.64 0 4 C1.65 3.67 3.3 3.34 5 3 C5 4.32 5 5.64 5 7 C10.02265357 5.81819916 13.0949151 4.55007718 17 1 C15.8519793 5.36807877 14.78778964 9.05001837 11.875 12.5625 C7.84389936 14.57805032 4.41673962 14.91849016 0 14 C-3.0625 11.875 -3.0625 11.875 -5 9 C-5.5 5.875 -5.5 5.875 -5 3 C-3.36508916 0.77057613 -2.79808925 0 0 0 Z " fill="#C264C0" transform="translate(43,52)"/>
<path d="M0 0 C4.00078192 1.33359397 4.89482402 3.27576429 6.97265625 6.8125 C8.5390134 10.14770915 8.66873798 12.38881492 8 16 C6.18574468 18.96150501 4.15812942 21.42093529 1 23 C-4.32075472 23.45283019 -4.32075472 23.45283019 -6.875 21.75 C-8 20 -8 20 -8 16 C-6.68 16 -5.36 16 -4 16 C-3.67 14.68 -3.34 13.36 -3 12 C-1.68 12.33 -0.36 12.66 1 13 C1.02708567 11.39592672 1.04643483 9.7917215 1.0625 8.1875 C1.07410156 7.29417969 1.08570313 6.40085937 1.09765625 5.48046875 C1.11009967 2.86586209 1.11009967 2.86586209 0 0 Z " fill="#C867C5" transform="translate(62,52)"/>
<path d="M0 0 C0 0.66 0 1.32 0 2 C-1.01320313 2.09087891 -1.01320313 2.09087891 -2.046875 2.18359375 C-2.93890625 2.26738281 -3.8309375 2.35117188 -4.75 2.4375 C-5.63171875 2.51871094 -6.5134375 2.59992187 -7.421875 2.68359375 C-9.69350452 2.96238465 -11.79851823 3.38790577 -14 4 C-14 4.66 -14 5.32 -14 6 C-17.875 5.125 -17.875 5.125 -19 4 C-21.52596259 3.76346477 -24.03107207 3.57826308 -26.5625 3.4375 C-27.27341797 3.39431641 -27.98433594 3.35113281 -28.71679688 3.30664062 C-30.47761912 3.20028223 -32.2387832 3.09961154 -34 3 C-24.98093276 -7.37192732 -11.34180827 -3.69538425 0 0 Z " fill="#FEFBFD" transform="translate(66,7)"/>
<path d="M0 0 C0.495 0.99 0.495 0.99 1 2 C-5.52726967 11.79090451 -16.88797543 16.52937643 -28 19 C-48.17149879 20.73706338 -48.17149879 20.73706338 -56 15 C-57.02414103 14.02473842 -58.03148504 13.03052354 -59 12 C-57.47847921 12.11633358 -55.95779277 12.2435887 -54.4375 12.375 C-53.16712891 12.47941406 -53.16712891 12.47941406 -51.87109375 12.5859375 C-49 13 -49 13 -45.65625 14.0078125 C-32.83788132 17.48630144 -20.61912736 14.84935521 -9 9 C-5.18181265 6.49656584 -2.54965243 3.82447864 0 0 Z " fill="#EBD0DA" transform="translate(86,79)"/>
<path d="M0 0 C1.093125 0.226875 2.18625 0.45375 3.3125 0.6875 C3.3125 1.3475 3.3125 2.0075 3.3125 2.6875 C2.6525 2.6875 1.9925 2.6875 1.3125 2.6875 C1.3125 4.0075 1.3125 5.3275 1.3125 6.6875 C1.9725 7.0175 2.6325 7.3475 3.3125 7.6875 C2.6525 9.0075 1.9925 10.3275 1.3125 11.6875 C4.08329887 15.49734844 7.94118145 15.75590752 12.3125 16.6875 C9.65427238 19.34572762 8.2064746 19.04730571 4.5 19.125 C0.4910708 19.0287472 -1.38554191 18.8558997 -4.9375 16.875 C-7.45146427 12.29599365 -7.63887689 7.80907894 -6.6875 2.6875 C-4.47378225 -0.47020551 -4.04821926 -0.34306943 0 0 Z " fill="#D58BCB" transform="translate(46.6875,33.3125)"/>
<path d="M0 0 C12.65740558 -0.77074865 12.65740558 -0.77074865 17.375 1.9375 C19.57684889 6.08713829 19.77245313 9.3996125 19 14 C17.875 16.5625 17.875 16.5625 16 18 C12.8125 18.25 12.8125 18.25 10 18 C10 14 10 14 11 12 C10.01 12 9.02 12 8 12 C8 11.34 8 10.68 8 10 C8.66 9.67 9.32 9.34 10 9 C9.84896172 7.05600216 9.84896172 7.05600216 9 5 C6.9279446 3.64897007 6.9279446 3.64897007 4.4375 2.75 C3.61121094 2.41484375 2.78492187 2.0796875 1.93359375 1.734375 C1.29550781 1.49203125 0.65742187 1.2496875 0 1 C0 0.67 0 0.34 0 0 Z " fill="#D16ACF" transform="translate(64,49)"/>
<path d="M0 0 C5.68137375 1.22539434 7.88021829 2.77458286 12 7 C13.60875 7.5259375 13.60875 7.5259375 15.25 8.0625 C16.1575 8.371875 17.065 8.68125 18 9 C18.75 11.0625 18.75 11.0625 19 13 C19.66 13.33 20.32 13.66 21 14 C20 15 20 15 17.4375 15.0625 C16.633125 15.041875 15.82875 15.02125 15 15 C15 13.68 15 12.36 15 11 C13.35 11.33 11.7 11.66 10 12 C10 10.68 10 9.36 10 8 C7.88077873 9.08743288 7.88077873 9.08743288 6 11 C5.30416187 15.00106924 5.66536643 16.51896425 8 19.875 C8.66 20.57625 9.32 21.2775 10 22 C6.88349604 20.49946106 3.86850702 18.93818042 1 17 C-0.18681726 13.43954823 -0.09689832 10.56191663 -0.0625 6.8125 C-0.05347656 5.54019531 -0.04445312 4.26789062 -0.03515625 2.95703125 C-0.02355469 1.98121094 -0.01195312 1.00539062 0 0 Z " fill="#1C0354" transform="translate(33,44)"/>
<path d="M0 0 C1.98828125 0.46875 1.98828125 0.46875 3.98828125 3.46875 C3.98828125 4.78875 3.98828125 6.10875 3.98828125 7.46875 C2.33828125 7.13875 0.68828125 6.80875 -1.01171875 6.46875 C-1.34171875 7.78875 -1.67171875 9.10875 -2.01171875 10.46875 C-3.33171875 10.46875 -4.65171875 10.46875 -6.01171875 10.46875 C-6.01171875 14.09875 -6.01171875 17.72875 -6.01171875 21.46875 C-9.01171875 20.46875 -9.01171875 20.46875 -10.69921875 17.40625 C-12.32050956 13.1839579 -12.59313703 9.97474165 -12.01171875 5.46875 C-8.73488496 0.39494285 -5.65543072 -0.0760394 0 0 Z " fill="#DB8ED1" transform="translate(65.01171875,25.53125)"/>
<path d="M0 0 C0.66 0 1.32 0 2 0 C1.49270927 4.43879389 0.06272483 6.77172248 -3 10 C-4.98188345 11.36011609 -6.97951869 12.69791204 -9 14 C-9.33 14.66 -9.66 15.32 -10 16 C-20.70366812 18.45260854 -31.94980604 18.21059707 -42.875 18.25 C-43.5496933 18.25517639 -44.2243866 18.26035278 -44.91952515 18.26568604 C-46.86037713 18.27742036 -48.80130999 18.2718374 -50.7421875 18.265625 C-51.8751123 18.26336914 -53.00803711 18.26111328 -54.17529297 18.25878906 C-57 18 -57 18 -60 16 C-58.96069336 15.98018066 -57.92138672 15.96036133 -56.85058594 15.93994141 C-52.98885164 15.86377876 -49.1274889 15.775078 -45.26611328 15.68261719 C-43.59594059 15.64437143 -41.92568677 15.60951085 -40.25537109 15.578125 C-37.85224443 15.53237839 -35.44967416 15.47440075 -33.046875 15.4140625 C-32.30193787 15.40251129 -31.55700073 15.39096008 -30.78948975 15.37905884 C-26.99194423 15.27132976 -24.28260537 14.91981818 -21 13 C-17.62859376 12.70864391 -14.28090006 12.62267393 -10.8984375 12.5390625 C-9.94195312 12.36117187 -8.98546875 12.18328125 -8 12 C-6.68660164 10.23876974 -6.68660164 10.23876974 -6 8 C-5.03327536 6.56042092 -4.03215692 5.14341184 -3 3.75 C-2.484375 3.04359375 -1.96875 2.3371875 -1.4375 1.609375 C-0.963125 1.07828125 -0.48875 0.5471875 0 0 Z " fill="#A86EA9" transform="translate(87,70)"/>
<path d="M0 0 C0.53625 0.2475 1.0725 0.495 1.625 0.75 C1.625 1.74 1.625 2.73 1.625 3.75 C2.945 3.42 4.265 3.09 5.625 2.75 C6.615 4.235 6.615 4.235 7.625 5.75 C8.285 5.75 8.945 5.75 9.625 5.75 C10.285 3.77 10.945 1.79 11.625 -0.25 C13.53108098 2.96182149 13.84766247 5.28882603 13.75 9 C13.73195313 9.89203125 13.71390625 10.7840625 13.6953125 11.703125 C13.67210938 12.37859375 13.64890625 13.0540625 13.625 13.75 C12.305 14.08 10.985 14.41 9.625 14.75 C9.0475 13.80125 8.47 12.8525 7.875 11.875 C4.49970671 7.70262579 0.14960015 7.60103645 -4.92578125 6.9765625 C-6.13814453 6.86441406 -6.13814453 6.86441406 -7.375 6.75 C-7.705 5.76 -8.035 4.77 -8.375 3.75 C-2.95961538 -0.31153846 -2.95961538 -0.31153846 0 0 Z " fill="#6C139C" transform="translate(73.375,41.25)"/>
<path d="M0 0 C0.33 0 0.66 0 1 0 C1.09796875 0.75023437 1.1959375 1.50046875 1.296875 2.2734375 C2.5010897 10.51607947 4.33669604 18.00504407 9 25 C9.309375 25.66 9.61875 26.32 9.9375 27 C10.91279554 29.0713491 10.91279554 29.0713491 12.625 30.625 C13.305625 31.305625 13.305625 31.305625 14 32 C14 32.66 14 33.32 14 34 C16.31 34.66 18.62 35.32 21 36 C21 36.33 21 36.66 21 37 C16.37390802 37.3227506 13.71973879 36.84450614 10 34 C10 33.34 10 32.68 10 32 C9.13375 31.9071875 9.13375 31.9071875 8.25 31.8125 C5.01030139 30.64260883 3.94247814 28.81563168 2 26 C-1.00184207 17.31958305 -1.37039089 9.01486054 0 0 Z " fill="#641990" transform="translate(14,46)"/>
<path d="M0 0 C1.37224699 3.70506688 0.53357877 5.45707874 -1 9 C-1.41378906 9.98097656 -1.82757813 10.96195313 -2.25390625 11.97265625 C-3.12763347 14.03569575 -4.00263768 16.09819489 -4.87890625 18.16015625 C-8.22450246 26.63488951 -7.64907767 36.13620751 -6 45 C-9.95221475 41.73512694 -9.94168171 37.80193735 -10.4921875 32.9609375 C-11.34314737 23.68113431 -11.65656409 15.99260825 -6 8 C-5.34 7.67 -4.68 7.34 -4 7 C-2.88365848 5.34948712 -2.88365848 5.34948712 -1.875 3.4375 C-1.25625 2.303125 -0.6375 1.16875 0 0 Z " fill="#994DAB" transform="translate(17,22)"/>
<path d="M0 0 C3.15719572 1.39390539 5.2812653 3.03634972 7.6875 5.5 C8.28949219 6.1084375 8.89148438 6.716875 9.51171875 7.34375 C11 9 11 9 12 11 C26.39161869 17.83687349 43.8253556 17.11274757 59 14 C53.94119779 19.05880221 47.624317 19.32676941 40.8125 19.375 C33.24466329 19.32211851 26.27724027 18.11525117 19 16 C17.845 15.73703125 16.69 15.4740625 15.5 15.203125 C11.46025001 13.81446094 9.23564075 12.02883915 6.125 9.125 C5.17882812 8.26132813 4.23265625 7.39765625 3.2578125 6.5078125 C1.15012428 4.16674703 0.3281629 3.06760975 0 0 Z " fill="#D3A8C4" transform="translate(12,76)"/>
<path d="M0 0 C-1.56119422 0.79423861 -3.12401964 1.58527123 -4.6875 2.375 C-5.55761719 2.81585937 -6.42773438 3.25671875 -7.32421875 3.7109375 C-9.84772799 4.92664268 -12.38737532 5.99260958 -15 7 C-15 9.64 -15 12.28 -15 15 C-15.66 15 -16.32 15 -17 15 C-17.33 13.35 -17.66 11.7 -18 10 C-18.61875 10.969375 -19.2375 11.93875 -19.875 12.9375 C-22 16 -22 16 -24 17 C-25.13102526 19.34038186 -25.13102526 19.34038186 -26.125 22.0625 C-26.47820313 22.98160156 -26.83140625 23.90070312 -27.1953125 24.84765625 C-27.46085937 25.55792969 -27.72640625 26.26820312 -28 27 C-29.05196684 24.29038844 -29.05925856 23.16777422 -28.07421875 20.37890625 C-27.61660156 19.44949219 -27.15898437 18.52007812 -26.6875 17.5625 C-24.72706175 13.54446473 -24.72706175 13.54446473 -23.08984375 9.390625 C-21.79117387 6.54192978 -20.28085939 5.16651337 -17.875 3.1875 C-17.15054687 2.58292969 -16.42609375 1.97835938 -15.6796875 1.35546875 C-14.84824219 0.68451172 -14.84824219 0.68451172 -14 0 C-13.67 0.99 -13.34 1.98 -13 3 C-12.39671875 2.69964844 -11.7934375 2.39929688 -11.171875 2.08984375 C-10.37265625 1.70957031 -9.5734375 1.32929688 -8.75 0.9375 C-7.96109375 0.55464844 -7.1721875 0.17179688 -6.359375 -0.22265625 C-3.74006478 -1.08564091 -2.55144824 -0.93045933 0 0 Z " fill="#D496DB" transform="translate(35,14)"/>
<path d="M0 0 C2.80849619 1.4042481 2.88266612 3.10807701 4 6 C4.70769531 7.16402344 4.70769531 7.16402344 5.4296875 8.3515625 C10.05412156 16.15098114 11.37992859 23.93682417 11.4375 32.875 C11.44740967 33.68340332 11.45731934 34.49180664 11.4675293 35.32470703 C11.39606195 40.2842324 10.6326379 43.65649662 8 48 C6.81676023 44.45028069 7.35094635 42.6498154 8 39 C8.31590713 31.59476513 7.99516735 24.33935924 7 17 C5.68 17 4.36 17 3 17 C2.896875 15.88625 2.79375 14.7725 2.6875 13.625 C2.460625 12.42875 2.23375 11.2325 2 10 C1.01 9.34 0.02 8.68 -1 8 C-0.67 5.36 -0.34 2.72 0 0 Z " fill="#9B41B6" transform="translate(82,22)"/>
<path d="M0 0 C5.80335213 0.49390231 11.01940092 1.87168984 16 5 C17.5625 7.75 17.5625 7.75 18 10 C15 11 15 11 12.4375 10.0625 C6.72857154 8.29792211 0.75167707 8.34341098 -5 10 C-5 9.34 -5 8.68 -5 8 C-1.78817851 6.09391902 0.53882603 5.77733753 4.25 5.875 C5.14203125 5.89304687 6.0340625 5.91109375 6.953125 5.9296875 C7.96632813 5.96449219 7.96632813 5.96449219 9 6 C9 5.34 9 4.68 9 4 C8.2575 3.87625 7.515 3.7525 6.75 3.625 C4.19858515 3.04513299 2.2732427 2.26291261 0 1 C0 0.67 0 0.34 0 0 Z " fill="#EEC9EB" transform="translate(57,3)"/>
<path d="M0 0 C2.86724686 0.57344937 3.8614515 0.8614515 6 3 C5.21625 3.886875 4.4325 4.77375 3.625 5.6875 C1.42843009 8.30720519 0.06209659 10.71715601 -1 14 C-1.99 14 -2.98 14 -4 14 C-4.33 14.99 -4.66 15.98 -5 17 C-6.32229189 14.35541621 -6.09677194 12.32238699 -6.0625 9.375 C-6.05347656 8.37210938 -6.04445312 7.36921875 -6.03515625 6.3359375 C-6.02355469 5.56507812 -6.01195312 4.79421875 -6 4 C-4.35 3.67 -2.7 3.34 -1 3 C-0.67 2.01 -0.34 1.02 0 0 Z " fill="#9D67A7" transform="translate(64,32)"/>
<path d="M0 0 C-1.49389293 3.83658866 -3.63623019 5.46185426 -7 7.75 C-8.3303125 8.67039062 -8.3303125 8.67039062 -9.6875 9.609375 C-12 11 -12 11 -14 11 C-14.33 11.99 -14.66 12.98 -15 14 C-15.99 12.68 -16.98 11.36 -18 10 C-17.01 9.67 -16.02 9.34 -15 9 C-13.65668346 7.00669158 -12.32405988 5.00615134 -11 3 C-7.60848261 -0.50846627 -4.73974794 -0.273447 0 0 Z " fill="#E59DDF" transform="translate(78,34)"/>
<path d="M0 0 C-2.5652659 1.71017726 -4.87960965 2.90417811 -7.6875 4.125 C-8.49574219 4.47820313 -9.30398437 4.83140625 -10.13671875 5.1953125 C-10.75160156 5.46085938 -11.36648437 5.72640625 -12 6 C-11.01257812 6.03738281 -10.02515625 6.07476563 -9.0078125 6.11328125 C-7.08582031 6.21189453 -7.08582031 6.21189453 -5.125 6.3125 C-3.84882812 6.37050781 -2.57265625 6.42851562 -1.2578125 6.48828125 C0.35480469 6.74158203 0.35480469 6.74158203 2 7 C2.99 8.485 2.99 8.485 4 10 C3.34 9.835 2.68 9.67 2 9.5 C-5.32072459 8.27987924 -12.67111735 9.2455562 -20 10 C-19.69921875 8.1328125 -19.69921875 8.1328125 -19 6 C-12.95053632 1.96702422 -7.38934333 -0.35187349 0 0 Z " fill="#EFCBEC" transform="translate(45,3)"/>
<path d="M0 0 C3.16115776 1.36983503 3.9927092 1.9890638 6 5 C6 6.32 6 7.64 6 9 C6.66 9 7.32 9 8 9 C8 14.28 8 19.56 8 25 C6 22 6 22 5.5 18.375 C5.335 17.26125 5.17 16.1475 5 15 C4.34 14.67 3.68 14.34 3 14 C2.690625 13.05125 2.38125 12.1025 2.0625 11.125 C1.05205433 8.15310098 0.37002539 6.93911169 -2 5 C-1.34 3.35 -0.68 1.7 0 0 Z " fill="#811FAC" transform="translate(81,30)"/>
<path d="M0 0 C1.77713878 2.66570816 2.35056211 4.03313934 3.125 7 C5.0934574 13.19962614 9.04150709 17.93217138 13 23 C14.00250449 24.33145128 15.0034912 25.66405539 16 27 C13.53199953 25.84826645 11.95216435 24.95216435 10 23 C9.34 23.33 8.68 23.66 8 24 C6.84735447 22.25447936 5.70312673 20.50339804 4.5625 18.75 C3.92441406 17.77546875 3.28632812 16.8009375 2.62890625 15.796875 C1.23664482 13.4063254 0.33103607 11.72051464 0 9 C0.33 8.34 0.66 7.68 1 7 C0.71758117 4.6599583 0.38749213 2.32495277 0 0 Z " fill="#F5E5EB" transform="translate(3,59)"/>
<path d="M0 0 C0.99 0.495 0.99 0.495 2 1 C2 1.99 2 2.98 2 4 C2.66 4 3.32 4 4 4 C8.81353692 12.343464 8.41146909 26.10956217 6.2109375 35.29296875 C4.67552544 39.26042662 3.15846793 42.11303361 0 45 C0.64214778 41.27554285 1.72319275 37.96578254 3.0625 34.4375 C6.0599385 25.60808875 5.39832245 17.08909594 4 8 C3.34 8 2.68 8 2 8 C1.34 5.36 0.68 2.72 0 0 Z " fill="#CC8CCC" transform="translate(89,29)"/>
<path d="M0 0 C2.13791946 3.50860169 2.31833297 6.49770022 2.5 10.5625 C2.99876505 18.97150366 4.00275677 27.07871433 7 35 C0.1780477 28.35296955 0.14612511 23.24315618 -0.04296875 13.87011719 C-0.08361817 9.24624574 -0.05280821 4.623652 0 0 Z " fill="#BA78BC" transform="translate(5,41)"/>
<path d="M0 0 C2.59408289 2.59408289 2.31196808 4.4776213 2.37890625 8.02001953 C2.37761719 8.81778809 2.37632813 9.61555664 2.375 10.4375 C2.37628906 11.24558105 2.37757812 12.05366211 2.37890625 12.88623047 C2.26280374 19.49483814 0.94089961 25.03942668 -2 31 C-2.33 31 -2.66 31 -3 31 C-3.18935556 26.45546663 -2.74766868 23.00675422 -1.51171875 18.59765625 C-0.3119758 12.50735808 -0.28541851 6.18907516 0 0 Z " fill="#FCF7F8" transform="translate(98,41)"/>
<path d="M0 0 C6.69546278 6.0028287 8.6909247 13.62587439 9.19140625 22.328125 C9.35637331 32.13816597 9.35637331 32.13816597 7 36 C6.95101562 34.81664062 6.90203125 33.63328125 6.8515625 32.4140625 C6.47057735 24.09222062 5.9665702 16.12849016 4 8 C3.34 8 2.68 8 2 8 C0.23537317 4.91190305 0 3.76687864 0 0 Z " fill="#E6BBDD" transform="translate(89,25)"/>
<path d="M0 0 C8.95570899 0.68474234 8.95570899 0.68474234 13.3125 2 C18.79750645 3.48745938 24.34208462 3.67669055 30 4 C30 4.66 30 5.32 30 6 C27.24973583 6.05404449 24.50053797 6.09369306 21.75 6.125 C20.97269531 6.14175781 20.19539063 6.15851563 19.39453125 6.17578125 C15.36810653 6.21019514 12.50062835 6.19806896 9 4 C7.80375 3.67 6.6075 3.34 5.375 3 C2 2 2 2 0 0 Z " fill="#E2C0D0" transform="translate(27,91)"/>
<path d="M0 0 C3.88724317 6.37075964 2.55615478 15.3098035 1 22.3125 C0.67 23.529375 0.34 24.74625 0 26 C-1.32 26.33 -2.64 26.66 -4 27 C-3.79503906 25.97261719 -3.59007813 24.94523437 -3.37890625 23.88671875 C-1.82280741 15.9361013 -0.49778476 8.10187603 0 0 Z " fill="#8739A2" transform="translate(89,44)"/>
<path d="M0 0 C0.66 0 1.32 0 2 0 C2 3.3 2 6.6 2 10 C1.67 10 1.34 10 1 10 C0.67 8.35 0.34 6.7 0 5 C-0.61875 5.969375 -1.2375 6.93875 -1.875 7.9375 C-4 11 -4 11 -6 12 C-7.13102526 14.34038186 -7.13102526 14.34038186 -8.125 17.0625 C-8.47820313 17.98160156 -8.83140625 18.90070312 -9.1953125 19.84765625 C-9.46085938 20.55792969 -9.72640625 21.26820312 -10 22 C-10.98751931 19.38092705 -11.05068419 18.16466056 -10.21484375 15.44921875 C-7.4497478 9.47086145 -4.6743462 4.6743462 0 0 Z " fill="#C173CD" transform="translate(17,19)"/>
<path d="M0 0 C2.125 0.3125 2.125 0.3125 4 1 C4.99 0.67 5.98 0.34 7 0 C6.67 1.65 6.34 3.3 6 5 C4.68 4.67 3.36 4.34 2 4 C1.67 4.99 1.34 5.98 1 7 C-0.65 6.67 -2.3 6.34 -4 6 C-4.33 7.32 -4.66 8.64 -5 10 C-5 9.01 -5 8.02 -5 7 C-7.31 7 -9.62 7 -12 7 C-12 6.67 -12 6.34 -12 6 C-10.948125 5.7525 -9.89625 5.505 -8.8125 5.25 C-5.90347663 4.44649959 -4.76165955 3.80600196 -2.3125 1.8125 C-1.549375 1.214375 -0.78625 0.61625 0 0 Z " fill="#10014A" transform="translate(57,61)"/>
<path d="M0 0 C2.46800047 1.15173355 4.04783565 2.04783565 6 4 C8.62028847 4.44495465 11.17414437 4.79232111 13.8125 5.0625 C18.24739795 5.54813136 22.63839951 6.03170755 27 7 C27 7.33 27 7.66 27 8 C23.81346778 8.20521899 20.62864948 8.32822933 17.4375 8.4375 C16.54224609 8.49615234 15.64699219 8.55480469 14.72460938 8.61523438 C10.78980014 8.71612692 8.07724429 8.7560901 4.78564453 6.44580078 C3.02445445 4.70945994 1.4467137 3.00489219 0 1 C0 0.67 0 0.34 0 0 Z " fill="#9557A0" transform="translate(18,78)"/>
<path d="M0 0 C0.33 0 0.66 0 1 0 C1.13277344 0.67546875 1.26554687 1.3509375 1.40234375 2.046875 C1.57894531 2.93890625 1.75554688 3.8309375 1.9375 4.75 C2.19853516 6.07257812 2.19853516 6.07257812 2.46484375 7.421875 C2.72974609 8.69804688 2.72974609 8.69804688 3 10 C3.21849609 11.12148438 3.21849609 11.12148438 3.44140625 12.265625 C3.62574219 12.83796875 3.81007813 13.4103125 4 14 C4.66 14.33 5.32 14.66 6 15 C3.03 15 0.06 15 -3 15 C-3.66 13.68 -4.32 12.36 -5 11 C-3.625 9.5 -3.625 9.5 -2 8 C-1.34 8 -0.68 8 0 8 C0 5.36 0 2.72 0 0 Z " fill="#9E6DA7" transform="translate(52,32)"/>
<path d="M0 0 C0.97582031 0.20367188 1.95164062 0.40734375 2.95703125 0.6171875 C3.69308594 0.78476562 4.42914063 0.95234375 5.1875 1.125 C3.375 3.1875 3.375 3.1875 0.1875 5.125 C-3.54280079 5.18263105 -7.13412911 4.71766221 -10.8125 4.125 C-10.8125 3.135 -10.8125 2.145 -10.8125 1.125 C-6.782179 -0.86437234 -4.36524185 -0.94667896 0 0 Z " fill="#8948A0" transform="translate(56.8125,22.875)"/>
<path d="M0 0 C0.33 0 0.66 0 1 0 C0.88382356 1.37577361 0.75654223 2.75061045 0.625 4.125 C0.55539063 4.89070313 0.48578125 5.65640625 0.4140625 6.4453125 C0 9 0 9 -1 11.84375 C-2.13228183 15.41751453 -2.41341662 18.63702691 -2.625 22.375 C-2.69976562 23.62023437 -2.77453125 24.86546875 -2.8515625 26.1484375 C-2.90054687 27.08945312 -2.94953125 28.03046875 -3 29 C-3.33 29 -3.66 29 -4 29 C-5.20195034 18.18244692 -6.11095133 9.59990278 0 0 Z " fill="#A957BA" transform="translate(11,30)"/>
<path d="M0 0 C5.93002267 -0.37851209 10.47239641 0.89424625 16 3 C14 5 14 5 11.1796875 5.1953125 C10.08914062 5.17210937 8.99859375 5.14890625 7.875 5.125 C6.77929688 5.10695313 5.68359375 5.08890625 4.5546875 5.0703125 C3.29011719 5.03550781 3.29011719 5.03550781 2 5 C1.34 3.35 0.68 1.7 0 0 Z " fill="#C867C4" transform="translate(43,47)"/>
<path d="M0 0 C0.9821994 3.27626375 1.11580914 6.22788119 1.09765625 9.640625 C1.09443359 10.71054687 1.09121094 11.78046875 1.08789062 12.8828125 C1.07951172 13.99398437 1.07113281 15.10515625 1.0625 16.25 C1.05798828 17.37664063 1.05347656 18.50328125 1.04882812 19.6640625 C1.03705397 22.44276217 1.0206084 25.22135409 1 28 C-2.08292137 23.37561795 -2.18261764 19.5727479 -2.1875 14.1875 C-2.19974609 13.48818359 -2.21199219 12.78886719 -2.22460938 12.06835938 C-2.23699659 7.65438345 -1.62789183 4.09868416 0 0 Z " fill="#DBAAD2" transform="translate(5,37)"/>
<path d="M0 0 C2 3 2 3 3 6 C0.66666667 10.66666667 0.66666667 10.66666667 -2 12 C-3.12706706 14.11015954 -3.12706706 14.11015954 -4.125 16.5625 C-4.47820313 17.38878906 -4.83140625 18.21507813 -5.1953125 19.06640625 C-5.46085938 19.70449219 -5.72640625 20.34257813 -6 21 C-6.99828099 17.87785944 -7.12380858 17.27119974 -5.6875 14.125 C-5.130625 13.09375 -4.57375 12.0625 -4 11 C-3.30899447 9.00827818 -2.64097297 7.00838196 -2 5 C-1.34588315 3.32836805 -0.68346682 1.65984798 0 0 Z " fill="#8924B3" transform="translate(17,26)"/>
<path d="M0 0 C0.92565097 3.04838441 1.04155806 5.46489969 0.6875 8.625 C0.56955078 9.78902344 0.56955078 9.78902344 0.44921875 10.9765625 C0 13 0 13 -2 15 C-2.33 14.67 -2.66 14.34 -3 14 C-4.32 15.32 -5.64 16.64 -7 18 C-7 14.56337914 -6.0120958 13.53706383 -4.08984375 10.828125 C-2.09066133 7.47465771 -1.09351937 3.72790695 0 0 Z " fill="#EDD3E0" transform="translate(95,61)"/>
<path d="M0 0 C0.33 0 0.66 0 1 0 C1.20743034 10.57894737 1.20743034 10.57894737 0 14 C-2.0625 15.8125 -2.0625 15.8125 -4 17 C-3.67 14.36 -3.34 11.72 -3 9 C-3.33 9 -3.66 9 -4 9 C-4 7.35 -4 5.7 -4 4 C-3.01 3.67 -2.02 3.34 -1 3 C-0.67 2.01 -0.34 1.02 0 0 Z " fill="#701E98" transform="translate(87,52)"/>
<path d="M0 0 C2.97 0.33 5.94 0.66 9 1 C9.33 2.32 9.66 3.64 10 5 C8.0625 7.25 8.0625 7.25 6 9 C3.52806709 6.03368051 1.74381547 3.48763093 0 0 Z " fill="#6B328F" transform="translate(63,51)"/>
<path d="M0 0 C3 3 3 3 3.1875 6.1875 C3.125625 7.115625 3.06375 8.04375 3 9 C1.02 9.99 1.02 9.99 -1 11 C-1 10.34 -1 9.68 -1 9 C-1.99 8.67 -2.98 8.34 -4 8 C-2.68 5.36 -1.36 2.72 0 0 Z " fill="#6B338F" transform="translate(61,52)"/>
<path d="M0 0 C0.67546875 0.05800781 1.3509375 0.11601562 2.046875 0.17578125 C2.046875 2.81578125 2.046875 5.45578125 2.046875 8.17578125 C0.726875 8.17578125 -0.593125 8.17578125 -1.953125 8.17578125 C-1.953125 6.85578125 -1.953125 5.53578125 -1.953125 4.17578125 C-1.293125 4.17578125 -0.633125 4.17578125 0.046875 4.17578125 C0.046875 3.51578125 0.046875 2.85578125 0.046875 2.17578125 C-3.28454778 1.67452842 -3.28454778 1.67452842 -6.953125 2.17578125 C-9.44852871 5.04193611 -9.44852871 5.04193611 -10.953125 8.17578125 C-11.953125 5.17578125 -11.953125 5.17578125 -10.640625 2.48828125 C-7.03817117 -0.6115046 -4.60054456 -0.2326865 0 0 Z " fill="#653D81" transform="translate(49.953125,31.82421875)"/>
<path d="M0 0 C0.66 0 1.32 0 2 0 C1.38536776 5.37803214 -1.13766432 8.2540603 -5 11.875 C-7 13 -7 13 -9.25 12.6875 C-9.8275 12.460625 -10.405 12.23375 -11 12 C-10.01 12 -9.02 12 -8 12 C-7.731875 11.42765625 -7.46375 10.8553125 -7.1875 10.265625 C-5.95867364 7.92115366 -4.57477824 5.87595062 -3 3.75 C-2.484375 3.04359375 -1.96875 2.3371875 -1.4375 1.609375 C-0.963125 1.07828125 -0.48875 0.5471875 0 0 Z " fill="#A263A8" transform="translate(87,70)"/>
<path d="M0 0 C1.32 0.66 2.64 1.32 4 2 C4 2.66 4 3.32 4 4 C3.03578125 4.06058594 2.0715625 4.12117187 1.078125 4.18359375 C-0.18515625 4.26738281 -1.4484375 4.35117188 -2.75 4.4375 C-4.00296875 4.51871094 -5.2559375 4.59992187 -6.546875 4.68359375 C-9.18317553 4.92515522 -11.48037294 5.24283934 -14 6 C-14 5.34 -14 4.68 -14 4 C-10.78817851 2.09391902 -8.46117397 1.77733753 -4.75 1.875 C-3.85796875 1.89304687 -2.9659375 1.91109375 -2.046875 1.9296875 C-1.03367187 1.96449219 -1.03367187 1.96449219 0 2 C0 1.34 0 0.68 0 0 Z " fill="#F7E3F2" transform="translate(66,7)"/>
<path d="M0 0 C2.51815182 1.25907591 2.69260426 2.21474667 3.8125 4.75 C5.66313762 8.60206793 7.84681704 11.07753775 11 14 C12.71531079 15.96370279 14.35365205 17.97734395 16 20 C12.8731209 18.61867539 10.80079608 17.02096237 8.4375 14.5625 C7.85871094 13.96566406 7.27992187 13.36882812 6.68359375 12.75390625 C6.12800781 12.17511719 5.57242187 11.59632812 5 11 C4.45859375 10.47148438 3.9171875 9.94296875 3.359375 9.3984375 C0.41375922 6.36817759 0 4.23389274 0 0 Z " fill="#A96BAC" transform="translate(9,66)"/>
<path d="M0 0 C0.33 0 0.66 0 1 0 C1 2.31 1 4.62 1 7 C2.65 7 4.3 7 6 7 C6.33 5.02 6.66 3.04 7 1 C7.99 1.66 8.98 2.32 10 3 C9.649375 3.61875 9.29875 4.2375 8.9375 4.875 C8.628125 5.57625 8.31875 6.2775 8 7 C8.33 7.66 8.66 8.32 9 9 C7.35 9.33 5.7 9.66 4 10 C4.33 10.66 4.66 11.32 5 12 C1.125 10.125 1.125 10.125 0 9 C-0.07179964 7.48071962 -0.08392007 5.95832518 -0.0625 4.4375 C-0.05347656 3.61121094 -0.04445312 2.78492188 -0.03515625 1.93359375 C-0.02355469 1.29550781 -0.01195312 0.65742187 0 0 Z " fill="#DD93D6" transform="translate(40,38)"/>
<path d="M0 0 C0.66 0.66 1.32 1.32 2 2 C1.01 3.32 0.02 4.64 -1 6 C-0.01 6.33 0.98 6.66 2 7 C-2.75 10 -2.75 10 -5 10 C-5.33 10.99 -5.66 11.98 -6 13 C-6.99 11.68 -7.98 10.36 -9 9 C-8.01 8.67 -7.02 8.34 -6 8 C-4.61876037 6.03277992 -3.28511874 4.03131672 -2 2 C-1.34 1.34 -0.68 0.68 0 0 Z " fill="#D296CF" transform="translate(69,35)"/>
<path d="M0 0 C2.86724686 0.57344937 3.8614515 0.8614515 6 3 C3.03 5.475 3.03 5.475 0 8 C0 7.01 0 6.02 0 5 C-1.65 5.33 -3.3 5.66 -5 6 C-5 5.01 -5 4.02 -5 3 C-3.68 3 -2.36 3 -1 3 C-0.67 2.01 -0.34 1.02 0 0 Z " fill="#74438C" transform="translate(64,32)"/>
<path d="M0 0 C3.4232134 1.4165021 4.82484659 3.06827149 7 6 C7.99 6.33 8.98 6.66 10 7 C10.33 7.66 10.66 8.32 11 9 C13.01669827 10.13350534 13.01669827 10.13350534 15 11 C15 11.33 15 11.66 15 12 C11.9993626 12.26707244 10.42266703 12.26426209 7.83203125 10.64453125 C1.10000751 4.53753099 1.10000751 4.53753099 0 0 Z " fill="#803D97" transform="translate(14,71)"/>
<path d="M0 0 C3.3 0 6.6 0 10 0 C8 4 8 4 5 6 C4.01 6 3.02 6 2 6 C2 4.35 2 2.7 2 1 C1.34 0.67 0.68 0.34 0 0 Z " fill="#69338E" transform="translate(49,52)"/>
<path d="M0 0 C0.33 0 0.66 0 1 0 C1.08132642 3.04221065 1.14065374 6.0822238 1.1875 9.125 C1.22520508 10.40890625 1.22520508 10.40890625 1.26367188 11.71875 C1.32398809 16.94615526 0.85261993 20.43281324 -2 25 C-3.32737507 21.0178748 -2.1585264 19.00554339 -1 15 C-0.72433032 12.36033278 -0.51572333 9.71278937 -0.375 7.0625 C-0.33632812 6.37865234 -0.29765625 5.69480469 -0.2578125 4.99023438 C-0.16477588 3.32720487 -0.08136213 1.66364153 0 0 Z " fill="#A35BAF" transform="translate(92,45)"/>
<path d="M0 0 C3.21524305 1.40844718 5.32183868 3.10344786 7.75 5.625 C8.67039062 6.57246094 8.67039062 6.57246094 9.609375 7.5390625 C10.29773438 8.26222656 10.29773438 8.26222656 11 9 C9.68 9.33 8.36 9.66 7 10 C5.82739389 8.71372289 4.6620717 7.42080217 3.5 6.125 C2.8503125 5.40570313 2.200625 4.68640625 1.53125 3.9453125 C0 2 0 2 0 0 Z " fill="#CB9BC0" transform="translate(12,76)"/>
<path d="M0 0 C6.75 5.75 6.75 5.75 9 8 C8.625 10.125 8.625 10.125 8 12 C6.35 10.02 4.7 8.04 3 6 C2.67 7.65 2.34 9.3 2 11 C1.67 11 1.34 11 1 11 C0.67 7.37 0.34 3.74 0 0 Z " fill="#C172CF" transform="translate(80,17)"/>
<path d="M0 0 C0.33 0 0.66 0 1 0 C1.9053518 6.08053846 2.54867853 11.20754879 0 17 C-2.625 19.4375 -2.625 19.4375 -5 21 C-5.66 20.34 -6.32 19.68 -7 19 C-6.20207031 18.49984375 -5.40414062 17.9996875 -4.58203125 17.484375 C-1.29441669 14.3211029 -1.02824347 11.59345291 -0.6875 7.25 C-0.61466797 6.55261719 -0.54183594 5.85523438 -0.46679688 5.13671875 C-0.29108191 3.42642647 -0.14277968 1.71335618 0 0 Z " fill="#C970D1" transform="translate(79,21)"/>
<path d="M0 0 C1.27310312 0.93441535 2.543388 1.87267111 3.8125 2.8125 C4.52019531 3.33457031 5.22789063 3.85664062 5.95703125 4.39453125 C7.79961207 5.84252498 9.46364869 7.23101505 11 9 C11 9.66 11 10.32 11 11 C6.296847 9.6167197 2.89806188 6.91387738 0 3 C0 2.01 0 1.02 0 0 Z " fill="#FBF3F4" transform="translate(12,81)"/>
<path d="M0 0 C0.66 0.33 1.32 0.66 2 1 C1.67 1.33 1.34 1.66 1 2 C3.64 2 6.28 2 9 2 C6.25906335 3.8272911 3.86174676 4.93698178 0.8125 6.125 C-0.08855469 6.47820313 -0.98960938 6.83140625 -1.91796875 7.1953125 C-2.94857422 7.59363281 -2.94857422 7.59363281 -4 8 C-2.25 2.25 -2.25 2.25 0 0 Z " fill="#E1ABE2" transform="translate(25,10)"/>
<path d="M0 0 C0.66 0.33 1.32 0.66 2 1 C1.25234375 1.53109375 0.5046875 2.0621875 -0.265625 2.609375 C-1.25046875 3.31578125 -2.2353125 4.0221875 -3.25 4.75 C-4.22453125 5.44609375 -5.1990625 6.1421875 -6.203125 6.859375 C-8.69233296 8.76452299 -10.84971939 10.72684621 -13 13 C-13 11.68 -13 10.36 -13 9 C-10.6640625 6.89453125 -10.6640625 6.89453125 -7.625 4.8125 C-6.62726562 4.11769531 -5.62953125 3.42289063 -4.6015625 2.70703125 C-2 1 -2 1 0 0 Z " fill="#AE53C6" transform="translate(34,18)"/>
<path d="M0 0 C2.97 0 5.94 0 9 0 C8.67 1.32 8.34 2.64 8 4 C9.32 4.33 10.64 4.66 12 5 C6.72209903 5.50265724 4.13774748 4.25108731 0 1 C0 0.67 0 0.34 0 0 Z " fill="#400875" transform="translate(45,74)"/>
<path d="M0 0 C0.95651196 2.58258228 1.03620881 3.8650399 0.3125 6.5625 C-1.12035293 9.22351258 -2.47085828 10.39821025 -5 12 C-4.42365861 7.24518354 -2.44931479 4.02951788 0 0 Z " fill="#A243BF" transform="translate(17,22)"/>
<path d="M0 0 C0.33 0 0.66 0 1 0 C0.61026207 5.92670444 -0.2415874 10.70384782 -3 16 C-3.66 16.33 -4.32 16.66 -5 17 C-4.31063929 13.08878502 -3.21749819 9.44491404 -1.9375 5.6875 C-1.57527344 4.61886719 -1.21304688 3.55023438 -0.83984375 2.44921875 C-0.56269531 1.64097656 -0.28554687 0.83273438 0 0 Z " fill="#C78FC1" transform="translate(94,57)"/>
<path d="M0 0 C0.33 0.66 0.66 1.32 1 2 C1.99 2.33 2.98 2.66 4 3 C3.67 3.99 3.34 4.98 3 6 C1.02 6 -0.96 6 -3 6 C-3.33 5.01 -3.66 4.02 -4 3 C-2.68 2.01 -1.36 1.02 0 0 Z " fill="#652F8C" transform="translate(69,42)"/>
<path d="M0 0 C0.33 1.32 0.66 2.64 1 4 C1.99 4 2.98 4 4 4 C4.66 2.68 5.32 1.36 6 0 C6 2.64 6 5.28 6 8 C3.69 7.34 1.38 6.68 -1 6 C-0.67 4.02 -0.34 2.04 0 0 Z " fill="#8F649E" transform="translate(34,38)"/>
<path d="M0 0 C2.09375 -0.3984375 2.09375 -0.3984375 4.5 -0.375 C5.2940625 -0.38273437 6.088125 -0.39046875 6.90625 -0.3984375 C7.5971875 -0.26695313 8.288125 -0.13546875 9 0 C11 3 11 3 11 7 C10.34 7 9.68 7 9 7 C8.34 5.35 7.68 3.7 7 2 C2.545 2.495 2.545 2.495 -2 3 C-1.34 2.01 -0.68 1.02 0 0 Z " fill="#E493DF" transform="translate(58,26)"/>
<path d="M0 0 C3.65316671 1.24976756 4.78065836 1.67098753 7 5 C6.625 7.1875 6.625 7.1875 6 9 C4.35 8.01 2.7 7.02 1 6 C1.33 5.01 1.66 4.02 2 3 C1.34 2.01 0.68 1.02 0 0 Z " fill="#E1ADE3" transform="translate(72,9)"/>
<path d="M0 0 C3.39914975 1.13304992 4.05254451 2.12518475 6 5 C4.79618552 7.49361571 3.54571278 9.68143083 2 12 C1.93941406 11.38511719 1.87882812 10.77023438 1.81640625 10.13671875 C1.73261719 9.32847656 1.64882813 8.52023438 1.5625 7.6875 C1.48128906 6.88699219 1.40007813 6.08648437 1.31640625 5.26171875 C1.04734307 2.83912821 1.04734307 2.83912821 0 0 Z " fill="#BE62BD" transform="translate(62,52)"/>
<path d="M0 0 C1 2 1 2 0.58203125 3.875 C-1.51579094 9.66797093 -1.51579094 9.66797093 -4.1875 11.5 C-4.785625 11.665 -5.38375 11.83 -6 12 C-5.67 10.02 -5.34 8.04 -5 6 C-4.01 5.67 -3.02 5.34 -2 5 C-0.78130071 2.49552484 -0.78130071 2.49552484 0 0 Z " fill="#7816A9" transform="translate(19,32)"/>
<path d="M0 0 C1.49080078 0.29197266 1.49080078 0.29197266 3.01171875 0.58984375 C4.15060547 0.82380859 4.15060547 0.82380859 5.3125 1.0625 C1.90742291 3.33255139 1.09771579 3.24570175 -2.8125 2.8125 C-3.70195313 2.72484375 -4.59140625 2.6371875 -5.5078125 2.546875 C-6.58675781 2.30710937 -6.58675781 2.30710937 -7.6875 2.0625 C-8.0175 1.4025 -8.3475 0.7425 -8.6875 0.0625 C-5.21237282 -1.09587573 -3.55079714 -0.71015943 0 0 Z " fill="#9B49B2" transform="translate(56.6875,22.9375)"/>
<path d="M0 0 C2 0 4 0 6 0 C5.67 1.65 5.34 3.3 5 5 C2.03 4.505 2.03 4.505 -1 4 C-0.67 2.68 -0.34 1.36 0 0 Z " fill="#2A0A5C" transform="translate(58,61)"/>
<path d="M0 0 C5.63281599 -0.2396943 10.54538831 0.61470179 16 2 C16 2.33 16 2.66 16 3 C10.26157749 3.20413361 5.39460953 3.27141454 0 1 C0 0.67 0 0.34 0 0 Z " fill="#884A99" transform="translate(29,83)"/>
<path d="M0 0 C-0.33 0.66 -0.66 1.32 -1 2 C-3.75078884 2.91692961 -5.35948913 3.10886083 -8.1875 3.0625 C-10.0746875 3.0315625 -10.0746875 3.0315625 -12 3 C-8.52582963 0.68388642 -4.04642977 -2.02321489 0 0 Z " fill="#91529E" transform="translate(80,80)"/>
<path d="M0 0 C0.99 0.33 1.98 0.66 3 1 C2.5205537 5.21912747 1.83374881 7.79663178 -1 11 C-1.14285714 3.57142857 -1.14285714 3.57142857 0 0 Z " fill="#F9EEF2" transform="translate(96,61)"/>
<path d="M0 0 C1.32 0.66 2.64 1.32 4 2 C3.625 3.9375 3.625 3.9375 3 6 C2.01 6.495 2.01 6.495 1 7 C0.34 7.99 -0.32 8.98 -1 10 C-1.6875 8.25 -1.6875 8.25 -2 6 C-0.5625 3.75 -0.5625 3.75 1 2 C0.67 1.34 0.34 0.68 0 0 Z " fill="#2E0668" transform="translate(71,53)"/>
<path d="M0 0 C2.50037734 2.17424117 3.43628586 3.73045798 4 7 C5.65 7 7.3 7 9 7 C6 9 6 9 3 10 C-0.00617269 6.99382731 0.40414684 4.17618402 0 0 Z " fill="#9E4BB5" transform="translate(67,25)"/>
<path d="M0 0 C-4.66666667 2.33333333 -9.33333333 4.66666667 -14 7 C-14 6.34 -14 5.68 -14 5 C-12.57421875 3.74609375 -12.57421875 3.74609375 -10.6875 2.4375 C-10.07261719 2.00308594 -9.45773438 1.56867187 -8.82421875 1.12109375 C-5.52900795 -0.90401439 -3.6015351 -1.11771779 0 0 Z " fill="#CB7CD6" transform="translate(35,14)"/>
<path d="M0 0 C2.31 0 4.62 0 7 0 C6.67 1.65 6.34 3.3 6 5 C4.35 4.67 2.7 4.34 1 4 C0.67 2.68 0.34 1.36 0 0 Z " fill="#B65BB7" transform="translate(43,47)"/>
<path d="M0 0 C0.99 0 1.98 0 3 0 C3 1.65 3 3.3 3 5 C3.66 5 4.32 5 5 5 C5 5.66 5 6.32 5 7 C3.35 6.67 1.7 6.34 0 6 C0.33 5.34 0.66 4.68 1 4 C0.34 3.67 -0.32 3.34 -1 3 C-0.67 2.01 -0.34 1.02 0 0 Z " fill="#2D046B" transform="translate(71,41)"/>
<path d="M0 0 C3.21043882 1.38188453 5.04936365 2.92421903 7.25 5.625 C8.03117187 6.57246094 8.03117187 6.57246094 8.828125 7.5390625 C9.40820312 8.26222656 9.40820312 8.26222656 10 9 C9.67 9.66 9.34 10.32 9 11 C4.60708214 7.68090651 2.1772135 5.20112114 0 0 Z " fill="#DDA1DE" transform="translate(79,14)"/>
<path d="M0 0 C1.98 0.495 1.98 0.495 4 1 C2.62845496 3.95409701 1.01136276 6.44008376 -1 9 C-0.67 6.03 -0.34 3.06 0 0 Z " fill="#3F0579" transform="translate(71,60)"/>
<path d="M0 0 C0 3.29657856 -0.74333269 5.16364428 -2 8.1875 C-2.37125 9.08855469 -2.7425 9.98960938 -3.125 10.91796875 C-3.41375 11.60503906 -3.7025 12.29210938 -4 13 C-4.33 13 -4.66 13 -5 13 C-5.64165788 7.73840541 -4.20577001 5.31407151 -1.09375 1.3203125 C-0.55234375 0.66675781 -0.55234375 0.66675781 0 0 Z " fill="#E0ACDC" transform="translate(11,24)"/>
<path d="M0 0 C0.66 0.33 1.32 0.66 2 1 C-0.64 3.64 -3.28 6.28 -6 9 C-6.66 8.67 -7.32 8.34 -8 8 C-3.375 2.25 -3.375 2.25 0 0 Z " fill="#EC8BE6" transform="translate(30,22)"/>
<path d="M0 0 C3.3 0 6.6 0 10 0 C9.67 0.66 9.34 1.32 9 2 C6.67843403 2.40729228 4.3431213 2.74438677 2 3 C2 2.34 2 1.68 2 1 C1.34 0.67 0.68 0.34 0 0 Z " fill="#C34DBF" transform="translate(54,80)"/>
<path d="M0 0 C0.33 0.99 0.66 1.98 1 3 C0.67 3.66 0.34 4.32 0 5 C-0.66 5 -1.32 5 -2 5 C-2.33 5.66 -2.66 6.32 -3 7 C-3.66 5.68 -4.32 4.36 -5 3 C-3.35 2.01 -1.7 1.02 0 0 Z " fill="#6E4788" transform="translate(52,40)"/>
<path d="M0 0 C0.6875 1.625 0.6875 1.625 1 4 C-0.3125 7 -0.3125 7 -2 10 C-2.391875 10.78375 -2.78375 11.5675 -3.1875 12.375 C-3.455625 12.91125 -3.72375 13.4475 -4 14 C-3.53328373 8.58609132 -2.75702189 4.79482068 0 0 Z " fill="#963AB3" transform="translate(13,33)"/>
<path d="M0 0 C1.65 1.65 3.3 3.3 5 5 C3.33333333 5 1.66666667 5 0 5 C-0.66 5.99 -1.32 6.98 -2 8 C-1.125 1.125 -1.125 1.125 0 0 Z " fill="#DB5DD8" transform="translate(20,33)"/>
<path d="M0 0 C3.9492568 0.55105909 7.34920174 1.38935371 11 3 C11 3.33 11 3.66 11 4 C6.35108046 4.32434322 3.77593392 3.776422 0 1 C0 0.67 0 0.34 0 0 Z " fill="#712E8F" transform="translate(24,79)"/>
<path d="M0 0 C2 2 2 2 2 5 C2.99 5.33 3.98 5.66 5 6 C5.33 7.65 5.66 9.3 6 11 C1.9957657 7.50912907 0.37328935 5.35048061 0 0 Z " fill="#D7AACB" transform="translate(6,65)"/>
<path d="M0 0 C2 0.9375 2 0.9375 4 3 C4.36475845 6.02534949 4.22893297 8.96663814 4 12 C3.67 12 3.34 12 3 12 C2.896875 10.88625 2.79375 9.7725 2.6875 8.625 C2.460625 7.42875 2.23375 6.2325 2 5 C1.01 4.34 0.02 3.68 -1 3 C-0.67 2.01 -0.34 1.02 0 0 Z " fill="#912EB7" transform="translate(82,27)"/>
<path d="M0 0 C0.33 1.32 0.66 2.64 1 4 C1.66 4 2.32 4 3 4 C3 6.31 3 8.62 3 11 C0.72204978 8.72204978 -0.05219877 7.06212707 -1 4 C-0.625 1.6875 -0.625 1.6875 0 0 Z " fill="#882AAD" transform="translate(86,35)"/>
<path d="M0 0 C0.33 0.66 0.66 1.32 1 2 C0.06553465 4.03144641 -0.93224776 6.03533587 -2 8 C-2.66 6.68 -3.32 5.36 -4 4 C-2.68 2.68 -1.36 1.36 0 0 Z " fill="#CD6BC7" transform="translate(59,53)"/>
<path d="M0 0 C0.66 0.66 1.32 1.32 2 2 C0.68 3.65 -0.64 5.3 -2 7 C-2.99 6.67 -3.98 6.34 -5 6 C-3.35 4.02 -1.7 2.04 0 0 Z " fill="#DD90D3" transform="translate(69,35)"/>
<path d="M0 0 C1.50433594 0.01353516 1.50433594 0.01353516 3.0390625 0.02734375 C3.80992188 0.03894531 4.58078125 0.05054688 5.375 0.0625 C5.375 0.3925 5.375 0.7225 5.375 1.0625 C4.47007813 1.15337891 4.47007813 1.15337891 3.546875 1.24609375 C2.34804688 1.37177734 2.34804688 1.37177734 1.125 1.5 C0.33609375 1.58121094 -0.4528125 1.66242187 -1.265625 1.74609375 C-3.44864639 2.03884993 -5.5023182 2.48314419 -7.625 3.0625 C-7.625 2.4025 -7.625 1.7425 -7.625 1.0625 C-4.98041621 -0.25979189 -2.94738699 -0.03427194 0 0 Z " fill="#EEC8EB" transform="translate(59.625,9.9375)"/>
<path d="M0 0 C0.6875 1.625 0.6875 1.625 1 4 C-0.4375 7.25 -0.4375 7.25 -2 10 C-2.6875 8.375 -2.6875 8.375 -3 6 C-1.5625 2.75 -1.5625 2.75 0 0 Z " fill="#8B2EAD" transform="translate(13,37)"/>
</svg>
