<?xml version="1.0" encoding="UTF-8"?>
<svg version="1.1" xmlns="http://www.w3.org/2000/svg" width="100" height="100">
<path d="M0 0 C10.78527154 7.340192 19.63745503 18.85282679 22.3125 31.875 C23.16527615 42.95168005 23.86192389 54.93500251 18.3125 64.875 C17.79171875 65.81472656 17.2709375 66.75445312 16.734375 67.72265625 C10.93596342 77.42585401 4.34832648 83.69280984 -5.6875 88.875 C-6.8321875 89.49955078 -6.8321875 89.49955078 -8 90.13671875 C-18.44382015 94.90673276 -34.02823211 94.9280893 -44.875 91.3125 C-47.31640625 90.19140625 -47.31640625 90.19140625 -49.6875 88.875 C-50.60402344 88.38902344 -51.52054688 87.90304688 -52.46484375 87.40234375 C-64.77795544 80.25769869 -72.17735767 69.93499555 -76.82421875 56.6171875 C-80.15037464 42.19882847 -77.95895968 27.88213292 -70.5625 15.1875 C-54.59486355 -8.34018514 -24.08953827 -14.03564007 0 0 Z " fill="#EA7D6E" transform="translate(77.6875,7.125)"/>
<path d="M0 0 C2.25624743 2.91150492 4.2295298 5.9049705 6.125 9.0625 C6.64320312 9.91972656 7.16140625 10.77695312 7.6953125 11.66015625 C10.83807339 17.29642504 10.18394744 23.02802374 10.1875 29.3125 C10.19974609 30.44107422 10.21199219 31.56964844 10.22460938 32.73242188 C10.22654297 33.82748047 10.22847656 34.92253906 10.23046875 36.05078125 C10.23457764 37.04762939 10.23868652 38.04447754 10.24291992 39.0715332 C9.97499795 42.30140663 9.13459959 44.97449478 8 48 C7.34 48 6.68 48 6 48 C5.835 48.86625 5.67 49.7325 5.5 50.625 C3.2339745 55.72355739 -1.0693796 58.5346898 -6 61 C-8.97840953 61.52353136 -11.9655469 61.96012433 -14.95703125 62.40234375 C-17.93476014 62.86778244 -17.93476014 62.86778244 -20.26489258 64.01855469 C-25.26269539 65.81192854 -30.55189762 65.3325952 -35.81005859 65.31567383 C-37.86219715 65.31251968 -39.91288365 65.33598009 -41.96484375 65.36132812 C-56.59822118 65.36853669 -56.59822118 65.36853669 -62.3984375 59.625 C-63.37683594 58.325625 -63.37683594 58.325625 -64.375 57 C-65.04273438 56.13375 -65.71046875 55.2675 -66.3984375 54.375 C-68 52 -68 52 -69 49 C-69.73742432 48.30463135 -69.73742432 48.30463135 -70.48974609 47.59521484 C-75.29958051 42.51479808 -74.36537814 31.95635387 -74.375 25.375 C-74.39949219 24.48554687 -74.42398438 23.59609375 -74.44921875 22.6796875 C-74.48940419 13.57098774 -71.08351827 7.57677651 -65 1 C-64.67 1 -64.34 1 -64 1 C-63.85304688 1.87011719 -63.85304688 1.87011719 -63.703125 2.7578125 C-62.24443814 10.37819383 -59.55916702 15.52784067 -53 20 C-47.55555975 23.24756085 -42.22528507 24.90481096 -36 26 C-38 29 -38 29 -39.98828125 29.43359375 C-44.13171443 29.4405575 -46.40270852 29.37330718 -50 27.125 C-52 25 -52 25 -53 23 C-53.845625 23.928125 -54.69125 24.85625 -55.5625 25.8125 C-56.03816406 26.33457031 -56.51382813 26.85664062 -57.00390625 27.39453125 C-57.33261719 27.92433594 -57.66132812 28.45414063 -58 29 C-57.67 29.99 -57.34 30.98 -57 32 C-55.35448038 32.71727778 -53.68577711 33.38325228 -52 34 C-50 36 -50 36 -49.5625 39.1875 C-48.5377193 43.26121502 -46.11439274 44.50726762 -42.625 46.625 C-41.66851562 47.15351562 -40.71203125 47.68203125 -39.7265625 48.2265625 C-36.75367915 50.16021442 -34.99278008 52.0816633 -33 55 C-33 55.66 -33 56.32 -33 57 C-32.34 57 -31.68 57 -31 57 C-30.835 56.29875 -30.67 55.5975 -30.5 54.875 C-27.91261972 49.91585447 -23.09677324 47.00280459 -18.125 44.625 C-15.58340135 42.68142456 -15.6846467 42.09565344 -15.1875 39.0625 C-14.67872037 36.2719208 -14.41733736 35.31063667 -12.10546875 33.58984375 C-10.09598984 32.60797928 -8.10789529 31.74511647 -6 31 C-7.41791563 28.06553114 -8.98332607 25.56667591 -11 23 C-11.61875 23.804375 -12.2375 24.60875 -12.875 25.4375 C-15.05376838 28.06483834 -15.76866346 28.88054198 -19.09375 29.203125 C-19.8878125 29.21859375 -20.681875 29.2340625 -21.5 29.25 C-22.2940625 29.27578125 -23.088125 29.3015625 -23.90625 29.328125 C-24.5971875 29.21984375 -25.288125 29.1115625 -26 29 C-26.66 28.01 -27.32 27.02 -28 26 C-26.94941406 25.731875 -25.89882813 25.46375 -24.81640625 25.1875 C-16.12938089 22.82075625 -8.75551155 20.41197584 -3 13 C-1.51371737 9.89542937 -0.72224534 7.10207917 -0.375 3.6875 C-0.189375 1.8621875 -0.189375 1.8621875 0 0 Z " fill="#E93C39" transform="translate(82,21)"/>
<path d="M0 0 C10.78527154 7.340192 19.63745503 18.85282679 22.3125 31.875 C23.16527615 42.95168005 23.86192389 54.93500251 18.3125 64.875 C17.79171875 65.81472656 17.2709375 66.75445312 16.734375 67.72265625 C10.93596342 77.42585401 4.34832648 83.69280984 -5.6875 88.875 C-6.8321875 89.49955078 -6.8321875 89.49955078 -8 90.13671875 C-18.44382015 94.90673276 -34.02823211 94.9280893 -44.875 91.3125 C-47.31640625 90.19140625 -47.31640625 90.19140625 -49.6875 88.875 C-50.60402344 88.38902344 -51.52054688 87.90304688 -52.46484375 87.40234375 C-64.77795544 80.25769869 -72.17735767 69.93499555 -76.82421875 56.6171875 C-80.15037464 42.19882847 -77.95895968 27.88213292 -70.5625 15.1875 C-54.59486355 -8.34018514 -24.08953827 -14.03564007 0 0 Z M-54.6875 8.875 C-55.0175 8.875 -55.3475 8.875 -55.6875 8.875 C-56.0175 8.215 -56.3475 7.555 -56.6875 6.875 C-62.78305174 11.27734292 -65.96828749 17.10014131 -69.44921875 23.609375 C-70.6875 25.875 -70.6875 25.875 -71.89453125 27.703125 C-76.43590572 35.08486442 -75.71082336 44.1865083 -73.921875 52.3828125 C-72.96256455 55.60335471 -71.86581738 58.72872894 -70.6875 61.875 C-70.39875 62.79410156 -70.11 63.71320313 -69.8125 64.66015625 C-66.84050037 73.45674444 -61.59123727 77.52954969 -53.47851562 81.74902344 C-45.72686001 85.54583335 -38.34127596 87.29385509 -29.6875 87.875 C-28.39779297 87.99681641 -28.39779297 87.99681641 -27.08203125 88.12109375 C-14.2016196 88.81449275 -3.47029939 83.44626481 5.9375 75.125 C10.47619849 70.94348538 13.08180537 67.59721667 15.3125 61.875 C15.704375 61.00875 16.09625 60.1425 16.5 59.25 C21.02072414 46.03557558 18.81374795 32.2724552 13.3125 19.875 C12.6525 19.875 11.9925 19.875 11.3125 19.875 C10.94125 18.7921875 10.94125 18.7921875 10.5625 17.6875 C8.25891713 12.50443855 5.3077446 9.5113791 0.3125 6.875 C0.3125 7.865 0.3125 8.855 0.3125 9.875 C-0.36554688 9.5140625 -1.04359375 9.153125 -1.7421875 8.78125 C-8.17397997 5.57426206 -13.46637971 3.83492095 -20.6875 4.875 C-21.0175 5.205 -21.3475 5.535 -21.6875 5.875 C-23.70344582 6.10927778 -25.725974 6.28836124 -27.75 6.4375 C-29.40708984 6.56318359 -29.40708984 6.56318359 -31.09765625 6.69140625 C-31.95230469 6.75199219 -32.80695312 6.81257812 -33.6875 6.875 C-33.6875 6.215 -33.6875 5.555 -33.6875 4.875 C-41.5737404 4.25915476 -47.42132477 5.9210558 -54.6875 8.875 Z " fill="#FAF5E4" transform="translate(77.6875,7.125)"/>
<path d="M0 0 C0.89203125 0.00902344 1.7840625 0.01804687 2.703125 0.02734375 C3.37859375 0.03894531 4.0540625 0.05054688 4.75 0.0625 C4.75 0.7225 4.75 1.3825 4.75 2.0625 C6.73 2.0625 8.71 2.0625 10.75 2.0625 C10.09 5.0325 9.43 8.0025 8.75 11.0625 C7.84765625 10.959375 6.9453125 10.85625 6.015625 10.75 C2.62083823 10.73272543 2.62083823 10.73272543 0.484375 13.25 C-0.17046875 14.178125 -0.8253125 15.10625 -1.5 16.0625 C-2.71358113 17.75586902 -3.95567453 19.43001743 -5.25 21.0625 C-5.91 21.0625 -6.57 21.0625 -7.25 21.0625 C-6.61771484 22.21878906 -6.61771484 22.21878906 -5.97265625 23.3984375 C-5.42480469 24.40132812 -4.87695312 25.40421875 -4.3125 26.4375 C-3.76722656 27.43523438 -3.22195312 28.43296875 -2.66015625 29.4609375 C-1.8350241 30.98320346 -1.02435609 32.51378783 -0.25 34.0625 C-8.36978414 32.3708783 -14.54489116 27.93919754 -19.25 21.0625 C-21.22310836 17.84321794 -21.74216457 14.7866265 -22.25 11.0625 C-23.21548612 12.2860563 -24.17205898 13.51664811 -25.125 14.75 C-25.65867187 15.43449219 -26.19234375 16.11898438 -26.7421875 16.82421875 C-30.55895967 22.49004894 -30.56578599 27.47885332 -30.5 34.125 C-30.49613281 35.05787842 -30.49226563 35.99075684 -30.48828125 36.9519043 C-30.40233968 43.83021369 -29.8076005 50.34534785 -28.25 57.0625 C-27.26 57.3925 -26.27 57.7225 -25.25 58.0625 C-24.25 60.0625 -23.25 62.0625 -22.25 64.0625 C-18.7619273 69.06622334 -16.23493177 71.39524698 -10.25 73.0625 C-5.97409159 73.41751085 -1.70915451 73.39210484 2.58056641 73.37817383 C4.61285326 73.37501886 6.64367433 73.39849443 8.67578125 73.42382812 C15.83107935 73.42737386 21.23196013 73.00170957 27.75 70.0625 C30.2890625 69.69140625 30.2890625 69.69140625 32.375 69.625 C38.57650024 69.09130807 42.73052483 65.6561859 46.75 61.0625 C47.98512079 58.92940808 47.98512079 58.92940808 48.75 57.0625 C49.41 57.0625 50.07 57.0625 50.75 57.0625 C50.729375 56.258125 50.70875 55.45375 50.6875 54.625 C50.75 52.0625 50.75 52.0625 51.75 51.0625 C51.90764405 49.28380274 52.00100677 47.49931524 52.06640625 45.71484375 C52.10830078 44.63525391 52.15019531 43.55566406 52.19335938 42.44335938 C52.23267578 41.30705078 52.27199219 40.17074219 52.3125 39 C52.35568359 37.85982422 52.39886719 36.71964844 52.44335938 35.54492188 C52.54982839 32.71757805 52.65184207 29.89014262 52.75 27.0625 C53.245 28.5475 53.245 28.5475 53.75 30.0625 C54.41 30.0625 55.07 30.0625 55.75 30.0625 C56.10335088 44.43210241 56.34257984 57.74248736 46.140625 68.921875 C40.05969174 75.03608149 34.17721171 78.87518231 25.75 81.0625 C24.574375 81.475 23.39875 81.8875 22.1875 82.3125 C10.63793151 84.83240585 -2.82066568 83.10551847 -13.06640625 77.28125 C-15.25428182 75.99231498 -15.25428182 75.99231498 -17.7734375 75.09375 C-23.68143782 72.6336363 -28.06489244 68.34720768 -30.5 62.4375 C-31.10311264 60.6523943 -31.68525246 58.86011159 -32.25 57.0625 C-32.62125 56.07121094 -32.9925 55.07992187 -33.375 54.05859375 C-37.16727226 43.32698996 -38.50918373 33.08220527 -33.57519531 22.55786133 C-29.79612404 15.10526506 -24.99461129 5.93480565 -17.25 2.0625 C-17.25 3.0525 -17.25 4.0425 -17.25 5.0625 C-16.71890625 4.78535156 -16.1878125 4.50820313 -15.640625 4.22265625 C-14.93421875 3.86042969 -14.2278125 3.49820312 -13.5 3.125 C-12.80390625 2.76535156 -12.1078125 2.40570313 -11.390625 2.03515625 C-7.51606486 0.27463531 -4.24202098 -0.05581607 0 0 Z " fill="#E87E6B" transform="translate(39.25,11.9375)"/>
<path d="M0 0 C2.25624743 2.91150492 4.2295298 5.9049705 6.125 9.0625 C6.64320312 9.91972656 7.16140625 10.77695312 7.6953125 11.66015625 C10.83807339 17.29642504 10.18394744 23.02802374 10.1875 29.3125 C10.19974609 30.44107422 10.21199219 31.56964844 10.22460938 32.73242188 C10.22654297 33.82748047 10.22847656 34.92253906 10.23046875 36.05078125 C10.23457764 37.04762939 10.23868652 38.04447754 10.24291992 39.0715332 C9.97499795 42.30140663 9.13459959 44.97449478 8 48 C7.34 48 6.68 48 6 48 C5.835 48.86625 5.67 49.7325 5.5 50.625 C3.2339745 55.72355739 -1.0693796 58.5346898 -6 61 C-9.40780456 61.47004201 -12.81607283 61.86753262 -16.234375 62.25 C-20.24335841 62.65544511 -20.24335841 62.65544511 -24 64 C-37.79948068 65.08365703 -47.88699407 64.00881084 -58.9375 54.9375 C-59.96866063 53.96921502 -60.99037931 52.99072404 -62 52 C-62.928125 51.175 -63.85625 50.35 -64.8125 49.5 C-69.52655199 44.11251201 -69.36306664 37.97380357 -69.26171875 31.13671875 C-68.81789955 25.81751257 -66.95326473 22.42989709 -64 18 C-61.375 17.8125 -61.375 17.8125 -59 18 C-59.32786062 21.71575364 -59.98734966 22.98611548 -62.5625 25.8125 C-64.69730319 28.22035941 -65.41683952 29.83369268 -65.5625 33.0625 C-64.91767931 37.57624481 -64.14388902 38.7859125 -61 42 C-58.51620473 43.55937657 -55.91294179 44.77830627 -53.25 46 C-51.81122759 46.69136869 -50.37370989 47.38535495 -48.9375 48.08203125 C-48.25429688 48.41154785 -47.57109375 48.74106445 -46.8671875 49.08056641 C-41.32337647 51.81042942 -36.37615635 54.65441912 -33 60 C-33 60.99 -33 61.98 -33 63 C-32.34 63 -31.68 63 -31 63 C-30.938125 62.46375 -30.87625 61.9275 -30.8125 61.375 C-29.40410081 57.25814082 -26.79999693 54.10003687 -23.10961914 51.84472656 C-20.97173708 50.80716937 -18.8169193 49.8552704 -16.625 48.9375 C-6.93073286 45.1565511 -6.93073286 45.1565511 0 38 C0.79693455 31.84804146 0.79693455 31.84804146 -1.15234375 26.18359375 C-1.61769531 25.68988281 -2.08304687 25.19617188 -2.5625 24.6875 C-3.366875 23.800625 -4.17125 22.91375 -5 22 C-4.8125 19.125 -4.8125 19.125 -4 17 C-2.02 16.67 -0.04 16.34 2 16 C1.49855469 15.46890625 0.99710937 14.9378125 0.48046875 14.390625 C-1.47669684 11.23024151 -1.12383442 9.39934242 -0.6875 5.75 C-0.56761719 4.67234375 -0.44773437 3.5946875 -0.32421875 2.484375 C-0.21722656 1.66453125 -0.11023438 0.8446875 0 0 Z " fill="#960B17" transform="translate(82,21)"/>
<path d="M0 0 C0.40089844 0.433125 0.80179688 0.86625 1.21484375 1.3125 C4.61461216 4.64288538 6.93949027 6.43691897 11.8125 6.5 C15.01046981 6.36789798 15.66373495 6.33626505 18 4 C19.875 3.734375 19.875 3.734375 22 3.75 C22.70125 3.74484375 23.4025 3.7396875 24.125 3.734375 C26 4 26 4 28 6 C31.0552754 6.57023804 33.94183994 6.53967531 37 6 C39.96050874 3.70800597 39.96050874 3.70800597 42 1 C42.66 0.67 43.32 0.34 44 0 C44.86657116 1.09445838 45.71792724 2.20097781 46.5625 3.3125 C47.03816406 3.92738281 47.51382813 4.54226562 48.00390625 5.17578125 C48.49697266 6.07876953 48.49697266 6.07876953 49 7 C48 10 48 10 45.0625 11.6875 C42 13 42 13 40 13 C40.1546875 14.3303125 40.1546875 14.3303125 40.3125 15.6875 C40 19 40 19 38.0625 21.5 C35.55075639 23.55040295 33.09617198 25.25987045 30.375 27 C26.82108314 29.27497829 24.91689455 31.16621089 23 35 C22.34 35 21.68 35 21 35 C20.42378906 34.08992188 19.84757812 33.17984375 19.25390625 32.2421875 C16.77495841 28.67628333 14.66514205 27.27751697 10.9375 25.125 C4.42060652 21.01943591 4.42060652 21.01943591 3.125 16.6875 C2.36126855 12.74163851 2.36126855 12.74163851 -1.1875 11 C-2.115625 10.67 -3.04375 10.34 -4 10 C-4 5.28093812 -2.71245796 3.72962969 0 0 Z " fill="#FE744A" transform="translate(28,43)"/>
<path d="M0 0 C0.495 1.485 0.495 1.485 1 3 C1.66 3 2.32 3 3 3 C3.35335088 17.36960241 3.59257984 30.67998736 -6.609375 41.859375 C-12.69030826 47.97358149 -18.57278829 51.81268231 -27 54 C-28.175625 54.4125 -29.35125 54.825 -30.5625 55.25 C-42.59607913 57.87550817 -56.45259664 55.80525078 -67.171875 49.88671875 C-76.26386324 43.82120726 -80.99682096 37.40724309 -84 27 C-84.33 26.67 -84.66 26.34 -85 26 C-85.91407265 20.98218859 -86.10756671 16.1550386 -86.0625 11.0625 C-86.05798828 10.37865234 -86.05347656 9.69480469 -86.04882812 8.99023438 C-86.0371956 7.32678396 -86.01926694 5.6633795 -86 4 C-85.34 3.67 -84.68 3.34 -84 3 C-83.94465088 3.64026123 -83.88930176 4.28052246 -83.83227539 4.94018555 C-83.57855835 7.8562154 -83.32057051 10.77185234 -83.0625 13.6875 C-82.97548828 14.69490234 -82.88847656 15.70230469 -82.79882812 16.74023438 C-82.71181641 17.71669922 -82.62480469 18.69316406 -82.53515625 19.69921875 C-82.456604 20.59471436 -82.37805176 21.49020996 -82.29711914 22.4128418 C-82.0019537 24.98298823 -81.54387764 27.47186549 -81 30 C-80.01 30.33 -79.02 30.66 -78 31 C-77 33 -76 35 -75 37 C-71.5119273 42.00372334 -68.98493177 44.33274698 -63 46 C-58.72409159 46.35501085 -54.45915451 46.32960484 -50.16943359 46.31567383 C-48.13714674 46.31251886 -46.10632567 46.33599443 -44.07421875 46.36132812 C-36.91892065 46.36487386 -31.51803987 45.93920957 -25 43 C-22.4609375 42.62890625 -22.4609375 42.62890625 -20.375 42.5625 C-14.17349976 42.02880807 -10.01947517 38.5936859 -6 34 C-4.76487921 31.86690808 -4.76487921 31.86690808 -4 30 C-3.34 30 -2.68 30 -2 30 C-2.020625 29.195625 -2.04125 28.39125 -2.0625 27.5625 C-2 25 -2 25 -1 24 C-0.84235595 22.22130274 -0.74899323 20.43681524 -0.68359375 18.65234375 C-0.64169922 17.57275391 -0.59980469 16.49316406 -0.55664062 15.38085938 C-0.51732422 14.24455078 -0.47800781 13.10824219 -0.4375 11.9375 C-0.39431641 10.79732422 -0.35113281 9.65714844 -0.30664062 8.48242188 C-0.20017161 5.65507805 -0.09815793 2.82764262 0 0 Z " fill="#BE8180" transform="translate(92,39)"/>
<path d="M0 0 C10.74512048 7.31286617 19.7004166 18.86844038 22.3125 31.875 C22.40299799 33.56065307 22.44313714 35.24942079 22.4453125 36.9375 C22.44660156 37.89914063 22.44789062 38.86078125 22.44921875 39.8515625 C22.44535156 40.84929688 22.44148438 41.84703125 22.4375 42.875 C22.44136719 43.87273438 22.44523437 44.87046875 22.44921875 45.8984375 C22.44792969 46.86007813 22.44664063 47.82171875 22.4453125 48.8125 C22.44418457 49.68777344 22.44305664 50.56304687 22.44189453 51.46484375 C22.31981786 53.73869448 21.94913826 55.69513036 21.3125 57.875 C20.6525 57.875 19.9925 57.875 19.3125 57.875 C18.9825 58.535 18.6525 59.195 18.3125 59.875 C18.46976562 59.10414062 18.62703125 58.33328125 18.7890625 57.5390625 C20.5476261 45.22911731 21.58350117 30.60740736 14.3125 19.875 C13.3225 19.215 12.3325 18.555 11.3125 17.875 C10.9 16.8025 10.4875 15.73 10.0625 14.625 C7.96454915 9.3359555 3.79578857 5.99839245 -1.3125 3.6875 C-2.09625 3.419375 -2.88 3.15125 -3.6875 2.875 C-6.5 1.375 -6.5 1.375 -8.6875 -0.125 C-8.6875 -0.785 -8.6875 -1.445 -8.6875 -2.125 C-14.1325 -2.62 -14.1325 -2.62 -19.6875 -3.125 C-17.0475 -1.805 -14.4075 -0.485 -11.6875 0.875 C-11.6875 1.205 -11.6875 1.535 -11.6875 1.875 C-12.82638672 1.93107422 -12.82638672 1.93107422 -13.98828125 1.98828125 C-14.98214844 2.05402344 -15.97601563 2.11976562 -17 2.1875 C-17.98613281 2.24550781 -18.97226562 2.30351562 -19.98828125 2.36328125 C-23.03885509 2.94161001 -23.61926838 3.71407453 -25.6875 5.875 C-27.0075 5.875 -28.3275 5.875 -29.6875 5.875 C-30.14769531 5.39417969 -30.60789063 4.91335938 -31.08203125 4.41796875 C-33.37501616 2.21424846 -35.25192544 2.37121027 -38.375 2.1875 C-39.36886719 2.12175781 -40.36273438 2.05601563 -41.38671875 1.98828125 C-42.14597656 1.95089844 -42.90523437 1.91351563 -43.6875 1.875 C-43.0275 1.545 -42.3675 1.215 -41.6875 0.875 C-41.6875 0.215 -41.6875 -0.445 -41.6875 -1.125 C-40.6975 -1.455 -39.7075 -1.785 -38.6875 -2.125 C-47.96538914 -1.17342163 -54.25198381 2.89852227 -60.83984375 9.265625 C-62.6875 10.875 -62.6875 10.875 -64.6875 10.875 C-64.96722656 11.59945313 -65.24695313 12.32390625 -65.53515625 13.0703125 C-66.96240977 16.54410242 -68.65829864 19.84000551 -70.37109375 23.1796875 C-71.02271484 24.51386719 -71.02271484 24.51386719 -71.6875 25.875 C-72.22117187 26.92042969 -72.75484375 27.96585938 -73.3046875 29.04296875 C-75.25821426 33.66119381 -75.25021208 38.36020245 -75.375 43.3125 C-75.40916016 44.23482422 -75.44332031 45.15714844 -75.47851562 46.10742188 C-75.56032994 48.36315951 -75.62969122 50.61854119 -75.6875 52.875 C-76.3475 52.875 -77.0075 52.875 -77.6875 52.875 C-78.3173211 35.17002902 -76.91463157 21.11243746 -64.43359375 7.3984375 C-46.6687514 -9.65352995 -21.07003506 -12.27634274 0 0 Z " fill="#FDF8E9" transform="translate(77.6875,7.125)"/>
<path d="M0 0 C2.625 -0.1875 2.625 -0.1875 5 0 C4.67213938 3.71575364 4.01265034 4.98611548 1.4375 7.8125 C-0.69730319 10.22035941 -1.41683952 11.83369268 -1.5625 15.0625 C-0.91767931 19.57624481 -0.14388902 20.7859125 3 24 C5.48379527 25.55937657 8.08705821 26.77830627 10.75 28 C12.18877241 28.69136869 13.62629011 29.38535495 15.0625 30.08203125 C16.08730469 30.57630615 16.08730469 30.57630615 17.1328125 31.08056641 C22.67662353 33.81042942 27.62384365 36.65441912 31 42 C31 42.99 31 43.98 31 45 C31.66 45 32.32 45 33 45 C33.061875 44.46375 33.12375 43.9275 33.1875 43.375 C34.93327851 38.27195512 38.33133692 35.10147259 43.03125 32.734375 C44.51383325 32.05737238 46.00368185 31.39607865 47.5 30.75 C48.24636719 30.41226563 48.99273437 30.07453125 49.76171875 29.7265625 C53.47190385 28.05862088 57.20822227 26.47458023 61 25 C57.86057372 31.39959973 57.86057372 31.39959973 54.3125 33.875 C51.42674792 34.85506675 49.41838627 35.17693447 46.4375 35.375 C42.7253657 35.66971336 42.04841863 35.96146273 38.9375 38.4375 C36.79896391 40.73046572 36.79896391 40.73046572 37 43 C44.00396676 41.46710336 48.77731367 39.95485626 54 35 C54.66 35 55.32 35 56 35 C54.51673008 39.44980976 50.99225094 41.86207327 47 44 C37.85315894 47.22962536 26.64546773 47.74726323 17.33984375 44.8671875 C11.54204271 42.06723807 6.58459974 38.49879172 2 34 C1.071875 33.175 0.14375 32.35 -0.8125 31.5 C-5.52655199 26.11251201 -5.36306664 19.97380357 -5.26171875 13.13671875 C-4.81789955 7.81751257 -2.95326473 4.42989709 0 0 Z " fill="#930D1B" transform="translate(18,39)"/>
<path d="M0 0 C4.02992782 0.55312735 8.02022924 1.1558062 12 2 C12 2.66 12 3.32 12 4 C13.051875 4.4021875 13.051875 4.4021875 14.125 4.8125 C21.40596813 7.8198564 27.56494664 11.34741997 32 18 C31.625 20.1875 31.625 20.1875 31 22 C26 16.25 26 16.25 26 14 C24.68 13.67 23.36 13.34 22 13 C21.67 13.66 21.34 14.32 21 15 C20.32195312 14.6390625 19.64390625 14.278125 18.9453125 13.90625 C12.51352003 10.69926206 7.22112029 8.95992095 0 10 C-0.33 10.33 -0.66 10.66 -1 11 C-3.01964199 11.07244053 -5.04167124 11.08377188 -7.0625 11.0625 C-8.71958984 11.04896484 -8.71958984 11.04896484 -10.41015625 11.03515625 C-11.26480469 11.02355469 -12.11945312 11.01195312 -13 11 C-13 10.34 -13 9.68 -13 9 C-21.28849546 9.89605356 -28.6213482 10.97882997 -36 15 C-36 14.01 -36 13.02 -36 12 C-40.85686277 16.41532979 -44.49396402 21.46541473 -48 27 C-48.51433594 27.80050781 -49.02867188 28.60101562 -49.55859375 29.42578125 C-54.34730371 38.14855889 -53.44976862 47.35496172 -53 57 C-56.70279571 51.44580643 -55.95279619 43.47202604 -55 37 C-52.13813025 26.73002659 -47.09442168 16.75361371 -38 11 C-37.29875 10.195625 -36.5975 9.39125 -35.875 8.5625 C-31.59037793 4.74359772 -26.50070222 2.58892361 -21 1 C-18.62890625 1.3671875 -18.62890625 1.3671875 -17 2 C-18.32 2.33 -19.64 2.66 -21 3 C-21 3.66 -21 4.32 -21 5 C-20.38511719 5.04898437 -19.77023438 5.09796875 -19.13671875 5.1484375 C-17.92435547 5.26058594 -17.92435547 5.26058594 -16.6875 5.375 C-15.48673828 5.47941406 -15.48673828 5.47941406 -14.26171875 5.5859375 C-12 6 -12 6 -9 8 C-9 8.66 -9 9.32 -9 10 C-7.68 10 -6.36 10 -5 10 C-4.67 9.01 -4.34 8.02 -4 7 C-1.70370006 5.85185003 0.07698086 5.69230191 2.625 5.4375 C3.44226562 5.35371094 4.25953125 5.26992187 5.1015625 5.18359375 C6.04128906 5.09271484 6.04128906 5.09271484 7 5 C4.69 3.68 2.38 2.36 0 1 C0 0.67 0 0.34 0 0 Z " fill="#F7CEA1" transform="translate(57,3)"/>
<path d="M0 0 C0.33 0 0.66 0 1 0 C0.55431404 5.2590943 0.036334 8.57201292 -3 13 C-6.01952315 22.05856945 -5.00856329 35.17411982 -2.046875 44.125 C1.94266438 51.27044367 11.60099798 58.32124827 19.109375 61.38671875 C27.96636929 63.26583781 38.15837185 62.75689865 47 61 C42.41711808 65.58288192 35.39719521 64.22311791 29.34082031 64.24023438 C27.2710695 64.24990159 25.20232879 64.2809194 23.1328125 64.3125 C21.15667969 64.32023437 21.15667969 64.32023437 19.140625 64.328125 C17.93954102 64.3374707 16.73845703 64.34681641 15.50097656 64.35644531 C10.29849455 63.82676444 6.38996759 62.37638484 2.6015625 58.625 C1.62316406 57.325625 1.62316406 57.325625 0.625 56 C-0.04273438 55.13375 -0.71046875 54.2675 -1.3984375 53.375 C-3 51 -3 51 -4 48 C-4.73742432 47.30463135 -4.73742432 47.30463135 -5.48974609 46.59521484 C-10.29958051 41.51479808 -9.36537814 30.95635387 -9.375 24.375 C-9.39949219 23.48554687 -9.42398437 22.59609375 -9.44921875 21.6796875 C-9.48940419 12.57098774 -6.08351827 6.57677651 0 0 Z " fill="#B0364C" transform="translate(17,22)"/>
<path d="M0 0 C0.89203125 0.00902344 1.7840625 0.01804687 2.703125 0.02734375 C3.37859375 0.03894531 4.0540625 0.05054688 4.75 0.0625 C4.75 0.7225 4.75 1.3825 4.75 2.0625 C3.2340625 1.9696875 3.2340625 1.9696875 1.6875 1.875 C-4.85749313 2.18666634 -9.42720008 4.76108385 -14.25 9.0625 C-14.9925 9.7225 -15.735 10.3825 -16.5 11.0625 C-18.30831088 13.129141 -18.866598 14.378686 -19.25 17.0625 C-19.91 17.0625 -20.57 17.0625 -21.25 17.0625 C-21.58 15.0825 -21.91 13.1025 -22.25 11.0625 C-27.09459945 17.08146658 -27.09459945 17.08146658 -30.25 24.0625 C-30.76240234 25.63837891 -30.76240234 25.63837891 -31.28515625 27.24609375 C-32.28132633 31.1864102 -32.48357756 34.50767454 -32.4375 38.5625 C-32.43105469 39.8103125 -32.42460938 41.058125 -32.41796875 42.34375 C-32.17877791 47.63932397 -31.91654142 52.49039887 -29.3125 57.1875 C-28.15795044 59.30344254 -27.18223326 61.25486029 -26.37890625 63.53515625 C-25.06015254 66.48752183 -23.45911394 68.15382706 -21.125 70.375 C-20.40054687 71.07238281 -19.67609375 71.76976563 -18.9296875 72.48828125 C-18.37539063 73.00777344 -17.82109375 73.52726562 -17.25 74.0625 C-21.554041 74.0625 -23.22982928 72.06288457 -26.32421875 69.234375 C-29.55336557 65.59257859 -30.80946516 61.64777384 -32.25 57.0625 C-32.62125 56.07121094 -32.9925 55.07992187 -33.375 54.05859375 C-37.16727226 43.32698996 -38.50918373 33.08220527 -33.57519531 22.55786133 C-29.79612404 15.10526506 -24.99461129 5.93480565 -17.25 2.0625 C-17.25 3.0525 -17.25 4.0425 -17.25 5.0625 C-16.71890625 4.78535156 -16.1878125 4.50820313 -15.640625 4.22265625 C-14.93421875 3.86042969 -14.2278125 3.49820312 -13.5 3.125 C-12.80390625 2.76535156 -12.1078125 2.40570313 -11.390625 2.03515625 C-7.51606486 0.27463531 -4.24202098 -0.05581607 0 0 Z " fill="#F2AB85" transform="translate(39.25,11.9375)"/>
<path d="M0 0 C2.25624743 2.91150492 4.2295298 5.9049705 6.125 9.0625 C6.64320312 9.91972656 7.16140625 10.77695312 7.6953125 11.66015625 C10.83807339 17.29642504 10.18394744 23.02802374 10.1875 29.3125 C10.19974609 30.44107422 10.21199219 31.56964844 10.22460938 32.73242188 C10.22750977 34.37500977 10.22750977 34.37500977 10.23046875 36.05078125 C10.23457764 37.04762939 10.23868652 38.04447754 10.24291992 39.0715332 C9.97499795 42.30140663 9.13459959 44.97449478 8 48 C7.34 48 6.68 48 6 48 C5.835 48.86625 5.67 49.7325 5.5 50.625 C3.2339745 55.72355739 -1.0693796 58.5346898 -6 61 C-7.87056791 61.2275015 -9.74685958 61.40962811 -11.625 61.5625 C-12.62789063 61.64628906 -13.63078125 61.73007813 -14.6640625 61.81640625 C-15.43492188 61.87699219 -16.20578125 61.93757813 -17 62 C-13.82202913 58.54963163 -11.41107165 56.54387508 -7 55 C-1.00880709 51.78521356 2.3094141 48.27803376 5 42 C6.22309615 36.86740185 6.22082898 31.87578408 6.25 26.625 C6.270625 25.70460938 6.29125 24.78421875 6.3125 23.8359375 C6.34531478 18.09335148 5.74856473 14.07167595 3 9 C2.443125 8.484375 1.88625 7.96875 1.3125 7.4375 C0 6 0 6 -0.1875 2.8125 C-0.125625 1.884375 -0.06375 0.95625 0 0 Z " fill="#B73E52" transform="translate(82,21)"/>
<path d="M0 0 C0.66 0.33 1.32 0.66 2 1 C-2.28261196 5.7941183 -7.02490386 7.07089753 -13 9 C-14.175625 9.4125 -15.35125 9.825 -16.5625 10.25 C-29.14174513 12.99456257 -43.05749115 10.60584636 -54 4 C-51.30161757 2.65080879 -49.9205797 3.38322506 -47 4 C-45.25299197 4.0886976 -43.50316306 4.13059605 -41.75390625 4.1328125 C-40.75818604 4.13498779 -39.76246582 4.13716309 -38.73657227 4.1394043 C-37.68912842 4.13465088 -36.64168457 4.12989746 -35.5625 4.125 C-34.48734131 4.12089111 -33.41218262 4.11678223 -32.30444336 4.11254883 C-21.01384918 4.03347471 -10.70572938 3.92543411 0 0 Z " fill="#CA9A8E" transform="translate(78,84)"/>
<path d="M0 0 C0.66 0.33 1.32 0.66 2 1 C1.525625 1.433125 1.05125 1.86625 0.5625 2.3125 C-1.23686957 4.02309613 -1.23686957 4.02309613 -2 7 C-5.54127891 9.30183129 -8.42579106 10.1263831 -12.5625 10.375 C-16.2746343 10.66971336 -16.95158137 10.96146273 -20.0625 13.4375 C-22.20103609 15.73046572 -22.20103609 15.73046572 -22 18 C-14.99603324 16.46710336 -10.22268633 14.95485626 -5 10 C-4.34 10 -3.68 10 -3 10 C-4.48326992 14.44980976 -8.00774906 16.86207327 -12 19 C-21.56064822 22.39592332 -34.67456077 23.14349284 -44.0625 18.875 C-47.22654293 16.95456351 -47.9368308 16.12876799 -49.625 12.6875 C-49.810625 11.3571875 -49.810625 11.3571875 -50 10 C-49.18208984 10.61488281 -49.18208984 10.61488281 -48.34765625 11.2421875 C-42.91288277 15.12549573 -38.5964006 16.95295229 -32 18 C-33.12451727 15.0280615 -34.22293791 12.66559313 -36 10 C-32.20401451 11.49128001 -30.28279601 13.65733441 -28 17 C-28 17.99 -28 18.98 -28 20 C-27.34 20 -26.68 20 -26 20 C-25.938125 19.46375 -25.87625 18.9275 -25.8125 18.375 C-24.05160269 13.2277617 -20.65227565 10.08615436 -15.8984375 7.734375 C-14.39753092 7.05739266 -12.88945734 6.39609955 -11.375 5.75 C-9.86114121 5.0800152 -8.34808653 4.40820983 -6.8359375 3.734375 C-6.17126465 3.44788086 -5.5065918 3.16138672 -4.82177734 2.86621094 C-2.73703656 1.92845076 -2.73703656 1.92845076 0 0 Z " fill="#79060D" transform="translate(77,64)"/>
<path d="M0 0 C1 2 1 2 0.3125 5.75 C-2.55461404 13.87569188 -9.4883991 22.01888318 -16.6484375 26.75 C-18.77090398 27.70898818 -20.74347395 28.44041794 -23 29 C-23.7425 29.18949219 -24.485 29.37898438 -25.25 29.57421875 C-25.8275 29.71472656 -26.405 29.85523437 -27 30 C-27 30.66 -27 31.32 -27 32 C-32.86237532 34.00766278 -38.20121352 34.36618031 -44.375 34.375 C-45.26960938 34.39949219 -46.16421875 34.42398438 -47.0859375 34.44921875 C-55.44938712 34.48568728 -62.01693954 31.98644837 -68.5625 26.75 C-69.22378906 26.22921875 -69.88507813 25.7084375 -70.56640625 25.171875 C-71.03949219 24.78515625 -71.51257813 24.3984375 -72 24 C-68.83789129 24 -67.90053487 24.45363948 -65.1875 25.875 C-59.0277965 28.70404949 -52.69567629 29.37108195 -46 30 C-45.13246094 30.08507812 -44.26492187 30.17015625 -43.37109375 30.2578125 C-30.81801779 30.87822812 -20.13695974 25.82155112 -10.875 17.75 C-6.6207518 13.86624189 -4.00739355 10.36861065 -2 5 C-1.5875 4.01 -1.175 3.02 -0.75 2 C-0.37875 1.01 -0.37875 1.01 0 0 Z " fill="#E6CEB3" transform="translate(94,64)"/>
<path d="M0 0 C0.33 -0.99 0.66 -1.98 1 -3 C4.59476701 0.49205938 7.92026191 4.04033675 11 8 C11 8.66 11 9.32 11 10 C11.66 10 12.32 10 13 10 C16.42078361 17.7089802 18.48227754 24.47547752 18.4375 32.9375 C18.43492188 33.63415771 18.43234375 34.33081543 18.4296875 35.04858398 C18.29631816 39.69483843 17.42157536 43.62109115 16 48 C15.33128371 45.91954932 14.87116766 44.48772244 15.4375 42.34375 C16.23682667 39.0132222 16.36602338 35.65774195 16.5625 32.25 C16.62727539 31.20392578 16.62727539 31.20392578 16.69335938 30.13671875 C16.79889596 28.42468078 16.8998991 26.71236439 17 25 C16.34 25 15.68 25 15 25 C14.52949219 24.03578125 14.05898437 23.0715625 13.57421875 22.078125 C12.94552821 20.80197704 12.31660993 19.52594126 11.6875 18.25 C11.37876953 17.61578125 11.07003906 16.9815625 10.75195312 16.328125 C9.089649 12.96852088 7.38120835 9.90141079 5 7 C4.34 8.98 3.68 10.96 3 13 C2.67 13 2.34 13 2 13 C1.87625 11.9275 1.7525 10.855 1.625 9.75 C1.02455967 5.53861506 1.02455967 5.53861506 -1 2 C-3.88318775 0.81664605 -3.88318775 0.81664605 -7 0 C-7.55429688 -0.34546875 -8.10859375 -0.6909375 -8.6796875 -1.046875 C-12.13911144 -2.46791783 -15.57510709 -2.20940567 -19.25 -2.125 C-19.99507812 -2.11597656 -20.74015625 -2.10695313 -21.5078125 -2.09765625 C-23.33868059 -2.07418358 -25.16938238 -2.03831525 -27 -2 C-27 -2.33 -27 -2.66 -27 -3 C-16.99036846 -7.2145817 -9.23016715 -4.91339696 0 0 Z " fill="#EC9A81" transform="translate(78,17)"/>
<path d="M0 0 C0.66 0 1.32 0 2 0 C2.99 2.31 3.98 4.62 5 7 C8.60992379 6.34414811 8.60992379 6.34414811 12 5 C10.59187652 9.48039289 8.27650612 11.72349388 5 15 C4.13880866 17.17346568 4.13880866 17.17346568 4 19 C2.02 19 0.04 19 -2 19 C-2.20625 18.319375 -2.4125 17.63875 -2.625 16.9375 C-4.45408866 13.02990149 -7.10279034 10.16142061 -10 7 C-9.67 6.34 -9.34 5.68 -9 5 C-8.01 5.99 -7.02 6.98 -6 8 C-5.01 7.67 -4.02 7.34 -3 7 C-1.28432339 3.49705129 -1.28432339 3.49705129 0 0 Z " fill="#FEA076" transform="translate(49,28)"/>
<path d="M0 0 C0.70125 0.144375 1.4025 0.28875 2.125 0.4375 C1.5 2.8125 1.5 2.8125 0.125 5.4375 C-3 6.75 -3 6.75 -5.875 7.4375 C-6.24785379 10.74075153 -6.16523445 12.05332806 -4.125 14.75390625 C-3.01125 15.86572266 -3.01125 15.86572266 -1.875 17 C2.125 21.00694444 2.125 21.00694444 2.125 25.4375 C-1.10296016 25.55076176 -2.92244981 25.58771085 -5.875 24.4375 C-9.41197307 20.73524781 -12.875 16.69119527 -12.875 11.4375 C-12.215 11.4375 -11.555 11.4375 -10.875 11.4375 C-10.60300781 10.85484375 -10.33101562 10.2721875 -10.05078125 9.671875 C-7.76868618 5.3351362 -5.05129988 0.76867607 0 0 Z " fill="#E4726E" transform="translate(44.875,21.5625)"/>
<path d="M0 0 C-1.32 0.33 -2.64 0.66 -4 1 C-4 1.66 -4 2.32 -4 3 C-1.03 3.33 1.94 3.66 5 4 C5 4.33 5 4.66 5 5 C4.35933594 5.06058594 3.71867187 5.12117187 3.05859375 5.18359375 C-0.98010711 5.57482409 -4.99415434 5.97288559 -9 6.625 C-12 7 -12 7 -14 6 C-21.08453746 11.46521462 -26.22811534 17.46716158 -31 25 C-31.51433594 25.80050781 -32.02867188 26.60101562 -32.55859375 27.42578125 C-37.34730371 36.14855889 -36.44976862 45.35496172 -36 55 C-39.70279571 49.44580643 -38.95279619 41.47202604 -38 35 C-35.13813025 24.73002659 -30.09442168 14.75361371 -21 9 C-20.29875 8.195625 -19.5975 7.39125 -18.875 6.5625 C-14.19930224 2.39503026 -6.36080768 -2.47110514 0 0 Z " fill="#FBE2B9" transform="translate(40,5)"/>
<path d="M0 0 C0 0.33 0 0.66 0 1 C-0.75925781 1.03738281 -1.51851562 1.07476563 -2.30078125 1.11328125 C-3.79158203 1.21189453 -3.79158203 1.21189453 -5.3125 1.3125 C-6.79169922 1.39951172 -6.79169922 1.39951172 -8.30078125 1.48828125 C-11.35135509 2.06661001 -11.93176838 2.83907453 -14 5 C-15.32 5 -16.64 5 -18 5 C-18.46019531 4.51917969 -18.92039062 4.03835938 -19.39453125 3.54296875 C-21.68751616 1.33924846 -23.56442544 1.49621027 -26.6875 1.3125 C-27.68136719 1.24675781 -28.67523438 1.18101563 -29.69921875 1.11328125 C-30.45847656 1.07589844 -31.21773437 1.03851562 -32 1 C-31.34 0.67 -30.68 0.34 -30 0 C-30 -0.66 -30 -1.32 -30 -2 C-19.11357506 -5.2191972 -10.0044352 -5.94858309 0 0 Z " fill="#FEFEFC" transform="translate(66,8)"/>
<path d="M0 0 C0.33 0 0.66 0 1 0 C0.54772219 5.33687816 -0.05521547 8.46956226 -3 13 C-5.81740184 19.25935088 -6.41356679 24.30630948 -6.25 31.125 C-6.24484375 31.99253906 -6.2396875 32.86007813 -6.234375 33.75390625 C-6.17939864 38.26883975 -5.9027523 42.55904111 -5 47 C-10.21644731 41.78355269 -9.36482517 31.33458067 -9.375 24.375 C-9.39949219 23.48554687 -9.42398437 22.59609375 -9.44921875 21.6796875 C-9.48940419 12.57098774 -6.08351827 6.57677651 0 0 Z " fill="#CC4E5C" transform="translate(17,22)"/>
<path d="M0 0 C-0.6951254 4.92104649 -3.89532417 7.11868494 -7.5 10.2265625 C-10.98579184 12.69929609 -13.80181852 13.38935542 -18 14 C-10.656 -1.776 -10.656 -1.776 0 0 Z " fill="#F28775" transform="translate(80,31)"/>
<path d="M0 0 C3.27323853 -0.32580847 5.90166499 -0.1493051 9 1 C13.24479685 5.36689761 16.403616 10.50714741 19 16 C11.61204518 14.46084275 6.61030031 10.80607283 1.5 5.3125 C0 3 0 3 0 0 Z " fill="#F68B76" transform="translate(20,30)"/>
<path d="M0 0 C0.33 0.66 0.66 1.32 1 2 C1.99 2.33 2.98 2.66 4 3 C7.31775934 8.78082658 7.4284367 13.94262015 7.3125 20.5 C7.31572266 21.41136719 7.31894531 22.32273437 7.32226562 23.26171875 C7.2802863 28.55111378 6.72524127 32.99611298 5 38 C4.67 38 4.34 38 4 38 C4.01571045 37.44127197 4.0314209 36.88254395 4.04760742 36.30688477 C4.11074924 33.7255301 4.14923704 31.1443387 4.1875 28.5625 C4.21263672 27.68400391 4.23777344 26.80550781 4.26367188 25.90039062 C4.34583128 18.47865789 3.15812328 12.23718492 -1 6 C-0.625 2.8125 -0.625 2.8125 0 0 Z " fill="#BE283C" transform="translate(82,27)"/>
<path d="M0 0 C2.625 -0.1875 2.625 -0.1875 5 0 C4.55491959 5.04424468 2.39019075 7.44443409 -1 11 C-1.66 11 -2.32 11 -3 11 C-2.85786703 12.89611434 -2.71113093 14.79188394 -2.5625 16.6875 C-2.48128906 17.74324219 -2.40007813 18.79898438 -2.31640625 19.88671875 C-2.03548319 22.65086297 -1.59843148 25.28945741 -1 28 C-0.34 28 0.32 28 1 28 C1 29.65 1 31.3 1 33 C-3.37368665 29.20947157 -4.75927263 25.54795849 -5.30078125 19.81640625 C-5.33014743 11.66239587 -4.54688866 6.82033299 0 0 Z " fill="#A11F36" transform="translate(18,39)"/>
<path d="M0 0 C1.98 0 3.96 0 6 0 C9.94257448 7.55660108 9.74123997 14.72911015 8 23 C6.04245819 21.36871516 5.08345666 20.50947377 4.6640625 17.94921875 C4.65117188 17.20285156 4.63828125 16.45648438 4.625 15.6875 C4.36994362 12.11091398 3.84496226 10.36246008 1.375 7.75 C-1 5 -1 5 -0.8125 2.125 C-0.544375 1.42375 -0.27625 0.7225 0 0 Z " fill="#BA1624" transform="translate(78,38)"/>
<path d="M0 0 C13.39063893 0.97692712 13.39063893 0.97692712 17.14453125 3.36328125 C18.5 4.9375 18.5 4.9375 20 8 C19.67 8.99 19.34 9.98 19 11 C12.02090212 10.06299149 7.14986167 7.85346675 2 3 C1.34 2.01 0.68 1.02 0 0 Z " fill="#F54838" transform="translate(26,72)"/>
<path d="M0 0 C-5.93819903 6.37483131 -11.49179491 8.51106411 -20 10 C-19.2265625 5.2734375 -19.2265625 5.2734375 -17.1875 2.8125 C-12.68033652 0.24960312 -4.92814448 -2.46407224 0 0 Z " fill="#E74036" transform="translate(74,73)"/>
<path d="M0 0 C2.25624743 2.91150492 4.2295298 5.9049705 6.125 9.0625 C6.64320312 9.91972656 7.16140625 10.77695312 7.6953125 11.66015625 C10.83807339 17.29642504 10.18394744 23.02802374 10.1875 29.3125 C10.19974609 30.44107422 10.21199219 31.56964844 10.22460938 32.73242188 C10.22750977 34.37500977 10.22750977 34.37500977 10.23046875 36.05078125 C10.23457764 37.04762939 10.23868652 38.04447754 10.24291992 39.0715332 C9.97499795 42.30140663 9.13459959 44.97449478 8 48 C7.34 48 6.68 48 6 48 C5.67 48.66 5.34 49.32 5 50 C5.40906298 47.06838197 5.78169468 44.47675874 7.01953125 41.7734375 C8.25972168 38.26532912 8.34117084 34.98758077 8.3125 31.3125 C8.30976074 30.60641602 8.30702148 29.90033203 8.30419922 29.17285156 C8.15927076 21.87978492 6.5233581 15.41361279 3 9 C2.46375 8.54625 1.9275 8.0925 1.375 7.625 C-0.6802674 5.19604762 -0.20441794 3.06626911 0 0 Z " fill="#CA4F5E" transform="translate(82,21)"/>
<path d="M0 0 C0 0.66 0 1.32 0 2 C-0.66 2 -1.32 2 -2 2 C-2.185625 2.66 -2.37125 3.32 -2.5625 4 C-4.62933375 8.31339218 -7.76537811 11.51456519 -11 15 C-11.66 14.67 -12.32 14.34 -13 14 C-13.61364554 6.75898264 -13.61364554 6.75898264 -10.625 3.0625 C-6.77510379 0.03758155 -4.85148682 -0.1054671 0 0 Z " fill="#FC9172" transform="translate(45,18)"/>
<path d="M0 0 C0.33 0 0.66 0 1 0 C1.05534912 0.64026123 1.11069824 1.28052246 1.16772461 1.94018555 C1.42144165 4.8562154 1.67942949 7.77185234 1.9375 10.6875 C2.02451172 11.69490234 2.11152344 12.70230469 2.20117188 13.74023438 C2.28818359 14.71669922 2.37519531 15.69316406 2.46484375 16.69921875 C2.543396 17.59471436 2.62194824 18.49020996 2.70288086 19.4128418 C2.9980463 21.98298823 3.45612236 24.47186549 4 27 C4.99 27.33 5.98 27.66 7 28 C8.03755118 29.98077953 9.02995879 31.98529902 10 34 C11.59444734 36.39406507 13.28804708 38.68655011 15 41 C7.19478522 37.82009768 3.15288464 30.44320235 0 23 C-0.98345292 18.02488525 -1.13502612 13.18818881 -1.125 8.125 C-1.12757813 6.80757812 -1.13015625 5.49015625 -1.1328125 4.1328125 C-1 1 -1 1 0 0 Z " fill="#C96D72" transform="translate(7,42)"/>
<path d="M0 0 C0.82185338 2.8272231 1.0706601 5.15736137 0.88671875 8.08984375 C0.39667781 19.20434044 1.44805592 26.19060658 7 36 C7.309375 36.85207031 7.61875 37.70414063 7.9375 38.58203125 C9.21424638 41.48756805 10.8340205 43.13237435 13.125 45.3125 C13.84945313 46.00988281 14.57390625 46.70726562 15.3203125 47.42578125 C15.87460937 47.94527344 16.42890625 48.46476562 17 49 C12.695959 49 11.02017072 47.00038457 7.92578125 44.171875 C4.69663443 40.53007859 3.44053484 36.58527384 2 32 C1.443125 30.51306641 1.443125 30.51306641 0.875 28.99609375 C-2.00993961 20.83211533 -4.49187326 9.92533221 -0.9765625 1.56640625 C-0.65429688 1.04949219 -0.33203125 0.53257813 0 0 Z " fill="#E3B9A1" transform="translate(5,37)"/>
<path d="M0 0 C4.02992782 0.55312735 8.02022924 1.1558062 12 2 C12 2.66 12 3.32 12 4 C12.639375 4.268125 13.27875 4.53625 13.9375 4.8125 C16 6 16 6 17 9 C14 10 14 10 11 9 C9.02265434 8.90544339 7.04209917 8.87010606 5.0625 8.875 C4.02222656 8.87242188 2.98195313 8.86984375 1.91015625 8.8671875 C-0.57665971 8.98067977 -2.63092407 9.28071429 -5 10 C-4.67 9.01 -4.34 8.02 -4 7 C-1.70370006 5.85185003 0.07698086 5.69230191 2.625 5.4375 C3.44226562 5.35371094 4.25953125 5.26992187 5.1015625 5.18359375 C6.04128906 5.09271484 6.04128906 5.09271484 7 5 C3.535 3.02 3.535 3.02 0 1 C0 0.67 0 0.34 0 0 Z " fill="#FCEDC9" transform="translate(57,3)"/>
<path d="M0 0 C3.78119389 1.45430534 5.04592285 3.11042781 6.75 6.75 C10.42050415 15.97129724 11.15442323 29.53673031 8 39 C7.34 39 6.68 39 6 39 C6.02094727 38.3608667 6.04189453 37.7217334 6.06347656 37.06323242 C6.8885513 21.59323829 6.8885513 21.59323829 2.875 6.890625 C2 5 2 5 2 2 C1.34 2 0.68 2 0 2 C0 1.34 0 0.68 0 0 Z " fill="#F3D8BB" transform="translate(89,25)"/>
<path d="M0 0 C0.66 0.66 1.32 1.32 2 2 C1.54545455 7.45454545 1.54545455 7.45454545 -1 10 C1.97 10.495 1.97 10.495 5 11 C4.071875 11.12375 4.071875 11.12375 3.125 11.25 C0.88958333 11.8 0.88958333 11.8 -0.125 13.6875 C-0.558125 14.8321875 -0.558125 14.8321875 -1 16 C-1.350625 16.886875 -1.70125 17.77375 -2.0625 18.6875 C-3.21856863 22.77227582 -3.64367692 26.78038461 -4 31 C-4.33 31 -4.66 31 -5 31 C-5.08797281 27.81267746 -5.14071341 24.62567212 -5.1875 21.4375 C-5.21263672 20.54224609 -5.23777344 19.64699219 -5.26367188 18.72460938 C-5.32682979 12.97723906 -4.65973291 9.10668718 -2 4 C-1.608125 3.195625 -1.21625 2.39125 -0.8125 1.5625 C-0.544375 1.046875 -0.27625 0.53125 0 0 Z " fill="#BD253A" transform="translate(17,27)"/>
<path d="M0 0 C0.66 0.33 1.32 0.66 2 1 C-2.28261196 5.7941183 -7.02490386 7.07089753 -13 9 C-14.175625 9.4125 -15.35125 9.825 -16.5625 10.25 C-27.30482839 12.59378074 -40.39861038 11.30985941 -50 6 C-48 5 -48 5 -45.375 5.875 C-43.704375 6.431875 -43.704375 6.431875 -42 7 C-28.24231316 9.50139761 -14.90276929 8.35674537 -2 3 C-2 2.34 -2 1.68 -2 1 C-1.34 0.67 -0.68 0.34 0 0 Z " fill="#D6B29D" transform="translate(78,84)"/>
<path d="M0 0 C0.33 0 0.66 0 1 0 C1 3.3 1 6.6 1 10 C0.67 10 0.34 10 0 10 C-0.33 8.02 -0.66 6.04 -1 4 C-5.84459945 10.01896658 -5.84459945 10.01896658 -9 17 C-9.34289062 17.99 -9.68578125 18.98 -10.0390625 20 C-11.4003373 24.77755098 -11.21726879 29.50821734 -11.125 34.4375 C-11.11597656 35.35982422 -11.10695313 36.28214844 -11.09765625 37.23242188 C-11.0742766 39.48855809 -11.04150916 41.74413684 -11 44 C-13.04186383 40.93720426 -13.25493711 40.28765648 -13.265625 36.83203125 C-13.26820312 36.02056641 -13.27078125 35.20910156 -13.2734375 34.37304688 C-13.26570312 33.52806641 -13.25796875 32.68308594 -13.25 31.8125 C-13.25773438 30.98685547 -13.26546875 30.16121094 -13.2734375 29.31054688 C-13.25062177 22.07225675 -12.24797896 15.591173 -8.625 9.1875 C-8.02558594 8.09501953 -8.02558594 8.09501953 -7.4140625 6.98046875 C-5.83658463 4.7711282 -4.28968255 3.44587524 -2 2 C-1.34 2 -0.68 2 0 2 C0 1.34 0 0.68 0 0 Z " fill="#EA9581" transform="translate(18,19)"/>
<path d="M0 0 C2.78139298 0.4948171 5.40240705 1.12619566 8.1015625 1.97265625 C20.1429535 5.69721067 32.57326712 6.44558103 45 4 C40.41711808 8.58288192 33.39719521 7.22311791 27.34082031 7.24023438 C25.2710695 7.24990159 23.20232879 7.2809194 21.1328125 7.3125 C19.15667969 7.32023437 19.15667969 7.32023437 17.140625 7.328125 C15.93954102 7.3374707 14.73845703 7.34681641 13.50097656 7.35644531 C8.57411493 6.85482621 4.44320315 5.62942291 1.0625 1.8125 C0.711875 1.214375 0.36125 0.61625 0 0 Z " fill="#A54E5F" transform="translate(19,79)"/>
<path d="M0 0 C0.33 -0.99 0.66 -1.98 1 -3 C3.42130331 0.63195496 3.21022785 2.38349348 3.125 6.6875 C3.10695313 7.86699219 3.08890625 9.04648437 3.0703125 10.26171875 C3.04710938 11.16535156 3.02390625 12.06898437 3 13 C2.67 13 2.34 13 2 13 C1.87625 11.9275 1.7525 10.855 1.625 9.75 C1.02455967 5.53861506 1.02455967 5.53861506 -1 2 C-3.88318775 0.81664605 -3.88318775 0.81664605 -7 0 C-7.55429688 -0.34546875 -8.10859375 -0.6909375 -8.6796875 -1.046875 C-12.13911144 -2.46791783 -15.57510709 -2.20940567 -19.25 -2.125 C-19.99507812 -2.11597656 -20.74015625 -2.10695313 -21.5078125 -2.09765625 C-23.33868059 -2.07418358 -25.16938238 -2.03831525 -27 -2 C-27 -2.33 -27 -2.66 -27 -3 C-16.99036846 -7.2145817 -9.23016715 -4.91339696 0 0 Z " fill="#F1A884" transform="translate(78,17)"/>
<path d="M0 0 C11.22 0 22.44 0 34 0 C23.65775779 5.17112111 10.93143194 3.36812452 0 1 C0 0.67 0 0.34 0 0 Z " fill="#CEA494" transform="translate(33,90)"/>
<path d="M0 0 C0.66 0.33 1.32 0.66 2 1 C1.5205537 5.21912747 0.83374881 7.79663178 -2 11 C-2.598125 10.690625 -3.19625 10.38125 -3.8125 10.0625 C-6.08956772 8.89790296 -6.08956772 8.89790296 -9 8 C-8.8125 5.625 -8.8125 5.625 -8 3 C-5.625 1.75 -5.625 1.75 -3 1 C-2.01 0.67 -1.02 0.34 0 0 Z " fill="#E5726E" transform="translate(47,26)"/>
<path d="M0 0 C0.33 0.99 0.66 1.98 1 3 C1.66 3 2.32 3 3 3 C3.61633348 20.12037431 3.61633348 20.12037431 0 28 C-0.66 28.66 -1.32 29.32 -2 30 C-2.042721 28.33388095 -2.04063832 26.66617115 -2 25 C-1.67 24.67 -1.34 24.34 -1 24 C-0.84235595 22.22130274 -0.74899323 20.43681524 -0.68359375 18.65234375 C-0.64169922 17.57275391 -0.59980469 16.49316406 -0.55664062 15.38085938 C-0.51732422 14.24455078 -0.47800781 13.10824219 -0.4375 11.9375 C-0.39431641 10.79732422 -0.35113281 9.65714844 -0.30664062 8.48242188 C-0.20017161 5.65507805 -0.09815793 2.82764262 0 0 Z " fill="#D47C7A" transform="translate(92,39)"/>
<path d="M0 0 C1.32 0 2.64 0 4 0 C4 0.66 4 1.32 4 2 C-1.9361217 4.05763778 -7.30882192 4.30281079 -13.5625 4.25 C-14.48224609 4.25773437 -15.40199219 4.26546875 -16.34960938 4.2734375 C-21.29833789 4.25920679 -25.36204397 3.94470037 -30 2 C-30 1.67 -30 1.34 -30 1 C-29.12674072 1.00523682 -28.25348145 1.01047363 -27.35375977 1.01586914 C-24.12410727 1.03287751 -20.89447755 1.04543369 -17.66479492 1.05493164 C-16.26504772 1.0599708 -14.8653058 1.06680216 -13.46557617 1.07543945 C-11.45754223 1.0875232 -9.44947043 1.09269807 -7.44140625 1.09765625 C-6.23170166 1.10289307 -5.02199707 1.10812988 -3.77563477 1.11352539 C-1.09187983 1.31775285 -1.09187983 1.31775285 0 0 Z " fill="#EEE0C4" transform="translate(63,94)"/>
<path d="M0 0 C0.88767121 2.45219172 1.12206833 3.6503251 0.25 6.1484375 C-2.77810118 11.54224272 -6.01051084 15.33337252 -11 19 C-11.99 18.34 -12.98 17.68 -14 17 C-13.0925 16.34 -12.185 15.68 -11.25 15 C-7.55493135 11.96163787 -5.83299278 8.34527112 -4 4 C-3.01 4 -2.02 4 -1 4 C-0.67 2.68 -0.34 1.36 0 0 Z " fill="#CB9188" transform="translate(92,65)"/>
<path d="M0 0 C0 3 0 3 -1.9375 5.6875 C-5.60580124 8.45744175 -7.56189004 8.52857963 -12.01171875 8.46875 C-14 8 -14 8 -16 5 C-10.72 3.35 -5.44 1.7 0 0 Z " fill="#D73337" transform="translate(70,42)"/>
<path d="M0 0 C0.66 0.33 1.32 0.66 2 1 C1.55269531 1.59425781 1.10539063 2.18851563 0.64453125 2.80078125 C-8.85253132 15.82127429 -10.73801865 25.17360016 -10 41 C-13.70823834 35.43764249 -12.94011702 27.4800923 -12 21 C-9.81268519 12.88783959 -6.26009084 5.66543627 0 0 Z " fill="#F6D8B9" transform="translate(14,19)"/>
<path d="M0 0 C5.99932374 1.8331267 11.44920563 4.07321751 17 7 C17 7.33 17 7.66 17 8 C10.01370081 8.50604984 5.79799884 8.0333905 0 4 C0 2.68 0 1.36 0 0 Z " fill="#890406" transform="translate(24,66)"/>
<path d="M0 0 C5.28 1.32 10.56 2.64 16 4 C14 7 14 7 12.01171875 7.43359375 C7.89040157 7.44052033 5.56270032 7.33302672 1.9375 5.1875 C0 3 0 3 0 0 Z " fill="#CF2A32" transform="translate(30,43)"/>
<path d="M0 0 C0.66 0.33 1.32 0.66 2 1 C-4.25815512 7.5378492 -9.43790706 9.71330662 -18.4140625 10.10546875 C-20.27630087 10.12191962 -22.13896496 10.06892722 -24 10 C-19.82934421 7.21956281 -16.53696535 5.98449918 -11.5625 5.625 C-6.6443034 5.18162335 -3.528085 3.528085 0 0 Z " fill="#B56B73" transform="translate(83,76)"/>
<path d="M0 0 C0.33 0 0.66 0 1 0 C1.35957762 3.77556505 1.11727831 5.76995408 -0.625 9.1875 C-3.23705347 12.28072122 -5.29457838 13.45607433 -9 15 C-10.33713182 15.65901497 -11.67127995 16.32418549 -13 17 C-12.60167969 16.54109375 -12.20335938 16.0821875 -11.79296875 15.609375 C-8.39984291 11.68325173 -8.39984291 11.68325173 -5.25 7.5625 C-4.8375 7.046875 -4.425 6.53125 -4 6 C-3.34 6 -2.68 6 -2 6 C-1.855625 5.195625 -1.71125 4.39125 -1.5625 3.5625 C-1 1 -1 1 0 0 Z " fill="#981C34" transform="translate(85,61)"/>
<path d="M0 0 C2.625 -0.1875 2.625 -0.1875 5 0 C4.55530671 5.03985731 2.28656638 7.37634988 -1 11 C-3 8 -3 8 -2.75 5.5 C-2 3 -2 3 0 0 Z " fill="#B80F1B" transform="translate(18,39)"/>
<path d="M0 0 C0.54527344 0.40992187 1.09054688 0.81984375 1.65234375 1.2421875 C7.08711723 5.12549573 11.4035994 6.95295229 18 8 C17.01 9.485 17.01 9.485 16 11 C10.31756935 10.53612811 6.65681869 9.37847631 2 6 C0.5625 2.75 0.5625 2.75 0 0 Z " fill="#840B17" transform="translate(27,74)"/>
<path d="M0 0 C0.33 0.66 0.66 1.32 1 2 C-5.99772014 9.40935074 -10.95018997 11.64235552 -21 12 C-18.49963891 8.9039153 -16.50267893 8.53525812 -12.625 8.0625 C-8.02885748 7.3339173 -5.27939476 6.49096862 -2 3 C-1.34 2.01 -0.68 1.02 0 0 Z " fill="#A94E60" transform="translate(86,71)"/>
<path d="M0 0 C2 1 2 1 3.109375 4.03125 C4.19440991 8.20118808 4.29603248 12.2113072 4.25 16.5 C4.25773437 17.22058594 4.26546875 17.94117187 4.2734375 18.68359375 C4.25609478 23.47885624 3.50940686 27.44782059 2 32 C1.33128371 29.91954932 0.87116766 28.48772244 1.4375 26.34375 C2.23682667 23.0132222 2.36602338 19.65774195 2.5625 16.25 C2.60568359 15.55261719 2.64886719 14.85523438 2.69335938 14.13671875 C2.79889596 12.42468078 2.8998991 10.71236439 3 9 C2.34 9 1.68 9 1 9 C0.67 6.03 0.34 3.06 0 0 Z " fill="#E2A191" transform="translate(92,33)"/>
<path d="M0 0 C-0.99 1.485 -0.99 1.485 -2 3 C-3.299375 2.814375 -4.59875 2.62875 -5.9375 2.4375 C-10.15548495 1.94440223 -13.88276904 2.21618028 -18.0546875 2.94140625 C-20 3 -20 3 -23 1 C-15.04579145 -0.67968453 -8.05686696 -1.1736381 0 0 Z " fill="#FDF4D5" transform="translate(60,2)"/>
<path d="M0 0 C2.31 0.66 4.62 1.32 7 2 C7 2.66 7 3.32 7 4 C5.68 4 4.36 4 3 4 C2.67 4.99 2.34 5.98 2 7 C0.02 7.33 -1.96 7.66 -4 8 C-3.50168276 4.31245243 -2.89932357 2.39509338 0 0 Z " fill="#EF4036" transform="translate(58,75)"/>
<path d="M0 0 C0 2 0 4 0 6 C-2.69674368 8.49698489 -5.56801397 9.76067171 -9 11 C-9.28125 8.70703125 -9.28125 8.70703125 -9 6 C-7.03125 4.19921875 -7.03125 4.19921875 -4.5 2.6875 C-3.6646875 2.17574219 -2.829375 1.66398437 -1.96875 1.13671875 C-1.3190625 0.76160156 -0.669375 0.38648438 0 0 Z " fill="#D83137" transform="translate(67,63)"/>
<path d="M0 0 C4.94749123 6.44358887 9.6382861 12.6805804 10 21 C8 18 8 18 8 16 C7.34 16 6.68 16 6 16 C5.566875 14.906875 5.13375 13.81375 4.6875 12.6875 C3.72702677 10.40065898 3.15089863 9.13972095 1.3125 7.4375 C0 6 0 6 -0.1875 2.8125 C-0.125625 1.884375 -0.06375 0.95625 0 0 Z " fill="#DC5D60" transform="translate(82,21)"/>
<path d="M0 0 C0.33 0.66 0.66 1.32 1 2 C-2.75 7.75 -2.75 7.75 -5 10 C-7.3828125 10.4140625 -7.3828125 10.4140625 -10.125 10.625 C-11.03507812 10.69976562 -11.94515625 10.77453125 -12.8828125 10.8515625 C-13.93082031 10.92503906 -13.93082031 10.92503906 -15 11 C-13.5957519 8.19150381 -11.89192299 8.11733388 -9 7 C-5.42382491 5.08107678 -2.76476582 2.96956329 0 0 Z " fill="#9F334A" transform="translate(84,69)"/>
<path d="M0 0 C5.38013653 3.0263268 10.62610004 6.62610004 15 11 C6.84313725 10.05882353 6.84313725 10.05882353 4 8 C0 2.66666667 0 2.66666667 0 0 Z " fill="#97243C" transform="translate(19,72)"/>
<path d="M0 0 C0.33 0.99 0.66 1.98 1 3 C2.32 2.67 3.64 2.34 5 2 C3.625 3.5 3.625 3.5 2 5 C1.34 5 0.68 5 0 5 C-0.33 8.3 -0.66 11.6 -1 15 C-1.33 15 -1.66 15 -2 15 C-2.33 12.36 -2.66 9.72 -3 7 C-3.99 7.33 -4.98 7.66 -6 8 C-4.73058503 4.08597051 -3.48832306 2.20927127 0 0 Z " fill="#F2B38D" transform="translate(21,14)"/>
<path d="M0 0 C5.01374339 2.12119913 8.99546333 5.493195 12 10 C11.625 12.1875 11.625 12.1875 11 14 C6 8.25 6 8.25 6 6 C5.38125 5.7525 4.7625 5.505 4.125 5.25 C1.64931313 3.79371361 1.04874998 2.62187494 0 0 Z " fill="#F9DCB7" transform="translate(77,11)"/>
<path d="M0 0 C0.33 0.99 0.66 1.98 1 3 C-0.4375 5.1875 -0.4375 5.1875 -2 7 C0.97 7.495 0.97 7.495 4 8 C3.071875 8.12375 3.071875 8.12375 2.125 8.25 C-0.18437567 8.81258459 -0.18437567 8.81258459 -1.25 11.0625 C-1.4975 11.701875 -1.745 12.34125 -2 13 C-2.66 12.34 -3.32 11.68 -4 11 C-3.65922921 3.84381339 -3.65922921 3.84381339 -1.4375 1 C-0.963125 0.67 -0.48875 0.34 0 0 Z " fill="#C92030" transform="translate(18,30)"/>
<path d="M0 0 C0.33 0 0.66 0 1 0 C1.042721 1.66611905 1.04063832 3.33382885 1 5 C0.67 5.33 0.34 5.66 0 6 C-0.08669432 7.4887186 -0.10703494 8.981445 -0.09765625 10.47265625 C-0.09443359 11.37177734 -0.09121094 12.27089844 -0.08789062 13.19726562 C-0.07951172 14.14279297 -0.07113281 15.08832031 -0.0625 16.0625 C-0.05798828 17.01189453 -0.05347656 17.96128906 -0.04882812 18.93945312 C-0.0370011 21.29303065 -0.02052025 23.64648477 0 26 C-2.06390941 22.90413588 -2.25513177 22.20251548 -2.265625 18.69140625 C-2.26820313 17.86189453 -2.27078125 17.03238281 -2.2734375 16.17773438 C-2.26570312 15.31470703 -2.25796875 14.45167969 -2.25 13.5625 C-2.25773438 12.70333984 -2.26546875 11.84417969 -2.2734375 10.95898438 C-2.27085937 10.12818359 -2.26828125 9.29738281 -2.265625 8.44140625 C-2.26336914 7.68545166 -2.26111328 6.92949707 -2.25878906 6.15063477 C-1.96841762 3.73753848 -1.19796935 2.09823083 0 0 Z " fill="#DA8B84" transform="translate(7,37)"/>
<path d="M0 0 C0.33 0.66 0.66 1.32 1 2 C1.99 2.33 2.98 2.66 4 3 C7.18404569 9.02694363 7.18404569 9.02694363 6.578125 12.23046875 C6.38734375 12.81441406 6.1965625 13.39835937 6 14 C5.15841464 12.73461631 4.32700252 11.46246221 3.5 10.1875 C2.80390625 9.12595703 2.80390625 9.12595703 2.09375 8.04296875 C1 6 1 6 1 3 C0.34 2.67 -0.32 2.34 -1 2 C-0.67 1.34 -0.34 0.68 0 0 Z " fill="#D33C4A" transform="translate(82,27)"/>
<path d="M0 0 C0.33 0.66 0.66 1.32 1 2 C0.14453125 3.734375 0.14453125 3.734375 -1.1875 5.75 C-1.64898438 6.45640625 -2.11046875 7.1628125 -2.5859375 7.890625 C-3.05257813 8.58671875 -3.51921875 9.2828125 -4 10 C-4.40476562 10.61359375 -4.80953125 11.2271875 -5.2265625 11.859375 C-6.14346724 13.24462677 -7.07059505 14.62310378 -8 16 C-8.33 15.34 -8.66 14.68 -9 14 C-7.11568628 8.5673033 -3.80237433 4.22486037 0 0 Z " fill="#E06D6A" transform="translate(17,22)"/>
<path d="M0 0 C3.9252025 3.70090521 6.94580156 7.54959656 10 12 C9.01 12.33 8.02 12.66 7 13 C5.82479354 11.40207898 4.66008753 9.79643092 3.5 8.1875 C2.8503125 7.29417969 2.200625 6.40085937 1.53125 5.48046875 C0 3 0 3 0 0 Z " fill="#7B5368" transform="translate(32,33)"/>
<path d="M0 0 C0.66 0.33 1.32 0.66 2 1 C0.93174812 2.82142946 -0.15515702 4.63192912 -1.25 6.4375 C-2.15492187 7.95150391 -2.15492187 7.95150391 -3.078125 9.49609375 C-5 12 -5 12 -7.234375 12.84765625 C-7.81703125 12.89792969 -8.3996875 12.94820312 -9 13 C-6.39163722 8.36291061 -3.22997426 4.21255542 0 0 Z " fill="#795268" transform="translate(67,33)"/>
<path d="M0 0 C3.00097623 1.50048811 3.51090421 4.02180843 5 7 C6.5976195 9.39164596 8.28821175 11.68677264 10 14 C6.17836093 12.44303593 3.81381505 9.96591316 1 7 C0.67 6.67 0.34 6.34 0 6 C-0.04080783 4.00041636 -0.04254356 1.99954746 0 0 Z " fill="#B96971" transform="translate(12,69)"/>
<path d="M0 0 C0.33 0 0.66 0 1 0 C1.08720919 3.58317958 1.14046112 7.16608567 1.1875 10.75 C1.22520508 12.27367187 1.22520508 12.27367187 1.26367188 13.828125 C1.27333984 14.8078125 1.28300781 15.7875 1.29296875 16.796875 C1.3086792 17.69760742 1.32438965 18.59833984 1.34057617 19.52636719 C0.93761772 22.45308763 -0.0655403 23.81341349 -2 26 C-2.042721 24.33388095 -2.04063832 22.66617115 -2 21 C-1.67 20.67 -1.34 20.34 -1 20 C-0.84344973 18.51361008 -0.74933057 17.02050873 -0.68359375 15.52734375 C-0.64169922 14.62822266 -0.59980469 13.72910156 -0.55664062 12.80273438 C-0.51732422 11.85720703 -0.47800781 10.91167969 -0.4375 9.9375 C-0.37272461 8.5134082 -0.37272461 8.5134082 -0.30664062 7.06054688 C-0.20020724 4.70718647 -0.09818992 2.35371646 0 0 Z " fill="#C86970" transform="translate(92,43)"/>
<path d="M0 0 C3.875 4.75 3.875 4.75 5 7 C1.7 7.33 -1.6 7.66 -5 8 C-4.360625 7.236875 -3.72125 6.47375 -3.0625 5.6875 C-0.85767219 3.11753287 -0.85767219 3.11753287 0 0 Z " fill="#F94C44" transform="translate(80,31)"/>
<path d="M0 0 C4.23429756 1.31061591 8.07407404 2.94356259 12 5 C12 5.66 12 6.32 12 7 C12.66 7.33 13.32 7.66 14 8 C8.04697456 7.70234873 4.31075199 4.85123021 0 1 C0 0.67 0 0.34 0 0 Z " fill="#E6D1B5" transform="translate(22,87)"/>
<path d="M0 0 C2.46800047 1.15173355 4.04783565 2.04783565 6 4 C8.06874034 4.6425235 8.06874034 4.6425235 10 5 C9.67 6.98 9.34 8.96 9 11 C8.34 11 7.68 11 7 11 C6.401875 9.9275 5.80375 8.855 5.1875 7.75 C3.62598931 5.01041007 1.97394497 2.46743122 0 0 Z " fill="#EC3B35" transform="translate(42,73)"/>
<path d="M0 0 C3.77545388 1.09068668 6.47043472 1.9083091 9 5 C8.34 5 7.68 5 7 5 C7 5.66 7 6.32 7 7 C4.04590299 5.62845496 1.55991624 4.01136276 -1 2 C-0.67 1.34 -0.34 0.68 0 0 Z " fill="#FDF6DD" transform="translate(70,4)"/>
<path d="M0 0 C7.425 0.99 7.425 0.99 15 2 C14.67 2.66 14.34 3.32 14 4 C11.36 3.67 8.72 3.34 6 3 C5.67 3.99 5.34 4.98 5 6 C3.35 4.02 1.7 2.04 0 0 Z " fill="#DD3432" transform="translate(26,72)"/>
<path d="M0 0 C4.12751449 0.60698743 7.3321148 2.03810791 11 4 C11 4.33 11 4.66 11 5 C9.37536158 5.05395478 7.75021459 5.09277195 6.125 5.125 C5.22007813 5.14820312 4.31515625 5.17140625 3.3828125 5.1953125 C1 5 1 5 -1 3 C-0.01 2.67 0.98 2.34 2 2 C1.34 1.34 0.68 0.68 0 0 Z " fill="#73030B" transform="translate(30,69)"/>
<path d="M0 0 C0.66 0.33 1.32 0.66 2 1 C1.2884375 1.6496875 1.2884375 1.6496875 0.5625 2.3125 C-1.23686957 4.02309613 -1.23686957 4.02309613 -2 7 C-3.98 7.33 -5.96 7.66 -8 8 C-7.00310315 4.31148165 -6.31080309 3.19425193 -3 1.125 C-2.01 0.75375 -1.02 0.3825 0 0 Z " fill="#8D0607" transform="translate(77,64)"/>
<path d="M0 0 C-3.33333333 2.66666667 -6.66666667 5.33333333 -10 8 C-9.9375 5.1875 -9.9375 5.1875 -9 2 C-2.88888889 -1.44444444 -2.88888889 -1.44444444 0 0 Z " fill="#ED967A" transform="translate(30,17)"/>
<path d="M0 0 C0.33 0 0.66 0 1 0 C1.12375 1.216875 1.2475 2.43375 1.375 3.6875 C1.69440882 6.35080593 2.09715584 8.23749204 3.125 10.75 C4.1265414 13.32539218 3.94402413 14.45113485 3 17 C2.5359375 16.0409375 2.5359375 16.0409375 2.0625 15.0625 C1.1654837 13.06389179 1.1654837 13.06389179 0 12 C-0.07244053 9.98035801 -0.08377188 7.95832876 -0.0625 5.9375 C-0.05347656 4.83277344 -0.04445313 3.72804687 -0.03515625 2.58984375 C-0.02355469 1.73519531 -0.01195312 0.88054688 0 0 Z " fill="#A21123" transform="translate(15,50)"/>
<path d="M0 0 C0.66 0.33 1.32 0.66 2 1 C1.67 5.29 1.34 9.58 1 14 C-1 12 -1 12 -1.23046875 9.94140625 C-1.21628906 9.15636719 -1.20210937 8.37132812 -1.1875 7.5625 C-1.18105469 6.78003906 -1.17460937 5.99757813 -1.16796875 5.19140625 C-1 3 -1 3 0 0 Z " fill="#B11A2E" transform="translate(14,46)"/>
<path d="M0 0 C4.875 4.625 4.875 4.625 6 8 C7.65 8.33 9.3 8.66 11 9 C11 9.66 11 10.32 11 11 C8.75 11.375 8.75 11.375 6 11 C3.23301613 7.60056268 1.45431839 4.12056877 0 0 Z " fill="#E87C72" transform="translate(36,36)"/>
<path d="M0 0 C1.09570312 0.19464844 2.19140625 0.38929687 3.3203125 0.58984375 C4.16335937 0.74582031 5.00640625 0.90179688 5.875 1.0625 C5.875 1.3925 5.875 1.7225 5.875 2.0625 C0.925 2.3925 -4.025 2.7225 -9.125 3.0625 C-8.795 2.0725 -8.465 1.0825 -8.125 0.0625 C-5.2144446 -1.3927777 -3.16650948 -0.57266661 0 0 Z " fill="#FCF3D3" transform="translate(39.125,7.9375)"/>
<path d="M0 0 C5.21202675 2.52704327 8.3880132 6.61773359 12 11 C9 11 9 11 6.73828125 9.1015625 C5.93777344 8.28429687 5.13726562 7.46703125 4.3125 6.625 C3.50425781 5.81289062 2.69601563 5.00078125 1.86328125 4.1640625 C0 2 0 2 0 0 Z " fill="#CC978C" transform="translate(12,75)"/>
<path d="M0 0 C1.67588141 2.51382212 2.94030311 4.82947288 4.1875 7.5625 C4.55230469 8.34753906 4.91710937 9.13257812 5.29296875 9.94140625 C5.52628906 10.62074219 5.75960938 11.30007812 6 12 C5.67 12.66 5.34 13.32 5 14 C-0.74031891 5.92255125 -0.74031891 5.92255125 0 0 Z " fill="#EFDBBF" transform="translate(4,61)"/>
<path d="M0 0 C1.32 0 2.64 0 4 0 C4.99 1.98 5.98 3.96 7 6 C2.25 5.125 2.25 5.125 0 4 C0 2.68 0 1.36 0 0 Z " fill="#E5746F" transform="translate(30,37)"/>
<path d="M0 0 C1.65 0 3.3 0 5 0 C4.34 1.65 3.68 3.3 3 5 C1.35 5 -0.3 5 -2 5 C-1.34 3.35 -0.68 1.7 0 0 Z " fill="#C46565" transform="translate(42,22)"/>
<path d="M0 0 C1.32 1.32 2.64 2.64 4 4 C3.67 4.99 3.34 5.98 3 7 C-1.455 6.01 -1.455 6.01 -6 5 C-2 4 -2 4 0 4 C0 2.68 0 1.36 0 0 Z " fill="#EA3E35" transform="translate(42,76)"/>
<path d="M0 0 C0.33 1.32 0.66 2.64 1 4 C1.66 3.67 2.32 3.34 3 3 C4.99960012 2.960008 7.00047242 2.95653201 9 3 C9.33 3.66 9.66 4.32 10 5 C9.071875 4.95875 8.14375 4.9175 7.1875 4.875 C3.84190281 4.72863661 3.84190281 4.72863661 1 7 C0.01 6.67 -0.98 6.34 -2 6 C-1.34 4.02 -0.68 2.04 0 0 Z " fill="#CF6065" transform="translate(69,26)"/>
<path d="M0 0 C0.66 0 1.32 0 2 0 C0.49860488 4.20390632 -2.17275043 5.89110738 -6 8 C-6.99 7.67 -7.98 7.34 -9 7 C-8.43410156 6.57847656 -7.86820312 6.15695313 -7.28515625 5.72265625 C-6.55167969 5.17480469 -5.81820312 4.62695312 -5.0625 4.0625 C-4.33160156 3.51722656 -3.60070312 2.97195312 -2.84765625 2.41015625 C-1.0865547 1.13092062 -1.0865547 1.13092062 0 0 Z " fill="#7C0509" transform="translate(72,74)"/>
<path d="M0 0 C0.33 0 0.66 0 1 0 C1.24042276 4.08718695 0.42258812 7.17679443 -1 11 C-1.66 11 -2.32 11 -3 11 C-3.33 11.66 -3.66 12.32 -4 13 C-3.40895235 8.15340923 -2.02055843 4.39251833 0 0 Z " fill="#B95664" transform="translate(91,58)"/>
<path d="M0 0 C0.33 0 0.66 0 1 0 C1.05449838 1.72880982 1.09301688 3.45812712 1.125 5.1875 C1.14820312 6.15042969 1.17140625 7.11335938 1.1953125 8.10546875 C0.9913544 11.12812778 0.26874632 13.26769985 -1 16 C-2.12796479 12.61610562 -1.80041938 10.44180334 -1 7 C-0.65596692 4.66822025 -0.32050798 2.33512959 0 0 Z " fill="#A11022" transform="translate(84,51)"/>
<path d="M0 0 C4.75 0.75 4.75 0.75 7 3 C7.33 3.99 7.66 4.98 8 6 C7.01 6.33 6.02 6.66 5 7 C4.01 6.34 3.02 5.68 2 5 C2.66 5 3.32 5 4 5 C2.68 3.35 1.36 1.7 0 0 Z " fill="#FAE1B5" transform="translate(66,6)"/>
<path d="M0 0 C0 0.66 0 1.32 0 2 C-2.875 2.1875 -2.875 2.1875 -6 2 C-6.66 1.01 -7.32 0.02 -8 -1 C-4.59745511 -2.2151946 -3.06748874 -1.86240388 0 0 Z " fill="#C52632" transform="translate(62,48)"/>
<path d="M0 0 C1.74627478 2.61941217 2.38722388 4.03824877 3 7 C0.69 7 -1.62 7 -4 7 C-2.68 4.69 -1.36 2.38 0 0 Z " fill="#F85048" transform="translate(19,31)"/>
<path d="M0 0 C0.66 0.99 1.32 1.98 2 3 C1.01 4.485 1.01 4.485 0 6 C-0.66 6 -1.32 6 -2 6 C-2.12375 6.94875 -2.2475 7.8975 -2.375 8.875 C-3 12 -3 12 -5 14 C-4.03603575 8.79459302 -3.12319499 4.40086567 0 0 Z " fill="#D23845" transform="translate(17,27)"/>
<path d="M0 0 C2.97 0.495 2.97 0.495 6 1 C6.33 2.32 6.66 3.64 7 5 C4.03 4.505 4.03 4.505 1 4 C0.67 2.68 0.34 1.36 0 0 Z " fill="#BF6365" transform="translate(53,22)"/>
<path d="M0 0 C0.66 0 1.32 0 2 0 C2.33 2.64 2.66 5.28 3 8 C1.68 8 0.36 8 -1 8 C-0.67 5.36 -0.34 2.72 0 0 Z " fill="#FC9572" transform="translate(49,16)"/>
<path d="M0 0 C0.99 0.33 1.98 0.66 3 1 C3 2.65 3 4.3 3 6 C0.36 5.01 -2.28 4.02 -5 3 C-5 2.67 -5 2.34 -5 2 C-3.35 2 -1.7 2 0 2 C0 1.34 0 0.68 0 0 Z " fill="#F6C99D" transform="translate(76,12)"/>
<path d="M0 0 C3.93774177 -0.36630156 5.56539771 -0.30233203 8.875 2 C9.926875 2.99 9.926875 2.99 11 4 C6.94393835 3.53199289 3.53411321 3.12046792 0 1 C0 0.67 0 0.34 0 0 Z " fill="#9A354D" transform="translate(23,79)"/>
<path d="M0 0 C2.3125 -0.25 2.3125 -0.25 5 0 C6.8125 2 6.8125 2 8 4 C5.69 3.67 3.38 3.34 1 3 C0.67 2.01 0.34 1.02 0 0 Z " fill="#FF834D" transform="translate(35,77)"/>
<path d="M0 0 C0.33 0 0.66 0 1 0 C1.36923077 5.53846154 1.36923077 5.53846154 -0.5 7.875 C-1.2425 8.431875 -1.2425 8.431875 -2 9 C-2.25 3.375 -2.25 3.375 0 0 Z " fill="#A22138" transform="translate(85,61)"/>
<path d="M0 0 C1.20628008 2.33214148 2.1654738 4.49642139 3 7 C2.34 7.66 1.68 8.32 1 9 C-0.65 7.02 -2.3 5.04 -4 3 C-2.68 3.33 -1.36 3.66 0 4 C0 2.68 0 1.36 0 0 Z " fill="#CB5D64" transform="translate(30,26)"/>
<path d="M0 0 C1.98 0 3.96 0 6 0 C5.67 1.98 5.34 3.96 5 6 C3.2925002 4.71937515 1.62626404 3.38232443 0 2 C0 1.34 0 0.68 0 0 Z " fill="#FC9874" transform="translate(55,18)"/>
<path d="M0 0 C1.32 0.66 2.64 1.32 4 2 C2.02 3.32 0.04 4.64 -2 6 C-2.66 5.34 -3.32 4.68 -4 4 C-2.68 2.68 -1.36 1.36 0 0 Z " fill="#FDF5DF" transform="translate(16,12)"/>
<path d="M0 0 C3.96 0 7.92 0 12 0 C12 0.33 12 0.66 12 1 C11.09507813 1.09087891 11.09507813 1.09087891 10.171875 1.18359375 C8.97304688 1.30927734 8.97304688 1.30927734 7.75 1.4375 C6.96109375 1.51871094 6.1721875 1.59992187 5.359375 1.68359375 C3.17635361 1.97634993 1.1226818 2.42064419 -1 3 C-0.67 2.01 -0.34 1.02 0 0 Z " fill="#FAE2B9" transform="translate(53,10)"/>
<path d="M0 0 C0 0.66 0 1.32 0 2 C-1.32 2 -2.64 2 -4 2 C-4 2.66 -4 3.32 -4 4 C-5.32 3.67 -6.64 3.34 -8 3 C-5.53387212 -0.1151089 -3.89156016 -0.31553191 0 0 Z " fill="#FF834D" transform="translate(65,77)"/>
<path d="M0 0 C3.66871014 2.44580676 5.06212134 5.12424268 7 9 C3.64564078 7.61198929 1.88709697 6.11371 0 3 C0 2.01 0 1.02 0 0 Z " fill="#A9475B" transform="translate(14,70)"/>
<path d="M0 0 C3 1 3 1 5 4 C5.125 7.1875 5.125 7.1875 5 10 C0 2.5 0 2.5 0 0 Z " fill="#E27D78" transform="translate(87,28)"/>
<path d="M0 0 C3.96 0 7.92 0 12 0 C12.33 0.99 12.66 1.98 13 3 C8.71 2.34 4.42 1.68 0 1 C0 0.67 0 0.34 0 0 Z " fill="#FAE2BA" transform="translate(35,10)"/>
</svg>
