<?xml version="1.0" encoding="UTF-8"?>
<svg version="1.1" xmlns="http://www.w3.org/2000/svg" width="100" height="100">
<path d="M0 0 C1.13459656 -0.00788544 1.13459656 -0.00788544 2.29211426 -0.01593018 C4.79391086 -0.02914054 7.29507186 -0.02038873 9.796875 -0.01025391 C11.53418093 -0.01227435 13.27148604 -0.01518554 15.00878906 -0.01895142 C18.65047274 -0.02337616 22.29193572 -0.01693894 25.93359375 -0.00292969 C30.60460984 0.01416237 35.27510884 0.00432198 39.94610596 -0.01364708 C43.53373113 -0.0244809 47.12123345 -0.02104044 50.7088623 -0.0132637 C52.43127503 -0.01126058 54.15369887 -0.01372491 55.87609863 -0.02070236 C58.28228355 -0.02831036 60.6876278 -0.01672253 63.09375 0 C64.16453796 -0.00910904 64.16453796 -0.00910904 65.25695801 -0.0184021 C67.96590097 0.01652625 70.08531177 0.13656231 72.48843384 1.44662476 C74.13434576 4.46581463 73.96356943 7.48979647 73.93505859 10.84130859 C73.94031555 11.5977063 73.94557251 12.354104 73.95098877 13.13342285 C73.96419914 15.63521945 73.95544732 18.13638045 73.9453125 20.63818359 C73.94733294 22.37548953 73.95024414 24.11279463 73.95401001 25.85009766 C73.95843476 29.49178133 73.95199754 33.13324431 73.93798828 36.77490234 C73.92089622 41.44591844 73.93073661 46.11641743 73.94870567 50.78741455 C73.95953949 54.37503973 73.95609904 57.96254205 73.9483223 61.5501709 C73.94631917 63.27258363 73.9487835 64.99500747 73.95576096 66.71740723 C73.96336895 69.12359215 73.95178112 71.52893639 73.93505859 73.93505859 C73.94113129 74.64891724 73.94720398 75.36277588 73.95346069 76.0982666 C73.91853234 78.80720957 73.79849628 80.92662037 72.48843384 83.32974243 C69.46924396 84.97565436 66.44526212 84.80487802 63.09375 84.77636719 C62.33735229 84.78162415 61.58095459 84.7868811 60.80163574 84.79229736 C58.29983914 84.80550773 55.79867814 84.79675592 53.296875 84.78662109 C51.55956907 84.78864154 49.82226396 84.79155273 48.08496094 84.7953186 C44.44327726 84.79974335 40.80181428 84.79330613 37.16015625 84.77929688 C32.48914016 84.76220481 27.81864116 84.7720452 23.14764404 84.79001427 C19.56001887 84.80084809 15.97251655 84.79740763 12.3848877 84.78963089 C10.66247497 84.78762777 8.94005113 84.79009209 7.21765137 84.79706955 C4.81146645 84.80467755 2.4061222 84.79308972 0 84.77636719 C-0.71385864 84.78243988 -1.42771729 84.78851257 -2.16320801 84.79476929 C-4.87215097 84.75984094 -6.99156177 84.63980487 -9.39468384 83.32974243 C-11.04059576 80.31055255 -10.86981943 77.28657072 -10.84130859 73.93505859 C-10.84656555 73.17866089 -10.85182251 72.42226318 -10.85723877 71.64294434 C-10.87044914 69.14114774 -10.86169732 66.63998673 -10.8515625 64.13818359 C-10.85358294 62.40087766 -10.85649414 60.66357256 -10.86026001 58.92626953 C-10.86468476 55.28458586 -10.85824754 51.64312288 -10.84423828 48.00146484 C-10.82714622 43.33044875 -10.83698661 38.65994975 -10.85495567 33.98895264 C-10.86578949 30.40132746 -10.86234904 26.81382514 -10.8545723 23.22619629 C-10.85256917 21.50378356 -10.8550335 19.78135972 -10.86201096 18.05895996 C-10.86961895 15.65277504 -10.85803112 13.2474308 -10.84130859 10.84130859 C-10.84738129 10.12744995 -10.85345398 9.41359131 -10.85971069 8.67810059 C-10.82478234 5.96915762 -10.70474628 3.84974682 -9.39468384 1.44662476 C-6.37549396 -0.19928717 -3.35151212 -0.02851083 0 0 Z " fill="#F297C5" transform="translate(18.453125,7.61181640625)"/>
<path d="M0 0 C1.32863884 0.67597415 2.6608194 1.34515838 4 2 C4.47050781 1.65066406 4.94101562 1.30132812 5.42578125 0.94140625 C6.04839844 0.48636719 6.67101563 0.03132813 7.3125 -0.4375 C7.92738281 -0.88996094 8.54226562 -1.34242187 9.17578125 -1.80859375 C13.47118626 -4.61394392 18.05766434 -4.56817402 23 -4 C28.79863777 -2.21509236 33.92149129 0.16831438 36.8984375 5.65625 C40.24067868 13.62856841 40.59646113 24.55104581 38.16796875 32.83984375 C36.84246166 35.5851824 35.78568649 37.60715675 33 39 C31.875 33.25 31.875 33.25 33 31 C33.07065617 28.95944995 33.08421976 26.91665743 33.0625 24.875 C33.05347656 23.77929688 33.04445313 22.68359375 33.03515625 21.5546875 C33.02355469 20.71164063 33.01195313 19.86859375 33 19 C31.7625 20.11375 31.7625 20.11375 30.5 21.25 C21.81673434 28.47579081 13.19923065 29.21284074 2.25 29.3125 C1.20328125 29.34150391 0.1565625 29.37050781 -0.921875 29.40039062 C-10.23087784 29.47602627 -16.8514565 27.20197242 -24.0625 21.25 C-24.81660156 20.63640625 -25.57070313 20.0228125 -26.34765625 19.390625 C-26.89292969 18.93171875 -27.43820313 18.4728125 -28 18 C-27.88137837 24.14358313 -27.88137837 24.14358313 -25 29.3125 C-24.34 29.869375 -23.68 30.42625 -23 31 C-21.36145219 34.65522203 -22.33516569 38.15873507 -23 42 C-27.45588832 40.51470389 -29.76642609 36.9357399 -32 33 C-34.72632151 25.43064773 -34.10819018 13.25543112 -31.11328125 5.83203125 C-28.55548025 1.62287803 -24.84907715 -0.90054872 -20.6875 -3.375 C-12.75551277 -5.21964819 -6.89534337 -4.12516175 0 0 Z " fill="#EE72C0" transform="translate(47,20)"/>
<path d="M0 0 C2.73420811 1.26778453 4.44097017 2.39085992 6.75 4.4375 C13.71246576 10.30102521 21.22337716 10.47248553 29.9375 10.375 C30.97068359 10.38660156 32.00386719 10.39820313 33.06835938 10.41015625 C41.27189527 10.37898385 48.46826475 9.08570368 55.375 4.4375 C56.00148437 4.02371094 56.62796875 3.60992187 57.2734375 3.18359375 C57.84320313 2.79300781 58.41296875 2.40242188 59 2 C59.99 1.34 60.98 0.68 62 0 C62.0270043 1.45823212 62.04639787 2.91660675 62.0625 4.375 C62.07410156 5.18710937 62.08570313 5.99921875 62.09765625 6.8359375 C62 9 62 9 61 11 C60.34 11 59.68 11 59 11 C59.1546875 12.5778125 59.1546875 12.5778125 59.3125 14.1875 C58.91082934 19.08788204 57.69195078 19.84645871 54 23 C52.8505259 24.20487044 51.70509476 25.41360383 50.5625 26.625 C46.81910189 30.33982256 42.88182327 33.77554007 38.8125 37.125 C37.92123413 37.88997803 37.92123413 37.88997803 37.01196289 38.67041016 C35.26953125 40.0703125 35.26953125 40.0703125 32 42 C27.78972709 41.30455314 25.23823071 38.67594837 22.1875 35.8125 C21.32253906 35.01070312 20.45757812 34.20890625 19.56640625 33.3828125 C18.71949219 32.59648438 17.87257813 31.81015625 17 31 C15.54686376 29.7232273 14.08903063 28.45176571 12.625 27.1875 C11.66787109 26.34445313 11.66787109 26.34445313 10.69140625 25.484375 C9.32769392 24.28758358 7.94758253 23.10949291 6.5625 21.9375 C4.51099824 19.39363782 4.52146466 17.19397103 4 14 C3.319375 13.236875 2.63875 12.47375 1.9375 11.6875 C-0.81621364 7.86783269 -0.35778964 4.56181795 0 0 Z " fill="#D42586" transform="translate(19,38)"/>
<path d="M0 0 C1.32863884 0.67597415 2.6608194 1.34515838 4 2 C4.47050781 1.65066406 4.94101562 1.30132812 5.42578125 0.94140625 C6.04839844 0.48636719 6.67101563 0.03132813 7.3125 -0.4375 C7.92738281 -0.88996094 8.54226562 -1.34242187 9.17578125 -1.80859375 C13.47118626 -4.61394392 18.05766434 -4.56817402 23 -4 C28.79863777 -2.21509236 33.92149129 0.16831438 36.8984375 5.65625 C40.24067868 13.62856841 40.59646113 24.55104581 38.16796875 32.83984375 C36.84246166 35.5851824 35.78568649 37.60715675 33 39 C31.84743478 34.15922606 32.42523275 31.63681468 34 27 C34.46546487 23.34205323 34.75127594 19.67849796 35 16 C34.34 16 33.68 16 33 16 C32.505 15.01 32.505 15.01 32 14 C31.01 14.66 30.02 15.32 29 16 C29.33 13.03 29.66 10.06 30 7 C27.525 6.01 27.525 6.01 25 5 C25 4.34 25 3.68 25 3 C17.60070257 2.3549998 17.60070257 2.3549998 10.9375 5 C9.9784375 5.99 9.9784375 5.99 9 7 C8.34 7 7.68 7 7 7 C6.34 8.32 5.68 9.64 5 11 C-0.07284516 10.55239601 -2.28777082 8.22802538 -6 5 C-10.33682842 3.55439053 -14.65513694 2.85471952 -18.85546875 4.90625 C-20.78630829 6.24564447 -20.78630829 6.24564447 -23 9 C-23.50265692 12.21160696 -23.50265692 12.21160696 -23 15 C-24.875 16.0625 -24.875 16.0625 -27 17 C-27.66 16.67 -28.32 16.34 -29 16 C-28.86337107 23.34070004 -28.24119105 28.81535934 -24.05859375 34.96484375 C-22.7660148 37.4498387 -22.81263349 39.23754498 -23 42 C-27.45588832 40.51470389 -29.76642609 36.9357399 -32 33 C-34.72632151 25.43064773 -34.10819018 13.25543112 -31.11328125 5.83203125 C-28.55548025 1.62287803 -24.84907715 -0.90054872 -20.6875 -3.375 C-12.75551277 -5.21964819 -6.89534337 -4.12516175 0 0 Z " fill="#F9B7E8" transform="translate(47,20)"/>
<path d="M0 0 C0.33 0 0.66 0 1 0 C1.75076616 7.31294901 2.18399376 14.56905535 2.31640625 21.91796875 C2.33718735 22.90122635 2.35796844 23.88448395 2.37937927 24.89753723 C2.44401141 27.99413041 2.50335195 31.09079772 2.5625 34.1875 C2.60576764 36.30534577 2.64938434 38.42318443 2.69335938 40.54101562 C2.79960226 45.69393726 2.90110435 50.84693234 3 56 C12.89189376 56.02312428 22.78378114 56.04091552 32.67569637 56.05181217 C37.2684264 56.05704082 41.861138 56.06413812 46.45385742 56.07543945 C50.88233688 56.086269 55.31079856 56.09227698 59.73929024 56.09487724 C61.43265628 56.09673137 63.12602129 56.10035175 64.81937981 56.10573006 C67.18291232 56.1129414 69.54637045 56.1139909 71.90991211 56.11352539 C72.61697296 56.11712067 73.32403381 56.12071594 74.05252075 56.12442017 C77.30638048 56.39649445 77.30638048 56.39649445 80 55 C80.15971977 52.62661361 80.2592433 50.27881728 80.31640625 47.90234375 C80.3475779 46.83905602 80.3475779 46.83905602 80.37937927 45.75428772 C80.44494598 43.48212695 80.5037923 41.20984736 80.5625 38.9375 C80.60567849 37.40037817 80.64929255 35.8632685 80.69335938 34.32617188 C80.80063449 30.5509041 80.90188137 26.7755164 81 23 C81.33 23 81.66 23 82 23 C83.26861952 29.73525103 83.22228915 36.3533114 83.25 43.1875 C83.270625 44.47076172 83.29125 45.75402344 83.3125 47.07617188 C83.32023437 48.91598633 83.32023437 48.91598633 83.328125 50.79296875 C83.3374707 51.9121167 83.34681641 53.03126465 83.35644531 54.18432617 C83 57 83 57 81.94354248 58.65171814 C78.99628804 60.69629897 76.00755657 60.41762311 72.546875 60.38818359 C71.41227844 60.39606903 71.41227844 60.39606903 70.25476074 60.40411377 C67.75296414 60.41732414 65.25180314 60.40857232 62.75 60.3984375 C61.01269407 60.40045794 59.27538896 60.40336914 57.53808594 60.40713501 C53.89640226 60.41155976 50.25493928 60.40512254 46.61328125 60.39111328 C41.94226516 60.37402122 37.27176616 60.38386161 32.60076904 60.40183067 C29.01314387 60.41266449 25.42564155 60.40922404 21.8380127 60.4014473 C20.11559997 60.39944417 18.39317613 60.4019085 16.67077637 60.40888596 C14.26459145 60.41649395 11.8592472 60.40490612 9.453125 60.38818359 C8.38233704 60.39729263 8.38233704 60.39729263 7.28991699 60.40658569 C4.5112032 60.37075774 2.46073582 60.28036548 0.05645752 58.81732178 C-1.40811294 56.29796274 -1.36721284 54.44437011 -1.35644531 51.53466797 C-1.35944641 50.41696014 -1.36244751 49.29925232 -1.36553955 48.14767456 C-1.35319275 46.94136383 -1.34084595 45.7350531 -1.328125 44.4921875 C-1.32531525 42.6376445 -1.32531525 42.6376445 -1.32244873 40.74563599 C-1.31399813 37.46117959 -1.29200742 34.1771606 -1.26428223 30.89282227 C-1.2405823 27.54444795 -1.23929377 24.19610952 -1.234375 20.84765625 C-1.22520639 18.31249518 -1.21483107 15.77733812 -1.203125 13.2421875 C-1.19887512 12.03182831 -1.19462524 10.82146912 -1.19024658 9.57443237 C-1.18063904 8.46302887 -1.17103149 7.35162537 -1.16113281 6.20654297 C-1.15430481 5.22297821 -1.14747681 4.23941345 -1.14044189 3.2260437 C-1 1 -1 1 0 0 Z " fill="#821B1F" transform="translate(9,32)"/>
<path d="M0 0 C0.33 0 0.66 0 1 0 C1 5.61 1 11.22 1 17 C4.465 16.505 4.465 16.505 8 16 C10.9094641 17.74567846 12.54933573 19.04233843 14 22.125 C15.41677764 24.78145807 17.21507688 25.12055059 20 26 C20 26.33 20 26.66 20 27 C18.02 27.33 16.04 27.66 14 28 C31.16 28.33 48.32 28.66 66 29 C65.505 27.02 65.505 27.02 65 25 C66.15144349 20.01041156 69.01731102 17.90404405 73 15 C73.66 15 74.32 15 75 15 C75 15.66 75 16.32 75 17 C75.66 17 76.32 17 77 17 C77 11.72 77 6.44 77 1 C77.33 1 77.66 1 78 1 C78.02465881 4.96930989 78.04284023 8.93859034 78.05493164 12.90795898 C78.05997057 14.25920386 78.06680177 15.61044326 78.07543945 16.96166992 C78.08752419 18.90020434 78.09269828 20.838778 78.09765625 22.77734375 C78.10289307 23.94515381 78.10812988 25.11296387 78.11352539 26.31616211 C78 29 78 29 77 30 C74.63238425 30.10025695 72.29392927 30.13618935 69.92578125 30.12939453 C69.18597015 30.13114685 68.44615906 30.13289917 67.68392944 30.13470459 C65.22676277 30.1391231 62.76966747 30.13618513 60.3125 30.1328125 C58.61238593 30.13348554 56.91227195 30.13445557 55.2121582 30.13571167 C51.64435919 30.13718864 48.07658517 30.13503411 44.50878906 30.13037109 C39.92511506 30.1246738 35.34149961 30.12795281 30.75782776 30.13394356 C27.24580439 30.13754919 23.73379502 30.13641057 20.22177124 30.13381577 C18.53119907 30.1331465 16.84062564 30.13397489 15.15005493 30.13629532 C12.79140843 30.13882189 10.43285805 30.13498121 8.07421875 30.12939453 C7.36872894 30.13141876 6.66323914 30.13344299 5.93637085 30.13552856 C1.11426271 30.11426271 1.11426271 30.11426271 0 29 C-0.08775605 26.85441173 -0.10695219 24.70595579 -0.09765625 22.55859375 C-0.09443359 21.25341797 -0.09121094 19.94824219 -0.08789062 18.60351562 C-0.07953401 17.2148431 -0.07106905 15.82617123 -0.0625 14.4375 C-0.05748666 13.04492344 -0.05292347 11.65234519 -0.04882812 10.25976562 C-0.03699434 6.8398013 -0.0205088 3.41992156 0 0 Z " fill="#FAAFE0" transform="translate(11,59)"/>
<path d="M0 0 C1.07618088 0.00371613 1.07618088 0.00371613 2.17410278 0.00750732 C2.93035446 0.00239639 3.68660614 -0.00271454 4.46577454 -0.00798035 C6.97287853 -0.02191329 9.47970875 -0.0209168 11.98684692 -0.01861572 C13.7255819 -0.02250071 15.46431592 -0.02683497 17.20304871 -0.03160095 C20.8506579 -0.03907118 24.49817031 -0.03876616 28.14578247 -0.0335083 C32.8246494 -0.02771347 37.5031205 -0.04464096 42.18192196 -0.06785297 C45.77382226 -0.08257145 49.36562684 -0.08346458 52.95755196 -0.08034325 C54.68276313 -0.08085744 56.40797952 -0.08611351 58.13316154 -0.09615517 C60.54420702 -0.10846561 62.95447637 -0.10176083 65.36550903 -0.09014893 C66.08093872 -0.09779266 66.79636841 -0.1054364 67.53347778 -0.11331177 C70.4056916 -0.0826723 72.38273213 -0.01817435 74.81034851 1.59571838 C76.57818224 4.50676127 75.58716949 7.22739559 75.02200317 10.46966553 C74.70296021 12.37812256 74.70296021 12.37812256 74.37747192 14.32513428 C74.19829224 15.30095459 74.01911255 16.2767749 73.83450317 17.28216553 C71.83450317 16.28216553 71.83450317 16.28216553 71.01809692 14.28607178 C70.77188599 13.48040771 70.52567505 12.67474365 70.27200317 11.84466553 C69.23533311 8.49063701 69.23533311 8.49063701 67.83450317 5.28216553 C59.02025626 5.21269586 50.20610339 5.15936987 41.39164257 5.12672901 C37.29884875 5.11106407 33.20624204 5.08981094 29.11355591 5.05584717 C25.16485565 5.02328285 21.21633552 5.00531876 17.26751137 4.9975338 C15.75998409 4.99198498 14.25246682 4.98114958 12.7450161 4.96497536 C10.63554859 4.94323923 8.52682808 4.94019688 6.41726685 4.94158936 C5.21591599 4.93492752 4.01456512 4.92826569 2.77680969 4.92140198 C-0.46504229 5.31889355 -1.16059249 5.83923901 -3.16549683 8.28216553 C-3.82549683 8.28216553 -4.48549683 8.28216553 -5.16549683 8.28216553 C-4.83549683 6.30216553 -4.50549683 4.32216553 -4.16549683 2.28216553 C-5.15549683 2.28216553 -6.14549683 2.28216553 -7.16549683 2.28216553 C-4.71234005 -0.17099125 -3.34882944 0.03623823 0 0 Z " fill="#FBAFD3" transform="translate(16.165496826171875,7.71783447265625)"/>
<path d="M0 0 C2.6478637 0.00320505 5.29465242 -0.02057925 7.94238281 -0.0456543 C9.65852727 -0.04792417 11.37467466 -0.04863224 13.09082031 -0.04760742 C13.86598999 -0.05681717 14.64115967 -0.06602692 15.43981934 -0.07551575 C21.64156866 -0.02368366 28.57330857 0.76691209 33.12207031 5.31567383 C33.53613281 7.69848633 33.53613281 7.69848633 33.74707031 10.44067383 C33.85921875 11.80579102 33.85921875 11.80579102 33.97363281 13.19848633 C34.02261719 13.8971582 34.07160156 14.59583008 34.12207031 15.31567383 C33.03925781 14.20192383 33.03925781 14.20192383 31.93457031 13.06567383 C26.29193952 7.54843483 21.78747698 4.35512778 13.74707031 3.94067383 C8.78787971 4.04102844 5.32290241 5.85094579 1.12207031 8.31567383 C-0.20704683 8.99070705 -1.53931981 9.65966634 -2.87792969 10.31567383 C-3.59980469 9.69692383 -4.32167969 9.07817383 -5.06542969 8.44067383 C-10.73357791 4.15807295 -15.90162929 3.47425744 -22.87792969 4.31567383 C-28.63993999 6.01277387 -32.13315311 9.23525516 -35.74902344 13.92504883 C-36.1215625 14.38395508 -36.49410156 14.84286133 -36.87792969 15.31567383 C-37.20792969 15.31567383 -37.53792969 15.31567383 -37.87792969 15.31567383 C-37.95914892 13.71234592 -38.01722103 12.10783356 -38.06542969 10.50317383 C-38.10023437 9.60985352 -38.13503906 8.7165332 -38.17089844 7.79614258 C-37.87792969 5.31567383 -37.87792969 5.31567383 -36.82250977 3.73364258 C-33.9445582 1.63506848 -30.92123741 1.48386537 -27.47167969 1.14770508 C-26.35231018 1.02864555 -26.35231018 1.02864555 -25.21032715 0.90718079 C-16.81872312 0.09306107 -8.42532958 -0.02132395 0 0 Z " fill="#EC6FA9" transform="translate(51.8779296875,12.684326171875)"/>
<path d="M0 0 C1.12556187 3.3766856 0.6876151 5.56192451 0 9 C0.23203125 9.62519531 0.4640625 10.25039063 0.703125 10.89453125 C1 13 1 13 -0.484375 15.04296875 C-6.42765658 20.66859217 -12.58932382 25.91443565 -19 31 C-20.89588771 32.52076554 -22.79172412 34.04159505 -24.6875 35.5625 C-26.12449468 36.70896699 -27.56179506 37.8550516 -29 39 C-36.91276557 35.32748324 -43.31302799 28.9109846 -49.69140625 23.08984375 C-52.39707498 20.64054972 -55.17252604 18.30662349 -58 16 C-57.34 15.67 -56.68 15.34 -56 15 C-55.34786708 12.97536745 -55.34786708 12.97536745 -55 11 C-54.47792969 11.54527344 -53.95585938 12.09054688 -53.41796875 12.65234375 C-47.63209871 18.580074 -41.51585245 23.88992989 -35 29 C-34.33613281 29.62132813 -33.67226563 30.24265625 -32.98828125 30.8828125 C-31.0351722 32.26027531 -31.0351722 32.26027531 -28.7109375 31.5703125 C-24.96979933 29.40325552 -21.85539569 26.73441029 -18.625 23.875 C-17.95960205 23.29403564 -17.2942041 22.71307129 -16.60864258 22.11450195 C-12.45512116 18.4385258 -8.63353479 14.66473589 -5.19921875 10.29296875 C-4.80347656 9.86628906 -4.40773437 9.43960938 -4 9 C-3.34 9 -2.68 9 -2 9 C-2 6.69 -2 4.38 -2 2 C-1.34 2 -0.68 2 0 2 C0 1.34 0 0.68 0 0 Z " fill="#EE66CD" transform="translate(80,47)"/>
<path d="M0 0 C0.33 0 0.66 0 1 0 C1.10957031 0.71285156 1.21914062 1.42570312 1.33203125 2.16015625 C3.67280932 16.29997824 10.07544918 25.0650807 21 34 C22.00160156 34.84175781 23.00320312 35.68351562 24.03515625 36.55078125 C27.0099325 39.05060461 29.99105883 41.54126522 33 44 C33.67546875 44.63421875 34.3509375 45.2684375 35.046875 45.921875 C36.9838486 47.26588859 36.9838486 47.26588859 39.33984375 46.52734375 C42.75151917 44.56851102 45.63094185 42.15934947 48.5625 39.5625 C49.1694873 39.03188965 49.77647461 38.5012793 50.40185547 37.95458984 C52.27486695 36.31076748 54.13782958 34.65608431 56 33 C56.86842529 32.23647217 56.86842529 32.23647217 57.75439453 31.45751953 C59.38564034 30.02173993 61.00708078 28.57576726 62.625 27.125 C64.03652344 25.86042969 64.03652344 25.86042969 65.4765625 24.5703125 C68.14529138 21.85200971 69.9980467 19.22380273 72 16 C72.495 16.99 72.495 16.99 73 18 C72.21625 18.86625 71.4325 19.7325 70.625 20.625 C66.69473759 26.00266783 66.5990824 32.5531581 66 39 C64.31583984 39.20302734 64.31583984 39.20302734 62.59765625 39.41015625 C54.27733548 40.55842741 47.99497005 41.43486516 41.859375 47.671875 C40 49 40 49 37.515625 48.91796875 C34.67629204 47.88187675 33.19363995 46.62332191 31 44.5625 C25.54320218 40.0567177 19.88980167 39.52179333 13 39 C12.93683594 38.29875 12.87367187 37.5975 12.80859375 36.875 C11.94519278 30.18591463 10.42385906 26.80647661 5.75390625 22.01953125 C0.67860718 16.17559 -0.46457543 9.35621526 -0.140625 1.8359375 C-0.09421875 1.23007812 -0.0478125 0.62421875 0 0 Z " fill="#8C213E" transform="translate(12,38)"/>
<path d="M0 0 C0.33 0 0.66 0 1 0 C1 15.84 1 31.68 1 48 C0.67 48 0.34 48 0 48 C-0.33 56.58 -0.66 65.16 -1 74 C-1.33 74 -1.66 74 -2 74 C-2.33 70.37 -2.66 66.74 -3 63 C-3.66 63 -4.32 63 -5 63 C-5 62.34 -5 61.68 -5 61 C-6.485 61.495 -6.485 61.495 -8 62 C-7.835 61.00484375 -7.67 60.0096875 -7.5 58.984375 C-6.93817844 55.05558058 -6.93622715 51.2198597 -7 47.25 C-7.11026616 40.33079848 -7.11026616 40.33079848 -6 37 C-5.87744832 34.1756113 -5.81487131 31.38673238 -5.8125 28.5625 C-5.80025391 27.79873047 -5.78800781 27.03496094 -5.77539062 26.24804688 C-5.76495194 22.25003229 -5.89229786 19.50714809 -8 16 C-7.625 13.75 -7.625 13.75 -7 12 C-6.34 13.32 -5.68 14.64 -5 16 C-4.67 13.03 -4.34 10.06 -4 7 C-3.34 8.32 -2.68 9.64 -2 11 C-1.34 7.37 -0.68 3.74 0 0 Z " fill="#E39EBC" transform="translate(91,13)"/>
<path d="M0 0 C0 2.62113708 -0.31292445 4.50935112 -1 7 C-0.31447052 6.35067505 0.37105896 5.7013501 1.07736206 5.03234863 C4.61764198 2.57050314 6.48589389 2.49387845 10.76220703 2.48242188 C11.42136108 2.4754126 12.08051514 2.46840332 12.75964355 2.46118164 C14.92613545 2.4436563 17.09130867 2.45520042 19.2578125 2.46875 C20.76805877 2.46605412 22.27830336 2.46217089 23.7885437 2.45715332 C26.9475768 2.4512663 30.10615645 2.45979734 33.26513672 2.47851562 C37.3152465 2.50134463 41.36429829 2.48815325 45.41436958 2.46422577 C48.53022249 2.44977918 51.64582399 2.45436769 54.76168442 2.46473694 C56.25522868 2.46740539 57.74879576 2.46413025 59.24231339 2.45481873 C61.32768621 2.44466661 63.41133761 2.46012939 65.49658203 2.48242188 C66.68285187 2.48560425 67.8691217 2.48878662 69.09133911 2.49206543 C72 3 72 3 73.88815308 4.81652832 C75.51167041 8.00483064 75.28603842 10.70261678 75.1875 14.25 C75.14689453 16.14492188 75.14689453 16.14492188 75.10546875 18.078125 C75.07066406 19.04234375 75.03585938 20.0065625 75 21 C72.08922107 18.08922107 72.5752462 15.2942347 72.34375 11.3125 C72.20621321 8.80924417 72.20621321 8.80924417 70 7 C64.25240115 5.21383402 59.05672796 4.70329641 53.06640625 4.734375 C51.8121006 4.73150482 51.8121006 4.73150482 50.53245544 4.72857666 C48.76846006 4.72722276 47.00445444 4.73086331 45.24047852 4.73925781 C42.60083343 4.74984623 39.96188813 4.73939897 37.32226562 4.7265625 C28.94742821 4.71910503 20.66750355 4.95760082 12.33984375 5.890625 C11.62510391 5.96810974 10.91036407 6.04559448 10.17396545 6.12542725 C6.15323515 6.58716447 6.15323515 6.58716447 3 9 C2.71917656 11.10749466 2.71917656 11.10749466 2.8125 13.4375 C2.81894531 14.21996094 2.82539063 15.00242187 2.83203125 15.80859375 C2.92444331 18.17799677 2.92444331 18.17799677 4 21 C3.67 21.99 3.34 22.98 3 24 C2.77548542 26.22574335 2.59217122 28.45581519 2.4375 30.6875 C2.35371094 31.86699219 2.26992187 33.04648437 2.18359375 34.26171875 C2.12300781 35.16535156 2.06242188 36.06898437 2 37 C1.67 37 1.34 37 1 37 C0.67 41.29 0.34 45.58 0 50 C-0.33 50 -0.66 50 -1 50 C-1.66 41.42 -2.32 32.84 -3 24 C-3.33 24 -3.66 24 -4 24 C-4 16.74 -4 9.48 -4 2 C-2.68 1.34 -1.36 0.68 0 0 Z " fill="#F58CBF" transform="translate(12,9)"/>
<path d="M0 0 C0.33 0 0.66 0 1 0 C1.47891456 16.20327588 1.47891456 16.20327588 -3.4375 21.75 C-4.283125 22.4925 -5.12875 23.235 -6 24 C-6.57621094 24.7734375 -6.57621094 24.7734375 -7.1640625 25.5625 C-10.06072733 27.83052693 -13.38806215 27.88139231 -16.9375 28.25 C-17.65357422 28.34023437 -18.36964844 28.43046875 -19.10742188 28.5234375 C-22.61136963 28.92611546 -25.6462597 29.22591029 -29 28 C-24.20875972 23.26233589 -20.76299937 22.15441013 -14.125 21.6875 C-13.34125 21.61466797 -12.5575 21.54183594 -11.75 21.46679688 C-9.83502103 21.29164636 -7.91764217 21.14307575 -6 21 C-5.98582031 20.07058594 -5.97164062 19.14117187 -5.95703125 18.18359375 C-5.66222777 10.54260633 -5.36460362 5.6328338 0 0 Z " fill="#F089CB" transform="translate(84,56)"/>
<path d="M0 0 C1 2 1 2 0 8 C-17.49 8 -34.98 8 -53 8 C-52.67 7.34 -52.34 6.68 -52 6 C-49.6875 5.4375 -49.6875 5.4375 -47 5 C-46.41734375 4.81824219 -45.8346875 4.63648437 -45.234375 4.44921875 C-42.25090336 3.84939491 -39.59068926 4.11594103 -36.5625 4.375 C-35.45003906 4.46523437 -34.33757813 4.55546875 -33.19140625 4.6484375 C-30 5 -30 5 -27.52734375 5.6640625 C-24.00827414 6.13182137 -21.38263867 5.0265542 -18 4 C-14.52545125 3.44393821 -11.02272107 3.13003055 -7.52148438 2.7890625 C-3.3130986 2.43362864 -3.3130986 2.43362864 0 0 Z " fill="#F097C1" transform="translate(77,80)"/>
<path d="M0 0 C0.66 0.33 1.32 0.66 2 1 C1.34 1.721875 0.68 2.44375 0 3.1875 C-2.1535853 6.21597933 -2.41176754 7.39703406 -2 11 C-3.875 12.0625 -3.875 12.0625 -6 13 C-6.66 12.67 -7.32 12.34 -8 12 C-7.86337107 19.34070004 -7.24119105 24.81535934 -3.05859375 30.96484375 C-1.7660148 33.4498387 -1.81263349 35.23754498 -2 38 C-6.45588832 36.51470389 -8.76642609 32.9357399 -11 29 C-12.42396303 25.108424 -12.2207041 20.96910154 -12.25 16.875 C-12.270625 16.14667969 -12.29125 15.41835938 -12.3125 14.66796875 C-12.328125 12.5546875 -12.328125 12.5546875 -12 9 C-11.01 8.34 -10.02 7.68 -9 7 C-8.34 7.66 -7.68 8.32 -7 9 C-6.401875 8.071875 -5.80375 7.14375 -5.1875 6.1875 C-3.54727155 3.79745282 -2.1281083 1.91529747 0 0 Z " fill="#F8ACE6" transform="translate(26,24)"/>
<path d="M0 0 C1.05550552 0.00424484 2.11101105 0.00848969 3.19850159 0.01286316 C6.55056896 0.02957826 9.90202235 0.06721787 13.25390625 0.10546875 C15.53449649 0.12052482 17.81509621 0.13421161 20.09570312 0.14648438 C25.66947827 0.17945825 31.24289838 0.22958607 36.81640625 0.29296875 C36.81640625 0.62296875 36.81640625 0.95296875 36.81640625 1.29296875 C35.95917969 1.37933594 35.10195312 1.46570313 34.21875 1.5546875 C26.98372798 2.44377138 22.31487572 3.43385619 16.81640625 8.29296875 C14.84332205 7.32815665 12.91282236 6.35065001 11.02734375 5.22265625 C5.65997873 2.13927635 0.9506936 1.31772434 -5.18359375 2.29296875 C-10.18270505 4.00296144 -14.21707562 6.82226538 -18.18359375 10.29296875 C-18.18359375 7.98296875 -18.18359375 5.67296875 -18.18359375 3.29296875 C-12.04372436 0.04509397 -6.868042 -0.10489492 0 0 Z " fill="#E55795" transform="translate(34.18359375,14.70703125)"/>
<path d="M0 0 C0 0.99 0 1.98 0 3 C0.06532012 4.48342691 0.1391404 5.96649004 0.21875 7.44921875 C0.26386719 8.29677734 0.30898437 9.14433594 0.35546875 10.01757812 C0.40316406 10.89865234 0.45085938 11.77972656 0.5 12.6875 C0.54769531 13.58017578 0.59539063 14.47285156 0.64453125 15.39257812 C0.76231269 17.59509104 0.88082937 19.79756189 1 22 C1.99 20.68 2.98 19.36 4 18 C3.34 24.27 2.68 30.54 2 37 C1.67 37 1.34 37 1 37 C0.67 41.29 0.34 45.58 0 50 C-0.33 50 -0.66 50 -1 50 C-1.66 41.42 -2.32 32.84 -3 24 C-3.33 24 -3.66 24 -4 24 C-4 16.74 -4 9.48 -4 2 C-2.68 1.34 -1.36 0.68 0 0 Z " fill="#F3ACCE" transform="translate(12,9)"/>
<path d="M0 0 C0.33 0 0.66 0 1 0 C1.02465881 3.96930989 1.04284023 7.93859034 1.05493164 11.90795898 C1.05997057 13.25920386 1.06680177 14.61044326 1.07543945 15.96166992 C1.08752419 17.90020434 1.09269828 19.838778 1.09765625 21.77734375 C1.10289307 22.94515381 1.10812988 24.11296387 1.11352539 25.31616211 C1 28 1 28 0 29 C-6.23762376 29.57755776 -6.23762376 29.57755776 -9.0625 27.4375 C-10.48682119 23.73426492 -9.47737555 21.59708829 -8 18 C-6 15.5625 -6 15.5625 -4 14 C-3.34 14 -2.68 14 -2 14 C-2 14.66 -2 15.32 -2 16 C-1.34 16 -0.68 16 0 16 C0 10.72 0 5.44 0 0 Z " fill="#FBCEE7" transform="translate(88,60)"/>
<path d="M0 0 C0.33 0 0.66 0 1 0 C1 15.84 1 31.68 1 48 C0.67 48 0.34 48 0 48 C-0.33 56.58 -0.66 65.16 -1 74 C-1.33 74 -1.66 74 -2 74 C-2.0255578 67.241382 -2.04295331 60.48277668 -2.05493164 53.72412109 C-2.05993042 51.42952 -2.06673164 49.13492205 -2.07543945 46.84033203 C-2.0877017 43.5237551 -2.09327302 40.20722063 -2.09765625 36.890625 C-2.10281754 35.88074524 -2.10797882 34.87086548 -2.11329651 33.8303833 C-2.11376432 27.76000475 -1.80504885 21.79253849 -1.21531677 15.75018311 C-0.93545432 12.17557537 -0.968402 8.64019893 -1.0625 5.05859375 C-1 3 -1 3 0 0 Z " fill="#CD768D" transform="translate(91,13)"/>
<path d="M0 0 C0.33 0 0.66 0 1 0 C1.7696683 7.25678685 2.13923121 14.40388791 2.09765625 21.69921875 C2.0962413 22.6602803 2.09482635 23.62134186 2.09336853 24.61152649 C2.08783675 27.63688466 2.07529773 30.66216475 2.0625 33.6875 C2.05747616 35.75716038 2.05291481 37.82682193 2.04882812 39.89648438 C2.03788981 44.931019 2.02067362 49.96549633 2 55 C1.67 55 1.34 55 1 55 C0.67 50.71 0.34 46.42 0 42 C-0.33 42 -0.66 42 -1 42 C-1.02464638 36.17928378 -1.0428343 30.35859766 -1.05493164 24.5378418 C-1.05997267 22.55606559 -1.06680538 20.57429311 -1.07543945 18.5925293 C-1.08751515 15.75047891 -1.09323045 12.90847753 -1.09765625 10.06640625 C-1.10281754 9.17474258 -1.10797882 8.28307892 -1.11329651 7.36439514 C-1.11349177 5.24259399 -1.0621003 3.1208922 -1 1 C-0.67 0.67 -0.34 0.34 0 0 Z " fill="#A4434F" transform="translate(9,32)"/>
<path d="M0 0 C0.33 0 0.66 0 1 0 C1.10957031 0.71285156 1.21914062 1.42570312 1.33203125 2.16015625 C3.1912037 13.39076709 7.21540432 22.56603898 16.3125 29.8125 C18.91915886 31.93419907 19.66861953 33.05194325 21 36 C22.32 37.32 23.64 38.64 25 40 C21.04 39.67 17.08 39.34 13 39 C12.814375 37.35 12.62875 35.7 12.4375 34 C11.45991569 28.49317615 9.57972645 25.94119663 5.75390625 22.01953125 C0.67860718 16.17559 -0.46457543 9.35621526 -0.140625 1.8359375 C-0.09421875 1.23007812 -0.0478125 0.62421875 0 0 Z " fill="#CC2F6E" transform="translate(12,38)"/>
<path d="M0 0 C7.25 7.25 7.25 7.25 7.625 12.625 C7.69976563 13.62789062 7.77453125 14.63078125 7.8515625 15.6640625 C7.92503906 16.82035156 7.92503906 16.82035156 8 18 C8.88042969 18.01417969 9.76085938 18.02835938 10.66796875 18.04296875 C21.33549216 18.48103575 21.33549216 18.48103575 24.3125 21.5625 C24.869375 22.366875 25.42625 23.17125 26 24 C18.29746903 23.54226763 11.51439864 22.84823651 5.3828125 17.87890625 C2.55665132 14.46434758 1.8278695 11.44983201 1.1875 7.1875 C1.06697266 6.49462891 0.94644531 5.80175781 0.82226562 5.08789062 C0.53037084 3.39490087 0.26267369 1.69776895 0 0 Z " fill="#E151A5" transform="translate(17,59)"/>
<path d="M0 0 C7.19940132 6.10384025 14.37591799 12.26932357 21 19 C18.37890625 19.8203125 18.37890625 19.8203125 15 20 C12.65127594 18.34954525 10.911862 16.89267059 8.9375 14.875 C8.43412109 14.38773438 7.93074219 13.90046875 7.41210938 13.3984375 C5.922878 11.9496639 4.45943746 10.47872518 3 9 C2.04346221 8.04377696 1.08646563 7.08801253 0.12890625 6.1328125 C-0.57363281 5.42898437 -1.27617187 4.72515625 -2 4 C-1.34 4 -0.68 4 0 4 C0 2.68 0 1.36 0 0 Z " fill="#EF66CE" transform="translate(24,58)"/>
<path d="M0 0 C0.33 0 0.66 0 1 0 C1.14141393 10.05610192 0.72904559 19.97562315 0 30 C-0.66 30 -1.32 30 -2 30 C-2 29.34 -2 28.68 -2 28 C-2.99 28.33 -3.98 28.66 -5 29 C-4.7471977 25.85245255 -4.4693796 22.70756606 -4.1875 19.5625 C-4.11724609 18.68400391 -4.04699219 17.80550781 -3.97460938 16.90039062 C-3.42184003 10.90837097 -2.16042 5.616062 0 0 Z " fill="#F5ABCF" transform="translate(88,46)"/>
<path d="M0 0 C4.21878192 -0.19622241 7.17010894 0.19769832 11 2 C11.33 1.67 11.66 1.34 12 1 C14.33297433 0.95907063 16.66705225 0.95758277 19 1 C19 1.66 19 2.32 19 3 C17.25 4.5078125 17.25 4.5078125 15 6.125 C14.2575 6.66382812 13.515 7.20265625 12.75 7.7578125 C11.88375 8.37269531 11.88375 8.37269531 11 9 C8.25342589 7.68747786 5.74276346 6.24706499 3.25 4.5 C2.63640625 4.0771875 2.0228125 3.654375 1.390625 3.21875 C0.93171875 2.8165625 0.4728125 2.414375 0 2 C0 1.34 0 0.68 0 0 Z " fill="#F18BDA" transform="translate(40,77)"/>
<path d="M0 0 C0.12375 0.53625 0.2475 1.0725 0.375 1.625 C1.11954092 4.45425549 2.07484986 7.22454959 3 10 C-16.8 10 -36.6 10 -57 10 C-57 9.67 -57 9.34 -57 9 C-38.52 9 -20.04 9 -1 9 C-1.495 7.02 -1.495 7.02 -2 5 C-1.0625 2.25 -1.0625 2.25 0 0 Z " fill="#FDB0DA" transform="translate(78,79)"/>
<path d="M0 0 C0.33 0 0.66 0 1 0 C2.26861952 6.73525103 2.22228915 13.3533114 2.25 20.1875 C2.270625 21.47076172 2.29125 22.75402344 2.3125 24.07617188 C2.31765625 25.30271484 2.3228125 26.52925781 2.328125 27.79296875 C2.34214355 29.47169067 2.34214355 29.47169067 2.35644531 31.18432617 C2 34 2 34 0.60449219 35.88793945 C-1 37 -1 37 -3 37 C-2.51781006 35.9941687 -2.51781006 35.9941687 -2.02587891 34.96801758 C-0.78367046 31.37412704 -0.67679386 28.31254299 -0.5859375 24.51171875 C-0.56657135 23.80852005 -0.5472052 23.10532135 -0.5272522 22.3808136 C-0.46779817 20.14982981 -0.42120951 17.91879346 -0.375 15.6875 C-0.33678863 14.16859814 -0.29773508 12.64971722 -0.2578125 11.13085938 C-0.16212584 7.42076533 -0.07796928 3.71051349 0 0 Z " fill="#881E24" transform="translate(90,55)"/>
<path d="M0 0 C0.79792969 0.77988281 1.59585937 1.55976562 2.41796875 2.36328125 C6.33875102 5.63194399 10.3812165 6.32936967 15.3125 7.1875 C18.23519452 7.72534903 21.10360474 8.32249794 24 9 C24.33 9.66 24.66 10.32 25 11 C21.33145715 11.0606928 17.66868637 11.04361714 14 11 C12.86111328 11.02900391 12.86111328 11.02900391 11.69921875 11.05859375 C8.5156702 10.96586904 6.46826885 10.45623624 4.17578125 8.22265625 C0 2.83988928 0 2.83988928 0 0 Z " fill="#EF80C6" transform="translate(20,74)"/>
<path d="M0 0 C0.33 0 0.66 0 1 0 C1.0272415 1.41655793 1.04650467 2.83327045 1.0625 4.25 C1.07410156 5.03890625 1.08570312 5.8278125 1.09765625 6.640625 C1 9 1 9 0 13 C-5.28 13.66 -10.56 14.32 -16 15 C-13 12 -13 12 -9.5625 11.0625 C-5.75125839 9.92581391 -4.35607072 9.14142763 -2 6 C-0.73215876 2.86649283 -0.73215876 2.86649283 0 0 Z " fill="#D53B81" transform="translate(78,64)"/>
<path d="M0 0 C5.94 0 11.88 0 18 0 C15.31382584 2.68617416 13.02632489 4.83833937 10 7 C6.42032008 5.34784004 3.22017048 3.26875648 0 1 C0 0.67 0 0.34 0 0 Z " fill="#D83E7E" transform="translate(41,16)"/>
<path d="M0 0 C3.31234384 1.16379648 5.8898219 2.11238786 8 5 C8 6.32 8 7.64 8 9 C4.625 9.125 4.625 9.125 1 9 C-1 7 -1 7 -1.1875 3.9375 C-1 1 -1 1 0 0 Z " fill="#FBD6EB" transform="translate(15,77)"/>
<path d="M0 0 C-2.46322446 2.46322446 -3.78867865 2.4749407 -7.1875 3 C-10.56419008 3.55391898 -13.79770968 4.16122625 -17.0625 5.1875 C-20 6 -20 6 -22 5 C-18.22992876 1.5399907 -15.49218665 0.36106775 -10.4375 -0.3125 C-9.32246094 -0.47363281 -8.20742187 -0.63476562 -7.05859375 -0.80078125 C-4.34587774 -0.97747156 -2.5440258 -0.86459557 0 0 Z " fill="#E75DB5" transform="translate(78,78)"/>
<path d="M0 0 C0.33 0.66 0.66 1.32 1 2 C0.11957031 2.10957031 -0.76085937 2.21914063 -1.66796875 2.33203125 C-2.82941406 2.49058594 -3.99085937 2.64914063 -5.1875 2.8125 C-6.33605469 2.96332031 -7.48460937 3.11414063 -8.66796875 3.26953125 C-13.40248292 4.30746108 -16.68560739 6.56668543 -20.3125 9.6875 C-21.199375 10.450625 -22.08625 11.21375 -23 12 C-21.38510885 6.34788097 -17.70553816 3.57823059 -12.75 0.6875 C-8.52320078 -0.3691998 -4.33327146 -0.15145415 0 0 Z " fill="#F8C6DE" transform="translate(39,16)"/>
<path d="M0 0 C0.33 0 0.66 0 1 0 C2.1922117 9.66543055 2.09622024 19.28175551 2 29 C1.67 29 1.34 29 1 29 C0.67 25.7 0.34 22.4 0 19 C-0.33 19 -0.66 19 -1 19 C-1.02683987 16.02077407 -1.04676037 13.04178705 -1.0625 10.0625 C-1.07087891 9.21236328 -1.07925781 8.36222656 -1.08789062 7.48632812 C-1.09111328 6.67744141 -1.09433594 5.86855469 -1.09765625 5.03515625 C-1.10289307 4.2862915 -1.10812988 3.53742676 -1.11352539 2.76586914 C-1 1 -1 1 0 0 Z " fill="#C97087" transform="translate(9,32)"/>
<path d="M0 0 C0.33 0 0.66 0 1 0 C1.05449838 1.72880982 1.09301688 3.45812712 1.125 5.1875 C1.14820312 6.15042969 1.17140625 7.11335938 1.1953125 8.10546875 C0.98750265 11.1852108 0.45744551 13.2829741 -1 16 C-1.99 16.33 -2.98 16.66 -4 17 C-3.91266027 14.91589342 -3.80447722 12.83265331 -3.6875 10.75 C-3.62949219 9.58984375 -3.57148437 8.4296875 -3.51171875 7.234375 C-2.9824951 3.88935837 -2.3219844 2.41152107 0 0 Z " fill="#E962B7" transform="translate(82,59)"/>
<path d="M0 0 C0.66 1.98 1.32 3.96 2 6 C3.65 6.33 5.3 6.66 7 7 C7 7.99 7 8.98 7 10 C5.52093108 10.02689216 4.04172517 10.04634621 2.5625 10.0625 C1.32693359 10.07990234 1.32693359 10.07990234 0.06640625 10.09765625 C-2 10 -2 10 -3 9 C-3.14115161 6.32941149 -3.04247107 3.67567762 -3 1 C-1 0 -1 0 0 0 Z " fill="#FAC2E0" transform="translate(14,79)"/>
<path d="M0 0 C0.33 0 0.66 0 1 0 C1.03738281 1.04800781 1.07476562 2.09601563 1.11328125 3.17578125 C1.17894515 4.55472305 1.24539235 5.93362771 1.3125 7.3125 C1.33505859 8.00279297 1.35761719 8.69308594 1.38085938 9.40429688 C1.55234057 13.45242458 1.55234057 13.45242458 3.54296875 16.85546875 C4.02378906 17.23316406 4.50460938 17.61085938 5 18 C5 18.66 5 19.32 5 20 C2.13275314 19.42655063 1.1385485 19.1385485 -1 17 C-1.17201285 14.45770841 -1.23257617 12.03850004 -1.1875 9.5 C-1.18685547 8.81035156 -1.18621094 8.12070313 -1.18554688 7.41015625 C-1.14055525 2.28111049 -1.14055525 2.28111049 0 0 Z " fill="#82181B" transform="translate(9,72)"/>
<path d="M0 0 C7.27272727 -0.48484848 7.27272727 -0.48484848 10.4375 1.625 C12.28765829 4.4372406 12.69750921 6.67260127 13 10 C12.56429687 9.60167969 12.12859375 9.20335937 11.6796875 8.79296875 C7.99005314 5.51063169 4.56922802 3.00600254 0 1 C0 0.67 0 0.34 0 0 Z " fill="#E75A98" transform="translate(72,16)"/>
<path d="M0 0 C2.52419593 2.52419593 2.78957038 4.42357863 3.625 7.875 C3.88539062 8.92429687 4.14578125 9.97359375 4.4140625 11.0546875 C5 14 5 14 5 18 C4.01 17.67 3.02 17.34 2 17 C-0.20018889 11.6230678 -0.20783455 5.71545019 0 0 Z " fill="#EE7CC4" transform="translate(15,56)"/>
<path d="M0 0 C2.25073828 0.06018017 4.50072325 0.14901206 6.75 0.25 C8.62945312 0.31960937 8.62945312 0.31960937 10.546875 0.390625 C14.40518636 1.07150347 15.60916205 1.98126522 18 5 C11.44074057 4.61020794 6.05473373 3.57886807 0 1 C0 0.67 0 0.34 0 0 Z " fill="#E85DB9" transform="translate(25,78)"/>
<path d="M0 0 C1.32 0.33 2.64 0.66 4 1 C4.04254356 2.99954746 4.04080783 5.00041636 4 7 C3 8 3 8 -0.0625 8.0625 C-1.031875 8.041875 -2.00125 8.02125 -3 8 C-2.690625 7.236875 -2.38125 6.47375 -2.0625 5.6875 C-1.32106407 3.81210323 -0.63771783 1.91315348 0 0 Z " fill="#FEEDF8" transform="translate(83,77)"/>
<path d="M0 0 C0.33 0 0.66 0 1 0 C1.10957031 0.71285156 1.21914062 1.42570312 1.33203125 2.16015625 C2.73806982 10.65354374 5.01886323 16.95770318 10 24 C9.01 24 8.02 24 7 24 C5.4296875 21.953125 5.4296875 21.953125 3.875 19.25 C3.35679688 18.36828125 2.83859375 17.4865625 2.3046875 16.578125 C0.24059503 12.4993794 -0.12236019 9.29937466 -0.0625 4.75 C-0.05347656 3.85796875 -0.04445313 2.9659375 -0.03515625 2.046875 C-0.02355469 1.37140625 -0.01195312 0.6959375 0 0 Z " fill="#B37786" transform="translate(12,38)"/>
<path d="M0 0 C-1.32 0.33 -2.64 0.66 -4 1 C-4 1.66 -4 2.32 -4 3 C-11.92 3.495 -11.92 3.495 -20 4 C-16.76538003 1.84358669 -14.32927039 1.18899027 -10.5625 0.3125 C-9.42941406 0.04050781 -8.29632813 -0.23148437 -7.12890625 -0.51171875 C-4.25083111 -0.96085657 -2.68974913 -0.98469931 0 0 Z " fill="#EE7AC4" transform="translate(75,81)"/>
<path d="M0 0 C0.33 0.66 0.66 1.32 1 2 C-3.15457839 7.91712679 -7.77258334 13.01139933 -13 18 C-13.66 17.34 -14.32 16.68 -15 16 C-14.33613281 15.43152344 -13.67226562 14.86304687 -12.98828125 14.27734375 C-7.91695963 9.8427136 -3.62831254 5.68435632 0 0 Z " fill="#914453" transform="translate(84,54)"/>
<path d="M0 0 C1.12556187 3.3766856 0.6876151 5.56192451 0 9 C0.36856864 11.23167185 0.36856864 11.23167185 1 13 C-0.98 13.99 -0.98 13.99 -3 15 C-4.07310858 11.72814447 -3.89263102 9.57052408 -3.0625 6.25 C-2.77052734 5.05117188 -2.77052734 5.05117188 -2.47265625 3.828125 C-2.31667969 3.22484375 -2.16070312 2.6215625 -2 2 C-1.34 2 -0.68 2 0 2 C0 1.34 0 0.68 0 0 Z " fill="#EB7DCB" transform="translate(80,47)"/>
<path d="M0 0 C0.66 0.33 1.32 0.66 2 1 C1.34 1.721875 0.68 2.44375 0 3.1875 C-2.1535853 6.21597933 -2.41176754 7.39703406 -2 11 C-3.98 11.99 -3.98 11.99 -6 13 C-6.66 12.34 -7.32 11.68 -8 11 C-7.34 11 -6.68 11 -6 11 C-5.9071875 9.6696875 -5.9071875 9.6696875 -5.8125 8.3125 C-4.81828945 4.25918008 -3.09898876 2.70168251 0 0 Z " fill="#F2A1D7" transform="translate(26,24)"/>
<path d="M0 0 C1.11375 0.7425 1.11375 0.7425 2.25 1.5 C5.06318188 3.31923475 5.06318188 3.31923475 9 3 C9.66 2.67 10.32 2.34 11 2 C11.66 2.66 12.32 3.32 13 4 C11.1875 6 11.1875 6 9 8 C6 8 6 8 3.375 5.6875 C1 3 1 3 0 0 Z " fill="#F3BDDA" transform="translate(43,18)"/>
<path d="M0 0 C0.33 0 0.66 0 1 0 C1 5.61 1 11.22 1 17 C-2.28976808 18.09658936 -3.71303767 17.79953138 -7 17 C-5.625 15.5 -5.625 15.5 -4 14 C-3.34 14 -2.68 14 -2 14 C-2 14.66 -2 15.32 -2 16 C-1.34 16 -0.68 16 0 16 C0 10.72 0 5.44 0 0 Z " fill="#FBBCDF" transform="translate(88,60)"/>
<path d="M0 0 C0.33 0.66 0.66 1.32 1 2 C0.0625 4.125 0.0625 4.125 -1 6 C-3.64 6 -6.28 6 -9 6 C-9 5.34 -9 4.68 -9 4 C-8.43410156 3.79503906 -7.86820312 3.59007813 -7.28515625 3.37890625 C-6.55167969 3.10949219 -5.81820312 2.84007813 -5.0625 2.5625 C-4.33160156 2.29566406 -3.60070312 2.02882813 -2.84765625 1.75390625 C-1.01694322 1.14613052 -1.01694322 1.14613052 0 0 Z " fill="#F3A0CD" transform="translate(77,80)"/>
<path d="M0 0 C3.465 1.485 3.465 1.485 7 3 C7 3.33 7 3.66 7 4 C-0.42857143 6.42857143 -0.42857143 6.42857143 -4 5 C-3.01 4.67 -2.02 4.34 -1 4 C-0.26676204 1.98491642 -0.26676204 1.98491642 0 0 Z " fill="#F5A9CF" transform="translate(24,82)"/>
<path d="M0 0 C2 2 2 2 2.1953125 5.4765625 C2.18201493 6.85950968 2.15816232 8.24238654 2.125 9.625 C2.11597656 10.33140625 2.10695313 11.0378125 2.09765625 11.765625 C2.07407603 13.51056098 2.03820461 15.25532295 2 17 C1.67 17 1.34 17 1 17 C0.67 13.7 0.34 10.4 0 7 C-0.33 7 -0.66 7 -1 7 C-1.04254356 5.00045254 -1.04080783 2.99958364 -1 1 C-0.67 0.67 -0.34 0.34 0 0 Z " fill="#E08FAB" transform="translate(9,26)"/>
<path d="M0 0 C3.375 -0.125 3.375 -0.125 7 0 C7.66 0.66 8.32 1.32 9 2 C8.01 2.99 7.02 3.98 6 5 C2.83884224 3.63016497 2.0072908 3.0109362 0 0 Z " fill="#CA2A65" transform="translate(45,18)"/>
<path d="M0 0 C0.33 0 0.66 0 1 0 C1.33 4.29 1.66 8.58 2 13 C1.01 12.67 0.02 12.34 -1 12 C-1.02687279 10.18757948 -1.04633715 8.37504767 -1.0625 6.5625 C-1.07410156 5.55316406 -1.08570313 4.54382813 -1.09765625 3.50390625 C-1 1 -1 1 0 0 Z " fill="#EE9DBE" transform="translate(9,15)"/>
<path d="M0 0 C0 0.66 0 1.32 0 2 C-4.47058824 6 -4.47058824 6 -7 6 C-6.625 3.5625 -6.625 3.5625 -6 1 C-4 0 -4 0 0 0 Z " fill="#FCC1E0" transform="translate(18,10)"/>
<path d="M0 0 C1.29608947 0.93137592 2.58671632 1.8703566 3.875 2.8125 C4.59429688 3.33457031 5.31359375 3.85664062 6.0546875 4.39453125 C8 6 8 6 10 9 C7 9 7 9 5.17578125 7.5390625 C4.56089844 6.90742187 3.94601563 6.27578125 3.3125 5.625 C2.68988281 4.99851562 2.06726563 4.37203125 1.42578125 3.7265625 C0 2 0 2 0 0 Z " fill="#90384E" transform="translate(21,62)"/>
<path d="M0 0 C6.0546875 -0.1953125 6.0546875 -0.1953125 8 0 C8.66 0.66 9.32 1.32 10 2 C9.67 2.99 9.34 3.98 9 5 C8.34 4.34 7.68 3.68 7 3 C4.67724823 2.59952556 2.34260643 2.2602896 0 2 C0 1.34 0 0.68 0 0 Z " fill="#FCC0DF" transform="translate(79,10)"/>
<path d="M0 0 C0.33 0 0.66 0 1 0 C1.28875 1.0725 1.5775 2.145 1.875 3.25 C2.72820109 6.09400364 3.5636503 8.43508983 5 11 C1.125 10.125 1.125 10.125 0 9 C-0.07179964 7.48071962 -0.08392007 5.95832518 -0.0625 4.4375 C-0.05347656 3.61121094 -0.04445313 2.78492187 -0.03515625 1.93359375 C-0.02355469 1.29550781 -0.01195312 0.65742187 0 0 Z " fill="#780F0F" transform="translate(9,81)"/>
<path d="M0 0 C0.66 0 1.32 0 2 0 C2.33 0.99 2.66 1.98 3 3 C5.01508358 3.73323796 5.01508358 3.73323796 7 4 C7 4.66 7 5.32 7 6 C4.625 6.125 4.625 6.125 2 6 C1.34 5.34 0.68 4.68 0 4 C0 2.68 0 1.36 0 0 Z " fill="#FDECF7" transform="translate(15,79)"/>
<path d="M0 0 C0.99 0.33 1.98 0.66 3 1 C0.69 3.31 -1.62 5.62 -4 8 C-4.33 7.34 -4.66 6.68 -5 6 C-3.35 4.02 -1.7 2.04 0 0 Z " fill="#F5D0E3" transform="translate(21,20)"/>
<path d="M0 0 C2.76 5.52 2.76 5.52 3 8 C2.01 8.99 1.02 9.98 0 11 C0 7.37 0 3.74 0 0 Z " fill="#EE8DBA" transform="translate(12,48)"/>
<path d="M0 0 C4.73509934 3.3995585 4.73509934 3.3995585 5.9375 6.125 C5.958125 6.74375 5.97875 7.3625 6 8 C5.34 8.66 4.68 9.32 4 10 C3.32845067 8.71086513 2.66291141 7.41859796 2 6.125 C1.62875 5.40570313 1.2575 4.68640625 0.875 3.9453125 C0 2 0 2 0 0 Z " fill="#E148AD" transform="translate(19,47)"/>
<path d="M0 0 C0.75 1.75 0.75 1.75 1 4 C-0.9375 6.25 -0.9375 6.25 -3 8 C-3 6.35 -3 4.7 -3 3 C-2.01 2.67 -1.02 2.34 0 2 C0 1.34 0 0.68 0 0 Z " fill="#F7BBE8" transform="translate(83,51)"/>
<path d="M0 0 C0.33 1.32 0.66 2.64 1 4 C-0.65 5.32 -2.3 6.64 -4 8 C-4 4.09161134 -2.49432124 2.88405893 0 0 Z " fill="#F08ACF" transform="translate(75,33)"/>
<path d="M0 0 C2.5 1.375 2.5 1.375 5 3 C5 3.66 5 4.32 5 5 C3.35 4.67 1.7 4.34 0 4 C0 2.68 0 1.36 0 0 Z " fill="#FED0FC" transform="translate(17,78)"/>
<path d="M0 0 C0.66 0 1.32 0 2 0 C1.67 1.65 1.34 3.3 1 5 C0.01 5.33 -0.98 5.66 -2 6 C-1.125 1.125 -1.125 1.125 0 0 Z " fill="#FDC5F8" transform="translate(81,77)"/>
</svg>
