<!DOCTYPE svg PUBLIC "-//W3C//DTD SVG 1.1//EN" "http://www.w3.org/Graphics/SVG/1.1/DTD/svg11.dtd">

<!-- Uploaded to: SVG Repo, www.svgrepo.com, Transformed by: SVG Repo Mixer Tools -->
<svg width="40px" height="40px" viewBox="10 7 35 35" xmlns="http://www.w3.org/2000/svg" fill="#8a8a8a" stroke="#8a8a8a" stroke-width="0.00048000000000000007">

<g id="SVGRepo_bgCarrier" stroke-width="0"/>

<g id="SVGRepo_tracerCarrier" stroke-linecap="round" stroke-linejoin="round"/>

<g id="SVGRepo_iconCarrier"> <title>skip-next</title> <g id="Layer_2" data-name="Layer 2"> <g id="invisible_box" data-name="invisible box"> <rect width="48" height="48" fill="none"/> </g> <g id="icons_Q2" data-name="icons Q2"> <g> <path d="M34,10a2,2,0,0,0-2,2V36a2,2,0,0,0,4,0V12A2,2,0,0,0,34,10Z"/> <path d="M15.5,10.6a2.1,2.1,0,0,0-2.7-.2,1.9,1.9,0,0,0-.2,3L23.2,24,12.6,34.6a1.9,1.9,0,0,0,.2,3,2.1,2.1,0,0,0,2.7-.2l11.9-12a1.9,1.9,0,0,0,0-2.8Z"/> </g> </g> </g> </g>

</svg>