<?xml version="1.0" encoding="UTF-8"?>
<svg version="1.1" xmlns="http://www.w3.org/2000/svg" width="100" height="100">
<path d="M0 0 C10.78527154 7.340192 19.63745503 18.85282679 22.3125 31.875 C23.16527615 42.95168005 23.86192389 54.93500251 18.3125 64.875 C17.79171875 65.81472656 17.2709375 66.75445312 16.734375 67.72265625 C10.93596342 77.42585401 4.34832648 83.69280984 -5.6875 88.875 C-6.8321875 89.49955078 -6.8321875 89.49955078 -8 90.13671875 C-18.44382015 94.90673276 -34.02823211 94.9280893 -44.875 91.3125 C-47.31640625 90.19140625 -47.31640625 90.19140625 -49.6875 88.875 C-50.60402344 88.38902344 -51.52054688 87.90304688 -52.46484375 87.40234375 C-64.77795544 80.25769869 -72.17735767 69.93499555 -76.82421875 56.6171875 C-80.15037464 42.19882847 -77.95895968 27.88213292 -70.5625 15.1875 C-54.59486355 -8.34018514 -24.08953827 -14.03564007 0 0 Z " fill="#F8F285" transform="translate(77.6875,7.125)"/>
<path d="M0 0 C0.33 0.66 0.66 1.32 1 2 C1.99 2.33 2.98 2.66 4 3 C4 3.99 4 4.98 4 6 C4.99 6 5.98 6 7 6 C13.46336734 16.30322763 13.15076144 25.07309496 13 37 C12.34 37 11.68 37 11 37 C10.98582031 37.61746094 10.97164062 38.23492187 10.95703125 38.87109375 C10.44119345 48.03070014 7.19081309 54.04974612 1 60.75 C-7.09159629 67.76107964 -20.4527763 70.23246179 -31 70 C-31.25 63.375 -31.25 63.375 -29 60 C-28.39896659 57.78610171 -27.86324191 55.55397421 -27.375 53.3125 C-27.11460938 52.13300781 -26.85421875 50.95351562 -26.5859375 49.73828125 C-26.39257812 48.83464844 -26.19921875 47.93101563 -26 47 C-27.32 46.67 -28.64 46.34 -30 46 C-31.5246016 40.57782817 -32.00309481 35.1885705 -29.625 30 C-28 28 -28 28 -26 27 C-24.29297265 26.93003986 -22.58331997 26.91559846 -20.875 26.9375 C-19.96492188 26.94652344 -19.05484375 26.95554687 -18.1171875 26.96484375 C-17.41851562 26.97644531 -16.71984375 26.98804687 -16 27 C-16 26.34 -16 25.68 -16 25 C-19.63 25 -23.26 25 -27 25 C-27.33 24.34 -27.66 23.68 -28 23 C-27.14277344 22.75765625 -26.28554688 22.5153125 -25.40234375 22.265625 C-14.97904444 19.45343677 -14.97904444 19.45343677 -6.375 13.25 C-5 12 -5 12 -2.3125 11.8125 C-1.549375 11.874375 -0.78625 11.93625 0 12 C1.19287411 15.87684087 2 18.91621923 2 23 C0.22868439 22.69024532 -1.54203778 22.37709575 -3.3125 22.0625 C-4.79169922 21.80146484 -4.79169922 21.80146484 -6.30078125 21.53515625 C-9 21 -9 21 -12 20 C-12.74957157 23.47147842 -12.74957157 23.47147842 -13 27 C-12.34 27.66 -11.68 28.32 -11 29 C-11 29.99 -11 30.98 -11 32 C-10.31292969 31.7834375 -9.62585938 31.566875 -8.91796875 31.34375 C-8.01691406 31.0653125 -7.11585937 30.786875 -6.1875 30.5 C-5.29417969 30.2215625 -4.40085937 29.943125 -3.48046875 29.65625 C-1 29 -1 29 2 29 C2.495 30.98 2.495 30.98 3 33 C3.061875 32.21625 3.12375 31.4325 3.1875 30.625 C3.455625 29.75875 3.72375 28.8925 4 28 C6.5625 26.6875 6.5625 26.6875 9 26 C8.21625 25.87625 7.4325 25.7525 6.625 25.625 C4 24 4 24 3.328125 21.8515625 C3.0194694 20.07945364 2.73524981 18.30295505 2.47265625 16.5234375 C2.09433476 13.79469825 2.09433476 13.79469825 0.3125 10.875 C-1.52972474 6.83965057 -0.8178907 4.31251462 0 0 Z " fill="#F2E444" transform="translate(82,24)"/>
<path d="M0 0 C0.33 0 0.66 0 1 0 C2.33161422 6.80281179 1.949713 11.3613252 -0.953125 17.6640625 C-1.91259711 19.80497415 -2.52389093 21.78734099 -3.0625 24.0625 C-3.371875 25.031875 -3.68125 26.00125 -4 27 C-4.99 27.33 -5.98 27.66 -7 28 C-6.030625 28.268125 -5.06125 28.53625 -4.0625 28.8125 C0.33927765 30.06758935 4.66618846 31.53019958 9 33 C10.485 33.495 10.485 33.495 12 34 C12.12375 33.38125 12.2475 32.7625 12.375 32.125 C13 30 13 30 15 28 C14.34 27.34 13.68 26.68 13 26 C13 24.68 13 23.36 13 22 C8.38 22.99 3.76 23.98 -1 25 C-0.34 21.7 0.32 18.4 1 15 C6 14 6 14 7.6328125 15.07421875 C8.12523438 15.60660156 8.61765625 16.13898437 9.125 16.6875 C14.58803375 21.83904498 21.74851815 23.67797894 29 25 C28.67 25.66 28.34 26.32 28 27 C25.71484375 27.4140625 25.71484375 27.4140625 22.9375 27.625 C22.01839844 27.69976562 21.09929688 27.77453125 20.15234375 27.8515625 C19.08693359 27.92503906 19.08693359 27.92503906 18 28 C18.45261358 29.43931117 18.91232979 30.87638999 19.375 32.3125 C19.63023438 33.11300781 19.88546875 33.91351563 20.1484375 34.73828125 C20.98831811 37.22724528 20.98831811 37.22724528 23 40 C22.34 40 21.68 40 21 40 C21.83254913 42.23339896 21.83254913 42.23339896 24.28515625 42.8515625 C25.20167969 43.10679688 26.11820313 43.36203125 27.0625 43.625 C27.98160156 43.88539062 28.90070312 44.14578125 29.84765625 44.4140625 C30.55792969 44.60742188 31.26820312 44.80078125 32 45 C31.67 45.99 31.34 46.98 31 48 C29.68 48 28.36 48 27 48 C27.44911697 50.29349068 27.90957944 52.58476218 28.375 54.875 C28.75785156 56.78925781 28.75785156 56.78925781 29.1484375 58.7421875 C29.72237896 62.05924456 29.72237896 62.05924456 32 64 C32.32752234 66.71454956 32.1308425 69.25230759 32 72 C31 73 31 73 27.625 73.3125 C18.3036431 73.16242449 10.25269177 68.46699115 3 63 C2.360625 62.54882812 1.72125 62.09765625 1.0625 61.6328125 C-4.12398209 57.67588435 -6.51811531 52.94561388 -9 47 C-9.32097656 46.30132812 -9.64195313 45.60265625 -9.97265625 44.8828125 C-13.71289562 35.66268755 -13.16489089 24.31884541 -10 15 C-8.875 12.5 -8.875 12.5 -8 11 C-7.34 11 -6.68 11 -6 11 C-5.7525 10.113125 -5.505 9.22625 -5.25 8.3125 C-3.95611703 4.88371014 -2.45610359 2.69379103 0 0 Z " fill="#9F9B65" transform="translate(17,22)"/>
<path d="M0 0 C10.78527154 7.340192 19.63745503 18.85282679 22.3125 31.875 C23.16527615 42.95168005 23.86192389 54.93500251 18.3125 64.875 C17.79171875 65.81472656 17.2709375 66.75445312 16.734375 67.72265625 C10.93596342 77.42585401 4.34832648 83.69280984 -5.6875 88.875 C-6.8321875 89.49955078 -6.8321875 89.49955078 -8 90.13671875 C-18.44382015 94.90673276 -34.02823211 94.9280893 -44.875 91.3125 C-47.31640625 90.19140625 -47.31640625 90.19140625 -49.6875 88.875 C-50.60402344 88.38902344 -51.52054688 87.90304688 -52.46484375 87.40234375 C-61.5427955 82.13489026 -69.3338622 74.5287186 -73.6875 64.875 C-73.9375 61.9375 -73.9375 61.9375 -73.6875 59.875 C-73.0275 60.205 -72.3675 60.535 -71.6875 60.875 C-71.0625 63.4375 -71.0625 63.4375 -70.6875 65.875 C-70.0275 65.875 -69.3675 65.875 -68.6875 65.875 C-68.501875 66.535 -68.31625 67.195 -68.125 67.875 C-65.13580489 74.11332023 -61.15875344 78.45453117 -54.6875 80.875 C-53.28992189 81.8216614 -51.91476021 82.8021611 -50.5625 83.8125 C-42.799604 89.01745813 -35.10660658 90.11809716 -25.9375 90.1875 C-24.87402344 90.19595947 -24.87402344 90.19595947 -23.7890625 90.20458984 C-11.36705664 90.03303124 -0.54373008 83.45381959 8.34375 75.09765625 C17.37131406 64.90582302 19.80620842 52.57218894 19.55078125 39.34375 C19.27002702 35.25670485 18.4929756 31.78532542 17.3125 27.875 C17.3125 26.555 17.3125 25.235 17.3125 23.875 C16.6525 23.875 15.9925 23.875 15.3125 23.875 C14.0859375 22.15234375 14.0859375 22.15234375 12.6875 19.8125 C9.5615721 14.92243457 5.8437127 11.45166789 1.3125 7.875 C0.9825 8.865 0.6525 9.855 0.3125 10.875 C-2.94793169 10.50237924 -4.44486894 10.09631022 -6.91015625 7.84765625 C-10.47049729 5.31886268 -12.6179152 5.43146657 -16.9375 5.5625 C-18.80148438 5.59923828 -18.80148438 5.59923828 -20.703125 5.63671875 C-23.5696233 5.54092821 -23.5696233 5.54092821 -24.6875 6.875 C-27.625 7.0625 -27.625 7.0625 -30.6875 6.875 C-31.3475 6.215 -32.0075 5.555 -32.6875 4.875 C-40.90762667 3.83117439 -45.81210938 6.59350675 -52.6875 10.875 C-54.35355722 11.87601504 -56.02004 12.87632342 -57.6875 13.875 C-57.3575 11.895 -57.0275 9.915 -56.6875 7.875 C-63.86304461 13.10819891 -69.09193888 17.25196917 -71.6875 25.875 C-71.98140625 26.62523437 -72.2753125 27.37546875 -72.578125 28.1484375 C-75.87849226 37.65949589 -74.95699572 47.95064718 -74.6875 57.875 C-76.6875 56.875 -76.6875 56.875 -77.29760742 55.08398438 C-79.99025684 39.82844778 -77.41986137 25.29155263 -68.72265625 12.4765625 C-51.9938714 -8.9080262 -23.04961605 -13.42973497 0 0 Z " fill="#F9F9EB" transform="translate(77.6875,7.125)"/>
<path d="M0 0 C8.79025636 -0.54862904 14.23639054 -0.86179487 21 5 C21.99 4.67 22.98 4.34 24 4 C24.33 3.34 24.66 2.68 25 2 C30.83726478 6.24528348 36.99048808 11.85506874 39 19 C39.66 19 40.32 19 41 19 C45.61837831 33.76231637 45.63863839 47.97300221 38.50390625 61.92578125 C34.2748339 69.21328497 34.2748339 69.21328497 31 72 C30.34 72 29.68 72 29 72 C28.505 73.485 28.505 73.485 28 75 C15.53165185 84.34595091 4.32878125 87.26675585 -11 86 C-19.23941538 84.48699088 -25.78254254 81.63515782 -32 76 C-28.78492651 76 -27.06672534 76.65002623 -24.125 77.875 C-23.28195313 78.22304687 -22.43890625 78.57109375 -21.5703125 78.9296875 C-19.85575717 79.64365127 -18.14855105 80.37552419 -16.44921875 81.125 C-13.99350687 82.00231972 -12.27300388 82.2126442 -9.6875 82.125 C-8.470625 82.08375 -7.25375 82.0425 -6 82 C-5.67 79.36 -5.34 76.72 -5 74 C-3.515 74.495 -3.515 74.495 -2 75 C-2.33 77.31 -2.66 79.62 -3 82 C15.98426753 79.37130702 15.98426753 79.37130702 31.4296875 69.28515625 C32.20699219 68.15400391 32.20699219 68.15400391 33 67 C33.45632812 66.33871094 33.91265625 65.67742187 34.3828125 64.99609375 C37.22936185 60.06937371 38.13325755 54.56539892 39 49 C39.66 49 40.32 49 41 49 C40.77877638 45.4559256 40.51790622 41.91582719 40.25 38.375 C40.188125 37.37597656 40.12625 36.37695312 40.0625 35.34765625 C39.58022225 29.27899456 38.72484187 25.79989786 35 21 C35 20.01 35 19.02 35 18 C34.01 18 33.02 18 32 18 C31.505 16.515 31.505 16.515 31 15 C30.34 14.67 29.68 14.34 29 14 C28.34 15.65 27.68 17.3 27 19 C26.484375 18.29875 25.96875 17.5975 25.4375 16.875 C20.9958521 11.63613325 16.33308823 7.7803802 10 5 C9.67 5.33 9.34 5.66 9 6 C10.50223584 10.20626034 13.28550034 11.73900021 17 14 C13.39042389 17.2910841 10.87362847 18.54663921 6 19 C6.66 19.99 7.32 20.98 8 22 C8 22.99 8 23.98 8 25 C4.66666667 23.66666667 1.33333333 22.33333333 -2 21 C-2 20.01 -2 19.02 -2 18 C-0.68 18 0.64 18 2 18 C1.01 13.38 0.02 8.76 -1 4 C0.65 3.67 2.3 3.34 4 3 C1.525 2.505 1.525 2.505 -1 2 C-0.67 1.34 -0.34 0.68 0 0 Z " fill="#E6E5B7" transform="translate(54,12)"/>
<path d="M0 0 C2.25 1.375 2.25 1.375 3.74609375 2.51953125 C9.64648027 7.02998838 15.9271924 9.193902 23.25 10.375 C22.92 11.035 22.59 11.695 22.25 12.375 C19.96484375 12.7890625 19.96484375 12.7890625 17.1875 13 C16.26839844 13.07476562 15.34929688 13.14953125 14.40234375 13.2265625 C13.33693359 13.30003906 13.33693359 13.30003906 12.25 13.375 C12.70261358 14.81431117 13.16232979 16.25138999 13.625 17.6875 C14.00785156 18.88826172 14.00785156 18.88826172 14.3984375 20.11328125 C15.23831811 22.60224528 15.23831811 22.60224528 17.25 25.375 C16.59 25.375 15.93 25.375 15.25 25.375 C15.91 27.685 16.57 29.995 17.25 32.375 C14.28 33.695 11.31 35.015 8.25 36.375 C9.054375 37.138125 9.85875 37.90125 10.6875 38.6875 C13.25 41.375 13.25 41.375 14.25 44.375 C16.75447516 45.59369929 16.75447516 45.59369929 19.25 46.375 C19.25 46.705 19.25 47.035 19.25 47.375 C10.6272166 47.00807305 4.78627784 42.24283319 -1.0625 36.1875 C-6.13291666 30.20623004 -9.0909657 23.27403882 -8.75 15.375 C-9.74 15.045 -10.73 14.715 -11.75 14.375 C-6.48572804 15.04990666 -1.73122671 16.62919864 3.25 18.375 C4.24 18.705 5.23 19.035 6.25 19.375 C6.37375 18.75625 6.4975 18.1375 6.625 17.5 C7.25 15.375 7.25 15.375 9.25 13.375 C8.59 12.715 7.93 12.055 7.25 11.375 C7.25 10.055 7.25 8.735 7.25 7.375 C0.32 8.86 0.32 8.86 -6.75 10.375 C-6.09 7.075 -5.43 3.775 -4.75 0.375 C-1.75 -0.625 -1.75 -0.625 0 0 Z " fill="#F2E648" transform="translate(22.75,36.625)"/>
<path d="M0 0 C2.15087387 1.40288837 4.23108426 2.84824092 6.27734375 4.3984375 C5.61734375 5.0584375 4.95734375 5.7184375 4.27734375 6.3984375 C3.72046875 5.9446875 3.16359375 5.4909375 2.58984375 5.0234375 C0.20565435 3.34806117 -2.00341924 2.41815138 -4.72265625 1.3984375 C-5.71265625 0.8415625 -5.71265625 0.8415625 -6.72265625 0.2734375 C-9.16554248 -0.79532523 -11.08440886 -0.7481318 -13.72265625 -0.6015625 C-11.24765625 1.3784375 -11.24765625 1.3784375 -8.72265625 3.3984375 C-9.86154297 3.45451172 -9.86154297 3.45451172 -11.0234375 3.51171875 C-12.01730469 3.57746094 -13.01117188 3.64320312 -14.03515625 3.7109375 C-15.02128906 3.76894531 -16.00742187 3.82695312 -17.0234375 3.88671875 C-20.07401134 4.46504751 -20.65442463 5.23751203 -22.72265625 7.3984375 C-24.04265625 7.3984375 -25.36265625 7.3984375 -26.72265625 7.3984375 C-27.21765625 6.4084375 -27.21765625 6.4084375 -27.72265625 5.3984375 C-30.27206998 5.08602379 -32.72627138 4.88540329 -35.28515625 4.7734375 C-35.99607422 4.73476562 -36.70699219 4.69609375 -37.43945312 4.65625 C-39.2000805 4.56171967 -40.96133353 4.47897933 -42.72265625 4.3984375 C-39.56124085 1.01709755 -37.2202702 -0.37494051 -32.72265625 -1.6015625 C-42.8015246 -0.54062899 -51.86997551 4.0443411 -58.72265625 11.3984375 C-59.46902344 12.171875 -59.46902344 12.171875 -60.23046875 12.9609375 C-64.28676419 17.36375064 -66.67543488 21.79360033 -68.72265625 27.3984375 C-69.02300781 28.15125 -69.32335937 28.9040625 -69.6328125 29.6796875 C-72.87731054 39.21700266 -71.9924914 49.46158514 -71.72265625 59.3984375 C-73.72265625 58.3984375 -73.72265625 58.3984375 -74.33276367 56.60742188 C-77.02541309 41.35188528 -74.45501762 26.81499013 -65.7578125 14 C-50.54178238 -5.45081777 -21.82210412 -12.83653184 0 0 Z " fill="#FDFCEF" transform="translate(74.72265625,5.6015625)"/>
<path d="M0 0 C0.33 0.66 0.66 1.32 1 2 C1.99 2.33 2.98 2.66 4 3 C4 3.99 4 4.98 4 6 C4.99 6 5.98 6 7 6 C13.46336734 16.30322763 13.15076144 25.07309496 13 37 C12.34 37 11.68 37 11 37 C10.98582031 37.61746094 10.97164062 38.23492187 10.95703125 38.87109375 C10.44119345 48.03070014 7.19081309 54.04974612 1 60.75 C-7.09159629 67.76107964 -20.4527763 70.23246179 -31 70 C-31 67.69 -31 65.38 -31 63 C-28.46132013 61.73066006 -26.39613545 61.70635057 -23.5625 61.5 C-22.49128906 61.4175 -21.42007813 61.335 -20.31640625 61.25 C-19.22199219 61.1675 -18.12757812 61.085 -17 61 C-14.99957188 60.83855309 -12.99952826 60.67223393 -11 60.5 C-9.700625 60.39171875 -9.700625 60.39171875 -8.375 60.28125 C-6.17415229 60.0206233 -4.13272043 59.59242234 -2 59 C-2 58.34 -2 57.68 -2 57 C-1.278125 56.46375 -0.55625 55.9275 0.1875 55.375 C8.1042257 48.68976497 8.86788569 41.28924196 9.73828125 31.4375 C9.82464844 30.303125 9.91101563 29.16875 10 28 C8.68 27.67 7.36 27.34 6 27 C6.99 26.67 7.98 26.34 9 26 C8.21625 25.87625 7.4325 25.7525 6.625 25.625 C4 24 4 24 3.328125 21.8515625 C3.0194694 20.07945364 2.73524981 18.30295505 2.47265625 16.5234375 C2.09433476 13.79469825 2.09433476 13.79469825 0.3125 10.875 C-1.52972474 6.83965057 -0.8178907 4.31251462 0 0 Z " fill="#B5B268" transform="translate(82,24)"/>
<path d="M0 0 C1.30045636 2.60091273 0.78732009 3.7055536 0.125 6.5 C-0.05804688 7.2940625 -0.24109375 8.088125 -0.4296875 8.90625 C-1 11 -1 11 -2 13 C-0.68 13 0.64 13 2 13 C2.33 14.32 2.66 15.64 3 17 C1.02 17.33 -0.96 17.66 -3 18 C-3 18.99 -3 19.98 -3 21 C-7.875 22 -7.875 22 -9 22 C-9.66 23.98 -10.32 25.96 -11 28 C-15.58292885 27.72224674 -18.37859377 25.66932821 -21.67578125 22.6796875 C-23 21 -23 21 -23.0625 17.9375 C-22.711875 16.968125 -22.36125 15.99875 -22 15 C-21.79375 14.113125 -21.5875 13.22625 -21.375 12.3125 C-19.34356925 8.89600283 -16.65038209 8.30370789 -13 7 C-12.34 6.67 -11.68 6.34 -11 6 C-10.67 4.68 -10.34 3.36 -10 2 C-6.7 1.34 -3.4 0.68 0 0 Z " fill="#F7F082" transform="translate(46,16)"/>
<path d="M0 0 C1.98 0 3.96 0 6 0 C6.52444646 11.47955019 5.45784212 18.92070321 -2.37890625 27.56640625 C-4 29 -4 29 -6 29 C-6 29.66 -6 30.32 -6 31 C-9.83204679 33.4127702 -13.97627671 33.66396543 -18.375 34.125 C-19.1175 34.21136719 -19.86 34.29773438 -20.625 34.38671875 C-24.77135697 34.84823905 -28.82104023 35.09286577 -33 35 C-33 34.34 -33 33.68 -33 33 C-32.38253906 32.91363281 -31.76507813 32.82726562 -31.12890625 32.73828125 C-24.52810601 31.64317132 -19.67832172 29.44676338 -14 26 C-13.29617187 25.7009375 -12.59234375 25.401875 -11.8671875 25.09375 C-9.51561307 23.7162587 -9.06499234 22.47115105 -8 20 C-7.19365541 18.82907056 -6.3808758 17.66255254 -5.5625 16.5 C-2.30492911 11.41125021 -1.20078093 5.85746794 0 0 Z " fill="#8C886A" transform="translate(86,52)"/>
<path d="M0 0 C-1.61628121 3.23256243 -4.76993715 3.67336704 -8 5 C-8.33 5.33 -8.66 5.66 -9 6 C-4.71 6.33 -0.42 6.66 4 7 C4.495 8.485 4.495 8.485 5 10 C6.32 10 7.64 10 9 10 C9.33 9.01 9.66 8.02 10 7 C12.29629994 5.85185003 14.07698086 5.69230191 16.625 5.4375 C17.44226562 5.35371094 18.25953125 5.26992187 19.1015625 5.18359375 C20.04128906 5.09271484 20.04128906 5.09271484 21 5 C19.68 3.68 18.36 2.36 17 1 C18.45922693 1.11409593 19.91740598 1.24165544 21.375 1.375 C22.59316406 1.47941406 22.59316406 1.47941406 23.8359375 1.5859375 C26 2 26 2 28 4 C28.763125 4.28875 29.52625 4.5775 30.3125 4.875 C34.23386016 6.5164996 37.15102127 8.54460789 39.3125 12.25 C39.539375 12.8275 39.76625 13.405 40 14 C38.68 13.67 37.36 13.34 36 13 C35.67 13.66 35.34 14.32 35 15 C31.73956831 14.62737924 30.24263106 14.22131022 27.77734375 11.97265625 C24.21700271 9.44386268 22.0695848 9.55646657 17.75 9.6875 C15.88601562 9.72423828 15.88601562 9.72423828 13.984375 9.76171875 C11.1178767 9.66592821 11.1178767 9.66592821 10 11 C7.0625 11.1875 7.0625 11.1875 4 11 C3.34 10.34 2.68 9.68 2 9 C-6.22012667 7.95617439 -11.12460938 10.71850675 -18 15 C-19.66605722 16.00101504 -21.33254 17.00132342 -23 18 C-22.67 16.02 -22.34 14.04 -22 12 C-26.455 15.96 -26.455 15.96 -31 20 C-31 17 -31 17 -29.64453125 15.5703125 C-28.73767578 14.85488281 -28.73767578 14.85488281 -27.8125 14.125 C-25.52367414 12.27932006 -23.61110798 10.57017197 -21.625 8.375 C-18.11671752 5.20083966 -14.35852883 3.72591379 -10 2 C-9.0925 1.5875 -8.185 1.175 -7.25 0.75 C-4.72024175 -0.09325275 -2.64931572 -0.15138947 0 0 Z " fill="#F6F5CA" transform="translate(43,3)"/>
<path d="M0 0 C4.4077913 -0.34570912 7.95027638 -0.44988155 12.0625 1.3125 C15.1178025 5.55050024 14.3922405 9.94445584 14 15 C16.31 15 18.62 15 21 15 C19.68 15.33 18.36 15.66 17 16 C17.33 16.99 17.66 17.98 18 19 C18.99 19.33 19.98 19.66 21 20 C20.69128878 21.79232337 20.37790936 23.58384321 20.0625 25.375 C19.80146484 26.87160156 19.80146484 26.87160156 19.53515625 28.3984375 C19 31 19 31 18 33 C19.65 33 21.3 33 23 33 C23 33.33 23 33.66 23 34 C12.44191344 35.33257403 12.44191344 35.33257403 8 34 C9.98 33.505 9.98 33.505 12 33 C11.7834375 32.24074219 11.566875 31.48148438 11.34375 30.69921875 C11.0653125 29.70535156 10.786875 28.71148437 10.5 27.6875 C10.2215625 26.70136719 9.943125 25.71523437 9.65625 24.69921875 C9 22 9 22 9 19 C9.639375 18.87625 10.27875 18.7525 10.9375 18.625 C11.618125 18.41875 12.29875 18.2125 13 18 C13.33 17.34 13.66 16.68 14 16 C13.0925 15.87625 12.185 15.7525 11.25 15.625 C8.41029677 15.07890323 6.47409409 14.42736197 4 13 C3.67 13.66 3.34 14.32 3 15 C3.2475 14.29875 3.495 13.5975 3.75 12.875 C4.09897752 8.86175855 2.26315355 7.2232793 0 4 C0 2.68 0 1.36 0 0 Z " fill="#EDDE42" transform="translate(35,51)"/>
<path d="M0 0 C1.98 0 3.96 0 6 0 C6.20496094 0.56589844 6.40992187 1.13179687 6.62109375 1.71484375 C6.89050781 2.44832031 7.15992187 3.18179688 7.4375 3.9375 C7.70433594 4.66839844 7.97117187 5.39929687 8.24609375 6.15234375 C8.85386948 7.98305678 8.85386948 7.98305678 10 9 C11.6290187 8.90949896 13.25459628 8.75272131 14.875 8.5625 C17.62619649 8.24567125 20.22703147 8 23 8 C22 10 22 10 19.71484375 10.8515625 C17.14322917 11.56770833 14.57161458 12.28385417 12 13 C17.445 13.495 17.445 13.495 23 14 C23 14.66 23 15.32 23 16 C22.31292969 16.04898438 21.62585938 16.09796875 20.91796875 16.1484375 C20.01691406 16.22320312 19.11585937 16.29796875 18.1875 16.375 C17.29417969 16.44460937 16.40085937 16.51421875 15.48046875 16.5859375 C12.75601501 16.86645036 12.75601501 16.86645036 10 19 C9.19663887 21.87759068 9.19663887 21.87759068 8.8125 25.125 C8.57466797 26.76855469 8.57466797 26.76855469 8.33203125 28.4453125 C8.16767578 29.70988281 8.16767578 29.70988281 8 31 C7.34 31 6.68 31 6 31 C5.97421875 30.24074219 5.9484375 29.48148438 5.921875 28.69921875 C5.86515625 27.70535156 5.8084375 26.71148437 5.75 25.6875 C5.70359375 24.70136719 5.6571875 23.71523438 5.609375 22.69921875 C5.22722033 19.92115749 5.22722033 19.92115749 3.24609375 18.1796875 C0.78083465 16.88489055 -0.92195569 16.57920558 -3.6875 16.4375 C-6.07421875 16.30859375 -6.07421875 16.30859375 -8 16 C-8.33 15.34 -8.66 14.68 -9 14 C-3.555 13.505 -3.555 13.505 2 13 C-1.3 12.01 -4.6 11.02 -8 10 C-7 5 -7 5 -6 3 C-7.98 3.99 -7.98 3.99 -10 5 C-10.33 4.34 -10.66 3.68 -11 3 C-7.27569643 2.30710631 -3.78916254 1.88855404 0 2 C0 1.34 0 0.68 0 0 Z " fill="#F9F188" transform="translate(43,35)"/>
<path d="M0 0 C1.32 0 2.64 0 4 0 C4.14695312 0.76183594 4.29390625 1.52367187 4.4453125 2.30859375 C6.87573244 13.49690622 11.63723605 21.28247791 21 28 C23.62499631 29.51407637 26.22670605 30.76192234 29 32 C29 32.33 29 32.66 29 33 C16.04177834 33.5661359 16.04177834 33.5661359 11 30 C9.29413425 28.37347684 7.6222454 26.70993434 6 25 C5.01 24.34 4.02 23.68 3 23 C0.08950876 15.53812328 -0.42097287 7.92052665 0 0 Z " fill="#7B7645" transform="translate(10,52)"/>
<path d="M0 0 C0.703125 1.62109375 0.703125 1.62109375 1 4 C-0.328125 6.91015625 -0.328125 6.91015625 -2.25 10.0625 C-2.87390625 11.10535156 -3.4978125 12.14820312 -4.140625 13.22265625 C-5.64547025 15.4704398 -6.91007442 17.30340311 -9 19 C-9.66 19 -10.32 19 -11 19 C-11.495 20.485 -11.495 20.485 -12 22 C-24.46834815 31.34595091 -35.67121875 34.26675585 -51 33 C-59.23941538 31.48699088 -65.78254254 28.63515782 -72 23 C-68.78492651 23 -67.06672534 23.65002623 -64.125 24.875 C-63.28195313 25.22304687 -62.43890625 25.57109375 -61.5703125 25.9296875 C-59.85575717 26.64365127 -58.14855105 27.37552419 -56.44921875 28.125 C-53.99350687 29.00231972 -52.27300388 29.2126442 -49.6875 29.125 C-48.470625 29.08375 -47.25375 29.0425 -46 29 C-45.67 26.36 -45.34 23.72 -45 21 C-44.01 21.33 -43.02 21.66 -42 22 C-42.33 24.31 -42.66 26.62 -43 29 C-24.21337257 26.44796064 -24.21337257 26.44796064 -8.77734375 16.72265625 C-5.29879663 11.39398077 -2.50903109 5.84055912 0 0 Z " fill="#D7D4AA" transform="translate(94,65)"/>
<path d="M0 0 C0.33 0 0.66 0 1 0 C2.33176776 6.80359616 1.95580093 11.36821058 -0.9609375 17.66796875 C-1.91334983 19.80552575 -2.45636659 21.7216918 -2.9375 24 C-3.288125 24.99 -3.63875 25.98 -4 27 C-6.56640625 28.1875 -6.56640625 28.1875 -9 29 C-9.02717692 31.06242617 -9.0464758 33.12495703 -9.0625 35.1875 C-9.07410156 36.33605469 -9.08570313 37.48460937 -9.09765625 38.66796875 C-9.01192832 41.59300586 -8.67849023 44.16316291 -8 47 C-10 46 -10 46 -11.125 42.875 C-13.43879454 32.7016494 -13.37928102 20.22162461 -8 11 C-7.34 11 -6.68 11 -6 11 C-5.7525 10.113125 -5.505 9.22625 -5.25 8.3125 C-3.95611703 4.88371014 -2.45610359 2.69379103 0 0 Z " fill="#C2BF73" transform="translate(17,22)"/>
<path d="M0 0 C6.83036342 1.02214945 12.42409528 5.02334389 17.125 10 C19 13 19 13 18.8125 16.375 C18.544375 17.24125 18.27625 18.1075 18 19 C17.34 19 16.68 19 16 19 C15.71125 18.360625 15.4225 17.72125 15.125 17.0625 C14.17176549 14.84793921 14.17176549 14.84793921 12 14 C11.01 16.97 10.02 19.94 9 23 C5.72724974 23 3.153368 22.70074844 0 22 C-0.33 19.69 -0.66 17.38 -1 15 C1.97 13.68 4.94 12.36 8 11 C8 10.34 8 9.68 8 9 C7.236875 8.5875 6.47375 8.175 5.6875 7.75 C2.40698115 5.61384819 1.50066356 3.55420317 0 0 Z " fill="#F8F283" transform="translate(61,16)"/>
<path d="M0 0 C5.45880929 4.73096805 6.16634534 10.0528778 7 17 C8.65 17.66 10.3 18.32 12 19 C8.25 21 8.25 21 6 21 C5.67 23.31 5.34 25.62 5 28 C4.67 28 4.34 28 4 28 C4 26.02 4 24.04 4 22 C3.39671875 22.2165625 2.7934375 22.433125 2.171875 22.65625 C1.37265625 22.9346875 0.5734375 23.213125 -0.25 23.5 C-1.03890625 23.7784375 -1.8278125 24.056875 -2.640625 24.34375 C-5 25 -5 25 -9 25 C-9.28875 24.38125 -9.5775 23.7625 -9.875 23.125 C-10.93720042 20.86674235 -10.93720042 20.86674235 -13 19 C-12.34 18.34 -11.68 17.68 -11 17 C-10.3574765 14.93125966 -10.3574765 14.93125966 -10 13 C-8.22868439 13.30975468 -6.45796222 13.62290425 -4.6875 13.9375 C-3.70136719 14.11152344 -2.71523437 14.28554688 -1.69921875 14.46484375 C1 15 1 15 4 16 C3.67 14.9275 3.34 13.855 3 12.75 C2 9 2 9 2 5 C0.68 4.67 -0.64 4.34 -2 4 C-1.34 2.68 -0.68 1.36 0 0 Z " fill="#F1E64B" transform="translate(80,31)"/>
<path d="M0 0 C0.28875 0.639375 0.5775 1.27875 0.875 1.9375 C1.82823451 4.15206079 1.82823451 4.15206079 4 5 C2.35 5.33 0.7 5.66 -1 6 C-1.33 8.97 -1.66 11.94 -2 15 C-0.5975 14.67 0.805 14.34 2.25 14 C5.37445544 13.26483401 7.72782865 13 11 13 C11.4640625 14.175625 11.4640625 14.175625 11.9375 15.375 C12.92875038 17.92330128 12.92875038 17.92330128 14 20 C13.01 20.66 12.02 21.32 11 22 C10.67 22.99 10.34 23.98 10 25 C8.22773547 24.71715982 6.457212 24.42339502 4.6875 24.125 C3.70136719 23.96257813 2.71523438 23.80015625 1.69921875 23.6328125 C-1 23 -1 23 -4 21 C-6.32387947 20.60612212 -8.65793749 20.26513915 -11 20 C-9 18 -9 18 -6 17 C-5.07462652 14.3738971 -5.07462652 14.3738971 -4.5 11.25 C-3.60142267 6.90687624 -2.46792064 3.70188095 0 0 Z " fill="#F1E74D" transform="translate(19,31)"/>
<path d="M0 0 C1.24546405 2.49092811 0.7767578 3.41080733 0 6 C0.66 6.33 1.32 6.66 2 7 C1.34 7.66 0.68 8.32 0 9 C-0.64767793 11.57061311 -0.64767793 11.57061311 -1 14 C-1.33 14 -1.66 14 -2 14 C-2 11.03 -2 8.06 -2 5 C-6.11897728 8.13400445 -8.33129895 9.99389686 -10 15 C-10.99 15.495 -10.99 15.495 -12 16 C-15.88091695 22.92918452 -16.57760156 29.51233993 -16.375 37.3125 C-16.37371094 38.27478516 -16.37242188 39.23707031 -16.37109375 40.22851562 C-16.29702141 46.17487876 -15.98044116 50.5574559 -12.125 55.3125 C-10.30720919 57.61147073 -9.34900674 59.31538607 -8.1875 61.9375 C-6.06579781 66.42801026 -2.93883526 69.07906599 1 72 C-0.98 72.495 -0.98 72.495 -3 73 C-4.51193905 71.42806337 -6.00921421 69.84201199 -7.5 68.25 C-8.3353125 67.36828125 -9.170625 66.4865625 -10.03125 65.578125 C-12 63 -12 63 -12 59 C-12.66 59 -13.32 59 -14 59 C-14.66 57.35 -15.32 55.7 -16 54 C-16.66 54.66 -17.32 55.32 -18 56 C-20.83543093 44.75124124 -20.03481332 31.54863258 -16.8125 20.5 C-16.61640137 19.81325195 -16.42030273 19.12650391 -16.21826172 18.41894531 C-14.71412763 13.80842225 -12.6131339 11.16686885 -9 8 C-8.18917969 7.26136719 -7.37835938 6.52273437 -6.54296875 5.76171875 C-5.76566406 5.07722656 -4.98835938 4.39273437 -4.1875 3.6875 C-3.39730469 2.99011719 -2.60710938 2.29273438 -1.79296875 1.57421875 C-1.20128906 1.05472656 -0.60960938 0.53523437 0 0 Z M9 0 C9.66 0.33 10.32 0.66 11 1 C8.69 2.65 6.38 4.3 4 6 C3.34 5.67 2.68 5.34 2 5 C4.11562225 2.67281553 6.05017979 1.14186589 9 0 Z " fill="#E9E7AB" transform="translate(21,14)"/>
<path d="M0 0 C8.4 1.2 8.4 1.2 11 3 C11.33 3.99 11.66 4.98 12 6 C13.95597184 7.39712274 15.95436401 8.73779907 18 10 C14.39042389 13.2910841 11.87362847 14.54663921 7 15 C7.99 16.485 7.99 16.485 9 18 C9 18.99 9 19.98 9 21 C5.66666667 19.66666667 2.33333333 18.33333333 -1 17 C-1 16.01 -1 15.02 -1 14 C0.32 14 1.64 14 3 14 C2.01 9.38 1.02 4.76 0 0 Z " fill="#D4CF75" transform="translate(53,16)"/>
<path d="M0 0 C1.30045636 2.60091273 0.78732009 3.7055536 0.125 6.5 C-0.05804688 7.2940625 -0.24109375 8.088125 -0.4296875 8.90625 C-1 11 -1 11 -2 13 C-0.68 13 0.64 13 2 13 C2.33 14.32 2.66 15.64 3 17 C-0.3 18.32 -3.6 19.64 -7 21 C-6.67 19.02 -6.34 17.04 -6 15 C-6.63808594 14.81824219 -7.27617188 14.63648438 -7.93359375 14.44921875 C-8.75988281 14.19785156 -9.58617187 13.94648438 -10.4375 13.6875 C-11.26121094 13.44386719 -12.08492187 13.20023438 -12.93359375 12.94921875 C-13.61550781 12.63597656 -14.29742188 12.32273437 -15 12 C-15.33 11.01 -15.66 10.02 -16 9 C-14.7934375 8.38125 -14.7934375 8.38125 -13.5625 7.75 C-10.55795583 6.11418753 -10.55795583 6.11418753 -10 2 C-6.7 1.34 -3.4 0.68 0 0 Z " fill="#D4D075" transform="translate(46,16)"/>
<path d="M0 0 C0.99 0 1.98 0 3 0 C3.67154933 1.28913487 4.33708859 2.58140204 5 3.875 C5.37125 4.59429687 5.7425 5.31359375 6.125 6.0546875 C7 8 7 8 7 10 C4.83125748 9.49396008 3.00032373 9.00016187 1 8 C0.80664062 8.62648438 0.61328125 9.25296875 0.4140625 9.8984375 C0.15367188 10.71570312 -0.10671875 11.53296875 -0.375 12.375 C-0.63023438 13.18710938 -0.88546875 13.99921875 -1.1484375 14.8359375 C-2 17 -2 17 -4 19 C-4.32613281 18.50628906 -4.65226562 18.01257813 -4.98828125 17.50390625 C-5.42527344 16.86324219 -5.86226562 16.22257812 -6.3125 15.5625 C-6.74175781 14.92441406 -7.17101562 14.28632812 -7.61328125 13.62890625 C-9.0034052 11.7114316 -9.0034052 11.7114316 -12 11 C-13.4783226 8.04335481 -13.06032783 5.25770263 -13 2 C-11.56208484 2.14168137 -10.1246763 2.28851043 -8.6875 2.4375 C-7.88699219 2.51871094 -7.08648437 2.59992187 -6.26171875 2.68359375 C-4 3 -4 3 -1 4 C-0.67 2.68 -0.34 1.36 0 0 Z " fill="#756C20" transform="translate(30,52)"/>
<path d="M0 0 C0.66 0 1.32 0 2 0 C1.67 1.98 1.34 3.96 1 6 C5.455 7.98 5.455 7.98 10 10 C9.195625 10.763125 8.39125 11.52625 7.5625 12.3125 C4.83200976 14.79430898 4.83200976 14.79430898 4 18 C0.02436956 20.02532117 -2.5050702 21 -7 21 C-6.01 16.71 -5.02 12.42 -4 8 C-5.32 7.67 -6.64 7.34 -8 7 C-8 6.01 -8 5.02 -8 4 C-6.865625 3.525625 -5.73125 3.05125 -4.5625 2.5625 C-1.24259834 1.36377917 -1.24259834 1.36377917 0 0 Z " fill="#524B16" transform="translate(60,63)"/>
<path d="M0 0 C0.495 0.99 0.495 0.99 1 2 C-5.60048571 10.40061818 -10.99810693 14.70199385 -21.625 16.875 C-23.0171875 17.19210938 -23.0171875 17.19210938 -24.4375 17.515625 C-28.71964958 18.46039726 -32.59946538 19.11047776 -37 19 C-37 16.69 -37 14.38 -37 12 C-34.46132013 10.73066006 -32.39613545 10.70635057 -29.5625 10.5 C-28.48613281 10.41363281 -27.40976562 10.32726562 -26.30078125 10.23828125 C-24.21636859 10.08780886 -22.13031378 9.95749222 -20.04296875 9.85546875 C-12.43896529 9.39816505 -6.74197393 8.01617132 -1.5 2.25 C-1.005 1.5075 -0.51 0.765 0 0 Z " fill="#BBB99A" transform="translate(88,75)"/>
<path d="M0 0 C3.3 0.99 6.6 1.98 10 3 C9.67 3.99 9.34 4.98 9 6 C7.68 6 6.36 6 5 6 C5.99 10.29 6.98 14.58 8 19 C0.3828125 18.609375 0.3828125 18.609375 -2 18 C-3.15625 16.125 -3.15625 16.125 -4 14 C-5.62746694 12.29503463 -7.28891311 10.62102968 -9 9 C-7.71086513 8.32845067 -6.41859796 7.66291141 -5.125 7 C-4.40570313 6.62875 -3.68640625 6.2575 -2.9453125 5.875 C-1 5 -1 5 1 5 C0.67 3.35 0.34 1.7 0 0 Z " fill="#7A6213" transform="translate(39,64)"/>
<path d="M0 0 C1.32 0.66 2.64 1.32 4 2 C4 2.99 4 3.98 4 5 C5.051875 4.67 6.10375 4.34 7.1875 4 C10.38873357 3.16033218 12.7411008 2.80249096 16 3 C15.93993922 4.45947705 15.8511311 5.91779272 15.75 7.375 C15.68039063 8.59316406 15.68039063 8.59316406 15.609375 9.8359375 C15 12 15 12 13.0546875 13.125 C12.37664062 13.41375 11.69859375 13.7025 11 14 C9.97695052 15.65261839 8.97383946 17.31791365 8 19 C7.34 19 6.68 19 6 19 C4.68 16.03 3.36 13.06 2 10 C0.02 10.33 -1.96 10.66 -4 11 C-3.71125 10.29875 -3.4225 9.5975 -3.125 8.875 C-1.97866412 5.94547497 -0.97374346 2.99078347 0 0 Z " fill="#7B7020" transform="translate(67,51)"/>
<path d="M0 0 C-1.36407288 2.72814575 -2.64872618 2.71507482 -5.5 3.6875 C-13.07726377 6.59682191 -19.33410836 11.30545982 -24 18 C-24.66 15.69 -25.32 13.38 -26 11 C-29.11907866 13.8071708 -30.52686579 16.10671674 -32 20 C-32.66 20.33 -33.32 20.66 -34 21 C-36.87860603 26.92654182 -37.13830349 32.93874591 -37.125 39.4375 C-37.12886719 41.32275391 -37.12886719 41.32275391 -37.1328125 43.24609375 C-37.00243134 46.93127902 -36.59062733 50.36717317 -36 54 C-38 53 -38 53 -38.60791016 51.23852539 C-40.65538936 39.54902552 -40.76551374 26.09994552 -34 16 C-33.34 16 -32.68 16 -32 16 C-31.7525 15.0925 -31.505 14.185 -31.25 13.25 C-29.95193799 9.87503877 -28.78028159 8.25897879 -26 6 C-25.34 6 -24.68 6 -24 6 C-23.67 7.32 -23.34 8.64 -23 10 C-22.55269531 9.60167969 -22.10539062 9.20335937 -21.64453125 8.79296875 C-14.42910934 2.46985914 -9.71679007 -0.18686135 0 0 Z " fill="#D6D48E" transform="translate(43,13)"/>
<path d="M0 0 C0 0.33 0 0.66 0 1 C-1.13888672 1.05607422 -1.13888672 1.05607422 -2.30078125 1.11328125 C-3.79158203 1.21189453 -3.79158203 1.21189453 -5.3125 1.3125 C-6.79169922 1.39951172 -6.79169922 1.39951172 -8.30078125 1.48828125 C-11.35135509 2.06661001 -11.93176838 2.83907453 -14 5 C-15.32 5 -16.64 5 -18 5 C-18.33 4.34 -18.66 3.68 -19 3 C-21.54941373 2.68758629 -24.00361513 2.48696579 -26.5625 2.375 C-27.62887695 2.31699219 -27.62887695 2.31699219 -28.71679688 2.2578125 C-30.47742425 2.16328217 -32.23867728 2.08054183 -34 2 C-25.18019171 -8.09470949 -10.47547639 -6.01369941 0 0 Z " fill="#FEFEFB" transform="translate(66,8)"/>
<path d="M0 0 C0.7425 0.433125 0.7425 0.433125 1.5 0.875 C7.7270681 3.67718064 14.13907728 4.36252127 20.875 4.6875 C21.63296875 4.73455078 22.3909375 4.78160156 23.171875 4.83007812 C27.21098295 5.15737265 27.21098295 5.15737265 31 4 C31.09765625 10.15234375 31.09765625 10.15234375 31 12 C30 13 30 13 26.625 13.3125 C17.55868764 13.16653075 8.88925177 8.67795476 2 3 C1.34 2.01 0.68 1.02 0 0 Z " fill="#B5B395" transform="translate(18,82)"/>
<path d="M0 0 C8.79025636 -0.54862904 14.23639054 -0.86179487 21 5 C21.99 4.67 22.98 4.34 24 4 C24.33 3.34 24.66 2.68 25 2 C27.49118953 5.7367843 27.2065226 7.74451819 27.125 12.1875 C27.10695313 13.45980469 27.08890625 14.73210938 27.0703125 16.04296875 C27.04710938 17.01878906 27.02390625 17.99460937 27 19 C26.40960938 18.23945313 25.81921875 17.47890625 25.2109375 16.6953125 C21.04767083 11.61995207 16.20815305 7.34530226 10 5 C7.85744207 5.38932856 7.85744207 5.38932856 6 6 C5.01 5.34 4.02 4.68 3 4 C3.33 3.67 3.66 3.34 4 3 C2.35 2.67 0.7 2.34 -1 2 C-0.67 1.34 -0.34 0.68 0 0 Z " fill="#EAE8A2" transform="translate(54,12)"/>
<path d="M0 0 C3.02554265 0.52738817 4.37098143 1.9252853 6.12890625 4.37109375 C1.67390625 4.86609375 1.67390625 4.86609375 -2.87109375 5.37109375 C-2.87109375 6.03109375 -2.87109375 6.69109375 -2.87109375 7.37109375 C-4.19109375 7.37109375 -5.51109375 7.37109375 -6.87109375 7.37109375 C-6.93296875 8.13421875 -6.99484375 8.89734375 -7.05859375 9.68359375 C-7.87109375 12.37109375 -7.87109375 12.37109375 -10.18359375 14.18359375 C-12.87109375 15.37109375 -12.87109375 15.37109375 -16.87109375 15.37109375 C-16.99484375 16.11359375 -17.11859375 16.85609375 -17.24609375 17.62109375 C-17.82596076 20.1725086 -18.60818114 22.09785105 -19.87109375 24.37109375 C-20.53109375 24.37109375 -21.19109375 24.37109375 -21.87109375 24.37109375 C-22.74609375 21.80859375 -22.74609375 21.80859375 -22.87109375 18.37109375 C-18.04033168 9.96335518 -9.7834736 5.97625094 -0.87109375 3.37109375 C-4.17109375 3.37109375 -7.47109375 3.37109375 -10.87109375 3.37109375 C-6.48051011 0.07815602 -5.1458511 -0.14411774 0 0 Z " fill="#F3F197" transform="translate(42.87109375,10.62890625)"/>
<path d="M0 0 C0.99 0 1.98 0 3 0 C4.78859316 7.42954081 2.92010905 11.592343 -1 18 C-5.13753189 24.50183583 -12.91890996 29.20049928 -20 32 C-22.375 31.6875 -22.375 31.6875 -24 31 C-21.38058783 29.25372522 -19.96175123 28.61277612 -17 28 C-16.95875 27.4225 -16.9175 26.845 -16.875 26.25 C-15.52972773 22.79072845 -13.1826952 21.71865541 -10 20 C-9.01 20.33 -8.02 20.66 -7 21 C-7.33 19.68 -7.66 18.36 -8 17 C-7.34 17 -6.68 17 -6 17 C-5.71125 16.21625 -5.4225 15.4325 -5.125 14.625 C-4 12 -4 12 -2 10 C-1.01 10 -0.02 10 1 10 C1.33 7.03 1.66 4.06 2 1 C1.34 0.67 0.68 0.34 0 0 Z " fill="#C6BE55" transform="translate(81,53)"/>
<path d="M0 0 C3.96 0 7.92 0 12 0 C10.02 0.99 10.02 0.99 8 2 C13.445 2.495 13.445 2.495 19 3 C19 3.66 19 4.32 19 5 C18.31292969 5.04898438 17.62585938 5.09796875 16.91796875 5.1484375 C16.01691406 5.22320312 15.11585937 5.29796875 14.1875 5.375 C13.29417969 5.44460937 12.40085937 5.51421875 11.48046875 5.5859375 C8.75601501 5.86645036 8.75601501 5.86645036 6 8 C5.19663887 10.87759068 5.19663887 10.87759068 4.8125 14.125 C4.57466797 15.76855469 4.57466797 15.76855469 4.33203125 17.4453125 C4.16767578 18.70988281 4.16767578 18.70988281 4 20 C3.34 20 2.68 20 2 20 C1.97421875 19.24074219 1.9484375 18.48148438 1.921875 17.69921875 C1.86515625 16.70535156 1.8084375 15.71148437 1.75 14.6875 C1.70359375 13.70136719 1.6571875 12.71523438 1.609375 11.69921875 C1.22722033 8.92115749 1.22722033 8.92115749 -0.75390625 7.1796875 C-3.21916535 5.88489055 -4.92195569 5.57920558 -7.6875 5.4375 C-10.07421875 5.30859375 -10.07421875 5.30859375 -12 5 C-12.33 4.34 -12.66 3.68 -13 3 C-6.565 2.505 -6.565 2.505 0 2 C0 1.34 0 0.68 0 0 Z " fill="#F9F47C" transform="translate(47,46)"/>
<path d="M0 0 C-1.46293216 2.92586433 -3.40270098 3.05946588 -6.4375 4.125 C-7.42621094 4.47820313 -8.41492188 4.83140625 -9.43359375 5.1953125 C-12 6 -12 6 -14 6 C-14 6.99 -14 7.98 -14 9 C-12.02 9 -10.04 9 -8 9 C-10.29688349 10.53125566 -12.60192071 12.02961611 -14.9375 13.5 C-15.60652344 13.9228125 -16.27554687 14.345625 -16.96484375 14.78125 C-18.93519929 15.9611942 -20.93291023 17.00113783 -23 18 C-22.67 16.02 -22.34 14.04 -22 12 C-26.455 15.96 -26.455 15.96 -31 20 C-31 17 -31 17 -29.64453125 15.5703125 C-28.73767578 14.85488281 -28.73767578 14.85488281 -27.8125 14.125 C-25.52367414 12.27932006 -23.61110798 10.57017197 -21.625 8.375 C-18.11671752 5.20083966 -14.35852883 3.72591379 -10 2 C-9.0925 1.5875 -8.185 1.175 -7.25 0.75 C-4.72024175 -0.09325275 -2.64931572 -0.15138947 0 0 Z " fill="#F6F4C6" transform="translate(43,3)"/>
<path d="M0 0 C0.78375 0.04125 1.5675 0.0825 2.375 0.125 C3.56787411 4.00184087 4.375 7.04121923 4.375 11.125 C2.60368439 10.81524532 0.83296222 10.50209575 -0.9375 10.1875 C-1.92363281 10.01347656 -2.90976563 9.83945312 -3.92578125 9.66015625 C-6.625 9.125 -6.625 9.125 -9.625 8.125 C-9.955 9.775 -10.285 11.425 -10.625 13.125 C-11.285 13.125 -11.945 13.125 -12.625 13.125 C-12.955 11.475 -13.285 9.825 -13.625 8.125 C-12.99851562 7.71507812 -12.37203125 7.30515625 -11.7265625 6.8828125 C-10.90929687 6.34398437 -10.09203125 5.80515625 -9.25 5.25 C-8.03183594 4.44949219 -8.03183594 4.44949219 -6.7890625 3.6328125 C-1.69067797 0.08050847 -1.69067797 0.08050847 0 0 Z " fill="#9E962C" transform="translate(79.625,35.875)"/>
<path d="M0 0 C2 3 2 3 1.8125 5.1875 C0.94936677 8.17526886 -0.11053913 11.03195385 -1.234375 13.9296875 C-2.33674477 16.91058534 -3.16941929 19.93324044 -4 23 C-5.98 23 -7.96 23 -10 23 C-9.28222663 16.89892638 -8.61386172 12.24475278 -4 8 C-1.80298602 5.38048334 -0.60342996 3.37920779 0 0 Z " fill="#9E9A46" transform="translate(17,26)"/>
<path d="M0 0 C2.33764007 1.39392612 4.60494981 2.85776017 6.859375 4.3828125 C8.05820312 5.19105469 8.05820312 5.19105469 9.28125 6.015625 C9.88453125 6.42554688 10.4878125 6.83546875 11.109375 7.2578125 C10.779375 8.9078125 10.449375 10.5578125 10.109375 12.2578125 C9.119375 11.9278125 8.129375 11.5978125 7.109375 11.2578125 C7.109375 9.9378125 7.109375 8.6178125 7.109375 7.2578125 C0.179375 8.7428125 0.179375 8.7428125 -6.890625 10.2578125 C-6.230625 6.9578125 -5.570625 3.6578125 -4.890625 0.2578125 C-1.890625 -0.7421875 -1.890625 -0.7421875 0 0 Z " fill="#96851E" transform="translate(22.890625,36.7421875)"/>
<path d="M0 0 C6.83036342 1.02214945 12.42409528 5.02334389 17.125 10 C19 13 19 13 18.8125 16.375 C18.544375 17.24125 18.27625 18.1075 18 19 C17.34 19 16.68 19 16 19 C13 13.375 13 13.375 13 10 C12.01 10.33 11.02 10.66 10 11 C4.8986583 8.66961436 2.05077853 5.18726335 0 0 Z " fill="#F2F092" transform="translate(61,16)"/>
<path d="M0 0 C0.33 0 0.66 0 1 0 C1.377045 6.15840165 1.04381607 10.56461416 -2 16 C-5.3526637 19.73950951 -10.25617083 20.1384071 -15 21 C-13.71937515 19.2925002 -12.38232443 17.62626404 -11 16 C-10.34 16 -9.68 16 -9 16 C-8.7215625 15.4225 -8.443125 14.845 -8.15625 14.25 C-6.68204255 11.38127198 -4.95727297 8.71379195 -3.21875 6 C-2.02744311 4.04503484 -0.99381218 2.06124007 0 0 Z " fill="#76714E" transform="translate(85,60)"/>
<path d="M0 0 C2.1682057 2.1682057 2.93954961 3.90623172 4.1875 6.6875 C8.8910498 16.16276698 15.67228483 20.39517859 25 25 C21.79340824 26.06886392 20.64974031 25.9485432 17.4375 25.25 C16.65246094 25.09015625 15.86742187 24.9303125 15.05859375 24.765625 C13 24 13 24 11 21 C10.195625 20.54625 9.39125 20.0925 8.5625 19.625 C4.89068637 17.29653282 3.38624918 14.71666303 2.4375 10.5 C2.293125 9.675 2.14875 8.85 2 8 C1.649375 7.13375 1.29875 6.2675 0.9375 5.375 C0 3 0 3 0 0 Z " fill="#6A653C" transform="translate(14,59)"/>
<path d="M0 0 C2.9375 0.8125 2.9375 0.8125 6 2 C6.495 3.485 6.495 3.485 7 5 C6.02417969 5.04898437 5.04835937 5.09796875 4.04296875 5.1484375 C2.77066406 5.22320313 1.49835938 5.29796875 0.1875 5.375 C-1.70935547 5.47941406 -1.70935547 5.47941406 -3.64453125 5.5859375 C-7.12755234 5.76102939 -7.12755234 5.76102939 -10 8 C-13.0625 8.25 -13.0625 8.25 -16 8 C-16.66 7.34 -17.32 6.68 -18 6 C-20.74485593 5.85492305 -23.38480543 5.81347577 -26.125 5.875 C-27.25615234 5.88853516 -27.25615234 5.88853516 -28.41015625 5.90234375 C-30.27357254 5.9259313 -32.13682593 5.96180281 -34 6 C-34 5.01 -34 4.02 -34 3 C-32.02 2.34 -30.04 1.68 -28 1 C-28.33 1.66 -28.66 2.32 -29 3 C-24.71 3.33 -20.42 3.66 -16 4 C-15.67 4.99 -15.34 5.98 -15 7 C-13.68 7 -12.36 7 -11 7 C-10.67 6.01 -10.34 5.02 -10 4 C-7.70370006 2.85185003 -5.92301914 2.69230191 -3.375 2.4375 C-2.14910156 2.31181641 -2.14910156 2.31181641 -0.8984375 2.18359375 C0.04128906 2.09271484 0.04128906 2.09271484 1 2 C0.505 1.01 0.505 1.01 0 0 Z " fill="#F9F8D1" transform="translate(63,6)"/>
<path d="M0 0 C1.32 0 2.64 0 4 0 C4 0.66 4 1.32 4 2 C6.97 2.495 6.97 2.495 10 3 C10 3.66 10 4.32 10 5 C11.32 4.67 12.64 4.34 14 4 C14.66 6.31 15.32 8.62 16 11 C14.3739713 10.93999894 12.74898451 10.8512115 11.125 10.75 C9.76761719 10.68039063 9.76761719 10.68039063 8.3828125 10.609375 C6 10 6 10 4.84375 8.125 C4.5653125 7.42375 4.286875 6.7225 4 6 C2.37253306 4.29503463 0.71108689 2.62102968 -1 1 C-0.67 0.67 -0.34 0.34 0 0 Z " fill="#524A15" transform="translate(31,72)"/>
<path d="M0 0 C2.9375 0.375 2.9375 0.375 6 1 C7.20272819 3.40545638 7.10071472 4.94996953 7.0625 7.625 C7.05347656 8.44226562 7.04445313 9.25953125 7.03515625 10.1015625 C7.02355469 10.72804688 7.01195312 11.35453125 7 12 C7.61230469 12.10828125 8.22460938 12.2165625 8.85546875 12.328125 C11 13 11 13 13.3125 15.75 C15 19 15 19 14.75 21.875 C14.37875 22.926875 14.37875 22.926875 14 24 C8.58480851 20.59616535 6.1841106 15.83845907 4 10 C3.38272808 6.94067421 3.15149385 4.13087286 3 1 C2.01 0.67 1.02 0.34 0 0 Z " fill="#CAC355" transform="translate(11,51)"/>
<path d="M0 0 C-1.36407288 2.72814575 -2.64872618 2.71507482 -5.5 3.6875 C-13.07726377 6.59682191 -19.33410836 11.30545982 -24 18 C-23.88052404 11.07039446 -23.88052404 11.07039446 -21.55078125 8.23828125 C-14.5679631 2.2248782 -9.22818639 -0.17746512 0 0 Z " fill="#E4E192" transform="translate(43,13)"/>
<path d="M0 0 C3 1 3 1 3.94921875 2.84765625 C4.19285156 3.57855469 4.43648437 4.30945312 4.6875 5.0625 C4.93886719 5.79597656 5.19023437 6.52945313 5.44921875 7.28515625 C5.63097656 7.85105469 5.81273437 8.41695312 6 9 C7.98 8.67 9.96 8.34 12 8 C11.34 9.98 10.68 11.96 10 14 C5.41774603 13.72228764 2.63265351 11.66351418 -0.6796875 8.6953125 C-2 7 -2 7 -2 3.6875 C-1 1 -1 1 0 0 Z " fill="#D8D28B" transform="translate(25,30)"/>
<path d="M0 0 C0.703125 1.62109375 0.703125 1.62109375 1 4 C-0.328125 6.91015625 -0.328125 6.91015625 -2.25 10.0625 C-3.18585938 11.62677734 -3.18585938 11.62677734 -4.140625 13.22265625 C-5.64547025 15.4704398 -6.91007442 17.30340311 -9 19 C-9.66 19 -10.32 19 -11 19 C-11.33 19.99 -11.66 20.98 -12 22 C-26.25285569 32.68357156 -26.25285569 32.68357156 -34 32 C-33.44183594 31.73058594 -32.88367187 31.46117188 -32.30859375 31.18359375 C-29.82321105 29.90936201 -27.45149055 28.50914605 -25.0625 27.0625 C-24.22847656 26.55847656 -23.39445312 26.05445312 -22.53515625 25.53515625 C-21.69855469 25.02855469 -20.86195312 24.52195312 -20 24 C-19.15050781 23.49984375 -18.30101563 22.9996875 -17.42578125 22.484375 C-8.13147679 16.79703894 -4.29576207 9.67888891 0 0 Z " fill="#E0DFC3" transform="translate(94,65)"/>
<path d="M0 0 C3.77545388 1.09068668 6.47043472 1.9083091 9 5 C7.35 5.66 5.7 6.32 4 7 C4.99 8.485 4.99 8.485 6 10 C6 10.99 6 11.98 6 13 C2.66666667 11.66666667 -0.66666667 10.33333333 -4 9 C-4 8.01 -4 7.02 -4 6 C-2.68 6 -1.36 6 0 6 C0 4.02 0 2.04 0 0 Z " fill="#BC9D5D" transform="translate(56,24)"/>
<path d="M0 0 C0.66 0.33 1.32 0.66 2 1 C1.01 1.33 0.02 1.66 -1 2 C-1.33 2.99 -1.66 3.98 -2 5 C-2.83402344 5.06058594 -3.66804688 5.12117188 -4.52734375 5.18359375 C-15.56506245 5.34373253 -15.56506245 5.34373253 -26 8 C-26 6.35 -26 4.7 -26 3 C-25.18917969 2.93941406 -24.37835938 2.87882812 -23.54296875 2.81640625 C-20.02813816 2.55044119 -16.51397637 2.27701974 -13 2 C-11.39511719 1.87431641 -11.39511719 1.87431641 -9.7578125 1.74609375 C-8.78585938 1.66488281 -7.81390625 1.58367187 -6.8125 1.5 C-5.49185547 1.39171875 -5.49185547 1.39171875 -4.14453125 1.28125 C-1.9529116 1.11275187 -1.9529116 1.11275187 0 0 Z " fill="#A7A488" transform="translate(78,83)"/>
<path d="M0 0 C0.99 0.33 1.98 0.66 3 1 C4.1875 3.5625 4.1875 3.5625 5 6 C3.75803878 7.15454162 2.50607155 8.29832562 1.25 9.4375 C0.55390625 10.07558594 -0.1421875 10.71367188 -0.859375 11.37109375 C-2.98792725 12.99081325 -4.39023405 13.58267256 -7 14 C-10 10.25 -10 10.25 -10 8 C-7.03 8.495 -7.03 8.495 -4 9 C-2.68 6.03 -1.36 3.06 0 0 Z " fill="#D9D18C" transform="translate(73,30)"/>
<path d="M0 0 C5.45663778 1.73015344 10.73811501 3.69443868 15.70703125 6.5625 C19.67807821 8.29600567 22.91070002 8.47972323 27.1875 8.5625 C34.61652941 8.74435294 34.61652941 8.74435294 38 11 C24.49721702 11.58215591 12.27988441 11.21763782 1.29296875 2.26953125 C0.86628906 1.85058594 0.43960937 1.43164062 0 1 C0 0.67 0 0.34 0 0 Z " fill="#DEDDC3" transform="translate(22,87)"/>
<path d="M0 0 C0.65355469 0.59748047 0.65355469 0.59748047 1.3203125 1.20703125 C9.10114408 8.12893986 14.62561719 9.59591755 25 9 C27.69334721 8.75290393 30.32512481 8.41151926 33 8 C33.495 10.475 33.495 10.475 34 13 C9.0057917 12.21808841 9.0057917 12.21808841 2 5 C0.6875 2.25 0.6875 2.25 0 0 Z " fill="#949074" transform="translate(14,75)"/>
<path d="M0 0 C1.32 0.33 2.64 0.66 4 1 C3.96519531 2.14275391 3.96519531 2.14275391 3.9296875 3.30859375 C3.44860792 14.62220455 3.44860792 14.62220455 8.125 24.4375 C8.74375 24.953125 9.3625 25.46875 10 26 C10 26.66 10 27.32 10 28 C6.55655825 26.85218608 5.31871326 25.75700662 3 23 C0.03946862 15.56553126 -0.42045289 7.91074318 0 0 Z " fill="#8C874A" transform="translate(10,52)"/>
<path d="M0 0 C1.32 0 2.64 0 4 0 C4.38878143 13.34816248 4.38878143 13.34816248 2 18 C1.01 18.33 0.02 18.66 -1 19 C-1.02714735 16.77090129 -1.04646254 14.54170633 -1.0625 12.3125 C-1.07990234 10.45044922 -1.07990234 10.45044922 -1.09765625 8.55078125 C-1.01478673 5.53764546 -0.70839449 2.91724661 0 0 Z " fill="#888447" transform="translate(86,52)"/>
<path d="M0 0 C1.23098442 3.9167686 0.83220851 7.02389268 0 11 C-0.33 9.68 -0.66 8.36 -1 7 C-2.79232337 7.30871122 -4.58384321 7.62209064 -6.375 7.9375 C-7.37273438 8.11152344 -8.37046875 8.28554688 -9.3984375 8.46484375 C-11.96909656 8.87712062 -11.96909656 8.87712062 -14 10 C-13.67 9.01 -13.34 8.02 -13 7 C-10.47524538 5.73762269 -8.68799534 5.90143596 -5.875 5.9375 C-4.96492188 5.94652344 -4.05484375 5.95554687 -3.1171875 5.96484375 C-2.41851562 5.97644531 -1.71984375 5.98804688 -1 6 C-1 5.34 -1 4.68 -1 4 C-4.63 4 -8.26 4 -12 4 C-12.33 3.34 -12.66 2.68 -13 2 C-11.21089097 1.47044766 -9.41860852 0.9516063 -7.625 0.4375 C-6.62726562 0.14746094 -5.62953125 -0.14257812 -4.6015625 -0.44140625 C-2 -1 -2 -1 0 0 Z " fill="#EFDF3A" transform="translate(67,45)"/>
<path d="M0 0 C0.33 1.32 0.66 2.64 1 4 C2.32 4 3.64 4 5 4 C5.33 5.32 5.66 6.64 6 8 C2.7 9.32 -0.6 10.64 -4 12 C-3.67 10.02 -3.34 8.04 -3 6 C-3.99 5.67 -4.98 5.34 -6 5 C-2.25 2 -2.25 2 0 2 C0 1.34 0 0.68 0 0 Z " fill="#BFA15E" transform="translate(43,25)"/>
<path d="M0 0 C2 1.3125 2 1.3125 4 3 C4 3.99 4 4.98 4 6 C4.66 6 5.32 6 6 6 C6.66666667 7.33333333 7.33333333 8.66666667 8 10 C8.53625 11.010625 9.0725 12.02125 9.625 13.0625 C11 16 11 16 11 19 C9.33388095 19.042721 7.66617115 19.04063832 6 19 C4.41219096 17.41219096 4.49672275 15.49392559 4.125 13.3125 C3.33048826 9.10519919 2.07446303 5.77175096 0 2 C0 1.34 0 0.68 0 0 Z " fill="#A5A03E" transform="translate(81,30)"/>
<path d="M0 0 C2.5 2.3125 2.5 2.3125 5 5 C5 5.99 5 6.98 5 8 C5.60199219 8.25007813 6.20398438 8.50015625 6.82421875 8.7578125 C9.32076131 10.18312764 10.29952237 11.45240742 11.8125 13.875 C12.25207031 14.55304687 12.69164063 15.23109375 13.14453125 15.9296875 C14.16843185 18.40762047 13.90457722 19.52489914 13 22 C9 16.375 9 16.375 9 13 C8.01 13 7.02 13 6 13 C5.67 12.01 5.34 11.02 5 10 C4.34 9.67 3.68 9.34 3 9 C2.34 9.99 1.68 10.98 1 12 C0.67 8.04 0.34 4.08 0 0 Z " fill="#D5D17D" transform="translate(80,17)"/>
<path d="M0 0 C1.15227823 0.76116551 2.2966386 1.53432693 3.4375 2.3125 C4.07558594 2.74175781 4.71367188 3.17101562 5.37109375 3.61328125 C7 5 7 5 8 8 C10.50447516 9.21869929 10.50447516 9.21869929 13 10 C13 10.33 13 10.66 13 11 C6.32646591 10.71601983 2.28922815 7.92194468 -3 4 C-2.67 3.01 -2.34 2.02 -2 1 C-1.34 0.67 -0.68 0.34 0 0 Z " fill="#C3BB53" transform="translate(29,73)"/>
<path d="M0 0 C0.99 0 1.98 0 3 0 C3.67154933 1.28913487 4.33708859 2.58140204 5 3.875 C5.37125 4.59429687 5.7425 5.31359375 6.125 6.0546875 C7 8 7 8 7 10 C4.83125748 9.49396008 3.00032373 9.00016187 1 8 C0.67 8.66 0.34 9.32 0 10 C-0.99 10.495 -0.99 10.495 -2 11 C-1.979375 10.21625 -1.95875 9.4325 -1.9375 8.625 C-1.81315937 6.01885039 -1.81315937 6.01885039 -3 4 C-2.34 4 -1.68 4 -1 4 C-0.67 2.68 -0.34 1.36 0 0 Z " fill="#9F740B" transform="translate(30,52)"/>
<path d="M0 0 C0.7425 0.433125 0.7425 0.433125 1.5 0.875 C7.79149175 3.70617129 14.19837952 4.34209031 21 4.625 C21.77472656 4.66367188 22.54945312 4.70234375 23.34765625 4.7421875 C25.23143415 4.83521357 27.11568256 4.91863175 29 5 C29.33 5.66 29.66 6.32 30 7 C23.80874667 8.23825067 18.36551818 7.86161616 12.1875 6.875 C11.44636963 6.77018311 10.70523926 6.66536621 9.94165039 6.55737305 C6.09585003 5.88137564 4.22320978 5.23258251 1.48828125 2.3828125 C0.99714844 1.59648438 0.50601562 0.81015625 0 0 Z " fill="#A4A285" transform="translate(18,82)"/>
<path d="M0 0 C2.70133777 1.28833032 5.10643472 2.7346988 7.5625 4.4375 C12.36701811 7.50730552 17.48468274 8.75297055 23 10 C19.58442084 10.9883378 17.4731482 10.73118909 14 10 C13.01 10.495 13.01 10.495 12 11 C9.3984375 9.78515625 9.3984375 9.78515625 6.375 8.0625 C5.37210938 7.49660156 4.36921875 6.93070312 3.3359375 6.34765625 C2.56507812 5.90292969 1.79421875 5.45820312 1 5 C1 4.01 1 3.02 1 2 C0.67 1.34 0.34 0.68 0 0 Z " fill="#F1F1E0" transform="translate(20,87)"/>
<path d="M0 0 C0.66 0 1.32 0 2 0 C2.41790114 9.14739159 2.33351304 17.22439035 -3.6875 24.5625 C-4.450625 25.366875 -5.21375 26.17125 -6 27 C-6 24 -6 24 -4.078125 20.87109375 C-1.5979664 16.71453164 -1.14162948 12.82324584 -0.75 8.0625 C-0.67265625 7.28326172 -0.5953125 6.50402344 -0.515625 5.70117188 C-0.3292181 3.8021516 -0.16253334 1.90121236 0 0 Z " fill="#999565" transform="translate(90,52)"/>
<path d="M0 0 C1.20703125 1.65625 1.20703125 1.65625 2 4 C0.69921875 6.65625 0.69921875 6.65625 -1.3125 9.5 C-4.44665238 13.9070732 -4.44665238 13.9070732 -6 19 C-6.66 19 -7.32 19 -8 19 C-8.33 20.32 -8.66 21.64 -9 23 C-10.05543251 19.81230857 -9.97424908 18.05213369 -8.75 14.9375 C-8.37101563 13.93009766 -8.37101563 13.93009766 -7.984375 12.90234375 C-6.91271234 10.83131313 -5.70633795 9.57233235 -4 8 C-1.80298602 5.38048334 -0.60342996 3.37920779 0 0 Z " fill="#B7B24C" transform="translate(17,26)"/>
<path d="M0 0 C0.28875 0.639375 0.5775 1.27875 0.875 1.9375 C1.82823451 4.15206079 1.82823451 4.15206079 4 5 C2.35 5.33 0.7 5.66 -1 6 C-1.19491452 7.45736087 -1.38069358 8.91594593 -1.5625 10.375 C-1.66691406 11.18710937 -1.77132813 11.99921875 -1.87890625 12.8359375 C-2.18237328 15.04899186 -2.18237328 15.04899186 -1 17 C-2.65 17.33 -4.3 17.66 -6 18 C-4.95518663 11.29119838 -3.30199356 5.9435884 0 0 Z " fill="#DAD55B" transform="translate(19,31)"/>
<path d="M0 0 C0.598125 0.350625 1.19625 0.70125 1.8125 1.0625 C1.4825 3.0425 1.1525 5.0225 0.8125 7.0625 C-1.1675 7.3925 -3.1475 7.7225 -5.1875 8.0625 C-5.98703138 4.77553767 -6.28408936 3.35226808 -5.1875 0.0625 C-2.1875 -0.9375 -2.1875 -0.9375 0 0 Z " fill="#9E982C" transform="translate(23.1875,36.9375)"/>
<path d="M0 0 C1.32 0.66 2.64 1.32 4 2 C4 2.99 4 3.98 4 5 C4.66 5.33 5.32 5.66 6 6 C5.34 6 4.68 6 4 6 C3.67 7.32 3.34 8.64 3 10 C0.69 10.33 -1.62 10.66 -4 11 C-3.71125 10.29875 -3.4225 9.5975 -3.125 8.875 C-1.97866412 5.94547497 -0.97374346 2.99078347 0 0 Z " fill="#A67C10" transform="translate(67,51)"/>
<path d="M0 0 C2.77981672 2.38270005 4.35276094 4.57636887 5.8125 7.875 C7.92743097 12.41063509 11.03144206 15.05702445 15 18 C13.68 18.33 12.36 18.66 11 19 C4.88968391 12.97769258 0.97833599 8.66526165 0 0 Z " fill="#D7D5B6" transform="translate(7,68)"/>
<path d="M0 0 C0.66 0 1.32 0 2 0 C1.67 2.64 1.34 5.28 1 8 C-0.32 8 -1.64 8 -3 8 C-3.33 8.66 -3.66 9.32 -4 10 C-4 9.34 -4 8.68 -4 8 C-5.32 7.67 -6.64 7.34 -8 7 C-8 6.01 -8 5.02 -8 4 C-6.865625 3.525625 -5.73125 3.05125 -4.5625 2.5625 C-1.24259834 1.36377917 -1.24259834 1.36377917 0 0 Z " fill="#9D7009" transform="translate(60,63)"/>
<path d="M0 0 C6.75 -0.125 6.75 -0.125 9 1 C9 1.66 9 2.32 9 3 C9.70125 3.226875 10.4025 3.45375 11.125 3.6875 C14.69343613 5.31656867 17.06514511 7.40640731 20 10 C19.67 10.66 19.34 11.32 19 12 C18.49210937 11.59007812 17.98421875 11.18015625 17.4609375 10.7578125 C13.47656063 7.6389557 10.05304278 5.08279488 5 4 C4.01 4.495 4.01 4.495 3 5 C2.01 4.34 1.02 3.68 0 3 C0 2.01 0 1.02 0 0 Z " fill="#E4E18D" transform="translate(57,13)"/>
<path d="M0 0 C-2.76922851 3.07692057 -5.02850024 4.77800007 -9 6 C-9.99 6 -10.98 6 -12 6 C-11.49396008 3.83125748 -11.00016187 2.00032373 -10 0 C-6.52285976 -1.41661269 -3.5974748 -0.73584712 0 0 Z " fill="#6F5E16" transform="translate(67,71)"/>
<path d="M0 0 C5.94 1.485 5.94 1.485 12 3 C11.67 3.66 11.34 4.32 11 5 C8.44588787 5.31532249 5.91917172 5.37953701 3.34765625 5.4609375 C0.82349143 5.75324964 0.82349143 5.75324964 -0.31640625 8.0390625 C-0.54199219 8.68617187 -0.76757812 9.33328125 -1 10 C-1 9.34 -1 8.68 -1 8 C-1.66 7.67 -2.32 7.34 -3 7 C-2.01 4.69 -1.02 2.38 0 0 Z " fill="#EBD937" transform="translate(34,44)"/>
<path d="M0 0 C3.50423232 3.03700134 4.93765527 5.48503491 6 10 C6.07522969 12.33212027 6.09325876 14.6685311 6 17 C5.01 16.67 4.02 16.34 3 16 C2.67 12.37 2.34 8.74 2 5 C0.68 4.67 -0.64 4.34 -2 4 C-1.34 2.68 -0.68 1.36 0 0 Z " fill="#DCD75D" transform="translate(80,31)"/>
<path d="M0 0 C3.3 0.99 6.6 1.98 10 3 C9.67 3.99 9.34 4.98 9 6 C7.68 6 6.36 6 5 6 C4.67 6.66 4.34 7.32 4 8 C1.525 7.01 1.525 7.01 -1 6 C-0.34 5.67 0.32 5.34 1 5 C0.67 3.35 0.34 1.7 0 0 Z " fill="#986802" transform="translate(39,64)"/>
<path d="M0 0 C0.33 0 0.66 0 1 0 C1.10957031 1.2065625 1.21914063 2.413125 1.33203125 3.65625 C1.49161774 5.27088975 1.65180619 6.88547008 1.8125 8.5 C1.88275391 9.29148437 1.95300781 10.08296875 2.02539062 10.8984375 C2.44615257 15.00507411 3.09141131 18.56452952 4.63671875 22.40625 C6 26 6 26 5 29 C4.34 27.35 3.68 25.7 3 24 C2.34 24.66 1.68 25.32 1 26 C0.22471521 22.57426063 -0.11918778 19.42760755 -0.09765625 15.91796875 C-0.09443359 14.98662109 -0.09121094 14.05527344 -0.08789062 13.09570312 C-0.07951172 12.13599609 -0.07113281 11.17628906 -0.0625 10.1875 C-0.05798828 9.20845703 -0.05347656 8.22941406 -0.04882812 7.22070312 C-0.03708684 4.81373889 -0.02066419 2.40690143 0 0 Z " fill="#EEEDD0" transform="translate(2,44)"/>
<path d="M0 0 C2.5221402 5.04428041 2.36744245 8.89403883 2.375 14.4375 C2.39949219 15.37916016 2.42398438 16.32082031 2.44921875 17.29101562 C2.46833851 21.8064646 2.46108824 24.27988342 -0.0234375 28.16015625 C-0.67570312 28.76730469 -1.32796875 29.37445313 -2 30 C-1.67 27.36 -1.34 24.72 -1 22 C-0.34 22 0.32 22 1 22 C0.67 14.74 0.34 7.48 0 0 Z " fill="#CCCA97" transform="translate(94,39)"/>
<path d="M0 0 C0.309375 0.639375 0.61875 1.27875 0.9375 1.9375 C1.8345163 3.93610821 1.8345163 3.93610821 3 5 C4.6290187 4.90949896 6.25459628 4.75272131 7.875 4.5625 C10.62619649 4.24567125 13.22703147 4 16 4 C15.67 4.66 15.34 5.32 15 6 C12.453125 6.6328125 12.453125 6.6328125 9.25 7.125 C8.20328125 7.29257812 7.1565625 7.46015625 6.078125 7.6328125 C3.3438423 7.95898328 0.74892942 8.07126854 -2 8 C-1.34 5.36 -0.68 2.72 0 0 Z " fill="#FAF59A" transform="translate(50,39)"/>
<path d="M0 0 C4.11968455 3.021102 4.87649145 6.18637095 5.6953125 10.984375 C6.2676337 16.64888738 6.14744936 22.3150081 6 28 C5.67 28 5.34 28 5 28 C5 24.7 5 21.4 5 18 C4.01 17.67 3.02 17.34 2 17 C2.66 16.67 3.32 16.34 4 16 C3.67 12.37 3.34 8.74 3 5 C2.34 5 1.68 5 1 5 C0.67 3.35 0.34 1.7 0 0 Z " fill="#C0BD77" transform="translate(89,33)"/>
<path d="M0 0 C0.33 1.32 0.66 2.64 1 4 C2.98 4.495 2.98 4.495 5 5 C4.01 5.495 4.01 5.495 3 6 C2.97282308 8.06242617 2.9535242 10.12495703 2.9375 12.1875 C2.92589844 13.33605469 2.91429687 14.48460937 2.90234375 15.66796875 C2.98807168 18.59300586 3.32150977 21.16316291 4 24 C2 23 2 23 0.875 19.875 C-0.6425044 13.40189529 -0.1548323 6.60617817 0 0 Z " fill="#BCB97F" transform="translate(5,45)"/>
<path d="M0 0 C4.56756196 0.8783773 6.52067674 1.385483 9.4375 5.125 C10.2109375 6.548125 10.2109375 6.548125 11 8 C9.68 7.67 8.36 7.34 7 7 C6.67 7.66 6.34 8.32 6 9 C3.625 8.6875 3.625 8.6875 1 8 C0.34 7.01 -0.32 6.02 -1 5 C0.32 5.33 1.64 5.66 3 6 C3 3.23776722 1.68574837 2.10718546 0 0 Z " fill="#F1F0B7" transform="translate(72,9)"/>
<path d="M0 0 C4.46285528 1.41505167 8.71026274 3.12811465 13 5 C14.6642135 5.67276716 16.32986582 6.34206835 18 7 C18 7.33 18 7.66 18 8 C11.39698252 8.72032918 8.16998373 7.33168656 2.78515625 3.5078125 C1 2 1 2 0 0 Z " fill="#D2D1B5" transform="translate(22,87)"/>
<path d="M0 0 C3.3477131 1.11590437 4.32708997 2.14896141 6.625 4.75 C7.54152344 5.76320313 7.54152344 5.76320313 8.4765625 6.796875 C10.16084385 9.23260495 10.62322203 11.08760812 11 14 C5.52799707 9.94211018 2.69923716 6.26223021 0 0 Z " fill="#E4E29B" transform="translate(81,17)"/>
<path d="M0 0 C1.65 0 3.3 0 5 0 C5.33 0.66 5.66 1.32 6 2 C4.02 2.33 2.04 2.66 0 3 C-0.33 5.31 -0.66 7.62 -1 10 C-1.33 10 -1.66 10 -2 10 C-2 8.02 -2 6.04 -2 4 C-4.31 4.33 -6.62 4.66 -9 5 C-5.81237635 2.87491756 -3.73487777 2.4979837 0 2 C0 1.34 0 0.68 0 0 Z " fill="#EDE65E" transform="translate(86,49)"/>
<path d="M0 0 C0.66 0.33 1.32 0.66 2 1 C2 1.99 2 2.98 2 4 C3.32 3.67 4.64 3.34 6 3 C4.13117747 6.73764507 -0.34287996 8.23916443 -4 10 C-3.43454163 6.04179141 -2.19097652 3.3340947 0 0 Z " fill="#F0EFB5" transform="translate(24,11)"/>
<path d="M0 0 C1 3 1 3 0.3125 5.5 C-1.11413528 8.21740054 -2.43428575 9.37504764 -5 11 C-5.66 10.34 -6.32 9.68 -7 9 C-4.69 6.03 -2.38 3.06 0 0 Z " fill="#6A6539" transform="translate(82,67)"/>
<path d="M0 0 C2.31 0.33 4.62 0.66 7 1 C7 1.66 7 2.32 7 3 C8.11375 2.95875 9.2275 2.9175 10.375 2.875 C14 3 14 3 16 5 C10.21549928 5.34707004 6.03436469 5.27233705 1 2 C0.67 1.34 0.34 0.68 0 0 Z " fill="#807C60" transform="translate(20,80)"/>
<path d="M0 0 C0.66 0.33 1.32 0.66 2 1 C1.34 1.66 0.68 2.32 0 3 C0.33 3.66 0.66 4.32 1 5 C-0.65 5 -2.3 5 -4 5 C-4.33 6.65 -4.66 8.3 -5 10 C-5.66 10 -6.32 10 -7 10 C-7.33 8.35 -7.66 6.7 -8 5 C-6.71475739 4.13619741 -5.42157581 3.28419631 -4.125 2.4375 C-3.04605469 1.72400391 -3.04605469 1.72400391 -1.9453125 0.99609375 C-1.30335937 0.66738281 -0.66140625 0.33867188 0 0 Z " fill="#997009" transform="translate(74,39)"/>
<path d="M0 0 C0.99 0.33 1.98 0.66 3 1 C4.125 6.75 4.125 6.75 3 9 C2.34 9 1.68 9 1 9 C0.01 6.69 -0.98 4.38 -2 2 C-1.34 1.34 -0.68 0.68 0 0 Z " fill="#F4F2A2" transform="translate(76,26)"/>
<path d="M0 0 C0.33 0 0.66 0 1 0 C1 1.65 1 3.3 1 5 C-8 8 -8 8 -11 7 C-11 6.34 -11 5.68 -11 5 C-9.73160474 4.49384702 -8.46016898 3.99530901 -7.1875 3.5 C-6.12595703 3.08234375 -6.12595703 3.08234375 -5.04296875 2.65625 C-3 2 -3 2 0 2 C0 1.34 0 0.68 0 0 Z " fill="#CABC6A" transform="translate(44,22)"/>
<path d="M0 0 C1.875 0.625 1.875 0.625 4 2 C4.71706982 3.98248715 5.38290413 5.98415349 6 8 C7.5412312 9.70921589 7.5412312 9.70921589 9 11 C9 11.66 9 12.32 9 13 C5.48303205 11.82767735 4.30033331 10.89396771 2 8 C1.09012632 5.34154228 0.55347902 2.76739509 0 0 Z " fill="#88845E" transform="translate(11,67)"/>
<path d="M0 0 C0.66 0.66 1.32 1.32 2 2 C5.09926819 1.67801034 5.09926819 1.67801034 8 1 C7.34 2.98 6.68 4.96 6 7 C4.35 6.67 2.7 6.34 1 6 C0.67 4.02 0.34 2.04 0 0 Z " fill="#D3BE81" transform="translate(29,37)"/>
<path d="M0 0 C-5.33835539 1.92471317 -10.34979382 3.39891424 -16 4 C-15.67 3.34 -15.34 2.68 -15 2 C-12.12890625 1.11328125 -12.12890625 1.11328125 -8.5625 0.3125 C-7.38816406 0.04050781 -6.21382812 -0.23148437 -5.00390625 -0.51171875 C-2 -1 -2 -1 0 0 Z " fill="#C4C3A6" transform="translate(72,91)"/>
<path d="M0 0 C0.33 0 0.66 0 1 0 C1.0270043 1.45823212 1.04639787 2.91660675 1.0625 4.375 C1.07410156 5.18710938 1.08570312 5.99921875 1.09765625 6.8359375 C1 9 1 9 0 11 C-0.99 10.67 -1.98 10.34 -3 10 C-2.49287967 6.28111761 -1.88391785 3.26545761 0 0 Z " fill="#767139" transform="translate(85,60)"/>
<path d="M0 0 C0.77601562 -0.00773438 1.55203125 -0.01546875 2.3515625 -0.0234375 C3.01929688 0.10804687 3.68703125 0.23953125 4.375 0.375 C5.035 1.365 5.695 2.355 6.375 3.375 C1.425 3.375 -3.525 3.375 -8.625 3.375 C-4.07054455 -0.04084158 -4.07054455 -0.04084158 0 0 Z " fill="#EFEDAE" transform="translate(40.625,10.625)"/>
<path d="M0 0 C2.9375 0.8125 2.9375 0.8125 6 2 C6.33 2.99 6.66 3.98 7 5 C2.05 4.67 -2.9 4.34 -8 4 C-8 3.67 -8 3.34 -8 3 C-3.545 2.505 -3.545 2.505 1 2 C0.67 1.34 0.34 0.68 0 0 Z " fill="#FBFBE7" transform="translate(63,6)"/>
<path d="M0 0 C2 3 2 3 1.75 6.5625 C1 10 1 10 -1 12 C-2.11658501 7.31034294 -1.80619523 4.46236469 0 0 Z " fill="#F7F7E6" transform="translate(97,58)"/>
<path d="M0 0 C1 2 1 2 0.36328125 4.3125 C0.01652344 5.199375 -0.33023437 6.08625 -0.6875 7 C-1.02136719 7.886875 -1.35523438 8.77375 -1.69921875 9.6875 C-3.17189511 12.3055913 -4.22805571 12.97292169 -7 14 C-6.44010697 10.00987629 -5.24330232 7.4744948 -2.9375 4.1875 C-2.38964844 3.39730469 -1.84179688 2.60710938 -1.27734375 1.79296875 C-0.64505859 0.90544922 -0.64505859 0.90544922 0 0 Z " fill="#ACA741" transform="translate(18,30)"/>
<path d="M0 0 C0.99 0 1.98 0 3 0 C4.28317892 3.84953676 4.06643637 6.94738135 4 11 C0 5 0 5 0 0 Z " fill="#B5B162" transform="translate(89,38)"/>
<path d="M0 0 C0.68359375 1.765625 0.68359375 1.765625 1 4 C-0.21484375 5.921875 -0.21484375 5.921875 -1.9375 7.75 C-2.50339844 8.36359375 -3.06929687 8.9771875 -3.65234375 9.609375 C-4.31943359 10.29773438 -4.31943359 10.29773438 -5 11 C-5.33 10.34 -5.66 9.68 -6 9 C-4.29864224 5.76742026 -2.23960447 2.87949147 0 0 Z " fill="#CAC665" transform="translate(17,22)"/>
<path d="M0 0 C0.33 1.65 0.66 3.3 1 5 C-3.455 4.01 -3.455 4.01 -8 3 C-8 2.34 -8 1.68 -8 1 C-5.07175348 0.02391783 -3.04386724 -0.08226668 0 0 Z " fill="#908B5B" transform="translate(47,83)"/>
<path d="M0 0 C4.23431576 3.60700972 6.4692099 8.14586161 9 13 C5.34646845 11.56356879 4.06021834 9.94164969 2.25 6.5 C1.82203125 5.7059375 1.3940625 4.911875 0.953125 4.09375 C0 2 0 2 0 0 Z " fill="#B0AE89" transform="translate(9,69)"/>
<path d="M0 0 C0.99 0.33 1.98 0.66 3 1 C1.7934375 2.175625 1.7934375 2.175625 0.5625 3.375 C-1.98690417 5.71982856 -1.98690417 5.71982856 -3 8 C-3.66 8 -4.32 8 -5 8 C-5.33 6.35 -5.66 4.7 -6 3 C-5.195625 2.690625 -4.39125 2.38125 -3.5625 2.0625 C-1.10919595 1.23664655 -1.10919595 1.23664655 0 0 Z " fill="#635C19" transform="translate(78,62)"/>
<path d="M0 0 C2.50298434 2.93828597 3.46930939 5.17902761 4 9 C2.35 9 0.7 9 -1 9 C-0.34 8.67 0.32 8.34 1 8 C0.649375 7.4225 0.29875 6.845 -0.0625 6.25 C-1.14917407 3.64198224 -0.93065133 2.60582371 0 0 Z " fill="#A7A350" transform="translate(88,40)"/>
<path d="M0 0 C1.2065625 0.0309375 1.2065625 0.0309375 2.4375 0.0625 C1.1175 0.3925 -0.2025 0.7225 -1.5625 1.0625 C-1.5625 2.0525 -1.5625 3.0425 -1.5625 4.0625 C0.7475 4.7225 3.0575 5.3825 5.4375 6.0625 C2.77083333 6.72916667 0.10416667 7.39583333 -2.5625 8.0625 C-2.94313221 5.7364143 -3.27519945 3.40194736 -3.5625 1.0625 C-2.5625 0.0625 -2.5625 0.0625 0 0 Z " fill="#EEE271" transform="translate(53.5625,28.9375)"/>
<path d="M0 0 C0.33 0 0.66 0 1 0 C1 2.64 1 5.28 1 8 C0.34 8 -0.32 8 -1 8 C-1.33 9.32 -1.66 10.64 -2 12 C-3.12377697 8.69564916 -2.89554742 6.9493138 -1.5625 3.75 C-1.27503906 3.04359375 -0.98757812 2.3371875 -0.69140625 1.609375 C-0.46324219 1.07828125 -0.23507812 0.5471875 0 0 Z " fill="#B1AD5E" transform="translate(10,37)"/>
<path d="M0 0 C4.82360189 -0.19294408 8.49646738 0.24252386 13 2 C13 2.33 13 2.66 13 3 C8.07872966 3.16682272 4.49656104 3.24828052 0 1 C0 0.67 0 0.34 0 0 Z " fill="#C3C1A4" transform="translate(35,92)"/>
<path d="M0 0 C-2 3 -2 3 -4.625 3.6875 C-5.800625 3.8421875 -5.800625 3.8421875 -7 4 C-7.33 3.34 -7.66 2.68 -8 2 C-7 0 -7 0 -5.125 -0.6875 C-3 -1 -3 -1 0 0 Z " fill="#7F620E" transform="translate(64,71)"/>
<path d="M0 0 C3.77545388 1.09068668 6.47043472 1.9083091 9 5 C8.01 5.495 8.01 5.495 7 6 C5.33333333 5.33333333 3.66666667 4.66666667 2 4 C1.01 4.495 1.01 4.495 0 5 C0 3.35 0 1.7 0 0 Z " fill="#C7B667" transform="translate(56,24)"/>
<path d="M0 0 C3 2 3 2 3.6875 5.125 C3.8421875 6.548125 3.8421875 6.548125 4 8 C3.01 8.33 2.02 8.66 1 9 C0 8 0 8 -0.09765625 6.15234375 C-0.06510417 4.1015625 -0.03255208 2.05078125 0 0 Z " fill="#846A13" transform="translate(26,56)"/>
<path d="M0 0 C1.98 0.66 3.96 1.32 6 2 C5.67 3.65 5.34 5.3 5 7 C4.01 6.67 3.02 6.34 2 6 C0.8125 2.9375 0.8125 2.9375 0 0 Z " fill="#966501" transform="translate(28,42)"/>
<path d="M0 0 C0 4.0333534 -1.60879918 5.83517538 -4 9 C-4.66 9 -5.32 9 -6 9 C-6 5 -6 5 -4.6875 3.515625 C-3.125 2.34375 -1.5625 1.171875 0 0 Z " fill="#C0BB5B" transform="translate(16,28)"/>
<path d="M0 0 C0.99 0.33 1.98 0.66 3 1 C3 2.32 3 3.64 3 5 C2.01 5.495 2.01 5.495 1 6 C1.33 6.66 1.66 7.32 2 8 C1.01 8 0.02 8 -1 8 C-0.67 5.36 -0.34 2.72 0 0 Z " fill="#996803" transform="translate(67,51)"/>
<path d="M0 0 C1.32 0.33 2.64 0.66 4 1 C4 1.66 4 2.32 4 3 C4.99 3.33 5.98 3.66 7 4 C5.02 4.99 5.02 4.99 3 6 C0 2.25 0 2.25 0 0 Z " fill="#D3BE80" transform="translate(63,38)"/>
<path d="M0 0 C0.33 0 0.66 0 1 0 C1.66 2.64 2.32 5.28 3 8 C1.35 8 -0.3 8 -2 8 C-1.34 5.36 -0.68 2.72 0 0 Z " fill="#FDFBB4" transform="translate(50,39)"/>
<path d="M0 0 C0.99 0.33 1.98 0.66 3 1 C2.01 1.495 2.01 1.495 1 2 C-0.04808041 3.97522846 -1.0520411 5.97481509 -2 8 C-2.93423645 4.98968256 -3.04449911 4.13349732 -2 1 C-1.34 0.67 -0.68 0.34 0 0 Z " fill="#8C6B0F" transform="translate(73,56)"/>
<path d="M0 0 C0.66 0.33 1.32 0.66 2 1 C2 1.99 2 2.98 2 4 C0.02 4.33 -1.96 4.66 -4 5 C-4 4.01 -4 3.02 -4 2 C-2.125 0.9375 -2.125 0.9375 0 0 Z " fill="#FAFADF" transform="translate(33,7)"/>
<path d="M0 0 C7.42857143 -0.28571429 7.42857143 -0.28571429 11 2 C6.70700357 3.26264601 4.12168689 2.62950412 0 1 C0 0.67 0 0.34 0 0 Z " fill="#FBFADA" transform="translate(52,2)"/>
<path d="M0 0 C3.63 0.66 7.26 1.32 11 2 C11 2.33 11 2.66 11 3 C9.54257537 3.08096803 8.08387193 3.13917774 6.625 3.1875 C5.81289063 3.22230469 5.00078125 3.25710937 4.1640625 3.29296875 C3.44992188 3.19628906 2.73578125 3.09960938 2 3 C1.34 2.01 0.68 1.02 0 0 Z " fill="#FBFBF5" transform="translate(33,96)"/>
<path d="M0 0 C1.98 0.495 1.98 0.495 4 1 C3 4 3 4 1 7 C0.34 6.34 -0.32 5.68 -1 5 C-0.34 5 0.32 5 1 5 C0.67 3.35 0.34 1.7 0 0 Z " fill="#A1740C" transform="translate(39,64)"/>
<path d="M0 0 C0.99 0 1.98 0 3 0 C4.25 7.625 4.25 7.625 2 11 C0.7619986 7.42355152 1.25073929 4.66305234 2 1 C1.34 0.67 0.68 0.34 0 0 Z " fill="#B8B24B" transform="translate(81,53)"/>
</svg>
