<!DOCTYPE svg PUBLIC "-//W3C//DTD SVG 1.1//EN" "http://www.w3.org/Graphics/SVG/1.1/DTD/svg11.dtd">

<!-- Uploaded to: SVG Repo, www.svgrepo.com, Transformed by: SVG Repo Mixer Tools -->
<svg width="50px" height="50px" viewBox="-12.8 -12.8 153.60 153.60" xmlns="http://www.w3.org/2000/svg" xmlns:xlink="http://www.w3.org/1999/xlink" aria-hidden="true" role="img" class="iconify iconify--noto" preserveAspectRatio="xMidYMid meet" fill="#000000" stroke="#000000" stroke-width="0.00128">

<g id="SVGRepo_bgCarrier" stroke-width="0" transform="translate(0,0), scale(1)">

<rect x="-12.8" y="-12.8" width="153.60" height="153.60" rx="76.8" fill="#000000" strokewidth="0"/>

</g>

<g id="SVGRepo_tracerCarrier" stroke-linecap="round" stroke-linejoin="round" stroke="#CCCCCC" stroke-width="0.256"/>

<g id="SVGRepo_iconCarrier">

<circle cx="63.93" cy="64" r="60" fill="#689f38"/>

<circle cx="60.03" cy="63.1" r="56.1" fill="#7cb342"/>

<path d="M23.93 29.7c4.5-7.1 14.1-13 24.1-14.8c2.5-.4 5-.6 7.1.2c1.6.6 2.9 2.1 2 3.8c-.7 1.4-2.6 2-4.1 2.5a44.64 44.64 0 0 0-23 17.4c-2 3-5 11.3-8.7 9.2c-3.9-2.3-3.1-9.5 2.6-18.3z" fill="#aed581"/>

</g>

</svg>