<!DOCTYPE svg PUBLIC "-//W3C//DTD SVG 1.1//EN" "http://www.w3.org/Graphics/SVG/1.1/DTD/svg11.dtd">
<!-- Uploaded to: SVG Repo, www.svgrepo.com, Transformed by: SVG Repo Mixer Tools -->
<svg fill="#f5f5dc" height="64px" width="64px" version="1.1" id="Layer_1" xmlns="http://www.w3.org/2000/svg" xmlns:xlink="http://www.w3.org/1999/xlink" viewBox="0 0 511.999 511.999" xml:space="preserve" stroke="#f5f5dc">
<g id="SVGRepo_bgCarrier" stroke-width="0"/>
<g id="SVGRepo_tracerCarrier" stroke-linecap="round" stroke-linejoin="round" stroke="#CCCCCC" stroke-width="1.0239980000000002"/>
<g id="SVGRepo_iconCarrier"> <g> <g> <g> <path d="M140.991,302.771c-27.734-3.475-64.963-3.94-84.81,13.577c-8.843,7.804-13.517,18.583-13.517,31.173 c0,0.4,0.007,0.814,0.016,1.27l21.333-0.424c-0.005-0.29-0.012-0.573-0.012-0.847c0-6.561,2.003-11.382,6.299-15.175 c10.674-9.42,35.473-12.482,68.038-8.403c5.853,0.729,11.181-3.413,11.913-9.259 C150.984,308.837,146.839,303.504,140.991,302.771z"/> <path d="M55.352,367.64c-5.68,1.567-9.014,7.443-7.449,13.121l0.115,0.396c1.392,4.607,5.614,7.565,10.19,7.565 c1.02,0,2.059-0.147,3.086-0.457c5.626-1.691,8.819-7.632,7.156-13.262C66.849,369.374,61.005,366.084,55.352,367.64z"/> <path d="M489.143,288.614L411.154,94.671c-20.189-50.21-47.99-52.961-59.009-51.815c-20.951,2.181-37.732,21.949-42.751,50.359 c-1.025,5.802,2.847,11.338,8.65,12.362c5.803,1.026,11.338-2.847,12.363-8.65c3.268-18.496,12.892-31.698,23.948-32.848 c12.746-1.327,26.908,13.447,37.003,38.553l65.848,163.753c-10.112-4.091-21.146-6.366-32.708-6.366 c-3.617,0-7.424-0.045-11.403-0.091c-4.447-0.051-9.046-0.105-13.874-0.105c-4.589,0-9.387,0.05-14.346,0.195H127.124 c-4.959-0.145-9.758-0.195-14.346-0.195c-4.827,0-9.427,0.053-13.874,0.105c-3.977,0.046-7.785,0.091-11.403,0.091 c-11.562,0-22.596,2.275-32.708,6.367l65.847-163.754c10.097-25.107,24.287-39.885,37.003-38.553 c11.055,1.151,20.679,14.352,23.946,32.848c1.025,5.802,6.558,9.669,12.363,8.65c5.802-1.025,9.674-6.56,8.649-12.362 c-5.019-28.411-21.799-48.178-42.75-50.359c-11.011-1.145-38.818,1.606-59.01,51.815L22.858,288.614 C8.666,304.174,0,324.854,0,347.522c0,24.2,6.482,51.261,17.341,72.389c14.057,27.354,34.308,43.96,58.567,48.027 c5.491,0.921,11.173,1.388,16.888,1.388c71.088,0,140.693-69.848,147.811-127.029c0.121-0.977,0.214-1.944,0.301-2.908 c4.577-2.614,9.802-4.043,15.093-4.043c5.291,0,10.514,1.43,15.091,4.043c0.086,0.961,0.179,1.925,0.301,2.899 c7.113,57.177,76.717,127.029,147.811,127.039c0.005,0,0.01,0,0.015,0c5.706,0,11.384-0.467,16.874-1.388 c24.26-4.066,44.513-20.674,58.569-48.027c10.857-21.127,17.339-48.188,17.339-72.389 C512,324.854,503.334,304.174,489.143,288.614z M219.432,339.661c-2.907,23.348-19.174,50.303-43.516,72.102 c-25.706,23.021-56.002,36.225-83.12,36.225c-4.535,0-9.03-0.368-13.359-1.094c-21.923-3.674-35.547-22.005-43.118-36.737 c-9.381-18.253-14.982-41.669-14.982-62.636c0-36.484,29.681-66.165,66.165-66.165h39.308c15.59,0.472,32.865,1.995,50.611,6.482 C208.596,295.723,222.731,313.158,219.432,339.661z M272.564,316.749c-5.315-1.798-10.918-2.741-16.561-2.741 c-5.645,0-11.25,0.944-16.565,2.742c-3.443-14.34-11.794-26.346-24.563-35.393h82.252 C284.356,290.403,276.005,302.409,272.564,316.749z M475.683,410.158c-7.571,14.731-21.196,33.061-43.119,36.737 c-4.33,0.727-8.821,1.094-13.347,1.094c-0.004,0-0.009,0-0.013,0c-27.12-0.003-57.417-13.21-83.124-36.233 c-24.342-21.802-40.609-48.755-43.514-72.102c-3.297-26.498,10.839-43.931,42.013-51.814c17.747-4.487,35.021-6.011,50.611-6.482 h39.308c36.483,0,66.165,29.681,66.165,66.165C490.663,368.49,485.062,391.906,475.683,410.158z"/> <path d="M456.27,317.044c-19.915-18.134-56.211-17.563-76.073-15.609c-5.864,0.576-10.15,5.798-9.574,11.662 c0.577,5.864,5.793,10.149,11.663,9.573c27.391-2.693,49.678,1.101,59.619,10.151c4.183,3.809,6.119,8.465,6.092,14.652 c-0.027,5.892,4.728,10.69,10.621,10.716c0.017,0,0.032,0,0.048,0c5.87,0,10.642-4.745,10.669-10.622 C469.387,335.43,464.87,324.875,456.27,317.044z"/> <path d="M347.758,307.468l-0.273,0.08c-5.677,1.577-9.002,7.457-7.424,13.135c1.311,4.722,5.601,7.817,10.274,7.816 c0.945,0,1.905-0.127,2.861-0.392c0.213-0.06,0.43-0.123,0.643-0.187l-2.964-10.248L347.758,307.468z"/> </g> </g> </g> </g>
</svg>