<?xml version="1.0" encoding="UTF-8"?>
<svg version="1.1" xmlns="http://www.w3.org/2000/svg" width="100" height="100">
<path d="M0 0 C10.78527154 7.340192 19.63745503 18.85282679 22.3125 31.875 C23.16527615 42.95168005 23.86192389 54.93500251 18.3125 64.875 C17.79171875 65.81472656 17.2709375 66.75445312 16.734375 67.72265625 C10.93596342 77.42585401 4.34832648 83.69280984 -5.6875 88.875 C-6.8321875 89.49955078 -6.8321875 89.49955078 -8 90.13671875 C-18.44382015 94.90673276 -34.02823211 94.9280893 -44.875 91.3125 C-47.31640625 90.19140625 -47.31640625 90.19140625 -49.6875 88.875 C-50.60402344 88.38902344 -51.52054688 87.90304688 -52.46484375 87.40234375 C-64.77795544 80.25769869 -72.17735767 69.93499555 -76.82421875 56.6171875 C-80.15037464 42.19882847 -77.95895968 27.88213292 -70.5625 15.1875 C-54.59486355 -8.34018514 -24.08953827 -14.03564007 0 0 Z " fill="#8E96C2" transform="translate(77.6875,7.125)"/>
<path d="M0 0 C1.06481197 1.59721796 2.11824715 3.20479036 3.078125 4.8671875 C5.84401664 9.60608185 8.59723221 12.72352164 13 16 C11.28477269 21.76073817 8.49977125 26.52997977 5.4609375 31.68359375 C3.80948366 35.43248229 3.65038123 37.94539344 4 42 C5.38436123 45.38399412 6.61463555 46.73391502 9.625 48.8125 C13.89634864 50.31538193 17.52114931 50.74513974 22 50 C25.18970398 48.26016146 27.44695493 46.55304507 30 44 C30.93658322 37.32684452 29.23493883 34.06269395 25.3125 28.6875 C24.879375 28.130625 24.44625 27.57375 24 27 C24.33 26.34 24.66 25.68 25 25 C25.99 25.66 26.98 26.32 28 27 C30.34361336 27.3170249 30.34361336 27.3170249 32.875 27.25 C34.13957031 27.25773437 34.13957031 27.25773437 35.4296875 27.265625 C38.2514779 26.9740114 40.42496588 26.16291863 43 25 C42.50628906 25.70125 42.01257812 26.4025 41.50390625 27.125 C37.62262395 32.87273395 35.13186191 37.01131889 35 44 C35.66 44 36.32 44 37 44 C37.928125 45.2065625 37.928125 45.2065625 38.875 46.4375 C41.5408737 49.65223005 43.14120167 49.79384237 47.1484375 50.23828125 C52.61321901 50.42044063 55.72977963 49.74946179 60 46 C62.32798807 43.03710609 62.33616299 39.92919793 62.30761719 36.22412109 C61.74985622 32.19142074 59.58891265 29.07285809 57.4375 25.6875 C55.85732881 23.15317536 54.40728653 20.64123296 53 18 C54.09119608 14.72641177 54.75639646 14.16905761 57.375 12.125 C60.32751872 9.69993329 62.26940018 7.46119963 64 4 C66.25 4.4375 66.25 4.4375 69 6 C70.22562395 8.11270142 71.12158529 10.24123659 72.0078125 12.515625 C72.98731527 15.11832023 72.98731527 15.11832023 74.58984375 17.875 C77.3864845 24.07254183 76.95332887 31.46240219 75.203125 37.95703125 C74.25468109 40.39015465 73.20949571 42.68694981 72 45 C71.525625 45.928125 71.05125 46.85625 70.5625 47.8125 C68.62000085 50.53199881 66.4855226 52.7694028 64 55 C63.34 55 62.68 55 62 55 C62 55.66 62 56.32 62 57 C53.51984403 62.65343732 39.41841046 61.42933194 29.4296875 61.48046875 C27.10538761 61.50016621 24.78443483 61.56259806 22.4609375 61.625 C9.03122724 61.81410031 9.03122724 61.81410031 3.39208984 56.56347656 C2.70300537 55.78955566 2.70300537 55.78955566 2 55 C0.7625 53.63875 0.7625 53.63875 -0.5 52.25 C-2 50 -2 50 -2 48 C-2.66 48 -3.32 48 -4 48 C-9.25325298 38.36903621 -11.29570095 29.03308995 -10 18 C-8.07097452 11.82865555 -5.55769511 7.52944494 -1 3 C-0.67 2.01 -0.34 1.02 0 0 Z " fill="#3B4DAB" transform="translate(17,26)"/>
<path d="M0 0 C10.78527154 7.340192 19.63745503 18.85282679 22.3125 31.875 C23.16527615 42.95168005 23.86192389 54.93500251 18.3125 64.875 C17.79171875 65.81472656 17.2709375 66.75445312 16.734375 67.72265625 C10.93596342 77.42585401 4.34832648 83.69280984 -5.6875 88.875 C-6.8321875 89.49955078 -6.8321875 89.49955078 -8 90.13671875 C-18.44382015 94.90673276 -34.02823211 94.9280893 -44.875 91.3125 C-47.31640625 90.19140625 -47.31640625 90.19140625 -49.6875 88.875 C-50.60402344 88.38902344 -51.52054688 87.90304688 -52.46484375 87.40234375 C-64.77795544 80.25769869 -72.17735767 69.93499555 -76.82421875 56.6171875 C-80.15037464 42.19882847 -77.95895968 27.88213292 -70.5625 15.1875 C-54.59486355 -8.34018514 -24.08953827 -14.03564007 0 0 Z M-55.6875 9.875 C-55.3575 8.555 -55.0275 7.235 -54.6875 5.875 C-59.92890891 8.41628917 -63.08552317 12.44688169 -66.6875 16.875 C-67.16703125 17.4215625 -67.6465625 17.968125 -68.140625 18.53125 C-75.37016204 27.41574131 -75.7186379 39.94957262 -74.6875 50.875 C-73.04810549 58.79410906 -69.97075832 64.82441131 -64.6875 70.875 C-64.10484375 71.58785156 -63.5221875 72.30070312 -62.921875 73.03515625 C-58.13544766 78.76846378 -53.57533457 81.63452057 -46.625 84.4375 C-40.85233897 86.7742266 -40.85233897 86.7742266 -38.828125 88.01171875 C-35.47114918 89.36553564 -32.06378172 89.16990048 -28.5 89.125 C-27.35543335 89.11484863 -27.35543335 89.11484863 -26.18774414 89.10449219 C-18.0846742 88.95585957 -11.69850677 87.68136521 -4.5390625 83.81640625 C-2.6875 82.875 -2.6875 82.875 0.625 81.8125 C3.32864977 80.86936636 4.60840935 80.14712086 6.3125 77.875 C6.3125 77.215 6.3125 76.555 6.3125 75.875 C6.910625 75.648125 7.50875 75.42125 8.125 75.1875 C14.57578089 71.31703147 16.48651308 60.65723714 18.3125 53.875 C18.48910156 53.29363281 18.66570312 52.71226563 18.84765625 52.11328125 C21.27731332 40.41417619 18.79859003 29.68577781 12.9375 19.5 C10.52333636 15.86018405 7.77022571 13.52347076 4.3125 10.875 C2.96150897 9.55956137 1.62044331 8.23324882 0.3125 6.875 C0.3125 7.865 0.3125 8.855 0.3125 9.875 C-0.574375 9.38 -1.46125 8.885 -2.375 8.375 C-8.73175579 5.62473015 -16.33839303 6.29527154 -23.02734375 7.453125 C-23.90519531 7.59234375 -24.78304687 7.7315625 -25.6875 7.875 C-26.1825 7.38 -26.1825 7.38 -26.6875 6.875 C-37.96366811 3.494617 -45.15261087 4.9587184 -55.6875 9.875 Z " fill="#F8FCF8" transform="translate(77.6875,7.125)"/>
<path d="M0 0 C2.10583487 0.45060661 4.20962872 0.91075956 6.3125 1.375 C7.48425781 1.63023438 8.65601563 1.88546875 9.86328125 2.1484375 C13 3 13 3 16 5 C20.59406309 5.54691227 24.12922346 4.44840715 28.36328125 2.8515625 C32.17918663 1.61916639 36.07907101 0.82674345 40 0 C41.69617825 2.64892518 43.35100336 5.32149464 45 8 C45.47695312 8.74378906 45.95390625 9.48757812 46.4453125 10.25390625 C49.6276593 15.48204742 50.64910493 18.87986779 50 25 C48.13092657 29.56884617 45.38410756 31.80794622 41 34 C36.0643762 34.70508911 31.41742808 34.46856275 27 32 C25.1875 30.5 25.1875 30.5 24 29 C24 28.34 24 27.68 24 27 C23.34 27 22.68 27 22 27 C21.07664472 19.87697358 23.18165448 16.55432822 27.46875 10.90625 C27.9740625 10.2771875 28.479375 9.648125 29 9 C28.16662109 9.48919922 28.16662109 9.48919922 27.31640625 9.98828125 C24.66417029 11.14667773 22.81819082 11.23529427 19.9375 11.1875 C18.65166016 11.17783203 18.65166016 11.17783203 17.33984375 11.16796875 C15 11 15 11 12 10 C12.433125 10.556875 12.86625 11.11375 13.3125 11.6875 C18.44049159 18.71474774 18.44049159 18.71474774 18.8125 23.1875 C17.72104747 28.30893109 15.26919245 30.20860494 11 33 C7.54670602 34.72664699 3.78301996 34.36301707 0 34 C-3.63644512 32.5858269 -6.55683037 31.08610901 -9 28 C-10.69439471 22.91681588 -10.59561264 19.27848946 -8.3203125 14.39453125 C-7.60386368 13.19126465 -6.87173969 11.9972064 -6.125 10.8125 C-5.39773621 9.61110133 -4.67115446 8.40928948 -3.9453125 7.20703125 C-3.30335937 6.14871094 -2.66140625 5.09039062 -2 4 C-1.31379969 2.67661368 -0.63570737 1.34836878 0 0 Z " fill="#3C99F5" transform="translate(30,43)"/>
<path d="M0 0 C0.7528125 -0.0103125 1.505625 -0.020625 2.28125 -0.03125 C5.08164953 0.1554433 6.61973254 0.47964294 9 2 C10.9220045 5.3335459 12.27020895 8.76178321 13.58203125 12.36328125 C15.193579 16.49647946 17.29063332 19.77081263 19.8984375 23.328125 C21 25 21 25 21 27 C21.66 27 22.32 27 23 27 C23.0928125 26.1028125 23.0928125 26.1028125 23.1875 25.1875 C24.3236757 22.12856542 26.17330142 21.44958901 29 20 C28.9278125 20.62648438 28.855625 21.25296875 28.78125 21.8984375 C28.6884375 22.71570313 28.595625 23.53296875 28.5 24.375 C28.4071875 25.18710937 28.314375 25.99921875 28.21875 26.8359375 C27.96647649 28.96912825 27.96647649 28.96912825 28 31 C26.86820312 31.34933594 25.73640625 31.69867188 24.5703125 32.05859375 C23.08851369 32.51813895 21.60674438 32.97777931 20.125 33.4375 C19.37863281 33.66759766 18.63226563 33.89769531 17.86328125 34.13476562 C13.84908399 35.35379647 13.84908399 35.35379647 10 37 C5.94857881 37.25860135 4.45662331 37.30441554 1 35 C-0.216875 34.71125 -1.43375 34.4225 -2.6875 34.125 C-11.20349373 32.06618833 -17.02022777 28.32474434 -22 21 C-23.27442152 18.34269556 -24.14008539 15.83265988 -25 13 C-25.55429687 13.7940625 -26.10859375 14.588125 -26.6796875 15.40625 C-27.76636719 16.93765625 -27.76636719 16.93765625 -28.875 18.5 C-29.95394531 20.03140625 -29.95394531 20.03140625 -31.0546875 21.59375 C-31.69664063 22.3878125 -32.33859375 23.181875 -33 24 C-33.66 24 -34.32 24 -35 24 C-36.03087881 29.28433677 -36.31611358 34.51104648 -36.5625 39.875 C-36.60568359 40.75414062 -36.64886719 41.63328125 -36.69335938 42.5390625 C-36.79869339 44.69255797 -36.89977649 46.84626064 -37 49 C-40.87988343 43.18017486 -39.44660192 34.43477478 -38.5703125 27.6953125 C-36.24848432 16.65946253 -29.90661281 8.69531584 -21 2 C-20.34 1.67 -19.68 1.34 -19 1 C-19 1.99 -19 2.98 -19 4 C-18.29875 3.71125 -17.5975 3.4225 -16.875 3.125 C-10.90854292 0.7902994 -6.39449183 -0.61882179 0 0 Z " fill="#80F9FF" transform="translate(42,12)"/>
<path d="M0 0 C3.86463725 0.41406828 6.12722 2.52621722 9 5 C7.28477269 10.76073817 4.49977125 15.52997977 1.4609375 20.68359375 C-0.19051634 24.43248229 -0.34961877 26.94539344 0 31 C1.38436123 34.38399412 2.61463555 35.73391502 5.625 37.8125 C9.89634864 39.31538193 13.52114931 39.74513974 18 39 C21.18970398 37.26016146 23.44695493 35.55304507 26 33 C26.93658322 26.32684452 25.23493883 23.06269395 21.3125 17.6875 C20.879375 17.130625 20.44625 16.57375 20 16 C20.33 15.34 20.66 14.68 21 14 C21.99 14.66 22.98 15.32 24 16 C26.34361336 16.3170249 26.34361336 16.3170249 28.875 16.25 C30.13957031 16.25773437 30.13957031 16.25773437 31.4296875 16.265625 C34.2514779 15.9740114 36.42496588 15.16291863 39 14 C38.50628906 14.70125 38.01257812 15.4025 37.50390625 16.125 C33.62262395 21.87273395 31.13186191 26.01131889 31 33 C31.66 33 32.32 33 33 33 C33.928125 34.2065625 33.928125 34.2065625 34.875 35.4375 C37.5408737 38.65223005 39.14120167 38.79384237 43.1484375 39.23828125 C48.61321901 39.42044063 51.72977963 38.74946179 56 35 C58.32798807 32.03710609 58.33616299 28.92919793 58.30761719 25.22412109 C57.74985622 21.19142074 55.58891265 18.07285809 53.4375 14.6875 C51.85732881 12.15317536 50.40728653 9.64123296 49 7 C49.33 6.01 49.66 5.02 50 4 C52.0625 3.3125 52.0625 3.3125 54 3 C53.86078125 4.71123047 53.86078125 4.71123047 53.71875 6.45703125 C53.71875 11.70116385 55.87288478 15.27347307 58.5 19.6875 C63.88174076 28.87524661 63.88174076 28.87524661 63 33 C61.26662481 35.20760048 59.33849598 36.36305281 57 38 C56.34 38 55.68 38 55 38 C55 38.66 55 39.32 55 40 C54.49025635 40.23710693 53.9805127 40.47421387 53.45532227 40.71850586 C51.15665983 41.78925593 48.85956706 42.86333195 46.5625 43.9375 C45.76005859 44.31068359 44.95761719 44.68386719 44.13085938 45.06835938 C43.36708984 45.42607422 42.60332031 45.78378906 41.81640625 46.15234375 C41.10943604 46.48226318 40.40246582 46.81218262 39.67407227 47.15209961 C38.0108841 47.88534557 38.0108841 47.88534557 37 49 C27.39438994 49.76493762 19.82270012 49.02535693 11 45 C10.175 44.66484375 9.35 44.3296875 8.5 43.984375 C0.02753566 40.47276149 0.02753566 40.47276149 -3 37 C-4.91171222 31.81106682 -5.95673098 26.41826815 -7 21 C-7.185625 20.06542969 -7.37125 19.13085938 -7.5625 18.16796875 C-8.7245509 10.25149701 -8.7245509 10.25149701 -6.5390625 6.4765625 C-4.78712755 4.49580339 -3.00658338 2.71925571 -1 1 C-0.67 0.67 -0.34 0.34 0 0 Z " fill="#162595" transform="translate(21,37)"/>
<path d="M0 0 C0.8971875 -0.01611328 1.794375 -0.03222656 2.71875 -0.04882812 C3.57984375 -0.04947266 4.4409375 -0.05011719 5.328125 -0.05078125 C6.10575195 -0.05376221 6.88337891 -0.05674316 7.68457031 -0.05981445 C10.2369411 0.40027603 11.12271237 1.34787161 12.75 3.3125 C11.1 3.6425 9.45 3.9725 7.75 4.3125 C10.39 5.6325 13.03 6.9525 15.75 8.3125 C15.75 8.9725 15.75 9.6325 15.75 10.3125 C11.13 10.6425 6.51 10.9725 1.75 11.3125 C1.42 12.3025 1.09 13.2925 0.75 14.3125 C-6 14.4375 -6 14.4375 -8.25 13.3125 C-16.03467196 12.43121638 -22.16620391 15.2889285 -29.25 18.3125 C-29.25 17.3225 -29.25 16.3325 -29.25 15.3125 C-32.36785113 15.95894661 -32.36785113 15.95894661 -33.25 18.3125 C-33.58 18.9725 -33.91 19.6325 -34.25 20.3125 C-35.24 20.6425 -36.23 20.9725 -37.25 21.3125 C-38.34086612 23.14433306 -38.34086612 23.14433306 -39.25 25.3125 C-40.08286332 26.70861383 -40.91621917 28.10443392 -41.75 29.5 C-46.78349138 38.66125127 -46.77902666 48.05184342 -46.25 58.3125 C-45.92 59.3025 -45.59 60.2925 -45.25 61.3125 C-45.12218214 63.98644964 -45.20608129 66.63345857 -45.25 69.3125 C-48.50792317 67.14055122 -48.96794414 66.08718075 -49.88378906 62.40380859 C-52.55402124 47.15500269 -49.98229861 32.72896016 -41.28515625 19.9140625 C-30.91817471 6.66183658 -16.66025679 -0.06089275 0 0 Z " fill="#FAFDFA" transform="translate(50.25,-0.3125)"/>
<path d="M0 0 C-0.78914041 9.46968496 -5.68012385 16.33937835 -11 24 C-12.98 22.35 -14.96 20.7 -17 19 C-17 21.97 -17 24.94 -17 28 C-22.14734585 24.88765135 -26.24592115 21.62509628 -28.9375 16.0625 C-29.04455286 12.52975569 -28.40836022 10.26739571 -27 7 C-19.24035484 -1.13816444 -10.53468802 -3.0570389 0 0 Z " fill="#82C1C7" transform="translate(48,15)"/>
<path d="M0 0 C0.72445312 0.433125 1.44890625 0.86625 2.1953125 1.3125 C4 3 4 3 4.56640625 5.41796875 C4.5570589 12.04523793 3.69863011 17.06643839 -1 22 C-3.171875 23.21484375 -3.171875 23.21484375 -5 24 C-6 23 -6 23 -6.0625 20 C-6.041875 19.01 -6.02125 18.02 -6 17 C-6 16.67 -6 16.34 -6 16 C-9.24849977 17.72226496 -9.24849977 17.72226496 -10 21 C-10.66 21 -11.32 21 -12 21 C-13.59704238 18.63125244 -15.0649879 16.27677797 -16.5 13.8125 C-17.10521484 12.80219727 -17.10521484 12.80219727 -17.72265625 11.77148438 C-23 2.84528414 -23 2.84528414 -23 -3 C-14.28891451 -4.78688933 -7.61629344 -4.87638488 0 0 Z " fill="#80BCC2" transform="translate(75,18)"/>
<path d="M0 0 C1.953125 0.69140625 1.953125 0.69140625 4 2 C4.609375 4.21484375 4.609375 4.21484375 4.75 6.9375 C4.80414063 7.93136719 4.85828125 8.92523438 4.9140625 9.94921875 C4.94242188 10.95597656 4.97078125 11.96273437 5 13 C5.02835938 13.87269531 5.05671875 14.74539062 5.0859375 15.64453125 C5.12777196 18.43488994 5.07549387 21.21032158 5 24 C4.98324219 25.2478125 4.96648437 26.495625 4.94921875 27.78125 C4.68340285 35.49750577 4.411809 40.33647895 -1 46 C-1.59425781 46.69351563 -2.18851563 47.38703125 -2.80078125 48.1015625 C-5.52075024 50.44952863 -7.33819776 50.73302541 -10.875 51.1875 C-11.88304688 51.32542969 -12.89109375 51.46335938 -13.9296875 51.60546875 C-15.44949219 51.80076172 -15.44949219 51.80076172 -17 52 C-19.00123509 52.3258362 -21.00163563 52.65699716 -23 53 C-20.57558606 50.57558606 -18.12646026 49.41255096 -15.0625 47.875 C-14.00160156 47.33617187 -12.94070312 46.79734375 -11.84765625 46.2421875 C-9 45 -9 45 -6 45 C-6 44.34 -6 43.68 -6 43 C-0.52380952 38 -0.52380952 38 2 38 C0.95021731 34.49704092 -0.31529629 31.24123004 -1.9453125 27.9765625 C-2.29980469 27.265 -2.65429688 26.5534375 -3.01953125 25.8203125 C-3.75496758 24.35983469 -4.49975116 22.90402545 -5.25390625 21.453125 C-7.76414482 16.35908776 -8.60284837 12.68747857 -8 7 C-5.6875 4 -5.6875 4 -3 2 C-2.01 2 -1.02 2 0 2 C0 1.34 0 0.68 0 0 Z " fill="#2367A9" transform="translate(82,32)"/>
<path d="M0 0 C0.99 0.33 1.98 0.66 3 1 C1.85672387 5.23012167 0.06862349 8.68143713 -2.125 12.4375 C-4.55328414 16.81793413 -6.040643 19.90084929 -5 25 C-3.26989612 27.48231727 -3.26989612 27.48231727 -1 29 C-0.34 29 0.32 29 1 29 C-0.65 27.68 -2.3 26.36 -4 25 C-3.8125 23.25 -3.8125 23.25 -3 21 C-2.195625 20.360625 -1.39125 19.72125 -0.5625 19.0625 C2.25254475 16.79673228 2.95555228 15.39445508 4 12 C4.33 11.01 4.66 10.02 5 9 C8.24900602 13.97504047 9.49940808 16.88225104 9 23 C9.99 23.33 10.98 23.66 12 24 C9.69 25.98 7.38 27.96 5 30 C7.31 29.34 9.62 28.68 12 28 C12 24.37 12 20.74 12 17 C12.66 17.33 13.32 17.66 14 18 C14.02705729 19.77074917 14.04642195 21.54161711 14.0625 23.3125 C14.07410156 24.29863281 14.08570312 25.28476563 14.09765625 26.30078125 C14 29 14 29 13 32 C8.89688967 34.6786681 4.73551368 34.54261094 0 34 C-3.63644512 32.5858269 -6.55683037 31.08610901 -9 28 C-10.69439471 22.91681588 -10.59561264 19.27848946 -8.3203125 14.39453125 C-7.60386368 13.19126465 -6.87173969 11.9972064 -6.125 10.8125 C-5.39773621 9.61110133 -4.67115446 8.40928948 -3.9453125 7.20703125 C-3.30335937 6.14871094 -2.66140625 5.09039062 -2 4 C-1.31379969 2.67661368 -0.63570737 1.34836878 0 0 Z " fill="#3294FC" transform="translate(30,43)"/>
<path d="M0 0 C2.25 0.4375 2.25 0.4375 5 2 C6.22562395 4.11270142 7.12158529 6.24123659 8.0078125 8.515625 C8.98731527 11.11832023 8.98731527 11.11832023 10.58984375 13.875 C13.3864845 20.07254183 12.95332887 27.46240219 11.203125 33.95703125 C10.25468109 36.39015465 9.20949571 38.68694981 8 41 C7.525625 41.928125 7.05125 42.85625 6.5625 43.8125 C4.62000085 46.53199881 2.4855226 48.7694028 0 51 C-0.66 51 -1.32 51 -2 51 C-2 51.66 -2 52.32 -2 53 C-10.48015597 58.65343732 -24.58158954 57.42933194 -34.5703125 57.48046875 C-36.89461239 57.50016621 -39.21556517 57.56259806 -41.5390625 57.625 C-54.97283017 57.8145265 -54.97283017 57.8145265 -60.55908203 52.58789062 C-61.27233643 51.80188477 -61.27233643 51.80188477 -62 51 C-62.99928001 49.99928052 -63.99906428 48.99906341 -65 48 C-64.67 47.34 -64.34 46.68 -64 46 C-62.56770833 47.49739583 -61.13541667 48.99479167 -59.703125 50.4921875 C-53.76109473 55.75279228 -45.51328453 54.7264212 -38 55 C-37.32308105 55.02868164 -36.64616211 55.05736328 -35.94873047 55.08691406 C-28.55920049 55.37427457 -22.27814305 55.16295213 -15.296875 52.66796875 C-11.4936527 51.56192961 -7.93375947 51.8096568 -4 52 C-3.566875 51.07380859 -3.566875 51.07380859 -3.125 50.12890625 C-1.78421049 47.59164833 -0.0532036 45.98904099 2 44 C8.34470073 34.4829489 5.09987046 15.21161197 5 4 C3.68 4 2.36 4 1 4 C0.01 3.67 -0.98 3.34 -2 3 C-1.34 2.01 -0.68 1.02 0 0 Z " fill="#396CB2" transform="translate(81,30)"/>
<path d="M0 0 C3.9492568 0.55105909 7.34920174 1.38935371 11 3 C11.33 2.01 11.66 1.02 12 0 C12.47050781 0.54269531 12.94101563 1.08539063 13.42578125 1.64453125 C14.35970703 2.71767578 14.35970703 2.71767578 15.3125 3.8125 C16.23482422 4.87404297 16.23482422 4.87404297 17.17578125 5.95703125 C18.90520578 7.94943415 18.90520578 7.94943415 20.5390625 9.46484375 C22.38046477 11.3997932 23.67672902 13.46755368 25.0625 15.75 C25.56910156 16.56984375 26.07570313 17.3896875 26.59765625 18.234375 C31.83511994 28.56341203 31.46762402 42.07173037 28 53 C26.375 56.125 26.375 56.125 25 58 C24.4375 56.0625 24.4375 56.0625 24 54 C24.33 53.67 24.66 53.34 25 53 C25.27986267 49.77945916 25.23185967 46.54374715 25.25 43.3125 C25.270625 42.41337891 25.29125 41.51425781 25.3125 40.58789062 C25.34407116 35.20895376 24.82817977 31.72066822 22 27 C21.51895656 25.59088286 21.05696628 24.17492773 20.625 22.75 C19.52018182 19.65414586 19.32698838 19.18250514 16.3125 17.5 C15.549375 17.335 14.78625 17.17 14 17 C12.02 19.97 12.02 19.97 10 23 C10 20 10 20 11 18 C11.07033769 16.12620395 11.0843022 14.24998898 11.0625 12.375 C11.04896484 10.87066406 11.04896484 10.87066406 11.03515625 9.3359375 C11.02355469 8.56507812 11.01195313 7.79421875 11 7 C10.37351562 6.66226562 9.74703125 6.32453125 9.1015625 5.9765625 C7.87566406 5.30753906 7.87566406 5.30753906 6.625 4.625 C5.81289062 4.18414063 5.00078125 3.74328125 4.1640625 3.2890625 C2 2 2 2 0 0 Z " fill="#ADCBD6" transform="translate(67,14)"/>
<path d="M0 0 C0.64453125 1.765625 0.64453125 1.765625 1 4 C0.07421875 5.921875 0.07421875 5.921875 -1.3125 7.75 C-1.76238281 8.36359375 -2.21226563 8.9771875 -2.67578125 9.609375 C-3.11277344 10.06828125 -3.54976562 10.5271875 -4 11 C-4.66 11 -5.32 11 -6 11 C-6.433125 11.928125 -6.433125 11.928125 -6.875 12.875 C-8.26526116 15.50104886 -9.30426265 16.75706429 -12.13671875 17.74609375 C-13.39935547 18.08833984 -13.39935547 18.08833984 -14.6875 18.4375 C-17.83710988 19.33155353 -20.82824055 20.27748197 -23.8125 21.625 C-32.18455984 25.2364768 -43.64281347 25.6578822 -52.3828125 22.953125 C-55.00010843 21.74075359 -57.48613285 20.41084381 -60 19 C-60.88171875 18.67773438 -61.7634375 18.35546875 -62.671875 18.0234375 C-65 17 -65 17 -67 14 C-66.49726562 14.32452148 -65.99453125 14.64904297 -65.4765625 14.98339844 C-62.11965772 16.36137079 -58.94498386 16.28605918 -55.375 16.265625 C-54.6322583 16.26753845 -53.8895166 16.2694519 -53.12426758 16.27142334 C-51.55077781 16.27278278 -49.97727674 16.26910315 -48.40380859 16.26074219 C-46.03586435 16.25016027 -43.66870005 16.26058181 -41.30078125 16.2734375 C-23.2905975 16.5597557 -23.2905975 16.5597557 -7 10 C-4.32850055 6.85356732 -2.10475203 3.54627029 0 0 Z " fill="#A4AAC8" transform="translate(90,72)"/>
<path d="M0 0 C2.17818992 2.17818992 3.43376086 4.35121321 5 7 C6.14991881 8.71965131 7.31681582 10.4280648 8.5 12.125 C9.0878125 12.97320312 9.675625 13.82140625 10.28125 14.6953125 C14.51354053 20.37042934 19.54842057 22.93545659 26.0625 25.5625 C31.83516103 27.8992266 31.83516103 27.8992266 33.859375 29.13671875 C37.21635082 30.49053564 40.62371828 30.29490048 44.1875 30.25 C44.95054443 30.24323242 45.71358887 30.23646484 46.49975586 30.22949219 C54.69155733 30.07923199 61.13806458 28.8619912 68.2734375 24.70703125 C70 24 70 24 73 25 C70.75243216 26.15082685 68.50218252 27.29576858 66.25 28.4375 C65.29867187 28.92573242 65.29867187 28.92573242 64.328125 29.42382812 C56.61072395 33.32272345 50.00321483 33.30965351 41.4375 33.4375 C40.21224609 33.48326172 38.98699219 33.52902344 37.72460938 33.57617188 C25.27235012 33.72875683 17.21639045 28.89730122 8.30078125 20.5078125 C4.03282095 15.85580824 -1.32923921 9.52965099 -2 3 C-1.34 2.01 -0.68 1.02 0 0 Z " fill="#F5F6F4" transform="translate(5,65)"/>
<path d="M0 0 C3.86463725 0.41406828 6.12722 2.52621722 9 5 C7.65150163 9.35970831 5.95092154 13.31341438 3.875 17.375 C3.33617187 18.43460938 2.79734375 19.49421875 2.2421875 20.5859375 C1.83226562 21.38257812 1.42234375 22.17921875 1 23 C0.34 23 -0.32 23 -1 23 C-1.66 24.98 -2.32 26.96 -3 29 C-3.66 29 -4.32 29 -5 29 C-5.12375 27.989375 -5.2475 26.97875 -5.375 25.9375 C-5.90722462 22.02481569 -5.90722462 22.02481569 -7.0625 18.4375 C-8.65853659 12.58536585 -8.65853659 12.58536585 -8 9 C-5.62266791 5.71297451 -2.86245366 2.86245366 0 0 Z " fill="#205CA1" transform="translate(21,37)"/>
<path d="M0 0 C1.60568666 0.28317926 3.20952047 0.57687791 4.8125 0.875 C6.15248047 1.11863281 6.15248047 1.11863281 7.51953125 1.3671875 C10 2 10 2 13 4 C17.13169777 4.27544652 20.94280304 3.77279942 25 3 C23.14788439 4.93264238 21.6588107 5.92368988 18.9765625 6.234375 C14.23703227 6.26672674 9.66708435 5.79439734 5 5 C5.32772728 9.09659102 5.70707248 11.57392361 8.0625 15 C10.42858845 18.66362083 10.56595542 20.71490896 10 25 C8.22284015 27.57688179 5.91782512 28.90581558 3 30 C2.01 29.67 1.02 29.34 0 29 C2.64 27.02 5.28 25.04 8 23 C7.34 22.67 6.68 22.34 6 22 C5.4375 20.07421875 5.4375 20.07421875 5 17.6875 C4.40250769 14.45997456 3.58344639 11.88319198 2 9 C1.938125 9.721875 1.87625 10.44375 1.8125 11.1875 C0.74812129 14.87188783 -1.1865792 16.46105928 -4 19 C-4.66 19.66 -5.32 20.32 -6 21 C-5.74739753 24.78903708 -3.72150557 26.54186593 -1 29 C-3.63361256 28.62376963 -5.07220172 27.94785432 -7.25 26.375 C-9.72789324 23.01214488 -9.41396562 21.14379584 -9 17 C-7.76624631 13.86391428 -6.16844381 10.98603442 -4.5 8.0625 C-4.07074219 7.28326172 -3.64148438 6.50402344 -3.19921875 5.70117188 C-2.14590069 3.79349583 -1.07472631 1.8956978 0 0 Z " fill="#316FFF" transform="translate(33,44)"/>
<path d="M0 0 C-0.33 0.99 -0.66 1.98 -1 3 C-1 2.34 -1 1.68 -1 1 C-10.23339927 -0.59994184 -16.7029506 0.54047371 -24.5 5.8125 C-27.34804872 8.06720524 -27.92663483 8.75239255 -29 12.375 C-29 13.24125 -29 14.1075 -29 15 C-29.66 15 -30.32 15 -31 15 C-31.33 13.68 -31.66 12.36 -32 11 C-32.55429687 11.7940625 -33.10859375 12.588125 -33.6796875 13.40625 C-34.76636719 14.93765625 -34.76636719 14.93765625 -35.875 16.5 C-36.95394531 18.03140625 -36.95394531 18.03140625 -38.0546875 19.59375 C-38.69664063 20.3878125 -39.33859375 21.181875 -40 22 C-40.66 22 -41.32 22 -42 22 C-43.03087881 27.28433677 -43.31611358 32.51104648 -43.5625 37.875 C-43.60568359 38.75414062 -43.64886719 39.63328125 -43.69335938 40.5390625 C-43.79869339 42.69255797 -43.89977649 44.84626064 -44 47 C-47.87988343 41.18017486 -46.44660192 32.43477478 -45.5703125 25.6953125 C-43.24848432 14.65946253 -36.90661281 6.69531584 -28 0 C-27.34 -0.33 -26.68 -0.66 -26 -1 C-26 -0.01 -26 0.98 -26 2 C-25.29875 1.71125 -24.5975 1.4225 -23.875 1.125 C-15.11016579 -2.30471773 -8.99157303 -2.99719101 0 0 Z " fill="#A7DBD6" transform="translate(49,14)"/>
<path d="M0 0 C2.41834557 3.62751836 3.12689942 5.22906679 3.1328125 9.5 C3.13474609 10.8303125 3.13474609 10.8303125 3.13671875 12.1875 C3.13285156 13.115625 3.12898438 14.04375 3.125 15 C3.13080078 16.3921875 3.13080078 16.3921875 3.13671875 17.8125 C3.13542969 18.699375 3.13414063 19.58625 3.1328125 20.5 C3.13168457 21.3146875 3.13055664 22.129375 3.12939453 22.96875 C3 25 3 25 2 27 C2.66 27 3.32 27 4 27 C2.49505247 38.69754672 -5.23547083 48.56734704 -14.26171875 55.81640625 C-24.25156044 62.77268345 -33.00019711 65.17974819 -45 65.1875 C-45.99773438 65.19974609 -46.99546875 65.21199219 -48.0234375 65.22460938 C-48.98507813 65.22654297 -49.94671875 65.22847656 -50.9375 65.23046875 C-51.81277344 65.23457764 -52.68804687 65.23868652 -53.58984375 65.24291992 C-56.15797237 64.98407795 -57.7878246 64.29503365 -60 63 C-55.65950215 62.08437163 -51.67377702 61.97982272 -47.27514648 62.11669922 C-33.16290079 62.52242453 -21.9529502 58.91560887 -11.125 49.5 C-5.01862126 42.31602502 -2.41823513 34.98201618 0 26 C0.18046875 25.42378906 0.3609375 24.84757812 0.546875 24.25390625 C1.19117603 21.04906407 1.1315649 17.95353751 1.125 14.6875 C1.12757812 13.41261719 1.13015625 12.13773438 1.1328125 10.82421875 C1.00388874 7.11197286 0.59632587 3.6584119 0 0 Z " fill="#F7F8F6" transform="translate(95,35)"/>
<path d="M0 0 C1.58971965 2.38457948 2.86741593 4.6304124 4.125 7.1875 C4.47820313 7.90292969 4.83140625 8.61835937 5.1953125 9.35546875 C5.46085937 9.89816406 5.72640625 10.44085938 6 11 C4.73427767 12.15147661 3.46222094 13.29599314 2.1875 14.4375 C1.12595703 15.39462891 1.12595703 15.39462891 0.04296875 16.37109375 C-2 18 -2 18 -5 19 C-5.6814823 20.89179203 -5.6814823 20.89179203 -6 23 C-6.33 23.99 -6.66 24.98 -7 26 C-7.34184558 31.7510492 -6.98544163 37.33371064 -6 43 C-10.76043754 35.85934369 -10.9769596 26.31895903 -10 18 C-8.07097452 11.82865555 -5.55769511 7.52944494 -1 3 C-0.67 2.01 -0.34 1.02 0 0 Z " fill="#608FBE" transform="translate(17,26)"/>
<path d="M0 0 C-5.445 2.475 -5.445 2.475 -11 5 C-10.01257813 5.02578125 -9.02515625 5.0515625 -8.0078125 5.078125 C-6.08582031 5.16320312 -6.08582031 5.16320312 -4.125 5.25 C-2.84882812 5.29640625 -1.57265625 5.3428125 -0.2578125 5.390625 C3 6 3 6 4.4453125 8.046875 C4.62835938 8.69140625 4.81140625 9.3359375 5 10 C4.01 9.835 3.02 9.67 2 9.5 C-7.73090233 8.22063834 -13.95516518 10.13939977 -23 14 C-23 13.01 -23 12.02 -23 11 C-26.11785113 11.64644661 -26.11785113 11.64644661 -27 14 C-27.33 14.66 -27.66 15.32 -28 16 C-28.99 16.33 -29.98 16.66 -31 17 C-31.70151152 18.3153341 -32.36525925 19.65117592 -33 21 C-34.625 22.75 -34.625 22.75 -36 24 C-34.59163827 19.51884905 -32.36881776 17.20839787 -29 14 C-28.443125 13.195625 -27.88625 12.39125 -27.3125 11.5625 C-21.08084026 4.65714731 -9.35296368 -2.33824092 0 0 Z " fill="#D2EEE4" transform="translate(44,4)"/>
<path d="M0 0 C1.32 0 2.64 0 4 0 C3.690625 1.670625 3.690625 1.670625 3.375 3.375 C3.25125 4.57125 3.1275 5.7675 3 7 C3.66 7.66 4.32 8.32 5 9 C5 9.99 5 10.98 5 12 C4.195625 12.2475 3.39125 12.495 2.5625 12.75 C-0.171081 13.72238859 -0.171081 13.72238859 -0.8125 16.125 C-0.874375 16.74375 -0.93625 17.3625 -1 18 C-9.07399103 17.06838565 -9.07399103 17.06838565 -12 15 C-12.609375 12.6171875 -12.609375 12.6171875 -12.75 9.875 C-12.80671875 8.96492188 -12.8634375 8.05484375 -12.921875 7.1171875 C-12.94765625 6.41851562 -12.9734375 5.71984375 -13 5 C-10.50638429 6.20381448 -8.31856917 7.45428722 -6 9 C-5.61328125 8.3503125 -5.2265625 7.700625 -4.828125 7.03125 C-4.04695313 5.77828125 -4.04695313 5.77828125 -3.25 4.5 C-2.73953125 3.6646875 -2.2290625 2.829375 -1.703125 1.96875 C-1.14109375 1.3190625 -0.5790625 0.669375 0 0 Z " fill="#7DC7F9" transform="translate(43,28)"/>
<path d="M0 0 C2.35900131 2.14454665 3.91146131 3.98558516 5 7 C5.0777346 9.33203812 5.08967728 11.66839059 5 14 C5.99 14.33 6.98 14.66 8 15 C5.99910238 17.00089762 4.4041535 18.57745503 2 20 C-1.67331644 20 -3.92032857 19.70853438 -7 17.6875 C-8 16 -8 16 -8 14.0625 C-7 12 -7 12 -4.5625 10.0625 C-1.754955 7.80276866 -0.96483481 6.42077796 0 3 C0 2.01 0 1.02 0 0 Z " fill="#42F4FF" transform="translate(34,52)"/>
<path d="M0 0 C8.85916385 3.03330067 16.19852181 10.10079394 21 18 C21.680625 19.0828125 21.680625 19.0828125 22.375 20.1875 C23.16427695 22.47640315 22.65314558 23.71399046 22 26 C20.99466333 24.37829621 19.99588093 22.75252763 19 21.125 C18.443125 20.22007813 17.88625 19.31515625 17.3125 18.3828125 C16 16 16 16 16 14 C15.443125 13.773125 14.88625 13.54625 14.3125 13.3125 C11.36753316 11.64103234 9.31843456 9.44723648 7 7 C6.67 7.66 6.34 8.32 6 9 C5.113125 8.505 4.22625 8.01 3.3125 7.5 C-4.05945502 4.31699702 -13.27472003 5.56273861 -21 7 C-21 6.01 -21 5.02 -21 4 C-17.00687422 2.11166201 -13.8366379 1.75642756 -9.4375 1.8125 C-8.32246094 1.81894531 -7.20742187 1.82539063 -6.05859375 1.83203125 C-3.52440541 1.97120124 -1.41308007 2.26250609 1 3 C0.67 2.01 0.34 1.02 0 0 Z " fill="#CEECE3" transform="translate(72,9)"/>
<path d="M0 0 C0.33 0 0.66 0 1 0 C1.20625 0.86625 1.4125 1.7325 1.625 2.625 C3.14953809 6.36704804 4.80971085 7.98275794 7.85546875 10.5078125 C9 12 9 12 8.77734375 14.06640625 C7.67419749 16.81041328 6.64914369 17.67542816 4 19 C0.42500295 18.87456151 -2.02777466 18.72132848 -4.9375 16.5625 C-6 15 -6 15 -6 13 C-5.34 12.67 -4.68 12.34 -4 12 C-3.38538467 9.98056963 -3.38538467 9.98056963 -3 7.625 C-2.39799887 4.32474381 -1.92394018 2.88591027 0 0 Z " fill="#41F7FF" transform="translate(65,53)"/>
<path d="M0 0 C0.99 0.33 1.98 0.66 3 1 C2.54625 2.134375 2.0925 3.26875 1.625 4.4375 C-1.91794725 14.07565981 -4.33465597 25.9960321 -1 36 C-0.87218214 38.67394964 -0.95608129 41.32095857 -1 44 C-4.25792317 41.82805122 -4.71794414 40.77468075 -5.63378906 37.09130859 C-6.31993265 33.1729713 -6.3817937 29.28266563 -6.375 25.3125 C-6.37483887 24.43343994 -6.37467773 23.55437988 -6.37451172 22.64868164 C-6.22929511 14.33235569 -4.66444986 6.99667479 0 0 Z " fill="#EEF4F2" transform="translate(6,25)"/>
<path d="M0 0 C0.64453125 1.765625 0.64453125 1.765625 1 4 C0.07421875 5.921875 0.07421875 5.921875 -1.3125 7.75 C-1.98732422 8.67039062 -1.98732422 8.67039062 -2.67578125 9.609375 C-3.11277344 10.06828125 -3.54976562 10.5271875 -4 11 C-4.66 11 -5.32 11 -6 11 C-6.433125 11.928125 -6.433125 11.928125 -6.875 12.875 C-8.26526116 15.50104886 -9.30426265 16.75706429 -12.13671875 17.74609375 C-13.39935547 18.08833984 -13.39935547 18.08833984 -14.6875 18.4375 C-17.83710988 19.33155353 -20.82824055 20.27748197 -23.8125 21.625 C-29.33557285 24.00750202 -34.50886444 24.20879315 -40.4375 24.25 C-41.17548828 24.270625 -41.91347656 24.29125 -42.67382812 24.3125 C-47.54199026 24.34711804 -50.72470372 23.57466337 -55 21 C-51.25 19.875 -51.25 19.875 -49 21 C-38.7733011 21.64445107 -30.31308635 21.60629271 -21 17 C-19.40313317 16.47715489 -17.79879094 15.97654193 -16.1875 15.5 C-8.08637638 12.79016705 -4.55685894 6.88125097 0 0 Z " fill="#C1C6D4" transform="translate(90,72)"/>
<path d="M0 0 C0.495 1.485 0.495 1.485 1 3 C-0.62339805 4.70884005 -2.29319053 6.37446717 -4 8 C-4.66 8 -5.32 8 -6 8 C-6 8.66 -6 9.32 -6 10 C-14.48015597 15.65343732 -28.58158954 14.42933194 -38.5703125 14.48046875 C-40.89461239 14.50016621 -43.21556517 14.56259806 -45.5390625 14.625 C-58.97283017 14.8145265 -58.97283017 14.8145265 -64.55908203 9.58789062 C-65.03458496 9.06388672 -65.51008789 8.53988281 -66 8 C-66.99928001 6.99928052 -67.99906428 5.99906341 -69 5 C-68.67 4.34 -68.34 3.68 -68 3 C-66.56770833 4.49739583 -65.13541667 5.99479167 -63.703125 7.4921875 C-57.76109473 12.75279228 -49.51328453 11.7264212 -42 12 C-41.32308105 12.02868164 -40.64616211 12.05736328 -39.94873047 12.08691406 C-32.55920049 12.37427457 -26.27814305 12.16295213 -19.296875 9.66796875 C-15.4936527 8.56192961 -11.93375947 8.8096568 -8 9 C-8 8.34 -8 7.68 -8 7 C-7.05125 6.5875 -6.1025 6.175 -5.125 5.75 C-1.99283376 3.9959869 -1.13499394 3.29148243 0 0 Z " fill="#737CB9" transform="translate(85,73)"/>
<path d="M0 0 C0.55816406 0.32484375 1.11632813 0.6496875 1.69140625 0.984375 C4.29669781 2.13052695 6.10354713 2.26746658 8.9375 2.25 C10.18853516 2.25773437 10.18853516 2.25773437 11.46484375 2.265625 C14.26896619 1.97181864 16.43979142 1.15415485 19 0 C18.50628906 0.70125 18.01257813 1.4025 17.50390625 2.125 C13.62262395 7.87273395 11.13186191 12.01131889 11 19 C10.34 18.67 9.68 18.34 9 18 C7.68 19.32 6.36 20.64 5 22 C5.33 21.01 5.66 20.02 6 19 C6.80603277 12.3214428 5.33160117 9.22300711 1.3125 3.8828125 C0 2 0 2 0 0 Z " fill="#243167" transform="translate(41,51)"/>
<path d="M0 0 C9.12177122 6.64206642 9.12177122 6.64206642 12 10 C12 10.66 12 11.32 12 12 C12.66 12 13.32 12 14 12 C14.061875 11.401875 14.12375 10.80375 14.1875 10.1875 C15.3236757 7.12856542 17.17330142 6.44958901 20 5 C19.9278125 5.62648438 19.855625 6.25296875 19.78125 6.8984375 C19.64203125 8.12433594 19.64203125 8.12433594 19.5 9.375 C19.36078125 10.59316406 19.36078125 10.59316406 19.21875 11.8359375 C18.96647649 13.96912825 18.96647649 13.96912825 19 16 C17.56445975 16.50559908 16.1264798 17.0042749 14.6875 17.5 C13.88699219 17.7784375 13.08648437 18.056875 12.26171875 18.34375 C10 19 10 19 7 19 C7.226875 17.948125 7.45375 16.89625 7.6875 15.8125 C8.27802284 12.08877642 8.27802284 12.08877642 6.875 9.1875 C4.74711947 6.70497271 3.10331257 5.92260644 0 5 C0 3.35 0 1.7 0 0 Z " fill="#7EC9F6" transform="translate(51,27)"/>
<path d="M0 0 C5.81543863 3.06596254 8.28906768 7.12919115 11 13 C11.87203871 16.03514771 11.98640249 18.84990952 12 22 C12.00692871 22.64437012 12.01385742 23.28874023 12.02099609 23.95263672 C12.06845336 28.63614183 12.0517185 33.31660284 12 38 C11.67 38 11.34 38 11 38 C10.96261719 37.13117187 10.92523438 36.26234375 10.88671875 35.3671875 C10.5342965 29.18943281 10.25885222 24.38964021 7 19 C6.52736345 17.60894471 6.06982758 16.2126959 5.625 14.8125 C4.51390707 11.7050048 4.10231696 11.07614285 1.3125 9 C0.1678125 8.505 0.1678125 8.505 -1 8 C-0.67 5.36 -0.34 2.72 0 0 Z " fill="#79B8CA" transform="translate(82,22)"/>
<path d="M0 0 C-2.24756784 1.15082685 -4.49781748 2.29576858 -6.75 3.4375 C-7.38421875 3.76298828 -8.0184375 4.08847656 -8.671875 4.42382812 C-15.25416928 7.74925805 -20.24678206 8.18203 -27.5 8.1875 C-28.78197266 8.20586914 -28.78197266 8.20586914 -30.08984375 8.22460938 C-31.32927734 8.22750977 -31.32927734 8.22750977 -32.59375 8.23046875 C-33.34333984 8.23457764 -34.09292969 8.23868652 -34.86523438 8.24291992 C-37.29074163 7.96691584 -38.87466462 7.16900451 -41 6 C-42.3453266 5.6514029 -43.7003405 5.3380814 -45.0625 5.0625 C-48.17232419 4.33861169 -50.05116979 3.67964154 -52 1 C-50.29296875 0.34765625 -50.29296875 0.34765625 -48 0 C-45.80078125 0.99609375 -45.80078125 0.99609375 -43.3125 2.4375 C-34.22914594 6.82677176 -22.55733325 6.2770236 -12.92578125 3.71484375 C-10.04455815 2.64534308 -7.37989391 1.25207814 -4.7265625 -0.29296875 C-3 -1 -3 -1 0 0 Z " fill="#E1E3E4" transform="translate(78,90)"/>
<path d="M0 0 C-0.0928125 1.14082031 -0.185625 2.28164063 -0.28125 3.45703125 C-0.28125 8.70116385 1.87288478 12.27347307 4.5 16.6875 C9.88174076 25.87524661 9.88174076 25.87524661 9 30 C7.26662481 32.20760048 5.33849598 33.36305281 3 35 C2.34 35 1.68 35 1 35 C1 35.66 1 36.32 1 37 C-0.98 37.495 -0.98 37.495 -3 38 C-3.33 37.34 -3.66 36.68 -4 36 C-3.05125 35.4225 -2.1025 34.845 -1.125 34.25 C2.4590048 31.77024643 2.4590048 31.77024643 4 28 C4.6153974 21.1268266 3.08866473 17.43279486 -0.5625 11.6875 C-2.14267119 9.15317536 -3.59271347 6.64123296 -5 4 C-4.67 3.01 -4.34 2.02 -4 1 C-2 0 -2 0 0 0 Z " fill="#263CA8" transform="translate(75,40)"/>
<path d="M0 0 C0.33 0 0.66 0 1 0 C1.60539931 5.93291327 1.26024806 9.67468992 -2.515625 14.39453125 C-3.00546875 14.92433594 -3.4953125 15.45414063 -4 16 C-4.59554687 16.70125 -5.19109375 17.4025 -5.8046875 18.125 C-8.52251297 20.44627442 -10.35578428 20.73528526 -13.875 21.1875 C-14.88304688 21.32542969 -15.89109375 21.46335937 -16.9296875 21.60546875 C-18.44949219 21.80076172 -18.44949219 21.80076172 -20 22 C-22.00123509 22.3258362 -24.00163563 22.65699716 -26 23 C-23.57558606 20.57558606 -21.12646026 19.41255096 -18.0625 17.875 C-17.00160156 17.33617188 -15.94070312 16.79734375 -14.84765625 16.2421875 C-12 15 -12 15 -9 15 C-9 14.34 -9 13.68 -9 13 C-3.52380952 8 -3.52380952 8 -1 8 C-1.020625 7.05125 -1.04125 6.1025 -1.0625 5.125 C-1 2 -1 2 0 0 Z " fill="#4957AE" transform="translate(85,62)"/>
<path d="M0 0 C1.98529406 2.25673873 3.30331652 4.93537936 4.75 7.5625 C5.36681641 8.59987305 5.36681641 8.59987305 5.99609375 9.65820312 C8.82374783 14.69819121 9.56642861 18.23104773 9 24 C7.5 27 7.5 27 6 29 C6 28.01 6 27.02 6 26 C4.91126337 15.9385718 0.7793102 6.635294 -7 0 C-3.85655668 -1.04781444 -2.9836957 -1.1718476 0 0 Z " fill="#3CB8FB" transform="translate(71,44)"/>
<path d="M0 0 C0.66 0 1.32 0 2 0 C2 0.66 2 1.32 2 2 C2.66 2 3.32 2 4 2 C4 2.66 4 3.32 4 4 C3.525625 4.44085938 3.05125 4.88171875 2.5625 5.3359375 C0.16497915 7.8892972 0.14842656 10.66950403 -0.375 14.0390625 C-0.684375 15.00972656 -0.684375 15.00972656 -1 16 C-1.99 16.33 -2.98 16.66 -4 17 C-0.87378374 20.39417765 1.56541027 22.6062718 6 24 C6 24.33 6 24.66 6 25 C1.86001651 25.32470459 -0.33999001 25.4304413 -3.875 23.125 C-6.2918401 20.7081599 -6.89534454 19.73258819 -7.375 16.375 C-6.87093378 11.83840405 -4.92264841 8.48946508 -2 5 C-1.34 5 -0.68 5 0 5 C0 3.35 0 1.7 0 0 Z " fill="#2D6BFF" transform="translate(63,49)"/>
<path d="M0 0 C2.25 0.4375 2.25 0.4375 5 2 C6.22562395 4.11270142 7.12158529 6.24123659 8.0078125 8.515625 C8.98615423 11.1180303 8.98615423 11.1180303 10.59375 13.8671875 C13.57755285 20.51443719 13.04117401 29.09853596 10.5 35.875 C10.005 36.90625 9.51 37.9375 9 39 C8.67 39 8.34 39 8 39 C7.957279 37.33388095 7.95936168 35.66617115 8 34 C8.495 33.505 8.495 33.505 9 33 C9.0989294 30.83519203 9.129711 28.66706215 9.125 26.5 C9.12757812 25.3140625 9.13015625 24.128125 9.1328125 22.90625 C9.33210219 20.10740578 9.33210219 20.10740578 8 19 C7.95936168 17.33382885 7.957279 15.66611905 8 14 C7.34 14 6.68 14 6 14 C5.67 10.7 5.34 7.4 5 4 C3.68 4 2.36 4 1 4 C0.01 3.67 -0.98 3.34 -2 3 C-1.34 2.01 -0.68 1.02 0 0 Z " fill="#608ABD" transform="translate(81,30)"/>
<path d="M0 0 C0.33 0.99 0.66 1.98 1 3 C-0.65234375 5.91796875 -0.65234375 5.91796875 -2.9375 9.1875 C-3.32357422 9.74630859 -3.70964844 10.30511719 -4.10742188 10.88085938 C-5.06242753 12.26031198 -6.03004093 13.63102056 -7 15 C-9.64752004 12.42215154 -11.94432065 10.08351902 -14 7 C-9.38 4.69 -4.76 2.38 0 0 Z " fill="#6F99A8" transform="translate(44,24)"/>
<path d="M0 0 C5.08772604 5.96492019 7.75141308 11.16951189 8 19 C6.78321427 21.94590229 5.89242446 23.44727259 3.18359375 25.125 C0.70187628 26.11946281 -1.08884883 26.20326915 -3.75 26.125 C-4.54921875 26.10695313 -5.3484375 26.08890625 -6.171875 26.0703125 C-6.77515625 26.04710938 -7.3784375 26.02390625 -8 26 C-7.34 25.67 -6.68 25.34 -6 25 C-6 24.34 -6 23.68 -6 23 C-4.9275 22.7525 -3.855 22.505 -2.75 22.25 C1.04492632 20.98502456 2.79423493 20.3086476 5 17 C5 13.16441147 3.85911473 10.59146624 1.9375 7.375 C0 4 0 4 0 0 Z " fill="#3099FF" transform="translate(70,51)"/>
<path d="M0 0 C1 3 1 3 0.875 6.375 C1.01310384 10.38001122 1.45559946 11.94671935 4 15 C7.06680799 16.82629794 7.06680799 16.82629794 10 18 C10 18.99 10 19.98 10 21 C8 22 8 22 5.6875 21.3125 C2.56588126 19.78798852 0.40341236 18.53693527 -2 16 C-3.69561567 9.64144124 -2.64812413 5.93179806 0 0 Z " fill="#1B30A1" transform="translate(20,58)"/>
<path d="M0 0 C5.68188598 0.48356476 11.2091617 1.7615578 16 5 C16.7578125 7.13671875 16.7578125 7.13671875 17 9 C16.01 9.33 15.02 9.66 14 10 C13.34 9.67 12.68 9.34 12 9 C9.87681936 8.9027114 7.75040309 8.87022381 5.625 8.875 C4.48289062 8.87242188 3.34078125 8.86984375 2.1640625 8.8671875 C-0.43236152 8.9761732 -2.53624883 9.23538757 -5 10 C-5 9.34 -5 8.68 -5 8 C-2.23547967 6.61773984 0.0461363 6.90474613 3.125 6.9375 C4.22070312 6.94652344 5.31640625 6.95554687 6.4453125 6.96484375 C7.28835937 6.97644531 8.13140625 6.98804688 9 7 C9 6.34 9 5.68 9 5 C8.2575 4.71125 7.515 4.4225 6.75 4.125 C4.43260203 3.17697356 2.22082885 2.15154089 0 1 C0 0.67 0 0.34 0 0 Z " fill="#E7F6EC" transform="translate(57,3)"/>
<path d="M0 0 C0.99 0.33 1.98 0.66 3 1 C1.26700246 6.77375561 -1.48217653 11.65565047 -4.44140625 16.87890625 C-5.84444745 19.68850505 -6.58023464 21.91213703 -7 25 C-7.33 25 -7.66 25 -8 25 C-8.91259182 16.11067968 -6.98620295 11.24678719 -2 4 C-1.30905868 2.67908277 -0.63325993 1.34951995 0 0 Z " fill="#3CB3FA" transform="translate(30,43)"/>
<path d="M0 0 C2.41834557 3.62751836 3.12689942 5.22906679 3.1328125 9.5 C3.13410156 10.386875 3.13539062 11.27375 3.13671875 12.1875 C3.13285156 13.115625 3.12898438 14.04375 3.125 15 C3.12886719 15.928125 3.13273437 16.85625 3.13671875 17.8125 C3.13542969 18.699375 3.13414063 19.58625 3.1328125 20.5 C3.13168457 21.3146875 3.13055664 22.129375 3.12939453 22.96875 C3 25 3 25 2 27 C2.66 27 3.32 27 4 27 C3.52363742 31.19199071 2.96686272 33.92325347 0 37 C-2.1875 38.25 -2.1875 38.25 -4 39 C-3.566875 37.7315625 -3.566875 37.7315625 -3.125 36.4375 C-1.99306812 32.97881927 -0.97394855 29.50621479 0 26 C0.18175781 25.42121094 0.36351563 24.84242187 0.55078125 24.24609375 C1.19112444 21.04437782 1.13155712 17.9496649 1.125 14.6875 C1.12757812 13.41261719 1.13015625 12.13773438 1.1328125 10.82421875 C1.00388874 7.11197286 0.59632587 3.6584119 0 0 Z " fill="#EAEFEE" transform="translate(95,35)"/>
<path d="M0 0 C3 1 3 1 4.1875 3.0625 C4.455625 3.701875 4.72375 4.34125 5 5 C3.73427767 6.15147661 2.46222094 7.29599314 1.1875 8.4375 C0.12595703 9.39462891 0.12595703 9.39462891 -0.95703125 10.37109375 C-3 12 -3 12 -6 13 C-6.33 13.99 -6.66 14.98 -7 16 C-6.67 13.03 -6.34 10.06 -6 7 C-5.01 6.67 -4.02 6.34 -3 6 C-2.40929986 4.05396726 -2.40929986 4.05396726 -2 2 C-1.34 1.34 -0.68 0.68 0 0 Z " fill="#318FB8" transform="translate(18,32)"/>
<path d="M0 0 C0.33 0.66 0.66 1.32 1 2 C-0.25479042 4.44684132 -1.46211102 6.49349977 -3.47265625 8.38671875 C-8.07448751 13.24747658 -9.27472814 19.96610868 -9.375 26.4375 C-9.19026825 32.41996682 -8.30930028 38.16659967 -7 44 C-9 43 -9 43 -10.10546875 40.4921875 C-11.18459526 36.27935301 -11.33056451 32.4532566 -11.3125 28.125 C-11.32861328 27.36058594 -11.34472656 26.59617187 -11.36132812 25.80859375 C-11.36802286 17.92219572 -9.22239 12.03838843 -4 6 C-2.98343919 4.34338239 -1.97934924 2.67888441 -1 1 C-0.67 0.67 -0.34 0.34 0 0 Z " fill="#7E9FC5" transform="translate(17,24)"/>
<path d="M0 0 C1.08629024 3.2371449 0.94001857 4.93179065 -0.375 8.0625 C-0.65085937 8.73410156 -0.92671875 9.40570313 -1.2109375 10.09765625 C-1.47132813 10.72542969 -1.73171875 11.35320313 -2 12 C-2.90833969 14.72501908 -3.18359985 16.62233971 -3.31640625 19.44921875 C-3.35830078 20.29677734 -3.40019531 21.14433594 -3.44335938 22.01757812 C-3.48267578 22.89865234 -3.52199219 23.77972656 -3.5625 24.6875 C-3.60568359 25.58017578 -3.64886719 26.47285156 -3.69335938 27.39257812 C-3.79935353 29.59490108 -3.90142051 31.79733473 -4 34 C-7.89770548 28.15344178 -6.53033565 19.26919236 -5.4296875 12.484375 C-4.28521531 7.59326226 -3.26058105 3.89991067 0 0 Z " fill="#BCD3DA" transform="translate(9,27)"/>
<path d="M0 0 C2.18352762 2.18352762 3.42944639 4.34214004 5 7 C5.721875 8.051875 6.44375 9.10375 7.1875 10.1875 C9 13 9 13 9 15 C7.68 15.33 6.36 15.66 5 16 C4.01364163 14.58833114 3.03618745 13.17043816 2.0625 11.75 C1.51722656 10.96109375 0.97195312 10.1721875 0.41015625 9.359375 C-0.92400405 7.12715113 -1.74943629 5.58027309 -2 3 C-1.34 2.01 -0.68 1.02 0 0 Z " fill="#F2F3F3" transform="translate(5,65)"/>
<path d="M0 0 C0.99 0 1.98 0 3 0 C3.375 2.6875 3.375 2.6875 3 6 C1.176017 8.06398076 -0.72763839 9.39041053 -3 11 C-2.45773019 14.79588866 -0.79872437 16.47211993 2 19 C-0.63361256 18.62376963 -2.07220172 17.94785432 -4.25 16.375 C-6.61110785 13.17063934 -6.29868478 10.88290217 -6 7 C-5.01 7 -4.02 7 -3 7 C-2.690625 6.21625 -2.38125 5.4325 -2.0625 4.625 C-1 2 -1 2 0 0 Z " fill="#2564FF" transform="translate(30,54)"/>
<path d="M0 0 C1.91810192 3.83620385 0.98625761 8.91789604 0.87304688 13.171875 C0.80673144 17.91537885 1.29867435 21.50412739 3 26 C2.625 28.375 2.625 28.375 2 30 C-1.03170703 25.25471944 -2.13358227 21.83883396 -2.09765625 16.234375 C-2.09443359 15.34492187 -2.09121094 14.45546875 -2.08789062 13.5390625 C-2.07532227 12.15847656 -2.07532227 12.15847656 -2.0625 10.75 C-2.05798828 9.81414063 -2.05347656 8.87828125 -2.04882812 7.9140625 C-2.03706918 5.60930959 -2.02063426 3.30468773 -2 1 C-1.34 0.67 -0.68 0.34 0 0 Z " fill="#F9FBF9" transform="translate(2,39)"/>
<path d="M0 0 C0.33 0 0.66 0 1 0 C1.02685938 2.14576637 1.04633088 4.29162645 1.0625 6.4375 C1.07410156 7.63246094 1.08570312 8.82742187 1.09765625 10.05859375 C1 13 1 13 0 14 C-0.103125 15.134375 -0.20625 16.26875 -0.3125 17.4375 C-0.539375 18.613125 -0.76625 19.78875 -1 21 C-2.9375 22.125 -2.9375 22.125 -5 23 C-5.4640625 24.2375 -5.4640625 24.2375 -5.9375 25.5 C-7 28 -7 28 -9.625 29.3125 C-10.40875 29.539375 -11.1925 29.76625 -12 30 C-11.2575 29.154375 -10.515 28.30875 -9.75 27.4375 C-5.19126838 21.89449677 -2.72495526 17.53015762 -2.21484375 10.2890625 C-1.88173418 6.7399314 -0.9366125 3.43424582 0 0 Z " fill="#546CB5" transform="translate(90,50)"/>
<path d="M0 0 C0.33 0 0.66 0 1 0 C1.12117187 1.10859375 1.24234375 2.2171875 1.3671875 3.359375 C1.53606296 4.82296234 1.70535572 6.28650157 1.875 7.75 C1.95363281 8.47960938 2.03226563 9.20921875 2.11328125 9.9609375 C2.55724849 13.71758337 3.13613526 16.7071723 5 20 C5.125 22.75 5.125 22.75 5 25 C4.34 25 3.68 25 3 25 C-1.29365804 18.55951294 -1.58714226 10.56457705 -1 3 C-0.67 2.01 -0.34 1.02 0 0 Z " fill="#526FB6" transform="translate(10,49)"/>
<path d="M0 0 C4 4.625 4 4.625 4 8 C3.195625 8.2475 2.39125 8.495 1.5625 8.75 C-1.171081 9.72238859 -1.171081 9.72238859 -1.8125 12.125 C-1.874375 12.74375 -1.93625 13.3625 -2 14 C-3.65 14 -5.3 14 -7 14 C-5.53967505 8.68972746 -3.01679014 4.53669968 0 0 Z " fill="#72A1FF" transform="translate(44,32)"/>
<path d="M0 0 C0.33 0 0.66 0 1 0 C1 3.3 1 6.6 1 10 C0.34 8.68 -0.32 7.36 -1 6 C-3.64 9.63 -6.28 13.26 -9 17 C-10 13 -10 13 -8.875 10.0625 C-6.90568794 6.84595697 -4.76341227 4.55084209 -2 2 C-1.34 1.34 -0.68 0.68 0 0 Z " fill="#8FCAD1" transform="translate(18,19)"/>
<path d="M0 0 C-5.445 2.475 -5.445 2.475 -11 5 C-4.07 5.495 -4.07 5.495 3 6 C3.33 6.99 3.66 7.98 4 9 C3.48953125 8.84660156 2.9790625 8.69320313 2.453125 8.53515625 C-0.7749338 7.83094597 -3.95418001 7.65111796 -7.25 7.4375 C-8.51328125 7.35371094 -9.7765625 7.26992187 -11.078125 7.18359375 C-12.04234375 7.12300781 -13.0065625 7.06242188 -14 7 C-14.33 5.68 -14.66 4.36 -15 3 C-9.52153411 0.06965778 -6.12703741 -1.53175935 0 0 Z " fill="#E7F6ED" transform="translate(44,4)"/>
<path d="M0 0 C4.03335684 3.63002115 6.78881381 7.22000214 7.4375 12.6875 C7 16 7 16 5.75 17.8125 C3.84904407 19.10243438 2.15686293 20.1911764 0 21 C-0.99 20.67 -1.98 20.34 -3 20 C-0.36 18.02 2.28 16.04 5 14 C4.34 13.67 3.68 13.34 3 13 C2.40234375 11.07421875 2.40234375 11.07421875 1.9375 8.6875 C1.78152344 7.90761719 1.62554687 7.12773438 1.46484375 6.32421875 C1.31144531 5.55722656 1.15804687 4.79023437 1 4 C0.67470147 2.66468365 0.34406907 1.33060338 0 0 Z " fill="#2B69FF" transform="translate(36,53)"/>
<path d="M0 0 C0 0.99 0 1.98 0 3 C-0.33 3.33 -0.66 3.66 -1 4 C1.96687001 5.64826111 4.65626525 6.44271087 8 7 C8 7.99 8 8.98 8 10 C4.8125 10.75 4.8125 10.75 1 11 C-1.9375 9.0625 -1.9375 9.0625 -4 7 C-3.43628586 3.73045798 -2.50037734 2.17424117 0 0 Z " fill="#34DFFF" transform="translate(30,61)"/>
<path d="M0 0 C3.33331439 -0.02937438 6.66659483 -0.04692334 10 -0.0625 C10.93457031 -0.07087891 11.86914062 -0.07925781 12.83203125 -0.08789062 C18.32274401 -0.10708892 23.56866481 0.1865807 29 1 C28.67 1.66 28.34 2.32 28 3 C8.46808511 3.38297872 8.46808511 3.38297872 0 1 C0 0.67 0 0.34 0 0 Z " fill="#B1B6CD" transform="translate(31,91)"/>
<path d="M0 0 C3.43369659 0.577294 6.18827384 1.49060477 9.3125 3 C16.26795778 5.91305971 23.56485518 5.81550509 31 6 C31 6.33 31 6.66 31 7 C7.34659506 7.74870098 7.34659506 7.74870098 1.2109375 2.45703125 C0 1 0 1 0 0 Z " fill="#D7D9DE" transform="translate(26,90)"/>
<path d="M0 0 C6.37163425 3.94360858 9.8001319 7.76359178 12 15 C12 15.66 12 16.32 12 17 C10.68 17.33 9.36 17.66 8 18 C8.0928125 16.6696875 8.0928125 16.6696875 8.1875 15.3125 C7.97462727 11.5517485 7.3497169 9.91688994 5 7 C2.42900598 5.65310085 2.42900598 5.65310085 0 5 C0 3.35 0 1.7 0 0 Z " fill="#76B2FF" transform="translate(51,27)"/>
<path d="M0 0 C0.66 0.66 1.32 1.32 2 2 C2.66 2.103125 3.32 2.20625 4 2.3125 C6 3 6 3 7.25 5.3125 C8 8 8 8 8 12 C9.65 11.34 11.3 10.68 13 10 C12.01 11.98 11.02 13.96 10 16 C9.34 16 8.68 16 8 16 C6.52313012 13.92111288 5.18604262 11.86716626 3.875 9.6875 C3.50246094 9.09259766 3.12992188 8.49769531 2.74609375 7.88476562 C0 3.38338484 0 3.38338484 0 0 Z " fill="#6E93A3" transform="translate(55,23)"/>
<path d="M0 0 C1.69433918 3.0469629 2.49467112 5.82821466 3.125 9.25 C3.29257812 10.14203125 3.46015625 11.0340625 3.6328125 11.953125 C3.75398438 12.62859375 3.87515625 13.3040625 4 14 C5.98 14.66 7.96 15.32 10 16 C10 16.33 10 16.66 10 17 C3.64772727 16.51136364 3.64772727 16.51136364 0.625 14.125 C-2.34141864 10.24583716 -2.25885211 6.74562193 -2 2 C-1.34 1.34 -0.68 0.68 0 0 Z " fill="#33A3F5" transform="translate(22,59)"/>
<path d="M0 0 C-0.103125 1.11375 -0.20625 2.2275 -0.3125 3.375 C-0.3625998 8.96613752 2.28028067 13.25991774 5 18 C0.9787065 16.65956883 0.11049831 14.17755644 -1.75 10.625 C-2.07871094 10.03460938 -2.40742187 9.44421875 -2.74609375 8.8359375 C-3.58356782 7.26699874 -4.29992603 5.63487862 -5 4 C-4.67 3.01 -4.34 2.02 -4 1 C-2 0 -2 0 0 0 Z " fill="#204F8D" transform="translate(75,40)"/>
<path d="M0 0 C0 0.99 0 1.98 0 3 C0.33 3 0.66 3 1 3 C1.99 3.33 2.98 3.66 4 4 C2.35 4.66 0.7 5.32 -1 6 C-1.33 9.3 -1.66 12.6 -2 16 C-2.33 16 -2.66 16 -3 16 C-3.33 13.03 -3.66 10.06 -4 7 C-8.14192953 9.07096477 -8.29143807 9.21675573 -10 13 C-10.99 13.495 -10.99 13.495 -12 14 C-9.38243868 8.32861715 -5.24688193 3.43065357 0 0 Z " fill="#B8E2DD" transform="translate(22,13)"/>
<path d="M0 0 C0.66 0 1.32 0 2 0 C3.60355101 3.50776784 4.22036864 6.14354879 4 10 C1.03 9.505 1.03 9.505 -2 9 C-1.34 6.03 -0.68 3.06 0 0 Z M0 10 C0.33 10 0.66 10 1 10 C1 11.65 1 13.3 1 15 C0.34 15 -0.32 15 -1 15 C-0.67 13.35 -0.34 11.7 0 10 Z " fill="#97FBFC" transform="translate(49,14)"/>
<path d="M0 0 C2.79054498 1.13688869 4.13833843 2.15838747 6.15625 4.46875 C9.53729682 7.47825321 12.47687573 8.16111913 16.8125 8.8125 C17.50537109 8.93302734 18.19824219 9.05355469 18.91210938 9.17773438 C20.60509913 9.46962916 22.30223105 9.73732631 24 10 C24 10.33 24 10.66 24 11 C11.37533842 11.73541718 11.37533842 11.73541718 6 7 C5.443125 6.56816406 4.88625 6.13632813 4.3125 5.69140625 C2.82055486 4.5275509 1.4031416 3.26950906 0 2 C0 1.34 0 0.68 0 0 Z " fill="#5862B1" transform="translate(15,74)"/>
<path d="M0 0 C0.66 0.33 1.32 0.66 2 1 C2 7.6 2 14.2 2 21 C1.34 20.67 0.68 20.34 0 20 C-1.35723115 13.62101361 -2.0789832 6.23694961 0 0 Z " fill="#3667B1" transform="translate(12,45)"/>
<path d="M0 0 C0.93423645 3.01031744 1.04449911 3.86650268 0 7 C-0.12411414 9.86617063 -0.18982885 12.69627095 -0.1875 15.5625 C-0.1884668 16.77172119 -0.1884668 16.77172119 -0.18945312 18.00537109 C-0.13774263 23.84983192 0.41051863 29.35166443 2 35 C-0 34 -0 34 -1.10839844 31.76928711 C-2.02971156 28.90771682 -2.25810832 26.6876102 -2.265625 23.69140625 C-2.26820313 22.69689453 -2.27078125 21.70238281 -2.2734375 20.67773438 C-2.26570312 19.64970703 -2.25796875 18.62167969 -2.25 17.5625 C-2.25773438 16.53833984 -2.26546875 15.51417969 -2.2734375 14.45898438 C-2.25996151 9.25388393 -2.1013093 4.86136238 0 0 Z " fill="#95B8CE" transform="translate(7,36)"/>
<path d="M0 0 C3.56343212 1.96603151 5.14388681 4.44779133 6.47265625 8.26171875 C7.65567427 14.40464936 7.20399461 20.77438667 7 27 C6.67 27 6.34 27 6 27 C5.94392578 25.69675781 5.94392578 25.69675781 5.88671875 24.3671875 C5.43197356 15.77942313 5.43197356 15.77942313 2 8 C0.6719707 4.99446 0 3.30607417 0 0 Z " fill="#68A3C3" transform="translate(87,33)"/>
<path d="M0 0 C3.9492568 0.55105909 7.34920174 1.38935371 11 3 C11.33 2.01 11.66 1.02 12 0 C15.07692308 4.30769231 15.07692308 4.30769231 14.6875 7.8125 C14.460625 8.534375 14.23375 9.25625 14 10 C13.49210937 9.60167969 12.98421875 9.20335937 12.4609375 8.79296875 C8.46096502 5.71433825 4.63120857 3.08404386 0 1 C0 0.67 0 0.34 0 0 Z " fill="#B1DFDA" transform="translate(67,14)"/>
<path d="M0 0 C0.66 0.99 1.32 1.98 2 3 C2.43699219 3.65097656 2.87398437 4.30195313 3.32421875 4.97265625 C3.77410156 5.66230469 4.22398438 6.35195313 4.6875 7.0625 C5.14511719 7.75472656 5.60273437 8.44695313 6.07421875 9.16015625 C6.37972656 9.76730469 6.68523438 10.37445313 7 11 C6.67 11.66 6.34 12.32 6 13 C3.69 11.02 1.38 9.04 -1 7 C-1.66 7.66 -2.32 8.32 -3 9 C-3 7.02 -3 5.04 -3 3 C-2.01 3 -1.02 3 0 3 C0 2.01 0 1.02 0 0 Z " fill="#83DDF9" transform="translate(53,21)"/>
<path d="M0 0 C-0.33 1.65 -0.66 3.3 -1 5 C-4.375 5.625 -4.375 5.625 -8 6 C-8.66 5.34 -9.32 4.68 -10 4 C-10 3.34 -10 2.68 -10 2 C-6.38026598 0.68373308 -3.90432869 0 0 0 Z " fill="#34E9FF" transform="translate(72,66)"/>
<path d="M0 0 C0.64453125 1.765625 0.64453125 1.765625 1 4 C0.07421875 5.921875 0.07421875 5.921875 -1.3125 7.75 C-1.98732422 8.67039062 -1.98732422 8.67039062 -2.67578125 9.609375 C-3.11277344 10.06828125 -3.54976562 10.5271875 -4 11 C-4.66 11 -5.32 11 -6 11 C-6.2475 11.61875 -6.495 12.2375 -6.75 12.875 C-8.22047178 15.37480203 -9.41403076 15.83316022 -12 17 C-8.19648587 11.17334006 -4.23982103 5.51778127 0 0 Z " fill="#E3E5E6" transform="translate(90,72)"/>
<path d="M0 0 C1.70884005 1.62339805 3.37446717 3.29319053 5 5 C5 5.66 5 6.32 5 7 C5.66 7 6.32 7 7 7 C7.3403125 8.299375 7.3403125 8.299375 7.6875 9.625 C9.24025095 13.61778814 11.14319895 15.84248305 14 19 C6.95102853 16.38926982 3.0292078 8.44512298 0 2 C0 1.34 0 0.68 0 0 Z " fill="#9BA2C8" transform="translate(8,67)"/>
<path d="M0 0 C2.3125 0.5 2.3125 0.5 5 2 C7.73432268 7.56629974 8.58728306 12.85194077 9 19 C8.67 19 8.34 19 8 19 C8 17.35 8 15.7 8 14 C7.34 14 6.68 14 6 14 C5.67 10.7 5.34 7.4 5 4 C3.68 4 2.36 4 1 4 C0.01 3.67 -0.98 3.34 -2 3 C-1.34 2.01 -0.68 1.02 0 0 Z " fill="#4490BB" transform="translate(81,30)"/>
<path d="M0 0 C0.53625 0.721875 1.0725 1.44375 1.625 2.1875 C3.54986895 4.46695007 4.96481022 5.75197913 7.3125 7.4375 C10 10 10 10 10.125 13.125 C8.87751275 16.31302298 8.04727889 17.47636055 5 19 C4.01 18.67 3.02 18.34 2 18 C3.65 16.68 5.3 15.36 7 14 C6.28620032 9.80755629 4.38866212 8.25653567 1.27734375 5.5625 C0 4 0 4 0 0 Z " fill="#2259FF" transform="translate(66,54)"/>
<path d="M0 0 C0.33 1.32 0.66 2.64 1 4 C-0.2375 4.37125 -0.2375 4.37125 -1.5 4.75 C-4.95206457 5.9828802 -7.97716572 7.51190907 -11.16796875 9.29296875 C-13 10 -13 10 -16 9 C-10.78980969 5.80665755 -5.4675394 2.7337697 0 0 Z " fill="#71A5B2" transform="translate(45,21)"/>
<path d="M0 0 C0.66 0 1.32 0 2 0 C2 0.66 2 1.32 2 2 C2.66 2 3.32 2 4 2 C4 2.66 4 3.32 4 4 C3.52949219 4.43957031 3.05898437 4.87914062 2.57421875 5.33203125 C0.62048207 7.4021195 0.3350176 8.91413734 -0.1875 11.6875 C-0.34605469 12.49574219 -0.50460938 13.30398437 -0.66796875 14.13671875 C-0.77753906 14.75160156 -0.88710938 15.36648437 -1 16 C-1.33 16 -1.66 16 -2 16 C-2.33 14.35 -2.66 12.7 -3 11 C-3.99 11.495 -3.99 11.495 -5 12 C-3.125 7.25 -3.125 7.25 -2 5 C-1.34 5 -0.68 5 0 5 C0 3.35 0 1.7 0 0 Z " fill="#357EFF" transform="translate(63,49)"/>
<path d="M0 0 C3.33772993 1.40155759 5.01749057 2.9509686 7.125 5.875 C7.62257813 6.55304687 8.12015625 7.23109375 8.6328125 7.9296875 C9.96381208 9.94520114 11.14036914 11.74014567 12 14 C11.54736328 16.12451172 11.54736328 16.12451172 11 18 C10.37351562 16.95199219 9.74703125 15.90398438 9.1015625 14.82421875 C8.27608079 13.44528908 7.4505578 12.06638412 6.625 10.6875 C6.2125 9.99720703 5.8 9.30691406 5.375 8.59570312 C4.97539063 7.92861328 4.57578125 7.26152344 4.1640625 6.57421875 C3.79748535 5.96151123 3.4309082 5.34880371 3.05322266 4.7175293 C2.0740333 3.12072885 1.03902076 1.55853114 0 0 Z " fill="#DDEFE9" transform="translate(83,17)"/>
<path d="M0 0 C0.99 0.66 1.98 1.32 3 2 C3.1875 5.625 3.1875 5.625 3 9 C-0.26460973 7.19587357 -1.88929795 6.16605307 -4 3 C-2.68 2.01 -1.36 1.02 0 0 Z " fill="#6996AA" transform="translate(28,32)"/>
<path d="M0 0 C2 3 2 3 1.8984375 5.05078125 C0.71044535 10.18397121 -0.78125912 13.81563685 -4 18 C-4 15 -4 15 -3 13 C-2.72690486 10.47278622 -2.55442823 7.94588875 -2.37890625 5.41015625 C-2 3 -2 3 0 0 Z " fill="#91CFD3" transform="translate(81,19)"/>
<path d="M0 0 C0.33 0.66 0.66 1.32 1 2 C-0.2625558 4.46198381 -1.4688762 6.50612384 -3.50390625 8.3984375 C-5.22898776 10.2451305 -5.86876215 11.80926149 -6.6875 14.1875 C-6.93886719 14.90292969 -7.19023437 15.61835937 -7.44921875 16.35546875 C-7.63097656 16.89816406 -7.81273437 17.44085938 -8 18 C-8.33 18 -8.66 18 -9 18 C-9.49732903 13.82243616 -9.27466163 12.36374108 -6.6875 8.9375 C-5.800625 7.968125 -4.91375 6.99875 -4 6 C-2.9731657 4.3497306 -1.96432076 2.68756133 -1 1 C-0.67 0.67 -0.34 0.34 0 0 Z " fill="#6CB3C7" transform="translate(17,24)"/>
<path d="M0 0 C0.66 0.66 1.32 1.32 2 2 C1.01 2.804375 1.01 2.804375 0 3.625 C-2.27795261 5.87763478 -2.27795261 5.87763478 -2.3125 9.0625 C-2.09993931 12.05700861 -2.09993931 12.05700861 -1 15 C-1.66 15 -2.32 15 -3 15 C-4.63831628 11.26827959 -5.05788794 9.31575243 -4.3125 5.25 C-3 2 -3 2 0 0 Z " fill="#8ECCD1" transform="translate(24,20)"/>
<path d="M0 0 C0.66 0.33 1.32 0.66 2 1 C0.71034824 2.37562854 -0.62689293 3.70766393 -2 5 C-2.66 5 -3.32 5 -4 5 C-4.268125 5.639375 -4.53625 6.27875 -4.8125 6.9375 C-6 9 -6 9 -9 10 C-9.70151152 11.3153341 -10.36525925 12.65117592 -11 14 C-12.625 15.75 -12.625 15.75 -14 17 C-12.59163827 12.51884905 -10.36881776 10.20839787 -7 7 C-5.948125 5.6696875 -5.948125 5.6696875 -4.875 4.3125 C-3 2 -3 2 0 0 Z " fill="#DEF2EA" transform="translate(22,11)"/>
<path d="M0 0 C1.65 0 3.3 0 5 0 C5.33 0.99 5.66 1.98 6 3 C6.99 3.33 7.98 3.66 9 4 C9 4.66 9 5.32 9 6 C7.35 6 5.7 6 4 6 C4 5.34 4 4.68 4 4 C1.525 3.01 1.525 3.01 -1 2 C-0.67 1.34 -0.34 0.68 0 0 Z " fill="#316EFF" transform="translate(61,45)"/>
<path d="M0 0 C0.33 0 0.66 0 1 0 C2.125 6.625 2.125 6.625 1 10 C0.01 10.33 -0.98 10.66 -2 11 C-3 10 -3 10 -3.25 7.1875 C-2.97814149 3.72130405 -2.37281664 2.46772931 0 0 Z " fill="#6B95A8" transform="translate(72,31)"/>
<path d="M0 0 C0.66 0.66 1.32 1.32 2 2 C1.360625 2.433125 0.72125 2.86625 0.0625 3.3125 C-2.26746003 4.91239177 -2.26746003 4.91239177 -3 8 C-3.99 8.495 -3.99 8.495 -5 9 C-5.90725434 11.11327425 -5.90725434 11.11327425 -6.625 13.5625 C-6.88539062 14.38878906 -7.14578125 15.21507812 -7.4140625 16.06640625 C-7.60742188 16.70449219 -7.80078125 17.34257813 -8 18 C-8.33 18 -8.66 18 -9 18 C-8.60558672 11.82085856 -6.57348687 7.07104639 -3 2 C-2.01 1.34 -1.02 0.68 0 0 Z " fill="#4899BD" transform="translate(18,30)"/>
<path d="M0 0 C0.33 1.32 0.66 2.64 1 4 C1.66 4 2.32 4 3 4 C4.7265625 5.75 4.7265625 5.75 6.625 8 C7.25664062 8.7425 7.88828125 9.485 8.5390625 10.25 C9.02117188 10.8275 9.50328125 11.405 10 12 C9.01 12.33 8.02 12.66 7 13 C1.44843694 9.5580309 1.44843694 9.5580309 0.390625 5.8828125 C0.125 3.6875 0.125 3.6875 0 0 Z " fill="#2C3BA7" transform="translate(17,66)"/>
<path d="M0 0 C0.66 0.33 1.32 0.66 2 1 C2 1.66 2 2.32 2 3 C-1.06246747 4.78409802 -3.22079273 5.22880021 -6.75 5.125 C-7.54921875 5.10695313 -8.3484375 5.08890625 -9.171875 5.0703125 C-9.77515625 5.04710938 -10.3784375 5.02390625 -11 5 C-10.34 4.67 -9.68 4.34 -9 4 C-9 3.34 -9 2.68 -9 2 C-3.25 1.875 -3.25 1.875 -1 3 C-0.67 2.01 -0.34 1.02 0 0 Z " fill="#319AF8" transform="translate(73,72)"/>
<path d="M0 0 C2 2 2 2 2.3125 5.8125 C2.23655163 9.60301431 1.30623182 11.92502424 -1 15 C-1 11.90522086 -0.76520744 8.89553654 -0.5 5.8125 C-0.4071875 4.72582031 -0.314375 3.63914063 -0.21875 2.51953125 C-0.11046875 1.27236328 -0.11046875 1.27236328 0 0 Z " fill="#34A8F4" transform="translate(78,58)"/>
<path d="M0 0 C0.33 0.99 0.66 1.98 1 3 C-0.9375 6.1875 -0.9375 6.1875 -3 9 C-4.32 7.68 -5.64 6.36 -7 5 C-5.73223544 2.46447088 -4.53176935 2.15080425 -2 1 C-1.34 0.67 -0.68 0.34 0 0 Z " fill="#687F95" transform="translate(40,30)"/>
<path d="M0 0 C0.33 0.66 0.66 1.32 1 2 C-4.28 2.66 -9.56 3.32 -15 4 C-15 3.34 -15 2.68 -15 2 C-9.87080814 -0.10428384 -5.4389165 -0.21755666 0 0 Z " fill="#A9DED7" transform="translate(66,12)"/>
<path d="M0 0 C0.886875 0.763125 1.77375 1.52625 2.6875 2.3125 C4.69358898 3.99533294 6.54969971 5.32981982 8.8125 6.6875 C11 8 11 8 12 10 C6.98558397 9.848048 4.66645254 7.07298671 1.35546875 3.69140625 C0 2 0 2 0 0 Z " fill="#D5D8DF" transform="translate(14,80)"/>
<path d="M0 0 C5.90625 5.625 5.90625 5.625 6.1875 9.75 C6.125625 10.4925 6.06375 11.235 6 12 C5.01 12 4.02 12 3 12 C2 8 1 4 0 0 Z " fill="#2D57FF" transform="translate(36,53)"/>
<path d="M0 0 C0.99 0.99 1.98 1.98 3 3 C0.36 5.31 -2.28 7.62 -5 10 C-5.33 9.01 -5.66 8.02 -6 7 C-4.78515625 5.17578125 -4.78515625 5.17578125 -3.0625 3.3125 C-2.49660156 2.68988281 -1.93070313 2.06726562 -1.34765625 1.42578125 C-0.90292969 0.95527344 -0.45820313 0.48476563 0 0 Z " fill="#2680B2" transform="translate(20,34)"/>
<path d="M0 0 C3.53647504 1.67517239 4.7911563 2.49280817 6.3125 6.1875 C6.539375 7.115625 6.76625 8.04375 7 9 C5.8225266 8.26708288 4.65823146 7.51296199 3.5 6.75 C2.52546875 6.12351562 2.52546875 6.12351562 1.53125 5.484375 C1.0259375 4.99453125 0.520625 4.5046875 0 4 C0 2.68 0 1.36 0 0 Z " fill="#7FC2CC" transform="translate(82,22)"/>
<path d="M0 0 C2 1.375 2 1.375 4 3 C4 3.66 4 4.32 4 5 C5.65 4.34 7.3 3.68 9 3 C8.01 4.98 7.02 6.96 6 9 C5.34 9 4.68 9 4 9 C0 2.25 0 2.25 0 0 Z " fill="#688096" transform="translate(59,30)"/>
<path d="M0 0 C0.33 0.99 0.66 1.98 1 3 C-0.65 3.33 -2.3 3.66 -4 4 C-3.67 3.34 -3.34 2.68 -3 2 C-2.01 2 -1.02 2 0 2 C0 1.34 0 0.68 0 0 Z M-7 3 C-6.01 3.33 -5.02 3.66 -4 4 C-4.99 5.485 -4.99 5.485 -6 7 C-7.65 6.67 -9.3 6.34 -11 6 C-9.1875 4.4375 -9.1875 4.4375 -7 3 Z " fill="#6B8EA0" transform="translate(42,27)"/>
<path d="M0 0 C3.39417765 3.12621626 5.6062718 5.56541027 7 10 C2.57320993 8.52440331 2.08567304 6.09942632 0 2 C0 1.34 0 0.68 0 0 Z " fill="#D2D5DF" transform="translate(7,70)"/>
<path d="M0 0 C4.88764045 5.86516854 4.88764045 5.86516854 6 9 C5.71050922 10.34353414 5.38155437 11.67965718 5 13 C4.15615325 11.58957044 3.32530504 10.17135868 2.5 8.75 C2.0359375 7.96109375 1.571875 7.1721875 1.09375 6.359375 C0 4 0 4 0 0 Z " fill="#2F87FF" transform="translate(70,51)"/>
<path d="M0 0 C0.99 0.33 1.98 0.66 3 1 C2.52797514 5.24822374 0.03344482 7.19989709 -3 10 C-3.66 9.67 -4.32 9.34 -5 9 C-4.6390625 8.43410156 -4.278125 7.86820313 -3.90625 7.28515625 C-3.4421875 6.55167969 -2.978125 5.81820312 -2.5 5.0625 C-2.0359375 4.33160156 -1.571875 3.60070313 -1.09375 2.84765625 C0.08490056 1.21443196 0.08490056 1.21443196 0 0 Z " fill="#42A9EF" transform="translate(59,50)"/>
<path d="M0 0 C3 5.75 3 5.75 3 8 C2.34 8 1.68 8 1 8 C-0.37482707 6.36739286 -1.70647667 4.69774938 -3 3 C-3.66 2.34 -4.32 1.68 -5 1 C-2 0 -2 0 0 0 Z " fill="#41A6FF" transform="translate(69,43)"/>
<path d="M0 0 C0.66 1.32 1.32 2.64 2 4 C1.401875 4.391875 0.80375 4.78375 0.1875 5.1875 C-2.25511232 7.21137878 -3.50112814 9.22708706 -5 12 C-5.8125 10.3125 -5.8125 10.3125 -6 8 C-3.625 5.4375 -3.625 5.4375 -1 3 C-0.67 2.01 -0.34 1.02 0 0 Z " fill="#54A7C1" transform="translate(17,26)"/>
<path d="M0 0 C0.33 0.99 0.66 1.98 1 3 C-0.1875 5.1875 -0.1875 5.1875 -2 7 C-3.32 7 -4.64 7 -6 7 C-6 6.34 -6 5.68 -6 5 C-4.04072937 3.2856382 -2.04119788 1.61594832 0 0 Z " fill="#3643A9" transform="translate(82,70)"/>
<path d="M0 0 C2.71653543 5.07086614 2.71653543 5.07086614 3 8 C1.5625 9.75 1.5625 9.75 0 11 C-0.66 10.67 -1.32 10.34 -2 10 C-1.67 9.01 -1.34 8.02 -1 7 C-0.64456573 4.66993089 -0.3086247 2.33672984 0 0 Z " fill="#3EA9FD" transform="translate(44,63)"/>
<path d="M0 0 C0.75 1.5625 0.75 1.5625 1 4 C-0.13084437 6.50286409 -1.52139516 8.67007722 -3 11 C-3.66 11 -4.32 11 -5 11 C-3.77472971 6.94718288 -2.30119506 3.55639236 0 0 Z " fill="#3084FF" transform="translate(30,50)"/>
<path d="M0 0 C1.32 0.66 2.64 1.32 4 2 C3.25 3.9375 3.25 3.9375 2 6 C-0.125 6.75 -0.125 6.75 -2 7 C-1.34 4.69 -0.68 2.38 0 0 Z " fill="#87E6FB" transform="translate(46,22)"/>
<path d="M0 0 C0.33 0.66 0.66 1.32 1 2 C-2.375 2.625 -2.375 2.625 -6 3 C-6.66 2.34 -7.32 1.68 -8 1 C-5.29120665 -0.35439668 -2.99066732 -0.06501451 0 0 Z " fill="#33D6FF" transform="translate(70,69)"/>
<path d="M0 0 C2 1 2 1 3.25 3.75 C4.09059749 7.39258914 3.71597402 8.75871574 2 12 C1.67 12 1.34 12 1 12 C0.67 8.04 0.34 4.08 0 0 Z " fill="#1937A1" transform="translate(79,58)"/>
<path d="M0 0 C0.75 1.5625 0.75 1.5625 1 4 C-0.13084437 6.50286409 -1.52139516 8.67007722 -3 11 C-3.75 9.4375 -3.75 9.4375 -4 7 C-2.86915563 4.49713591 -1.47860484 2.32992278 0 0 Z " fill="#C7E2E1" transform="translate(9,27)"/>
<path d="M0 0 C0.33 1.32 0.66 2.64 1 4 C-1.64 4.33 -4.28 4.66 -7 5 C-4.78065836 1.67098753 -3.65316671 1.24976756 0 0 Z " fill="#78ACB5" transform="translate(45,21)"/>
<path d="M0 0 C0.8125 1.6875 0.8125 1.6875 1 4 C-1.1613627 6.51185394 -3.01962439 8.50981219 -6 10 C-4.6302836 6.00499382 -2.74277578 3.19990508 0 0 Z " fill="#C3C6D7" transform="translate(90,72)"/>
<path d="M0 0 C0.66 0 1.32 0 2 0 C2.66 3.3 3.32 6.6 4 10 C2 9 2 9 0.875 6.6875 C0 4 0 4 0 0 Z " fill="#B4BFD3" transform="translate(5,61)"/>
<path d="M0 0 C0.33 0 0.66 0 1 0 C1.36923077 5.41538462 1.36923077 5.41538462 -0.5 8.375 C-0.995 8.91125 -1.49 9.4475 -2 10 C-1.85950482 8.52031676 -1.71245174 7.04125484 -1.5625 5.5625 C-1.48128906 4.73878906 -1.40007813 3.91507813 -1.31640625 3.06640625 C-1 1 -1 1 0 0 Z " fill="#3D88B9" transform="translate(13,38)"/>
<path d="M0 0 C0.99 0.33 1.98 0.66 3 1 C3 1.99 3 2.98 3 4 C1.02 4.33 -0.96 4.66 -3 5 C-2.01 3.35 -1.02 1.7 0 0 Z " fill="#6A84FF" transform="translate(45,36)"/>
<path d="M0 0 C1.65 1.65 3.3 3.3 5 5 C4.67 5.66 4.34 6.32 4 7 C2.35 6.01 0.7 5.02 -1 4 C-0.67 2.68 -0.34 1.36 0 0 Z " fill="#5AADC3" transform="translate(82,26)"/>
<path d="M0 0 C3.465 1.485 3.465 1.485 7 3 C6.34 3.66 5.68 4.32 5 5 C5 5.99 5 6.98 5 8 C0 2.25 0 2.25 0 0 Z " fill="#232B5E" transform="translate(41,51)"/>
<path d="M0 0 C2.31 0.33 4.62 0.66 7 1 C7 1.66 7 2.32 7 3 C4 4 4 4 1.8125 3.0625 C1.214375 2.711875 0.61625 2.36125 0 2 C0 1.34 0 0.68 0 0 Z " fill="#42A8FC" transform="translate(38,48)"/>
<path d="M0 0 C1.9375 0.75 1.9375 0.75 4 2 C4.75 4.125 4.75 4.125 5 6 C4.01 6.33 3.02 6.66 2 7 C1.34 4.69 0.68 2.38 0 0 Z " fill="#7DDAF7" transform="translate(30,33)"/>
<path d="M0 0 C4.875 1.75 4.875 1.75 6 4 C5.4225 3.814375 4.845 3.62875 4.25 3.4375 C1.79307475 2.95976454 0.35602466 3.24270636 -2 4 C-1.34 2.68 -0.68 1.36 0 0 Z " fill="#439EBD" transform="translate(81,30)"/>
</svg>
