<?xml version="1.0" encoding="UTF-8"?>
<svg version="1.1" xmlns="http://www.w3.org/2000/svg" width="100" height="100">
<path d="M0 0 C10.78527154 7.340192 19.63745503 18.85282679 22.3125 31.875 C23.16527615 42.95168005 23.86192389 54.93500251 18.3125 64.875 C17.79171875 65.81472656 17.2709375 66.75445312 16.734375 67.72265625 C10.93596342 77.42585401 4.34832648 83.69280984 -5.6875 88.875 C-6.8321875 89.49955078 -6.8321875 89.49955078 -8 90.13671875 C-18.44382015 94.90673276 -34.02823211 94.9280893 -44.875 91.3125 C-47.31640625 90.19140625 -47.31640625 90.19140625 -49.6875 88.875 C-50.60402344 88.38902344 -51.52054688 87.90304688 -52.46484375 87.40234375 C-64.77795544 80.25769869 -72.17735767 69.93499555 -76.82421875 56.6171875 C-80.15037464 42.19882847 -77.95895968 27.88213292 -70.5625 15.1875 C-54.59486355 -8.34018514 -24.08953827 -14.03564007 0 0 Z " fill="#4E9974" transform="translate(77.6875,7.125)"/>
<path d="M0 0 C0.33 0 0.66 0 1 0 C1.14695312 0.87011719 1.14695312 0.87011719 1.296875 1.7578125 C2.65102774 8.8320932 5.12297461 14.26684296 10.98828125 18.83203125 C21.2112354 24.76729978 33.55169219 25.64980459 44.84375 22.68359375 C53.20385307 20.03319876 58.71703465 16.81096305 63.12109375 9.015625 C64.39461717 6.09501129 64.63697342 3.14623035 65 0 C66.35156675 1.65191491 67.679762 3.32294092 69 5 C69.64775391 5.74443359 69.64775391 5.74443359 70.30859375 6.50390625 C77.22390396 15.01979271 77.07467023 27.5493803 76 38 C74.01718902 45.08732025 70.74288485 51.38342583 66 57 C62.98509443 58.00496852 60.95818308 58.10335303 57.8125 58.0625 C56.91144531 58.05347656 56.01039062 58.04445312 55.08203125 58.03515625 C54.39496094 58.02355469 53.70789063 58.01195312 53 58 C53 58.66 53 59.32 53 60 C52.09507813 60.18175781 52.09507813 60.18175781 51.171875 60.3671875 C49.97304687 60.61855469 49.97304687 60.61855469 48.75 60.875 C47.96109375 61.03742188 47.1721875 61.19984375 46.359375 61.3671875 C44.00890605 61.89282133 44.00890605 61.89282133 42.12890625 63.0546875 C35.3074182 66.08367852 25.81100596 64.27033532 19 62 C16.98152699 61.69242316 14.96035387 61.40230677 12.9375 61.125 C4.54696901 59.73701415 0.46930614 55.98463551 -4.5234375 49.3203125 C-6.49391371 46.22384989 -7.26921004 43.58087081 -8 40 C-8.33 39.34 -8.66 38.68 -9 38 C-9.9180765 25.38773592 -8.60790006 14.49365526 -1 4 C-0.23060319 1.77397385 -0.23060319 1.77397385 0 0 Z " fill="#22A96E" transform="translate(17,22)"/>
<path d="M0 0 C10.78527154 7.340192 19.63745503 18.85282679 22.3125 31.875 C23.16527615 42.95168005 23.86192389 54.93500251 18.3125 64.875 C17.79171875 65.81472656 17.2709375 66.75445312 16.734375 67.72265625 C10.93596342 77.42585401 4.34832648 83.69280984 -5.6875 88.875 C-6.8321875 89.49955078 -6.8321875 89.49955078 -8 90.13671875 C-18.44382015 94.90673276 -34.02823211 94.9280893 -44.875 91.3125 C-47.31640625 90.19140625 -47.31640625 90.19140625 -49.6875 88.875 C-50.60402344 88.38902344 -51.52054688 87.90304688 -52.46484375 87.40234375 C-64.77795544 80.25769869 -72.17735767 69.93499555 -76.82421875 56.6171875 C-80.15037464 42.19882847 -77.95895968 27.88213292 -70.5625 15.1875 C-54.59486355 -8.34018514 -24.08953827 -14.03564007 0 0 Z M-5.6875 1.875 C-4.6975 3.525 -3.7075 5.175 -2.6875 6.875 C-3.40035156 6.730625 -4.11320312 6.58625 -4.84765625 6.4375 C-15.01363563 4.46724289 -23.51239377 5.1612979 -33.6875 6.875 C-33.6875 6.215 -33.6875 5.555 -33.6875 4.875 C-40.27107411 4.51734104 -44.78226157 4.92238078 -50.6875 7.875 C-53 8.6875 -53 8.6875 -54.6875 8.875 C-55.3475 8.215 -56.0075 7.555 -56.6875 6.875 C-64.09419585 13.11055163 -69.16889296 18.3126117 -71.9765625 27.7265625 C-72.6875 29.875 -72.6875 29.875 -73.70874023 31.7355957 C-76.88946453 38.68812426 -75.73972994 50.23266561 -73.671875 57.390625 C-72.46921209 59.98431971 -71.13847486 62.41407607 -69.6875 64.875 C-69.23375 66.091875 -68.78 67.30875 -68.3125 68.5625 C-65.77747668 73.73004753 -62.3177867 78.65161084 -57 81.125 C-56.236875 81.3725 -55.47375 81.62 -54.6875 81.875 C-54.11386719 82.50535156 -53.54023437 83.13570313 -52.94921875 83.78515625 C-50.16168985 86.36085221 -47.82482097 87.04054629 -44.1875 88.0625 C-43.0634375 88.38605469 -41.939375 88.70960937 -40.78125 89.04296875 C-39.24984375 89.45482422 -39.24984375 89.45482422 -37.6875 89.875 C-37.03265625 90.06835938 -36.3778125 90.26171875 -35.703125 90.4609375 C-22.91805904 93.08732702 -10.82902661 89.79360504 0.14453125 83.1640625 C4.87658321 79.69546057 8.27003821 75.88034036 11.3125 70.875 C11.3125 70.215 11.3125 69.555 11.3125 68.875 C11.9725 68.875 12.6325 68.875 13.3125 68.875 C19.94150247 58.9314963 20.93758504 46.11790793 18.89355469 34.4921875 C18.36035207 31.93598051 17.7626553 29.40710313 17.125 26.875 C16.8309729 25.67327148 16.8309729 25.67327148 16.53100586 24.44726562 C14.27480679 16.21521134 9.27708585 11.48718101 2.625 6.5 C1.75391602 5.82517578 1.75391602 5.82517578 0.86523438 5.13671875 C-2.08048668 2.66632954 -2.08048668 2.66632954 -5.6875 1.875 Z " fill="#F2F9E8" transform="translate(77.6875,7.125)"/>
<path d="M0 0 C0.65027664 0.02265427 1.30055328 0.04530853 1.97053528 0.06864929 C3.33464096 0.11829282 4.69856431 0.17320293 6.06225586 0.2331543 C8.14864362 0.3243986 10.23512688 0.39890183 12.32226562 0.47070312 C22.51658534 0.86490345 22.51658534 0.86490345 25.95703125 2.01171875 C25.95703125 2.67171875 25.95703125 3.33171875 25.95703125 4.01171875 C27.27703125 4.34171875 28.59703125 4.67171875 29.95703125 5.01171875 C31.98065582 10.60644551 32.41248327 15.18991066 30.95703125 21.01171875 C29.45703125 24.13671875 29.45703125 24.13671875 26.95703125 26.01171875 C21.65892318 26.46725701 17.23510864 25.18577617 12.95703125 22.01171875 C13.28703125 20.69171875 13.61703125 19.37171875 13.95703125 18.01171875 C13.29703125 18.01171875 12.63703125 18.01171875 11.95703125 18.01171875 C11.29703125 19.00171875 10.63703125 19.99171875 9.95703125 21.01171875 C8.15234375 22.1796875 8.15234375 22.1796875 6.08203125 23.19921875 C5.40398438 23.54339844 4.7259375 23.88757813 4.02734375 24.2421875 C0.97958243 25.37503463 -1.33111783 25.32809694 -4.29296875 24.01171875 C-4.87046875 23.68171875 -5.44796875 23.35171875 -6.04296875 23.01171875 C-0.29296875 18.13671875 -0.29296875 18.13671875 1.95703125 17.01171875 C-1.85788981 17.68494011 -5.46699949 18.50186506 -9.04296875 20.01171875 C-10.46351943 22.01308119 -10.46351943 22.01308119 -11.04296875 24.01171875 C-11.70296875 24.01171875 -12.36296875 24.01171875 -13.04296875 24.01171875 C-13.98046875 21.51171875 -13.98046875 21.51171875 -14.04296875 18.01171875 C-12.01924962 15.03310801 -9.60539936 12.5320437 -7.04296875 10.01171875 C-6.71296875 9.68171875 -6.38296875 9.35171875 -6.04296875 9.01171875 C-6.56246094 9.43324219 -7.08195312 9.85476562 -7.6171875 10.2890625 C-14.54384748 15.73052367 -14.54384748 15.73052367 -19.04296875 16.01171875 C-19.45377997 12.65676045 -19.64439922 10.05586887 -17.91796875 7.05859375 C-12.9320474 0.87812874 -7.88161497 -0.30056783 0 0 Z " fill="#74D496" transform="translate(42.04296875,12.98828125)"/>
<path d="M0 0 C4.42756281 1.45407044 7.63094204 3.886317 11.125 6.875 C11.64964844 7.30941406 12.17429687 7.74382813 12.71484375 8.19140625 C15.52511265 10.56056965 18.0732681 12.84962433 20 16 C19.6875 18.25 19.6875 18.25 19 20 C18.443125 19.236875 17.88625 18.47375 17.3125 17.6875 C15.03320631 15.03859112 13.06400128 13.61711178 10 12 C10 13.35816717 10.17462744 14.71134893 10.3125 16.0625 C9.79493914 22.58376681 6.40858412 26.93791746 1.6875 31.3125 C-6.94569545 38.20407468 -18.34986286 38.88218423 -29 38 C-38.171699 36.31977043 -44.85311854 33.08197752 -51 26 C-53.98955485 21.560964 -54.3183808 18.30634673 -54 13 C-57.98069267 15.87494471 -60.43571997 18.82117329 -63 23 C-63.69140625 21.27734375 -63.69140625 21.27734375 -64 19 C-60.84052842 13.35736544 -56.11416349 8.86680654 -51 5 C-50.34 5.66 -49.68 6.32 -49 7 C-46.28300684 6.69811187 -44.33261261 5.6663063 -41.875 4.4375 C-37.359385 2.41088412 -32.85530926 2.73623068 -28 3 C-28 3.33 -28 3.66 -28 4 C-29.21236328 4.16435547 -29.21236328 4.16435547 -30.44921875 4.33203125 C-31.51785156 4.49058594 -32.58648437 4.64914063 -33.6875 4.8125 C-34.74324219 4.96332031 -35.79898438 5.11414063 -36.88671875 5.26953125 C-40.98694902 6.23156771 -43.84266009 7.84266009 -46.8125 10.8125 C-48.35502854 13.65399994 -48.2170174 15.81707811 -48 19 C-44.29496359 18.39665691 -42.14031852 16.77525763 -39.25 14.4375 C-38.05117188 13.47650391 -38.05117188 13.47650391 -36.828125 12.49609375 C-36.22484375 12.00238281 -35.6215625 11.50867187 -35 11 C-34.34 11.33 -33.68 11.66 -33 12 C-33.63808594 12.54269531 -34.27617188 13.08539063 -34.93359375 13.64453125 C-35.75988281 14.35996094 -36.58617188 15.07539063 -37.4375 15.8125 C-38.26121094 16.52019531 -39.08492187 17.22789063 -39.93359375 17.95703125 C-42.4929034 20.48731282 -42.97943333 22.11563324 -43.0625 25.6875 C-43.041875 26.450625 -43.02125 27.21375 -43 28 C-42.31164063 27.38511719 -42.31164063 27.38511719 -41.609375 26.7578125 C-40.99578125 26.21898438 -40.3821875 25.68015625 -39.75 25.125 C-39.14671875 24.59132813 -38.5434375 24.05765625 -37.921875 23.5078125 C-33.90150836 20.35362242 -31.11161231 19.76765399 -26 20 C-26.556875 20.4125 -27.11375 20.825 -27.6875 21.25 C-30.16195956 23.12256399 -32.5835229 25.05339344 -35 27 C-32.32778425 28.39261878 -32.32778425 28.39261878 -29 29 C-25.77867705 27.26916093 -25.77867705 27.26916093 -23 25 C-22.01 24.67 -21.02 24.34 -20 24 C-19.34 23.01 -18.68 22.02 -18 21 C-17.01 21.33 -16.02 21.66 -15 22 C-15.66 23.32 -16.32 24.64 -17 26 C-10.11175931 28.40990104 -10.11175931 28.40990104 -3 30 C-0.38043914 24.94798977 1.36504645 21.10611367 0.875 15.3125 C0.77832031 13.88357422 0.77832031 13.88357422 0.6796875 12.42578125 C0.24220019 9.83541969 0.24220019 9.83541969 -2.0546875 8.66796875 C-2.69664063 8.44753906 -3.33859375 8.22710937 -4 8 C-4 7.34 -4 6.68 -4 6 C-10.93 5.505 -10.93 5.505 -18 5 C-12.21925479 1.14616986 -5.63055742 3.30847878 0.83984375 4.5625 C1.55269531 4.706875 2.26554687 4.85125 3 5 C2.01 3.35 1.02 1.7 0 0 Z " fill="#92CE9F" transform="translate(72,9)"/>
<path d="M0 0 C1.9673374 3.28926371 2.24447228 5.75571581 2.1875 9.5625 C2.18105469 10.51253906 2.17460938 11.46257813 2.16796875 12.44140625 C2 15 2 15 1 18 C1 18.99 1 19.98 1 21 C-0.92441834 26.23570799 -3.28525232 29.85683488 -8 33 C-7.67 31.68 -7.34 30.36 -7 29 C-7.51949219 29.48210937 -8.03898437 29.96421875 -8.57421875 30.4609375 C-15.50087873 36.73462214 -15.50087873 36.73462214 -20 38 C-19 36 -18 34 -17 32 C-17.680625 32.66 -18.36125 33.32 -19.0625 34 C-22 36 -22 36 -25.1875 36.75 C-30.215156 35.76095292 -32.87227992 33.2807367 -36.66796875 29.9453125 C-40.1622593 27.03047717 -41.90015998 25.94108 -46.5 26.1875 C-49.85527913 26.96640408 -51.504779 27.70439668 -54 30 C-58.13745322 20.86312414 -57.87141866 12.51157432 -55 3 C-52.64828869 3.59861742 -50.3140622 4.26924352 -48 5 C-46.46554906 8.06890187 -47.45015711 10.70094266 -48 14 C-47.34 13.67 -46.68 13.34 -46 13 C-46.33 15.64 -46.66 18.28 -47 21 C-46.01 20.67 -45.02 20.34 -44 20 C-43.34 21.65 -42.68 23.3 -42 25 C-41.01 24.67 -40.02 24.34 -39 24 C-36.8125 25.4375 -36.8125 25.4375 -35 27 C-35 26.34 -35 25.68 -35 25 C-34.34 25 -33.68 25 -33 25 C-32.67 25.66 -32.34 26.32 -32 27 C-29.1840151 27.46898963 -29.1840151 27.46898963 -25.9375 27.625 C-24.83277344 27.69976562 -23.72804687 27.77453125 -22.58984375 27.8515625 C-21.73519531 27.90054688 -20.88054687 27.94953125 -20 28 C-20 27.34 -20 26.68 -20 26 C-18.865625 25.71125 -17.73125 25.4225 -16.5625 25.125 C-15.386875 24.75375 -14.21125 24.3825 -13 24 C-12.67 23.34 -12.34 22.68 -12 22 C-12.66 21.95875 -13.32 21.9175 -14 21.875 C-19.76530604 20.1934524 -25.17944648 15.58466423 -29 11 C-29.75 8.75 -29.75 8.75 -30 7 C-26.27566618 8.2125738 -22.62197194 9.50859979 -19 11 C-18.67 10.34 -18.34 9.68 -18 9 C-15.525 9.99 -15.525 9.99 -13 11 C-13 10.34 -13 9.68 -13 9 C-12.01 9 -11.02 9 -10 9 C-10 8.34 -10 7.68 -10 7 C-8.68 7 -7.36 7 -6 7 C-6 6.01 -6 5.02 -6 4 C-4.35 3.67 -2.7 3.34 -1 3 C-0.67 2.01 -0.34 1.02 0 0 Z " fill="#105C42" transform="translate(86,40)"/>
<path d="M0 0 C0.33 0 0.66 0 1 0 C1.12117188 0.60328125 1.24234375 1.2065625 1.3671875 1.828125 C1.53476562 2.62734375 1.70234375 3.4265625 1.875 4.25 C2.11863281 5.43335938 2.11863281 5.43335938 2.3671875 6.640625 C2.88958749 9.00838826 2.88958749 9.00838826 4.1328125 10.921875 C5.36618969 13.87753565 4.6060066 15.87019762 4 19 C3.79888734 21.97915836 3.76981883 24.95228822 3.75 27.9375 C3.729375 28.71029297 3.70875 29.48308594 3.6875 30.27929688 C3.62728398 39.18374094 7.26497238 45.33809923 13 52 C15.89441296 54.68766918 18.05594617 56.41569573 22 57 C22.268125 55.865625 22.53625 54.73125 22.8125 53.5625 C23.4003125 51.7990625 23.4003125 51.7990625 24 50 C27.46911125 48.84362958 28.89891355 49.36179852 32.1640625 50.8359375 C34.90196891 52.57188667 36.64300192 54.88121876 38.54296875 57.4765625 C40.28575921 59.29878309 41.54545562 59.61105721 44 60 C43.67 60.99 43.34 61.98 43 63 C35.40739358 65.53086881 26.46644587 64.48881529 19 62 C16.98152699 61.69242316 14.96035387 61.40230677 12.9375 61.125 C4.54696901 59.73701415 0.46930614 55.98463551 -4.5234375 49.3203125 C-6.49391371 46.22384989 -7.26921004 43.58087081 -8 40 C-8.33 39.34 -8.66 38.68 -9 38 C-9.9180765 25.38773592 -8.60790006 14.49365526 -1 4 C-0.23060319 1.77397385 -0.23060319 1.77397385 0 0 Z " fill="#1C634F" transform="translate(17,22)"/>
<path d="M0 0 C-0.66666667 2.66666667 -1.33333333 5.33333333 -2 8 C-2.99 8 -3.98 8 -5 8 C-5 8.99 -5 9.98 -5 11 C-6.32 11 -7.64 11 -9 11 C-9 11.66 -9 12.32 -9 13 C-9.99 13 -10.98 13 -12 13 C-12 13.66 -12 14.32 -12 15 C-12.7425 14.835 -13.485 14.67 -14.25 14.5 C-17.19006578 13.88074304 -17.19006578 13.88074304 -21 14 C-23.57979066 13.57003489 -25.65884511 13.17057744 -28 12 C-24.3556287 19.2887426 -18.46152922 23.25903008 -11 26 C-11.495 27.485 -11.495 27.485 -12 29 C-14.31 29.33 -16.62 29.66 -19 30 C-19 30.66 -19 31.32 -19 32 C-22.96 32 -26.92 32 -31 32 C-31.33 31.01 -31.66 30.02 -32 29 C-32.66 29 -33.32 29 -34 29 C-34 29.66 -34 30.32 -34 31 C-34.78375 30.67 -35.5675 30.34 -36.375 30 C-38.84332497 28.88133489 -38.84332497 28.88133489 -41 29 C-42 27.66666667 -43 26.33333333 -44 25 C-44.66 25 -45.32 25 -46 25 C-46 22.69 -46 20.38 -46 18 C-46.66 18.33 -47.32 18.66 -48 19 C-47.67 16.36 -47.34 13.72 -47 11 C-43.31612354 10.1328101 -40.02627885 9.94761321 -36.25 10.0625 C-28.10834688 10.11232652 -21.68519118 8.52400679 -14.34375 5.0859375 C-11.77758698 3.89694864 -9.18366125 2.81202223 -6.5625 1.75 C-5.73878906 1.41484375 -4.91507813 1.0796875 -4.06640625 0.734375 C-2 0 -2 0 0 0 Z " fill="#52E263" transform="translate(85,36)"/>
<path d="M0 0 C0.33 0 0.66 0 1 0 C1.02578125 0.94359375 1.0515625 1.8871875 1.078125 2.859375 C1.69613744 16.84892943 4.8820515 29.53199622 14.90234375 39.984375 C19.95320253 44.46928132 23.87615513 45.15166822 30.5703125 45.1328125 C31.70205399 45.13424759 31.70205399 45.13424759 32.85665894 45.13571167 C34.46222008 45.13639282 36.06778397 45.13454304 37.67333984 45.13037109 C40.06745064 45.12512608 42.46136463 45.13026296 44.85546875 45.13671875 C52.69659903 45.14219851 60.53337034 45.02941434 68.3671875 44.6796875 C69.06313019 44.65770294 69.75907288 44.63571838 70.47610474 44.61306763 C74.76193252 44.38423038 77.56430431 43.58655896 81 41 C82.97851006 38.5230081 82.97851006 38.5230081 84.625 35.6875 C85.21667969 34.71554688 85.80835937 33.74359375 86.41796875 32.7421875 C88.07509219 29.86984021 89.61606993 27.01208308 91 24 C91.75 25.5625 91.75 25.5625 92 28 C90.86915563 30.50286409 89.47860484 32.67007722 88 35 C87.34 35 86.68 35 86 35 C85.79375 35.680625 85.5875 36.36125 85.375 37.0625 C80.82231261 46.7886958 72.02550489 51.6492848 62.3125 55.375 C48.65527994 59.53686732 34.7858171 56.77864331 22 51 C21 49.66666667 20 48.33333333 19 47 C18.22785156 46.7215625 17.45570312 46.443125 16.66015625 46.15625 C10.21277639 43.35386463 6.14929951 35.99352161 3.625 29.6875 C3.07352855 28.12843353 2.53163106 26.56594299 2 25 C1.6390625 24.29101562 1.278125 23.58203125 0.90625 22.8515625 C-0.47857189 18.49414879 -0.208415 14.22720114 -0.125 9.6875 C-0.11597656 8.75615234 -0.10695312 7.82480469 -0.09765625 6.86523438 C-0.07418263 4.5765564 -0.04134729 2.28841328 0 0 Z " fill="#96B59E" transform="translate(3,41)"/>
<path d="M0 0 C6.9113364 0.47122748 12.72204161 3.20636006 19 6 C18.01 6.33 17.02 6.66 16 7 C16.99 8.32 17.98 9.64 19 11 C15.7491948 12.08360173 14.93082498 11.91331507 11.75 11.0625 C6.63464511 9.82948286 2.07140902 9.30953033 -3 11 C-4.72795352 11.06802967 -6.45835365 11.08495645 -8.1875 11.0625 C-9.08855469 11.05347656 -9.98960938 11.04445313 -10.91796875 11.03515625 C-11.60503906 11.02355469 -12.29210938 11.01195312 -13 11 C-13 10.34 -13 9.68 -13 9 C-15.06428157 9.25690181 -17.12641094 9.53113046 -19.1875 9.8125 C-20.33605469 9.96332031 -21.48460937 10.11414062 -22.66796875 10.26953125 C-26.03056646 11.00670097 -28.12619421 12.17213766 -31 14 C-33.1875 13.6875 -33.1875 13.6875 -35 13 C-38.76418705 13 -41.42144718 16.48504378 -44 19 C-47.22611859 23.03264823 -48.83257318 26.96803949 -50.2890625 31.8515625 C-51 34 -51 34 -52.02124023 35.8605957 C-55.20196453 42.81312426 -54.05222994 54.35766561 -51.984375 61.515625 C-50.78160605 64.1095484 -49.45245924 66.53962207 -48 69 C-47.50111888 70.24226339 -47.01954711 71.49174381 -46.5625 72.75 C-43.65142251 78.80504117 -40.36469667 82.70163731 -34 85 C-33.74089844 85.64324219 -33.48179688 86.28648438 -33.21484375 86.94921875 C-32.13756486 89.25389078 -32.13756486 89.25389078 -29.42578125 89.9765625 C-28.39839844 90.19054687 -27.37101562 90.40453125 -26.3125 90.625 C-25.24128906 90.86089844 -24.17007813 91.09679687 -23.06640625 91.33984375 C-22.05449219 91.55769531 -21.04257812 91.77554688 -20 92 C-17.65327655 92.62865636 -15.33002607 93.31158321 -13 94 C-13 94.33 -13 94.66 -13 95 C-20.72180574 96.99701873 -25.74993125 94.98667321 -32.5625 91.1484375 C-44.16211926 84.13605705 -52.42194014 73.5752031 -56.33984375 60.56640625 C-59.27834998 44.69151754 -57.1085188 30.11580731 -48.0703125 16.6171875 C-43.82260183 11.24744005 -38.68567475 6.79044983 -33 3 C-31.7934375 3.2475 -31.7934375 3.2475 -30.5625 3.5 C-27.50002543 4.09755601 -26.66499303 3.42132962 -24 2 C-23.01 2.33 -22.02 2.66 -21 3 C-21.99 3.33 -22.98 3.66 -24 4 C-24 4.99 -24 5.98 -24 7 C-22.82244141 6.94779297 -22.82244141 6.94779297 -21.62109375 6.89453125 C-15.22833246 6.72980979 -10.64448429 6.92119039 -5 10 C-4.67 9.01 -4.34 8.02 -4 7 C-1.72923158 6.97300275 0.54162821 6.95360547 2.8125 6.9375 C4.07707031 6.92589844 5.34164062 6.91429687 6.64453125 6.90234375 C10 7 10 7 13 8 C10.59231297 5.20836288 8.23853384 4.10282443 4.8125 2.8125 C3.91144531 2.46832031 3.01039062 2.12414062 2.08203125 1.76953125 C1.39496094 1.51558594 0.70789062 1.26164063 0 1 C0 0.67 0 0.34 0 0 Z " fill="#F1F8E8" transform="translate(57,3)"/>
<path d="M0 0 C0.69931641 -0.02900391 1.39863281 -0.05800781 2.11914062 -0.08789062 C7.27324505 -0.15056916 10.06364909 0.98999531 14.1875 4.3125 C16.1875 6.3125 16.1875 6.3125 16.3125 8.9375 C16.27125 9.72125 16.23 10.505 16.1875 11.3125 C12.00979194 12.50613087 10.12994659 11.88947863 6.1875 10.3125 C3.51609537 10.37959284 3.51609537 10.37959284 1.1875 11.3125 C0.1975 12.7975 0.1975 12.7975 -0.8125 14.3125 C-2.6171875 15.48046875 -2.6171875 15.48046875 -4.6875 16.5 C-5.36554687 16.84417969 -6.04359375 17.18835938 -6.7421875 17.54296875 C-9.78994882 18.67581588 -12.10064908 18.62887819 -15.0625 17.3125 C-15.64 16.9825 -16.2175 16.6525 -16.8125 16.3125 C-11.0625 11.4375 -11.0625 11.4375 -8.8125 10.3125 C-12.62742106 10.98572136 -16.23653074 11.80264631 -19.8125 13.3125 C-21.23305068 15.31386244 -21.23305068 15.31386244 -21.8125 17.3125 C-22.4725 17.3125 -23.1325 17.3125 -23.8125 17.3125 C-23.35521062 12.39663917 -22.31334733 9.81334733 -18.8125 6.3125 C-12.56959413 1.84429116 -7.72317907 0.10502963 0 0 Z " fill="#57A47E" transform="translate(52.8125,19.6875)"/>
<path d="M0 0 C1.35156675 1.65191491 2.679762 3.32294092 4 5 C4.43183594 5.49628906 4.86367187 5.99257813 5.30859375 6.50390625 C12.22390396 15.01979271 12.07467023 27.5493803 11 38 C9.01718902 45.08732025 5.74288485 51.38342583 1 57 C-2.01490557 58.00496852 -4.04181692 58.10335303 -7.1875 58.0625 C-8.08855469 58.05347656 -8.98960938 58.04445312 -9.91796875 58.03515625 C-10.60503906 58.02355469 -11.29210937 58.01195312 -12 58 C-12 58.66 -12 59.32 -12 60 C-13.32 59.67 -14.64 59.34 -16 59 C-13.33333333 57 -10.66666667 55 -8 53 C-7.30390625 52.47277344 -6.6078125 51.94554687 -5.890625 51.40234375 C-4.46280993 50.34328257 -2.99051281 49.34383333 -1.5 48.375 C1.8772922 45.16657241 3.67467645 41.45790649 5 37 C4.67 36.34 4.34 35.68 4 35 C4.33 34.34 4.66 33.68 5 33 C5.09584979 31.1478437 5.12983606 29.29212847 5.125 27.4375 C5.12757812 26.44621094 5.13015625 25.45492187 5.1328125 24.43359375 C5.27438431 22.05187652 5.27438431 22.05187652 4 21 C3.01 21 2.02 21 1 21 C1.57584432 18.61435923 2.22227595 16.33317216 3 14 C-1.95 15.485 -1.95 15.485 -7 17 C-6.57847656 16.35933594 -6.15695313 15.71867187 -5.72265625 15.05859375 C-2.48872921 9.95279364 -0.26429114 6.07869622 0 0 Z " fill="#428F6C" transform="translate(82,22)"/>
<path d="M0 0 C2.35171131 0.59861742 4.6859378 1.26924352 7 2 C8.53445094 5.06890187 7.54984289 7.70094266 7 11 C7.66 10.67 8.32 10.34 9 10 C8.67 12.64 8.34 15.28 8 18 C8.99 17.67 9.98 17.34 11 17 C11.66 18.65 12.32 20.3 13 22 C13.99 21.67 14.98 21.34 16 21 C18.1875 22.4375 18.1875 22.4375 20 24 C20 23.34 20 22.68 20 22 C20.66 22 21.32 22 22 22 C22.33 22.66 22.66 23.32 23 24 C25.8159849 24.46898963 25.8159849 24.46898963 29.0625 24.625 C30.16722656 24.69976562 31.27195313 24.77453125 32.41015625 24.8515625 C33.26480469 24.90054688 34.11945313 24.94953125 35 25 C35 24.34 35 23.68 35 23 C36.65 23 38.3 23 40 23 C39.12070257 26.51718971 38.28825508 28.68703734 35.8125 31.375 C31.98633695 33.58567198 30.37961002 33.86156263 26 33 C23.27297529 31.13989981 20.81112567 29.12379233 18.33203125 26.9453125 C14.8377407 24.03047717 13.09984002 22.94108 8.5 23.1875 C5.14472087 23.96640408 3.495221 24.70439668 1 27 C-3.13745322 17.86312414 -2.87141866 9.51157432 0 0 Z " fill="#0D4137" transform="translate(31,43)"/>
<path d="M0 0 C0 0.33 0 0.66 0 1 C-1.21236328 1.16435547 -1.21236328 1.16435547 -2.44921875 1.33203125 C-4.05216797 1.56986328 -4.05216797 1.56986328 -5.6875 1.8125 C-6.74324219 1.96332031 -7.79898438 2.11414063 -8.88671875 2.26953125 C-12.98694902 3.23156771 -15.84266009 4.84266009 -18.8125 7.8125 C-20.35502854 10.65399994 -20.2170174 12.81707811 -20 16 C-16.29496359 15.39665691 -14.14031852 13.77525763 -11.25 11.4375 C-10.05117188 10.47650391 -10.05117188 10.47650391 -8.828125 9.49609375 C-8.22484375 9.00238281 -7.6215625 8.50867187 -7 8 C-6.34 8.33 -5.68 8.66 -5 9 C-5.63808594 9.54269531 -6.27617188 10.08539063 -6.93359375 10.64453125 C-7.75988281 11.35996094 -8.58617188 12.07539063 -9.4375 12.8125 C-10.26121094 13.52019531 -11.08492187 14.22789063 -11.93359375 14.95703125 C-14.4929034 17.48731282 -14.97943333 19.11563324 -15.0625 22.6875 C-15.041875 23.450625 -15.02125 24.21375 -15 25 C-14.31164063 24.38511719 -14.31164063 24.38511719 -13.609375 23.7578125 C-12.99578125 23.21898438 -12.3821875 22.68015625 -11.75 22.125 C-11.14671875 21.59132813 -10.5434375 21.05765625 -9.921875 20.5078125 C-5.90150836 17.35362242 -3.11161231 16.76765399 2 17 C1.443125 17.4125 0.88625 17.825 0.3125 18.25 C-2.16195956 20.12256399 -4.5835229 22.05339344 -7 24 C-5.35 24.99 -3.7 25.98 -2 27 C-2.99 29.31 -3.98 31.62 -5 34 C-13.4756726 31.20372277 -19.96982424 27.54526364 -25 20 C-26.15979509 16.52061474 -26.21864643 13.64410721 -26 10 C-29.98069267 12.87494471 -32.43571997 15.82117329 -35 20 C-35.69140625 18.27734375 -35.69140625 18.27734375 -36 16 C-32.84052842 10.35736544 -28.11416349 5.86680654 -23 2 C-22.34 2.66 -21.68 3.32 -21 4 C-18.28300684 3.69811187 -16.33261261 2.6663063 -13.875 1.4375 C-9.359385 -0.58911588 -4.85530926 -0.26376932 0 0 Z " fill="#95DDA9" transform="translate(44,12)"/>
<path d="M0 0 C0.66 0.66 1.32 1.32 2 2 C1.71881941 4.00799616 1.37188116 6.00680771 1 8 C0.79964383 10.9792398 0.76981913 13.95224409 0.75 16.9375 C0.729375 17.71029297 0.70875 18.48308594 0.6875 19.27929688 C0.62728398 28.18374094 4.26497238 34.33809923 10 41 C12.89441296 43.68766918 15.05594617 45.41569573 19 46 C19.268125 44.865625 19.53625 43.73125 19.8125 42.5625 C20.204375 41.386875 20.59625 40.21125 21 39 C24.46911125 37.84362958 25.89891355 38.36179852 29.1640625 39.8359375 C31.90196891 41.57188667 33.64300192 43.88121876 35.54296875 46.4765625 C37.28575921 48.29878309 38.54545562 48.61105721 41 49 C40.67 49.99 40.34 50.98 40 52 C36.49288381 53.16903873 33.63217614 53.16839619 29.9375 53.1875 C28.68839844 53.20167969 27.43929687 53.21585938 26.15234375 53.23046875 C23 53 23 53 21 51 C19.11716747 50.07715492 17.21891971 49.18557804 15.3125 48.3125 C5.91490342 43.61370171 1.38120376 38.69720681 -2.12109375 28.67578125 C-4.44177431 18.97017945 -3.9475035 9.21084151 0 0 Z " fill="#229E6B" transform="translate(20,33)"/>
<path d="M0 0 C0.99 0.33 1.98 0.66 3 1 C2.34 2.32 1.68 3.64 1 5 C1.63808594 5.20496094 2.27617188 5.40992188 2.93359375 5.62109375 C3.75988281 5.89050781 4.58617188 6.15992188 5.4375 6.4375 C6.26121094 6.70433594 7.08492187 6.97117187 7.93359375 7.24609375 C10 8 10 8 11 9 C13.32817964 9.36760731 15.6618385 9.70241581 18 10 C14.83510356 14.74734467 10.17223491 15.54048877 4.75 16.6875 C-8.92439151 17.82703263 -8.92439151 17.82703263 -15 16 C-13.72472262 10.51630725 -11.56426545 8.22183444 -7 5 C-5.33859237 4.32033324 -3.67299959 3.65061095 -2 3 C-1.34 2.01 -0.68 1.02 0 0 Z " fill="#98EE9A" transform="translate(54,30)"/>
<path d="M0 0 C6.9113364 0.47122748 12.72204161 3.20636006 19 6 C18.01 6.33 17.02 6.66 16 7 C16.99 8.32 17.98 9.64 19 11 C15.7491948 12.08360173 14.93082498 11.91331507 11.75 11.0625 C6.63464511 9.82948286 2.07140902 9.30953033 -3 11 C-4.72795352 11.06802967 -6.45835365 11.08495645 -8.1875 11.0625 C-9.08855469 11.05347656 -9.98960938 11.04445313 -10.91796875 11.03515625 C-11.60503906 11.02355469 -12.29210938 11.01195312 -13 11 C-13 10.34 -13 9.68 -13 9 C-15.06428157 9.25690181 -17.12641094 9.53113046 -19.1875 9.8125 C-20.33605469 9.96332031 -21.48460938 10.11414062 -22.66796875 10.26953125 C-26.03056646 11.00670097 -28.12619421 12.17213766 -31 14 C-33.1875 13.6875 -33.1875 13.6875 -35 13 C-38.76418705 13 -41.42144718 16.48504378 -44 19 C-47.25127092 23.06408865 -48.8424389 27.02218896 -50.2890625 31.94921875 C-51 34 -51 34 -53 37 C-51.90754244 24.16362369 -44.6200912 16.07113955 -35.4375 7.5625 C-31.88934954 4.65119705 -28.40906155 3.24923411 -24 2 C-23.01 2.33 -22.02 2.66 -21 3 C-21.99 3.33 -22.98 3.66 -24 4 C-24 4.99 -24 5.98 -24 7 C-22.82244141 6.94779297 -22.82244141 6.94779297 -21.62109375 6.89453125 C-15.22833246 6.72980979 -10.64448429 6.92119039 -5 10 C-4.67 9.01 -4.34 8.02 -4 7 C-1.72923158 6.97300275 0.54162821 6.95360547 2.8125 6.9375 C4.07707031 6.92589844 5.34164062 6.91429687 6.64453125 6.90234375 C10 7 10 7 13 8 C10.59231297 5.20836288 8.23853384 4.10282443 4.8125 2.8125 C3.91144531 2.46832031 3.01039062 2.12414062 2.08203125 1.76953125 C1.39496094 1.51558594 0.70789062 1.26164063 0 1 C0 0.67 0 0.34 0 0 Z " fill="#CCEBC3" transform="translate(57,3)"/>
<path d="M0 0 C1.5625 1.25 1.5625 1.25 3 3 C2.68921444 4.33876855 2.35067599 5.67112256 2 7 C1.93311409 8.91561254 1.91468281 10.83335592 1.9375 12.75 C1.94652344 13.73484375 1.95554687 14.7196875 1.96484375 15.734375 C1.97644531 16.48203125 1.98804688 17.2296875 2 18 C2.19335938 17.36191406 2.38671875 16.72382812 2.5859375 16.06640625 C2.97652344 14.82697266 2.97652344 14.82697266 3.375 13.5625 C3.63023438 12.73878906 3.88546875 11.91507813 4.1484375 11.06640625 C5 9 5 9 7 8 C6.84144531 8.67546875 6.68289062 9.3509375 6.51953125 10.046875 C4.92780224 19.09459777 4.5600245 29.17755348 10 37 C10.66 37.33 11.32 37.66 12 38 C12.433125 37.071875 12.433125 37.071875 12.875 36.125 C14 34 14 34 16 32 C19.125 31.875 19.125 31.875 22 32 C22.33 32.66 22.66 33.32 23 34 C22.38125 34.37125 21.7625 34.7425 21.125 35.125 C18.4489404 37.48622906 17.9063156 39.60131652 17 43 C11.10638027 42.19167368 7.99974555 39.21791349 4 35 C-1.24197986 28.07079812 -2.18066341 22.57405374 -2.1875 14.0625 C-2.19974609 13.26392578 -2.21199219 12.46535156 -2.22460938 11.64257812 C-2.23539269 7.30409295 -2.02015379 3.9524748 0 0 Z " fill="#51E264" transform="translate(22,36)"/>
<path d="M0 0 C0.75 1.5625 0.75 1.5625 1 4 C-0.13084437 6.50286409 -1.52139516 8.67007722 -3 11 C-3.66 11 -4.32 11 -5 11 C-5.20625 11.680625 -5.4125 12.36125 -5.625 13.0625 C-10.17768739 22.7886958 -18.97449511 27.6492848 -28.6875 31.375 C-40.83085288 35.07553519 -52.25596829 33.15744792 -64 29 C-65.37865234 28.52046875 -65.37865234 28.52046875 -66.78515625 28.03125 C-69.73634499 26.65715154 -70.57254417 24.85491165 -72 22 C-68.85159294 22.99827541 -65.90820594 24.04496036 -62.9375 25.5 C-50.77519435 30.77392015 -38.81580415 29.20633799 -26.78515625 24.921875 C-23.4864095 23.83000371 -20.44972472 23.31361134 -17 23 C-17 22.34 -17 21.68 -17 21 C-15.989375 20.566875 -14.97875 20.13375 -13.9375 19.6875 C-6.95499587 15.73594087 -3.25168186 7.07718993 0 0 Z " fill="#C7DDBC" transform="translate(94,65)"/>
<path d="M0 0 C0.66 0.33 1.32 0.66 2 1 C2 1.99 2 2.98 2 4 C2.7425 4.226875 3.485 4.45375 4.25 4.6875 C7.52231364 6.24928606 8.86020939 8.12235056 11 11 C11.66 11.33 12.32 11.66 13 12 C17.6542308 24.55283415 19.13692996 37.42420908 14.3359375 50.17578125 C11.16106139 56.88758075 6.71279194 63.21360675 1 68 C-1.3125 68.8125 -1.3125 68.8125 -3 69 C-0.12526093 65.48643003 2.78906216 62.21093784 6 59 C7.89091066 56.16363401 8.3902577 54.79086771 9 51.5625 C9.45473549 49.16295825 9.83726832 47.28660207 11.046875 45.15625 C14.2829724 37.83524278 12.67522915 24.37123224 10 17 C8.30969369 14.431359 6.51785632 12.15859967 4.4609375 9.875 C3 8 3 8 3 5 C2.34 5 1.68 5 1 5 C0.67 3.35 0.34 1.7 0 0 Z " fill="#8CBC96" transform="translate(80,17)"/>
<path d="M0 0 C-0.66666667 2.66666667 -1.33333333 5.33333333 -2 8 C-2.99 8 -3.98 8 -5 8 C-5 8.99 -5 9.98 -5 11 C-6.32 11 -7.64 11 -9 11 C-9 11.66 -9 12.32 -9 13 C-9.99 13 -10.98 13 -12 13 C-12 13.66 -12 14.32 -12 15 C-12.7425 14.835 -13.485 14.67 -14.25 14.5 C-17.19006578 13.88074304 -17.19006578 13.88074304 -21 14 C-23.57979066 13.57003489 -25.65884511 13.17057744 -28 12 C-24.3556287 19.2887426 -18.46152922 23.25903008 -11 26 C-11 26.66 -11 27.32 -11 28 C-18.17029915 26.16146176 -24.62443005 22.22968389 -29.125 16.3125 C-29.74375 15.219375 -30.3625 14.12625 -31 13 C-30.67 12.01 -30.34 11.02 -30 10 C-28.25 9.41015625 -28.25 9.41015625 -26 9.0625 C-21.76948862 8.25382405 -18.2319719 6.90683015 -14.34375 5.0859375 C-11.77758698 3.89694864 -9.18366125 2.81202223 -6.5625 1.75 C-5.73878906 1.41484375 -4.91507813 1.0796875 -4.06640625 0.734375 C-2 0 -2 0 0 0 Z " fill="#56E465" transform="translate(85,36)"/>
<path d="M0 0 C0.66 0 1.32 0 2 0 C2.88357207 1.34326835 3.70627925 2.72675938 4.5 4.125 C7.51857329 8.86527806 10.80721727 11.12452889 15.73046875 13.7109375 C17.89018974 14.93762928 19.35054879 16.1625006 21 18 C18.69 18.33 16.38 18.66 14 19 C14 19.66 14 20.32 14 21 C10.04 21 6.08 21 2 21 C1.67 20.01 1.34 19.02 1 18 C0.34 17.67 -0.32 17.34 -1 17 C-0.34 17 0.32 17 1 17 C0.67 16.195625 0.34 15.39125 0 14.5625 C-1.29045294 9.96526141 -2.21264666 4.42529333 0 0 Z " fill="#51DF62" transform="translate(52,47)"/>
<path d="M0 0 C0.33 0 0.66 0 1 0 C1.47919054 5.75028646 1.06831883 9.25021944 -1.5 14.4375 C-6.03945134 24.52230382 -5.39208829 37.42239632 -2.0625 47.859375 C-0.35578383 51.29790611 1.84113908 52.87120242 5 55 C5.33 55.66 5.66 56.32 6 57 C8.57437581 57.91280138 8.57437581 57.91280138 11.5625 58.625 C12.57441406 58.88539062 13.58632813 59.14578125 14.62890625 59.4140625 C15.80259766 59.70410156 15.80259766 59.70410156 17 60 C17 60.33 17 60.66 17 61 C10.62555504 60.74804565 5.94486742 60.39543771 1 56 C-3.57147236 51.0032744 -6.64109886 46.6586156 -8 40 C-8.33 39.34 -8.66 38.68 -9 38 C-9.9180765 25.38773592 -8.60790006 14.49365526 -1 4 C-0.23060319 1.77397385 -0.23060319 1.77397385 0 0 Z " fill="#308461" transform="translate(17,22)"/>
<path d="M0 0 C0.495 1.485 0.495 1.485 1 3 C-4.61 3 -10.22 3 -16 3 C-16.33 3.66 -16.66 4.32 -17 5 C-21.75 4.125 -21.75 4.125 -24 3 C-26.37402501 2.92883618 -28.75000677 2.91590915 -31.125 2.9375 C-32.40632813 2.94652344 -33.68765625 2.95554687 -35.0078125 2.96484375 C-35.99523438 2.97644531 -36.98265625 2.98804688 -38 3 C-37.46875 1.14453125 -37.46875 1.14453125 -36 -1 C-33.43136871 -1.99924558 -31.16145872 -2.70853261 -28.5 -3.3125 C-27.77603027 -3.48201172 -27.05206055 -3.65152344 -26.30615234 -3.82617188 C-17.01797299 -5.84002651 -8.3509234 -4.89246017 0 0 Z " fill="#FCFEFA" transform="translate(69,8)"/>
<path d="M0 0 C0.33 0 0.66 0 1 0 C1.5274058 23.61605964 1.5274058 23.61605964 -5.46484375 32.50390625 C-7.62914214 34.61313344 -9.50856809 34.98065229 -12.48046875 35.09765625 C-13.37378906 35.08605469 -14.26710938 35.07445312 -15.1875 35.0625 C-16.08855469 35.05347656 -16.98960938 35.04445312 -17.91796875 35.03515625 C-18.60503906 35.02355469 -19.29210937 35.01195312 -20 35 C-20 35.66 -20 36.32 -20 37 C-21.32 36.67 -22.64 36.34 -24 36 C-21.33333333 34 -18.66666667 32 -16 30 C-15.30390625 29.4740625 -14.6078125 28.948125 -13.890625 28.40625 C-12.45406493 27.33773424 -10.9839472 26.31416436 -9.5 25.3125 C-6.69193441 22.71503933 -5.4478095 20.34599468 -3.89453125 16.90234375 C-3 15 -3 15 -1 12 C-0.54084493 9.03157342 -0.54084493 9.03157342 -0.375 5.8125 C-0.30023438 4.72582031 -0.22546875 3.63914063 -0.1484375 2.51953125 C-0.09945312 1.68808594 -0.05046875 0.85664062 0 0 Z " fill="#3F7F6A" transform="translate(90,45)"/>
<path d="M0 0 C0 4.0333534 -1.60879918 5.83517538 -4 9 C-4.66 9 -5.32 9 -6 9 C-6.268125 9.61875 -6.53625 10.2375 -6.8125 10.875 C-8 13 -8 13 -11 15 C-21.26508437 16.4249908 -31.889926 16.21461556 -42.23779297 16.24023438 C-44.65755231 16.25013317 -47.07652523 16.2813864 -49.49609375 16.3125 C-51.05207841 16.31901566 -52.60806897 16.32427174 -54.1640625 16.328125 C-54.87865631 16.3404718 -55.59325012 16.3528186 -56.32949829 16.36553955 C-60.72693475 16.34589961 -63.50451951 15.70580657 -67 13 C-67.33 12.34 -67.66 11.68 -68 11 C-67.4534375 11.31710938 -66.906875 11.63421875 -66.34375 11.9609375 C-58.93782789 15.24422964 -48.64792438 14.13652366 -40.625 14.25 C-39.35946289 14.282146 -39.35946289 14.282146 -38.06835938 14.31494141 C-32.54807657 14.34444411 -28.96243765 13.38470969 -24 11 C-20.5625 10.8125 -20.5625 10.8125 -18 11 C-18 10.34 -18 9.68 -18 9 C-16.67935547 8.90525391 -16.67935547 8.90525391 -15.33203125 8.80859375 C-8.69965786 8.33170728 -8.69965786 8.33170728 -3.0234375 5.30859375 C-1.50519128 3.2079392 -1.50519128 3.2079392 0 0 Z " fill="#729C8A" transform="translate(88,71)"/>
<path d="M0 0 C0.8971875 0.309375 0.8971875 0.309375 1.8125 0.625 C1.1834375 1.09808594 0.554375 1.57117188 -0.09375 2.05859375 C-9.18838462 9.0850208 -16.07406534 15.78872718 -20.1875 26.625 C-20.703125 27.65496094 -21.21875 28.68492188 -21.75 29.74609375 C-23.75206854 34.38705437 -23.74924004 39.07162631 -23.875 44.0625 C-23.90916016 44.98482422 -23.94332031 45.90714844 -23.97851562 46.85742188 C-24.06032994 49.11315951 -24.12969122 51.36854119 -24.1875 53.625 C-24.8475 53.625 -25.5075 53.625 -26.1875 53.625 C-26.77407407 37.13575104 -25.8366269 24.08710382 -15.1875 10.625 C-4.06792923 -0.6973593 -4.06792923 -0.6973593 0 0 Z " fill="#F3FAEA" transform="translate(26.1875,6.375)"/>
<path d="M0 0 C0.66 0.66 1.32 1.32 2 2 C1.71881941 4.00799616 1.37188116 6.00680771 1 8 C0.79964383 10.9792398 0.76981913 13.95224409 0.75 16.9375 C0.729375 17.71029297 0.70875 18.48308594 0.6875 19.27929688 C0.6274999 28.15181236 4.23580377 34.38558483 10 41 C11.64552129 42.35934368 13.3045427 43.70347383 15 45 C15 45.66 15 46.32 15 47 C9.76722022 46.05600187 6.49258679 42.85293305 3 39 C-3.28332269 28.95900393 -4.87760761 17.5256485 -2.328125 5.94921875 C-1.64603358 3.93190119 -0.83885564 1.95732983 0 0 Z " fill="#25B170" transform="translate(20,33)"/>
<path d="M0 0 C1.43739513 -0.02712066 2.87493863 -0.04645067 4.3125 -0.0625 C5.51326172 -0.07990234 5.51326172 -0.07990234 6.73828125 -0.09765625 C9 0 9 0 12 1 C12 1.66 12 2.32 12 3 C13.32 3.33 14.64 3.66 16 4 C18.02362457 9.59472676 18.45545202 14.17819191 17 20 C15.5 23.125 15.5 23.125 13 25 C7.81777888 25.44557415 3.08397022 24.29352437 -1 21 C-1 20.34 -1 19.68 -1 19 C-0.34 19.165 0.32 19.33 1 19.5 C7.67972166 20.66270668 7.67972166 20.66270668 14 18.875 C15.51152489 16.04089083 15.4433302 14.1666443 15 11 C12.50211441 6.62870022 9.34091926 4.89657587 4.90234375 2.89453125 C3 2 3 2 0 0 Z " fill="#65B785" transform="translate(56,14)"/>
<path d="M0 0 C0.89203125 0.10183594 1.7840625 0.20367188 2.703125 0.30859375 C3.37859375 0.39238281 4.0540625 0.47617187 4.75 0.5625 C0.8876538 5.77081533 -2.97729721 9.51815759 -9.25 11.5625 C-13.01687864 11.5625 -14.16190305 11.32712683 -17.25 9.5625 C-11.10714286 3.99107143 -11.10714286 3.99107143 -6.25 3.5625 C-6.25 2.9025 -6.25 2.2425 -6.25 1.5625 C-7.24 1.2325 -8.23 0.9025 -9.25 0.5625 C-5.98086376 -0.46865279 -3.38958652 -0.4013984 0 0 Z " fill="#587C7A" transform="translate(53.25,26.4375)"/>
<path d="M0 0 C3.14840706 0.99827541 6.09179406 2.04496036 9.0625 3.5 C21.17248927 8.75123428 33.29121179 7.32198864 45.23828125 2.83984375 C47.99234949 2.00232653 50.14229269 1.83863584 53 2 C51.63890905 4.7221819 49.85245401 4.99262295 47.08618164 5.95458984 C37.49548863 9.03663116 29.01726984 9.60867036 19 9 C18.06800781 8.95488281 17.13601562 8.90976563 16.17578125 8.86328125 C11.19334612 8.48261982 7.31862052 7.41842749 3 5 C1.0625 2.3125 1.0625 2.3125 0 0 Z " fill="#B7CFB1" transform="translate(22,87)"/>
<path d="M0 0 C1.5625 1.5 1.5625 1.5 3 4 C3.02328113 7.85690644 2.21445786 11.35662642 1 15 C0.77548542 17.22574335 0.59217122 19.45581519 0.4375 21.6875 C0.35371094 22.86699219 0.26992188 24.04648437 0.18359375 25.26171875 C0.12300781 26.16535156 0.06242187 27.06898437 0 28 C-0.66 28 -1.32 28 -2 28 C-2.33 27.34 -2.66 26.68 -3 26 C-3.66 26.33 -4.32 26.66 -5 27 C-5.65340541 18.81065222 -4.64449297 12.92306447 -1.09375 5.49609375 C0.20067256 2.99623832 0.20067256 2.99623832 0 0 Z " fill="#15774C" transform="translate(17,27)"/>
<path d="M0 0 C0.33 0 0.66 0 1 0 C1.02578125 0.94359375 1.0515625 1.8871875 1.078125 2.859375 C1.84966212 20.32416971 8.31387658 32.33898508 19 46 C15.80687382 45.68346401 14.29329761 45.27035813 11.90234375 43.06640625 C7.37589602 37.29811004 4.35151347 31.9264877 2 25 C1.6390625 24.29101562 1.278125 23.58203125 0.90625 22.8515625 C-0.47857189 18.49414879 -0.208415 14.22720114 -0.125 9.6875 C-0.11597656 8.75615234 -0.10695312 7.82480469 -0.09765625 6.86523438 C-0.07418263 4.5765564 -0.04134729 2.28841328 0 0 Z " fill="#A3C9A4" transform="translate(3,41)"/>
<path d="M0 0 C3.465 1.485 3.465 1.485 7 3 C6.67 2.34 6.34 1.68 6 1 C9.3 1.33 12.6 1.66 16 2 C13.35434729 5.96847906 10.48148934 6.93266304 6 8 C1.33897237 8.52511577 -3.31425362 8.80914797 -8 9 C-6.32649967 5.23267833 -4.69439402 3.89456104 -1 2 C-0.67 2 -0.34 2 0 2 C0 1.34 0 0.68 0 0 Z " fill="#AEF4A8" transform="translate(56,38)"/>
<path d="M0 0 C2.69082872 0.17635452 5.32851446 0.61835921 8 1 C7.67 4.63 7.34 8.26 7 12 C6.34 12 5.68 12 5 12 C4.34 13.32 3.68 14.64 3 16 C2.01 15.67 1.02 15.34 0 15 C0 12.69 0 10.38 0 8 C-0.99 8.495 -0.99 8.495 -2 9 C-1.125 1.125 -1.125 1.125 0 0 Z " fill="#4BD564" transform="translate(39,46)"/>
<path d="M0 0 C4.42756281 1.45407044 7.63094204 3.886317 11.125 6.875 C11.91197266 7.52662109 11.91197266 7.52662109 12.71484375 8.19140625 C15.52511265 10.56056965 18.0732681 12.84962433 20 16 C19.6875 18.25 19.6875 18.25 19 20 C18.443125 19.236875 17.88625 18.47375 17.3125 17.6875 C15.01948741 15.02264752 12.98009427 13.77194794 10 12 C9.67 11.01 9.34 10.02 9 9 C8.01 10.485 8.01 10.485 7 12 C4.5 10.625 4.5 10.625 2 9 C2 8.34 2 7.68 2 7 C0.35 6.67 -1.3 6.34 -3 6 C-2.38125 5.855625 -1.7625 5.71125 -1.125 5.5625 C1.03258322 5.06847775 1.03258322 5.06847775 3 4 C2.01 2.68 1.02 1.36 0 0 Z " fill="#ACDEAD" transform="translate(72,9)"/>
<path d="M0 0 C1.96621049 1.451917 3.69422336 2.86055593 5.3203125 4.68359375 C5.3203125 5.01359375 5.3203125 5.34359375 5.3203125 5.68359375 C1.66306727 5.3250403 -1.07481409 5.052419 -4.2421875 3.12109375 C-7.29180957 1.32259868 -9.19572163 1.21906497 -12.6796875 1.68359375 C-13.6696875 3.16859375 -13.6696875 3.16859375 -14.6796875 4.68359375 C-15.5459375 4.66296875 -16.4121875 4.64234375 -17.3046875 4.62109375 C-21.81738315 4.70466219 -24.81892773 6.48864403 -28.6796875 8.68359375 C-28.3496875 7.69359375 -28.0196875 6.70359375 -27.6796875 5.68359375 C-27.0196875 5.68359375 -26.3596875 5.68359375 -25.6796875 5.68359375 C-25.3496875 4.69359375 -25.0196875 3.70359375 -24.6796875 2.68359375 C-17.59709121 -2.17701155 -7.96543006 -3.91304655 0 0 Z " fill="#56917B" transform="translate(60.6796875,25.31640625)"/>
<path d="M0 0 C0.433125 0.598125 0.86625 1.19625 1.3125 1.8125 C2.77461239 3.70783087 4.27050227 5.3528593 6 7 C6.433125 6.071875 6.433125 6.071875 6.875 5.125 C8 3 8 3 10 1 C13.125 0.875 13.125 0.875 16 1 C16.33 1.66 16.66 2.32 17 3 C16.38125 3.37125 15.7625 3.7425 15.125 4.125 C12.4489404 6.48622906 11.9063156 8.60131652 11 12 C6.92309777 11.47164489 4.74382266 10.35324283 1.6875 7.625 C0.99011719 7.01914063 0.29273438 6.41328125 -0.42578125 5.7890625 C-2 4 -2 4 -2 1 C-1.34 0.67 -0.68 0.34 0 0 Z " fill="#4CD961" transform="translate(28,67)"/>
<path d="M0 0 C-0.556875 0.4125 -1.11375 0.825 -1.6875 1.25 C-4.16195956 3.12256399 -6.5835229 5.05339344 -9 7 C-7.35 7.99 -5.7 8.98 -4 10 C-4.99 12.31 -5.98 14.62 -7 17 C-9.97 16.01 -12.94 15.02 -16 14 C-15.319375 13.0925 -14.63875 12.185 -13.9375 11.25 C-11.73017191 8.28527385 -11.73017191 8.28527385 -12.25 5.625 C-12.4975 5.08875 -12.745 4.5525 -13 4 C-8.38987758 1.04952165 -5.63470383 -0.5497272 0 0 Z " fill="#8DB39B" transform="translate(46,29)"/>
<path d="M0 0 C0.99 0.495 0.99 0.495 2 1 C2 1.99 2 2.98 2 4 C2.78375 4.28875 3.5675 4.5775 4.375 4.875 C7.88273187 6.37831366 8.77506839 7.47788601 10.2890625 10.9921875 C13.09009166 18.79996648 14.49858763 26.12733352 14.5625 34.4375 C14.57684082 35.2526709 14.59118164 36.0678418 14.60595703 36.90771484 C14.50557364 43.00135828 12.81427446 47.62773242 10 53 C9.67 52.34 9.34 51.68 9 51 C9.474375 49.948125 9.94875 48.89625 10.4375 47.8125 C13.94428901 38.96509654 13.23981497 25.92687216 10 17 C8.30969369 14.431359 6.51785632 12.15859967 4.4609375 9.875 C3 8 3 8 3 5 C2.34 5 1.68 5 1 5 C0.67 3.35 0.34 1.7 0 0 Z " fill="#60B47F" transform="translate(80,17)"/>
<path d="M0 0 C-0.67546875 0.39832031 -1.3509375 0.79664063 -2.046875 1.20703125 C-2.93890625 1.73683594 -3.8309375 2.26664063 -4.75 2.8125 C-5.63171875 3.33457031 -6.5134375 3.85664063 -7.421875 4.39453125 C-9.72152045 5.82658319 -11.84452622 7.3640273 -14 9 C-14.928125 9.53625 -15.85625 10.0725 -16.8125 10.625 C-23.25108636 15.42237807 -27.32547794 21.30615229 -29.39453125 29.0546875 C-30 31 -30 31 -32 34 C-30.90754244 21.16362369 -23.6200912 13.07113955 -14.4375 4.5625 C-10.29359017 1.16236885 -5.3401678 -1.78005593 0 0 Z " fill="#BBE4B4" transform="translate(36,6)"/>
<path d="M0 0 C0.9861483 2.6135955 1.08441302 3.7594807 0.14453125 6.4375 C-4.7340591 15.82270607 -4.7340591 15.82270607 -8 18 C-10.97022901 18.88694338 -13.94195783 19.50339486 -17 20 C-16.0919838 18.86800647 -15.17316174 17.74467637 -14.25 16.625 C-13.48429687 15.68527344 -13.48429687 15.68527344 -12.703125 14.7265625 C-10.90585998 12.90456448 -9.27393247 12.1208227 -7 11 C-4.87178116 8.18288354 -4.87178116 8.18288354 -3 5 C-2.13375 3.576875 -2.13375 3.576875 -1.25 2.125 C-0.8375 1.42375 -0.425 0.7225 0 0 Z " fill="#2B705D" transform="translate(88,59)"/>
<path d="M0 0 C0.66 0 1.32 0 2 0 C2.9081803 1.33993815 3.75119369 2.72428312 4.5625 4.125 C7.83093384 9.25879311 11.76501911 12.03351083 17 15 C16.01 15.33 15.02 15.66 14 16 C11.3125 14.5625 11.3125 14.5625 9 13 C9.66 14.98 10.32 16.96 11 19 C7.18599878 15.86707042 5.66255384 12.38175456 3.83203125 7.92578125 C3.15374926 6.03086095 3.15374926 6.03086095 2 5 C2 8.63 2 12.26 2 16 C0 15 0 15 -0.6171875 13.2265625 C-1.01719083 10.90001252 -1.13289212 8.73474304 -1.125 6.375 C-1.12757812 5.59898438 -1.13015625 4.82296875 -1.1328125 4.0234375 C-1 2 -1 2 0 0 Z " fill="#38BF6D" transform="translate(52,47)"/>
<path d="M0 0 C4.08530479 1.57841321 6.14887699 4.63902883 8.75 8.0625 C6.97950311 8.11660687 5.20853151 8.15534119 3.4375 8.1875 C1.95830078 8.22230469 1.95830078 8.22230469 0.44921875 8.2578125 C-2.25 8.0625 -2.25 8.0625 -5.25 6.0625 C-4.55173533 2.57117664 -4.03808624 0.11216906 0 0 Z " fill="#0D503F" transform="translate(47.25,71.9375)"/>
<path d="M0 0 C2.80199689 0.88484112 4.58670175 1.47888481 6.4375 3.8125 C7.20992118 6.81636014 6.24310205 8.18666379 5 11 C4.6186926 13.32597511 4.27539746 15.65912158 4 18 C3.67 18 3.34 18 3 18 C3 14.66666667 3 11.33333333 3 8 C2.01 10.64 1.02 13.28 0 16 C-0.33 16 -0.66 16 -1 16 C-1.02712153 14.083412 -1.04645097 12.1667127 -1.0625 10.25 C-1.07410156 9.18265625 -1.08570312 8.1153125 -1.09765625 7.015625 C-1.01510087 4.46631499 -0.74617558 2.42066409 0 0 Z " fill="#27AE6D" transform="translate(24,39)"/>
<path d="M0 0 C0.33 0 0.66 0 1 0 C1.125 7.75 1.125 7.75 0 10 C-0.12488834 12.61684643 -0.18516963 15.19548918 -0.1875 17.8125 C-0.19974609 18.52470703 -0.21199219 19.23691406 -0.22460938 19.97070312 C-0.23628592 24.17815186 0.41002464 27.15588235 2 31 C1.625 33.3125 1.625 33.3125 1 35 C-2.82814522 25.97651485 -5.61810307 14.63110267 -2.30126953 4.96337891 C-1.58615875 3.28579729 -0.79940162 1.63909138 0 0 Z " fill="#7DB78E" transform="translate(7,33)"/>
<path d="M0 0 C0 0.33 0 0.66 0 1 C-0.90621094 1.14695312 -1.81242187 1.29390625 -2.74609375 1.4453125 C-9.91466802 2.76524046 -15.41342671 4.22408707 -21.23046875 8.6953125 C-23 10 -23 10 -26 11 C-24.24850835 6.01498529 -22.70037712 4.02022627 -18.1875 1.3125 C-12.50422732 -1.04937956 -6.0240944 -0.22559022 0 0 Z " fill="#64B885" transform="translate(52,14)"/>
<path d="M0 0 C1.9375 0.75 1.9375 0.75 4 2 C5.41928421 5.706411 5.21998159 9.70759775 5.25 13.625 C5.270625 14.305625 5.29125 14.98625 5.3125 15.6875 C5.328125 17.6640625 5.328125 17.6640625 5 21 C4.01 21.66 3.02 22.32 2 23 C1.67 22.34 1.34 21.68 1 21 C1.33 20.34 1.66 19.68 2 19 C2.09584979 17.1478437 2.12983606 15.29212847 2.125 13.4375 C2.12757812 12.44621094 2.13015625 11.45492187 2.1328125 10.43359375 C2.27438431 8.05187652 2.27438431 8.05187652 1 7 C0.01 7 -0.98 7 -2 7 C-1.42415568 4.61435923 -0.77772405 2.33317216 0 0 Z " fill="#297D5C" transform="translate(85,36)"/>
<path d="M0 0 C0.33 0.66 0.66 1.32 1 2 C0.34249689 3.33787589 -0.3256926 4.67051448 -1 6 C-1.44811137 8.35564596 -1.44811137 8.35564596 -1.625 10.75 C-1.69976562 11.54921875 -1.77453125 12.3484375 -1.8515625 13.171875 C-1.90054687 13.77515625 -1.94953125 14.3784375 -2 15 C-2.33 15 -2.66 15 -3 15 C-3 12.69 -3 10.38 -3 8 C-6.98069267 10.87494471 -9.43571997 13.82117329 -12 18 C-12.69140625 16.27734375 -12.69140625 16.27734375 -13 14 C-9.84052842 8.35736544 -5.11416349 3.86680654 0 0 Z " fill="#7CC68F" transform="translate(21,14)"/>
<path d="M0 0 C0.66 0 1.32 0 2 0 C2.37125 1.216875 2.7425 2.43375 3.125 3.6875 C4.81398226 8.27536046 7.11903366 10.13145966 11 13 C11.33 13.66 11.66 14.32 12 15 C14.57437581 15.91280138 14.57437581 15.91280138 17.5625 16.625 C18.57441406 16.88539062 19.58632813 17.14578125 20.62890625 17.4140625 C21.80259766 17.70410156 21.80259766 17.70410156 23 18 C23 18.33 23 18.66 23 19 C16.62555504 18.74804565 11.94486742 18.39543771 7 14 C0.10422691 6.48627576 0.10422691 6.48627576 -0.1953125 2.21484375 C-0.13085938 1.48394531 -0.06640625 0.75304687 0 0 Z " fill="#3B7968" transform="translate(11,64)"/>
<path d="M0 0 C0.90105469 0.00902344 1.80210938 0.01804687 2.73046875 0.02734375 C3.41753906 0.03894531 4.10460937 0.05054688 4.8125 0.0625 C4.8125 0.3925 4.8125 0.7225 4.8125 1.0625 C3.60013672 1.22685547 3.60013672 1.22685547 2.36328125 1.39453125 C0.76033203 1.63236328 0.76033203 1.63236328 -0.875 1.875 C-1.93074219 2.02582031 -2.98648438 2.17664063 -4.07421875 2.33203125 C-9.37305736 3.57529702 -12.04550444 5.7779606 -15.1875 10.0625 C-16.1775 10.3925 -17.1675 10.7225 -18.1875 11.0625 C-18.5175 13.0425 -18.8475 15.0225 -19.1875 17.0625 C-19.5175 17.0625 -19.8475 17.0625 -20.1875 17.0625 C-20.24197047 15.64626784 -20.28050508 14.22941809 -20.3125 12.8125 C-20.33570312 12.02359375 -20.35890625 11.2346875 -20.3828125 10.421875 C-20.1703378 7.85518059 -19.47404105 6.2708933 -18.1875 4.0625 C-17.465625 4.124375 -16.74375 4.18625 -16 4.25 C-12.62951359 4.02530091 -10.97880422 2.89888436 -8.1875 1.0625 C-5.17259443 0.05753148 -3.14568308 -0.04085303 0 0 Z " fill="#A4DAAA" transform="translate(39.1875,11.9375)"/>
<path d="M0 0 C0 4.16013021 -1.39526124 5.79416768 -4 9 C-9.20202543 12.14289036 -14.12262062 12.46123385 -20.1328125 12.7890625 C-22.83348657 12.98774969 -25.36031504 13.41018028 -28 14 C-27.67 13.34 -27.34 12.68 -27 12 C-24.93359375 11.5859375 -24.93359375 11.5859375 -22.4375 11.375 C-21.19806641 11.26285156 -21.19806641 11.26285156 -19.93359375 11.1484375 C-18.97646484 11.07496094 -18.97646484 11.07496094 -18 11 C-18 10.34 -18 9.68 -18 9 C-16.67935547 8.90525391 -16.67935547 8.90525391 -15.33203125 8.80859375 C-8.69965786 8.33170728 -8.69965786 8.33170728 -3.0234375 5.30859375 C-1.50519128 3.2079392 -1.50519128 3.2079392 0 0 Z " fill="#5A8C7B" transform="translate(88,71)"/>
<path d="M0 0 C0.66 0.33 1.32 0.66 2 1 C2 1.33 2 1.66 2 2 C5.96 2 9.92 2 14 2 C14 2.33 14 2.66 14 3 C10.37 3 6.74 3 3 3 C3 3.66 3 4.32 3 5 C-4.42857143 8.28571429 -4.42857143 8.28571429 -8 9 C-8 8.01 -8 7.02 -8 6 C-5.45600033 3.67721769 -3.09376059 1.54688029 0 0 Z " fill="#C8E9C0" transform="translate(31,8)"/>
<path d="M0 0 C0.43570312 0.40992187 0.87140625 0.81984375 1.3203125 1.2421875 C7.55270039 6.88101464 13.22778612 8.15337821 21.4140625 9.4375 C23.91741208 9.98203526 25.74777242 10.8179544 28 12 C24.97534921 11.99395674 21.96074767 11.9462925 18.9375 11.875 C17.66616211 11.87886719 17.66616211 11.87886719 16.36914062 11.8828125 C10.61439148 11.70505963 7.51357338 10.54001626 3.32226562 6.5625 C1.60771085 4.53643823 0.67730995 2.55872647 0 0 Z " fill="#548878" transform="translate(15,74)"/>
<path d="M0 0 C1.32 0.33 2.64 0.66 4 1 C5.125 4.75 5.125 4.75 4 7 C4.31859531 9.33539131 4.65483679 11.66838727 5 14 C5.1141744 16.70035729 5.18493203 19.36356087 5.1875 22.0625 C5.19974609 22.74376953 5.21199219 23.42503906 5.22460938 24.12695312 C5.2371267 28.47046617 4.59267719 31.96479811 3 36 C2.06576355 32.98968256 1.95550089 32.13349732 3 29 C3.54423969 21.04572758 3.14773976 13.89450354 0.65625 6.3046875 C0 4 0 4 0 0 Z " fill="#CDE6C1" transform="translate(93,29)"/>
<path d="M0 0 C3.48670834 1.1094072 6.77484237 2.26337666 10 4 C8.68 4.33 7.36 4.66 6 5 C9.84919283 9.33034194 13.72289646 11.6560756 19 14 C17.27734375 14.6640625 17.27734375 14.6640625 15 15 C9.70164819 12.47878071 4.76243581 8.46789253 1 4 C0.1875 1.6875 0.1875 1.6875 0 0 Z " fill="#123A32" transform="translate(56,47)"/>
<path d="M0 0 C-0.62759865 2.92879371 -1.58622659 5.36095629 -3 8 C-3.66 7.34 -4.32 6.68 -5 6 C-8.59679066 6.32326553 -8.59679066 6.32326553 -12 7 C-11.01 7.99 -10.02 8.98 -9 10 C-11.475 9.01 -11.475 9.01 -14 8 C-14 7.01 -14 6.02 -14 5 C-12.56328432 4.35242375 -11.12559584 3.70700547 -9.6875 3.0625 C-8.88699219 2.70285156 -8.08648437 2.34320313 -7.26171875 1.97265625 C-2.6746988 0 -2.6746988 0 0 0 Z " fill="#49D769" transform="translate(85,36)"/>
<path d="M0 0 C0.85207676 2.91345976 1.07199609 5.3533135 0.921875 8.37890625 C0.42789561 21.22719842 0.42789561 21.22719842 5.00390625 33.1015625 C5.33261719 33.72804687 5.66132813 34.35453125 6 35 C5.67 35.66 5.34 36.32 5 37 C3.68 34.69 2.36 32.38 1 30 C0.34 30 -0.32 30 -1 30 C-2.0708009 24.15055033 -1.97137376 18.67299127 -1.625 12.75 C-1.58117187 11.8528125 -1.53734375 10.955625 -1.4921875 10.03125 C-1.13510045 3.40530134 -1.13510045 3.40530134 0 0 Z " fill="#DEEED2" transform="translate(3,37)"/>
<path d="M0 0 C0.33 0.66 0.66 1.32 1 2 C1.99 2.33 2.98 2.66 4 3 C4.60709557 9.92088947 3.44071801 12.67113839 -1 18 C-0.67 18.66 -0.34 19.32 0 20 C-1.32 20 -2.64 20 -4 20 C-3.71125 19.443125 -3.4225 18.88625 -3.125 18.3125 C-0.89903089 13.73689684 0.24905885 10.33594234 0.125 5.1875 C0.10695313 4.21167969 0.08890625 3.23585938 0.0703125 2.23046875 C0.04710938 1.49441406 0.02390625 0.75835938 0 0 Z " fill="#7FBE94" transform="translate(73,19)"/>
<path d="M0 0 C0.66 0 1.32 0 2 0 C3.2847259 4.56022735 3.26073565 8.97694384 3.3125 13.6875 C3.34150391 14.54794922 3.37050781 15.40839844 3.40039062 16.29492188 C3.46320522 22.7068428 2.0305303 27.36624502 -1 33 C-1.33 32.34 -1.66 31.68 -2 31 C-1.525625 29.948125 -1.05125 28.89625 -0.5625 27.8125 C2.83281082 19.33197481 1.4452559 8.85219238 0 0 Z " fill="#599F7A" transform="translate(91,37)"/>
<path d="M0 0 C0.33 0.66 0.66 1.32 1 2 C3.11327425 2.90725434 3.11327425 2.90725434 5.5625 3.625 C6.38878906 3.88539062 7.21507812 4.14578125 8.06640625 4.4140625 C9.02353516 4.70410156 9.02353516 4.70410156 10 5 C9.67 6.32 9.34 7.64 9 9 C7.02 8.01 5.04 7.02 3 6 C2.67 7.32 2.34 8.64 2 10 C0.5393715 7.35261084 0 6.10551666 0 3 C-2.33075929 3.95865509 -2.33075929 3.95865509 -4 7 C-4 6.34 -4 5.68 -4 5 C-4.66 4.67 -5.32 4.34 -6 4 C-3 2 -3 2 0 2 C0 1.34 0 0.68 0 0 Z " fill="#8FE49C" transform="translate(54,33)"/>
<path d="M0 0 C0.61875 0.165 1.2375 0.33 1.875 0.5 C6.25470729 1.20075317 10.57428989 1.07734251 15 1 C14.67 2.65 14.34 4.3 14 6 C4.19156581 5.38029501 4.19156581 5.38029501 0 2 C0 1.34 0 0.68 0 0 Z " fill="#719589" transform="translate(55,33)"/>
<path d="M0 0 C0.33 0.99 0.66 1.98 1 3 C0.34 3 -0.32 3 -1 3 C-1 3.99 -1 4.98 -1 6 C-2.32 6 -3.64 6 -5 6 C-5 6.66 -5 7.32 -5 8 C-6.32 7.67 -7.64 7.34 -9 7 C-8.01 6.01 -7.02 5.02 -6 4 C-6.99 3.01 -7.98 2.02 -9 1 C-5.92677456 0.08941469 -3.19902639 -0.08886184 0 0 Z " fill="#57EC66" transform="translate(81,41)"/>
<path d="M0 0 C2.29013653 3.4352048 2.17842973 4.985331 2 9 C-2.455 10.485 -2.455 10.485 -7 12 C-6.57847656 11.30132812 -6.15695313 10.60265625 -5.72265625 9.8828125 C-5.17480469 8.97273438 -4.62695312 8.06265625 -4.0625 7.125 C-3.51722656 6.22007813 -2.97195312 5.31515625 -2.41015625 4.3828125 C-1.56101983 2.94798364 -0.74562276 1.49124552 0 0 Z " fill="#198650" transform="translate(82,27)"/>
<path d="M0 0 C3.89635954 4.77618266 5.13469529 6.80401645 5 13 C5.66 13 6.32 13 7 13 C7 13.99 7 14.98 7 16 C4.625 15.5625 4.625 15.5625 2 14 C0.24525725 9.57346302 -0.30571318 4.73855429 0 0 Z " fill="#2E9561" transform="translate(82,22)"/>
<path d="M0 0 C1.5 1.375 1.5 1.375 3 3 C3 3.66 3 4.32 3 5 C3.99 4.67 4.98 4.34 6 4 C8.97 6.97 11.94 9.94 15 13 C11.43415763 13 10.90467326 12.34430684 8.25 10.125 C4.54310741 7.21440285 1.58920784 5.95608497 -3 5 C-2.67 4.01 -2.34 3.02 -2 2 C-1.34 2 -0.68 2 0 2 C0 1.34 0 0.68 0 0 Z " fill="#0E322A" transform="translate(41,60)"/>
<path d="M0 0 C0.75 1.625 0.75 1.625 1 4 C-1.34144182 8.32266181 -4.03237976 11.13449649 -8 14 C-7.65015815 8.40253042 -3.85992893 3.85992893 0 0 Z " fill="#54AE78" transform="translate(16,22)"/>
<path d="M0 0 C0.66 0 1.32 0 2 0 C2.33 1.98 2.66 3.96 3 6 C3.66 5.67 4.32 5.34 5 5 C4.67 6.65 4.34 8.3 4 10 C3.01 10 2.02 10 1 10 C0.01 10.495 0.01 10.495 -1 11 C-2.60080151 6.99799622 -1.29279692 3.95443764 0 0 Z " fill="#92D2A2" transform="translate(21,22)"/>
<path d="M0 0 C-1 2 -1 2 -3.66015625 3.0703125 C-9.98319553 5.03038208 -15.3728884 6.51977346 -22 6 C-22 5.67 -22 5.34 -22 5 C-21.02417969 4.72285156 -20.04835937 4.44570312 -19.04296875 4.16015625 C-17.75780249 3.794306 -16.47264679 3.42841864 -15.1875 3.0625 C-13.92292969 2.70285156 -12.65835938 2.34320313 -11.35546875 1.97265625 C-4.16213264 -0.11249007 -4.16213264 -0.11249007 0 0 Z " fill="#AEC9AB" transform="translate(75,89)"/>
<path d="M0 0 C-1.32693699 1.00847211 -2.66256277 2.00549539 -4 3 C-4.57878906 3.433125 -5.15757813 3.86625 -5.75390625 4.3125 C-6.37136719 4.76625 -6.98882812 5.22 -7.625 5.6875 C-8.21539062 6.12449219 -8.80578125 6.56148437 -9.4140625 7.01171875 C-11 8 -11 8 -13 8 C-13 6.68 -13 5.36 -13 4 C-8.38987758 1.04952165 -5.63470383 -0.5497272 0 0 Z " fill="#72D497" transform="translate(46,29)"/>
<path d="M0 0 C0.66 0 1.32 0 2 0 C2 0.99 2 1.98 2 3 C2.99 3.33 3.98 3.66 5 4 C8.01041078 6.78462997 10.64030627 9.64675101 13 13 C9.58377653 12.70683897 8.23861022 12.23611169 5.76171875 9.78515625 C4.73498047 8.43744141 4.73498047 8.43744141 3.6875 7.0625 C2.99011719 6.16660156 2.29273438 5.27070312 1.57421875 4.34765625 C0 2 0 2 0 0 Z " fill="#C3DBBA" transform="translate(9,74)"/>
<path d="M0 0 C0.33 0 0.66 0 1 0 C0.62964591 6.78982507 -1.40476401 11.26884891 -5 17 C-5.33 17 -5.66 17 -6 17 C-5.55946901 11.49336268 -4.17541154 8.46542248 -1 4 C-0.23060319 1.77397385 -0.23060319 1.77397385 0 0 Z " fill="#309763" transform="translate(17,22)"/>
<path d="M0 0 C0.66 0.33 1.32 0.66 2 1 C1.09507813 1.77923828 1.09507813 1.77923828 0.171875 2.57421875 C-3.92591117 6.14986765 -7.80685744 9.55736688 -11 14 C-11.33 13.01 -11.66 12.02 -12 11 C-9.11080329 6.15469346 -4.76993569 2.83924743 0 0 Z " fill="#96F892" transform="translate(37,20)"/>
<path d="M0 0 C3.86172832 1.47432578 5.18199225 3.45298373 7.1875 7 C7.95126953 8.3303125 7.95126953 8.3303125 8.73046875 9.6875 C9.51219509 11.11144459 10.27354088 12.54708176 11 14 C7.16341134 12.50610707 5.53814574 10.36376981 3.25 7 C2.63640625 6.113125 2.0228125 5.22625 1.390625 4.3125 C0 2 0 2 0 0 Z " fill="#62997E" transform="translate(9,68)"/>
<path d="M0 0 C4.08530479 1.57841321 6.14887699 4.63902883 8.75 8.0625 C6.48337803 6.99885977 4.92911146 6.2640004 3.25 4.375 C2.755 3.941875 2.26 3.50875 1.75 3.0625 C-0.38803054 3.13856836 -0.38803054 3.13856836 -2.25 4.0625 C-2.58 4.7225 -2.91 5.3825 -3.25 6.0625 C-3.91 6.0625 -4.57 6.0625 -5.25 6.0625 C-4.55173533 2.57117664 -4.03808624 0.11216906 0 0 Z " fill="#0D4334" transform="translate(47.25,71.9375)"/>
<path d="M0 0 C0.625 1.875 0.625 1.875 1 4 C-1.48503465 6.48503465 -3.67561404 6.93619649 -7 8 C-8.34181778 8.64942071 -9.67713411 9.31279694 -11 10 C-10.0919838 8.86800647 -9.17316174 7.74467637 -8.25 6.625 C-7.73953125 5.99851562 -7.2290625 5.37203125 -6.703125 4.7265625 C-4.91133367 2.91011349 -3.30965728 2.03837533 -1 1 C-0.67 0.67 -0.34 0.34 0 0 Z " fill="#256758" transform="translate(82,69)"/>
<path d="M0 0 C2.31 0.33 4.62 0.66 7 1 C7 1.66 7 2.32 7 3 C7.639375 3.144375 8.27875 3.28875 8.9375 3.4375 C11 4 11 4 12 5 C12.04063832 6.66617115 12.042721 8.33388095 12 10 C10.9790625 8.88625 10.9790625 8.88625 9.9375 7.75 C6.96926868 4.75618047 3.71285128 2.96562715 0 1 C0 0.67 0 0.34 0 0 Z " fill="#71C08D" transform="translate(61,14)"/>
<path d="M0 0 C6.43222143 0.48545067 6.43222143 0.48545067 9 2.8125 C10.19801231 5.43315193 9.80765705 6.32463602 9 9 C7.49704815 7.69088122 5.99770689 6.37761608 4.5 5.0625 C3.6646875 4.33160156 2.829375 3.60070312 1.96875 2.84765625 C1.3190625 2.23792969 0.669375 1.62820313 0 1 C0 0.67 0 0.34 0 0 Z " fill="#E0F4D6" transform="translate(76,10)"/>
<path d="M0 0 C3 2 3 2 3.6875 4.1875 C4.05299646 7.47696816 4.06484373 10.69296984 4 14 C3.67 14 3.34 14 3 14 C2.34 11.69 1.68 9.38 1 7 C0.01 7 -0.98 7 -2 7 C-1.42415568 4.61435923 -0.77772405 2.33317216 0 0 Z " fill="#1E7E54" transform="translate(85,36)"/>
<path d="M0 0 C7.09543568 4.41493776 7.09543568 4.41493776 9 8 C8.56640625 10.125 8.56640625 10.125 8 12 C6.66081194 10.37982158 5.3288031 8.75370657 4 7.125 C3.2575 6.22007813 2.515 5.31515625 1.75 4.3828125 C0 2 0 2 0 0 Z " fill="#B3E0B0" transform="translate(83,17)"/>
<path d="M0 0 C0.33 1.32 0.66 2.64 1 4 C-1.64 4 -4.28 4 -7 4 C-6.625 2.0625 -6.625 2.0625 -6 0 C-3.50907189 -1.24546405 -2.58919267 -0.7767578 0 0 Z " fill="#AEF3A9" transform="translate(46,42)"/>
<path d="M0 0 C2.375 -0.1875 2.375 -0.1875 5 0 C5.66 0.99 6.32 1.98 7 3 C6.67 3.66 6.34 4.32 6 5 C3.69 4.67 1.38 4.34 -1 4 C-0.67 2.68 -0.34 1.36 0 0 Z " fill="#76978C" transform="translate(35,37)"/>
<path d="M0 0 C0 0.66 0 1.32 0 2 C-4.62 2.66 -9.24 3.32 -14 4 C-12 1 -12 1 -10.375 0.3125 C-6.900172 -0.14471421 -3.50413832 -0.05840231 0 0 Z " fill="#F6FCED" transform="translate(48,0)"/>
<path d="M0 0 C2.9375 0.8125 2.9375 0.8125 6 2 C6.33 2.99 6.66 3.98 7 5 C10.51190809 6.22969878 10.51190809 6.22969878 14 7 C10.94508944 8.34416065 9.70626765 7.90724242 6.4375 6.875 C2.84005332 4.91275636 1.68062789 3.65783717 0 0 Z " fill="#C5DBBB" transform="translate(22,87)"/>
<path d="M0 0 C0.8971875 0.5259375 0.8971875 0.5259375 1.8125 1.0625 C-1.1875 3.0625 -1.1875 3.0625 -5.1875 3.0625 C-5.1875 3.7225 -5.1875 4.3825 -5.1875 5.0625 C-7.1675 5.0625 -9.1475 5.0625 -11.1875 5.0625 C-11.1875 4.7325 -11.1875 4.4025 -11.1875 4.0625 C-9.5375 4.0625 -7.8875 4.0625 -6.1875 4.0625 C-6.0328125 3.1034375 -6.0328125 3.1034375 -5.875 2.125 C-5.648125 1.444375 -5.42125 0.76375 -5.1875 0.0625 C-2.1875 -0.9375 -2.1875 -0.9375 0 0 Z " fill="#49CB5F" transform="translate(71.1875,62.9375)"/>
<path d="M0 0 C13.6332574 -0.3690205 13.6332574 -0.3690205 20 2 C20 2.33 20 2.66 20 3 C16.7 3 13.4 3 10 3 C10 2.34 10 1.68 10 1 C6.7 1 3.4 1 0 1 C0 0.67 0 0.34 0 0 Z " fill="#BDE2B8" transform="translate(34,11)"/>
<path d="M0 0 C0.66 0.33 1.32 0.66 2 1 C2 1.33 2 1.66 2 2 C5.96 2 9.92 2 14 2 C14 2.33 14 2.66 14 3 C8.39 3.66 2.78 4.32 -3 5 C-2.67 3.68 -2.34 2.36 -2 1 C-1.34 0.67 -0.68 0.34 0 0 Z " fill="#E0F2D3" transform="translate(31,8)"/>
<path d="M0 0 C2 1 2 1 3 3 C-1.455 4.485 -1.455 4.485 -6 6 C-6.33 5.01 -6.66 4.02 -7 3 C-4.69631264 1.93347808 -2.35981813 0.93578995 0 0 Z " fill="#ECF9E0" transform="translate(33,2)"/>
<path d="M0 0 C1.485 0.99 1.485 0.99 3 2 C2.01 6.62 1.02 11.24 0 16 C-0.33 16 -0.66 16 -1 16 C-1.07129099 11.72254046 -1.07233799 8.13616082 0 4 C-0.33 3.01 -0.66 2.02 -1 1 C-0.67 0.67 -0.34 0.34 0 0 Z " fill="#33CA71" transform="translate(28,41)"/>
<path d="M0 0 C0.33 0.66 0.66 1.32 1 2 C1.66 2 2.32 2 3 2 C2.67 3.98 2.34 5.96 2 8 C0.68 7.01 -0.64 6.02 -2 5 C-1.125 1.125 -1.125 1.125 0 0 Z " fill="#AAF1AD" transform="translate(23,30)"/>
<path d="M0 0 C0.33 0.66 0.66 1.32 1 2 C-1.31537955 5.72114571 -3.28579473 8.61229661 -7 11 C-6.690625 10.4225 -6.38125 9.845 -6.0625 9.25 C-4.92499553 7.09208817 -4.92499553 7.09208817 -4.625 4.9375 C-3.77427005 2.30023717 -2.27786684 1.46959151 0 0 Z " fill="#19614D" transform="translate(85,62)"/>
<path d="M0 0 C4 2 4 2 5.3125 4.875 C5.96475091 7.83977687 6.0680182 9.22315269 5 12 C5 11.34 5 10.68 5 10 C4.34 10 3.68 10 3 10 C2.01 6.7 1.02 3.4 0 0 Z " fill="#91CC9A" transform="translate(89,27)"/>
<path d="M0 0 C2.97 0.495 2.97 0.495 6 1 C6 1.66 6 2.32 6 3 C6.66 3.33 7.32 3.66 8 4 C5.6875 4.625 5.6875 4.625 3 5 C2.01 4.34 1.02 3.68 0 3 C0 2.01 0 1.02 0 0 Z " fill="#6DD093" transform="translate(55,29)"/>
<path d="M0 0 C0.33 0 0.66 0 1 0 C0.93993922 1.45947705 0.8511311 2.91779272 0.75 4.375 C0.70359375 5.18710937 0.6571875 5.99921875 0.609375 6.8359375 C0 9 0 9 -2.046875 10.2890625 C-3.01367188 10.64097656 -3.01367188 10.64097656 -4 11 C-3.21681311 7.08406554 -1.60820142 3.63593365 0 0 Z " fill="#70B38C" transform="translate(73,25)"/>
<path d="M0 0 C1.75 0.125 1.75 0.125 4 1 C6.25 4.0625 6.25 4.0625 8 7 C7.67 7.66 7.34 8.32 7 9 C3.33484328 6.55656218 1.86753994 3.86847559 0 0 Z " fill="#84CD93" transform="translate(78,14)"/>
<path d="M0 0 C2.475 0.99 2.475 0.99 5 2 C5 2.66 5 3.32 5 4 C0.05 3.67 -4.9 3.34 -10 3 C-10 2.67 -10 2.34 -10 2 C-6.7 1.67 -3.4 1.34 0 1 C0 0.67 0 0.34 0 0 Z " fill="#F1F9E4" transform="translate(65,7)"/>
<path d="M0 0 C2.97 0.495 2.97 0.495 6 1 C6 1.66 6 2.32 6 3 C3.36 3.66 0.72 4.32 -2 5 C-1.34 3.35 -0.68 1.7 0 0 Z " fill="#48D364" transform="translate(62,45)"/>
<path d="M0 0 C2.475 0.99 2.475 0.99 5 2 C5 2.66 5 3.32 5 4 C4.01 4 3.02 4 2 4 C2.95865509 6.33075929 2.95865509 6.33075929 6 8 C4.35 7.67 2.7 7.34 1 7 C0.67 4.69 0.34 2.38 0 0 Z " fill="#A1F29F" transform="translate(56,38)"/>
<path d="M0 0 C0.598125 0.226875 1.19625 0.45375 1.8125 0.6875 C0.843125 1.285625 -0.12625 1.88375 -1.125 2.5 C-4.41802042 4.39877509 -4.41802042 4.39877509 -5.1875 7.6875 C-5.8475 7.6875 -6.5075 7.6875 -7.1875 7.6875 C-4.27205882 -0.61029412 -4.27205882 -0.61029412 0 0 Z " fill="#6CBC8B" transform="translate(33.1875,17.3125)"/>
<path d="M0 0 C2 1.625 2 1.625 4 4 C4.25 7.25 4.25 7.25 4 10 C3.34 9.34 2.68 8.68 2 8 C2 7.01 2 6.02 2 5 C1.34 5 0.68 5 0 5 C0 3.35 0 1.7 0 0 Z " fill="#419D6D" transform="translate(87,30)"/>
<path d="M0 0 C0.66 0 1.32 0 2 0 C2.33 1.32 2.66 2.64 3 4 C0.69 4.66 -1.62 5.32 -4 6 C-2.7260411 3.96166576 -1.38938077 1.96147874 0 0 Z " fill="#14763F" transform="translate(79,33)"/>
<path d="M0 0 C2.76276177 0.52268466 5.3260876 1.10869587 8 2 C8 2.66 8 3.32 8 4 C4.28400809 4.20086443 3.22791555 4.1519437 0 2 C0 1.34 0 0.68 0 0 Z " fill="#5B787C" transform="translate(55,33)"/>
<path d="M0 0 C0.99 0.33 1.98 0.66 3 1 C1.9375 2.9375 1.9375 2.9375 0 5 C-3.6875 5.75 -3.6875 5.75 -7 6 C-5 4 -5 4 -2 3 C-1.34 2.01 -0.68 1.02 0 0 Z " fill="#90F68F" transform="translate(54,30)"/>
<path d="M0 0 C0.99 0.495 0.99 0.495 2 1 C2 1.99 2 2.98 2 4 C3.32 4.66 4.64 5.32 6 6 C5.67 7.32 5.34 8.64 5 10 C4.34 9.34 3.68 8.68 3 8 C3 7.01 3 6.02 3 5 C2.34 5 1.68 5 1 5 C0.67 3.35 0.34 1.7 0 0 Z " fill="#52B177" transform="translate(80,17)"/>
<path d="M0 0 C1.32 0.33 2.64 0.66 4 1 C4.33 2.32 4.66 3.64 5 5 C3.68 5.33 2.36 5.66 1 6 C0.67 4.02 0.34 2.04 0 0 Z " fill="#DEF1D3" transform="translate(93,29)"/>
<path d="M0 0 C1.98 0 3.96 0 6 0 C6 0.66 6 1.32 6 2 C3.36 2.66 0.72 3.32 -2 4 C-1.34 2.68 -0.68 1.36 0 0 Z " fill="#CFEDC2" transform="translate(37,3)"/>
<path d="M0 0 C3.875 1.75 3.875 1.75 5 4 C3.1875 4.6875 3.1875 4.6875 1 5 C-0.75 3.5625 -0.75 3.5625 -2 2 C-1.34 1.34 -0.68 0.68 0 0 Z " fill="#E6F1DA" transform="translate(20,87)"/>
<path d="M0 0 C0.33 0.66 0.66 1.32 1 2 C1.66 2.33 2.32 2.66 3 3 C1.824375 3.1546875 1.824375 3.1546875 0.625 3.3125 C-2.33045181 3.77595022 -2.33045181 3.77595022 -4 7 C-4 6.34 -4 5.68 -4 5 C-4.66 4.67 -5.32 4.34 -6 4 C-3 2 -3 2 0 2 C0 1.34 0 0.68 0 0 Z " fill="#7ED893" transform="translate(54,33)"/>
</svg>
